  0
SECTION
  2
HEADER
  9
$ACADVER
  1
AC1014
  9
$HANDSEED
  5
FFFF
  9
$MEASUREMENT
 70
     1
  0
ENDSEC
  0
SECTION
  2
TABLES
  0
TABLE
  2
VPORT
  5
8
330
0
100
AcDbSymbolTable
 70
     4
  0
VPORT
  5
2E
330
8
100
AcDbSymbolTableRecord
100
AcDbViewportTableRecord
  2
*ACTIVE
 70
     0
 10
0.0
 20
0.0
 11
1.0
 21
1.0
 12
210.0
 22
148.5
 13
0.0
 23
0.0
 14
10.0
 24
10.0
 15
10.0
 25
10.0
 16
0.0
 26
0.0
 36
1.0
 17
0.0
 27
0.0
 37
0.0
 40
341.0
 41
1.24
 42
50.0
 43
0.0
 44
0.0
 50
0.0
 51
0.0
 71
     0
 72
   100
 73
     1
 74
     3
 75
     0
 76
     0
 77
     0
 78
     0
  0
ENDTAB
  0
TABLE
  2
LTYPE
  5
5
330
0
100
AcDbSymbolTable
 70
     1
  0
LTYPE
  5
14
330
5
100
AcDbSymbolTableRecord
100
AcDbLinetypeTableRecord
  2
BYBLOCK
 70
     0
  3

 72
    65
 73
     0
 40
0.0
  0
LTYPE
  5
15
330
5
100
AcDbSymbolTableRecord
100
AcDbLinetypeTableRecord
  2
BYLAYER
 70
     0
  3

 72
    65
 73
     0
 40
0.0
  0
LTYPE
  5
16
330
5
100
AcDbSymbolTableRecord
100
AcDbLinetypeTableRecord
  2
CONTINUOUS
 70
     0
  3
Solid line
 72
    65
 73
     0
 40
0.0
  0
ENDTAB
  0
TABLE
  2
LAYER
  5
2
100
AcDbSymbolTable
 70
1
  0
LAYER
  5
50
100
AcDbSymbolTableRecord
100
AcDbLayerTableRecord
  2
0
 70
0
  6
CONTINUOUS
  0
ENDTAB
  0
TABLE
  2
STYLE
  5
3
330
0
100
AcDbSymbolTable
 70
     1
  0
STYLE
  5
11
330
3
100
AcDbSymbolTableRecord
100
AcDbTextStyleTableRecord
  2
STANDARD
 70
     0
 40
0.0
 41
1.0
 50
0.0
 71
     0
 42
2.5
  3
txt
  4

  0
ENDTAB
  0
TABLE
  2
VIEW
  5
6
330
0
100
AcDbSymbolTable
 70
     0
  0
ENDTAB
  0
TABLE
  2
UCS
  5
7
330
0
100
AcDbSymbolTable
 70
     0
  0
ENDTAB
  0
TABLE
  2
APPID
  5
9
330
0
100
AcDbSymbolTable
 70
     2
  0
APPID
  5
12
330
9
100
AcDbSymbolTableRecord
100
AcDbRegAppTableRecord
  2
ACAD
 70
     0
  0
ENDTAB
  0
TABLE
  2
DIMSTYLE
  5
A
330
0
100
AcDbSymbolTable
 70
     1
  0
DIMSTYLE
105
27
330
A
100
AcDbSymbolTableRecord
100
AcDbDimStyleTableRecord
  2
ISO-25
 70
     0
  3

  4

  5

  6

  7

 40
1.0
 41
2.5
 42
0.625
 43
3.75
 44
1.25
 45
0.0
 46
0.0
 47
0.0
 48
0.0
140
2.5
141
2.5
142
0.0
143
0.03937007874016
144
1.0
145
0.0
146
1.0
147
0.625
 71
     0
 72
     0
 73
     0
 74
     0
 75
     0
 76
     0
 77
     1
 78
     8
170
     0
171
     3
172
     1
173
     0
174
     0
175
     0
176
     0
177
     0
178
     0
270
     2
271
     2
272
     2
273
     2
274
     3
340
11
275
     0
280
     0
281
     0
282
     0
283
     0
284
     8
285
     0
286
     0
287
     3
288
     0
  0
ENDTAB
  0
TABLE
  2
BLOCK_RECORD
  5
1
330
0
100
AcDbSymbolTable
 70
     1
  0
BLOCK_RECORD
  5
1F
330
1
100
AcDbSymbolTableRecord
100
AcDbBlockTableRecord
  2
*MODEL_SPACE
  0
BLOCK_RECORD
  5
1B
330
1
100
AcDbSymbolTableRecord
100
AcDbBlockTableRecord
  2
*PAPER_SPACE
  0
ENDTAB
  0
ENDSEC
  0
SECTION
  2
BLOCKS
  0
BLOCK
  5
20
330
1F
100
AcDbEntity
  8
0
100
AcDbBlockBegin
  2
*MODEL_SPACE
 70
     0
 10
0.0
 20
0.0
 30
0.0
  3
*MODEL_SPACE
  1

  0
ENDBLK
  5
21
330
1F
100
AcDbEntity
  8
0
100
AcDbBlockEnd
  0
BLOCK
  5
1C
330
1B
100
AcDbEntity
 67
     1
  8
0
100
AcDbBlockBegin
  2
*PAPER_SPACE
  1

  0
ENDBLK
  5
1D
330
1B
100
AcDbEntity
 67
     1
  8
0
100
AcDbBlockEnd
  0
ENDSEC
  0
SECTION
  2
ENTITIES
  0
LWPOLYLINE
  5
100
100
AcDbEntity
  8
0
 62
7
100
AcDbPolyline
 90
2
 70
0
 10
48.388299
 20
768.354669
 30
0.0
 10
78.719010
 20
768.354669
 30
0.0
  0
LWPOLYLINE
  5
101
100
AcDbEntity
  8
0
 62
7
100
AcDbPolyline
 90
2
 70
0
 10
120.388297
 20
768.354669
 30
0.0
 10
135.553650
 20
794.621844
 30
0.0
  0
LWPOLYLINE
  5
102
100
AcDbEntity
  8
0
 62
7
100
AcDbPolyline
 90
2
 70
0
 10
156.388297
 20
830.708544
 30
0.0
 10
141.222945
 20
856.975719
 30
0.0
  0
LWPOLYLINE
  5
103
100
AcDbEntity
  8
0
 62
7
100
AcDbPolyline
 90
2
 70
0
 10
120.388297
 20
893.062344
 30
0.0
 10
90.057592
 20
893.062344
 30
0.0
  0
LWPOLYLINE
  5
104
100
AcDbEntity
  8
0
 62
7
100
AcDbPolyline
 90
2
 70
0
 10
48.388299
 20
893.062344
 30
0.0
 10
33.222945
 20
866.795169
 30
0.0
  0
LWPOLYLINE
  5
105
100
AcDbEntity
  8
0
 62
7
100
AcDbPolyline
 90
2
 70
0
 10
12.388298
 20
830.708544
 30
0.0
 10
27.553650
 20
804.441369
 30
0.0
  0
LWPOLYLINE
  5
106
100
AcDbEntity
  8
0
 62
7
100
AcDbPolyline
 90
2
 70
0
 10
40.536691
 20
810.300519
 30
0.0
 10
44.788659
 20
802.935894
 30
0.0
  0
LWPOLYLINE
  5
107
100
AcDbEntity
  8
0
 62
7
100
AcDbPolyline
 90
2
 70
0
 10
80.136330
 20
782.527944
 30
0.0
 10
88.640265
 20
782.527944
 30
0.0
  0
LWPOLYLINE
  5
108
100
AcDbEntity
  8
0
 62
7
100
AcDbPolyline
 90
2
 70
0
 10
80.136330
 20
782.527944
 30
0.0
 10
80.136330
 20
769.772019
 30
0.0
  0
LWPOLYLINE
  5
109
100
AcDbEntity
  8
0
 62
7
100
AcDbPolyline
 90
2
 70
0
 10
88.640265
 20
782.527944
 30
0.0
 10
88.640265
 20
769.772019
 30
0.0
  0
LWPOLYLINE
  5
10a
100
AcDbEntity
  8
0
 62
7
100
AcDbPolyline
 90
2
 70
0
 10
40.536691
 20
810.300519
 30
0.0
 10
29.489753
 20
803.922594
 30
0.0
  0
LWPOLYLINE
  5
10b
100
AcDbEntity
  8
0
 62
7
100
AcDbPolyline
 90
2
 70
0
 10
44.788659
 20
802.935894
 30
0.0
 10
33.741720
 20
796.557969
 30
0.0
  0
LWPOLYLINE
  5
10c
100
AcDbEntity
  8
0
 62
7
100
AcDbPolyline
 90
2
 70
0
 10
44.788659
 20
858.481119
 30
0.0
 10
40.536691
 20
851.116494
 30
0.0
  0
LWPOLYLINE
  5
10d
100
AcDbEntity
  8
0
 62
7
100
AcDbPolyline
 90
2
 70
0
 10
44.788659
 20
858.481119
 30
0.0
 10
33.741720
 20
864.859119
 30
0.0
  0
LWPOLYLINE
  5
10e
100
AcDbEntity
  8
0
 62
7
100
AcDbPolyline
 90
2
 70
0
 10
40.536691
 20
851.116494
 30
0.0
 10
29.489753
 20
857.494494
 30
0.0
  0
LWPOLYLINE
  5
10f
100
AcDbEntity
  8
0
 62
7
100
AcDbPolyline
 90
2
 70
0
 10
88.640265
 20
878.889144
 30
0.0
 10
80.136330
 20
878.889144
 30
0.0
  0
LWPOLYLINE
  5
110
100
AcDbEntity
  8
0
 62
7
100
AcDbPolyline
 90
2
 70
0
 10
88.640265
 20
878.889144
 30
0.0
 10
88.640265
 20
891.644994
 30
0.0
  0
LWPOLYLINE
  5
111
100
AcDbEntity
  8
0
 62
7
100
AcDbPolyline
 90
2
 70
0
 10
80.136330
 20
878.889144
 30
0.0
 10
80.136330
 20
891.644994
 30
0.0
  0
LWPOLYLINE
  5
112
100
AcDbEntity
  8
0
 62
7
100
AcDbPolyline
 90
2
 70
0
 10
128.239905
 20
851.116494
 30
0.0
 10
123.987938
 20
858.481119
 30
0.0
  0
LWPOLYLINE
  5
113
100
AcDbEntity
  8
0
 62
7
100
AcDbPolyline
 90
2
 70
0
 10
128.239905
 20
851.116494
 30
0.0
 10
139.286843
 20
857.494494
 30
0.0
  0
LWPOLYLINE
  5
114
100
AcDbEntity
  8
0
 62
7
100
AcDbPolyline
 90
2
 70
0
 10
123.987938
 20
858.481119
 30
0.0
 10
135.034875
 20
864.859119
 30
0.0
  0
LWPOLYLINE
  5
115
100
AcDbEntity
  8
0
 62
7
100
AcDbPolyline
 90
2
 70
0
 10
123.987938
 20
802.935894
 30
0.0
 10
128.239905
 20
810.300519
 30
0.0
  0
LWPOLYLINE
  5
116
100
AcDbEntity
  8
0
 62
7
100
AcDbPolyline
 90
2
 70
0
 10
123.987938
 20
802.935894
 30
0.0
 10
135.034875
 20
796.557969
 30
0.0
  0
LWPOLYLINE
  5
117
100
AcDbEntity
  8
0
 62
7
100
AcDbPolyline
 90
2
 70
0
 10
128.239905
 20
810.300519
 30
0.0
 10
139.286843
 20
803.922594
 30
0.0
  0
LWPOLYLINE
  5
118
100
AcDbEntity
  8
0
 62
7
100
AcDbPolyline
 90
2
 70
0
 10
90.057592
 20
768.354669
 30
0.0
 10
120.388297
 20
768.354669
 30
0.0
  0
LWPOLYLINE
  5
119
100
AcDbEntity
  8
0
 62
7
100
AcDbPolyline
 90
2
 70
0
 10
135.553650
 20
866.795169
 30
0.0
 10
120.388297
 20
893.062344
 30
0.0
  0
LWPOLYLINE
  5
11a
100
AcDbEntity
  8
0
 62
7
100
AcDbPolyline
 90
2
 70
0
 10
141.222945
 20
804.441369
 30
0.0
 10
156.388297
 20
830.708544
 30
0.0
  0
LWPOLYLINE
  5
11b
100
AcDbEntity
  8
0
 62
7
100
AcDbPolyline
 90
2
 70
0
 10
78.719010
 20
893.062344
 30
0.0
 10
48.388299
 20
893.062344
 30
0.0
  0
LWPOLYLINE
  5
11c
100
AcDbEntity
  8
0
 62
7
100
AcDbPolyline
 90
2
 70
0
 10
27.553650
 20
856.975719
 30
0.0
 10
12.388298
 20
830.708544
 30
0.0
  0
LWPOLYLINE
  5
11d
100
AcDbEntity
  8
0
 62
7
100
AcDbPolyline
 90
2
 70
0
 10
33.222945
 20
794.621844
 30
0.0
 10
48.388299
 20
768.354669
 30
0.0
  0
LWPOLYLINE
  5
11e
100
AcDbEntity
  8
0
 62
7
100
AcDbPolyline
 90
2
 70
0
 10
29.489753
 20
803.922594
 30
0.0
 10
27.553650
 20
804.441369
 30
0.0
  0
LWPOLYLINE
  5
11f
100
AcDbEntity
  8
0
 62
7
100
AcDbPolyline
 90
2
 70
0
 10
29.489753
 20
857.494494
 30
0.0
 10
27.553650
 20
856.975719
 30
0.0
  0
LWPOLYLINE
  5
120
100
AcDbEntity
  8
0
 62
7
100
AcDbPolyline
 90
2
 70
0
 10
33.222945
 20
866.795169
 30
0.0
 10
33.741720
 20
864.859119
 30
0.0
  0
LWPOLYLINE
  5
121
100
AcDbEntity
  8
0
 62
7
100
AcDbPolyline
 90
2
 70
0
 10
80.136330
 20
891.644994
 30
0.0
 10
78.719010
 20
893.062344
 30
0.0
  0
LWPOLYLINE
  5
122
100
AcDbEntity
  8
0
 62
7
100
AcDbPolyline
 90
2
 70
0
 10
88.640265
 20
891.644994
 30
0.0
 10
90.057592
 20
893.062344
 30
0.0
  0
LWPOLYLINE
  5
123
100
AcDbEntity
  8
0
 62
7
100
AcDbPolyline
 90
2
 70
0
 10
135.034875
 20
864.859119
 30
0.0
 10
135.553650
 20
866.795169
 30
0.0
  0
LWPOLYLINE
  5
124
100
AcDbEntity
  8
0
 62
7
100
AcDbPolyline
 90
2
 70
0
 10
139.286843
 20
857.494494
 30
0.0
 10
141.222945
 20
856.975719
 30
0.0
  0
LWPOLYLINE
  5
125
100
AcDbEntity
  8
0
 62
7
100
AcDbPolyline
 90
2
 70
0
 10
139.286843
 20
803.922594
 30
0.0
 10
141.222945
 20
804.441369
 30
0.0
  0
LWPOLYLINE
  5
126
100
AcDbEntity
  8
0
 62
7
100
AcDbPolyline
 90
2
 70
0
 10
135.034875
 20
796.557969
 30
0.0
 10
135.553650
 20
794.621844
 30
0.0
  0
LWPOLYLINE
  5
127
100
AcDbEntity
  8
0
 62
7
100
AcDbPolyline
 90
2
 70
0
 10
88.640265
 20
769.772019
 30
0.0
 10
90.057592
 20
768.354669
 30
0.0
  0
LWPOLYLINE
  5
128
100
AcDbEntity
  8
0
 62
7
100
AcDbPolyline
 90
2
 70
0
 10
80.136330
 20
769.772019
 30
0.0
 10
78.719010
 20
768.354669
 30
0.0
  0
LWPOLYLINE
  5
129
100
AcDbEntity
  8
0
 62
7
100
AcDbPolyline
 90
2
 70
0
 10
33.741720
 20
796.557969
 30
0.0
 10
33.222945
 20
794.621844
 30
0.0
  0
LWPOLYLINE
  5
12a
100
AcDbEntity
  8
0
 62
7
100
AcDbPolyline
 90
2
 70
0
 10
48.388299
 20
768.354669
 30
0.0
 10
78.719010
 20
768.354669
 30
0.0
  0
LWPOLYLINE
  5
12b
100
AcDbEntity
  8
0
 62
7
100
AcDbPolyline
 90
2
 70
0
 10
120.388297
 20
768.354669
 30
0.0
 10
135.553650
 20
794.621844
 30
0.0
  0
LWPOLYLINE
  5
12c
100
AcDbEntity
  8
0
 62
7
100
AcDbPolyline
 90
2
 70
0
 10
156.388297
 20
830.708544
 30
0.0
 10
141.222945
 20
856.975719
 30
0.0
  0
LWPOLYLINE
  5
12d
100
AcDbEntity
  8
0
 62
7
100
AcDbPolyline
 90
2
 70
0
 10
120.388297
 20
893.062344
 30
0.0
 10
90.057592
 20
893.062344
 30
0.0
  0
LWPOLYLINE
  5
12e
100
AcDbEntity
  8
0
 62
7
100
AcDbPolyline
 90
2
 70
0
 10
48.388299
 20
893.062344
 30
0.0
 10
33.222945
 20
866.795169
 30
0.0
  0
LWPOLYLINE
  5
12f
100
AcDbEntity
  8
0
 62
7
100
AcDbPolyline
 90
2
 70
0
 10
12.388298
 20
830.708544
 30
0.0
 10
27.553650
 20
804.441369
 30
0.0
  0
LWPOLYLINE
  5
130
100
AcDbEntity
  8
0
 62
7
100
AcDbPolyline
 90
2
 70
0
 10
40.536691
 20
810.300519
 30
0.0
 10
44.788659
 20
802.935894
 30
0.0
  0
LWPOLYLINE
  5
131
100
AcDbEntity
  8
0
 62
7
100
AcDbPolyline
 90
2
 70
0
 10
80.136330
 20
782.527944
 30
0.0
 10
88.640265
 20
782.527944
 30
0.0
  0
LWPOLYLINE
  5
132
100
AcDbEntity
  8
0
 62
7
100
AcDbPolyline
 90
2
 70
0
 10
80.136330
 20
782.527944
 30
0.0
 10
80.136330
 20
769.772019
 30
0.0
  0
LWPOLYLINE
  5
133
100
AcDbEntity
  8
0
 62
7
100
AcDbPolyline
 90
2
 70
0
 10
88.640265
 20
782.527944
 30
0.0
 10
88.640265
 20
769.772019
 30
0.0
  0
LWPOLYLINE
  5
134
100
AcDbEntity
  8
0
 62
7
100
AcDbPolyline
 90
2
 70
0
 10
40.536691
 20
810.300519
 30
0.0
 10
29.489753
 20
803.922594
 30
0.0
  0
LWPOLYLINE
  5
135
100
AcDbEntity
  8
0
 62
7
100
AcDbPolyline
 90
2
 70
0
 10
44.788659
 20
802.935894
 30
0.0
 10
33.741720
 20
796.557969
 30
0.0
  0
LWPOLYLINE
  5
136
100
AcDbEntity
  8
0
 62
7
100
AcDbPolyline
 90
2
 70
0
 10
44.788659
 20
858.481119
 30
0.0
 10
40.536691
 20
851.116494
 30
0.0
  0
LWPOLYLINE
  5
137
100
AcDbEntity
  8
0
 62
7
100
AcDbPolyline
 90
2
 70
0
 10
44.788659
 20
858.481119
 30
0.0
 10
33.741720
 20
864.859119
 30
0.0
  0
LWPOLYLINE
  5
138
100
AcDbEntity
  8
0
 62
7
100
AcDbPolyline
 90
2
 70
0
 10
40.536691
 20
851.116494
 30
0.0
 10
29.489753
 20
857.494494
 30
0.0
  0
LWPOLYLINE
  5
139
100
AcDbEntity
  8
0
 62
7
100
AcDbPolyline
 90
2
 70
0
 10
88.640265
 20
878.889144
 30
0.0
 10
80.136330
 20
878.889144
 30
0.0
  0
LWPOLYLINE
  5
13a
100
AcDbEntity
  8
0
 62
7
100
AcDbPolyline
 90
2
 70
0
 10
88.640265
 20
878.889144
 30
0.0
 10
88.640265
 20
891.644994
 30
0.0
  0
LWPOLYLINE
  5
13b
100
AcDbEntity
  8
0
 62
7
100
AcDbPolyline
 90
2
 70
0
 10
80.136330
 20
878.889144
 30
0.0
 10
80.136330
 20
891.644994
 30
0.0
  0
LWPOLYLINE
  5
13c
100
AcDbEntity
  8
0
 62
7
100
AcDbPolyline
 90
2
 70
0
 10
128.239905
 20
851.116494
 30
0.0
 10
123.987938
 20
858.481119
 30
0.0
  0
LWPOLYLINE
  5
13d
100
AcDbEntity
  8
0
 62
7
100
AcDbPolyline
 90
2
 70
0
 10
128.239905
 20
851.116494
 30
0.0
 10
139.286843
 20
857.494494
 30
0.0
  0
LWPOLYLINE
  5
13e
100
AcDbEntity
  8
0
 62
7
100
AcDbPolyline
 90
2
 70
0
 10
123.987938
 20
858.481119
 30
0.0
 10
135.034875
 20
864.859119
 30
0.0
  0
LWPOLYLINE
  5
13f
100
AcDbEntity
  8
0
 62
7
100
AcDbPolyline
 90
2
 70
0
 10
123.987938
 20
802.935894
 30
0.0
 10
128.239905
 20
810.300519
 30
0.0
  0
LWPOLYLINE
  5
140
100
AcDbEntity
  8
0
 62
7
100
AcDbPolyline
 90
2
 70
0
 10
123.987938
 20
802.935894
 30
0.0
 10
135.034875
 20
796.557969
 30
0.0
  0
LWPOLYLINE
  5
141
100
AcDbEntity
  8
0
 62
7
100
AcDbPolyline
 90
2
 70
0
 10
128.239905
 20
810.300519
 30
0.0
 10
139.286843
 20
803.922594
 30
0.0
  0
LWPOLYLINE
  5
142
100
AcDbEntity
  8
0
 62
7
100
AcDbPolyline
 90
2
 70
0
 10
90.057592
 20
768.354669
 30
0.0
 10
120.388297
 20
768.354669
 30
0.0
  0
LWPOLYLINE
  5
143
100
AcDbEntity
  8
0
 62
7
100
AcDbPolyline
 90
2
 70
0
 10
135.553650
 20
866.795169
 30
0.0
 10
120.388297
 20
893.062344
 30
0.0
  0
LWPOLYLINE
  5
144
100
AcDbEntity
  8
0
 62
7
100
AcDbPolyline
 90
2
 70
0
 10
141.222945
 20
804.441369
 30
0.0
 10
156.388297
 20
830.708544
 30
0.0
  0
LWPOLYLINE
  5
145
100
AcDbEntity
  8
0
 62
7
100
AcDbPolyline
 90
2
 70
0
 10
78.719010
 20
893.062344
 30
0.0
 10
48.388299
 20
893.062344
 30
0.0
  0
LWPOLYLINE
  5
146
100
AcDbEntity
  8
0
 62
7
100
AcDbPolyline
 90
2
 70
0
 10
27.553650
 20
856.975719
 30
0.0
 10
12.388298
 20
830.708544
 30
0.0
  0
LWPOLYLINE
  5
147
100
AcDbEntity
  8
0
 62
7
100
AcDbPolyline
 90
2
 70
0
 10
33.222945
 20
794.621844
 30
0.0
 10
48.388299
 20
768.354669
 30
0.0
  0
LWPOLYLINE
  5
148
100
AcDbEntity
  8
0
 62
7
100
AcDbPolyline
 90
2
 70
0
 10
29.489753
 20
803.922594
 30
0.0
 10
27.553650
 20
804.441369
 30
0.0
  0
LWPOLYLINE
  5
149
100
AcDbEntity
  8
0
 62
7
100
AcDbPolyline
 90
2
 70
0
 10
29.489753
 20
857.494494
 30
0.0
 10
27.553650
 20
856.975719
 30
0.0
  0
LWPOLYLINE
  5
14a
100
AcDbEntity
  8
0
 62
7
100
AcDbPolyline
 90
2
 70
0
 10
33.222945
 20
866.795169
 30
0.0
 10
33.741720
 20
864.859119
 30
0.0
  0
LWPOLYLINE
  5
14b
100
AcDbEntity
  8
0
 62
7
100
AcDbPolyline
 90
2
 70
0
 10
80.136330
 20
891.644994
 30
0.0
 10
78.719010
 20
893.062344
 30
0.0
  0
LWPOLYLINE
  5
14c
100
AcDbEntity
  8
0
 62
7
100
AcDbPolyline
 90
2
 70
0
 10
88.640265
 20
891.644994
 30
0.0
 10
90.057592
 20
893.062344
 30
0.0
  0
LWPOLYLINE
  5
14d
100
AcDbEntity
  8
0
 62
7
100
AcDbPolyline
 90
2
 70
0
 10
135.034875
 20
864.859119
 30
0.0
 10
135.553650
 20
866.795169
 30
0.0
  0
LWPOLYLINE
  5
14e
100
AcDbEntity
  8
0
 62
7
100
AcDbPolyline
 90
2
 70
0
 10
139.286843
 20
857.494494
 30
0.0
 10
141.222945
 20
856.975719
 30
0.0
  0
LWPOLYLINE
  5
14f
100
AcDbEntity
  8
0
 62
7
100
AcDbPolyline
 90
2
 70
0
 10
139.286843
 20
803.922594
 30
0.0
 10
141.222945
 20
804.441369
 30
0.0
  0
LWPOLYLINE
  5
150
100
AcDbEntity
  8
0
 62
7
100
AcDbPolyline
 90
2
 70
0
 10
135.034875
 20
796.557969
 30
0.0
 10
135.553650
 20
794.621844
 30
0.0
  0
LWPOLYLINE
  5
151
100
AcDbEntity
  8
0
 62
7
100
AcDbPolyline
 90
2
 70
0
 10
88.640265
 20
769.772019
 30
0.0
 10
90.057592
 20
768.354669
 30
0.0
  0
LWPOLYLINE
  5
152
100
AcDbEntity
  8
0
 62
7
100
AcDbPolyline
 90
2
 70
0
 10
80.136330
 20
769.772019
 30
0.0
 10
78.719010
 20
768.354669
 30
0.0
  0
LWPOLYLINE
  5
153
100
AcDbEntity
  8
0
 62
7
100
AcDbPolyline
 90
2
 70
0
 10
33.741720
 20
796.557969
 30
0.0
 10
33.222945
 20
794.621844
 30
0.0
  0
LWPOLYLINE
  5
154
100
AcDbEntity
  8
0
 62
7
100
AcDbPolyline
 90
2
 70
0
 10
48.388299
 20
637.335077
 30
0.0
 10
78.719010
 20
637.335077
 30
0.0
  0
LWPOLYLINE
  5
155
100
AcDbEntity
  8
0
 62
7
100
AcDbPolyline
 90
2
 70
0
 10
120.388297
 20
637.335077
 30
0.0
 10
135.553650
 20
663.602252
 30
0.0
  0
LWPOLYLINE
  5
156
100
AcDbEntity
  8
0
 62
7
100
AcDbPolyline
 90
2
 70
0
 10
156.388297
 20
699.688952
 30
0.0
 10
141.222945
 20
725.956127
 30
0.0
  0
LWPOLYLINE
  5
157
100
AcDbEntity
  8
0
 62
7
100
AcDbPolyline
 90
2
 70
0
 10
120.388297
 20
762.042752
 30
0.0
 10
90.057592
 20
762.042752
 30
0.0
  0
LWPOLYLINE
  5
158
100
AcDbEntity
  8
0
 62
7
100
AcDbPolyline
 90
2
 70
0
 10
48.388299
 20
762.042752
 30
0.0
 10
33.222945
 20
735.775577
 30
0.0
  0
LWPOLYLINE
  5
159
100
AcDbEntity
  8
0
 62
7
100
AcDbPolyline
 90
2
 70
0
 10
12.388298
 20
699.688952
 30
0.0
 10
27.553650
 20
673.421777
 30
0.0
  0
LWPOLYLINE
  5
15a
100
AcDbEntity
  8
0
 62
7
100
AcDbPolyline
 90
2
 70
0
 10
40.536691
 20
679.280927
 30
0.0
 10
44.788659
 20
671.916302
 30
0.0
  0
LWPOLYLINE
  5
15b
100
AcDbEntity
  8
0
 62
7
100
AcDbPolyline
 90
2
 70
0
 10
80.136330
 20
651.508352
 30
0.0
 10
88.640265
 20
651.508352
 30
0.0
  0
LWPOLYLINE
  5
15c
100
AcDbEntity
  8
0
 62
7
100
AcDbPolyline
 90
2
 70
0
 10
80.136330
 20
651.508352
 30
0.0
 10
80.136330
 20
638.752427
 30
0.0
  0
LWPOLYLINE
  5
15d
100
AcDbEntity
  8
0
 62
7
100
AcDbPolyline
 90
2
 70
0
 10
88.640265
 20
651.508352
 30
0.0
 10
88.640265
 20
638.752427
 30
0.0
  0
LWPOLYLINE
  5
15e
100
AcDbEntity
  8
0
 62
7
100
AcDbPolyline
 90
2
 70
0
 10
40.536691
 20
679.280927
 30
0.0
 10
29.489753
 20
672.903002
 30
0.0
  0
LWPOLYLINE
  5
15f
100
AcDbEntity
  8
0
 62
7
100
AcDbPolyline
 90
2
 70
0
 10
44.788659
 20
671.916302
 30
0.0
 10
33.741720
 20
665.538377
 30
0.0
  0
LWPOLYLINE
  5
160
100
AcDbEntity
  8
0
 62
7
100
AcDbPolyline
 90
2
 70
0
 10
44.788659
 20
727.461527
 30
0.0
 10
40.536691
 20
720.096902
 30
0.0
  0
LWPOLYLINE
  5
161
100
AcDbEntity
  8
0
 62
7
100
AcDbPolyline
 90
2
 70
0
 10
44.788659
 20
727.461527
 30
0.0
 10
33.741720
 20
733.839527
 30
0.0
  0
LWPOLYLINE
  5
162
100
AcDbEntity
  8
0
 62
7
100
AcDbPolyline
 90
2
 70
0
 10
40.536691
 20
720.096902
 30
0.0
 10
29.489753
 20
726.474902
 30
0.0
  0
LWPOLYLINE
  5
163
100
AcDbEntity
  8
0
 62
7
100
AcDbPolyline
 90
2
 70
0
 10
88.640265
 20
747.869552
 30
0.0
 10
80.136330
 20
747.869552
 30
0.0
  0
LWPOLYLINE
  5
164
100
AcDbEntity
  8
0
 62
7
100
AcDbPolyline
 90
2
 70
0
 10
88.640265
 20
747.869552
 30
0.0
 10
88.640265
 20
760.625402
 30
0.0
  0
LWPOLYLINE
  5
165
100
AcDbEntity
  8
0
 62
7
100
AcDbPolyline
 90
2
 70
0
 10
80.136330
 20
747.869552
 30
0.0
 10
80.136330
 20
760.625402
 30
0.0
  0
LWPOLYLINE
  5
166
100
AcDbEntity
  8
0
 62
7
100
AcDbPolyline
 90
2
 70
0
 10
128.239905
 20
720.096902
 30
0.0
 10
123.987938
 20
727.461527
 30
0.0
  0
LWPOLYLINE
  5
167
100
AcDbEntity
  8
0
 62
7
100
AcDbPolyline
 90
2
 70
0
 10
128.239905
 20
720.096902
 30
0.0
 10
139.286843
 20
726.474902
 30
0.0
  0
LWPOLYLINE
  5
168
100
AcDbEntity
  8
0
 62
7
100
AcDbPolyline
 90
2
 70
0
 10
123.987938
 20
727.461527
 30
0.0
 10
135.034875
 20
733.839527
 30
0.0
  0
LWPOLYLINE
  5
169
100
AcDbEntity
  8
0
 62
7
100
AcDbPolyline
 90
2
 70
0
 10
123.987938
 20
671.916302
 30
0.0
 10
128.239905
 20
679.280927
 30
0.0
  0
LWPOLYLINE
  5
16a
100
AcDbEntity
  8
0
 62
7
100
AcDbPolyline
 90
2
 70
0
 10
123.987938
 20
671.916302
 30
0.0
 10
135.034875
 20
665.538377
 30
0.0
  0
LWPOLYLINE
  5
16b
100
AcDbEntity
  8
0
 62
7
100
AcDbPolyline
 90
2
 70
0
 10
128.239905
 20
679.280927
 30
0.0
 10
139.286843
 20
672.903002
 30
0.0
  0
LWPOLYLINE
  5
16c
100
AcDbEntity
  8
0
 62
7
100
AcDbPolyline
 90
2
 70
0
 10
90.057592
 20
637.335077
 30
0.0
 10
120.388297
 20
637.335077
 30
0.0
  0
LWPOLYLINE
  5
16d
100
AcDbEntity
  8
0
 62
7
100
AcDbPolyline
 90
2
 70
0
 10
135.553650
 20
735.775577
 30
0.0
 10
120.388297
 20
762.042752
 30
0.0
  0
LWPOLYLINE
  5
16e
100
AcDbEntity
  8
0
 62
7
100
AcDbPolyline
 90
2
 70
0
 10
141.222945
 20
673.421777
 30
0.0
 10
156.388297
 20
699.688952
 30
0.0
  0
LWPOLYLINE
  5
16f
100
AcDbEntity
  8
0
 62
7
100
AcDbPolyline
 90
2
 70
0
 10
78.719010
 20
762.042752
 30
0.0
 10
48.388299
 20
762.042752
 30
0.0
  0
LWPOLYLINE
  5
170
100
AcDbEntity
  8
0
 62
7
100
AcDbPolyline
 90
2
 70
0
 10
27.553650
 20
725.956127
 30
0.0
 10
12.388298
 20
699.688952
 30
0.0
  0
LWPOLYLINE
  5
171
100
AcDbEntity
  8
0
 62
7
100
AcDbPolyline
 90
2
 70
0
 10
33.222945
 20
663.602252
 30
0.0
 10
48.388299
 20
637.335077
 30
0.0
  0
LWPOLYLINE
  5
172
100
AcDbEntity
  8
0
 62
7
100
AcDbPolyline
 90
2
 70
0
 10
29.489753
 20
672.903002
 30
0.0
 10
27.553650
 20
673.421777
 30
0.0
  0
LWPOLYLINE
  5
173
100
AcDbEntity
  8
0
 62
7
100
AcDbPolyline
 90
2
 70
0
 10
29.489753
 20
726.474902
 30
0.0
 10
27.553650
 20
725.956127
 30
0.0
  0
LWPOLYLINE
  5
174
100
AcDbEntity
  8
0
 62
7
100
AcDbPolyline
 90
2
 70
0
 10
33.222945
 20
735.775577
 30
0.0
 10
33.741720
 20
733.839527
 30
0.0
  0
LWPOLYLINE
  5
175
100
AcDbEntity
  8
0
 62
7
100
AcDbPolyline
 90
2
 70
0
 10
80.136330
 20
760.625402
 30
0.0
 10
78.719010
 20
762.042752
 30
0.0
  0
LWPOLYLINE
  5
176
100
AcDbEntity
  8
0
 62
7
100
AcDbPolyline
 90
2
 70
0
 10
88.640265
 20
760.625402
 30
0.0
 10
90.057592
 20
762.042752
 30
0.0
  0
LWPOLYLINE
  5
177
100
AcDbEntity
  8
0
 62
7
100
AcDbPolyline
 90
2
 70
0
 10
135.034875
 20
733.839527
 30
0.0
 10
135.553650
 20
735.775577
 30
0.0
  0
LWPOLYLINE
  5
178
100
AcDbEntity
  8
0
 62
7
100
AcDbPolyline
 90
2
 70
0
 10
139.286843
 20
726.474902
 30
0.0
 10
141.222945
 20
725.956127
 30
0.0
  0
LWPOLYLINE
  5
179
100
AcDbEntity
  8
0
 62
7
100
AcDbPolyline
 90
2
 70
0
 10
139.286843
 20
672.903002
 30
0.0
 10
141.222945
 20
673.421777
 30
0.0
  0
LWPOLYLINE
  5
17a
100
AcDbEntity
  8
0
 62
7
100
AcDbPolyline
 90
2
 70
0
 10
135.034875
 20
665.538377
 30
0.0
 10
135.553650
 20
663.602252
 30
0.0
  0
LWPOLYLINE
  5
17b
100
AcDbEntity
  8
0
 62
7
100
AcDbPolyline
 90
2
 70
0
 10
88.640265
 20
638.752427
 30
0.0
 10
90.057592
 20
637.335077
 30
0.0
  0
LWPOLYLINE
  5
17c
100
AcDbEntity
  8
0
 62
7
100
AcDbPolyline
 90
2
 70
0
 10
80.136330
 20
638.752427
 30
0.0
 10
78.719010
 20
637.335077
 30
0.0
  0
LWPOLYLINE
  5
17d
100
AcDbEntity
  8
0
 62
7
100
AcDbPolyline
 90
2
 70
0
 10
33.741720
 20
665.538377
 30
0.0
 10
33.222945
 20
663.602252
 30
0.0
  0
LWPOLYLINE
  5
17e
100
AcDbEntity
  8
0
 62
7
100
AcDbPolyline
 90
2
 70
0
 10
48.388299
 20
506.315484
 30
0.0
 10
78.719010
 20
506.315484
 30
0.0
  0
LWPOLYLINE
  5
17f
100
AcDbEntity
  8
0
 62
7
100
AcDbPolyline
 90
2
 70
0
 10
120.388297
 20
506.315484
 30
0.0
 10
135.553650
 20
532.582659
 30
0.0
  0
LWPOLYLINE
  5
180
100
AcDbEntity
  8
0
 62
7
100
AcDbPolyline
 90
2
 70
0
 10
156.388297
 20
568.669359
 30
0.0
 10
141.222945
 20
594.936534
 30
0.0
  0
LWPOLYLINE
  5
181
100
AcDbEntity
  8
0
 62
7
100
AcDbPolyline
 90
2
 70
0
 10
120.388297
 20
631.023159
 30
0.0
 10
90.057592
 20
631.023159
 30
0.0
  0
LWPOLYLINE
  5
182
100
AcDbEntity
  8
0
 62
7
100
AcDbPolyline
 90
2
 70
0
 10
48.388299
 20
631.023159
 30
0.0
 10
33.222945
 20
604.755984
 30
0.0
  0
LWPOLYLINE
  5
183
100
AcDbEntity
  8
0
 62
7
100
AcDbPolyline
 90
2
 70
0
 10
12.388298
 20
568.669359
 30
0.0
 10
27.553650
 20
542.402184
 30
0.0
  0
LWPOLYLINE
  5
184
100
AcDbEntity
  8
0
 62
7
100
AcDbPolyline
 90
2
 70
0
 10
40.536691
 20
548.261334
 30
0.0
 10
44.788659
 20
540.896709
 30
0.0
  0
LWPOLYLINE
  5
185
100
AcDbEntity
  8
0
 62
7
100
AcDbPolyline
 90
2
 70
0
 10
80.136330
 20
520.488759
 30
0.0
 10
88.640265
 20
520.488759
 30
0.0
  0
LWPOLYLINE
  5
186
100
AcDbEntity
  8
0
 62
7
100
AcDbPolyline
 90
2
 70
0
 10
80.136330
 20
520.488759
 30
0.0
 10
80.136330
 20
507.732834
 30
0.0
  0
LWPOLYLINE
  5
187
100
AcDbEntity
  8
0
 62
7
100
AcDbPolyline
 90
2
 70
0
 10
88.640265
 20
520.488759
 30
0.0
 10
88.640265
 20
507.732834
 30
0.0
  0
LWPOLYLINE
  5
188
100
AcDbEntity
  8
0
 62
7
100
AcDbPolyline
 90
2
 70
0
 10
40.536691
 20
548.261334
 30
0.0
 10
29.489753
 20
541.883409
 30
0.0
  0
LWPOLYLINE
  5
189
100
AcDbEntity
  8
0
 62
7
100
AcDbPolyline
 90
2
 70
0
 10
44.788659
 20
540.896709
 30
0.0
 10
33.741720
 20
534.518784
 30
0.0
  0
LWPOLYLINE
  5
18a
100
AcDbEntity
  8
0
 62
7
100
AcDbPolyline
 90
2
 70
0
 10
44.788659
 20
596.441934
 30
0.0
 10
40.536691
 20
589.077309
 30
0.0
  0
LWPOLYLINE
  5
18b
100
AcDbEntity
  8
0
 62
7
100
AcDbPolyline
 90
2
 70
0
 10
44.788659
 20
596.441934
 30
0.0
 10
33.741720
 20
602.819934
 30
0.0
  0
LWPOLYLINE
  5
18c
100
AcDbEntity
  8
0
 62
7
100
AcDbPolyline
 90
2
 70
0
 10
40.536691
 20
589.077309
 30
0.0
 10
29.489753
 20
595.455309
 30
0.0
  0
LWPOLYLINE
  5
18d
100
AcDbEntity
  8
0
 62
7
100
AcDbPolyline
 90
2
 70
0
 10
88.640265
 20
616.849959
 30
0.0
 10
80.136330
 20
616.849959
 30
0.0
  0
LWPOLYLINE
  5
18e
100
AcDbEntity
  8
0
 62
7
100
AcDbPolyline
 90
2
 70
0
 10
88.640265
 20
616.849959
 30
0.0
 10
88.640265
 20
629.605809
 30
0.0
  0
LWPOLYLINE
  5
18f
100
AcDbEntity
  8
0
 62
7
100
AcDbPolyline
 90
2
 70
0
 10
80.136330
 20
616.849959
 30
0.0
 10
80.136330
 20
629.605809
 30
0.0
  0
LWPOLYLINE
  5
190
100
AcDbEntity
  8
0
 62
7
100
AcDbPolyline
 90
2
 70
0
 10
128.239905
 20
589.077309
 30
0.0
 10
123.987938
 20
596.441934
 30
0.0
  0
LWPOLYLINE
  5
191
100
AcDbEntity
  8
0
 62
7
100
AcDbPolyline
 90
2
 70
0
 10
128.239905
 20
589.077309
 30
0.0
 10
139.286843
 20
595.455309
 30
0.0
  0
LWPOLYLINE
  5
192
100
AcDbEntity
  8
0
 62
7
100
AcDbPolyline
 90
2
 70
0
 10
123.987938
 20
596.441934
 30
0.0
 10
135.034875
 20
602.819934
 30
0.0
  0
LWPOLYLINE
  5
193
100
AcDbEntity
  8
0
 62
7
100
AcDbPolyline
 90
2
 70
0
 10
123.987938
 20
540.896709
 30
0.0
 10
128.239905
 20
548.261334
 30
0.0
  0
LWPOLYLINE
  5
194
100
AcDbEntity
  8
0
 62
7
100
AcDbPolyline
 90
2
 70
0
 10
123.987938
 20
540.896709
 30
0.0
 10
135.034875
 20
534.518784
 30
0.0
  0
LWPOLYLINE
  5
195
100
AcDbEntity
  8
0
 62
7
100
AcDbPolyline
 90
2
 70
0
 10
128.239905
 20
548.261334
 30
0.0
 10
139.286843
 20
541.883409
 30
0.0
  0
LWPOLYLINE
  5
196
100
AcDbEntity
  8
0
 62
7
100
AcDbPolyline
 90
2
 70
0
 10
90.057592
 20
506.315484
 30
0.0
 10
120.388297
 20
506.315484
 30
0.0
  0
LWPOLYLINE
  5
197
100
AcDbEntity
  8
0
 62
7
100
AcDbPolyline
 90
2
 70
0
 10
135.553650
 20
604.755984
 30
0.0
 10
120.388297
 20
631.023159
 30
0.0
  0
LWPOLYLINE
  5
198
100
AcDbEntity
  8
0
 62
7
100
AcDbPolyline
 90
2
 70
0
 10
141.222945
 20
542.402184
 30
0.0
 10
156.388297
 20
568.669359
 30
0.0
  0
LWPOLYLINE
  5
199
100
AcDbEntity
  8
0
 62
7
100
AcDbPolyline
 90
2
 70
0
 10
78.719010
 20
631.023159
 30
0.0
 10
48.388299
 20
631.023159
 30
0.0
  0
LWPOLYLINE
  5
19a
100
AcDbEntity
  8
0
 62
7
100
AcDbPolyline
 90
2
 70
0
 10
27.553650
 20
594.936534
 30
0.0
 10
12.388298
 20
568.669359
 30
0.0
  0
LWPOLYLINE
  5
19b
100
AcDbEntity
  8
0
 62
7
100
AcDbPolyline
 90
2
 70
0
 10
33.222945
 20
532.582659
 30
0.0
 10
48.388299
 20
506.315484
 30
0.0
  0
LWPOLYLINE
  5
19c
100
AcDbEntity
  8
0
 62
7
100
AcDbPolyline
 90
2
 70
0
 10
29.489753
 20
541.883409
 30
0.0
 10
27.553650
 20
542.402184
 30
0.0
  0
LWPOLYLINE
  5
19d
100
AcDbEntity
  8
0
 62
7
100
AcDbPolyline
 90
2
 70
0
 10
29.489753
 20
595.455309
 30
0.0
 10
27.553650
 20
594.936534
 30
0.0
  0
LWPOLYLINE
  5
19e
100
AcDbEntity
  8
0
 62
7
100
AcDbPolyline
 90
2
 70
0
 10
33.222945
 20
604.755984
 30
0.0
 10
33.741720
 20
602.819934
 30
0.0
  0
LWPOLYLINE
  5
19f
100
AcDbEntity
  8
0
 62
7
100
AcDbPolyline
 90
2
 70
0
 10
80.136330
 20
629.605809
 30
0.0
 10
78.719010
 20
631.023159
 30
0.0
  0
LWPOLYLINE
  5
1a0
100
AcDbEntity
  8
0
 62
7
100
AcDbPolyline
 90
2
 70
0
 10
88.640265
 20
629.605809
 30
0.0
 10
90.057592
 20
631.023159
 30
0.0
  0
LWPOLYLINE
  5
1a1
100
AcDbEntity
  8
0
 62
7
100
AcDbPolyline
 90
2
 70
0
 10
135.034875
 20
602.819934
 30
0.0
 10
135.553650
 20
604.755984
 30
0.0
  0
LWPOLYLINE
  5
1a2
100
AcDbEntity
  8
0
 62
7
100
AcDbPolyline
 90
2
 70
0
 10
139.286843
 20
595.455309
 30
0.0
 10
141.222945
 20
594.936534
 30
0.0
  0
LWPOLYLINE
  5
1a3
100
AcDbEntity
  8
0
 62
7
100
AcDbPolyline
 90
2
 70
0
 10
139.286843
 20
541.883409
 30
0.0
 10
141.222945
 20
542.402184
 30
0.0
  0
LWPOLYLINE
  5
1a4
100
AcDbEntity
  8
0
 62
7
100
AcDbPolyline
 90
2
 70
0
 10
135.034875
 20
534.518784
 30
0.0
 10
135.553650
 20
532.582659
 30
0.0
  0
LWPOLYLINE
  5
1a5
100
AcDbEntity
  8
0
 62
7
100
AcDbPolyline
 90
2
 70
0
 10
88.640265
 20
507.732834
 30
0.0
 10
90.057592
 20
506.315484
 30
0.0
  0
LWPOLYLINE
  5
1a6
100
AcDbEntity
  8
0
 62
7
100
AcDbPolyline
 90
2
 70
0
 10
80.136330
 20
507.732834
 30
0.0
 10
78.719010
 20
506.315484
 30
0.0
  0
LWPOLYLINE
  5
1a7
100
AcDbEntity
  8
0
 62
7
100
AcDbPolyline
 90
2
 70
0
 10
33.741720
 20
534.518784
 30
0.0
 10
33.222945
 20
532.582659
 30
0.0
  0
LWPOLYLINE
  5
1a8
100
AcDbEntity
  8
0
 62
7
100
AcDbPolyline
 90
2
 70
0
 10
199.664439
 20
768.354669
 30
0.0
 10
229.995150
 20
768.354669
 30
0.0
  0
LWPOLYLINE
  5
1a9
100
AcDbEntity
  8
0
 62
7
100
AcDbPolyline
 90
2
 70
0
 10
271.664437
 20
768.354669
 30
0.0
 10
286.829790
 20
794.621844
 30
0.0
  0
LWPOLYLINE
  5
1aa
100
AcDbEntity
  8
0
 62
7
100
AcDbPolyline
 90
2
 70
0
 10
307.664437
 20
830.708544
 30
0.0
 10
292.499085
 20
856.975719
 30
0.0
  0
LWPOLYLINE
  5
1ab
100
AcDbEntity
  8
0
 62
7
100
AcDbPolyline
 90
2
 70
0
 10
271.664437
 20
893.062344
 30
0.0
 10
241.333732
 20
893.062344
 30
0.0
  0
LWPOLYLINE
  5
1ac
100
AcDbEntity
  8
0
 62
7
100
AcDbPolyline
 90
2
 70
0
 10
199.664439
 20
893.062344
 30
0.0
 10
184.499085
 20
866.795169
 30
0.0
  0
LWPOLYLINE
  5
1ad
100
AcDbEntity
  8
0
 62
7
100
AcDbPolyline
 90
2
 70
0
 10
163.664437
 20
830.708544
 30
0.0
 10
178.829790
 20
804.441369
 30
0.0
  0
LWPOLYLINE
  5
1ae
100
AcDbEntity
  8
0
 62
7
100
AcDbPolyline
 90
2
 70
0
 10
191.812831
 20
810.300519
 30
0.0
 10
196.064799
 20
802.935894
 30
0.0
  0
LWPOLYLINE
  5
1af
100
AcDbEntity
  8
0
 62
7
100
AcDbPolyline
 90
2
 70
0
 10
231.412470
 20
782.527944
 30
0.0
 10
239.916405
 20
782.527944
 30
0.0
  0
LWPOLYLINE
  5
1b0
100
AcDbEntity
  8
0
 62
7
100
AcDbPolyline
 90
2
 70
0
 10
231.412470
 20
782.527944
 30
0.0
 10
231.412470
 20
769.772019
 30
0.0
  0
LWPOLYLINE
  5
1b1
100
AcDbEntity
  8
0
 62
7
100
AcDbPolyline
 90
2
 70
0
 10
239.916405
 20
782.527944
 30
0.0
 10
239.916405
 20
769.772019
 30
0.0
  0
LWPOLYLINE
  5
1b2
100
AcDbEntity
  8
0
 62
7
100
AcDbPolyline
 90
2
 70
0
 10
191.812831
 20
810.300519
 30
0.0
 10
180.765893
 20
803.922594
 30
0.0
  0
LWPOLYLINE
  5
1b3
100
AcDbEntity
  8
0
 62
7
100
AcDbPolyline
 90
2
 70
0
 10
196.064799
 20
802.935894
 30
0.0
 10
185.017860
 20
796.557969
 30
0.0
  0
LWPOLYLINE
  5
1b4
100
AcDbEntity
  8
0
 62
7
100
AcDbPolyline
 90
2
 70
0
 10
196.064799
 20
858.481119
 30
0.0
 10
191.812831
 20
851.116494
 30
0.0
  0
LWPOLYLINE
  5
1b5
100
AcDbEntity
  8
0
 62
7
100
AcDbPolyline
 90
2
 70
0
 10
196.064799
 20
858.481119
 30
0.0
 10
185.017860
 20
864.859119
 30
0.0
  0
LWPOLYLINE
  5
1b6
100
AcDbEntity
  8
0
 62
7
100
AcDbPolyline
 90
2
 70
0
 10
191.812831
 20
851.116494
 30
0.0
 10
180.765893
 20
857.494494
 30
0.0
  0
LWPOLYLINE
  5
1b7
100
AcDbEntity
  8
0
 62
7
100
AcDbPolyline
 90
2
 70
0
 10
239.916405
 20
878.889144
 30
0.0
 10
231.412470
 20
878.889144
 30
0.0
  0
LWPOLYLINE
  5
1b8
100
AcDbEntity
  8
0
 62
7
100
AcDbPolyline
 90
2
 70
0
 10
239.916405
 20
878.889144
 30
0.0
 10
239.916405
 20
891.644994
 30
0.0
  0
LWPOLYLINE
  5
1b9
100
AcDbEntity
  8
0
 62
7
100
AcDbPolyline
 90
2
 70
0
 10
231.412470
 20
878.889144
 30
0.0
 10
231.412470
 20
891.644994
 30
0.0
  0
LWPOLYLINE
  5
1ba
100
AcDbEntity
  8
0
 62
7
100
AcDbPolyline
 90
2
 70
0
 10
279.516045
 20
851.116494
 30
0.0
 10
275.264077
 20
858.481119
 30
0.0
  0
LWPOLYLINE
  5
1bb
100
AcDbEntity
  8
0
 62
7
100
AcDbPolyline
 90
2
 70
0
 10
279.516045
 20
851.116494
 30
0.0
 10
290.562982
 20
857.494494
 30
0.0
  0
LWPOLYLINE
  5
1bc
100
AcDbEntity
  8
0
 62
7
100
AcDbPolyline
 90
2
 70
0
 10
275.264077
 20
858.481119
 30
0.0
 10
286.311015
 20
864.859119
 30
0.0
  0
LWPOLYLINE
  5
1bd
100
AcDbEntity
  8
0
 62
7
100
AcDbPolyline
 90
2
 70
0
 10
275.264077
 20
802.935894
 30
0.0
 10
279.516045
 20
810.300519
 30
0.0
  0
LWPOLYLINE
  5
1be
100
AcDbEntity
  8
0
 62
7
100
AcDbPolyline
 90
2
 70
0
 10
275.264077
 20
802.935894
 30
0.0
 10
286.311015
 20
796.557969
 30
0.0
  0
LWPOLYLINE
  5
1bf
100
AcDbEntity
  8
0
 62
7
100
AcDbPolyline
 90
2
 70
0
 10
279.516045
 20
810.300519
 30
0.0
 10
290.562982
 20
803.922594
 30
0.0
  0
LWPOLYLINE
  5
1c0
100
AcDbEntity
  8
0
 62
7
100
AcDbPolyline
 90
2
 70
0
 10
241.333732
 20
768.354669
 30
0.0
 10
271.664437
 20
768.354669
 30
0.0
  0
LWPOLYLINE
  5
1c1
100
AcDbEntity
  8
0
 62
7
100
AcDbPolyline
 90
2
 70
0
 10
286.829790
 20
866.795169
 30
0.0
 10
271.664437
 20
893.062344
 30
0.0
  0
LWPOLYLINE
  5
1c2
100
AcDbEntity
  8
0
 62
7
100
AcDbPolyline
 90
2
 70
0
 10
292.499085
 20
804.441369
 30
0.0
 10
307.664437
 20
830.708544
 30
0.0
  0
LWPOLYLINE
  5
1c3
100
AcDbEntity
  8
0
 62
7
100
AcDbPolyline
 90
2
 70
0
 10
229.995150
 20
893.062344
 30
0.0
 10
199.664439
 20
893.062344
 30
0.0
  0
LWPOLYLINE
  5
1c4
100
AcDbEntity
  8
0
 62
7
100
AcDbPolyline
 90
2
 70
0
 10
178.829790
 20
856.975719
 30
0.0
 10
163.664437
 20
830.708544
 30
0.0
  0
LWPOLYLINE
  5
1c5
100
AcDbEntity
  8
0
 62
7
100
AcDbPolyline
 90
2
 70
0
 10
184.499085
 20
794.621844
 30
0.0
 10
199.664439
 20
768.354669
 30
0.0
  0
LWPOLYLINE
  5
1c6
100
AcDbEntity
  8
0
 62
7
100
AcDbPolyline
 90
2
 70
0
 10
180.765893
 20
803.922594
 30
0.0
 10
178.829790
 20
804.441369
 30
0.0
  0
LWPOLYLINE
  5
1c7
100
AcDbEntity
  8
0
 62
7
100
AcDbPolyline
 90
2
 70
0
 10
180.765893
 20
857.494494
 30
0.0
 10
178.829790
 20
856.975719
 30
0.0
  0
LWPOLYLINE
  5
1c8
100
AcDbEntity
  8
0
 62
7
100
AcDbPolyline
 90
2
 70
0
 10
184.499085
 20
866.795169
 30
0.0
 10
185.017860
 20
864.859119
 30
0.0
  0
LWPOLYLINE
  5
1c9
100
AcDbEntity
  8
0
 62
7
100
AcDbPolyline
 90
2
 70
0
 10
231.412470
 20
891.644994
 30
0.0
 10
229.995150
 20
893.062344
 30
0.0
  0
LWPOLYLINE
  5
1ca
100
AcDbEntity
  8
0
 62
7
100
AcDbPolyline
 90
2
 70
0
 10
239.916405
 20
891.644994
 30
0.0
 10
241.333732
 20
893.062344
 30
0.0
  0
LWPOLYLINE
  5
1cb
100
AcDbEntity
  8
0
 62
7
100
AcDbPolyline
 90
2
 70
0
 10
286.311015
 20
864.859119
 30
0.0
 10
286.829790
 20
866.795169
 30
0.0
  0
LWPOLYLINE
  5
1cc
100
AcDbEntity
  8
0
 62
7
100
AcDbPolyline
 90
2
 70
0
 10
290.562982
 20
857.494494
 30
0.0
 10
292.499085
 20
856.975719
 30
0.0
  0
LWPOLYLINE
  5
1cd
100
AcDbEntity
  8
0
 62
7
100
AcDbPolyline
 90
2
 70
0
 10
290.562982
 20
803.922594
 30
0.0
 10
292.499085
 20
804.441369
 30
0.0
  0
LWPOLYLINE
  5
1ce
100
AcDbEntity
  8
0
 62
7
100
AcDbPolyline
 90
2
 70
0
 10
286.311015
 20
796.557969
 30
0.0
 10
286.829790
 20
794.621844
 30
0.0
  0
LWPOLYLINE
  5
1cf
100
AcDbEntity
  8
0
 62
7
100
AcDbPolyline
 90
2
 70
0
 10
239.916405
 20
769.772019
 30
0.0
 10
241.333732
 20
768.354669
 30
0.0
  0
LWPOLYLINE
  5
1d0
100
AcDbEntity
  8
0
 62
7
100
AcDbPolyline
 90
2
 70
0
 10
231.412470
 20
769.772019
 30
0.0
 10
229.995150
 20
768.354669
 30
0.0
  0
LWPOLYLINE
  5
1d1
100
AcDbEntity
  8
0
 62
7
100
AcDbPolyline
 90
2
 70
0
 10
185.017860
 20
796.557969
 30
0.0
 10
184.499085
 20
794.621844
 30
0.0
  0
LWPOLYLINE
  5
1d2
100
AcDbEntity
  8
0
 62
7
100
AcDbPolyline
 90
2
 70
0
 10
199.664439
 20
637.335077
 30
0.0
 10
229.995150
 20
637.335077
 30
0.0
  0
LWPOLYLINE
  5
1d3
100
AcDbEntity
  8
0
 62
7
100
AcDbPolyline
 90
2
 70
0
 10
271.664437
 20
637.335077
 30
0.0
 10
286.829790
 20
663.602252
 30
0.0
  0
LWPOLYLINE
  5
1d4
100
AcDbEntity
  8
0
 62
7
100
AcDbPolyline
 90
2
 70
0
 10
307.664437
 20
699.688952
 30
0.0
 10
292.499085
 20
725.956127
 30
0.0
  0
LWPOLYLINE
  5
1d5
100
AcDbEntity
  8
0
 62
7
100
AcDbPolyline
 90
2
 70
0
 10
271.664437
 20
762.042752
 30
0.0
 10
241.333732
 20
762.042752
 30
0.0
  0
LWPOLYLINE
  5
1d6
100
AcDbEntity
  8
0
 62
7
100
AcDbPolyline
 90
2
 70
0
 10
199.664439
 20
762.042752
 30
0.0
 10
184.499085
 20
735.775577
 30
0.0
  0
LWPOLYLINE
  5
1d7
100
AcDbEntity
  8
0
 62
7
100
AcDbPolyline
 90
2
 70
0
 10
163.664437
 20
699.688952
 30
0.0
 10
178.829790
 20
673.421777
 30
0.0
  0
LWPOLYLINE
  5
1d8
100
AcDbEntity
  8
0
 62
7
100
AcDbPolyline
 90
2
 70
0
 10
191.812831
 20
679.280927
 30
0.0
 10
196.064799
 20
671.916302
 30
0.0
  0
LWPOLYLINE
  5
1d9
100
AcDbEntity
  8
0
 62
7
100
AcDbPolyline
 90
2
 70
0
 10
231.412470
 20
651.508352
 30
0.0
 10
239.916405
 20
651.508352
 30
0.0
  0
LWPOLYLINE
  5
1da
100
AcDbEntity
  8
0
 62
7
100
AcDbPolyline
 90
2
 70
0
 10
231.412470
 20
651.508352
 30
0.0
 10
231.412470
 20
638.752427
 30
0.0
  0
LWPOLYLINE
  5
1db
100
AcDbEntity
  8
0
 62
7
100
AcDbPolyline
 90
2
 70
0
 10
239.916405
 20
651.508352
 30
0.0
 10
239.916405
 20
638.752427
 30
0.0
  0
LWPOLYLINE
  5
1dc
100
AcDbEntity
  8
0
 62
7
100
AcDbPolyline
 90
2
 70
0
 10
191.812831
 20
679.280927
 30
0.0
 10
180.765893
 20
672.903002
 30
0.0
  0
LWPOLYLINE
  5
1dd
100
AcDbEntity
  8
0
 62
7
100
AcDbPolyline
 90
2
 70
0
 10
196.064799
 20
671.916302
 30
0.0
 10
185.017860
 20
665.538377
 30
0.0
  0
LWPOLYLINE
  5
1de
100
AcDbEntity
  8
0
 62
7
100
AcDbPolyline
 90
2
 70
0
 10
196.064799
 20
727.461527
 30
0.0
 10
191.812831
 20
720.096902
 30
0.0
  0
LWPOLYLINE
  5
1df
100
AcDbEntity
  8
0
 62
7
100
AcDbPolyline
 90
2
 70
0
 10
196.064799
 20
727.461527
 30
0.0
 10
185.017860
 20
733.839527
 30
0.0
  0
LWPOLYLINE
  5
1e0
100
AcDbEntity
  8
0
 62
7
100
AcDbPolyline
 90
2
 70
0
 10
191.812831
 20
720.096902
 30
0.0
 10
180.765893
 20
726.474902
 30
0.0
  0
LWPOLYLINE
  5
1e1
100
AcDbEntity
  8
0
 62
7
100
AcDbPolyline
 90
2
 70
0
 10
239.916405
 20
747.869552
 30
0.0
 10
231.412470
 20
747.869552
 30
0.0
  0
LWPOLYLINE
  5
1e2
100
AcDbEntity
  8
0
 62
7
100
AcDbPolyline
 90
2
 70
0
 10
239.916405
 20
747.869552
 30
0.0
 10
239.916405
 20
760.625402
 30
0.0
  0
LWPOLYLINE
  5
1e3
100
AcDbEntity
  8
0
 62
7
100
AcDbPolyline
 90
2
 70
0
 10
231.412470
 20
747.869552
 30
0.0
 10
231.412470
 20
760.625402
 30
0.0
  0
LWPOLYLINE
  5
1e4
100
AcDbEntity
  8
0
 62
7
100
AcDbPolyline
 90
2
 70
0
 10
279.516045
 20
720.096902
 30
0.0
 10
275.264077
 20
727.461527
 30
0.0
  0
LWPOLYLINE
  5
1e5
100
AcDbEntity
  8
0
 62
7
100
AcDbPolyline
 90
2
 70
0
 10
279.516045
 20
720.096902
 30
0.0
 10
290.562982
 20
726.474902
 30
0.0
  0
LWPOLYLINE
  5
1e6
100
AcDbEntity
  8
0
 62
7
100
AcDbPolyline
 90
2
 70
0
 10
275.264077
 20
727.461527
 30
0.0
 10
286.311015
 20
733.839527
 30
0.0
  0
LWPOLYLINE
  5
1e7
100
AcDbEntity
  8
0
 62
7
100
AcDbPolyline
 90
2
 70
0
 10
275.264077
 20
671.916302
 30
0.0
 10
279.516045
 20
679.280927
 30
0.0
  0
LWPOLYLINE
  5
1e8
100
AcDbEntity
  8
0
 62
7
100
AcDbPolyline
 90
2
 70
0
 10
275.264077
 20
671.916302
 30
0.0
 10
286.311015
 20
665.538377
 30
0.0
  0
LWPOLYLINE
  5
1e9
100
AcDbEntity
  8
0
 62
7
100
AcDbPolyline
 90
2
 70
0
 10
279.516045
 20
679.280927
 30
0.0
 10
290.562982
 20
672.903002
 30
0.0
  0
LWPOLYLINE
  5
1ea
100
AcDbEntity
  8
0
 62
7
100
AcDbPolyline
 90
2
 70
0
 10
241.333732
 20
637.335077
 30
0.0
 10
271.664437
 20
637.335077
 30
0.0
  0
LWPOLYLINE
  5
1eb
100
AcDbEntity
  8
0
 62
7
100
AcDbPolyline
 90
2
 70
0
 10
286.829790
 20
735.775577
 30
0.0
 10
271.664437
 20
762.042752
 30
0.0
  0
LWPOLYLINE
  5
1ec
100
AcDbEntity
  8
0
 62
7
100
AcDbPolyline
 90
2
 70
0
 10
292.499085
 20
673.421777
 30
0.0
 10
307.664437
 20
699.688952
 30
0.0
  0
LWPOLYLINE
  5
1ed
100
AcDbEntity
  8
0
 62
7
100
AcDbPolyline
 90
2
 70
0
 10
229.995150
 20
762.042752
 30
0.0
 10
199.664439
 20
762.042752
 30
0.0
  0
LWPOLYLINE
  5
1ee
100
AcDbEntity
  8
0
 62
7
100
AcDbPolyline
 90
2
 70
0
 10
178.829790
 20
725.956127
 30
0.0
 10
163.664437
 20
699.688952
 30
0.0
  0
LWPOLYLINE
  5
1ef
100
AcDbEntity
  8
0
 62
7
100
AcDbPolyline
 90
2
 70
0
 10
184.499085
 20
663.602252
 30
0.0
 10
199.664439
 20
637.335077
 30
0.0
  0
LWPOLYLINE
  5
1f0
100
AcDbEntity
  8
0
 62
7
100
AcDbPolyline
 90
2
 70
0
 10
180.765893
 20
672.903002
 30
0.0
 10
178.829790
 20
673.421777
 30
0.0
  0
LWPOLYLINE
  5
1f1
100
AcDbEntity
  8
0
 62
7
100
AcDbPolyline
 90
2
 70
0
 10
180.765893
 20
726.474902
 30
0.0
 10
178.829790
 20
725.956127
 30
0.0
  0
LWPOLYLINE
  5
1f2
100
AcDbEntity
  8
0
 62
7
100
AcDbPolyline
 90
2
 70
0
 10
184.499085
 20
735.775577
 30
0.0
 10
185.017860
 20
733.839527
 30
0.0
  0
LWPOLYLINE
  5
1f3
100
AcDbEntity
  8
0
 62
7
100
AcDbPolyline
 90
2
 70
0
 10
231.412470
 20
760.625402
 30
0.0
 10
229.995150
 20
762.042752
 30
0.0
  0
LWPOLYLINE
  5
1f4
100
AcDbEntity
  8
0
 62
7
100
AcDbPolyline
 90
2
 70
0
 10
239.916405
 20
760.625402
 30
0.0
 10
241.333732
 20
762.042752
 30
0.0
  0
LWPOLYLINE
  5
1f5
100
AcDbEntity
  8
0
 62
7
100
AcDbPolyline
 90
2
 70
0
 10
286.311015
 20
733.839527
 30
0.0
 10
286.829790
 20
735.775577
 30
0.0
  0
LWPOLYLINE
  5
1f6
100
AcDbEntity
  8
0
 62
7
100
AcDbPolyline
 90
2
 70
0
 10
290.562982
 20
726.474902
 30
0.0
 10
292.499085
 20
725.956127
 30
0.0
  0
LWPOLYLINE
  5
1f7
100
AcDbEntity
  8
0
 62
7
100
AcDbPolyline
 90
2
 70
0
 10
290.562982
 20
672.903002
 30
0.0
 10
292.499085
 20
673.421777
 30
0.0
  0
LWPOLYLINE
  5
1f8
100
AcDbEntity
  8
0
 62
7
100
AcDbPolyline
 90
2
 70
0
 10
286.311015
 20
665.538377
 30
0.0
 10
286.829790
 20
663.602252
 30
0.0
  0
LWPOLYLINE
  5
1f9
100
AcDbEntity
  8
0
 62
7
100
AcDbPolyline
 90
2
 70
0
 10
239.916405
 20
638.752427
 30
0.0
 10
241.333732
 20
637.335077
 30
0.0
  0
LWPOLYLINE
  5
1fa
100
AcDbEntity
  8
0
 62
7
100
AcDbPolyline
 90
2
 70
0
 10
231.412470
 20
638.752427
 30
0.0
 10
229.995150
 20
637.335077
 30
0.0
  0
LWPOLYLINE
  5
1fb
100
AcDbEntity
  8
0
 62
7
100
AcDbPolyline
 90
2
 70
0
 10
185.017860
 20
665.538377
 30
0.0
 10
184.499085
 20
663.602252
 30
0.0
  0
LWPOLYLINE
  5
1fc
100
AcDbEntity
  8
0
 62
7
100
AcDbPolyline
 90
2
 70
0
 10
199.664439
 20
506.315484
 30
0.0
 10
229.995150
 20
506.315484
 30
0.0
  0
LWPOLYLINE
  5
1fd
100
AcDbEntity
  8
0
 62
7
100
AcDbPolyline
 90
2
 70
0
 10
271.664437
 20
506.315484
 30
0.0
 10
286.829790
 20
532.582659
 30
0.0
  0
LWPOLYLINE
  5
1fe
100
AcDbEntity
  8
0
 62
7
100
AcDbPolyline
 90
2
 70
0
 10
307.664437
 20
568.669359
 30
0.0
 10
292.499085
 20
594.936534
 30
0.0
  0
LWPOLYLINE
  5
1ff
100
AcDbEntity
  8
0
 62
7
100
AcDbPolyline
 90
2
 70
0
 10
271.664437
 20
631.023159
 30
0.0
 10
241.333732
 20
631.023159
 30
0.0
  0
LWPOLYLINE
  5
200
100
AcDbEntity
  8
0
 62
7
100
AcDbPolyline
 90
2
 70
0
 10
199.664439
 20
631.023159
 30
0.0
 10
184.499085
 20
604.755984
 30
0.0
  0
LWPOLYLINE
  5
201
100
AcDbEntity
  8
0
 62
7
100
AcDbPolyline
 90
2
 70
0
 10
163.664437
 20
568.669359
 30
0.0
 10
178.829790
 20
542.402184
 30
0.0
  0
LWPOLYLINE
  5
202
100
AcDbEntity
  8
0
 62
7
100
AcDbPolyline
 90
2
 70
0
 10
191.812831
 20
548.261334
 30
0.0
 10
196.064799
 20
540.896709
 30
0.0
  0
LWPOLYLINE
  5
203
100
AcDbEntity
  8
0
 62
7
100
AcDbPolyline
 90
2
 70
0
 10
231.412470
 20
520.488759
 30
0.0
 10
239.916405
 20
520.488759
 30
0.0
  0
LWPOLYLINE
  5
204
100
AcDbEntity
  8
0
 62
7
100
AcDbPolyline
 90
2
 70
0
 10
231.412470
 20
520.488759
 30
0.0
 10
231.412470
 20
507.732834
 30
0.0
  0
LWPOLYLINE
  5
205
100
AcDbEntity
  8
0
 62
7
100
AcDbPolyline
 90
2
 70
0
 10
239.916405
 20
520.488759
 30
0.0
 10
239.916405
 20
507.732834
 30
0.0
  0
LWPOLYLINE
  5
206
100
AcDbEntity
  8
0
 62
7
100
AcDbPolyline
 90
2
 70
0
 10
191.812831
 20
548.261334
 30
0.0
 10
180.765893
 20
541.883409
 30
0.0
  0
LWPOLYLINE
  5
207
100
AcDbEntity
  8
0
 62
7
100
AcDbPolyline
 90
2
 70
0
 10
196.064799
 20
540.896709
 30
0.0
 10
185.017860
 20
534.518784
 30
0.0
  0
LWPOLYLINE
  5
208
100
AcDbEntity
  8
0
 62
7
100
AcDbPolyline
 90
2
 70
0
 10
196.064799
 20
596.441934
 30
0.0
 10
191.812831
 20
589.077309
 30
0.0
  0
LWPOLYLINE
  5
209
100
AcDbEntity
  8
0
 62
7
100
AcDbPolyline
 90
2
 70
0
 10
196.064799
 20
596.441934
 30
0.0
 10
185.017860
 20
602.819934
 30
0.0
  0
LWPOLYLINE
  5
20a
100
AcDbEntity
  8
0
 62
7
100
AcDbPolyline
 90
2
 70
0
 10
191.812831
 20
589.077309
 30
0.0
 10
180.765893
 20
595.455309
 30
0.0
  0
LWPOLYLINE
  5
20b
100
AcDbEntity
  8
0
 62
7
100
AcDbPolyline
 90
2
 70
0
 10
239.916405
 20
616.849959
 30
0.0
 10
231.412470
 20
616.849959
 30
0.0
  0
LWPOLYLINE
  5
20c
100
AcDbEntity
  8
0
 62
7
100
AcDbPolyline
 90
2
 70
0
 10
239.916405
 20
616.849959
 30
0.0
 10
239.916405
 20
629.605809
 30
0.0
  0
LWPOLYLINE
  5
20d
100
AcDbEntity
  8
0
 62
7
100
AcDbPolyline
 90
2
 70
0
 10
231.412470
 20
616.849959
 30
0.0
 10
231.412470
 20
629.605809
 30
0.0
  0
LWPOLYLINE
  5
20e
100
AcDbEntity
  8
0
 62
7
100
AcDbPolyline
 90
2
 70
0
 10
279.516045
 20
589.077309
 30
0.0
 10
275.264077
 20
596.441934
 30
0.0
  0
LWPOLYLINE
  5
20f
100
AcDbEntity
  8
0
 62
7
100
AcDbPolyline
 90
2
 70
0
 10
279.516045
 20
589.077309
 30
0.0
 10
290.562982
 20
595.455309
 30
0.0
  0
LWPOLYLINE
  5
210
100
AcDbEntity
  8
0
 62
7
100
AcDbPolyline
 90
2
 70
0
 10
275.264077
 20
596.441934
 30
0.0
 10
286.311015
 20
602.819934
 30
0.0
  0
LWPOLYLINE
  5
211
100
AcDbEntity
  8
0
 62
7
100
AcDbPolyline
 90
2
 70
0
 10
275.264077
 20
540.896709
 30
0.0
 10
279.516045
 20
548.261334
 30
0.0
  0
LWPOLYLINE
  5
212
100
AcDbEntity
  8
0
 62
7
100
AcDbPolyline
 90
2
 70
0
 10
275.264077
 20
540.896709
 30
0.0
 10
286.311015
 20
534.518784
 30
0.0
  0
LWPOLYLINE
  5
213
100
AcDbEntity
  8
0
 62
7
100
AcDbPolyline
 90
2
 70
0
 10
279.516045
 20
548.261334
 30
0.0
 10
290.562982
 20
541.883409
 30
0.0
  0
LWPOLYLINE
  5
214
100
AcDbEntity
  8
0
 62
7
100
AcDbPolyline
 90
2
 70
0
 10
241.333732
 20
506.315484
 30
0.0
 10
271.664437
 20
506.315484
 30
0.0
  0
LWPOLYLINE
  5
215
100
AcDbEntity
  8
0
 62
7
100
AcDbPolyline
 90
2
 70
0
 10
286.829790
 20
604.755984
 30
0.0
 10
271.664437
 20
631.023159
 30
0.0
  0
LWPOLYLINE
  5
216
100
AcDbEntity
  8
0
 62
7
100
AcDbPolyline
 90
2
 70
0
 10
292.499085
 20
542.402184
 30
0.0
 10
307.664437
 20
568.669359
 30
0.0
  0
LWPOLYLINE
  5
217
100
AcDbEntity
  8
0
 62
7
100
AcDbPolyline
 90
2
 70
0
 10
229.995150
 20
631.023159
 30
0.0
 10
199.664439
 20
631.023159
 30
0.0
  0
LWPOLYLINE
  5
218
100
AcDbEntity
  8
0
 62
7
100
AcDbPolyline
 90
2
 70
0
 10
178.829790
 20
594.936534
 30
0.0
 10
163.664437
 20
568.669359
 30
0.0
  0
LWPOLYLINE
  5
219
100
AcDbEntity
  8
0
 62
7
100
AcDbPolyline
 90
2
 70
0
 10
184.499085
 20
532.582659
 30
0.0
 10
199.664439
 20
506.315484
 30
0.0
  0
LWPOLYLINE
  5
21a
100
AcDbEntity
  8
0
 62
7
100
AcDbPolyline
 90
2
 70
0
 10
180.765893
 20
541.883409
 30
0.0
 10
178.829790
 20
542.402184
 30
0.0
  0
LWPOLYLINE
  5
21b
100
AcDbEntity
  8
0
 62
7
100
AcDbPolyline
 90
2
 70
0
 10
180.765893
 20
595.455309
 30
0.0
 10
178.829790
 20
594.936534
 30
0.0
  0
LWPOLYLINE
  5
21c
100
AcDbEntity
  8
0
 62
7
100
AcDbPolyline
 90
2
 70
0
 10
184.499085
 20
604.755984
 30
0.0
 10
185.017860
 20
602.819934
 30
0.0
  0
LWPOLYLINE
  5
21d
100
AcDbEntity
  8
0
 62
7
100
AcDbPolyline
 90
2
 70
0
 10
231.412470
 20
629.605809
 30
0.0
 10
229.995150
 20
631.023159
 30
0.0
  0
LWPOLYLINE
  5
21e
100
AcDbEntity
  8
0
 62
7
100
AcDbPolyline
 90
2
 70
0
 10
239.916405
 20
629.605809
 30
0.0
 10
241.333732
 20
631.023159
 30
0.0
  0
LWPOLYLINE
  5
21f
100
AcDbEntity
  8
0
 62
7
100
AcDbPolyline
 90
2
 70
0
 10
286.311015
 20
602.819934
 30
0.0
 10
286.829790
 20
604.755984
 30
0.0
  0
LWPOLYLINE
  5
220
100
AcDbEntity
  8
0
 62
7
100
AcDbPolyline
 90
2
 70
0
 10
290.562982
 20
595.455309
 30
0.0
 10
292.499085
 20
594.936534
 30
0.0
  0
LWPOLYLINE
  5
221
100
AcDbEntity
  8
0
 62
7
100
AcDbPolyline
 90
2
 70
0
 10
290.562982
 20
541.883409
 30
0.0
 10
292.499085
 20
542.402184
 30
0.0
  0
LWPOLYLINE
  5
222
100
AcDbEntity
  8
0
 62
7
100
AcDbPolyline
 90
2
 70
0
 10
286.311015
 20
534.518784
 30
0.0
 10
286.829790
 20
532.582659
 30
0.0
  0
LWPOLYLINE
  5
223
100
AcDbEntity
  8
0
 62
7
100
AcDbPolyline
 90
2
 70
0
 10
239.916405
 20
507.732834
 30
0.0
 10
241.333732
 20
506.315484
 30
0.0
  0
LWPOLYLINE
  5
224
100
AcDbEntity
  8
0
 62
7
100
AcDbPolyline
 90
2
 70
0
 10
231.412470
 20
507.732834
 30
0.0
 10
229.995150
 20
506.315484
 30
0.0
  0
LWPOLYLINE
  5
225
100
AcDbEntity
  8
0
 62
7
100
AcDbPolyline
 90
2
 70
0
 10
185.017860
 20
534.518784
 30
0.0
 10
184.499085
 20
532.582659
 30
0.0
  0
LWPOLYLINE
  5
226
100
AcDbEntity
  8
0
 62
7
100
AcDbPolyline
 90
2
 70
0
 10
350.940587
 20
768.354669
 30
0.0
 10
381.271298
 20
768.354669
 30
0.0
  0
LWPOLYLINE
  5
227
100
AcDbEntity
  8
0
 62
7
100
AcDbPolyline
 90
2
 70
0
 10
422.940585
 20
768.354669
 30
0.0
 10
438.105938
 20
794.621844
 30
0.0
  0
LWPOLYLINE
  5
228
100
AcDbEntity
  8
0
 62
7
100
AcDbPolyline
 90
2
 70
0
 10
458.940585
 20
830.708544
 30
0.0
 10
443.775233
 20
856.975719
 30
0.0
  0
LWPOLYLINE
  5
229
100
AcDbEntity
  8
0
 62
7
100
AcDbPolyline
 90
2
 70
0
 10
422.940585
 20
893.062344
 30
0.0
 10
392.609880
 20
893.062344
 30
0.0
  0
LWPOLYLINE
  5
22a
100
AcDbEntity
  8
0
 62
7
100
AcDbPolyline
 90
2
 70
0
 10
350.940587
 20
893.062344
 30
0.0
 10
335.775233
 20
866.795169
 30
0.0
  0
LWPOLYLINE
  5
22b
100
AcDbEntity
  8
0
 62
7
100
AcDbPolyline
 90
2
 70
0
 10
314.940585
 20
830.708544
 30
0.0
 10
330.105938
 20
804.441369
 30
0.0
  0
LWPOLYLINE
  5
22c
100
AcDbEntity
  8
0
 62
7
100
AcDbPolyline
 90
2
 70
0
 10
343.088978
 20
810.300519
 30
0.0
 10
347.340947
 20
802.935894
 30
0.0
  0
LWPOLYLINE
  5
22d
100
AcDbEntity
  8
0
 62
7
100
AcDbPolyline
 90
2
 70
0
 10
382.688618
 20
782.527944
 30
0.0
 10
391.192553
 20
782.527944
 30
0.0
  0
LWPOLYLINE
  5
22e
100
AcDbEntity
  8
0
 62
7
100
AcDbPolyline
 90
2
 70
0
 10
382.688618
 20
782.527944
 30
0.0
 10
382.688618
 20
769.772019
 30
0.0
  0
LWPOLYLINE
  5
22f
100
AcDbEntity
  8
0
 62
7
100
AcDbPolyline
 90
2
 70
0
 10
391.192553
 20
782.527944
 30
0.0
 10
391.192553
 20
769.772019
 30
0.0
  0
LWPOLYLINE
  5
230
100
AcDbEntity
  8
0
 62
7
100
AcDbPolyline
 90
2
 70
0
 10
343.088978
 20
810.300519
 30
0.0
 10
332.042040
 20
803.922594
 30
0.0
  0
LWPOLYLINE
  5
231
100
AcDbEntity
  8
0
 62
7
100
AcDbPolyline
 90
2
 70
0
 10
347.340947
 20
802.935894
 30
0.0
 10
336.294008
 20
796.557969
 30
0.0
  0
LWPOLYLINE
  5
232
100
AcDbEntity
  8
0
 62
7
100
AcDbPolyline
 90
2
 70
0
 10
347.340947
 20
858.481119
 30
0.0
 10
343.088978
 20
851.116494
 30
0.0
  0
LWPOLYLINE
  5
233
100
AcDbEntity
  8
0
 62
7
100
AcDbPolyline
 90
2
 70
0
 10
347.340947
 20
858.481119
 30
0.0
 10
336.294008
 20
864.859119
 30
0.0
  0
LWPOLYLINE
  5
234
100
AcDbEntity
  8
0
 62
7
100
AcDbPolyline
 90
2
 70
0
 10
343.088978
 20
851.116494
 30
0.0
 10
332.042040
 20
857.494494
 30
0.0
  0
LWPOLYLINE
  5
235
100
AcDbEntity
  8
0
 62
7
100
AcDbPolyline
 90
2
 70
0
 10
391.192553
 20
878.889144
 30
0.0
 10
382.688618
 20
878.889144
 30
0.0
  0
LWPOLYLINE
  5
236
100
AcDbEntity
  8
0
 62
7
100
AcDbPolyline
 90
2
 70
0
 10
391.192553
 20
878.889144
 30
0.0
 10
391.192553
 20
891.644994
 30
0.0
  0
LWPOLYLINE
  5
237
100
AcDbEntity
  8
0
 62
7
100
AcDbPolyline
 90
2
 70
0
 10
382.688618
 20
878.889144
 30
0.0
 10
382.688618
 20
891.644994
 30
0.0
  0
LWPOLYLINE
  5
238
100
AcDbEntity
  8
0
 62
7
100
AcDbPolyline
 90
2
 70
0
 10
430.792193
 20
851.116494
 30
0.0
 10
426.540225
 20
858.481119
 30
0.0
  0
LWPOLYLINE
  5
239
100
AcDbEntity
  8
0
 62
7
100
AcDbPolyline
 90
2
 70
0
 10
430.792193
 20
851.116494
 30
0.0
 10
441.839130
 20
857.494494
 30
0.0
  0
LWPOLYLINE
  5
23a
100
AcDbEntity
  8
0
 62
7
100
AcDbPolyline
 90
2
 70
0
 10
426.540225
 20
858.481119
 30
0.0
 10
437.587163
 20
864.859119
 30
0.0
  0
LWPOLYLINE
  5
23b
100
AcDbEntity
  8
0
 62
7
100
AcDbPolyline
 90
2
 70
0
 10
426.540225
 20
802.935894
 30
0.0
 10
430.792193
 20
810.300519
 30
0.0
  0
LWPOLYLINE
  5
23c
100
AcDbEntity
  8
0
 62
7
100
AcDbPolyline
 90
2
 70
0
 10
426.540225
 20
802.935894
 30
0.0
 10
437.587163
 20
796.557969
 30
0.0
  0
LWPOLYLINE
  5
23d
100
AcDbEntity
  8
0
 62
7
100
AcDbPolyline
 90
2
 70
0
 10
430.792193
 20
810.300519
 30
0.0
 10
441.839130
 20
803.922594
 30
0.0
  0
LWPOLYLINE
  5
23e
100
AcDbEntity
  8
0
 62
7
100
AcDbPolyline
 90
2
 70
0
 10
392.609880
 20
768.354669
 30
0.0
 10
422.940585
 20
768.354669
 30
0.0
  0
LWPOLYLINE
  5
23f
100
AcDbEntity
  8
0
 62
7
100
AcDbPolyline
 90
2
 70
0
 10
438.105938
 20
866.795169
 30
0.0
 10
422.940585
 20
893.062344
 30
0.0
  0
LWPOLYLINE
  5
240
100
AcDbEntity
  8
0
 62
7
100
AcDbPolyline
 90
2
 70
0
 10
443.775233
 20
804.441369
 30
0.0
 10
458.940585
 20
830.708544
 30
0.0
  0
LWPOLYLINE
  5
241
100
AcDbEntity
  8
0
 62
7
100
AcDbPolyline
 90
2
 70
0
 10
381.271298
 20
893.062344
 30
0.0
 10
350.940587
 20
893.062344
 30
0.0
  0
LWPOLYLINE
  5
242
100
AcDbEntity
  8
0
 62
7
100
AcDbPolyline
 90
2
 70
0
 10
330.105938
 20
856.975719
 30
0.0
 10
314.940585
 20
830.708544
 30
0.0
  0
LWPOLYLINE
  5
243
100
AcDbEntity
  8
0
 62
7
100
AcDbPolyline
 90
2
 70
0
 10
335.775233
 20
794.621844
 30
0.0
 10
350.940587
 20
768.354669
 30
0.0
  0
LWPOLYLINE
  5
244
100
AcDbEntity
  8
0
 62
7
100
AcDbPolyline
 90
2
 70
0
 10
332.042040
 20
803.922594
 30
0.0
 10
330.105938
 20
804.441369
 30
0.0
  0
LWPOLYLINE
  5
245
100
AcDbEntity
  8
0
 62
7
100
AcDbPolyline
 90
2
 70
0
 10
332.042040
 20
857.494494
 30
0.0
 10
330.105938
 20
856.975719
 30
0.0
  0
LWPOLYLINE
  5
246
100
AcDbEntity
  8
0
 62
7
100
AcDbPolyline
 90
2
 70
0
 10
335.775233
 20
866.795169
 30
0.0
 10
336.294008
 20
864.859119
 30
0.0
  0
LWPOLYLINE
  5
247
100
AcDbEntity
  8
0
 62
7
100
AcDbPolyline
 90
2
 70
0
 10
382.688618
 20
891.644994
 30
0.0
 10
381.271298
 20
893.062344
 30
0.0
  0
LWPOLYLINE
  5
248
100
AcDbEntity
  8
0
 62
7
100
AcDbPolyline
 90
2
 70
0
 10
391.192553
 20
891.644994
 30
0.0
 10
392.609880
 20
893.062344
 30
0.0
  0
LWPOLYLINE
  5
249
100
AcDbEntity
  8
0
 62
7
100
AcDbPolyline
 90
2
 70
0
 10
437.587163
 20
864.859119
 30
0.0
 10
438.105938
 20
866.795169
 30
0.0
  0
LWPOLYLINE
  5
24a
100
AcDbEntity
  8
0
 62
7
100
AcDbPolyline
 90
2
 70
0
 10
441.839130
 20
857.494494
 30
0.0
 10
443.775233
 20
856.975719
 30
0.0
  0
LWPOLYLINE
  5
24b
100
AcDbEntity
  8
0
 62
7
100
AcDbPolyline
 90
2
 70
0
 10
441.839130
 20
803.922594
 30
0.0
 10
443.775233
 20
804.441369
 30
0.0
  0
LWPOLYLINE
  5
24c
100
AcDbEntity
  8
0
 62
7
100
AcDbPolyline
 90
2
 70
0
 10
437.587163
 20
796.557969
 30
0.0
 10
438.105938
 20
794.621844
 30
0.0
  0
LWPOLYLINE
  5
24d
100
AcDbEntity
  8
0
 62
7
100
AcDbPolyline
 90
2
 70
0
 10
391.192553
 20
769.772019
 30
0.0
 10
392.609880
 20
768.354669
 30
0.0
  0
LWPOLYLINE
  5
24e
100
AcDbEntity
  8
0
 62
7
100
AcDbPolyline
 90
2
 70
0
 10
382.688618
 20
769.772019
 30
0.0
 10
381.271298
 20
768.354669
 30
0.0
  0
LWPOLYLINE
  5
24f
100
AcDbEntity
  8
0
 62
7
100
AcDbPolyline
 90
2
 70
0
 10
336.294008
 20
796.557969
 30
0.0
 10
335.775233
 20
794.621844
 30
0.0
  0
LWPOLYLINE
  5
250
100
AcDbEntity
  8
0
 62
7
100
AcDbPolyline
 90
2
 70
0
 10
350.940587
 20
637.335077
 30
0.0
 10
381.271298
 20
637.335077
 30
0.0
  0
LWPOLYLINE
  5
251
100
AcDbEntity
  8
0
 62
7
100
AcDbPolyline
 90
2
 70
0
 10
422.940585
 20
637.335077
 30
0.0
 10
438.105938
 20
663.602252
 30
0.0
  0
LWPOLYLINE
  5
252
100
AcDbEntity
  8
0
 62
7
100
AcDbPolyline
 90
2
 70
0
 10
458.940585
 20
699.688952
 30
0.0
 10
443.775233
 20
725.956127
 30
0.0
  0
LWPOLYLINE
  5
253
100
AcDbEntity
  8
0
 62
7
100
AcDbPolyline
 90
2
 70
0
 10
422.940585
 20
762.042752
 30
0.0
 10
392.609880
 20
762.042752
 30
0.0
  0
LWPOLYLINE
  5
254
100
AcDbEntity
  8
0
 62
7
100
AcDbPolyline
 90
2
 70
0
 10
350.940587
 20
762.042752
 30
0.0
 10
335.775233
 20
735.775577
 30
0.0
  0
LWPOLYLINE
  5
255
100
AcDbEntity
  8
0
 62
7
100
AcDbPolyline
 90
2
 70
0
 10
314.940585
 20
699.688952
 30
0.0
 10
330.105938
 20
673.421777
 30
0.0
  0
LWPOLYLINE
  5
256
100
AcDbEntity
  8
0
 62
7
100
AcDbPolyline
 90
2
 70
0
 10
343.088978
 20
679.280927
 30
0.0
 10
347.340947
 20
671.916302
 30
0.0
  0
LWPOLYLINE
  5
257
100
AcDbEntity
  8
0
 62
7
100
AcDbPolyline
 90
2
 70
0
 10
382.688618
 20
651.508352
 30
0.0
 10
391.192553
 20
651.508352
 30
0.0
  0
LWPOLYLINE
  5
258
100
AcDbEntity
  8
0
 62
7
100
AcDbPolyline
 90
2
 70
0
 10
382.688618
 20
651.508352
 30
0.0
 10
382.688618
 20
638.752427
 30
0.0
  0
LWPOLYLINE
  5
259
100
AcDbEntity
  8
0
 62
7
100
AcDbPolyline
 90
2
 70
0
 10
391.192553
 20
651.508352
 30
0.0
 10
391.192553
 20
638.752427
 30
0.0
  0
LWPOLYLINE
  5
25a
100
AcDbEntity
  8
0
 62
7
100
AcDbPolyline
 90
2
 70
0
 10
343.088978
 20
679.280927
 30
0.0
 10
332.042040
 20
672.903002
 30
0.0
  0
LWPOLYLINE
  5
25b
100
AcDbEntity
  8
0
 62
7
100
AcDbPolyline
 90
2
 70
0
 10
347.340947
 20
671.916302
 30
0.0
 10
336.294008
 20
665.538377
 30
0.0
  0
LWPOLYLINE
  5
25c
100
AcDbEntity
  8
0
 62
7
100
AcDbPolyline
 90
2
 70
0
 10
347.340947
 20
727.461527
 30
0.0
 10
343.088978
 20
720.096902
 30
0.0
  0
LWPOLYLINE
  5
25d
100
AcDbEntity
  8
0
 62
7
100
AcDbPolyline
 90
2
 70
0
 10
347.340947
 20
727.461527
 30
0.0
 10
336.294008
 20
733.839527
 30
0.0
  0
LWPOLYLINE
  5
25e
100
AcDbEntity
  8
0
 62
7
100
AcDbPolyline
 90
2
 70
0
 10
343.088978
 20
720.096902
 30
0.0
 10
332.042040
 20
726.474902
 30
0.0
  0
LWPOLYLINE
  5
25f
100
AcDbEntity
  8
0
 62
7
100
AcDbPolyline
 90
2
 70
0
 10
391.192553
 20
747.869552
 30
0.0
 10
382.688618
 20
747.869552
 30
0.0
  0
LWPOLYLINE
  5
260
100
AcDbEntity
  8
0
 62
7
100
AcDbPolyline
 90
2
 70
0
 10
391.192553
 20
747.869552
 30
0.0
 10
391.192553
 20
760.625402
 30
0.0
  0
LWPOLYLINE
  5
261
100
AcDbEntity
  8
0
 62
7
100
AcDbPolyline
 90
2
 70
0
 10
382.688618
 20
747.869552
 30
0.0
 10
382.688618
 20
760.625402
 30
0.0
  0
LWPOLYLINE
  5
262
100
AcDbEntity
  8
0
 62
7
100
AcDbPolyline
 90
2
 70
0
 10
430.792193
 20
720.096902
 30
0.0
 10
426.540225
 20
727.461527
 30
0.0
  0
LWPOLYLINE
  5
263
100
AcDbEntity
  8
0
 62
7
100
AcDbPolyline
 90
2
 70
0
 10
430.792193
 20
720.096902
 30
0.0
 10
441.839130
 20
726.474902
 30
0.0
  0
LWPOLYLINE
  5
264
100
AcDbEntity
  8
0
 62
7
100
AcDbPolyline
 90
2
 70
0
 10
426.540225
 20
727.461527
 30
0.0
 10
437.587163
 20
733.839527
 30
0.0
  0
LWPOLYLINE
  5
265
100
AcDbEntity
  8
0
 62
7
100
AcDbPolyline
 90
2
 70
0
 10
426.540225
 20
671.916302
 30
0.0
 10
430.792193
 20
679.280927
 30
0.0
  0
LWPOLYLINE
  5
266
100
AcDbEntity
  8
0
 62
7
100
AcDbPolyline
 90
2
 70
0
 10
426.540225
 20
671.916302
 30
0.0
 10
437.587163
 20
665.538377
 30
0.0
  0
LWPOLYLINE
  5
267
100
AcDbEntity
  8
0
 62
7
100
AcDbPolyline
 90
2
 70
0
 10
430.792193
 20
679.280927
 30
0.0
 10
441.839130
 20
672.903002
 30
0.0
  0
LWPOLYLINE
  5
268
100
AcDbEntity
  8
0
 62
7
100
AcDbPolyline
 90
2
 70
0
 10
392.609880
 20
637.335077
 30
0.0
 10
422.940585
 20
637.335077
 30
0.0
  0
LWPOLYLINE
  5
269
100
AcDbEntity
  8
0
 62
7
100
AcDbPolyline
 90
2
 70
0
 10
438.105938
 20
735.775577
 30
0.0
 10
422.940585
 20
762.042752
 30
0.0
  0
LWPOLYLINE
  5
26a
100
AcDbEntity
  8
0
 62
7
100
AcDbPolyline
 90
2
 70
0
 10
443.775233
 20
673.421777
 30
0.0
 10
458.940585
 20
699.688952
 30
0.0
  0
LWPOLYLINE
  5
26b
100
AcDbEntity
  8
0
 62
7
100
AcDbPolyline
 90
2
 70
0
 10
381.271298
 20
762.042752
 30
0.0
 10
350.940587
 20
762.042752
 30
0.0
  0
LWPOLYLINE
  5
26c
100
AcDbEntity
  8
0
 62
7
100
AcDbPolyline
 90
2
 70
0
 10
330.105938
 20
725.956127
 30
0.0
 10
314.940585
 20
699.688952
 30
0.0
  0
LWPOLYLINE
  5
26d
100
AcDbEntity
  8
0
 62
7
100
AcDbPolyline
 90
2
 70
0
 10
335.775233
 20
663.602252
 30
0.0
 10
350.940587
 20
637.335077
 30
0.0
  0
LWPOLYLINE
  5
26e
100
AcDbEntity
  8
0
 62
7
100
AcDbPolyline
 90
2
 70
0
 10
332.042040
 20
672.903002
 30
0.0
 10
330.105938
 20
673.421777
 30
0.0
  0
LWPOLYLINE
  5
26f
100
AcDbEntity
  8
0
 62
7
100
AcDbPolyline
 90
2
 70
0
 10
332.042040
 20
726.474902
 30
0.0
 10
330.105938
 20
725.956127
 30
0.0
  0
LWPOLYLINE
  5
270
100
AcDbEntity
  8
0
 62
7
100
AcDbPolyline
 90
2
 70
0
 10
335.775233
 20
735.775577
 30
0.0
 10
336.294008
 20
733.839527
 30
0.0
  0
LWPOLYLINE
  5
271
100
AcDbEntity
  8
0
 62
7
100
AcDbPolyline
 90
2
 70
0
 10
382.688618
 20
760.625402
 30
0.0
 10
381.271298
 20
762.042752
 30
0.0
  0
LWPOLYLINE
  5
272
100
AcDbEntity
  8
0
 62
7
100
AcDbPolyline
 90
2
 70
0
 10
391.192553
 20
760.625402
 30
0.0
 10
392.609880
 20
762.042752
 30
0.0
  0
LWPOLYLINE
  5
273
100
AcDbEntity
  8
0
 62
7
100
AcDbPolyline
 90
2
 70
0
 10
437.587163
 20
733.839527
 30
0.0
 10
438.105938
 20
735.775577
 30
0.0
  0
LWPOLYLINE
  5
274
100
AcDbEntity
  8
0
 62
7
100
AcDbPolyline
 90
2
 70
0
 10
441.839130
 20
726.474902
 30
0.0
 10
443.775233
 20
725.956127
 30
0.0
  0
LWPOLYLINE
  5
275
100
AcDbEntity
  8
0
 62
7
100
AcDbPolyline
 90
2
 70
0
 10
441.839130
 20
672.903002
 30
0.0
 10
443.775233
 20
673.421777
 30
0.0
  0
LWPOLYLINE
  5
276
100
AcDbEntity
  8
0
 62
7
100
AcDbPolyline
 90
2
 70
0
 10
437.587163
 20
665.538377
 30
0.0
 10
438.105938
 20
663.602252
 30
0.0
  0
LWPOLYLINE
  5
277
100
AcDbEntity
  8
0
 62
7
100
AcDbPolyline
 90
2
 70
0
 10
391.192553
 20
638.752427
 30
0.0
 10
392.609880
 20
637.335077
 30
0.0
  0
LWPOLYLINE
  5
278
100
AcDbEntity
  8
0
 62
7
100
AcDbPolyline
 90
2
 70
0
 10
382.688618
 20
638.752427
 30
0.0
 10
381.271298
 20
637.335077
 30
0.0
  0
LWPOLYLINE
  5
279
100
AcDbEntity
  8
0
 62
7
100
AcDbPolyline
 90
2
 70
0
 10
336.294008
 20
665.538377
 30
0.0
 10
335.775233
 20
663.602252
 30
0.0
  0
LWPOLYLINE
  5
27a
100
AcDbEntity
  8
0
 62
7
100
AcDbPolyline
 90
2
 70
0
 10
350.940587
 20
506.315484
 30
0.0
 10
381.271298
 20
506.315484
 30
0.0
  0
LWPOLYLINE
  5
27b
100
AcDbEntity
  8
0
 62
7
100
AcDbPolyline
 90
2
 70
0
 10
422.940585
 20
506.315484
 30
0.0
 10
438.105938
 20
532.582659
 30
0.0
  0
LWPOLYLINE
  5
27c
100
AcDbEntity
  8
0
 62
7
100
AcDbPolyline
 90
2
 70
0
 10
458.940585
 20
568.669359
 30
0.0
 10
443.775233
 20
594.936534
 30
0.0
  0
LWPOLYLINE
  5
27d
100
AcDbEntity
  8
0
 62
7
100
AcDbPolyline
 90
2
 70
0
 10
422.940585
 20
631.023159
 30
0.0
 10
392.609880
 20
631.023159
 30
0.0
  0
LWPOLYLINE
  5
27e
100
AcDbEntity
  8
0
 62
7
100
AcDbPolyline
 90
2
 70
0
 10
350.940587
 20
631.023159
 30
0.0
 10
335.775233
 20
604.755984
 30
0.0
  0
LWPOLYLINE
  5
27f
100
AcDbEntity
  8
0
 62
7
100
AcDbPolyline
 90
2
 70
0
 10
314.940585
 20
568.669359
 30
0.0
 10
330.105938
 20
542.402184
 30
0.0
  0
LWPOLYLINE
  5
280
100
AcDbEntity
  8
0
 62
7
100
AcDbPolyline
 90
2
 70
0
 10
343.088978
 20
548.261334
 30
0.0
 10
347.340947
 20
540.896709
 30
0.0
  0
LWPOLYLINE
  5
281
100
AcDbEntity
  8
0
 62
7
100
AcDbPolyline
 90
2
 70
0
 10
382.688618
 20
520.488759
 30
0.0
 10
391.192553
 20
520.488759
 30
0.0
  0
LWPOLYLINE
  5
282
100
AcDbEntity
  8
0
 62
7
100
AcDbPolyline
 90
2
 70
0
 10
382.688618
 20
520.488759
 30
0.0
 10
382.688618
 20
507.732834
 30
0.0
  0
LWPOLYLINE
  5
283
100
AcDbEntity
  8
0
 62
7
100
AcDbPolyline
 90
2
 70
0
 10
391.192553
 20
520.488759
 30
0.0
 10
391.192553
 20
507.732834
 30
0.0
  0
LWPOLYLINE
  5
284
100
AcDbEntity
  8
0
 62
7
100
AcDbPolyline
 90
2
 70
0
 10
343.088978
 20
548.261334
 30
0.0
 10
332.042040
 20
541.883409
 30
0.0
  0
LWPOLYLINE
  5
285
100
AcDbEntity
  8
0
 62
7
100
AcDbPolyline
 90
2
 70
0
 10
347.340947
 20
540.896709
 30
0.0
 10
336.294008
 20
534.518784
 30
0.0
  0
LWPOLYLINE
  5
286
100
AcDbEntity
  8
0
 62
7
100
AcDbPolyline
 90
2
 70
0
 10
347.340947
 20
596.441934
 30
0.0
 10
343.088978
 20
589.077309
 30
0.0
  0
LWPOLYLINE
  5
287
100
AcDbEntity
  8
0
 62
7
100
AcDbPolyline
 90
2
 70
0
 10
347.340947
 20
596.441934
 30
0.0
 10
336.294008
 20
602.819934
 30
0.0
  0
LWPOLYLINE
  5
288
100
AcDbEntity
  8
0
 62
7
100
AcDbPolyline
 90
2
 70
0
 10
343.088978
 20
589.077309
 30
0.0
 10
332.042040
 20
595.455309
 30
0.0
  0
LWPOLYLINE
  5
289
100
AcDbEntity
  8
0
 62
7
100
AcDbPolyline
 90
2
 70
0
 10
391.192553
 20
616.849959
 30
0.0
 10
382.688618
 20
616.849959
 30
0.0
  0
LWPOLYLINE
  5
28a
100
AcDbEntity
  8
0
 62
7
100
AcDbPolyline
 90
2
 70
0
 10
391.192553
 20
616.849959
 30
0.0
 10
391.192553
 20
629.605809
 30
0.0
  0
LWPOLYLINE
  5
28b
100
AcDbEntity
  8
0
 62
7
100
AcDbPolyline
 90
2
 70
0
 10
382.688618
 20
616.849959
 30
0.0
 10
382.688618
 20
629.605809
 30
0.0
  0
LWPOLYLINE
  5
28c
100
AcDbEntity
  8
0
 62
7
100
AcDbPolyline
 90
2
 70
0
 10
430.792193
 20
589.077309
 30
0.0
 10
426.540225
 20
596.441934
 30
0.0
  0
LWPOLYLINE
  5
28d
100
AcDbEntity
  8
0
 62
7
100
AcDbPolyline
 90
2
 70
0
 10
430.792193
 20
589.077309
 30
0.0
 10
441.839130
 20
595.455309
 30
0.0
  0
LWPOLYLINE
  5
28e
100
AcDbEntity
  8
0
 62
7
100
AcDbPolyline
 90
2
 70
0
 10
426.540225
 20
596.441934
 30
0.0
 10
437.587163
 20
602.819934
 30
0.0
  0
LWPOLYLINE
  5
28f
100
AcDbEntity
  8
0
 62
7
100
AcDbPolyline
 90
2
 70
0
 10
426.540225
 20
540.896709
 30
0.0
 10
430.792193
 20
548.261334
 30
0.0
  0
LWPOLYLINE
  5
290
100
AcDbEntity
  8
0
 62
7
100
AcDbPolyline
 90
2
 70
0
 10
426.540225
 20
540.896709
 30
0.0
 10
437.587163
 20
534.518784
 30
0.0
  0
LWPOLYLINE
  5
291
100
AcDbEntity
  8
0
 62
7
100
AcDbPolyline
 90
2
 70
0
 10
430.792193
 20
548.261334
 30
0.0
 10
441.839130
 20
541.883409
 30
0.0
  0
LWPOLYLINE
  5
292
100
AcDbEntity
  8
0
 62
7
100
AcDbPolyline
 90
2
 70
0
 10
392.609880
 20
506.315484
 30
0.0
 10
422.940585
 20
506.315484
 30
0.0
  0
LWPOLYLINE
  5
293
100
AcDbEntity
  8
0
 62
7
100
AcDbPolyline
 90
2
 70
0
 10
438.105938
 20
604.755984
 30
0.0
 10
422.940585
 20
631.023159
 30
0.0
  0
LWPOLYLINE
  5
294
100
AcDbEntity
  8
0
 62
7
100
AcDbPolyline
 90
2
 70
0
 10
443.775233
 20
542.402184
 30
0.0
 10
458.940585
 20
568.669359
 30
0.0
  0
LWPOLYLINE
  5
295
100
AcDbEntity
  8
0
 62
7
100
AcDbPolyline
 90
2
 70
0
 10
381.271298
 20
631.023159
 30
0.0
 10
350.940587
 20
631.023159
 30
0.0
  0
LWPOLYLINE
  5
296
100
AcDbEntity
  8
0
 62
7
100
AcDbPolyline
 90
2
 70
0
 10
330.105938
 20
594.936534
 30
0.0
 10
314.940585
 20
568.669359
 30
0.0
  0
LWPOLYLINE
  5
297
100
AcDbEntity
  8
0
 62
7
100
AcDbPolyline
 90
2
 70
0
 10
335.775233
 20
532.582659
 30
0.0
 10
350.940587
 20
506.315484
 30
0.0
  0
LWPOLYLINE
  5
298
100
AcDbEntity
  8
0
 62
7
100
AcDbPolyline
 90
2
 70
0
 10
332.042040
 20
541.883409
 30
0.0
 10
330.105938
 20
542.402184
 30
0.0
  0
LWPOLYLINE
  5
299
100
AcDbEntity
  8
0
 62
7
100
AcDbPolyline
 90
2
 70
0
 10
332.042040
 20
595.455309
 30
0.0
 10
330.105938
 20
594.936534
 30
0.0
  0
LWPOLYLINE
  5
29a
100
AcDbEntity
  8
0
 62
7
100
AcDbPolyline
 90
2
 70
0
 10
335.775233
 20
604.755984
 30
0.0
 10
336.294008
 20
602.819934
 30
0.0
  0
LWPOLYLINE
  5
29b
100
AcDbEntity
  8
0
 62
7
100
AcDbPolyline
 90
2
 70
0
 10
382.688618
 20
629.605809
 30
0.0
 10
381.271298
 20
631.023159
 30
0.0
  0
LWPOLYLINE
  5
29c
100
AcDbEntity
  8
0
 62
7
100
AcDbPolyline
 90
2
 70
0
 10
391.192553
 20
629.605809
 30
0.0
 10
392.609880
 20
631.023159
 30
0.0
  0
LWPOLYLINE
  5
29d
100
AcDbEntity
  8
0
 62
7
100
AcDbPolyline
 90
2
 70
0
 10
437.587163
 20
602.819934
 30
0.0
 10
438.105938
 20
604.755984
 30
0.0
  0
LWPOLYLINE
  5
29e
100
AcDbEntity
  8
0
 62
7
100
AcDbPolyline
 90
2
 70
0
 10
441.839130
 20
595.455309
 30
0.0
 10
443.775233
 20
594.936534
 30
0.0
  0
LWPOLYLINE
  5
29f
100
AcDbEntity
  8
0
 62
7
100
AcDbPolyline
 90
2
 70
0
 10
441.839130
 20
541.883409
 30
0.0
 10
443.775233
 20
542.402184
 30
0.0
  0
LWPOLYLINE
  5
2a0
100
AcDbEntity
  8
0
 62
7
100
AcDbPolyline
 90
2
 70
0
 10
437.587163
 20
534.518784
 30
0.0
 10
438.105938
 20
532.582659
 30
0.0
  0
LWPOLYLINE
  5
2a1
100
AcDbEntity
  8
0
 62
7
100
AcDbPolyline
 90
2
 70
0
 10
391.192553
 20
507.732834
 30
0.0
 10
392.609880
 20
506.315484
 30
0.0
  0
LWPOLYLINE
  5
2a2
100
AcDbEntity
  8
0
 62
7
100
AcDbPolyline
 90
2
 70
0
 10
382.688618
 20
507.732834
 30
0.0
 10
381.271298
 20
506.315484
 30
0.0
  0
LWPOLYLINE
  5
2a3
100
AcDbEntity
  8
0
 62
7
100
AcDbPolyline
 90
2
 70
0
 10
336.294008
 20
534.518784
 30
0.0
 10
335.775233
 20
532.582659
 30
0.0
  0
LWPOLYLINE
  5
2a4
100
AcDbEntity
  8
0
 62
7
100
AcDbPolyline
 90
2
 70
0
 10
502.216726
 20
768.354669
 30
0.0
 10
532.547438
 20
768.354669
 30
0.0
  0
LWPOLYLINE
  5
2a5
100
AcDbEntity
  8
0
 62
7
100
AcDbPolyline
 90
2
 70
0
 10
574.216725
 20
768.354669
 30
0.0
 10
589.382077
 20
794.621844
 30
0.0
  0
LWPOLYLINE
  5
2a6
100
AcDbEntity
  8
0
 62
7
100
AcDbPolyline
 90
2
 70
0
 10
610.216725
 20
830.708544
 30
0.0
 10
595.051372
 20
856.975719
 30
0.0
  0
LWPOLYLINE
  5
2a7
100
AcDbEntity
  8
0
 62
7
100
AcDbPolyline
 90
2
 70
0
 10
574.216725
 20
893.062344
 30
0.0
 10
543.886020
 20
893.062344
 30
0.0
  0
LWPOLYLINE
  5
2a8
100
AcDbEntity
  8
0
 62
7
100
AcDbPolyline
 90
2
 70
0
 10
502.216726
 20
893.062344
 30
0.0
 10
487.051372
 20
866.795169
 30
0.0
  0
LWPOLYLINE
  5
2a9
100
AcDbEntity
  8
0
 62
7
100
AcDbPolyline
 90
2
 70
0
 10
466.216725
 20
830.708544
 30
0.0
 10
481.382077
 20
804.441369
 30
0.0
  0
LWPOLYLINE
  5
2aa
100
AcDbEntity
  8
0
 62
7
100
AcDbPolyline
 90
2
 70
0
 10
494.365118
 20
810.300519
 30
0.0
 10
498.617086
 20
802.935894
 30
0.0
  0
LWPOLYLINE
  5
2ab
100
AcDbEntity
  8
0
 62
7
100
AcDbPolyline
 90
2
 70
0
 10
533.964758
 20
782.527944
 30
0.0
 10
542.468692
 20
782.527944
 30
0.0
  0
LWPOLYLINE
  5
2ac
100
AcDbEntity
  8
0
 62
7
100
AcDbPolyline
 90
2
 70
0
 10
533.964758
 20
782.527944
 30
0.0
 10
533.964758
 20
769.772019
 30
0.0
  0
LWPOLYLINE
  5
2ad
100
AcDbEntity
  8
0
 62
7
100
AcDbPolyline
 90
2
 70
0
 10
542.468692
 20
782.527944
 30
0.0
 10
542.468692
 20
769.772019
 30
0.0
  0
LWPOLYLINE
  5
2ae
100
AcDbEntity
  8
0
 62
7
100
AcDbPolyline
 90
2
 70
0
 10
494.365118
 20
810.300519
 30
0.0
 10
483.318180
 20
803.922594
 30
0.0
  0
LWPOLYLINE
  5
2af
100
AcDbEntity
  8
0
 62
7
100
AcDbPolyline
 90
2
 70
0
 10
498.617086
 20
802.935894
 30
0.0
 10
487.570147
 20
796.557969
 30
0.0
  0
LWPOLYLINE
  5
2b0
100
AcDbEntity
  8
0
 62
7
100
AcDbPolyline
 90
2
 70
0
 10
498.617086
 20
858.481119
 30
0.0
 10
494.365118
 20
851.116494
 30
0.0
  0
LWPOLYLINE
  5
2b1
100
AcDbEntity
  8
0
 62
7
100
AcDbPolyline
 90
2
 70
0
 10
498.617086
 20
858.481119
 30
0.0
 10
487.570147
 20
864.859119
 30
0.0
  0
LWPOLYLINE
  5
2b2
100
AcDbEntity
  8
0
 62
7
100
AcDbPolyline
 90
2
 70
0
 10
494.365118
 20
851.116494
 30
0.0
 10
483.318180
 20
857.494494
 30
0.0
  0
LWPOLYLINE
  5
2b3
100
AcDbEntity
  8
0
 62
7
100
AcDbPolyline
 90
2
 70
0
 10
542.468692
 20
878.889144
 30
0.0
 10
533.964758
 20
878.889144
 30
0.0
  0
LWPOLYLINE
  5
2b4
100
AcDbEntity
  8
0
 62
7
100
AcDbPolyline
 90
2
 70
0
 10
542.468692
 20
878.889144
 30
0.0
 10
542.468692
 20
891.644994
 30
0.0
  0
LWPOLYLINE
  5
2b5
100
AcDbEntity
  8
0
 62
7
100
AcDbPolyline
 90
2
 70
0
 10
533.964758
 20
878.889144
 30
0.0
 10
533.964758
 20
891.644994
 30
0.0
  0
LWPOLYLINE
  5
2b6
100
AcDbEntity
  8
0
 62
7
100
AcDbPolyline
 90
2
 70
0
 10
582.068332
 20
851.116494
 30
0.0
 10
577.816365
 20
858.481119
 30
0.0
  0
LWPOLYLINE
  5
2b7
100
AcDbEntity
  8
0
 62
7
100
AcDbPolyline
 90
2
 70
0
 10
582.068332
 20
851.116494
 30
0.0
 10
593.115270
 20
857.494494
 30
0.0
  0
LWPOLYLINE
  5
2b8
100
AcDbEntity
  8
0
 62
7
100
AcDbPolyline
 90
2
 70
0
 10
577.816365
 20
858.481119
 30
0.0
 10
588.863302
 20
864.859119
 30
0.0
  0
LWPOLYLINE
  5
2b9
100
AcDbEntity
  8
0
 62
7
100
AcDbPolyline
 90
2
 70
0
 10
577.816365
 20
802.935894
 30
0.0
 10
582.068332
 20
810.300519
 30
0.0
  0
LWPOLYLINE
  5
2ba
100
AcDbEntity
  8
0
 62
7
100
AcDbPolyline
 90
2
 70
0
 10
577.816365
 20
802.935894
 30
0.0
 10
588.863302
 20
796.557969
 30
0.0
  0
LWPOLYLINE
  5
2bb
100
AcDbEntity
  8
0
 62
7
100
AcDbPolyline
 90
2
 70
0
 10
582.068332
 20
810.300519
 30
0.0
 10
593.115270
 20
803.922594
 30
0.0
  0
LWPOLYLINE
  5
2bc
100
AcDbEntity
  8
0
 62
7
100
AcDbPolyline
 90
2
 70
0
 10
543.886020
 20
768.354669
 30
0.0
 10
574.216725
 20
768.354669
 30
0.0
  0
LWPOLYLINE
  5
2bd
100
AcDbEntity
  8
0
 62
7
100
AcDbPolyline
 90
2
 70
0
 10
589.382077
 20
866.795169
 30
0.0
 10
574.216725
 20
893.062344
 30
0.0
  0
LWPOLYLINE
  5
2be
100
AcDbEntity
  8
0
 62
7
100
AcDbPolyline
 90
2
 70
0
 10
595.051372
 20
804.441369
 30
0.0
 10
610.216725
 20
830.708544
 30
0.0
  0
LWPOLYLINE
  5
2bf
100
AcDbEntity
  8
0
 62
7
100
AcDbPolyline
 90
2
 70
0
 10
532.547438
 20
893.062344
 30
0.0
 10
502.216726
 20
893.062344
 30
0.0
  0
LWPOLYLINE
  5
2c0
100
AcDbEntity
  8
0
 62
7
100
AcDbPolyline
 90
2
 70
0
 10
481.382077
 20
856.975719
 30
0.0
 10
466.216725
 20
830.708544
 30
0.0
  0
LWPOLYLINE
  5
2c1
100
AcDbEntity
  8
0
 62
7
100
AcDbPolyline
 90
2
 70
0
 10
487.051372
 20
794.621844
 30
0.0
 10
502.216726
 20
768.354669
 30
0.0
  0
LWPOLYLINE
  5
2c2
100
AcDbEntity
  8
0
 62
7
100
AcDbPolyline
 90
2
 70
0
 10
483.318180
 20
803.922594
 30
0.0
 10
481.382077
 20
804.441369
 30
0.0
  0
LWPOLYLINE
  5
2c3
100
AcDbEntity
  8
0
 62
7
100
AcDbPolyline
 90
2
 70
0
 10
483.318180
 20
857.494494
 30
0.0
 10
481.382077
 20
856.975719
 30
0.0
  0
LWPOLYLINE
  5
2c4
100
AcDbEntity
  8
0
 62
7
100
AcDbPolyline
 90
2
 70
0
 10
487.051372
 20
866.795169
 30
0.0
 10
487.570147
 20
864.859119
 30
0.0
  0
LWPOLYLINE
  5
2c5
100
AcDbEntity
  8
0
 62
7
100
AcDbPolyline
 90
2
 70
0
 10
533.964758
 20
891.644994
 30
0.0
 10
532.547438
 20
893.062344
 30
0.0
  0
LWPOLYLINE
  5
2c6
100
AcDbEntity
  8
0
 62
7
100
AcDbPolyline
 90
2
 70
0
 10
542.468692
 20
891.644994
 30
0.0
 10
543.886020
 20
893.062344
 30
0.0
  0
LWPOLYLINE
  5
2c7
100
AcDbEntity
  8
0
 62
7
100
AcDbPolyline
 90
2
 70
0
 10
588.863302
 20
864.859119
 30
0.0
 10
589.382077
 20
866.795169
 30
0.0
  0
LWPOLYLINE
  5
2c8
100
AcDbEntity
  8
0
 62
7
100
AcDbPolyline
 90
2
 70
0
 10
593.115270
 20
857.494494
 30
0.0
 10
595.051372
 20
856.975719
 30
0.0
  0
LWPOLYLINE
  5
2c9
100
AcDbEntity
  8
0
 62
7
100
AcDbPolyline
 90
2
 70
0
 10
593.115270
 20
803.922594
 30
0.0
 10
595.051372
 20
804.441369
 30
0.0
  0
LWPOLYLINE
  5
2ca
100
AcDbEntity
  8
0
 62
7
100
AcDbPolyline
 90
2
 70
0
 10
588.863302
 20
796.557969
 30
0.0
 10
589.382077
 20
794.621844
 30
0.0
  0
LWPOLYLINE
  5
2cb
100
AcDbEntity
  8
0
 62
7
100
AcDbPolyline
 90
2
 70
0
 10
542.468692
 20
769.772019
 30
0.0
 10
543.886020
 20
768.354669
 30
0.0
  0
LWPOLYLINE
  5
2cc
100
AcDbEntity
  8
0
 62
7
100
AcDbPolyline
 90
2
 70
0
 10
533.964758
 20
769.772019
 30
0.0
 10
532.547438
 20
768.354669
 30
0.0
  0
LWPOLYLINE
  5
2cd
100
AcDbEntity
  8
0
 62
7
100
AcDbPolyline
 90
2
 70
0
 10
487.570147
 20
796.557969
 30
0.0
 10
487.051372
 20
794.621844
 30
0.0
  0
LWPOLYLINE
  5
2ce
100
AcDbEntity
  8
0
 62
7
100
AcDbPolyline
 90
2
 70
0
 10
502.216726
 20
637.335077
 30
0.0
 10
532.547438
 20
637.335077
 30
0.0
  0
LWPOLYLINE
  5
2cf
100
AcDbEntity
  8
0
 62
7
100
AcDbPolyline
 90
2
 70
0
 10
574.216725
 20
637.335077
 30
0.0
 10
589.382077
 20
663.602252
 30
0.0
  0
LWPOLYLINE
  5
2d0
100
AcDbEntity
  8
0
 62
7
100
AcDbPolyline
 90
2
 70
0
 10
610.216725
 20
699.688952
 30
0.0
 10
595.051372
 20
725.956127
 30
0.0
  0
LWPOLYLINE
  5
2d1
100
AcDbEntity
  8
0
 62
7
100
AcDbPolyline
 90
2
 70
0
 10
574.216725
 20
762.042752
 30
0.0
 10
543.886020
 20
762.042752
 30
0.0
  0
LWPOLYLINE
  5
2d2
100
AcDbEntity
  8
0
 62
7
100
AcDbPolyline
 90
2
 70
0
 10
502.216726
 20
762.042752
 30
0.0
 10
487.051372
 20
735.775577
 30
0.0
  0
LWPOLYLINE
  5
2d3
100
AcDbEntity
  8
0
 62
7
100
AcDbPolyline
 90
2
 70
0
 10
466.216725
 20
699.688952
 30
0.0
 10
481.382077
 20
673.421777
 30
0.0
  0
LWPOLYLINE
  5
2d4
100
AcDbEntity
  8
0
 62
7
100
AcDbPolyline
 90
2
 70
0
 10
494.365118
 20
679.280927
 30
0.0
 10
498.617086
 20
671.916302
 30
0.0
  0
LWPOLYLINE
  5
2d5
100
AcDbEntity
  8
0
 62
7
100
AcDbPolyline
 90
2
 70
0
 10
533.964758
 20
651.508352
 30
0.0
 10
542.468692
 20
651.508352
 30
0.0
  0
LWPOLYLINE
  5
2d6
100
AcDbEntity
  8
0
 62
7
100
AcDbPolyline
 90
2
 70
0
 10
533.964758
 20
651.508352
 30
0.0
 10
533.964758
 20
638.752427
 30
0.0
  0
LWPOLYLINE
  5
2d7
100
AcDbEntity
  8
0
 62
7
100
AcDbPolyline
 90
2
 70
0
 10
542.468692
 20
651.508352
 30
0.0
 10
542.468692
 20
638.752427
 30
0.0
  0
LWPOLYLINE
  5
2d8
100
AcDbEntity
  8
0
 62
7
100
AcDbPolyline
 90
2
 70
0
 10
494.365118
 20
679.280927
 30
0.0
 10
483.318180
 20
672.903002
 30
0.0
  0
LWPOLYLINE
  5
2d9
100
AcDbEntity
  8
0
 62
7
100
AcDbPolyline
 90
2
 70
0
 10
498.617086
 20
671.916302
 30
0.0
 10
487.570147
 20
665.538377
 30
0.0
  0
LWPOLYLINE
  5
2da
100
AcDbEntity
  8
0
 62
7
100
AcDbPolyline
 90
2
 70
0
 10
498.617086
 20
727.461527
 30
0.0
 10
494.365118
 20
720.096902
 30
0.0
  0
LWPOLYLINE
  5
2db
100
AcDbEntity
  8
0
 62
7
100
AcDbPolyline
 90
2
 70
0
 10
498.617086
 20
727.461527
 30
0.0
 10
487.570147
 20
733.839527
 30
0.0
  0
LWPOLYLINE
  5
2dc
100
AcDbEntity
  8
0
 62
7
100
AcDbPolyline
 90
2
 70
0
 10
494.365118
 20
720.096902
 30
0.0
 10
483.318180
 20
726.474902
 30
0.0
  0
LWPOLYLINE
  5
2dd
100
AcDbEntity
  8
0
 62
7
100
AcDbPolyline
 90
2
 70
0
 10
542.468692
 20
747.869552
 30
0.0
 10
533.964758
 20
747.869552
 30
0.0
  0
LWPOLYLINE
  5
2de
100
AcDbEntity
  8
0
 62
7
100
AcDbPolyline
 90
2
 70
0
 10
542.468692
 20
747.869552
 30
0.0
 10
542.468692
 20
760.625402
 30
0.0
  0
LWPOLYLINE
  5
2df
100
AcDbEntity
  8
0
 62
7
100
AcDbPolyline
 90
2
 70
0
 10
533.964758
 20
747.869552
 30
0.0
 10
533.964758
 20
760.625402
 30
0.0
  0
LWPOLYLINE
  5
2e0
100
AcDbEntity
  8
0
 62
7
100
AcDbPolyline
 90
2
 70
0
 10
582.068332
 20
720.096902
 30
0.0
 10
577.816365
 20
727.461527
 30
0.0
  0
LWPOLYLINE
  5
2e1
100
AcDbEntity
  8
0
 62
7
100
AcDbPolyline
 90
2
 70
0
 10
582.068332
 20
720.096902
 30
0.0
 10
593.115270
 20
726.474902
 30
0.0
  0
LWPOLYLINE
  5
2e2
100
AcDbEntity
  8
0
 62
7
100
AcDbPolyline
 90
2
 70
0
 10
577.816365
 20
727.461527
 30
0.0
 10
588.863302
 20
733.839527
 30
0.0
  0
LWPOLYLINE
  5
2e3
100
AcDbEntity
  8
0
 62
7
100
AcDbPolyline
 90
2
 70
0
 10
577.816365
 20
671.916302
 30
0.0
 10
582.068332
 20
679.280927
 30
0.0
  0
LWPOLYLINE
  5
2e4
100
AcDbEntity
  8
0
 62
7
100
AcDbPolyline
 90
2
 70
0
 10
577.816365
 20
671.916302
 30
0.0
 10
588.863302
 20
665.538377
 30
0.0
  0
LWPOLYLINE
  5
2e5
100
AcDbEntity
  8
0
 62
7
100
AcDbPolyline
 90
2
 70
0
 10
582.068332
 20
679.280927
 30
0.0
 10
593.115270
 20
672.903002
 30
0.0
  0
LWPOLYLINE
  5
2e6
100
AcDbEntity
  8
0
 62
7
100
AcDbPolyline
 90
2
 70
0
 10
543.886020
 20
637.335077
 30
0.0
 10
574.216725
 20
637.335077
 30
0.0
  0
LWPOLYLINE
  5
2e7
100
AcDbEntity
  8
0
 62
7
100
AcDbPolyline
 90
2
 70
0
 10
589.382077
 20
735.775577
 30
0.0
 10
574.216725
 20
762.042752
 30
0.0
  0
LWPOLYLINE
  5
2e8
100
AcDbEntity
  8
0
 62
7
100
AcDbPolyline
 90
2
 70
0
 10
595.051372
 20
673.421777
 30
0.0
 10
610.216725
 20
699.688952
 30
0.0
  0
LWPOLYLINE
  5
2e9
100
AcDbEntity
  8
0
 62
7
100
AcDbPolyline
 90
2
 70
0
 10
532.547438
 20
762.042752
 30
0.0
 10
502.216726
 20
762.042752
 30
0.0
  0
LWPOLYLINE
  5
2ea
100
AcDbEntity
  8
0
 62
7
100
AcDbPolyline
 90
2
 70
0
 10
481.382077
 20
725.956127
 30
0.0
 10
466.216725
 20
699.688952
 30
0.0
  0
LWPOLYLINE
  5
2eb
100
AcDbEntity
  8
0
 62
7
100
AcDbPolyline
 90
2
 70
0
 10
487.051372
 20
663.602252
 30
0.0
 10
502.216726
 20
637.335077
 30
0.0
  0
LWPOLYLINE
  5
2ec
100
AcDbEntity
  8
0
 62
7
100
AcDbPolyline
 90
2
 70
0
 10
483.318180
 20
672.903002
 30
0.0
 10
481.382077
 20
673.421777
 30
0.0
  0
LWPOLYLINE
  5
2ed
100
AcDbEntity
  8
0
 62
7
100
AcDbPolyline
 90
2
 70
0
 10
483.318180
 20
726.474902
 30
0.0
 10
481.382077
 20
725.956127
 30
0.0
  0
LWPOLYLINE
  5
2ee
100
AcDbEntity
  8
0
 62
7
100
AcDbPolyline
 90
2
 70
0
 10
487.051372
 20
735.775577
 30
0.0
 10
487.570147
 20
733.839527
 30
0.0
  0
LWPOLYLINE
  5
2ef
100
AcDbEntity
  8
0
 62
7
100
AcDbPolyline
 90
2
 70
0
 10
533.964758
 20
760.625402
 30
0.0
 10
532.547438
 20
762.042752
 30
0.0
  0
LWPOLYLINE
  5
2f0
100
AcDbEntity
  8
0
 62
7
100
AcDbPolyline
 90
2
 70
0
 10
542.468692
 20
760.625402
 30
0.0
 10
543.886020
 20
762.042752
 30
0.0
  0
LWPOLYLINE
  5
2f1
100
AcDbEntity
  8
0
 62
7
100
AcDbPolyline
 90
2
 70
0
 10
588.863302
 20
733.839527
 30
0.0
 10
589.382077
 20
735.775577
 30
0.0
  0
LWPOLYLINE
  5
2f2
100
AcDbEntity
  8
0
 62
7
100
AcDbPolyline
 90
2
 70
0
 10
593.115270
 20
726.474902
 30
0.0
 10
595.051372
 20
725.956127
 30
0.0
  0
LWPOLYLINE
  5
2f3
100
AcDbEntity
  8
0
 62
7
100
AcDbPolyline
 90
2
 70
0
 10
593.115270
 20
672.903002
 30
0.0
 10
595.051372
 20
673.421777
 30
0.0
  0
LWPOLYLINE
  5
2f4
100
AcDbEntity
  8
0
 62
7
100
AcDbPolyline
 90
2
 70
0
 10
588.863302
 20
665.538377
 30
0.0
 10
589.382077
 20
663.602252
 30
0.0
  0
LWPOLYLINE
  5
2f5
100
AcDbEntity
  8
0
 62
7
100
AcDbPolyline
 90
2
 70
0
 10
542.468692
 20
638.752427
 30
0.0
 10
543.886020
 20
637.335077
 30
0.0
  0
LWPOLYLINE
  5
2f6
100
AcDbEntity
  8
0
 62
7
100
AcDbPolyline
 90
2
 70
0
 10
533.964758
 20
638.752427
 30
0.0
 10
532.547438
 20
637.335077
 30
0.0
  0
LWPOLYLINE
  5
2f7
100
AcDbEntity
  8
0
 62
7
100
AcDbPolyline
 90
2
 70
0
 10
487.570147
 20
665.538377
 30
0.0
 10
487.051372
 20
663.602252
 30
0.0
  0
LWPOLYLINE
  5
2f8
100
AcDbEntity
  8
0
 62
7
100
AcDbPolyline
 90
2
 70
0
 10
502.216726
 20
506.315484
 30
0.0
 10
532.547438
 20
506.315484
 30
0.0
  0
LWPOLYLINE
  5
2f9
100
AcDbEntity
  8
0
 62
7
100
AcDbPolyline
 90
2
 70
0
 10
574.216725
 20
506.315484
 30
0.0
 10
589.382077
 20
532.582659
 30
0.0
  0
LWPOLYLINE
  5
2fa
100
AcDbEntity
  8
0
 62
7
100
AcDbPolyline
 90
2
 70
0
 10
610.216725
 20
568.669359
 30
0.0
 10
595.051372
 20
594.936534
 30
0.0
  0
LWPOLYLINE
  5
2fb
100
AcDbEntity
  8
0
 62
7
100
AcDbPolyline
 90
2
 70
0
 10
574.216725
 20
631.023159
 30
0.0
 10
543.886020
 20
631.023159
 30
0.0
  0
LWPOLYLINE
  5
2fc
100
AcDbEntity
  8
0
 62
7
100
AcDbPolyline
 90
2
 70
0
 10
502.216726
 20
631.023159
 30
0.0
 10
487.051372
 20
604.755984
 30
0.0
  0
LWPOLYLINE
  5
2fd
100
AcDbEntity
  8
0
 62
7
100
AcDbPolyline
 90
2
 70
0
 10
466.216725
 20
568.669359
 30
0.0
 10
481.382077
 20
542.402184
 30
0.0
  0
LWPOLYLINE
  5
2fe
100
AcDbEntity
  8
0
 62
7
100
AcDbPolyline
 90
2
 70
0
 10
494.365118
 20
548.261334
 30
0.0
 10
498.617086
 20
540.896709
 30
0.0
  0
LWPOLYLINE
  5
2ff
100
AcDbEntity
  8
0
 62
7
100
AcDbPolyline
 90
2
 70
0
 10
533.964758
 20
520.488759
 30
0.0
 10
542.468692
 20
520.488759
 30
0.0
  0
LWPOLYLINE
  5
300
100
AcDbEntity
  8
0
 62
7
100
AcDbPolyline
 90
2
 70
0
 10
533.964758
 20
520.488759
 30
0.0
 10
533.964758
 20
507.732834
 30
0.0
  0
LWPOLYLINE
  5
301
100
AcDbEntity
  8
0
 62
7
100
AcDbPolyline
 90
2
 70
0
 10
542.468692
 20
520.488759
 30
0.0
 10
542.468692
 20
507.732834
 30
0.0
  0
LWPOLYLINE
  5
302
100
AcDbEntity
  8
0
 62
7
100
AcDbPolyline
 90
2
 70
0
 10
494.365118
 20
548.261334
 30
0.0
 10
483.318180
 20
541.883409
 30
0.0
  0
LWPOLYLINE
  5
303
100
AcDbEntity
  8
0
 62
7
100
AcDbPolyline
 90
2
 70
0
 10
498.617086
 20
540.896709
 30
0.0
 10
487.570147
 20
534.518784
 30
0.0
  0
LWPOLYLINE
  5
304
100
AcDbEntity
  8
0
 62
7
100
AcDbPolyline
 90
2
 70
0
 10
498.617086
 20
596.441934
 30
0.0
 10
494.365118
 20
589.077309
 30
0.0
  0
LWPOLYLINE
  5
305
100
AcDbEntity
  8
0
 62
7
100
AcDbPolyline
 90
2
 70
0
 10
498.617086
 20
596.441934
 30
0.0
 10
487.570147
 20
602.819934
 30
0.0
  0
LWPOLYLINE
  5
306
100
AcDbEntity
  8
0
 62
7
100
AcDbPolyline
 90
2
 70
0
 10
494.365118
 20
589.077309
 30
0.0
 10
483.318180
 20
595.455309
 30
0.0
  0
LWPOLYLINE
  5
307
100
AcDbEntity
  8
0
 62
7
100
AcDbPolyline
 90
2
 70
0
 10
542.468692
 20
616.849959
 30
0.0
 10
533.964758
 20
616.849959
 30
0.0
  0
LWPOLYLINE
  5
308
100
AcDbEntity
  8
0
 62
7
100
AcDbPolyline
 90
2
 70
0
 10
542.468692
 20
616.849959
 30
0.0
 10
542.468692
 20
629.605809
 30
0.0
  0
LWPOLYLINE
  5
309
100
AcDbEntity
  8
0
 62
7
100
AcDbPolyline
 90
2
 70
0
 10
533.964758
 20
616.849959
 30
0.0
 10
533.964758
 20
629.605809
 30
0.0
  0
LWPOLYLINE
  5
30a
100
AcDbEntity
  8
0
 62
7
100
AcDbPolyline
 90
2
 70
0
 10
582.068332
 20
589.077309
 30
0.0
 10
577.816365
 20
596.441934
 30
0.0
  0
LWPOLYLINE
  5
30b
100
AcDbEntity
  8
0
 62
7
100
AcDbPolyline
 90
2
 70
0
 10
582.068332
 20
589.077309
 30
0.0
 10
593.115270
 20
595.455309
 30
0.0
  0
LWPOLYLINE
  5
30c
100
AcDbEntity
  8
0
 62
7
100
AcDbPolyline
 90
2
 70
0
 10
577.816365
 20
596.441934
 30
0.0
 10
588.863302
 20
602.819934
 30
0.0
  0
LWPOLYLINE
  5
30d
100
AcDbEntity
  8
0
 62
7
100
AcDbPolyline
 90
2
 70
0
 10
577.816365
 20
540.896709
 30
0.0
 10
582.068332
 20
548.261334
 30
0.0
  0
LWPOLYLINE
  5
30e
100
AcDbEntity
  8
0
 62
7
100
AcDbPolyline
 90
2
 70
0
 10
577.816365
 20
540.896709
 30
0.0
 10
588.863302
 20
534.518784
 30
0.0
  0
LWPOLYLINE
  5
30f
100
AcDbEntity
  8
0
 62
7
100
AcDbPolyline
 90
2
 70
0
 10
582.068332
 20
548.261334
 30
0.0
 10
593.115270
 20
541.883409
 30
0.0
  0
LWPOLYLINE
  5
310
100
AcDbEntity
  8
0
 62
7
100
AcDbPolyline
 90
2
 70
0
 10
543.886020
 20
506.315484
 30
0.0
 10
574.216725
 20
506.315484
 30
0.0
  0
LWPOLYLINE
  5
311
100
AcDbEntity
  8
0
 62
7
100
AcDbPolyline
 90
2
 70
0
 10
589.382077
 20
604.755984
 30
0.0
 10
574.216725
 20
631.023159
 30
0.0
  0
LWPOLYLINE
  5
312
100
AcDbEntity
  8
0
 62
7
100
AcDbPolyline
 90
2
 70
0
 10
595.051372
 20
542.402184
 30
0.0
 10
610.216725
 20
568.669359
 30
0.0
  0
LWPOLYLINE
  5
313
100
AcDbEntity
  8
0
 62
7
100
AcDbPolyline
 90
2
 70
0
 10
532.547438
 20
631.023159
 30
0.0
 10
502.216726
 20
631.023159
 30
0.0
  0
LWPOLYLINE
  5
314
100
AcDbEntity
  8
0
 62
7
100
AcDbPolyline
 90
2
 70
0
 10
481.382077
 20
594.936534
 30
0.0
 10
466.216725
 20
568.669359
 30
0.0
  0
LWPOLYLINE
  5
315
100
AcDbEntity
  8
0
 62
7
100
AcDbPolyline
 90
2
 70
0
 10
487.051372
 20
532.582659
 30
0.0
 10
502.216726
 20
506.315484
 30
0.0
  0
LWPOLYLINE
  5
316
100
AcDbEntity
  8
0
 62
7
100
AcDbPolyline
 90
2
 70
0
 10
483.318180
 20
541.883409
 30
0.0
 10
481.382077
 20
542.402184
 30
0.0
  0
LWPOLYLINE
  5
317
100
AcDbEntity
  8
0
 62
7
100
AcDbPolyline
 90
2
 70
0
 10
483.318180
 20
595.455309
 30
0.0
 10
481.382077
 20
594.936534
 30
0.0
  0
LWPOLYLINE
  5
318
100
AcDbEntity
  8
0
 62
7
100
AcDbPolyline
 90
2
 70
0
 10
487.051372
 20
604.755984
 30
0.0
 10
487.570147
 20
602.819934
 30
0.0
  0
LWPOLYLINE
  5
319
100
AcDbEntity
  8
0
 62
7
100
AcDbPolyline
 90
2
 70
0
 10
533.964758
 20
629.605809
 30
0.0
 10
532.547438
 20
631.023159
 30
0.0
  0
LWPOLYLINE
  5
31a
100
AcDbEntity
  8
0
 62
7
100
AcDbPolyline
 90
2
 70
0
 10
542.468692
 20
629.605809
 30
0.0
 10
543.886020
 20
631.023159
 30
0.0
  0
LWPOLYLINE
  5
31b
100
AcDbEntity
  8
0
 62
7
100
AcDbPolyline
 90
2
 70
0
 10
588.863302
 20
602.819934
 30
0.0
 10
589.382077
 20
604.755984
 30
0.0
  0
LWPOLYLINE
  5
31c
100
AcDbEntity
  8
0
 62
7
100
AcDbPolyline
 90
2
 70
0
 10
593.115270
 20
595.455309
 30
0.0
 10
595.051372
 20
594.936534
 30
0.0
  0
LWPOLYLINE
  5
31d
100
AcDbEntity
  8
0
 62
7
100
AcDbPolyline
 90
2
 70
0
 10
593.115270
 20
541.883409
 30
0.0
 10
595.051372
 20
542.402184
 30
0.0
  0
LWPOLYLINE
  5
31e
100
AcDbEntity
  8
0
 62
7
100
AcDbPolyline
 90
2
 70
0
 10
588.863302
 20
534.518784
 30
0.0
 10
589.382077
 20
532.582659
 30
0.0
  0
LWPOLYLINE
  5
31f
100
AcDbEntity
  8
0
 62
7
100
AcDbPolyline
 90
2
 70
0
 10
542.468692
 20
507.732834
 30
0.0
 10
543.886020
 20
506.315484
 30
0.0
  0
LWPOLYLINE
  5
320
100
AcDbEntity
  8
0
 62
7
100
AcDbPolyline
 90
2
 70
0
 10
533.964758
 20
507.732834
 30
0.0
 10
532.547438
 20
506.315484
 30
0.0
  0
LWPOLYLINE
  5
321
100
AcDbEntity
  8
0
 62
7
100
AcDbPolyline
 90
2
 70
0
 10
487.570147
 20
534.518784
 30
0.0
 10
487.051372
 20
532.582659
 30
0.0
  0
ENDSEC
  0
SECTION
  2
OBJECTS
  0
DICTIONARY
  5
C
330
0
100
AcDbDictionary
  3
ACAD_GROUP
350
D
  3
ACAD_MLINESTYLE
350
17
  0
DICTIONARY
  5
D
330
C
100
AcDbDictionary
  0
DICTIONARY
  5
1A
330
C
100
AcDbDictionary
  0
DICTIONARY
  5
17
330
C
100
AcDbDictionary
  3
STANDARD
350
18
  0
DICTIONARY
  5
19
330
C
100
AcDbDictionary
  0
ENDSEC
  0
EOF
