  0
SECTION
  2
HEADER
  9
$ACADVER
  1
AC1014
  9
$HANDSEED
  5
FFFF
  9
$MEASUREMENT
 70
     1
  0
ENDSEC
  0
SECTION
  2
TABLES
  0
TABLE
  2
VPORT
  5
8
330
0
100
AcDbSymbolTable
 70
     4
  0
VPORT
  5
2E
330
8
100
AcDbSymbolTableRecord
100
AcDbViewportTableRecord
  2
*ACTIVE
 70
     0
 10
0.0
 20
0.0
 11
1.0
 21
1.0
 12
210.0
 22
148.5
 13
0.0
 23
0.0
 14
10.0
 24
10.0
 15
10.0
 25
10.0
 16
0.0
 26
0.0
 36
1.0
 17
0.0
 27
0.0
 37
0.0
 40
341.0
 41
1.24
 42
50.0
 43
0.0
 44
0.0
 50
0.0
 51
0.0
 71
     0
 72
   100
 73
     1
 74
     3
 75
     0
 76
     0
 77
     0
 78
     0
  0
ENDTAB
  0
TABLE
  2
LTYPE
  5
5
330
0
100
AcDbSymbolTable
 70
     1
  0
LTYPE
  5
14
330
5
100
AcDbSymbolTableRecord
100
AcDbLinetypeTableRecord
  2
BYBLOCK
 70
     0
  3

 72
    65
 73
     0
 40
0.0
  0
LTYPE
  5
15
330
5
100
AcDbSymbolTableRecord
100
AcDbLinetypeTableRecord
  2
BYLAYER
 70
     0
  3

 72
    65
 73
     0
 40
0.0
  0
LTYPE
  5
16
330
5
100
AcDbSymbolTableRecord
100
AcDbLinetypeTableRecord
  2
CONTINUOUS
 70
     0
  3
Solid line
 72
    65
 73
     0
 40
0.0
  0
ENDTAB
  0
TABLE
  2
LAYER
  5
2
100
AcDbSymbolTable
 70
1
  0
LAYER
  5
50
100
AcDbSymbolTableRecord
100
AcDbLayerTableRecord
  2
0
 70
0
  6
CONTINUOUS
  0
ENDTAB
  0
TABLE
  2
STYLE
  5
3
330
0
100
AcDbSymbolTable
 70
     1
  0
STYLE
  5
11
330
3
100
AcDbSymbolTableRecord
100
AcDbTextStyleTableRecord
  2
STANDARD
 70
     0
 40
0.0
 41
1.0
 50
0.0
 71
     0
 42
2.5
  3
txt
  4

  0
ENDTAB
  0
TABLE
  2
VIEW
  5
6
330
0
100
AcDbSymbolTable
 70
     0
  0
ENDTAB
  0
TABLE
  2
UCS
  5
7
330
0
100
AcDbSymbolTable
 70
     0
  0
ENDTAB
  0
TABLE
  2
APPID
  5
9
330
0
100
AcDbSymbolTable
 70
     2
  0
APPID
  5
12
330
9
100
AcDbSymbolTableRecord
100
AcDbRegAppTableRecord
  2
ACAD
 70
     0
  0
ENDTAB
  0
TABLE
  2
DIMSTYLE
  5
A
330
0
100
AcDbSymbolTable
 70
     1
  0
DIMSTYLE
105
27
330
A
100
AcDbSymbolTableRecord
100
AcDbDimStyleTableRecord
  2
ISO-25
 70
     0
  3

  4

  5

  6

  7

 40
1.0
 41
2.5
 42
0.625
 43
3.75
 44
1.25
 45
0.0
 46
0.0
 47
0.0
 48
0.0
140
2.5
141
2.5
142
0.0
143
0.03937007874016
144
1.0
145
0.0
146
1.0
147
0.625
 71
     0
 72
     0
 73
     0
 74
     0
 75
     0
 76
     0
 77
     1
 78
     8
170
     0
171
     3
172
     1
173
     0
174
     0
175
     0
176
     0
177
     0
178
     0
270
     2
271
     2
272
     2
273
     2
274
     3
340
11
275
     0
280
     0
281
     0
282
     0
283
     0
284
     8
285
     0
286
     0
287
     3
288
     0
  0
ENDTAB
  0
TABLE
  2
BLOCK_RECORD
  5
1
330
0
100
AcDbSymbolTable
 70
     1
  0
BLOCK_RECORD
  5
1F
330
1
100
AcDbSymbolTableRecord
100
AcDbBlockTableRecord
  2
*MODEL_SPACE
  0
BLOCK_RECORD
  5
1B
330
1
100
AcDbSymbolTableRecord
100
AcDbBlockTableRecord
  2
*PAPER_SPACE
  0
ENDTAB
  0
ENDSEC
  0
SECTION
  2
BLOCKS
  0
BLOCK
  5
20
330
1F
100
AcDbEntity
  8
0
100
AcDbBlockBegin
  2
*MODEL_SPACE
 70
     0
 10
0.0
 20
0.0
 30
0.0
  3
*MODEL_SPACE
  1

  0
ENDBLK
  5
21
330
1F
100
AcDbEntity
  8
0
100
AcDbBlockEnd
  0
BLOCK
  5
1C
330
1B
100
AcDbEntity
 67
     1
  8
0
100
AcDbBlockBegin
  2
*PAPER_SPACE
  1

  0
ENDBLK
  5
1D
330
1B
100
AcDbEntity
 67
     1
  8
0
100
AcDbBlockEnd
  0
ENDSEC
  0
SECTION
  2
ENTITIES
  0
LWPOLYLINE
  5
100
100
AcDbEntity
  8
0
 62
7
100
AcDbPolyline
 90
2
 70
0
 10
39.512043
 20
1201.786650
 30
0.0
 10
36.884178
 20
1209.874350
 30
0.0
  0
LWPOLYLINE
  5
101
100
AcDbEntity
  8
0
 62
7
100
AcDbPolyline
 90
2
 70
0
 10
110.610472
 20
1166.072850
 30
0.0
 10
120.353520
 20
1196.058900
 30
0.0
  0
LWPOLYLINE
  5
102
100
AcDbEntity
  8
0
 62
7
100
AcDbPolyline
 90
2
 70
0
 10
133.600388
 20
1236.828600
 30
0.0
 10
108.092745
 20
1255.360950
 30
0.0
  0
LWPOLYLINE
  5
103
100
AcDbEntity
  8
0
 62
7
100
AcDbPolyline
 90
2
 70
0
 10
73.411998
 20
1280.557995
 30
0.0
 10
47.904356
 20
1262.025600
 30
0.0
  0
LWPOLYLINE
  5
104
100
AcDbEntity
  8
0
 62
7
100
AcDbPolyline
 90
2
 70
0
 10
13.223613
 20
1236.828600
 30
0.0
 10
22.966660
 20
1206.842550
 30
0.0
  0
LWPOLYLINE
  5
105
100
AcDbEntity
  8
0
 62
7
100
AcDbPolyline
 90
2
 70
0
 10
36.213528
 20
1166.072850
 30
0.0
 10
67.742710
 20
1166.072850
 30
0.0
  0
LWPOLYLINE
  5
106
100
AcDbEntity
  8
0
 62
7
100
AcDbPolyline
 90
2
 70
0
 10
77.663970
 20
1180.246125
 30
0.0
 10
69.160031
 20
1180.246125
 30
0.0
  0
LWPOLYLINE
  5
107
100
AcDbEntity
  8
0
 62
7
100
AcDbPolyline
 90
2
 70
0
 10
77.663970
 20
1180.246125
 30
0.0
 10
77.663970
 20
1167.490200
 30
0.0
  0
LWPOLYLINE
  5
108
100
AcDbEntity
  8
0
 62
7
100
AcDbPolyline
 90
2
 70
0
 10
69.160031
 20
1180.246125
 30
0.0
 10
69.160031
 20
1167.490200
 30
0.0
  0
LWPOLYLINE
  5
109
100
AcDbEntity
  8
0
 62
7
100
AcDbPolyline
 90
2
 70
0
 10
36.884178
 20
1209.874350
 30
0.0
 10
24.752591
 20
1205.932575
 30
0.0
  0
LWPOLYLINE
  5
10a
100
AcDbEntity
  8
0
 62
7
100
AcDbPolyline
 90
2
 70
0
 10
39.512043
 20
1201.786650
 30
0.0
 10
27.380455
 20
1197.844800
 30
0.0
  0
LWPOLYLINE
  5
10b
100
AcDbEntity
  8
0
 62
7
100
AcDbPolyline
 90
3
 70
0
 10
48.208705
 20
1244.727675
 30
0.0
 10
55.088538
 20
1249.726125
 30
0.0
 10
47.590803
 20
1260.045900
 30
0.0
  0
LWPOLYLINE
  5
10c
100
AcDbEntity
  8
0
 62
7
100
AcDbPolyline
 90
2
 70
0
 10
48.208705
 20
1244.727675
 30
0.0
 10
40.710970
 20
1255.047375
 30
0.0
  0
LWPOLYLINE
  5
10d
100
AcDbEntity
  8
0
 62
7
100
AcDbPolyline
 90
3
 70
0
 10
91.735463
 20
1249.726125
 30
0.0
 10
98.615295
 20
1244.727675
 30
0.0
 10
106.113030
 20
1255.047375
 30
0.0
  0
LWPOLYLINE
  5
10e
100
AcDbEntity
  8
0
 62
7
100
AcDbPolyline
 90
2
 70
0
 10
91.735463
 20
1249.726125
 30
0.0
 10
99.233198
 20
1260.045900
 30
0.0
  0
LWPOLYLINE
  5
10f
100
AcDbEntity
  8
0
 62
7
100
AcDbPolyline
 90
3
 70
0
 10
109.939823
 20
1209.874350
 30
0.0
 10
107.311958
 20
1201.786650
 30
0.0
 10
119.443545
 20
1197.844800
 30
0.0
  0
LWPOLYLINE
  5
110
100
AcDbEntity
  8
0
 62
7
100
AcDbPolyline
 90
2
 70
0
 10
109.939823
 20
1209.874350
 30
0.0
 10
122.071410
 20
1205.932575
 30
0.0
  0
LWPOLYLINE
  5
111
100
AcDbEntity
  8
0
 62
7
100
AcDbPolyline
 90
2
 70
0
 10
98.919645
 20
1262.025600
 30
0.0
 10
73.411998
 20
1280.557995
 30
0.0
  0
LWPOLYLINE
  5
112
100
AcDbEntity
  8
0
 62
7
100
AcDbPolyline
 90
2
 70
0
 10
123.857340
 20
1206.842550
 30
0.0
 10
133.600388
 20
1236.828600
 30
0.0
  0
LWPOLYLINE
  5
113
100
AcDbEntity
  8
0
 62
7
100
AcDbPolyline
 90
2
 70
0
 10
79.081290
 20
1166.072850
 30
0.0
 10
110.610473
 20
1166.072850
 30
0.0
  0
LWPOLYLINE
  5
114
100
AcDbEntity
  8
0
 62
7
100
AcDbPolyline
 90
2
 70
0
 10
26.470481
 20
1196.058900
 30
0.0
 10
36.213528
 20
1166.072850
 30
0.0
  0
LWPOLYLINE
  5
115
100
AcDbEntity
  8
0
 62
7
100
AcDbPolyline
 90
2
 70
0
 10
38.731256
 20
1255.360950
 30
0.0
 10
13.223613
 20
1236.828600
 30
0.0
  0
LWPOLYLINE
  5
116
100
AcDbEntity
  8
0
 62
7
100
AcDbPolyline
 90
2
 70
0
 10
40.710971
 20
1255.047375
 30
0.0
 10
38.731256
 20
1255.360950
 30
0.0
  0
LWPOLYLINE
  5
117
100
AcDbEntity
  8
0
 62
7
100
AcDbPolyline
 90
2
 70
0
 10
47.590803
 20
1260.045900
 30
0.0
 10
47.904355
 20
1262.025600
 30
0.0
  0
LWPOLYLINE
  5
118
100
AcDbEntity
  8
0
 62
7
100
AcDbPolyline
 90
2
 70
0
 10
99.233198
 20
1260.045900
 30
0.0
 10
98.919645
 20
1262.025600
 30
0.0
  0
LWPOLYLINE
  5
119
100
AcDbEntity
  8
0
 62
7
100
AcDbPolyline
 90
2
 70
0
 10
106.113030
 20
1255.047375
 30
0.0
 10
108.092745
 20
1255.360950
 30
0.0
  0
LWPOLYLINE
  5
11a
100
AcDbEntity
  8
0
 62
7
100
AcDbPolyline
 90
2
 70
0
 10
122.071410
 20
1205.932575
 30
0.0
 10
123.857340
 20
1206.842550
 30
0.0
  0
LWPOLYLINE
  5
11b
100
AcDbEntity
  8
0
 62
7
100
AcDbPolyline
 90
2
 70
0
 10
119.443545
 20
1197.844800
 30
0.0
 10
120.353520
 20
1196.058900
 30
0.0
  0
LWPOLYLINE
  5
11c
100
AcDbEntity
  8
0
 62
7
100
AcDbPolyline
 90
2
 70
0
 10
77.663970
 20
1167.490200
 30
0.0
 10
79.081290
 20
1166.072850
 30
0.0
  0
LWPOLYLINE
  5
11d
100
AcDbEntity
  8
0
 62
7
100
AcDbPolyline
 90
2
 70
0
 10
67.742711
 20
1166.072850
 30
0.0
 10
69.160031
 20
1167.490200
 30
0.0
  0
LWPOLYLINE
  5
11e
100
AcDbEntity
  8
0
 62
7
100
AcDbPolyline
 90
2
 70
0
 10
27.380456
 20
1197.844800
 30
0.0
 10
26.470481
 20
1196.058900
 30
0.0
  0
LWPOLYLINE
  5
11f
100
AcDbEntity
  8
0
 62
7
100
AcDbPolyline
 90
2
 70
0
 10
24.752590
 20
1205.932575
 30
0.0
 10
22.966660
 20
1206.842550
 30
0.0
  0
LWPOLYLINE
  5
120
100
AcDbEntity
  8
0
 62
7
100
AcDbPolyline
 90
2
 70
0
 10
39.512043
 20
1201.786650
 30
0.0
 10
36.884178
 20
1209.874350
 30
0.0
  0
LWPOLYLINE
  5
121
100
AcDbEntity
  8
0
 62
7
100
AcDbPolyline
 90
2
 70
0
 10
110.610472
 20
1166.072850
 30
0.0
 10
120.353520
 20
1196.058900
 30
0.0
  0
LWPOLYLINE
  5
122
100
AcDbEntity
  8
0
 62
7
100
AcDbPolyline
 90
2
 70
0
 10
133.600388
 20
1236.828600
 30
0.0
 10
108.092745
 20
1255.360950
 30
0.0
  0
LWPOLYLINE
  5
123
100
AcDbEntity
  8
0
 62
7
100
AcDbPolyline
 90
2
 70
0
 10
73.411998
 20
1280.557995
 30
0.0
 10
47.904356
 20
1262.025600
 30
0.0
  0
LWPOLYLINE
  5
124
100
AcDbEntity
  8
0
 62
7
100
AcDbPolyline
 90
2
 70
0
 10
13.223613
 20
1236.828600
 30
0.0
 10
22.966660
 20
1206.842550
 30
0.0
  0
LWPOLYLINE
  5
125
100
AcDbEntity
  8
0
 62
7
100
AcDbPolyline
 90
2
 70
0
 10
36.213528
 20
1166.072850
 30
0.0
 10
67.742710
 20
1166.072850
 30
0.0
  0
LWPOLYLINE
  5
126
100
AcDbEntity
  8
0
 62
7
100
AcDbPolyline
 90
2
 70
0
 10
77.663970
 20
1180.246125
 30
0.0
 10
69.160031
 20
1180.246125
 30
0.0
  0
LWPOLYLINE
  5
127
100
AcDbEntity
  8
0
 62
7
100
AcDbPolyline
 90
2
 70
0
 10
77.663970
 20
1180.246125
 30
0.0
 10
77.663970
 20
1167.490200
 30
0.0
  0
LWPOLYLINE
  5
128
100
AcDbEntity
  8
0
 62
7
100
AcDbPolyline
 90
2
 70
0
 10
69.160031
 20
1180.246125
 30
0.0
 10
69.160031
 20
1167.490200
 30
0.0
  0
LWPOLYLINE
  5
129
100
AcDbEntity
  8
0
 62
7
100
AcDbPolyline
 90
2
 70
0
 10
36.884178
 20
1209.874350
 30
0.0
 10
24.752591
 20
1205.932575
 30
0.0
  0
LWPOLYLINE
  5
12a
100
AcDbEntity
  8
0
 62
7
100
AcDbPolyline
 90
2
 70
0
 10
39.512043
 20
1201.786650
 30
0.0
 10
27.380455
 20
1197.844800
 30
0.0
  0
LWPOLYLINE
  5
12b
100
AcDbEntity
  8
0
 62
7
100
AcDbPolyline
 90
3
 70
0
 10
48.208705
 20
1244.727675
 30
0.0
 10
55.088538
 20
1249.726125
 30
0.0
 10
47.590803
 20
1260.045900
 30
0.0
  0
LWPOLYLINE
  5
12c
100
AcDbEntity
  8
0
 62
7
100
AcDbPolyline
 90
2
 70
0
 10
48.208705
 20
1244.727675
 30
0.0
 10
40.710970
 20
1255.047375
 30
0.0
  0
LWPOLYLINE
  5
12d
100
AcDbEntity
  8
0
 62
7
100
AcDbPolyline
 90
3
 70
0
 10
91.735463
 20
1249.726125
 30
0.0
 10
98.615295
 20
1244.727675
 30
0.0
 10
106.113030
 20
1255.047375
 30
0.0
  0
LWPOLYLINE
  5
12e
100
AcDbEntity
  8
0
 62
7
100
AcDbPolyline
 90
2
 70
0
 10
91.735463
 20
1249.726125
 30
0.0
 10
99.233198
 20
1260.045900
 30
0.0
  0
LWPOLYLINE
  5
12f
100
AcDbEntity
  8
0
 62
7
100
AcDbPolyline
 90
3
 70
0
 10
109.939823
 20
1209.874350
 30
0.0
 10
107.311958
 20
1201.786650
 30
0.0
 10
119.443545
 20
1197.844800
 30
0.0
  0
LWPOLYLINE
  5
130
100
AcDbEntity
  8
0
 62
7
100
AcDbPolyline
 90
2
 70
0
 10
109.939823
 20
1209.874350
 30
0.0
 10
122.071410
 20
1205.932575
 30
0.0
  0
LWPOLYLINE
  5
131
100
AcDbEntity
  8
0
 62
7
100
AcDbPolyline
 90
2
 70
0
 10
98.919645
 20
1262.025600
 30
0.0
 10
73.411998
 20
1280.557995
 30
0.0
  0
LWPOLYLINE
  5
132
100
AcDbEntity
  8
0
 62
7
100
AcDbPolyline
 90
2
 70
0
 10
123.857340
 20
1206.842550
 30
0.0
 10
133.600388
 20
1236.828600
 30
0.0
  0
LWPOLYLINE
  5
133
100
AcDbEntity
  8
0
 62
7
100
AcDbPolyline
 90
2
 70
0
 10
79.081290
 20
1166.072850
 30
0.0
 10
110.610473
 20
1166.072850
 30
0.0
  0
LWPOLYLINE
  5
134
100
AcDbEntity
  8
0
 62
7
100
AcDbPolyline
 90
2
 70
0
 10
26.470481
 20
1196.058900
 30
0.0
 10
36.213528
 20
1166.072850
 30
0.0
  0
LWPOLYLINE
  5
135
100
AcDbEntity
  8
0
 62
7
100
AcDbPolyline
 90
2
 70
0
 10
38.731256
 20
1255.360950
 30
0.0
 10
13.223613
 20
1236.828600
 30
0.0
  0
LWPOLYLINE
  5
136
100
AcDbEntity
  8
0
 62
7
100
AcDbPolyline
 90
2
 70
0
 10
40.710971
 20
1255.047375
 30
0.0
 10
38.731256
 20
1255.360950
 30
0.0
  0
LWPOLYLINE
  5
137
100
AcDbEntity
  8
0
 62
7
100
AcDbPolyline
 90
2
 70
0
 10
47.590803
 20
1260.045900
 30
0.0
 10
47.904355
 20
1262.025600
 30
0.0
  0
LWPOLYLINE
  5
138
100
AcDbEntity
  8
0
 62
7
100
AcDbPolyline
 90
2
 70
0
 10
99.233198
 20
1260.045900
 30
0.0
 10
98.919645
 20
1262.025600
 30
0.0
  0
LWPOLYLINE
  5
139
100
AcDbEntity
  8
0
 62
7
100
AcDbPolyline
 90
2
 70
0
 10
106.113030
 20
1255.047375
 30
0.0
 10
108.092745
 20
1255.360950
 30
0.0
  0
LWPOLYLINE
  5
13a
100
AcDbEntity
  8
0
 62
7
100
AcDbPolyline
 90
2
 70
0
 10
122.071410
 20
1205.932575
 30
0.0
 10
123.857340
 20
1206.842550
 30
0.0
  0
LWPOLYLINE
  5
13b
100
AcDbEntity
  8
0
 62
7
100
AcDbPolyline
 90
2
 70
0
 10
119.443545
 20
1197.844800
 30
0.0
 10
120.353520
 20
1196.058900
 30
0.0
  0
LWPOLYLINE
  5
13c
100
AcDbEntity
  8
0
 62
7
100
AcDbPolyline
 90
2
 70
0
 10
77.663970
 20
1167.490200
 30
0.0
 10
79.081290
 20
1166.072850
 30
0.0
  0
LWPOLYLINE
  5
13d
100
AcDbEntity
  8
0
 62
7
100
AcDbPolyline
 90
2
 70
0
 10
67.742711
 20
1166.072850
 30
0.0
 10
69.160031
 20
1167.490200
 30
0.0
  0
LWPOLYLINE
  5
13e
100
AcDbEntity
  8
0
 62
7
100
AcDbPolyline
 90
2
 70
0
 10
27.380456
 20
1197.844800
 30
0.0
 10
26.470481
 20
1196.058900
 30
0.0
  0
LWPOLYLINE
  5
13f
100
AcDbEntity
  8
0
 62
7
100
AcDbPolyline
 90
2
 70
0
 10
24.752590
 20
1205.932575
 30
0.0
 10
22.966660
 20
1206.842550
 30
0.0
  0
LWPOLYLINE
  5
140
100
AcDbEntity
  8
0
 62
7
100
AcDbPolyline
 90
2
 70
0
 10
39.512043
 20
1081.500817
 30
0.0
 10
36.884178
 20
1089.588517
 30
0.0
  0
LWPOLYLINE
  5
141
100
AcDbEntity
  8
0
 62
7
100
AcDbPolyline
 90
2
 70
0
 10
110.610472
 20
1045.787017
 30
0.0
 10
120.353520
 20
1075.773067
 30
0.0
  0
LWPOLYLINE
  5
142
100
AcDbEntity
  8
0
 62
7
100
AcDbPolyline
 90
2
 70
0
 10
133.600388
 20
1116.542768
 30
0.0
 10
108.092745
 20
1135.075118
 30
0.0
  0
LWPOLYLINE
  5
143
100
AcDbEntity
  8
0
 62
7
100
AcDbPolyline
 90
2
 70
0
 10
73.411998
 20
1160.272162
 30
0.0
 10
47.904356
 20
1141.739767
 30
0.0
  0
LWPOLYLINE
  5
144
100
AcDbEntity
  8
0
 62
7
100
AcDbPolyline
 90
2
 70
0
 10
13.223613
 20
1116.542768
 30
0.0
 10
22.966660
 20
1086.556717
 30
0.0
  0
LWPOLYLINE
  5
145
100
AcDbEntity
  8
0
 62
7
100
AcDbPolyline
 90
2
 70
0
 10
36.213528
 20
1045.787017
 30
0.0
 10
67.742710
 20
1045.787017
 30
0.0
  0
LWPOLYLINE
  5
146
100
AcDbEntity
  8
0
 62
7
100
AcDbPolyline
 90
2
 70
0
 10
77.663970
 20
1059.960292
 30
0.0
 10
69.160031
 20
1059.960292
 30
0.0
  0
LWPOLYLINE
  5
147
100
AcDbEntity
  8
0
 62
7
100
AcDbPolyline
 90
2
 70
0
 10
77.663970
 20
1059.960292
 30
0.0
 10
77.663970
 20
1047.204367
 30
0.0
  0
LWPOLYLINE
  5
148
100
AcDbEntity
  8
0
 62
7
100
AcDbPolyline
 90
2
 70
0
 10
69.160031
 20
1059.960292
 30
0.0
 10
69.160031
 20
1047.204367
 30
0.0
  0
LWPOLYLINE
  5
149
100
AcDbEntity
  8
0
 62
7
100
AcDbPolyline
 90
2
 70
0
 10
36.884178
 20
1089.588517
 30
0.0
 10
24.752591
 20
1085.646743
 30
0.0
  0
LWPOLYLINE
  5
14a
100
AcDbEntity
  8
0
 62
7
100
AcDbPolyline
 90
2
 70
0
 10
39.512043
 20
1081.500817
 30
0.0
 10
27.380455
 20
1077.558967
 30
0.0
  0
LWPOLYLINE
  5
14b
100
AcDbEntity
  8
0
 62
7
100
AcDbPolyline
 90
3
 70
0
 10
48.208705
 20
1124.441842
 30
0.0
 10
55.088538
 20
1129.440292
 30
0.0
 10
47.590803
 20
1139.760067
 30
0.0
  0
LWPOLYLINE
  5
14c
100
AcDbEntity
  8
0
 62
7
100
AcDbPolyline
 90
2
 70
0
 10
48.208705
 20
1124.441842
 30
0.0
 10
40.710970
 20
1134.761542
 30
0.0
  0
LWPOLYLINE
  5
14d
100
AcDbEntity
  8
0
 62
7
100
AcDbPolyline
 90
3
 70
0
 10
91.735463
 20
1129.440292
 30
0.0
 10
98.615295
 20
1124.441842
 30
0.0
 10
106.113030
 20
1134.761542
 30
0.0
  0
LWPOLYLINE
  5
14e
100
AcDbEntity
  8
0
 62
7
100
AcDbPolyline
 90
2
 70
0
 10
91.735463
 20
1129.440292
 30
0.0
 10
99.233198
 20
1139.760067
 30
0.0
  0
LWPOLYLINE
  5
14f
100
AcDbEntity
  8
0
 62
7
100
AcDbPolyline
 90
3
 70
0
 10
109.939823
 20
1089.588517
 30
0.0
 10
107.311958
 20
1081.500817
 30
0.0
 10
119.443545
 20
1077.558967
 30
0.0
  0
LWPOLYLINE
  5
150
100
AcDbEntity
  8
0
 62
7
100
AcDbPolyline
 90
2
 70
0
 10
109.939823
 20
1089.588517
 30
0.0
 10
122.071410
 20
1085.646743
 30
0.0
  0
LWPOLYLINE
  5
151
100
AcDbEntity
  8
0
 62
7
100
AcDbPolyline
 90
2
 70
0
 10
98.919645
 20
1141.739767
 30
0.0
 10
73.411998
 20
1160.272162
 30
0.0
  0
LWPOLYLINE
  5
152
100
AcDbEntity
  8
0
 62
7
100
AcDbPolyline
 90
2
 70
0
 10
123.857340
 20
1086.556717
 30
0.0
 10
133.600388
 20
1116.542768
 30
0.0
  0
LWPOLYLINE
  5
153
100
AcDbEntity
  8
0
 62
7
100
AcDbPolyline
 90
2
 70
0
 10
79.081290
 20
1045.787017
 30
0.0
 10
110.610473
 20
1045.787017
 30
0.0
  0
LWPOLYLINE
  5
154
100
AcDbEntity
  8
0
 62
7
100
AcDbPolyline
 90
2
 70
0
 10
26.470481
 20
1075.773067
 30
0.0
 10
36.213528
 20
1045.787017
 30
0.0
  0
LWPOLYLINE
  5
155
100
AcDbEntity
  8
0
 62
7
100
AcDbPolyline
 90
2
 70
0
 10
38.731256
 20
1135.075118
 30
0.0
 10
13.223613
 20
1116.542768
 30
0.0
  0
LWPOLYLINE
  5
156
100
AcDbEntity
  8
0
 62
7
100
AcDbPolyline
 90
2
 70
0
 10
40.710971
 20
1134.761542
 30
0.0
 10
38.731256
 20
1135.075118
 30
0.0
  0
LWPOLYLINE
  5
157
100
AcDbEntity
  8
0
 62
7
100
AcDbPolyline
 90
2
 70
0
 10
47.590803
 20
1139.760067
 30
0.0
 10
47.904355
 20
1141.739767
 30
0.0
  0
LWPOLYLINE
  5
158
100
AcDbEntity
  8
0
 62
7
100
AcDbPolyline
 90
2
 70
0
 10
99.233198
 20
1139.760067
 30
0.0
 10
98.919645
 20
1141.739767
 30
0.0
  0
LWPOLYLINE
  5
159
100
AcDbEntity
  8
0
 62
7
100
AcDbPolyline
 90
2
 70
0
 10
106.113030
 20
1134.761542
 30
0.0
 10
108.092745
 20
1135.075118
 30
0.0
  0
LWPOLYLINE
  5
15a
100
AcDbEntity
  8
0
 62
7
100
AcDbPolyline
 90
2
 70
0
 10
122.071410
 20
1085.646743
 30
0.0
 10
123.857340
 20
1086.556717
 30
0.0
  0
LWPOLYLINE
  5
15b
100
AcDbEntity
  8
0
 62
7
100
AcDbPolyline
 90
2
 70
0
 10
119.443545
 20
1077.558967
 30
0.0
 10
120.353520
 20
1075.773067
 30
0.0
  0
LWPOLYLINE
  5
15c
100
AcDbEntity
  8
0
 62
7
100
AcDbPolyline
 90
2
 70
0
 10
77.663970
 20
1047.204367
 30
0.0
 10
79.081290
 20
1045.787018
 30
0.0
  0
LWPOLYLINE
  5
15d
100
AcDbEntity
  8
0
 62
7
100
AcDbPolyline
 90
2
 70
0
 10
67.742711
 20
1045.787017
 30
0.0
 10
69.160031
 20
1047.204367
 30
0.0
  0
LWPOLYLINE
  5
15e
100
AcDbEntity
  8
0
 62
7
100
AcDbPolyline
 90
2
 70
0
 10
27.380456
 20
1077.558967
 30
0.0
 10
26.470481
 20
1075.773067
 30
0.0
  0
LWPOLYLINE
  5
15f
100
AcDbEntity
  8
0
 62
7
100
AcDbPolyline
 90
2
 70
0
 10
24.752590
 20
1085.646743
 30
0.0
 10
22.966660
 20
1086.556717
 30
0.0
  0
LWPOLYLINE
  5
160
100
AcDbEntity
  8
0
 62
7
100
AcDbPolyline
 90
2
 70
0
 10
39.512043
 20
961.214985
 30
0.0
 10
36.884178
 20
969.302685
 30
0.0
  0
LWPOLYLINE
  5
161
100
AcDbEntity
  8
0
 62
7
100
AcDbPolyline
 90
2
 70
0
 10
110.610472
 20
925.501185
 30
0.0
 10
120.353520
 20
955.487235
 30
0.0
  0
LWPOLYLINE
  5
162
100
AcDbEntity
  8
0
 62
7
100
AcDbPolyline
 90
2
 70
0
 10
133.600388
 20
996.256935
 30
0.0
 10
108.092745
 20
1014.789285
 30
0.0
  0
LWPOLYLINE
  5
163
100
AcDbEntity
  8
0
 62
7
100
AcDbPolyline
 90
2
 70
0
 10
73.411998
 20
1039.986330
 30
0.0
 10
47.904356
 20
1021.453935
 30
0.0
  0
LWPOLYLINE
  5
164
100
AcDbEntity
  8
0
 62
7
100
AcDbPolyline
 90
2
 70
0
 10
13.223613
 20
996.256935
 30
0.0
 10
22.966660
 20
966.270885
 30
0.0
  0
LWPOLYLINE
  5
165
100
AcDbEntity
  8
0
 62
7
100
AcDbPolyline
 90
2
 70
0
 10
36.213528
 20
925.501185
 30
0.0
 10
67.742710
 20
925.501185
 30
0.0
  0
LWPOLYLINE
  5
166
100
AcDbEntity
  8
0
 62
7
100
AcDbPolyline
 90
2
 70
0
 10
77.663970
 20
939.674460
 30
0.0
 10
69.160031
 20
939.674460
 30
0.0
  0
LWPOLYLINE
  5
167
100
AcDbEntity
  8
0
 62
7
100
AcDbPolyline
 90
2
 70
0
 10
77.663970
 20
939.674460
 30
0.0
 10
77.663970
 20
926.918535
 30
0.0
  0
LWPOLYLINE
  5
168
100
AcDbEntity
  8
0
 62
7
100
AcDbPolyline
 90
2
 70
0
 10
69.160031
 20
939.674460
 30
0.0
 10
69.160031
 20
926.918535
 30
0.0
  0
LWPOLYLINE
  5
169
100
AcDbEntity
  8
0
 62
7
100
AcDbPolyline
 90
2
 70
0
 10
36.884178
 20
969.302685
 30
0.0
 10
24.752591
 20
965.360910
 30
0.0
  0
LWPOLYLINE
  5
16a
100
AcDbEntity
  8
0
 62
7
100
AcDbPolyline
 90
2
 70
0
 10
39.512043
 20
961.214985
 30
0.0
 10
27.380455
 20
957.273135
 30
0.0
  0
LWPOLYLINE
  5
16b
100
AcDbEntity
  8
0
 62
7
100
AcDbPolyline
 90
3
 70
0
 10
48.208705
 20
1004.156010
 30
0.0
 10
55.088538
 20
1009.154460
 30
0.0
 10
47.590803
 20
1019.474235
 30
0.0
  0
LWPOLYLINE
  5
16c
100
AcDbEntity
  8
0
 62
7
100
AcDbPolyline
 90
2
 70
0
 10
48.208705
 20
1004.156010
 30
0.0
 10
40.710970
 20
1014.475710
 30
0.0
  0
LWPOLYLINE
  5
16d
100
AcDbEntity
  8
0
 62
7
100
AcDbPolyline
 90
3
 70
0
 10
91.735463
 20
1009.154460
 30
0.0
 10
98.615295
 20
1004.156010
 30
0.0
 10
106.113030
 20
1014.475710
 30
0.0
  0
LWPOLYLINE
  5
16e
100
AcDbEntity
  8
0
 62
7
100
AcDbPolyline
 90
2
 70
0
 10
91.735463
 20
1009.154460
 30
0.0
 10
99.233198
 20
1019.474235
 30
0.0
  0
LWPOLYLINE
  5
16f
100
AcDbEntity
  8
0
 62
7
100
AcDbPolyline
 90
3
 70
0
 10
109.939823
 20
969.302685
 30
0.0
 10
107.311958
 20
961.214985
 30
0.0
 10
119.443545
 20
957.273135
 30
0.0
  0
LWPOLYLINE
  5
170
100
AcDbEntity
  8
0
 62
7
100
AcDbPolyline
 90
2
 70
0
 10
109.939823
 20
969.302685
 30
0.0
 10
122.071410
 20
965.360910
 30
0.0
  0
LWPOLYLINE
  5
171
100
AcDbEntity
  8
0
 62
7
100
AcDbPolyline
 90
2
 70
0
 10
98.919645
 20
1021.453935
 30
0.0
 10
73.411998
 20
1039.986330
 30
0.0
  0
LWPOLYLINE
  5
172
100
AcDbEntity
  8
0
 62
7
100
AcDbPolyline
 90
2
 70
0
 10
123.857340
 20
966.270885
 30
0.0
 10
133.600388
 20
996.256935
 30
0.0
  0
LWPOLYLINE
  5
173
100
AcDbEntity
  8
0
 62
7
100
AcDbPolyline
 90
2
 70
0
 10
79.081290
 20
925.501185
 30
0.0
 10
110.610473
 20
925.501185
 30
0.0
  0
LWPOLYLINE
  5
174
100
AcDbEntity
  8
0
 62
7
100
AcDbPolyline
 90
2
 70
0
 10
26.470481
 20
955.487235
 30
0.0
 10
36.213528
 20
925.501185
 30
0.0
  0
LWPOLYLINE
  5
175
100
AcDbEntity
  8
0
 62
7
100
AcDbPolyline
 90
2
 70
0
 10
38.731256
 20
1014.789285
 30
0.0
 10
13.223613
 20
996.256935
 30
0.0
  0
LWPOLYLINE
  5
176
100
AcDbEntity
  8
0
 62
7
100
AcDbPolyline
 90
2
 70
0
 10
40.710971
 20
1014.475710
 30
0.0
 10
38.731256
 20
1014.789285
 30
0.0
  0
LWPOLYLINE
  5
177
100
AcDbEntity
  8
0
 62
7
100
AcDbPolyline
 90
2
 70
0
 10
47.590803
 20
1019.474235
 30
0.0
 10
47.904355
 20
1021.453935
 30
0.0
  0
LWPOLYLINE
  5
178
100
AcDbEntity
  8
0
 62
7
100
AcDbPolyline
 90
2
 70
0
 10
99.233198
 20
1019.474235
 30
0.0
 10
98.919645
 20
1021.453935
 30
0.0
  0
LWPOLYLINE
  5
179
100
AcDbEntity
  8
0
 62
7
100
AcDbPolyline
 90
2
 70
0
 10
106.113030
 20
1014.475710
 30
0.0
 10
108.092745
 20
1014.789285
 30
0.0
  0
LWPOLYLINE
  5
17a
100
AcDbEntity
  8
0
 62
7
100
AcDbPolyline
 90
2
 70
0
 10
122.071410
 20
965.360910
 30
0.0
 10
123.857340
 20
966.270885
 30
0.0
  0
LWPOLYLINE
  5
17b
100
AcDbEntity
  8
0
 62
7
100
AcDbPolyline
 90
2
 70
0
 10
119.443545
 20
957.273135
 30
0.0
 10
120.353520
 20
955.487235
 30
0.0
  0
LWPOLYLINE
  5
17c
100
AcDbEntity
  8
0
 62
7
100
AcDbPolyline
 90
2
 70
0
 10
77.663970
 20
926.918535
 30
0.0
 10
79.081290
 20
925.501185
 30
0.0
  0
LWPOLYLINE
  5
17d
100
AcDbEntity
  8
0
 62
7
100
AcDbPolyline
 90
2
 70
0
 10
67.742711
 20
925.501185
 30
0.0
 10
69.160031
 20
926.918535
 30
0.0
  0
LWPOLYLINE
  5
17e
100
AcDbEntity
  8
0
 62
7
100
AcDbPolyline
 90
2
 70
0
 10
27.380456
 20
957.273135
 30
0.0
 10
26.470481
 20
955.487235
 30
0.0
  0
LWPOLYLINE
  5
17f
100
AcDbEntity
  8
0
 62
7
100
AcDbPolyline
 90
2
 70
0
 10
24.752590
 20
965.360910
 30
0.0
 10
22.966660
 20
966.270885
 30
0.0
  0
LWPOLYLINE
  5
180
100
AcDbEntity
  8
0
 62
7
100
AcDbPolyline
 90
2
 70
0
 10
165.984130
 20
1201.786650
 30
0.0
 10
163.356266
 20
1209.874350
 30
0.0
  0
LWPOLYLINE
  5
181
100
AcDbEntity
  8
0
 62
7
100
AcDbPolyline
 90
2
 70
0
 10
237.082560
 20
1166.072850
 30
0.0
 10
246.825607
 20
1196.058900
 30
0.0
  0
LWPOLYLINE
  5
182
100
AcDbEntity
  8
0
 62
7
100
AcDbPolyline
 90
2
 70
0
 10
260.072475
 20
1236.828600
 30
0.0
 10
234.564832
 20
1255.360950
 30
0.0
  0
LWPOLYLINE
  5
183
100
AcDbEntity
  8
0
 62
7
100
AcDbPolyline
 90
2
 70
0
 10
199.884085
 20
1280.557995
 30
0.0
 10
174.376443
 20
1262.025600
 30
0.0
  0
LWPOLYLINE
  5
184
100
AcDbEntity
  8
0
 62
7
100
AcDbPolyline
 90
2
 70
0
 10
139.695700
 20
1236.828600
 30
0.0
 10
149.438748
 20
1206.842550
 30
0.0
  0
LWPOLYLINE
  5
185
100
AcDbEntity
  8
0
 62
7
100
AcDbPolyline
 90
2
 70
0
 10
162.685615
 20
1166.072850
 30
0.0
 10
194.214798
 20
1166.072850
 30
0.0
  0
LWPOLYLINE
  5
186
100
AcDbEntity
  8
0
 62
7
100
AcDbPolyline
 90
2
 70
0
 10
204.136057
 20
1180.246125
 30
0.0
 10
195.632118
 20
1180.246125
 30
0.0
  0
LWPOLYLINE
  5
187
100
AcDbEntity
  8
0
 62
7
100
AcDbPolyline
 90
2
 70
0
 10
204.136057
 20
1180.246125
 30
0.0
 10
204.136057
 20
1167.490200
 30
0.0
  0
LWPOLYLINE
  5
188
100
AcDbEntity
  8
0
 62
7
100
AcDbPolyline
 90
2
 70
0
 10
195.632118
 20
1180.246125
 30
0.0
 10
195.632118
 20
1167.490200
 30
0.0
  0
LWPOLYLINE
  5
189
100
AcDbEntity
  8
0
 62
7
100
AcDbPolyline
 90
2
 70
0
 10
163.356266
 20
1209.874350
 30
0.0
 10
151.224678
 20
1205.932575
 30
0.0
  0
LWPOLYLINE
  5
18a
100
AcDbEntity
  8
0
 62
7
100
AcDbPolyline
 90
2
 70
0
 10
165.984130
 20
1201.786650
 30
0.0
 10
153.852543
 20
1197.844800
 30
0.0
  0
LWPOLYLINE
  5
18b
100
AcDbEntity
  8
0
 62
7
100
AcDbPolyline
 90
3
 70
0
 10
174.680793
 20
1244.727675
 30
0.0
 10
181.560625
 20
1249.726125
 30
0.0
 10
174.062890
 20
1260.045900
 30
0.0
  0
LWPOLYLINE
  5
18c
100
AcDbEntity
  8
0
 62
7
100
AcDbPolyline
 90
2
 70
0
 10
174.680793
 20
1244.727675
 30
0.0
 10
167.183058
 20
1255.047375
 30
0.0
  0
LWPOLYLINE
  5
18d
100
AcDbEntity
  8
0
 62
7
100
AcDbPolyline
 90
3
 70
0
 10
218.207550
 20
1249.726125
 30
0.0
 10
225.087382
 20
1244.727675
 30
0.0
 10
232.585117
 20
1255.047375
 30
0.0
  0
LWPOLYLINE
  5
18e
100
AcDbEntity
  8
0
 62
7
100
AcDbPolyline
 90
2
 70
0
 10
218.207550
 20
1249.726125
 30
0.0
 10
225.705285
 20
1260.045900
 30
0.0
  0
LWPOLYLINE
  5
18f
100
AcDbEntity
  8
0
 62
7
100
AcDbPolyline
 90
3
 70
0
 10
236.411910
 20
1209.874350
 30
0.0
 10
233.784045
 20
1201.786650
 30
0.0
 10
245.915632
 20
1197.844800
 30
0.0
  0
LWPOLYLINE
  5
190
100
AcDbEntity
  8
0
 62
7
100
AcDbPolyline
 90
2
 70
0
 10
236.411910
 20
1209.874350
 30
0.0
 10
248.543498
 20
1205.932575
 30
0.0
  0
LWPOLYLINE
  5
191
100
AcDbEntity
  8
0
 62
7
100
AcDbPolyline
 90
2
 70
0
 10
225.391732
 20
1262.025600
 30
0.0
 10
199.884085
 20
1280.557995
 30
0.0
  0
LWPOLYLINE
  5
192
100
AcDbEntity
  8
0
 62
7
100
AcDbPolyline
 90
2
 70
0
 10
250.329428
 20
1206.842550
 30
0.0
 10
260.072475
 20
1236.828600
 30
0.0
  0
LWPOLYLINE
  5
193
100
AcDbEntity
  8
0
 62
7
100
AcDbPolyline
 90
2
 70
0
 10
205.553377
 20
1166.072850
 30
0.0
 10
237.082560
 20
1166.072850
 30
0.0
  0
LWPOLYLINE
  5
194
100
AcDbEntity
  8
0
 62
7
100
AcDbPolyline
 90
2
 70
0
 10
152.942568
 20
1196.058900
 30
0.0
 10
162.685615
 20
1166.072850
 30
0.0
  0
LWPOLYLINE
  5
195
100
AcDbEntity
  8
0
 62
7
100
AcDbPolyline
 90
2
 70
0
 10
165.203343
 20
1255.360950
 30
0.0
 10
139.695700
 20
1236.828600
 30
0.0
  0
LWPOLYLINE
  5
196
100
AcDbEntity
  8
0
 62
7
100
AcDbPolyline
 90
2
 70
0
 10
167.183058
 20
1255.047375
 30
0.0
 10
165.203343
 20
1255.360950
 30
0.0
  0
LWPOLYLINE
  5
197
100
AcDbEntity
  8
0
 62
7
100
AcDbPolyline
 90
2
 70
0
 10
174.062890
 20
1260.045900
 30
0.0
 10
174.376443
 20
1262.025600
 30
0.0
  0
LWPOLYLINE
  5
198
100
AcDbEntity
  8
0
 62
7
100
AcDbPolyline
 90
2
 70
0
 10
225.705285
 20
1260.045900
 30
0.0
 10
225.391732
 20
1262.025600
 30
0.0
  0
LWPOLYLINE
  5
199
100
AcDbEntity
  8
0
 62
7
100
AcDbPolyline
 90
2
 70
0
 10
232.585117
 20
1255.047375
 30
0.0
 10
234.564832
 20
1255.360950
 30
0.0
  0
LWPOLYLINE
  5
19a
100
AcDbEntity
  8
0
 62
7
100
AcDbPolyline
 90
2
 70
0
 10
248.543497
 20
1205.932575
 30
0.0
 10
250.329427
 20
1206.842550
 30
0.0
  0
LWPOLYLINE
  5
19b
100
AcDbEntity
  8
0
 62
7
100
AcDbPolyline
 90
2
 70
0
 10
245.915632
 20
1197.844800
 30
0.0
 10
246.825607
 20
1196.058900
 30
0.0
  0
LWPOLYLINE
  5
19c
100
AcDbEntity
  8
0
 62
7
100
AcDbPolyline
 90
2
 70
0
 10
204.136057
 20
1167.490200
 30
0.0
 10
205.553377
 20
1166.072850
 30
0.0
  0
LWPOLYLINE
  5
19d
100
AcDbEntity
  8
0
 62
7
100
AcDbPolyline
 90
2
 70
0
 10
194.214798
 20
1166.072850
 30
0.0
 10
195.632118
 20
1167.490200
 30
0.0
  0
LWPOLYLINE
  5
19e
100
AcDbEntity
  8
0
 62
7
100
AcDbPolyline
 90
2
 70
0
 10
153.852543
 20
1197.844800
 30
0.0
 10
152.942568
 20
1196.058900
 30
0.0
  0
LWPOLYLINE
  5
19f
100
AcDbEntity
  8
0
 62
7
100
AcDbPolyline
 90
2
 70
0
 10
151.224678
 20
1205.932575
 30
0.0
 10
149.438748
 20
1206.842550
 30
0.0
  0
LWPOLYLINE
  5
1a0
100
AcDbEntity
  8
0
 62
7
100
AcDbPolyline
 90
2
 70
0
 10
165.984130
 20
1081.500817
 30
0.0
 10
163.356266
 20
1089.588517
 30
0.0
  0
LWPOLYLINE
  5
1a1
100
AcDbEntity
  8
0
 62
7
100
AcDbPolyline
 90
2
 70
0
 10
237.082560
 20
1045.787017
 30
0.0
 10
246.825607
 20
1075.773067
 30
0.0
  0
LWPOLYLINE
  5
1a2
100
AcDbEntity
  8
0
 62
7
100
AcDbPolyline
 90
2
 70
0
 10
260.072475
 20
1116.542768
 30
0.0
 10
234.564832
 20
1135.075118
 30
0.0
  0
LWPOLYLINE
  5
1a3
100
AcDbEntity
  8
0
 62
7
100
AcDbPolyline
 90
2
 70
0
 10
199.884085
 20
1160.272162
 30
0.0
 10
174.376443
 20
1141.739767
 30
0.0
  0
LWPOLYLINE
  5
1a4
100
AcDbEntity
  8
0
 62
7
100
AcDbPolyline
 90
2
 70
0
 10
139.695700
 20
1116.542768
 30
0.0
 10
149.438748
 20
1086.556717
 30
0.0
  0
LWPOLYLINE
  5
1a5
100
AcDbEntity
  8
0
 62
7
100
AcDbPolyline
 90
2
 70
0
 10
162.685615
 20
1045.787017
 30
0.0
 10
194.214798
 20
1045.787017
 30
0.0
  0
LWPOLYLINE
  5
1a6
100
AcDbEntity
  8
0
 62
7
100
AcDbPolyline
 90
2
 70
0
 10
204.136057
 20
1059.960292
 30
0.0
 10
195.632118
 20
1059.960292
 30
0.0
  0
LWPOLYLINE
  5
1a7
100
AcDbEntity
  8
0
 62
7
100
AcDbPolyline
 90
2
 70
0
 10
204.136057
 20
1059.960292
 30
0.0
 10
204.136057
 20
1047.204367
 30
0.0
  0
LWPOLYLINE
  5
1a8
100
AcDbEntity
  8
0
 62
7
100
AcDbPolyline
 90
2
 70
0
 10
195.632118
 20
1059.960292
 30
0.0
 10
195.632118
 20
1047.204367
 30
0.0
  0
LWPOLYLINE
  5
1a9
100
AcDbEntity
  8
0
 62
7
100
AcDbPolyline
 90
2
 70
0
 10
163.356266
 20
1089.588517
 30
0.0
 10
151.224678
 20
1085.646743
 30
0.0
  0
LWPOLYLINE
  5
1aa
100
AcDbEntity
  8
0
 62
7
100
AcDbPolyline
 90
2
 70
0
 10
165.984130
 20
1081.500817
 30
0.0
 10
153.852543
 20
1077.558967
 30
0.0
  0
LWPOLYLINE
  5
1ab
100
AcDbEntity
  8
0
 62
7
100
AcDbPolyline
 90
3
 70
0
 10
174.680793
 20
1124.441842
 30
0.0
 10
181.560625
 20
1129.440292
 30
0.0
 10
174.062890
 20
1139.760067
 30
0.0
  0
LWPOLYLINE
  5
1ac
100
AcDbEntity
  8
0
 62
7
100
AcDbPolyline
 90
2
 70
0
 10
174.680793
 20
1124.441842
 30
0.0
 10
167.183058
 20
1134.761542
 30
0.0
  0
LWPOLYLINE
  5
1ad
100
AcDbEntity
  8
0
 62
7
100
AcDbPolyline
 90
3
 70
0
 10
218.207550
 20
1129.440292
 30
0.0
 10
225.087382
 20
1124.441842
 30
0.0
 10
232.585117
 20
1134.761542
 30
0.0
  0
LWPOLYLINE
  5
1ae
100
AcDbEntity
  8
0
 62
7
100
AcDbPolyline
 90
2
 70
0
 10
218.207550
 20
1129.440292
 30
0.0
 10
225.705285
 20
1139.760067
 30
0.0
  0
LWPOLYLINE
  5
1af
100
AcDbEntity
  8
0
 62
7
100
AcDbPolyline
 90
3
 70
0
 10
236.411910
 20
1089.588517
 30
0.0
 10
233.784045
 20
1081.500817
 30
0.0
 10
245.915632
 20
1077.558967
 30
0.0
  0
LWPOLYLINE
  5
1b0
100
AcDbEntity
  8
0
 62
7
100
AcDbPolyline
 90
2
 70
0
 10
236.411910
 20
1089.588517
 30
0.0
 10
248.543498
 20
1085.646743
 30
0.0
  0
LWPOLYLINE
  5
1b1
100
AcDbEntity
  8
0
 62
7
100
AcDbPolyline
 90
2
 70
0
 10
225.391732
 20
1141.739767
 30
0.0
 10
199.884085
 20
1160.272162
 30
0.0
  0
LWPOLYLINE
  5
1b2
100
AcDbEntity
  8
0
 62
7
100
AcDbPolyline
 90
2
 70
0
 10
250.329428
 20
1086.556717
 30
0.0
 10
260.072475
 20
1116.542768
 30
0.0
  0
LWPOLYLINE
  5
1b3
100
AcDbEntity
  8
0
 62
7
100
AcDbPolyline
 90
2
 70
0
 10
205.553377
 20
1045.787017
 30
0.0
 10
237.082560
 20
1045.787017
 30
0.0
  0
LWPOLYLINE
  5
1b4
100
AcDbEntity
  8
0
 62
7
100
AcDbPolyline
 90
2
 70
0
 10
152.942568
 20
1075.773067
 30
0.0
 10
162.685615
 20
1045.787017
 30
0.0
  0
LWPOLYLINE
  5
1b5
100
AcDbEntity
  8
0
 62
7
100
AcDbPolyline
 90
2
 70
0
 10
165.203343
 20
1135.075118
 30
0.0
 10
139.695700
 20
1116.542768
 30
0.0
  0
LWPOLYLINE
  5
1b6
100
AcDbEntity
  8
0
 62
7
100
AcDbPolyline
 90
2
 70
0
 10
167.183058
 20
1134.761542
 30
0.0
 10
165.203343
 20
1135.075118
 30
0.0
  0
LWPOLYLINE
  5
1b7
100
AcDbEntity
  8
0
 62
7
100
AcDbPolyline
 90
2
 70
0
 10
174.062890
 20
1139.760067
 30
0.0
 10
174.376443
 20
1141.739767
 30
0.0
  0
LWPOLYLINE
  5
1b8
100
AcDbEntity
  8
0
 62
7
100
AcDbPolyline
 90
2
 70
0
 10
225.705285
 20
1139.760067
 30
0.0
 10
225.391732
 20
1141.739767
 30
0.0
  0
LWPOLYLINE
  5
1b9
100
AcDbEntity
  8
0
 62
7
100
AcDbPolyline
 90
2
 70
0
 10
232.585117
 20
1134.761542
 30
0.0
 10
234.564832
 20
1135.075118
 30
0.0
  0
LWPOLYLINE
  5
1ba
100
AcDbEntity
  8
0
 62
7
100
AcDbPolyline
 90
2
 70
0
 10
248.543497
 20
1085.646743
 30
0.0
 10
250.329427
 20
1086.556717
 30
0.0
  0
LWPOLYLINE
  5
1bb
100
AcDbEntity
  8
0
 62
7
100
AcDbPolyline
 90
2
 70
0
 10
245.915632
 20
1077.558967
 30
0.0
 10
246.825607
 20
1075.773067
 30
0.0
  0
LWPOLYLINE
  5
1bc
100
AcDbEntity
  8
0
 62
7
100
AcDbPolyline
 90
2
 70
0
 10
204.136057
 20
1047.204367
 30
0.0
 10
205.553377
 20
1045.787018
 30
0.0
  0
LWPOLYLINE
  5
1bd
100
AcDbEntity
  8
0
 62
7
100
AcDbPolyline
 90
2
 70
0
 10
194.214798
 20
1045.787017
 30
0.0
 10
195.632118
 20
1047.204367
 30
0.0
  0
LWPOLYLINE
  5
1be
100
AcDbEntity
  8
0
 62
7
100
AcDbPolyline
 90
2
 70
0
 10
153.852543
 20
1077.558967
 30
0.0
 10
152.942568
 20
1075.773067
 30
0.0
  0
LWPOLYLINE
  5
1bf
100
AcDbEntity
  8
0
 62
7
100
AcDbPolyline
 90
2
 70
0
 10
151.224678
 20
1085.646743
 30
0.0
 10
149.438748
 20
1086.556717
 30
0.0
  0
LWPOLYLINE
  5
1c0
100
AcDbEntity
  8
0
 62
7
100
AcDbPolyline
 90
2
 70
0
 10
165.984130
 20
961.214985
 30
0.0
 10
163.356266
 20
969.302685
 30
0.0
  0
LWPOLYLINE
  5
1c1
100
AcDbEntity
  8
0
 62
7
100
AcDbPolyline
 90
2
 70
0
 10
237.082560
 20
925.501185
 30
0.0
 10
246.825607
 20
955.487235
 30
0.0
  0
LWPOLYLINE
  5
1c2
100
AcDbEntity
  8
0
 62
7
100
AcDbPolyline
 90
2
 70
0
 10
260.072475
 20
996.256935
 30
0.0
 10
234.564832
 20
1014.789285
 30
0.0
  0
LWPOLYLINE
  5
1c3
100
AcDbEntity
  8
0
 62
7
100
AcDbPolyline
 90
2
 70
0
 10
199.884085
 20
1039.986330
 30
0.0
 10
174.376443
 20
1021.453935
 30
0.0
  0
LWPOLYLINE
  5
1c4
100
AcDbEntity
  8
0
 62
7
100
AcDbPolyline
 90
2
 70
0
 10
139.695700
 20
996.256935
 30
0.0
 10
149.438748
 20
966.270885
 30
0.0
  0
LWPOLYLINE
  5
1c5
100
AcDbEntity
  8
0
 62
7
100
AcDbPolyline
 90
2
 70
0
 10
162.685615
 20
925.501185
 30
0.0
 10
194.214798
 20
925.501185
 30
0.0
  0
LWPOLYLINE
  5
1c6
100
AcDbEntity
  8
0
 62
7
100
AcDbPolyline
 90
2
 70
0
 10
204.136057
 20
939.674460
 30
0.0
 10
195.632118
 20
939.674460
 30
0.0
  0
LWPOLYLINE
  5
1c7
100
AcDbEntity
  8
0
 62
7
100
AcDbPolyline
 90
2
 70
0
 10
204.136057
 20
939.674460
 30
0.0
 10
204.136057
 20
926.918535
 30
0.0
  0
LWPOLYLINE
  5
1c8
100
AcDbEntity
  8
0
 62
7
100
AcDbPolyline
 90
2
 70
0
 10
195.632118
 20
939.674460
 30
0.0
 10
195.632118
 20
926.918535
 30
0.0
  0
LWPOLYLINE
  5
1c9
100
AcDbEntity
  8
0
 62
7
100
AcDbPolyline
 90
2
 70
0
 10
163.356266
 20
969.302685
 30
0.0
 10
151.224678
 20
965.360910
 30
0.0
  0
LWPOLYLINE
  5
1ca
100
AcDbEntity
  8
0
 62
7
100
AcDbPolyline
 90
2
 70
0
 10
165.984130
 20
961.214985
 30
0.0
 10
153.852543
 20
957.273135
 30
0.0
  0
LWPOLYLINE
  5
1cb
100
AcDbEntity
  8
0
 62
7
100
AcDbPolyline
 90
3
 70
0
 10
174.680793
 20
1004.156010
 30
0.0
 10
181.560625
 20
1009.154460
 30
0.0
 10
174.062890
 20
1019.474235
 30
0.0
  0
LWPOLYLINE
  5
1cc
100
AcDbEntity
  8
0
 62
7
100
AcDbPolyline
 90
2
 70
0
 10
174.680793
 20
1004.156010
 30
0.0
 10
167.183058
 20
1014.475710
 30
0.0
  0
LWPOLYLINE
  5
1cd
100
AcDbEntity
  8
0
 62
7
100
AcDbPolyline
 90
3
 70
0
 10
218.207550
 20
1009.154460
 30
0.0
 10
225.087382
 20
1004.156010
 30
0.0
 10
232.585117
 20
1014.475710
 30
0.0
  0
LWPOLYLINE
  5
1ce
100
AcDbEntity
  8
0
 62
7
100
AcDbPolyline
 90
2
 70
0
 10
218.207550
 20
1009.154460
 30
0.0
 10
225.705285
 20
1019.474235
 30
0.0
  0
LWPOLYLINE
  5
1cf
100
AcDbEntity
  8
0
 62
7
100
AcDbPolyline
 90
3
 70
0
 10
236.411910
 20
969.302685
 30
0.0
 10
233.784045
 20
961.214985
 30
0.0
 10
245.915632
 20
957.273135
 30
0.0
  0
LWPOLYLINE
  5
1d0
100
AcDbEntity
  8
0
 62
7
100
AcDbPolyline
 90
2
 70
0
 10
236.411910
 20
969.302685
 30
0.0
 10
248.543498
 20
965.360910
 30
0.0
  0
LWPOLYLINE
  5
1d1
100
AcDbEntity
  8
0
 62
7
100
AcDbPolyline
 90
2
 70
0
 10
225.391732
 20
1021.453935
 30
0.0
 10
199.884085
 20
1039.986330
 30
0.0
  0
LWPOLYLINE
  5
1d2
100
AcDbEntity
  8
0
 62
7
100
AcDbPolyline
 90
2
 70
0
 10
250.329428
 20
966.270885
 30
0.0
 10
260.072475
 20
996.256935
 30
0.0
  0
LWPOLYLINE
  5
1d3
100
AcDbEntity
  8
0
 62
7
100
AcDbPolyline
 90
2
 70
0
 10
205.553377
 20
925.501185
 30
0.0
 10
237.082560
 20
925.501185
 30
0.0
  0
LWPOLYLINE
  5
1d4
100
AcDbEntity
  8
0
 62
7
100
AcDbPolyline
 90
2
 70
0
 10
152.942568
 20
955.487235
 30
0.0
 10
162.685615
 20
925.501185
 30
0.0
  0
LWPOLYLINE
  5
1d5
100
AcDbEntity
  8
0
 62
7
100
AcDbPolyline
 90
2
 70
0
 10
165.203343
 20
1014.789285
 30
0.0
 10
139.695700
 20
996.256935
 30
0.0
  0
LWPOLYLINE
  5
1d6
100
AcDbEntity
  8
0
 62
7
100
AcDbPolyline
 90
2
 70
0
 10
167.183058
 20
1014.475710
 30
0.0
 10
165.203343
 20
1014.789285
 30
0.0
  0
LWPOLYLINE
  5
1d7
100
AcDbEntity
  8
0
 62
7
100
AcDbPolyline
 90
2
 70
0
 10
174.062890
 20
1019.474235
 30
0.0
 10
174.376443
 20
1021.453935
 30
0.0
  0
LWPOLYLINE
  5
1d8
100
AcDbEntity
  8
0
 62
7
100
AcDbPolyline
 90
2
 70
0
 10
225.705285
 20
1019.474235
 30
0.0
 10
225.391732
 20
1021.453935
 30
0.0
  0
LWPOLYLINE
  5
1d9
100
AcDbEntity
  8
0
 62
7
100
AcDbPolyline
 90
2
 70
0
 10
232.585117
 20
1014.475710
 30
0.0
 10
234.564832
 20
1014.789285
 30
0.0
  0
LWPOLYLINE
  5
1da
100
AcDbEntity
  8
0
 62
7
100
AcDbPolyline
 90
2
 70
0
 10
248.543497
 20
965.360910
 30
0.0
 10
250.329427
 20
966.270885
 30
0.0
  0
LWPOLYLINE
  5
1db
100
AcDbEntity
  8
0
 62
7
100
AcDbPolyline
 90
2
 70
0
 10
245.915632
 20
957.273135
 30
0.0
 10
246.825607
 20
955.487235
 30
0.0
  0
LWPOLYLINE
  5
1dc
100
AcDbEntity
  8
0
 62
7
100
AcDbPolyline
 90
2
 70
0
 10
204.136057
 20
926.918535
 30
0.0
 10
205.553377
 20
925.501185
 30
0.0
  0
LWPOLYLINE
  5
1dd
100
AcDbEntity
  8
0
 62
7
100
AcDbPolyline
 90
2
 70
0
 10
194.214798
 20
925.501185
 30
0.0
 10
195.632118
 20
926.918535
 30
0.0
  0
LWPOLYLINE
  5
1de
100
AcDbEntity
  8
0
 62
7
100
AcDbPolyline
 90
2
 70
0
 10
153.852543
 20
957.273135
 30
0.0
 10
152.942568
 20
955.487235
 30
0.0
  0
LWPOLYLINE
  5
1df
100
AcDbEntity
  8
0
 62
7
100
AcDbPolyline
 90
2
 70
0
 10
151.224678
 20
965.360910
 30
0.0
 10
149.438748
 20
966.270885
 30
0.0
  0
LWPOLYLINE
  5
1e0
100
AcDbEntity
  8
0
 62
7
100
AcDbPolyline
 90
2
 70
0
 10
292.456218
 20
1201.786650
 30
0.0
 10
289.828353
 20
1209.874350
 30
0.0
  0
LWPOLYLINE
  5
1e1
100
AcDbEntity
  8
0
 62
7
100
AcDbPolyline
 90
2
 70
0
 10
363.554647
 20
1166.072850
 30
0.0
 10
373.297695
 20
1196.058900
 30
0.0
  0
LWPOLYLINE
  5
1e2
100
AcDbEntity
  8
0
 62
7
100
AcDbPolyline
 90
2
 70
0
 10
386.544562
 20
1236.828600
 30
0.0
 10
361.036920
 20
1255.360950
 30
0.0
  0
LWPOLYLINE
  5
1e3
100
AcDbEntity
  8
0
 62
7
100
AcDbPolyline
 90
2
 70
0
 10
326.356173
 20
1280.557995
 30
0.0
 10
300.848530
 20
1262.025600
 30
0.0
  0
LWPOLYLINE
  5
1e4
100
AcDbEntity
  8
0
 62
7
100
AcDbPolyline
 90
2
 70
0
 10
266.167788
 20
1236.828600
 30
0.0
 10
275.910835
 20
1206.842550
 30
0.0
  0
LWPOLYLINE
  5
1e5
100
AcDbEntity
  8
0
 62
7
100
AcDbPolyline
 90
2
 70
0
 10
289.157703
 20
1166.072850
 30
0.0
 10
320.686885
 20
1166.072850
 30
0.0
  0
LWPOLYLINE
  5
1e6
100
AcDbEntity
  8
0
 62
7
100
AcDbPolyline
 90
2
 70
0
 10
330.608145
 20
1180.246125
 30
0.0
 10
322.104205
 20
1180.246125
 30
0.0
  0
LWPOLYLINE
  5
1e7
100
AcDbEntity
  8
0
 62
7
100
AcDbPolyline
 90
2
 70
0
 10
330.608145
 20
1180.246125
 30
0.0
 10
330.608145
 20
1167.490200
 30
0.0
  0
LWPOLYLINE
  5
1e8
100
AcDbEntity
  8
0
 62
7
100
AcDbPolyline
 90
2
 70
0
 10
322.104205
 20
1180.246125
 30
0.0
 10
322.104205
 20
1167.490200
 30
0.0
  0
LWPOLYLINE
  5
1e9
100
AcDbEntity
  8
0
 62
7
100
AcDbPolyline
 90
2
 70
0
 10
289.828353
 20
1209.874350
 30
0.0
 10
277.696765
 20
1205.932575
 30
0.0
  0
LWPOLYLINE
  5
1ea
100
AcDbEntity
  8
0
 62
7
100
AcDbPolyline
 90
2
 70
0
 10
292.456218
 20
1201.786650
 30
0.0
 10
280.324630
 20
1197.844800
 30
0.0
  0
LWPOLYLINE
  5
1eb
100
AcDbEntity
  8
0
 62
7
100
AcDbPolyline
 90
3
 70
0
 10
301.152880
 20
1244.727675
 30
0.0
 10
308.032713
 20
1249.726125
 30
0.0
 10
300.534978
 20
1260.045900
 30
0.0
  0
LWPOLYLINE
  5
1ec
100
AcDbEntity
  8
0
 62
7
100
AcDbPolyline
 90
2
 70
0
 10
301.152880
 20
1244.727675
 30
0.0
 10
293.655145
 20
1255.047375
 30
0.0
  0
LWPOLYLINE
  5
1ed
100
AcDbEntity
  8
0
 62
7
100
AcDbPolyline
 90
3
 70
0
 10
344.679638
 20
1249.726125
 30
0.0
 10
351.559470
 20
1244.727675
 30
0.0
 10
359.057205
 20
1255.047375
 30
0.0
  0
LWPOLYLINE
  5
1ee
100
AcDbEntity
  8
0
 62
7
100
AcDbPolyline
 90
2
 70
0
 10
344.679638
 20
1249.726125
 30
0.0
 10
352.177372
 20
1260.045900
 30
0.0
  0
LWPOLYLINE
  5
1ef
100
AcDbEntity
  8
0
 62
7
100
AcDbPolyline
 90
3
 70
0
 10
362.883997
 20
1209.874350
 30
0.0
 10
360.256132
 20
1201.786650
 30
0.0
 10
372.387720
 20
1197.844800
 30
0.0
  0
LWPOLYLINE
  5
1f0
100
AcDbEntity
  8
0
 62
7
100
AcDbPolyline
 90
2
 70
0
 10
362.883997
 20
1209.874350
 30
0.0
 10
375.015585
 20
1205.932575
 30
0.0
  0
LWPOLYLINE
  5
1f1
100
AcDbEntity
  8
0
 62
7
100
AcDbPolyline
 90
2
 70
0
 10
351.863820
 20
1262.025600
 30
0.0
 10
326.356173
 20
1280.557995
 30
0.0
  0
LWPOLYLINE
  5
1f2
100
AcDbEntity
  8
0
 62
7
100
AcDbPolyline
 90
2
 70
0
 10
376.801515
 20
1206.842550
 30
0.0
 10
386.544562
 20
1236.828600
 30
0.0
  0
LWPOLYLINE
  5
1f3
100
AcDbEntity
  8
0
 62
7
100
AcDbPolyline
 90
2
 70
0
 10
332.025465
 20
1166.072850
 30
0.0
 10
363.554647
 20
1166.072850
 30
0.0
  0
LWPOLYLINE
  5
1f4
100
AcDbEntity
  8
0
 62
7
100
AcDbPolyline
 90
2
 70
0
 10
279.414655
 20
1196.058900
 30
0.0
 10
289.157703
 20
1166.072850
 30
0.0
  0
LWPOLYLINE
  5
1f5
100
AcDbEntity
  8
0
 62
7
100
AcDbPolyline
 90
2
 70
0
 10
291.675430
 20
1255.360950
 30
0.0
 10
266.167788
 20
1236.828600
 30
0.0
  0
LWPOLYLINE
  5
1f6
100
AcDbEntity
  8
0
 62
7
100
AcDbPolyline
 90
2
 70
0
 10
293.655146
 20
1255.047375
 30
0.0
 10
291.675430
 20
1255.360950
 30
0.0
  0
LWPOLYLINE
  5
1f7
100
AcDbEntity
  8
0
 62
7
100
AcDbPolyline
 90
2
 70
0
 10
300.534978
 20
1260.045900
 30
0.0
 10
300.848530
 20
1262.025600
 30
0.0
  0
LWPOLYLINE
  5
1f8
100
AcDbEntity
  8
0
 62
7
100
AcDbPolyline
 90
2
 70
0
 10
352.177372
 20
1260.045900
 30
0.0
 10
351.863820
 20
1262.025600
 30
0.0
  0
LWPOLYLINE
  5
1f9
100
AcDbEntity
  8
0
 62
7
100
AcDbPolyline
 90
2
 70
0
 10
359.057205
 20
1255.047375
 30
0.0
 10
361.036920
 20
1255.360950
 30
0.0
  0
LWPOLYLINE
  5
1fa
100
AcDbEntity
  8
0
 62
7
100
AcDbPolyline
 90
2
 70
0
 10
375.015585
 20
1205.932575
 30
0.0
 10
376.801515
 20
1206.842550
 30
0.0
  0
LWPOLYLINE
  5
1fb
100
AcDbEntity
  8
0
 62
7
100
AcDbPolyline
 90
2
 70
0
 10
372.387720
 20
1197.844800
 30
0.0
 10
373.297695
 20
1196.058900
 30
0.0
  0
LWPOLYLINE
  5
1fc
100
AcDbEntity
  8
0
 62
7
100
AcDbPolyline
 90
2
 70
0
 10
330.608145
 20
1167.490200
 30
0.0
 10
332.025465
 20
1166.072850
 30
0.0
  0
LWPOLYLINE
  5
1fd
100
AcDbEntity
  8
0
 62
7
100
AcDbPolyline
 90
2
 70
0
 10
320.686885
 20
1166.072850
 30
0.0
 10
322.104205
 20
1167.490200
 30
0.0
  0
LWPOLYLINE
  5
1fe
100
AcDbEntity
  8
0
 62
7
100
AcDbPolyline
 90
2
 70
0
 10
280.324630
 20
1197.844800
 30
0.0
 10
279.414655
 20
1196.058900
 30
0.0
  0
LWPOLYLINE
  5
1ff
100
AcDbEntity
  8
0
 62
7
100
AcDbPolyline
 90
2
 70
0
 10
277.696765
 20
1205.932575
 30
0.0
 10
275.910835
 20
1206.842550
 30
0.0
  0
LWPOLYLINE
  5
200
100
AcDbEntity
  8
0
 62
7
100
AcDbPolyline
 90
2
 70
0
 10
292.456218
 20
1081.500817
 30
0.0
 10
289.828353
 20
1089.588517
 30
0.0
  0
LWPOLYLINE
  5
201
100
AcDbEntity
  8
0
 62
7
100
AcDbPolyline
 90
2
 70
0
 10
363.554647
 20
1045.787017
 30
0.0
 10
373.297695
 20
1075.773067
 30
0.0
  0
LWPOLYLINE
  5
202
100
AcDbEntity
  8
0
 62
7
100
AcDbPolyline
 90
2
 70
0
 10
386.544562
 20
1116.542768
 30
0.0
 10
361.036920
 20
1135.075118
 30
0.0
  0
LWPOLYLINE
  5
203
100
AcDbEntity
  8
0
 62
7
100
AcDbPolyline
 90
2
 70
0
 10
326.356173
 20
1160.272162
 30
0.0
 10
300.848530
 20
1141.739767
 30
0.0
  0
LWPOLYLINE
  5
204
100
AcDbEntity
  8
0
 62
7
100
AcDbPolyline
 90
2
 70
0
 10
266.167788
 20
1116.542768
 30
0.0
 10
275.910835
 20
1086.556717
 30
0.0
  0
LWPOLYLINE
  5
205
100
AcDbEntity
  8
0
 62
7
100
AcDbPolyline
 90
2
 70
0
 10
289.157703
 20
1045.787017
 30
0.0
 10
320.686885
 20
1045.787017
 30
0.0
  0
LWPOLYLINE
  5
206
100
AcDbEntity
  8
0
 62
7
100
AcDbPolyline
 90
2
 70
0
 10
330.608145
 20
1059.960292
 30
0.0
 10
322.104205
 20
1059.960292
 30
0.0
  0
LWPOLYLINE
  5
207
100
AcDbEntity
  8
0
 62
7
100
AcDbPolyline
 90
2
 70
0
 10
330.608145
 20
1059.960292
 30
0.0
 10
330.608145
 20
1047.204367
 30
0.0
  0
LWPOLYLINE
  5
208
100
AcDbEntity
  8
0
 62
7
100
AcDbPolyline
 90
2
 70
0
 10
322.104205
 20
1059.960292
 30
0.0
 10
322.104205
 20
1047.204367
 30
0.0
  0
LWPOLYLINE
  5
209
100
AcDbEntity
  8
0
 62
7
100
AcDbPolyline
 90
2
 70
0
 10
289.828353
 20
1089.588517
 30
0.0
 10
277.696765
 20
1085.646743
 30
0.0
  0
LWPOLYLINE
  5
20a
100
AcDbEntity
  8
0
 62
7
100
AcDbPolyline
 90
2
 70
0
 10
292.456218
 20
1081.500817
 30
0.0
 10
280.324630
 20
1077.558967
 30
0.0
  0
LWPOLYLINE
  5
20b
100
AcDbEntity
  8
0
 62
7
100
AcDbPolyline
 90
3
 70
0
 10
301.152880
 20
1124.441842
 30
0.0
 10
308.032713
 20
1129.440292
 30
0.0
 10
300.534978
 20
1139.760067
 30
0.0
  0
LWPOLYLINE
  5
20c
100
AcDbEntity
  8
0
 62
7
100
AcDbPolyline
 90
2
 70
0
 10
301.152880
 20
1124.441842
 30
0.0
 10
293.655145
 20
1134.761542
 30
0.0
  0
LWPOLYLINE
  5
20d
100
AcDbEntity
  8
0
 62
7
100
AcDbPolyline
 90
3
 70
0
 10
344.679638
 20
1129.440292
 30
0.0
 10
351.559470
 20
1124.441842
 30
0.0
 10
359.057205
 20
1134.761542
 30
0.0
  0
LWPOLYLINE
  5
20e
100
AcDbEntity
  8
0
 62
7
100
AcDbPolyline
 90
2
 70
0
 10
344.679638
 20
1129.440292
 30
0.0
 10
352.177372
 20
1139.760067
 30
0.0
  0
LWPOLYLINE
  5
20f
100
AcDbEntity
  8
0
 62
7
100
AcDbPolyline
 90
3
 70
0
 10
362.883997
 20
1089.588517
 30
0.0
 10
360.256132
 20
1081.500817
 30
0.0
 10
372.387720
 20
1077.558967
 30
0.0
  0
LWPOLYLINE
  5
210
100
AcDbEntity
  8
0
 62
7
100
AcDbPolyline
 90
2
 70
0
 10
362.883997
 20
1089.588517
 30
0.0
 10
375.015585
 20
1085.646743
 30
0.0
  0
LWPOLYLINE
  5
211
100
AcDbEntity
  8
0
 62
7
100
AcDbPolyline
 90
2
 70
0
 10
351.863820
 20
1141.739767
 30
0.0
 10
326.356173
 20
1160.272162
 30
0.0
  0
LWPOLYLINE
  5
212
100
AcDbEntity
  8
0
 62
7
100
AcDbPolyline
 90
2
 70
0
 10
376.801515
 20
1086.556717
 30
0.0
 10
386.544562
 20
1116.542768
 30
0.0
  0
LWPOLYLINE
  5
213
100
AcDbEntity
  8
0
 62
7
100
AcDbPolyline
 90
2
 70
0
 10
332.025465
 20
1045.787017
 30
0.0
 10
363.554647
 20
1045.787017
 30
0.0
  0
LWPOLYLINE
  5
214
100
AcDbEntity
  8
0
 62
7
100
AcDbPolyline
 90
2
 70
0
 10
279.414655
 20
1075.773067
 30
0.0
 10
289.157703
 20
1045.787017
 30
0.0
  0
LWPOLYLINE
  5
215
100
AcDbEntity
  8
0
 62
7
100
AcDbPolyline
 90
2
 70
0
 10
291.675430
 20
1135.075118
 30
0.0
 10
266.167788
 20
1116.542768
 30
0.0
  0
LWPOLYLINE
  5
216
100
AcDbEntity
  8
0
 62
7
100
AcDbPolyline
 90
2
 70
0
 10
293.655146
 20
1134.761542
 30
0.0
 10
291.675430
 20
1135.075118
 30
0.0
  0
LWPOLYLINE
  5
217
100
AcDbEntity
  8
0
 62
7
100
AcDbPolyline
 90
2
 70
0
 10
300.534978
 20
1139.760067
 30
0.0
 10
300.848530
 20
1141.739767
 30
0.0
  0
LWPOLYLINE
  5
218
100
AcDbEntity
  8
0
 62
7
100
AcDbPolyline
 90
2
 70
0
 10
352.177372
 20
1139.760067
 30
0.0
 10
351.863820
 20
1141.739767
 30
0.0
  0
LWPOLYLINE
  5
219
100
AcDbEntity
  8
0
 62
7
100
AcDbPolyline
 90
2
 70
0
 10
359.057205
 20
1134.761542
 30
0.0
 10
361.036920
 20
1135.075118
 30
0.0
  0
LWPOLYLINE
  5
21a
100
AcDbEntity
  8
0
 62
7
100
AcDbPolyline
 90
2
 70
0
 10
375.015585
 20
1085.646743
 30
0.0
 10
376.801515
 20
1086.556717
 30
0.0
  0
LWPOLYLINE
  5
21b
100
AcDbEntity
  8
0
 62
7
100
AcDbPolyline
 90
2
 70
0
 10
372.387720
 20
1077.558967
 30
0.0
 10
373.297695
 20
1075.773067
 30
0.0
  0
LWPOLYLINE
  5
21c
100
AcDbEntity
  8
0
 62
7
100
AcDbPolyline
 90
2
 70
0
 10
330.608145
 20
1047.204367
 30
0.0
 10
332.025465
 20
1045.787018
 30
0.0
  0
LWPOLYLINE
  5
21d
100
AcDbEntity
  8
0
 62
7
100
AcDbPolyline
 90
2
 70
0
 10
320.686885
 20
1045.787017
 30
0.0
 10
322.104205
 20
1047.204367
 30
0.0
  0
LWPOLYLINE
  5
21e
100
AcDbEntity
  8
0
 62
7
100
AcDbPolyline
 90
2
 70
0
 10
280.324630
 20
1077.558967
 30
0.0
 10
279.414655
 20
1075.773067
 30
0.0
  0
LWPOLYLINE
  5
21f
100
AcDbEntity
  8
0
 62
7
100
AcDbPolyline
 90
2
 70
0
 10
277.696765
 20
1085.646743
 30
0.0
 10
275.910835
 20
1086.556717
 30
0.0
  0
LWPOLYLINE
  5
220
100
AcDbEntity
  8
0
 62
7
100
AcDbPolyline
 90
2
 70
0
 10
292.456218
 20
961.214985
 30
0.0
 10
289.828353
 20
969.302685
 30
0.0
  0
LWPOLYLINE
  5
221
100
AcDbEntity
  8
0
 62
7
100
AcDbPolyline
 90
2
 70
0
 10
363.554647
 20
925.501185
 30
0.0
 10
373.297695
 20
955.487235
 30
0.0
  0
LWPOLYLINE
  5
222
100
AcDbEntity
  8
0
 62
7
100
AcDbPolyline
 90
2
 70
0
 10
386.544562
 20
996.256935
 30
0.0
 10
361.036920
 20
1014.789285
 30
0.0
  0
LWPOLYLINE
  5
223
100
AcDbEntity
  8
0
 62
7
100
AcDbPolyline
 90
2
 70
0
 10
326.356173
 20
1039.986330
 30
0.0
 10
300.848530
 20
1021.453935
 30
0.0
  0
LWPOLYLINE
  5
224
100
AcDbEntity
  8
0
 62
7
100
AcDbPolyline
 90
2
 70
0
 10
266.167788
 20
996.256935
 30
0.0
 10
275.910835
 20
966.270885
 30
0.0
  0
LWPOLYLINE
  5
225
100
AcDbEntity
  8
0
 62
7
100
AcDbPolyline
 90
2
 70
0
 10
289.157703
 20
925.501185
 30
0.0
 10
320.686885
 20
925.501185
 30
0.0
  0
LWPOLYLINE
  5
226
100
AcDbEntity
  8
0
 62
7
100
AcDbPolyline
 90
2
 70
0
 10
330.608145
 20
939.674460
 30
0.0
 10
322.104205
 20
939.674460
 30
0.0
  0
LWPOLYLINE
  5
227
100
AcDbEntity
  8
0
 62
7
100
AcDbPolyline
 90
2
 70
0
 10
330.608145
 20
939.674460
 30
0.0
 10
330.608145
 20
926.918535
 30
0.0
  0
LWPOLYLINE
  5
228
100
AcDbEntity
  8
0
 62
7
100
AcDbPolyline
 90
2
 70
0
 10
322.104205
 20
939.674460
 30
0.0
 10
322.104205
 20
926.918535
 30
0.0
  0
LWPOLYLINE
  5
229
100
AcDbEntity
  8
0
 62
7
100
AcDbPolyline
 90
2
 70
0
 10
289.828353
 20
969.302685
 30
0.0
 10
277.696765
 20
965.360910
 30
0.0
  0
LWPOLYLINE
  5
22a
100
AcDbEntity
  8
0
 62
7
100
AcDbPolyline
 90
2
 70
0
 10
292.456218
 20
961.214985
 30
0.0
 10
280.324630
 20
957.273135
 30
0.0
  0
LWPOLYLINE
  5
22b
100
AcDbEntity
  8
0
 62
7
100
AcDbPolyline
 90
3
 70
0
 10
301.152880
 20
1004.156010
 30
0.0
 10
308.032713
 20
1009.154460
 30
0.0
 10
300.534978
 20
1019.474235
 30
0.0
  0
LWPOLYLINE
  5
22c
100
AcDbEntity
  8
0
 62
7
100
AcDbPolyline
 90
2
 70
0
 10
301.152880
 20
1004.156010
 30
0.0
 10
293.655145
 20
1014.475710
 30
0.0
  0
LWPOLYLINE
  5
22d
100
AcDbEntity
  8
0
 62
7
100
AcDbPolyline
 90
3
 70
0
 10
344.679638
 20
1009.154460
 30
0.0
 10
351.559470
 20
1004.156010
 30
0.0
 10
359.057205
 20
1014.475710
 30
0.0
  0
LWPOLYLINE
  5
22e
100
AcDbEntity
  8
0
 62
7
100
AcDbPolyline
 90
2
 70
0
 10
344.679638
 20
1009.154460
 30
0.0
 10
352.177372
 20
1019.474235
 30
0.0
  0
LWPOLYLINE
  5
22f
100
AcDbEntity
  8
0
 62
7
100
AcDbPolyline
 90
3
 70
0
 10
362.883997
 20
969.302685
 30
0.0
 10
360.256132
 20
961.214985
 30
0.0
 10
372.387720
 20
957.273135
 30
0.0
  0
LWPOLYLINE
  5
230
100
AcDbEntity
  8
0
 62
7
100
AcDbPolyline
 90
2
 70
0
 10
362.883997
 20
969.302685
 30
0.0
 10
375.015585
 20
965.360910
 30
0.0
  0
LWPOLYLINE
  5
231
100
AcDbEntity
  8
0
 62
7
100
AcDbPolyline
 90
2
 70
0
 10
351.863820
 20
1021.453935
 30
0.0
 10
326.356173
 20
1039.986330
 30
0.0
  0
LWPOLYLINE
  5
232
100
AcDbEntity
  8
0
 62
7
100
AcDbPolyline
 90
2
 70
0
 10
376.801515
 20
966.270885
 30
0.0
 10
386.544562
 20
996.256935
 30
0.0
  0
LWPOLYLINE
  5
233
100
AcDbEntity
  8
0
 62
7
100
AcDbPolyline
 90
2
 70
0
 10
332.025465
 20
925.501185
 30
0.0
 10
363.554647
 20
925.501185
 30
0.0
  0
LWPOLYLINE
  5
234
100
AcDbEntity
  8
0
 62
7
100
AcDbPolyline
 90
2
 70
0
 10
279.414655
 20
955.487235
 30
0.0
 10
289.157703
 20
925.501185
 30
0.0
  0
LWPOLYLINE
  5
235
100
AcDbEntity
  8
0
 62
7
100
AcDbPolyline
 90
2
 70
0
 10
291.675430
 20
1014.789285
 30
0.0
 10
266.167788
 20
996.256935
 30
0.0
  0
LWPOLYLINE
  5
236
100
AcDbEntity
  8
0
 62
7
100
AcDbPolyline
 90
2
 70
0
 10
293.655146
 20
1014.475710
 30
0.0
 10
291.675430
 20
1014.789285
 30
0.0
  0
LWPOLYLINE
  5
237
100
AcDbEntity
  8
0
 62
7
100
AcDbPolyline
 90
2
 70
0
 10
300.534978
 20
1019.474235
 30
0.0
 10
300.848530
 20
1021.453935
 30
0.0
  0
LWPOLYLINE
  5
238
100
AcDbEntity
  8
0
 62
7
100
AcDbPolyline
 90
2
 70
0
 10
352.177372
 20
1019.474235
 30
0.0
 10
351.863820
 20
1021.453935
 30
0.0
  0
LWPOLYLINE
  5
239
100
AcDbEntity
  8
0
 62
7
100
AcDbPolyline
 90
2
 70
0
 10
359.057205
 20
1014.475710
 30
0.0
 10
361.036920
 20
1014.789285
 30
0.0
  0
LWPOLYLINE
  5
23a
100
AcDbEntity
  8
0
 62
7
100
AcDbPolyline
 90
2
 70
0
 10
375.015585
 20
965.360910
 30
0.0
 10
376.801515
 20
966.270885
 30
0.0
  0
LWPOLYLINE
  5
23b
100
AcDbEntity
  8
0
 62
7
100
AcDbPolyline
 90
2
 70
0
 10
372.387720
 20
957.273135
 30
0.0
 10
373.297695
 20
955.487235
 30
0.0
  0
LWPOLYLINE
  5
23c
100
AcDbEntity
  8
0
 62
7
100
AcDbPolyline
 90
2
 70
0
 10
330.608145
 20
926.918535
 30
0.0
 10
332.025465
 20
925.501185
 30
0.0
  0
LWPOLYLINE
  5
23d
100
AcDbEntity
  8
0
 62
7
100
AcDbPolyline
 90
2
 70
0
 10
320.686885
 20
925.501185
 30
0.0
 10
322.104205
 20
926.918535
 30
0.0
  0
LWPOLYLINE
  5
23e
100
AcDbEntity
  8
0
 62
7
100
AcDbPolyline
 90
2
 70
0
 10
280.324630
 20
957.273135
 30
0.0
 10
279.414655
 20
955.487235
 30
0.0
  0
LWPOLYLINE
  5
23f
100
AcDbEntity
  8
0
 62
7
100
AcDbPolyline
 90
2
 70
0
 10
277.696765
 20
965.360910
 30
0.0
 10
275.910835
 20
966.270885
 30
0.0
  0
LWPOLYLINE
  5
240
100
AcDbEntity
  8
0
 62
7
100
AcDbPolyline
 90
2
 70
0
 10
418.928298
 20
1201.786650
 30
0.0
 10
416.300433
 20
1209.874350
 30
0.0
  0
LWPOLYLINE
  5
241
100
AcDbEntity
  8
0
 62
7
100
AcDbPolyline
 90
2
 70
0
 10
490.026727
 20
1166.072850
 30
0.0
 10
499.769775
 20
1196.058900
 30
0.0
  0
LWPOLYLINE
  5
242
100
AcDbEntity
  8
0
 62
7
100
AcDbPolyline
 90
2
 70
0
 10
513.016642
 20
1236.828600
 30
0.0
 10
487.509000
 20
1255.360950
 30
0.0
  0
LWPOLYLINE
  5
243
100
AcDbEntity
  8
0
 62
7
100
AcDbPolyline
 90
2
 70
0
 10
452.828253
 20
1280.557995
 30
0.0
 10
427.320611
 20
1262.025600
 30
0.0
  0
LWPOLYLINE
  5
244
100
AcDbEntity
  8
0
 62
7
100
AcDbPolyline
 90
2
 70
0
 10
392.639868
 20
1236.828600
 30
0.0
 10
402.382916
 20
1206.842550
 30
0.0
  0
LWPOLYLINE
  5
245
100
AcDbEntity
  8
0
 62
7
100
AcDbPolyline
 90
2
 70
0
 10
415.629783
 20
1166.072850
 30
0.0
 10
447.158966
 20
1166.072850
 30
0.0
  0
LWPOLYLINE
  5
246
100
AcDbEntity
  8
0
 62
7
100
AcDbPolyline
 90
2
 70
0
 10
457.080225
 20
1180.246125
 30
0.0
 10
448.576286
 20
1180.246125
 30
0.0
  0
LWPOLYLINE
  5
247
100
AcDbEntity
  8
0
 62
7
100
AcDbPolyline
 90
2
 70
0
 10
457.080225
 20
1180.246125
 30
0.0
 10
457.080225
 20
1167.490200
 30
0.0
  0
LWPOLYLINE
  5
248
100
AcDbEntity
  8
0
 62
7
100
AcDbPolyline
 90
2
 70
0
 10
448.576286
 20
1180.246125
 30
0.0
 10
448.576286
 20
1167.490200
 30
0.0
  0
LWPOLYLINE
  5
249
100
AcDbEntity
  8
0
 62
7
100
AcDbPolyline
 90
2
 70
0
 10
416.300433
 20
1209.874350
 30
0.0
 10
404.168846
 20
1205.932575
 30
0.0
  0
LWPOLYLINE
  5
24a
100
AcDbEntity
  8
0
 62
7
100
AcDbPolyline
 90
2
 70
0
 10
418.928298
 20
1201.786650
 30
0.0
 10
406.796711
 20
1197.844800
 30
0.0
  0
LWPOLYLINE
  5
24b
100
AcDbEntity
  8
0
 62
7
100
AcDbPolyline
 90
3
 70
0
 10
427.624961
 20
1244.727675
 30
0.0
 10
434.504793
 20
1249.726125
 30
0.0
 10
427.007058
 20
1260.045900
 30
0.0
  0
LWPOLYLINE
  5
24c
100
AcDbEntity
  8
0
 62
7
100
AcDbPolyline
 90
2
 70
0
 10
427.624961
 20
1244.727675
 30
0.0
 10
420.127226
 20
1255.047375
 30
0.0
  0
LWPOLYLINE
  5
24d
100
AcDbEntity
  8
0
 62
7
100
AcDbPolyline
 90
3
 70
0
 10
471.151718
 20
1249.726125
 30
0.0
 10
478.031550
 20
1244.727675
 30
0.0
 10
485.529285
 20
1255.047375
 30
0.0
  0
LWPOLYLINE
  5
24e
100
AcDbEntity
  8
0
 62
7
100
AcDbPolyline
 90
2
 70
0
 10
471.151718
 20
1249.726125
 30
0.0
 10
478.649453
 20
1260.045900
 30
0.0
  0
LWPOLYLINE
  5
24f
100
AcDbEntity
  8
0
 62
7
100
AcDbPolyline
 90
3
 70
0
 10
489.356078
 20
1209.874350
 30
0.0
 10
486.728213
 20
1201.786650
 30
0.0
 10
498.859800
 20
1197.844800
 30
0.0
  0
LWPOLYLINE
  5
250
100
AcDbEntity
  8
0
 62
7
100
AcDbPolyline
 90
2
 70
0
 10
489.356078
 20
1209.874350
 30
0.0
 10
501.487665
 20
1205.932575
 30
0.0
  0
LWPOLYLINE
  5
251
100
AcDbEntity
  8
0
 62
7
100
AcDbPolyline
 90
2
 70
0
 10
478.335900
 20
1262.025600
 30
0.0
 10
452.828253
 20
1280.557995
 30
0.0
  0
LWPOLYLINE
  5
252
100
AcDbEntity
  8
0
 62
7
100
AcDbPolyline
 90
2
 70
0
 10
503.273595
 20
1206.842550
 30
0.0
 10
513.016642
 20
1236.828600
 30
0.0
  0
LWPOLYLINE
  5
253
100
AcDbEntity
  8
0
 62
7
100
AcDbPolyline
 90
2
 70
0
 10
458.497545
 20
1166.072850
 30
0.0
 10
490.026728
 20
1166.072850
 30
0.0
  0
LWPOLYLINE
  5
254
100
AcDbEntity
  8
0
 62
7
100
AcDbPolyline
 90
2
 70
0
 10
405.886736
 20
1196.058900
 30
0.0
 10
415.629783
 20
1166.072850
 30
0.0
  0
LWPOLYLINE
  5
255
100
AcDbEntity
  8
0
 62
7
100
AcDbPolyline
 90
2
 70
0
 10
418.147511
 20
1255.360950
 30
0.0
 10
392.639868
 20
1236.828600
 30
0.0
  0
LWPOLYLINE
  5
256
100
AcDbEntity
  8
0
 62
7
100
AcDbPolyline
 90
2
 70
0
 10
420.127226
 20
1255.047375
 30
0.0
 10
418.147511
 20
1255.360950
 30
0.0
  0
LWPOLYLINE
  5
257
100
AcDbEntity
  8
0
 62
7
100
AcDbPolyline
 90
2
 70
0
 10
427.007058
 20
1260.045900
 30
0.0
 10
427.320611
 20
1262.025600
 30
0.0
  0
LWPOLYLINE
  5
258
100
AcDbEntity
  8
0
 62
7
100
AcDbPolyline
 90
2
 70
0
 10
478.649453
 20
1260.045900
 30
0.0
 10
478.335900
 20
1262.025600
 30
0.0
  0
LWPOLYLINE
  5
259
100
AcDbEntity
  8
0
 62
7
100
AcDbPolyline
 90
2
 70
0
 10
485.529285
 20
1255.047375
 30
0.0
 10
487.509000
 20
1255.360950
 30
0.0
  0
LWPOLYLINE
  5
25a
100
AcDbEntity
  8
0
 62
7
100
AcDbPolyline
 90
2
 70
0
 10
501.487665
 20
1205.932575
 30
0.0
 10
503.273595
 20
1206.842550
 30
0.0
  0
LWPOLYLINE
  5
25b
100
AcDbEntity
  8
0
 62
7
100
AcDbPolyline
 90
2
 70
0
 10
498.859800
 20
1197.844800
 30
0.0
 10
499.769775
 20
1196.058900
 30
0.0
  0
LWPOLYLINE
  5
25c
100
AcDbEntity
  8
0
 62
7
100
AcDbPolyline
 90
2
 70
0
 10
457.080225
 20
1167.490200
 30
0.0
 10
458.497545
 20
1166.072850
 30
0.0
  0
LWPOLYLINE
  5
25d
100
AcDbEntity
  8
0
 62
7
100
AcDbPolyline
 90
2
 70
0
 10
447.158966
 20
1166.072850
 30
0.0
 10
448.576286
 20
1167.490200
 30
0.0
  0
LWPOLYLINE
  5
25e
100
AcDbEntity
  8
0
 62
7
100
AcDbPolyline
 90
2
 70
0
 10
406.796711
 20
1197.844800
 30
0.0
 10
405.886736
 20
1196.058900
 30
0.0
  0
LWPOLYLINE
  5
25f
100
AcDbEntity
  8
0
 62
7
100
AcDbPolyline
 90
2
 70
0
 10
404.168846
 20
1205.932575
 30
0.0
 10
402.382916
 20
1206.842550
 30
0.0
  0
LWPOLYLINE
  5
260
100
AcDbEntity
  8
0
 62
7
100
AcDbPolyline
 90
2
 70
0
 10
418.928298
 20
1081.500817
 30
0.0
 10
416.300433
 20
1089.588517
 30
0.0
  0
LWPOLYLINE
  5
261
100
AcDbEntity
  8
0
 62
7
100
AcDbPolyline
 90
2
 70
0
 10
490.026727
 20
1045.787017
 30
0.0
 10
499.769775
 20
1075.773067
 30
0.0
  0
LWPOLYLINE
  5
262
100
AcDbEntity
  8
0
 62
7
100
AcDbPolyline
 90
2
 70
0
 10
513.016642
 20
1116.542768
 30
0.0
 10
487.509000
 20
1135.075118
 30
0.0
  0
LWPOLYLINE
  5
263
100
AcDbEntity
  8
0
 62
7
100
AcDbPolyline
 90
2
 70
0
 10
452.828253
 20
1160.272162
 30
0.0
 10
427.320611
 20
1141.739767
 30
0.0
  0
LWPOLYLINE
  5
264
100
AcDbEntity
  8
0
 62
7
100
AcDbPolyline
 90
2
 70
0
 10
392.639868
 20
1116.542768
 30
0.0
 10
402.382916
 20
1086.556717
 30
0.0
  0
LWPOLYLINE
  5
265
100
AcDbEntity
  8
0
 62
7
100
AcDbPolyline
 90
2
 70
0
 10
415.629783
 20
1045.787017
 30
0.0
 10
447.158966
 20
1045.787017
 30
0.0
  0
LWPOLYLINE
  5
266
100
AcDbEntity
  8
0
 62
7
100
AcDbPolyline
 90
2
 70
0
 10
457.080225
 20
1059.960292
 30
0.0
 10
448.576286
 20
1059.960292
 30
0.0
  0
LWPOLYLINE
  5
267
100
AcDbEntity
  8
0
 62
7
100
AcDbPolyline
 90
2
 70
0
 10
457.080225
 20
1059.960292
 30
0.0
 10
457.080225
 20
1047.204367
 30
0.0
  0
LWPOLYLINE
  5
268
100
AcDbEntity
  8
0
 62
7
100
AcDbPolyline
 90
2
 70
0
 10
448.576286
 20
1059.960292
 30
0.0
 10
448.576286
 20
1047.204367
 30
0.0
  0
LWPOLYLINE
  5
269
100
AcDbEntity
  8
0
 62
7
100
AcDbPolyline
 90
2
 70
0
 10
416.300433
 20
1089.588517
 30
0.0
 10
404.168846
 20
1085.646743
 30
0.0
  0
LWPOLYLINE
  5
26a
100
AcDbEntity
  8
0
 62
7
100
AcDbPolyline
 90
2
 70
0
 10
418.928298
 20
1081.500817
 30
0.0
 10
406.796711
 20
1077.558967
 30
0.0
  0
LWPOLYLINE
  5
26b
100
AcDbEntity
  8
0
 62
7
100
AcDbPolyline
 90
3
 70
0
 10
427.624961
 20
1124.441842
 30
0.0
 10
434.504793
 20
1129.440292
 30
0.0
 10
427.007058
 20
1139.760067
 30
0.0
  0
LWPOLYLINE
  5
26c
100
AcDbEntity
  8
0
 62
7
100
AcDbPolyline
 90
2
 70
0
 10
427.624961
 20
1124.441842
 30
0.0
 10
420.127226
 20
1134.761542
 30
0.0
  0
LWPOLYLINE
  5
26d
100
AcDbEntity
  8
0
 62
7
100
AcDbPolyline
 90
3
 70
0
 10
471.151718
 20
1129.440292
 30
0.0
 10
478.031550
 20
1124.441842
 30
0.0
 10
485.529285
 20
1134.761542
 30
0.0
  0
LWPOLYLINE
  5
26e
100
AcDbEntity
  8
0
 62
7
100
AcDbPolyline
 90
2
 70
0
 10
471.151718
 20
1129.440292
 30
0.0
 10
478.649453
 20
1139.760067
 30
0.0
  0
LWPOLYLINE
  5
26f
100
AcDbEntity
  8
0
 62
7
100
AcDbPolyline
 90
3
 70
0
 10
489.356078
 20
1089.588517
 30
0.0
 10
486.728213
 20
1081.500817
 30
0.0
 10
498.859800
 20
1077.558967
 30
0.0
  0
LWPOLYLINE
  5
270
100
AcDbEntity
  8
0
 62
7
100
AcDbPolyline
 90
2
 70
0
 10
489.356078
 20
1089.588517
 30
0.0
 10
501.487665
 20
1085.646743
 30
0.0
  0
LWPOLYLINE
  5
271
100
AcDbEntity
  8
0
 62
7
100
AcDbPolyline
 90
2
 70
0
 10
478.335900
 20
1141.739767
 30
0.0
 10
452.828253
 20
1160.272162
 30
0.0
  0
LWPOLYLINE
  5
272
100
AcDbEntity
  8
0
 62
7
100
AcDbPolyline
 90
2
 70
0
 10
503.273595
 20
1086.556717
 30
0.0
 10
513.016642
 20
1116.542768
 30
0.0
  0
LWPOLYLINE
  5
273
100
AcDbEntity
  8
0
 62
7
100
AcDbPolyline
 90
2
 70
0
 10
458.497545
 20
1045.787017
 30
0.0
 10
490.026728
 20
1045.787017
 30
0.0
  0
LWPOLYLINE
  5
274
100
AcDbEntity
  8
0
 62
7
100
AcDbPolyline
 90
2
 70
0
 10
405.886736
 20
1075.773067
 30
0.0
 10
415.629783
 20
1045.787017
 30
0.0
  0
LWPOLYLINE
  5
275
100
AcDbEntity
  8
0
 62
7
100
AcDbPolyline
 90
2
 70
0
 10
418.147511
 20
1135.075118
 30
0.0
 10
392.639868
 20
1116.542768
 30
0.0
  0
LWPOLYLINE
  5
276
100
AcDbEntity
  8
0
 62
7
100
AcDbPolyline
 90
2
 70
0
 10
420.127226
 20
1134.761542
 30
0.0
 10
418.147511
 20
1135.075118
 30
0.0
  0
LWPOLYLINE
  5
277
100
AcDbEntity
  8
0
 62
7
100
AcDbPolyline
 90
2
 70
0
 10
427.007058
 20
1139.760067
 30
0.0
 10
427.320611
 20
1141.739767
 30
0.0
  0
LWPOLYLINE
  5
278
100
AcDbEntity
  8
0
 62
7
100
AcDbPolyline
 90
2
 70
0
 10
478.649453
 20
1139.760067
 30
0.0
 10
478.335900
 20
1141.739767
 30
0.0
  0
LWPOLYLINE
  5
279
100
AcDbEntity
  8
0
 62
7
100
AcDbPolyline
 90
2
 70
0
 10
485.529285
 20
1134.761542
 30
0.0
 10
487.509000
 20
1135.075118
 30
0.0
  0
LWPOLYLINE
  5
27a
100
AcDbEntity
  8
0
 62
7
100
AcDbPolyline
 90
2
 70
0
 10
501.487665
 20
1085.646743
 30
0.0
 10
503.273595
 20
1086.556717
 30
0.0
  0
LWPOLYLINE
  5
27b
100
AcDbEntity
  8
0
 62
7
100
AcDbPolyline
 90
2
 70
0
 10
498.859800
 20
1077.558967
 30
0.0
 10
499.769775
 20
1075.773067
 30
0.0
  0
LWPOLYLINE
  5
27c
100
AcDbEntity
  8
0
 62
7
100
AcDbPolyline
 90
2
 70
0
 10
457.080225
 20
1047.204367
 30
0.0
 10
458.497545
 20
1045.787018
 30
0.0
  0
LWPOLYLINE
  5
27d
100
AcDbEntity
  8
0
 62
7
100
AcDbPolyline
 90
2
 70
0
 10
447.158966
 20
1045.787017
 30
0.0
 10
448.576286
 20
1047.204367
 30
0.0
  0
LWPOLYLINE
  5
27e
100
AcDbEntity
  8
0
 62
7
100
AcDbPolyline
 90
2
 70
0
 10
406.796711
 20
1077.558967
 30
0.0
 10
405.886736
 20
1075.773067
 30
0.0
  0
LWPOLYLINE
  5
27f
100
AcDbEntity
  8
0
 62
7
100
AcDbPolyline
 90
2
 70
0
 10
404.168846
 20
1085.646743
 30
0.0
 10
402.382916
 20
1086.556717
 30
0.0
  0
LWPOLYLINE
  5
280
100
AcDbEntity
  8
0
 62
7
100
AcDbPolyline
 90
2
 70
0
 10
418.928298
 20
961.214985
 30
0.0
 10
416.300433
 20
969.302685
 30
0.0
  0
LWPOLYLINE
  5
281
100
AcDbEntity
  8
0
 62
7
100
AcDbPolyline
 90
2
 70
0
 10
490.026727
 20
925.501185
 30
0.0
 10
499.769775
 20
955.487235
 30
0.0
  0
LWPOLYLINE
  5
282
100
AcDbEntity
  8
0
 62
7
100
AcDbPolyline
 90
2
 70
0
 10
513.016642
 20
996.256935
 30
0.0
 10
487.509000
 20
1014.789285
 30
0.0
  0
LWPOLYLINE
  5
283
100
AcDbEntity
  8
0
 62
7
100
AcDbPolyline
 90
2
 70
0
 10
452.828253
 20
1039.986330
 30
0.0
 10
427.320611
 20
1021.453935
 30
0.0
  0
LWPOLYLINE
  5
284
100
AcDbEntity
  8
0
 62
7
100
AcDbPolyline
 90
2
 70
0
 10
392.639868
 20
996.256935
 30
0.0
 10
402.382916
 20
966.270885
 30
0.0
  0
LWPOLYLINE
  5
285
100
AcDbEntity
  8
0
 62
7
100
AcDbPolyline
 90
2
 70
0
 10
415.629783
 20
925.501185
 30
0.0
 10
447.158966
 20
925.501185
 30
0.0
  0
LWPOLYLINE
  5
286
100
AcDbEntity
  8
0
 62
7
100
AcDbPolyline
 90
2
 70
0
 10
457.080225
 20
939.674460
 30
0.0
 10
448.576286
 20
939.674460
 30
0.0
  0
LWPOLYLINE
  5
287
100
AcDbEntity
  8
0
 62
7
100
AcDbPolyline
 90
2
 70
0
 10
457.080225
 20
939.674460
 30
0.0
 10
457.080225
 20
926.918535
 30
0.0
  0
LWPOLYLINE
  5
288
100
AcDbEntity
  8
0
 62
7
100
AcDbPolyline
 90
2
 70
0
 10
448.576286
 20
939.674460
 30
0.0
 10
448.576286
 20
926.918535
 30
0.0
  0
LWPOLYLINE
  5
289
100
AcDbEntity
  8
0
 62
7
100
AcDbPolyline
 90
2
 70
0
 10
416.300433
 20
969.302685
 30
0.0
 10
404.168846
 20
965.360910
 30
0.0
  0
LWPOLYLINE
  5
28a
100
AcDbEntity
  8
0
 62
7
100
AcDbPolyline
 90
2
 70
0
 10
418.928298
 20
961.214985
 30
0.0
 10
406.796711
 20
957.273135
 30
0.0
  0
LWPOLYLINE
  5
28b
100
AcDbEntity
  8
0
 62
7
100
AcDbPolyline
 90
3
 70
0
 10
427.624961
 20
1004.156010
 30
0.0
 10
434.504793
 20
1009.154460
 30
0.0
 10
427.007058
 20
1019.474235
 30
0.0
  0
LWPOLYLINE
  5
28c
100
AcDbEntity
  8
0
 62
7
100
AcDbPolyline
 90
2
 70
0
 10
427.624961
 20
1004.156010
 30
0.0
 10
420.127226
 20
1014.475710
 30
0.0
  0
LWPOLYLINE
  5
28d
100
AcDbEntity
  8
0
 62
7
100
AcDbPolyline
 90
3
 70
0
 10
471.151718
 20
1009.154460
 30
0.0
 10
478.031550
 20
1004.156010
 30
0.0
 10
485.529285
 20
1014.475710
 30
0.0
  0
LWPOLYLINE
  5
28e
100
AcDbEntity
  8
0
 62
7
100
AcDbPolyline
 90
2
 70
0
 10
471.151718
 20
1009.154460
 30
0.0
 10
478.649453
 20
1019.474235
 30
0.0
  0
LWPOLYLINE
  5
28f
100
AcDbEntity
  8
0
 62
7
100
AcDbPolyline
 90
3
 70
0
 10
489.356078
 20
969.302685
 30
0.0
 10
486.728213
 20
961.214985
 30
0.0
 10
498.859800
 20
957.273135
 30
0.0
  0
LWPOLYLINE
  5
290
100
AcDbEntity
  8
0
 62
7
100
AcDbPolyline
 90
2
 70
0
 10
489.356078
 20
969.302685
 30
0.0
 10
501.487665
 20
965.360910
 30
0.0
  0
LWPOLYLINE
  5
291
100
AcDbEntity
  8
0
 62
7
100
AcDbPolyline
 90
2
 70
0
 10
478.335900
 20
1021.453935
 30
0.0
 10
452.828253
 20
1039.986330
 30
0.0
  0
LWPOLYLINE
  5
292
100
AcDbEntity
  8
0
 62
7
100
AcDbPolyline
 90
2
 70
0
 10
503.273595
 20
966.270885
 30
0.0
 10
513.016642
 20
996.256935
 30
0.0
  0
LWPOLYLINE
  5
293
100
AcDbEntity
  8
0
 62
7
100
AcDbPolyline
 90
2
 70
0
 10
458.497545
 20
925.501185
 30
0.0
 10
490.026728
 20
925.501185
 30
0.0
  0
LWPOLYLINE
  5
294
100
AcDbEntity
  8
0
 62
7
100
AcDbPolyline
 90
2
 70
0
 10
405.886736
 20
955.487235
 30
0.0
 10
415.629783
 20
925.501185
 30
0.0
  0
LWPOLYLINE
  5
295
100
AcDbEntity
  8
0
 62
7
100
AcDbPolyline
 90
2
 70
0
 10
418.147511
 20
1014.789285
 30
0.0
 10
392.639868
 20
996.256935
 30
0.0
  0
LWPOLYLINE
  5
296
100
AcDbEntity
  8
0
 62
7
100
AcDbPolyline
 90
2
 70
0
 10
420.127226
 20
1014.475710
 30
0.0
 10
418.147511
 20
1014.789285
 30
0.0
  0
LWPOLYLINE
  5
297
100
AcDbEntity
  8
0
 62
7
100
AcDbPolyline
 90
2
 70
0
 10
427.007058
 20
1019.474235
 30
0.0
 10
427.320611
 20
1021.453935
 30
0.0
  0
LWPOLYLINE
  5
298
100
AcDbEntity
  8
0
 62
7
100
AcDbPolyline
 90
2
 70
0
 10
478.649453
 20
1019.474235
 30
0.0
 10
478.335900
 20
1021.453935
 30
0.0
  0
LWPOLYLINE
  5
299
100
AcDbEntity
  8
0
 62
7
100
AcDbPolyline
 90
2
 70
0
 10
485.529285
 20
1014.475710
 30
0.0
 10
487.509000
 20
1014.789285
 30
0.0
  0
LWPOLYLINE
  5
29a
100
AcDbEntity
  8
0
 62
7
100
AcDbPolyline
 90
2
 70
0
 10
501.487665
 20
965.360910
 30
0.0
 10
503.273595
 20
966.270885
 30
0.0
  0
LWPOLYLINE
  5
29b
100
AcDbEntity
  8
0
 62
7
100
AcDbPolyline
 90
2
 70
0
 10
498.859800
 20
957.273135
 30
0.0
 10
499.769775
 20
955.487235
 30
0.0
  0
LWPOLYLINE
  5
29c
100
AcDbEntity
  8
0
 62
7
100
AcDbPolyline
 90
2
 70
0
 10
457.080225
 20
926.918535
 30
0.0
 10
458.497545
 20
925.501185
 30
0.0
  0
LWPOLYLINE
  5
29d
100
AcDbEntity
  8
0
 62
7
100
AcDbPolyline
 90
2
 70
0
 10
447.158966
 20
925.501185
 30
0.0
 10
448.576286
 20
926.918535
 30
0.0
  0
LWPOLYLINE
  5
29e
100
AcDbEntity
  8
0
 62
7
100
AcDbPolyline
 90
2
 70
0
 10
406.796711
 20
957.273135
 30
0.0
 10
405.886736
 20
955.487235
 30
0.0
  0
LWPOLYLINE
  5
29f
100
AcDbEntity
  8
0
 62
7
100
AcDbPolyline
 90
2
 70
0
 10
404.168846
 20
965.360910
 30
0.0
 10
402.382916
 20
966.270885
 30
0.0
  0
LWPOLYLINE
  5
2a0
100
AcDbEntity
  8
0
 62
7
100
AcDbPolyline
 90
2
 70
0
 10
545.400385
 20
1201.786650
 30
0.0
 10
542.772521
 20
1209.874350
 30
0.0
  0
LWPOLYLINE
  5
2a1
100
AcDbEntity
  8
0
 62
7
100
AcDbPolyline
 90
2
 70
0
 10
616.498815
 20
1166.072850
 30
0.0
 10
626.241863
 20
1196.058900
 30
0.0
  0
LWPOLYLINE
  5
2a2
100
AcDbEntity
  8
0
 62
7
100
AcDbPolyline
 90
2
 70
0
 10
639.488730
 20
1236.828600
 30
0.0
 10
613.981088
 20
1255.360950
 30
0.0
  0
LWPOLYLINE
  5
2a3
100
AcDbEntity
  8
0
 62
7
100
AcDbPolyline
 90
2
 70
0
 10
579.300341
 20
1280.557995
 30
0.0
 10
553.792698
 20
1262.025600
 30
0.0
  0
LWPOLYLINE
  5
2a4
100
AcDbEntity
  8
0
 62
7
100
AcDbPolyline
 90
2
 70
0
 10
519.111956
 20
1236.828600
 30
0.0
 10
528.855003
 20
1206.842550
 30
0.0
  0
LWPOLYLINE
  5
2a5
100
AcDbEntity
  8
0
 62
7
100
AcDbPolyline
 90
2
 70
0
 10
542.101871
 20
1166.072850
 30
0.0
 10
573.631053
 20
1166.072850
 30
0.0
  0
LWPOLYLINE
  5
2a6
100
AcDbEntity
  8
0
 62
7
100
AcDbPolyline
 90
2
 70
0
 10
583.552312
 20
1180.246125
 30
0.0
 10
575.048373
 20
1180.246125
 30
0.0
  0
LWPOLYLINE
  5
2a7
100
AcDbEntity
  8
0
 62
7
100
AcDbPolyline
 90
2
 70
0
 10
583.552312
 20
1180.246125
 30
0.0
 10
583.552312
 20
1167.490200
 30
0.0
  0
LWPOLYLINE
  5
2a8
100
AcDbEntity
  8
0
 62
7
100
AcDbPolyline
 90
2
 70
0
 10
575.048373
 20
1180.246125
 30
0.0
 10
575.048373
 20
1167.490200
 30
0.0
  0
LWPOLYLINE
  5
2a9
100
AcDbEntity
  8
0
 62
7
100
AcDbPolyline
 90
2
 70
0
 10
542.772521
 20
1209.874350
 30
0.0
 10
530.640933
 20
1205.932575
 30
0.0
  0
LWPOLYLINE
  5
2aa
100
AcDbEntity
  8
0
 62
7
100
AcDbPolyline
 90
2
 70
0
 10
545.400385
 20
1201.786650
 30
0.0
 10
533.268798
 20
1197.844800
 30
0.0
  0
LWPOLYLINE
  5
2ab
100
AcDbEntity
  8
0
 62
7
100
AcDbPolyline
 90
3
 70
0
 10
554.097048
 20
1244.727675
 30
0.0
 10
560.976880
 20
1249.726125
 30
0.0
 10
553.479146
 20
1260.045900
 30
0.0
  0
LWPOLYLINE
  5
2ac
100
AcDbEntity
  8
0
 62
7
100
AcDbPolyline
 90
2
 70
0
 10
554.097048
 20
1244.727675
 30
0.0
 10
546.599313
 20
1255.047375
 30
0.0
  0
LWPOLYLINE
  5
2ad
100
AcDbEntity
  8
0
 62
7
100
AcDbPolyline
 90
3
 70
0
 10
597.623805
 20
1249.726125
 30
0.0
 10
604.503637
 20
1244.727675
 30
0.0
 10
612.001373
 20
1255.047375
 30
0.0
  0
LWPOLYLINE
  5
2ae
100
AcDbEntity
  8
0
 62
7
100
AcDbPolyline
 90
2
 70
0
 10
597.623805
 20
1249.726125
 30
0.0
 10
605.121540
 20
1260.045900
 30
0.0
  0
LWPOLYLINE
  5
2af
100
AcDbEntity
  8
0
 62
7
100
AcDbPolyline
 90
3
 70
0
 10
615.828165
 20
1209.874350
 30
0.0
 10
613.200300
 20
1201.786650
 30
0.0
 10
625.331887
 20
1197.844800
 30
0.0
  0
LWPOLYLINE
  5
2b0
100
AcDbEntity
  8
0
 62
7
100
AcDbPolyline
 90
2
 70
0
 10
615.828165
 20
1209.874350
 30
0.0
 10
627.959753
 20
1205.932575
 30
0.0
  0
LWPOLYLINE
  5
2b1
100
AcDbEntity
  8
0
 62
7
100
AcDbPolyline
 90
2
 70
0
 10
604.807988
 20
1262.025600
 30
0.0
 10
579.300341
 20
1280.557995
 30
0.0
  0
LWPOLYLINE
  5
2b2
100
AcDbEntity
  8
0
 62
7
100
AcDbPolyline
 90
2
 70
0
 10
629.745683
 20
1206.842550
 30
0.0
 10
639.488730
 20
1236.828600
 30
0.0
  0
LWPOLYLINE
  5
2b3
100
AcDbEntity
  8
0
 62
7
100
AcDbPolyline
 90
2
 70
0
 10
584.969632
 20
1166.072850
 30
0.0
 10
616.498815
 20
1166.072850
 30
0.0
  0
LWPOLYLINE
  5
2b4
100
AcDbEntity
  8
0
 62
7
100
AcDbPolyline
 90
2
 70
0
 10
532.358823
 20
1196.058900
 30
0.0
 10
542.101871
 20
1166.072850
 30
0.0
  0
LWPOLYLINE
  5
2b5
100
AcDbEntity
  8
0
 62
7
100
AcDbPolyline
 90
2
 70
0
 10
544.619598
 20
1255.360950
 30
0.0
 10
519.111956
 20
1236.828600
 30
0.0
  0
LWPOLYLINE
  5
2b6
100
AcDbEntity
  8
0
 62
7
100
AcDbPolyline
 90
2
 70
0
 10
546.599313
 20
1255.047375
 30
0.0
 10
544.619598
 20
1255.360950
 30
0.0
  0
LWPOLYLINE
  5
2b7
100
AcDbEntity
  8
0
 62
7
100
AcDbPolyline
 90
2
 70
0
 10
553.479145
 20
1260.045900
 30
0.0
 10
553.792698
 20
1262.025600
 30
0.0
  0
LWPOLYLINE
  5
2b8
100
AcDbEntity
  8
0
 62
7
100
AcDbPolyline
 90
2
 70
0
 10
605.121540
 20
1260.045900
 30
0.0
 10
604.807988
 20
1262.025600
 30
0.0
  0
LWPOLYLINE
  5
2b9
100
AcDbEntity
  8
0
 62
7
100
AcDbPolyline
 90
2
 70
0
 10
612.001373
 20
1255.047375
 30
0.0
 10
613.981088
 20
1255.360950
 30
0.0
  0
LWPOLYLINE
  5
2ba
100
AcDbEntity
  8
0
 62
7
100
AcDbPolyline
 90
2
 70
0
 10
627.959753
 20
1205.932575
 30
0.0
 10
629.745683
 20
1206.842550
 30
0.0
  0
LWPOLYLINE
  5
2bb
100
AcDbEntity
  8
0
 62
7
100
AcDbPolyline
 90
2
 70
0
 10
625.331887
 20
1197.844800
 30
0.0
 10
626.241863
 20
1196.058900
 30
0.0
  0
LWPOLYLINE
  5
2bc
100
AcDbEntity
  8
0
 62
7
100
AcDbPolyline
 90
2
 70
0
 10
583.552312
 20
1167.490200
 30
0.0
 10
584.969632
 20
1166.072850
 30
0.0
  0
LWPOLYLINE
  5
2bd
100
AcDbEntity
  8
0
 62
7
100
AcDbPolyline
 90
2
 70
0
 10
573.631053
 20
1166.072850
 30
0.0
 10
575.048373
 20
1167.490200
 30
0.0
  0
LWPOLYLINE
  5
2be
100
AcDbEntity
  8
0
 62
7
100
AcDbPolyline
 90
2
 70
0
 10
533.268798
 20
1197.844800
 30
0.0
 10
532.358823
 20
1196.058900
 30
0.0
  0
LWPOLYLINE
  5
2bf
100
AcDbEntity
  8
0
 62
7
100
AcDbPolyline
 90
2
 70
0
 10
530.640933
 20
1205.932575
 30
0.0
 10
528.855003
 20
1206.842550
 30
0.0
  0
LWPOLYLINE
  5
2c0
100
AcDbEntity
  8
0
 62
7
100
AcDbPolyline
 90
2
 70
0
 10
545.400385
 20
1081.500817
 30
0.0
 10
542.772521
 20
1089.588517
 30
0.0
  0
LWPOLYLINE
  5
2c1
100
AcDbEntity
  8
0
 62
7
100
AcDbPolyline
 90
2
 70
0
 10
616.498815
 20
1045.787017
 30
0.0
 10
626.241863
 20
1075.773067
 30
0.0
  0
LWPOLYLINE
  5
2c2
100
AcDbEntity
  8
0
 62
7
100
AcDbPolyline
 90
2
 70
0
 10
639.488730
 20
1116.542768
 30
0.0
 10
613.981088
 20
1135.075118
 30
0.0
  0
LWPOLYLINE
  5
2c3
100
AcDbEntity
  8
0
 62
7
100
AcDbPolyline
 90
2
 70
0
 10
579.300341
 20
1160.272162
 30
0.0
 10
553.792698
 20
1141.739767
 30
0.0
  0
LWPOLYLINE
  5
2c4
100
AcDbEntity
  8
0
 62
7
100
AcDbPolyline
 90
2
 70
0
 10
519.111956
 20
1116.542768
 30
0.0
 10
528.855003
 20
1086.556717
 30
0.0
  0
LWPOLYLINE
  5
2c5
100
AcDbEntity
  8
0
 62
7
100
AcDbPolyline
 90
2
 70
0
 10
542.101871
 20
1045.787017
 30
0.0
 10
573.631053
 20
1045.787017
 30
0.0
  0
LWPOLYLINE
  5
2c6
100
AcDbEntity
  8
0
 62
7
100
AcDbPolyline
 90
2
 70
0
 10
583.552312
 20
1059.960292
 30
0.0
 10
575.048373
 20
1059.960292
 30
0.0
  0
LWPOLYLINE
  5
2c7
100
AcDbEntity
  8
0
 62
7
100
AcDbPolyline
 90
2
 70
0
 10
583.552312
 20
1059.960292
 30
0.0
 10
583.552312
 20
1047.204367
 30
0.0
  0
LWPOLYLINE
  5
2c8
100
AcDbEntity
  8
0
 62
7
100
AcDbPolyline
 90
2
 70
0
 10
575.048373
 20
1059.960292
 30
0.0
 10
575.048373
 20
1047.204367
 30
0.0
  0
LWPOLYLINE
  5
2c9
100
AcDbEntity
  8
0
 62
7
100
AcDbPolyline
 90
2
 70
0
 10
542.772521
 20
1089.588517
 30
0.0
 10
530.640933
 20
1085.646743
 30
0.0
  0
LWPOLYLINE
  5
2ca
100
AcDbEntity
  8
0
 62
7
100
AcDbPolyline
 90
2
 70
0
 10
545.400385
 20
1081.500817
 30
0.0
 10
533.268798
 20
1077.558967
 30
0.0
  0
LWPOLYLINE
  5
2cb
100
AcDbEntity
  8
0
 62
7
100
AcDbPolyline
 90
3
 70
0
 10
554.097048
 20
1124.441842
 30
0.0
 10
560.976880
 20
1129.440292
 30
0.0
 10
553.479146
 20
1139.760067
 30
0.0
  0
LWPOLYLINE
  5
2cc
100
AcDbEntity
  8
0
 62
7
100
AcDbPolyline
 90
2
 70
0
 10
554.097048
 20
1124.441842
 30
0.0
 10
546.599313
 20
1134.761542
 30
0.0
  0
LWPOLYLINE
  5
2cd
100
AcDbEntity
  8
0
 62
7
100
AcDbPolyline
 90
3
 70
0
 10
597.623805
 20
1129.440292
 30
0.0
 10
604.503637
 20
1124.441842
 30
0.0
 10
612.001373
 20
1134.761542
 30
0.0
  0
LWPOLYLINE
  5
2ce
100
AcDbEntity
  8
0
 62
7
100
AcDbPolyline
 90
2
 70
0
 10
597.623805
 20
1129.440292
 30
0.0
 10
605.121540
 20
1139.760067
 30
0.0
  0
LWPOLYLINE
  5
2cf
100
AcDbEntity
  8
0
 62
7
100
AcDbPolyline
 90
3
 70
0
 10
615.828165
 20
1089.588517
 30
0.0
 10
613.200300
 20
1081.500817
 30
0.0
 10
625.331887
 20
1077.558967
 30
0.0
  0
LWPOLYLINE
  5
2d0
100
AcDbEntity
  8
0
 62
7
100
AcDbPolyline
 90
2
 70
0
 10
615.828165
 20
1089.588517
 30
0.0
 10
627.959753
 20
1085.646743
 30
0.0
  0
LWPOLYLINE
  5
2d1
100
AcDbEntity
  8
0
 62
7
100
AcDbPolyline
 90
2
 70
0
 10
604.807988
 20
1141.739767
 30
0.0
 10
579.300341
 20
1160.272162
 30
0.0
  0
LWPOLYLINE
  5
2d2
100
AcDbEntity
  8
0
 62
7
100
AcDbPolyline
 90
2
 70
0
 10
629.745683
 20
1086.556717
 30
0.0
 10
639.488730
 20
1116.542768
 30
0.0
  0
LWPOLYLINE
  5
2d3
100
AcDbEntity
  8
0
 62
7
100
AcDbPolyline
 90
2
 70
0
 10
584.969632
 20
1045.787017
 30
0.0
 10
616.498815
 20
1045.787017
 30
0.0
  0
LWPOLYLINE
  5
2d4
100
AcDbEntity
  8
0
 62
7
100
AcDbPolyline
 90
2
 70
0
 10
532.358823
 20
1075.773067
 30
0.0
 10
542.101871
 20
1045.787017
 30
0.0
  0
LWPOLYLINE
  5
2d5
100
AcDbEntity
  8
0
 62
7
100
AcDbPolyline
 90
2
 70
0
 10
544.619598
 20
1135.075118
 30
0.0
 10
519.111956
 20
1116.542768
 30
0.0
  0
LWPOLYLINE
  5
2d6
100
AcDbEntity
  8
0
 62
7
100
AcDbPolyline
 90
2
 70
0
 10
546.599313
 20
1134.761542
 30
0.0
 10
544.619598
 20
1135.075118
 30
0.0
  0
LWPOLYLINE
  5
2d7
100
AcDbEntity
  8
0
 62
7
100
AcDbPolyline
 90
2
 70
0
 10
553.479145
 20
1139.760067
 30
0.0
 10
553.792698
 20
1141.739767
 30
0.0
  0
LWPOLYLINE
  5
2d8
100
AcDbEntity
  8
0
 62
7
100
AcDbPolyline
 90
2
 70
0
 10
605.121540
 20
1139.760067
 30
0.0
 10
604.807988
 20
1141.739767
 30
0.0
  0
LWPOLYLINE
  5
2d9
100
AcDbEntity
  8
0
 62
7
100
AcDbPolyline
 90
2
 70
0
 10
612.001373
 20
1134.761542
 30
0.0
 10
613.981088
 20
1135.075118
 30
0.0
  0
LWPOLYLINE
  5
2da
100
AcDbEntity
  8
0
 62
7
100
AcDbPolyline
 90
2
 70
0
 10
627.959753
 20
1085.646743
 30
0.0
 10
629.745683
 20
1086.556717
 30
0.0
  0
LWPOLYLINE
  5
2db
100
AcDbEntity
  8
0
 62
7
100
AcDbPolyline
 90
2
 70
0
 10
625.331887
 20
1077.558967
 30
0.0
 10
626.241863
 20
1075.773067
 30
0.0
  0
LWPOLYLINE
  5
2dc
100
AcDbEntity
  8
0
 62
7
100
AcDbPolyline
 90
2
 70
0
 10
583.552312
 20
1047.204367
 30
0.0
 10
584.969632
 20
1045.787018
 30
0.0
  0
LWPOLYLINE
  5
2dd
100
AcDbEntity
  8
0
 62
7
100
AcDbPolyline
 90
2
 70
0
 10
573.631053
 20
1045.787017
 30
0.0
 10
575.048373
 20
1047.204367
 30
0.0
  0
LWPOLYLINE
  5
2de
100
AcDbEntity
  8
0
 62
7
100
AcDbPolyline
 90
2
 70
0
 10
533.268798
 20
1077.558967
 30
0.0
 10
532.358823
 20
1075.773067
 30
0.0
  0
LWPOLYLINE
  5
2df
100
AcDbEntity
  8
0
 62
7
100
AcDbPolyline
 90
2
 70
0
 10
530.640933
 20
1085.646743
 30
0.0
 10
528.855003
 20
1086.556717
 30
0.0
  0
LWPOLYLINE
  5
2e0
100
AcDbEntity
  8
0
 62
7
100
AcDbPolyline
 90
2
 70
0
 10
545.400385
 20
961.214985
 30
0.0
 10
542.772521
 20
969.302685
 30
0.0
  0
LWPOLYLINE
  5
2e1
100
AcDbEntity
  8
0
 62
7
100
AcDbPolyline
 90
2
 70
0
 10
616.498815
 20
925.501185
 30
0.0
 10
626.241863
 20
955.487235
 30
0.0
  0
LWPOLYLINE
  5
2e2
100
AcDbEntity
  8
0
 62
7
100
AcDbPolyline
 90
2
 70
0
 10
639.488730
 20
996.256935
 30
0.0
 10
613.981088
 20
1014.789285
 30
0.0
  0
LWPOLYLINE
  5
2e3
100
AcDbEntity
  8
0
 62
7
100
AcDbPolyline
 90
2
 70
0
 10
579.300341
 20
1039.986330
 30
0.0
 10
553.792698
 20
1021.453935
 30
0.0
  0
LWPOLYLINE
  5
2e4
100
AcDbEntity
  8
0
 62
7
100
AcDbPolyline
 90
2
 70
0
 10
519.111956
 20
996.256935
 30
0.0
 10
528.855003
 20
966.270885
 30
0.0
  0
LWPOLYLINE
  5
2e5
100
AcDbEntity
  8
0
 62
7
100
AcDbPolyline
 90
2
 70
0
 10
542.101871
 20
925.501185
 30
0.0
 10
573.631053
 20
925.501185
 30
0.0
  0
LWPOLYLINE
  5
2e6
100
AcDbEntity
  8
0
 62
7
100
AcDbPolyline
 90
2
 70
0
 10
583.552312
 20
939.674460
 30
0.0
 10
575.048373
 20
939.674460
 30
0.0
  0
LWPOLYLINE
  5
2e7
100
AcDbEntity
  8
0
 62
7
100
AcDbPolyline
 90
2
 70
0
 10
583.552312
 20
939.674460
 30
0.0
 10
583.552312
 20
926.918535
 30
0.0
  0
LWPOLYLINE
  5
2e8
100
AcDbEntity
  8
0
 62
7
100
AcDbPolyline
 90
2
 70
0
 10
575.048373
 20
939.674460
 30
0.0
 10
575.048373
 20
926.918535
 30
0.0
  0
LWPOLYLINE
  5
2e9
100
AcDbEntity
  8
0
 62
7
100
AcDbPolyline
 90
2
 70
0
 10
542.772521
 20
969.302685
 30
0.0
 10
530.640933
 20
965.360910
 30
0.0
  0
LWPOLYLINE
  5
2ea
100
AcDbEntity
  8
0
 62
7
100
AcDbPolyline
 90
2
 70
0
 10
545.400385
 20
961.214985
 30
0.0
 10
533.268798
 20
957.273135
 30
0.0
  0
LWPOLYLINE
  5
2eb
100
AcDbEntity
  8
0
 62
7
100
AcDbPolyline
 90
3
 70
0
 10
554.097048
 20
1004.156010
 30
0.0
 10
560.976880
 20
1009.154460
 30
0.0
 10
553.479146
 20
1019.474235
 30
0.0
  0
LWPOLYLINE
  5
2ec
100
AcDbEntity
  8
0
 62
7
100
AcDbPolyline
 90
2
 70
0
 10
554.097048
 20
1004.156010
 30
0.0
 10
546.599313
 20
1014.475710
 30
0.0
  0
LWPOLYLINE
  5
2ed
100
AcDbEntity
  8
0
 62
7
100
AcDbPolyline
 90
3
 70
0
 10
597.623805
 20
1009.154460
 30
0.0
 10
604.503637
 20
1004.156010
 30
0.0
 10
612.001373
 20
1014.475710
 30
0.0
  0
LWPOLYLINE
  5
2ee
100
AcDbEntity
  8
0
 62
7
100
AcDbPolyline
 90
2
 70
0
 10
597.623805
 20
1009.154460
 30
0.0
 10
605.121540
 20
1019.474235
 30
0.0
  0
LWPOLYLINE
  5
2ef
100
AcDbEntity
  8
0
 62
7
100
AcDbPolyline
 90
3
 70
0
 10
615.828165
 20
969.302685
 30
0.0
 10
613.200300
 20
961.214985
 30
0.0
 10
625.331887
 20
957.273135
 30
0.0
  0
LWPOLYLINE
  5
2f0
100
AcDbEntity
  8
0
 62
7
100
AcDbPolyline
 90
2
 70
0
 10
615.828165
 20
969.302685
 30
0.0
 10
627.959753
 20
965.360910
 30
0.0
  0
LWPOLYLINE
  5
2f1
100
AcDbEntity
  8
0
 62
7
100
AcDbPolyline
 90
2
 70
0
 10
604.807988
 20
1021.453935
 30
0.0
 10
579.300341
 20
1039.986330
 30
0.0
  0
LWPOLYLINE
  5
2f2
100
AcDbEntity
  8
0
 62
7
100
AcDbPolyline
 90
2
 70
0
 10
629.745683
 20
966.270885
 30
0.0
 10
639.488730
 20
996.256935
 30
0.0
  0
LWPOLYLINE
  5
2f3
100
AcDbEntity
  8
0
 62
7
100
AcDbPolyline
 90
2
 70
0
 10
584.969632
 20
925.501185
 30
0.0
 10
616.498815
 20
925.501185
 30
0.0
  0
LWPOLYLINE
  5
2f4
100
AcDbEntity
  8
0
 62
7
100
AcDbPolyline
 90
2
 70
0
 10
532.358823
 20
955.487235
 30
0.0
 10
542.101871
 20
925.501185
 30
0.0
  0
LWPOLYLINE
  5
2f5
100
AcDbEntity
  8
0
 62
7
100
AcDbPolyline
 90
2
 70
0
 10
544.619598
 20
1014.789285
 30
0.0
 10
519.111956
 20
996.256935
 30
0.0
  0
LWPOLYLINE
  5
2f6
100
AcDbEntity
  8
0
 62
7
100
AcDbPolyline
 90
2
 70
0
 10
546.599313
 20
1014.475710
 30
0.0
 10
544.619598
 20
1014.789285
 30
0.0
  0
LWPOLYLINE
  5
2f7
100
AcDbEntity
  8
0
 62
7
100
AcDbPolyline
 90
2
 70
0
 10
553.479145
 20
1019.474235
 30
0.0
 10
553.792698
 20
1021.453935
 30
0.0
  0
LWPOLYLINE
  5
2f8
100
AcDbEntity
  8
0
 62
7
100
AcDbPolyline
 90
2
 70
0
 10
605.121540
 20
1019.474235
 30
0.0
 10
604.807988
 20
1021.453935
 30
0.0
  0
LWPOLYLINE
  5
2f9
100
AcDbEntity
  8
0
 62
7
100
AcDbPolyline
 90
2
 70
0
 10
612.001373
 20
1014.475710
 30
0.0
 10
613.981088
 20
1014.789285
 30
0.0
  0
LWPOLYLINE
  5
2fa
100
AcDbEntity
  8
0
 62
7
100
AcDbPolyline
 90
2
 70
0
 10
627.959753
 20
965.360910
 30
0.0
 10
629.745683
 20
966.270885
 30
0.0
  0
LWPOLYLINE
  5
2fb
100
AcDbEntity
  8
0
 62
7
100
AcDbPolyline
 90
2
 70
0
 10
625.331887
 20
957.273135
 30
0.0
 10
626.241863
 20
955.487235
 30
0.0
  0
LWPOLYLINE
  5
2fc
100
AcDbEntity
  8
0
 62
7
100
AcDbPolyline
 90
2
 70
0
 10
583.552312
 20
926.918535
 30
0.0
 10
584.969632
 20
925.501185
 30
0.0
  0
LWPOLYLINE
  5
2fd
100
AcDbEntity
  8
0
 62
7
100
AcDbPolyline
 90
2
 70
0
 10
573.631053
 20
925.501185
 30
0.0
 10
575.048373
 20
926.918535
 30
0.0
  0
LWPOLYLINE
  5
2fe
100
AcDbEntity
  8
0
 62
7
100
AcDbPolyline
 90
2
 70
0
 10
533.268798
 20
957.273135
 30
0.0
 10
532.358823
 20
955.487235
 30
0.0
  0
LWPOLYLINE
  5
2ff
100
AcDbEntity
  8
0
 62
7
100
AcDbPolyline
 90
2
 70
0
 10
530.640933
 20
965.360910
 30
0.0
 10
528.855003
 20
966.270885
 30
0.0
  0
LWPOLYLINE
  5
300
100
AcDbEntity
  8
0
 62
7
100
AcDbPolyline
 90
2
 70
0
 10
671.872473
 20
1201.786650
 30
0.0
 10
669.244608
 20
1209.874350
 30
0.0
  0
LWPOLYLINE
  5
301
100
AcDbEntity
  8
0
 62
7
100
AcDbPolyline
 90
2
 70
0
 10
742.970902
 20
1166.072850
 30
0.0
 10
752.713950
 20
1196.058900
 30
0.0
  0
LWPOLYLINE
  5
302
100
AcDbEntity
  8
0
 62
7
100
AcDbPolyline
 90
2
 70
0
 10
765.960817
 20
1236.828600
 30
0.0
 10
740.453175
 20
1255.360950
 30
0.0
  0
LWPOLYLINE
  5
303
100
AcDbEntity
  8
0
 62
7
100
AcDbPolyline
 90
2
 70
0
 10
705.772428
 20
1280.557995
 30
0.0
 10
680.264785
 20
1262.025600
 30
0.0
  0
LWPOLYLINE
  5
304
100
AcDbEntity
  8
0
 62
7
100
AcDbPolyline
 90
2
 70
0
 10
645.584043
 20
1236.828600
 30
0.0
 10
655.327090
 20
1206.842550
 30
0.0
  0
LWPOLYLINE
  5
305
100
AcDbEntity
  8
0
 62
7
100
AcDbPolyline
 90
2
 70
0
 10
668.573958
 20
1166.072850
 30
0.0
 10
700.103140
 20
1166.072850
 30
0.0
  0
LWPOLYLINE
  5
306
100
AcDbEntity
  8
0
 62
7
100
AcDbPolyline
 90
2
 70
0
 10
710.024400
 20
1180.246125
 30
0.0
 10
701.520460
 20
1180.246125
 30
0.0
  0
LWPOLYLINE
  5
307
100
AcDbEntity
  8
0
 62
7
100
AcDbPolyline
 90
2
 70
0
 10
710.024400
 20
1180.246125
 30
0.0
 10
710.024400
 20
1167.490200
 30
0.0
  0
LWPOLYLINE
  5
308
100
AcDbEntity
  8
0
 62
7
100
AcDbPolyline
 90
2
 70
0
 10
701.520460
 20
1180.246125
 30
0.0
 10
701.520460
 20
1167.490200
 30
0.0
  0
LWPOLYLINE
  5
309
100
AcDbEntity
  8
0
 62
7
100
AcDbPolyline
 90
2
 70
0
 10
669.244608
 20
1209.874350
 30
0.0
 10
657.113020
 20
1205.932575
 30
0.0
  0
LWPOLYLINE
  5
30a
100
AcDbEntity
  8
0
 62
7
100
AcDbPolyline
 90
2
 70
0
 10
671.872473
 20
1201.786650
 30
0.0
 10
659.740885
 20
1197.844800
 30
0.0
  0
LWPOLYLINE
  5
30b
100
AcDbEntity
  8
0
 62
7
100
AcDbPolyline
 90
3
 70
0
 10
680.569135
 20
1244.727675
 30
0.0
 10
687.448968
 20
1249.726125
 30
0.0
 10
679.951233
 20
1260.045900
 30
0.0
  0
LWPOLYLINE
  5
30c
100
AcDbEntity
  8
0
 62
7
100
AcDbPolyline
 90
2
 70
0
 10
680.569135
 20
1244.727675
 30
0.0
 10
673.071400
 20
1255.047375
 30
0.0
  0
LWPOLYLINE
  5
30d
100
AcDbEntity
  8
0
 62
7
100
AcDbPolyline
 90
3
 70
0
 10
724.095892
 20
1249.726125
 30
0.0
 10
730.975725
 20
1244.727675
 30
0.0
 10
738.473460
 20
1255.047375
 30
0.0
  0
LWPOLYLINE
  5
30e
100
AcDbEntity
  8
0
 62
7
100
AcDbPolyline
 90
2
 70
0
 10
724.095892
 20
1249.726125
 30
0.0
 10
731.593627
 20
1260.045900
 30
0.0
  0
LWPOLYLINE
  5
30f
100
AcDbEntity
  8
0
 62
7
100
AcDbPolyline
 90
3
 70
0
 10
742.300252
 20
1209.874350
 30
0.0
 10
739.672388
 20
1201.786650
 30
0.0
 10
751.803975
 20
1197.844800
 30
0.0
  0
LWPOLYLINE
  5
310
100
AcDbEntity
  8
0
 62
7
100
AcDbPolyline
 90
2
 70
0
 10
742.300252
 20
1209.874350
 30
0.0
 10
754.431840
 20
1205.932575
 30
0.0
  0
LWPOLYLINE
  5
311
100
AcDbEntity
  8
0
 62
7
100
AcDbPolyline
 90
2
 70
0
 10
731.280075
 20
1262.025600
 30
0.0
 10
705.772428
 20
1280.557995
 30
0.0
  0
LWPOLYLINE
  5
312
100
AcDbEntity
  8
0
 62
7
100
AcDbPolyline
 90
2
 70
0
 10
756.217770
 20
1206.842550
 30
0.0
 10
765.960817
 20
1236.828600
 30
0.0
  0
LWPOLYLINE
  5
313
100
AcDbEntity
  8
0
 62
7
100
AcDbPolyline
 90
2
 70
0
 10
711.441720
 20
1166.072850
 30
0.0
 10
742.970902
 20
1166.072850
 30
0.0
  0
LWPOLYLINE
  5
314
100
AcDbEntity
  8
0
 62
7
100
AcDbPolyline
 90
2
 70
0
 10
658.830910
 20
1196.058900
 30
0.0
 10
668.573958
 20
1166.072850
 30
0.0
  0
LWPOLYLINE
  5
315
100
AcDbEntity
  8
0
 62
7
100
AcDbPolyline
 90
2
 70
0
 10
671.091685
 20
1255.360950
 30
0.0
 10
645.584043
 20
1236.828600
 30
0.0
  0
LWPOLYLINE
  5
316
100
AcDbEntity
  8
0
 62
7
100
AcDbPolyline
 90
2
 70
0
 10
673.071400
 20
1255.047375
 30
0.0
 10
671.091685
 20
1255.360950
 30
0.0
  0
LWPOLYLINE
  5
317
100
AcDbEntity
  8
0
 62
7
100
AcDbPolyline
 90
2
 70
0
 10
679.951233
 20
1260.045900
 30
0.0
 10
680.264785
 20
1262.025600
 30
0.0
  0
LWPOLYLINE
  5
318
100
AcDbEntity
  8
0
 62
7
100
AcDbPolyline
 90
2
 70
0
 10
731.593627
 20
1260.045900
 30
0.0
 10
731.280075
 20
1262.025600
 30
0.0
  0
LWPOLYLINE
  5
319
100
AcDbEntity
  8
0
 62
7
100
AcDbPolyline
 90
2
 70
0
 10
738.473460
 20
1255.047375
 30
0.0
 10
740.453175
 20
1255.360950
 30
0.0
  0
LWPOLYLINE
  5
31a
100
AcDbEntity
  8
0
 62
7
100
AcDbPolyline
 90
2
 70
0
 10
754.431840
 20
1205.932575
 30
0.0
 10
756.217770
 20
1206.842550
 30
0.0
  0
LWPOLYLINE
  5
31b
100
AcDbEntity
  8
0
 62
7
100
AcDbPolyline
 90
2
 70
0
 10
751.803975
 20
1197.844800
 30
0.0
 10
752.713950
 20
1196.058900
 30
0.0
  0
LWPOLYLINE
  5
31c
100
AcDbEntity
  8
0
 62
7
100
AcDbPolyline
 90
2
 70
0
 10
710.024400
 20
1167.490200
 30
0.0
 10
711.441720
 20
1166.072850
 30
0.0
  0
LWPOLYLINE
  5
31d
100
AcDbEntity
  8
0
 62
7
100
AcDbPolyline
 90
2
 70
0
 10
700.103140
 20
1166.072850
 30
0.0
 10
701.520460
 20
1167.490200
 30
0.0
  0
LWPOLYLINE
  5
31e
100
AcDbEntity
  8
0
 62
7
100
AcDbPolyline
 90
2
 70
0
 10
659.740885
 20
1197.844800
 30
0.0
 10
658.830910
 20
1196.058900
 30
0.0
  0
LWPOLYLINE
  5
31f
100
AcDbEntity
  8
0
 62
7
100
AcDbPolyline
 90
2
 70
0
 10
657.113020
 20
1205.932575
 30
0.0
 10
655.327090
 20
1206.842550
 30
0.0
  0
LWPOLYLINE
  5
320
100
AcDbEntity
  8
0
 62
7
100
AcDbPolyline
 90
2
 70
0
 10
671.872473
 20
1081.500817
 30
0.0
 10
669.244608
 20
1089.588517
 30
0.0
  0
LWPOLYLINE
  5
321
100
AcDbEntity
  8
0
 62
7
100
AcDbPolyline
 90
2
 70
0
 10
742.970902
 20
1045.787017
 30
0.0
 10
752.713950
 20
1075.773067
 30
0.0
  0
LWPOLYLINE
  5
322
100
AcDbEntity
  8
0
 62
7
100
AcDbPolyline
 90
2
 70
0
 10
765.960817
 20
1116.542768
 30
0.0
 10
740.453175
 20
1135.075118
 30
0.0
  0
LWPOLYLINE
  5
323
100
AcDbEntity
  8
0
 62
7
100
AcDbPolyline
 90
2
 70
0
 10
705.772428
 20
1160.272162
 30
0.0
 10
680.264785
 20
1141.739767
 30
0.0
  0
LWPOLYLINE
  5
324
100
AcDbEntity
  8
0
 62
7
100
AcDbPolyline
 90
2
 70
0
 10
645.584043
 20
1116.542768
 30
0.0
 10
655.327090
 20
1086.556717
 30
0.0
  0
LWPOLYLINE
  5
325
100
AcDbEntity
  8
0
 62
7
100
AcDbPolyline
 90
2
 70
0
 10
668.573958
 20
1045.787017
 30
0.0
 10
700.103140
 20
1045.787017
 30
0.0
  0
LWPOLYLINE
  5
326
100
AcDbEntity
  8
0
 62
7
100
AcDbPolyline
 90
2
 70
0
 10
710.024400
 20
1059.960292
 30
0.0
 10
701.520460
 20
1059.960292
 30
0.0
  0
LWPOLYLINE
  5
327
100
AcDbEntity
  8
0
 62
7
100
AcDbPolyline
 90
2
 70
0
 10
710.024400
 20
1059.960292
 30
0.0
 10
710.024400
 20
1047.204367
 30
0.0
  0
LWPOLYLINE
  5
328
100
AcDbEntity
  8
0
 62
7
100
AcDbPolyline
 90
2
 70
0
 10
701.520460
 20
1059.960292
 30
0.0
 10
701.520460
 20
1047.204367
 30
0.0
  0
LWPOLYLINE
  5
329
100
AcDbEntity
  8
0
 62
7
100
AcDbPolyline
 90
2
 70
0
 10
669.244608
 20
1089.588517
 30
0.0
 10
657.113020
 20
1085.646743
 30
0.0
  0
LWPOLYLINE
  5
32a
100
AcDbEntity
  8
0
 62
7
100
AcDbPolyline
 90
2
 70
0
 10
671.872473
 20
1081.500817
 30
0.0
 10
659.740885
 20
1077.558967
 30
0.0
  0
LWPOLYLINE
  5
32b
100
AcDbEntity
  8
0
 62
7
100
AcDbPolyline
 90
3
 70
0
 10
680.569135
 20
1124.441842
 30
0.0
 10
687.448968
 20
1129.440292
 30
0.0
 10
679.951233
 20
1139.760067
 30
0.0
  0
LWPOLYLINE
  5
32c
100
AcDbEntity
  8
0
 62
7
100
AcDbPolyline
 90
2
 70
0
 10
680.569135
 20
1124.441842
 30
0.0
 10
673.071400
 20
1134.761542
 30
0.0
  0
LWPOLYLINE
  5
32d
100
AcDbEntity
  8
0
 62
7
100
AcDbPolyline
 90
3
 70
0
 10
724.095892
 20
1129.440292
 30
0.0
 10
730.975725
 20
1124.441842
 30
0.0
 10
738.473460
 20
1134.761542
 30
0.0
  0
LWPOLYLINE
  5
32e
100
AcDbEntity
  8
0
 62
7
100
AcDbPolyline
 90
2
 70
0
 10
724.095892
 20
1129.440292
 30
0.0
 10
731.593627
 20
1139.760067
 30
0.0
  0
LWPOLYLINE
  5
32f
100
AcDbEntity
  8
0
 62
7
100
AcDbPolyline
 90
3
 70
0
 10
742.300252
 20
1089.588517
 30
0.0
 10
739.672388
 20
1081.500817
 30
0.0
 10
751.803975
 20
1077.558967
 30
0.0
  0
LWPOLYLINE
  5
330
100
AcDbEntity
  8
0
 62
7
100
AcDbPolyline
 90
2
 70
0
 10
742.300252
 20
1089.588517
 30
0.0
 10
754.431840
 20
1085.646743
 30
0.0
  0
LWPOLYLINE
  5
331
100
AcDbEntity
  8
0
 62
7
100
AcDbPolyline
 90
2
 70
0
 10
731.280075
 20
1141.739767
 30
0.0
 10
705.772428
 20
1160.272162
 30
0.0
  0
LWPOLYLINE
  5
332
100
AcDbEntity
  8
0
 62
7
100
AcDbPolyline
 90
2
 70
0
 10
756.217770
 20
1086.556717
 30
0.0
 10
765.960817
 20
1116.542768
 30
0.0
  0
LWPOLYLINE
  5
333
100
AcDbEntity
  8
0
 62
7
100
AcDbPolyline
 90
2
 70
0
 10
711.441720
 20
1045.787017
 30
0.0
 10
742.970902
 20
1045.787017
 30
0.0
  0
LWPOLYLINE
  5
334
100
AcDbEntity
  8
0
 62
7
100
AcDbPolyline
 90
2
 70
0
 10
658.830910
 20
1075.773067
 30
0.0
 10
668.573958
 20
1045.787017
 30
0.0
  0
LWPOLYLINE
  5
335
100
AcDbEntity
  8
0
 62
7
100
AcDbPolyline
 90
2
 70
0
 10
671.091685
 20
1135.075118
 30
0.0
 10
645.584043
 20
1116.542768
 30
0.0
  0
LWPOLYLINE
  5
336
100
AcDbEntity
  8
0
 62
7
100
AcDbPolyline
 90
2
 70
0
 10
673.071400
 20
1134.761542
 30
0.0
 10
671.091685
 20
1135.075118
 30
0.0
  0
LWPOLYLINE
  5
337
100
AcDbEntity
  8
0
 62
7
100
AcDbPolyline
 90
2
 70
0
 10
679.951233
 20
1139.760067
 30
0.0
 10
680.264785
 20
1141.739767
 30
0.0
  0
LWPOLYLINE
  5
338
100
AcDbEntity
  8
0
 62
7
100
AcDbPolyline
 90
2
 70
0
 10
731.593627
 20
1139.760067
 30
0.0
 10
731.280075
 20
1141.739767
 30
0.0
  0
LWPOLYLINE
  5
339
100
AcDbEntity
  8
0
 62
7
100
AcDbPolyline
 90
2
 70
0
 10
738.473460
 20
1134.761542
 30
0.0
 10
740.453175
 20
1135.075118
 30
0.0
  0
LWPOLYLINE
  5
33a
100
AcDbEntity
  8
0
 62
7
100
AcDbPolyline
 90
2
 70
0
 10
754.431840
 20
1085.646743
 30
0.0
 10
756.217770
 20
1086.556717
 30
0.0
  0
LWPOLYLINE
  5
33b
100
AcDbEntity
  8
0
 62
7
100
AcDbPolyline
 90
2
 70
0
 10
751.803975
 20
1077.558967
 30
0.0
 10
752.713950
 20
1075.773067
 30
0.0
  0
LWPOLYLINE
  5
33c
100
AcDbEntity
  8
0
 62
7
100
AcDbPolyline
 90
2
 70
0
 10
710.024400
 20
1047.204367
 30
0.0
 10
711.441720
 20
1045.787018
 30
0.0
  0
LWPOLYLINE
  5
33d
100
AcDbEntity
  8
0
 62
7
100
AcDbPolyline
 90
2
 70
0
 10
700.103140
 20
1045.787017
 30
0.0
 10
701.520460
 20
1047.204367
 30
0.0
  0
LWPOLYLINE
  5
33e
100
AcDbEntity
  8
0
 62
7
100
AcDbPolyline
 90
2
 70
0
 10
659.740885
 20
1077.558967
 30
0.0
 10
658.830910
 20
1075.773067
 30
0.0
  0
LWPOLYLINE
  5
33f
100
AcDbEntity
  8
0
 62
7
100
AcDbPolyline
 90
2
 70
0
 10
657.113020
 20
1085.646743
 30
0.0
 10
655.327090
 20
1086.556717
 30
0.0
  0
LWPOLYLINE
  5
340
100
AcDbEntity
  8
0
 62
7
100
AcDbPolyline
 90
2
 70
0
 10
671.872473
 20
961.214985
 30
0.0
 10
669.244608
 20
969.302685
 30
0.0
  0
LWPOLYLINE
  5
341
100
AcDbEntity
  8
0
 62
7
100
AcDbPolyline
 90
2
 70
0
 10
742.970902
 20
925.501185
 30
0.0
 10
752.713950
 20
955.487235
 30
0.0
  0
LWPOLYLINE
  5
342
100
AcDbEntity
  8
0
 62
7
100
AcDbPolyline
 90
2
 70
0
 10
765.960817
 20
996.256935
 30
0.0
 10
740.453175
 20
1014.789285
 30
0.0
  0
LWPOLYLINE
  5
343
100
AcDbEntity
  8
0
 62
7
100
AcDbPolyline
 90
2
 70
0
 10
705.772428
 20
1039.986330
 30
0.0
 10
680.264785
 20
1021.453935
 30
0.0
  0
LWPOLYLINE
  5
344
100
AcDbEntity
  8
0
 62
7
100
AcDbPolyline
 90
2
 70
0
 10
645.584043
 20
996.256935
 30
0.0
 10
655.327090
 20
966.270885
 30
0.0
  0
LWPOLYLINE
  5
345
100
AcDbEntity
  8
0
 62
7
100
AcDbPolyline
 90
2
 70
0
 10
668.573958
 20
925.501185
 30
0.0
 10
700.103140
 20
925.501185
 30
0.0
  0
LWPOLYLINE
  5
346
100
AcDbEntity
  8
0
 62
7
100
AcDbPolyline
 90
2
 70
0
 10
710.024400
 20
939.674460
 30
0.0
 10
701.520460
 20
939.674460
 30
0.0
  0
LWPOLYLINE
  5
347
100
AcDbEntity
  8
0
 62
7
100
AcDbPolyline
 90
2
 70
0
 10
710.024400
 20
939.674460
 30
0.0
 10
710.024400
 20
926.918535
 30
0.0
  0
LWPOLYLINE
  5
348
100
AcDbEntity
  8
0
 62
7
100
AcDbPolyline
 90
2
 70
0
 10
701.520460
 20
939.674460
 30
0.0
 10
701.520460
 20
926.918535
 30
0.0
  0
LWPOLYLINE
  5
349
100
AcDbEntity
  8
0
 62
7
100
AcDbPolyline
 90
2
 70
0
 10
669.244608
 20
969.302685
 30
0.0
 10
657.113020
 20
965.360910
 30
0.0
  0
LWPOLYLINE
  5
34a
100
AcDbEntity
  8
0
 62
7
100
AcDbPolyline
 90
2
 70
0
 10
671.872473
 20
961.214985
 30
0.0
 10
659.740885
 20
957.273135
 30
0.0
  0
LWPOLYLINE
  5
34b
100
AcDbEntity
  8
0
 62
7
100
AcDbPolyline
 90
3
 70
0
 10
680.569135
 20
1004.156010
 30
0.0
 10
687.448968
 20
1009.154460
 30
0.0
 10
679.951233
 20
1019.474235
 30
0.0
  0
LWPOLYLINE
  5
34c
100
AcDbEntity
  8
0
 62
7
100
AcDbPolyline
 90
2
 70
0
 10
680.569135
 20
1004.156010
 30
0.0
 10
673.071400
 20
1014.475710
 30
0.0
  0
LWPOLYLINE
  5
34d
100
AcDbEntity
  8
0
 62
7
100
AcDbPolyline
 90
3
 70
0
 10
724.095892
 20
1009.154460
 30
0.0
 10
730.975725
 20
1004.156010
 30
0.0
 10
738.473460
 20
1014.475710
 30
0.0
  0
LWPOLYLINE
  5
34e
100
AcDbEntity
  8
0
 62
7
100
AcDbPolyline
 90
2
 70
0
 10
724.095892
 20
1009.154460
 30
0.0
 10
731.593627
 20
1019.474235
 30
0.0
  0
LWPOLYLINE
  5
34f
100
AcDbEntity
  8
0
 62
7
100
AcDbPolyline
 90
3
 70
0
 10
742.300252
 20
969.302685
 30
0.0
 10
739.672388
 20
961.214985
 30
0.0
 10
751.803975
 20
957.273135
 30
0.0
  0
LWPOLYLINE
  5
350
100
AcDbEntity
  8
0
 62
7
100
AcDbPolyline
 90
2
 70
0
 10
742.300252
 20
969.302685
 30
0.0
 10
754.431840
 20
965.360910
 30
0.0
  0
LWPOLYLINE
  5
351
100
AcDbEntity
  8
0
 62
7
100
AcDbPolyline
 90
2
 70
0
 10
731.280075
 20
1021.453935
 30
0.0
 10
705.772428
 20
1039.986330
 30
0.0
  0
LWPOLYLINE
  5
352
100
AcDbEntity
  8
0
 62
7
100
AcDbPolyline
 90
2
 70
0
 10
756.217770
 20
966.270885
 30
0.0
 10
765.960817
 20
996.256935
 30
0.0
  0
LWPOLYLINE
  5
353
100
AcDbEntity
  8
0
 62
7
100
AcDbPolyline
 90
2
 70
0
 10
711.441720
 20
925.501185
 30
0.0
 10
742.970902
 20
925.501185
 30
0.0
  0
LWPOLYLINE
  5
354
100
AcDbEntity
  8
0
 62
7
100
AcDbPolyline
 90
2
 70
0
 10
658.830910
 20
955.487235
 30
0.0
 10
668.573958
 20
925.501185
 30
0.0
  0
LWPOLYLINE
  5
355
100
AcDbEntity
  8
0
 62
7
100
AcDbPolyline
 90
2
 70
0
 10
671.091685
 20
1014.789285
 30
0.0
 10
645.584043
 20
996.256935
 30
0.0
  0
LWPOLYLINE
  5
356
100
AcDbEntity
  8
0
 62
7
100
AcDbPolyline
 90
2
 70
0
 10
673.071400
 20
1014.475710
 30
0.0
 10
671.091685
 20
1014.789285
 30
0.0
  0
LWPOLYLINE
  5
357
100
AcDbEntity
  8
0
 62
7
100
AcDbPolyline
 90
2
 70
0
 10
679.951233
 20
1019.474235
 30
0.0
 10
680.264785
 20
1021.453935
 30
0.0
  0
LWPOLYLINE
  5
358
100
AcDbEntity
  8
0
 62
7
100
AcDbPolyline
 90
2
 70
0
 10
731.593627
 20
1019.474235
 30
0.0
 10
731.280075
 20
1021.453935
 30
0.0
  0
LWPOLYLINE
  5
359
100
AcDbEntity
  8
0
 62
7
100
AcDbPolyline
 90
2
 70
0
 10
738.473460
 20
1014.475710
 30
0.0
 10
740.453175
 20
1014.789285
 30
0.0
  0
LWPOLYLINE
  5
35a
100
AcDbEntity
  8
0
 62
7
100
AcDbPolyline
 90
2
 70
0
 10
754.431840
 20
965.360910
 30
0.0
 10
756.217770
 20
966.270885
 30
0.0
  0
LWPOLYLINE
  5
35b
100
AcDbEntity
  8
0
 62
7
100
AcDbPolyline
 90
2
 70
0
 10
751.803975
 20
957.273135
 30
0.0
 10
752.713950
 20
955.487235
 30
0.0
  0
LWPOLYLINE
  5
35c
100
AcDbEntity
  8
0
 62
7
100
AcDbPolyline
 90
2
 70
0
 10
710.024400
 20
926.918535
 30
0.0
 10
711.441720
 20
925.501185
 30
0.0
  0
LWPOLYLINE
  5
35d
100
AcDbEntity
  8
0
 62
7
100
AcDbPolyline
 90
2
 70
0
 10
700.103140
 20
925.501185
 30
0.0
 10
701.520460
 20
926.918535
 30
0.0
  0
LWPOLYLINE
  5
35e
100
AcDbEntity
  8
0
 62
7
100
AcDbPolyline
 90
2
 70
0
 10
659.740885
 20
957.273135
 30
0.0
 10
658.830910
 20
955.487235
 30
0.0
  0
LWPOLYLINE
  5
35f
100
AcDbEntity
  8
0
 62
7
100
AcDbPolyline
 90
2
 70
0
 10
657.113020
 20
965.360910
 30
0.0
 10
655.327090
 20
966.270885
 30
0.0
  0
LWPOLYLINE
  5
360
100
AcDbEntity
  8
0
 62
7
100
AcDbPolyline
 90
2
 70
0
 10
798.344568
 20
1201.786650
 30
0.0
 10
795.716703
 20
1209.874350
 30
0.0
  0
LWPOLYLINE
  5
361
100
AcDbEntity
  8
0
 62
7
100
AcDbPolyline
 90
2
 70
0
 10
869.442998
 20
1166.072850
 30
0.0
 10
879.186045
 20
1196.058900
 30
0.0
  0
LWPOLYLINE
  5
362
100
AcDbEntity
  8
0
 62
7
100
AcDbPolyline
 90
2
 70
0
 10
892.432913
 20
1236.828600
 30
0.0
 10
866.925270
 20
1255.360950
 30
0.0
  0
LWPOLYLINE
  5
363
100
AcDbEntity
  8
0
 62
7
100
AcDbPolyline
 90
2
 70
0
 10
832.244523
 20
1280.557995
 30
0.0
 10
806.736880
 20
1262.025600
 30
0.0
  0
LWPOLYLINE
  5
364
100
AcDbEntity
  8
0
 62
7
100
AcDbPolyline
 90
2
 70
0
 10
772.056138
 20
1236.828600
 30
0.0
 10
781.799186
 20
1206.842550
 30
0.0
  0
LWPOLYLINE
  5
365
100
AcDbEntity
  8
0
 62
7
100
AcDbPolyline
 90
2
 70
0
 10
795.046053
 20
1166.072850
 30
0.0
 10
826.575235
 20
1166.072850
 30
0.0
  0
LWPOLYLINE
  5
366
100
AcDbEntity
  8
0
 62
7
100
AcDbPolyline
 90
2
 70
0
 10
836.496495
 20
1180.246125
 30
0.0
 10
827.992555
 20
1180.246125
 30
0.0
  0
LWPOLYLINE
  5
367
100
AcDbEntity
  8
0
 62
7
100
AcDbPolyline
 90
2
 70
0
 10
836.496495
 20
1180.246125
 30
0.0
 10
836.496495
 20
1167.490200
 30
0.0
  0
LWPOLYLINE
  5
368
100
AcDbEntity
  8
0
 62
7
100
AcDbPolyline
 90
2
 70
0
 10
827.992555
 20
1180.246125
 30
0.0
 10
827.992555
 20
1167.490200
 30
0.0
  0
LWPOLYLINE
  5
369
100
AcDbEntity
  8
0
 62
7
100
AcDbPolyline
 90
2
 70
0
 10
795.716703
 20
1209.874350
 30
0.0
 10
783.585116
 20
1205.932575
 30
0.0
  0
LWPOLYLINE
  5
36a
100
AcDbEntity
  8
0
 62
7
100
AcDbPolyline
 90
2
 70
0
 10
798.344568
 20
1201.786650
 30
0.0
 10
786.212981
 20
1197.844800
 30
0.0
  0
LWPOLYLINE
  5
36b
100
AcDbEntity
  8
0
 62
7
100
AcDbPolyline
 90
3
 70
0
 10
807.041230
 20
1244.727675
 30
0.0
 10
813.921063
 20
1249.726125
 30
0.0
 10
806.423328
 20
1260.045900
 30
0.0
  0
LWPOLYLINE
  5
36c
100
AcDbEntity
  8
0
 62
7
100
AcDbPolyline
 90
2
 70
0
 10
807.041230
 20
1244.727675
 30
0.0
 10
799.543496
 20
1255.047375
 30
0.0
  0
LWPOLYLINE
  5
36d
100
AcDbEntity
  8
0
 62
7
100
AcDbPolyline
 90
3
 70
0
 10
850.567988
 20
1249.726125
 30
0.0
 10
857.447820
 20
1244.727675
 30
0.0
 10
864.945555
 20
1255.047375
 30
0.0
  0
LWPOLYLINE
  5
36e
100
AcDbEntity
  8
0
 62
7
100
AcDbPolyline
 90
2
 70
0
 10
850.567988
 20
1249.726125
 30
0.0
 10
858.065722
 20
1260.045900
 30
0.0
  0
LWPOLYLINE
  5
36f
100
AcDbEntity
  8
0
 62
7
100
AcDbPolyline
 90
3
 70
0
 10
868.772348
 20
1209.874350
 30
0.0
 10
866.144483
 20
1201.786650
 30
0.0
 10
878.276070
 20
1197.844800
 30
0.0
  0
LWPOLYLINE
  5
370
100
AcDbEntity
  8
0
 62
7
100
AcDbPolyline
 90
2
 70
0
 10
868.772348
 20
1209.874350
 30
0.0
 10
880.903935
 20
1205.932575
 30
0.0
  0
LWPOLYLINE
  5
371
100
AcDbEntity
  8
0
 62
7
100
AcDbPolyline
 90
2
 70
0
 10
857.752170
 20
1262.025600
 30
0.0
 10
832.244523
 20
1280.557995
 30
0.0
  0
LWPOLYLINE
  5
372
100
AcDbEntity
  8
0
 62
7
100
AcDbPolyline
 90
2
 70
0
 10
882.689865
 20
1206.842550
 30
0.0
 10
892.432913
 20
1236.828600
 30
0.0
  0
LWPOLYLINE
  5
373
100
AcDbEntity
  8
0
 62
7
100
AcDbPolyline
 90
2
 70
0
 10
837.913815
 20
1166.072850
 30
0.0
 10
869.442998
 20
1166.072850
 30
0.0
  0
LWPOLYLINE
  5
374
100
AcDbEntity
  8
0
 62
7
100
AcDbPolyline
 90
2
 70
0
 10
785.303006
 20
1196.058900
 30
0.0
 10
795.046053
 20
1166.072850
 30
0.0
  0
LWPOLYLINE
  5
375
100
AcDbEntity
  8
0
 62
7
100
AcDbPolyline
 90
2
 70
0
 10
797.563781
 20
1255.360950
 30
0.0
 10
772.056138
 20
1236.828600
 30
0.0
  0
LWPOLYLINE
  5
376
100
AcDbEntity
  8
0
 62
7
100
AcDbPolyline
 90
2
 70
0
 10
799.543496
 20
1255.047375
 30
0.0
 10
797.563781
 20
1255.360950
 30
0.0
  0
LWPOLYLINE
  5
377
100
AcDbEntity
  8
0
 62
7
100
AcDbPolyline
 90
2
 70
0
 10
806.423328
 20
1260.045900
 30
0.0
 10
806.736880
 20
1262.025600
 30
0.0
  0
LWPOLYLINE
  5
378
100
AcDbEntity
  8
0
 62
7
100
AcDbPolyline
 90
2
 70
0
 10
858.065722
 20
1260.045900
 30
0.0
 10
857.752170
 20
1262.025600
 30
0.0
  0
LWPOLYLINE
  5
379
100
AcDbEntity
  8
0
 62
7
100
AcDbPolyline
 90
2
 70
0
 10
864.945555
 20
1255.047375
 30
0.0
 10
866.925270
 20
1255.360950
 30
0.0
  0
LWPOLYLINE
  5
37a
100
AcDbEntity
  8
0
 62
7
100
AcDbPolyline
 90
2
 70
0
 10
880.903935
 20
1205.932575
 30
0.0
 10
882.689865
 20
1206.842550
 30
0.0
  0
LWPOLYLINE
  5
37b
100
AcDbEntity
  8
0
 62
7
100
AcDbPolyline
 90
2
 70
0
 10
878.276070
 20
1197.844800
 30
0.0
 10
879.186045
 20
1196.058900
 30
0.0
  0
LWPOLYLINE
  5
37c
100
AcDbEntity
  8
0
 62
7
100
AcDbPolyline
 90
2
 70
0
 10
836.496495
 20
1167.490200
 30
0.0
 10
837.913815
 20
1166.072850
 30
0.0
  0
LWPOLYLINE
  5
37d
100
AcDbEntity
  8
0
 62
7
100
AcDbPolyline
 90
2
 70
0
 10
826.575236
 20
1166.072850
 30
0.0
 10
827.992555
 20
1167.490200
 30
0.0
  0
LWPOLYLINE
  5
37e
100
AcDbEntity
  8
0
 62
7
100
AcDbPolyline
 90
2
 70
0
 10
786.212981
 20
1197.844800
 30
0.0
 10
785.303006
 20
1196.058900
 30
0.0
  0
LWPOLYLINE
  5
37f
100
AcDbEntity
  8
0
 62
7
100
AcDbPolyline
 90
2
 70
0
 10
783.585116
 20
1205.932575
 30
0.0
 10
781.799186
 20
1206.842550
 30
0.0
  0
LWPOLYLINE
  5
380
100
AcDbEntity
  8
0
 62
7
100
AcDbPolyline
 90
2
 70
0
 10
798.344568
 20
1081.500817
 30
0.0
 10
795.716703
 20
1089.588517
 30
0.0
  0
LWPOLYLINE
  5
381
100
AcDbEntity
  8
0
 62
7
100
AcDbPolyline
 90
2
 70
0
 10
869.442998
 20
1045.787017
 30
0.0
 10
879.186045
 20
1075.773067
 30
0.0
  0
LWPOLYLINE
  5
382
100
AcDbEntity
  8
0
 62
7
100
AcDbPolyline
 90
2
 70
0
 10
892.432913
 20
1116.542768
 30
0.0
 10
866.925270
 20
1135.075118
 30
0.0
  0
LWPOLYLINE
  5
383
100
AcDbEntity
  8
0
 62
7
100
AcDbPolyline
 90
2
 70
0
 10
832.244523
 20
1160.272162
 30
0.0
 10
806.736880
 20
1141.739767
 30
0.0
  0
LWPOLYLINE
  5
384
100
AcDbEntity
  8
0
 62
7
100
AcDbPolyline
 90
2
 70
0
 10
772.056138
 20
1116.542768
 30
0.0
 10
781.799186
 20
1086.556717
 30
0.0
  0
LWPOLYLINE
  5
385
100
AcDbEntity
  8
0
 62
7
100
AcDbPolyline
 90
2
 70
0
 10
795.046053
 20
1045.787017
 30
0.0
 10
826.575235
 20
1045.787017
 30
0.0
  0
LWPOLYLINE
  5
386
100
AcDbEntity
  8
0
 62
7
100
AcDbPolyline
 90
2
 70
0
 10
836.496495
 20
1059.960292
 30
0.0
 10
827.992555
 20
1059.960292
 30
0.0
  0
LWPOLYLINE
  5
387
100
AcDbEntity
  8
0
 62
7
100
AcDbPolyline
 90
2
 70
0
 10
836.496495
 20
1059.960292
 30
0.0
 10
836.496495
 20
1047.204367
 30
0.0
  0
LWPOLYLINE
  5
388
100
AcDbEntity
  8
0
 62
7
100
AcDbPolyline
 90
2
 70
0
 10
827.992555
 20
1059.960292
 30
0.0
 10
827.992555
 20
1047.204367
 30
0.0
  0
LWPOLYLINE
  5
389
100
AcDbEntity
  8
0
 62
7
100
AcDbPolyline
 90
2
 70
0
 10
795.716703
 20
1089.588517
 30
0.0
 10
783.585116
 20
1085.646743
 30
0.0
  0
LWPOLYLINE
  5
38a
100
AcDbEntity
  8
0
 62
7
100
AcDbPolyline
 90
2
 70
0
 10
798.344568
 20
1081.500817
 30
0.0
 10
786.212981
 20
1077.558967
 30
0.0
  0
LWPOLYLINE
  5
38b
100
AcDbEntity
  8
0
 62
7
100
AcDbPolyline
 90
3
 70
0
 10
807.041230
 20
1124.441842
 30
0.0
 10
813.921063
 20
1129.440292
 30
0.0
 10
806.423328
 20
1139.760067
 30
0.0
  0
LWPOLYLINE
  5
38c
100
AcDbEntity
  8
0
 62
7
100
AcDbPolyline
 90
2
 70
0
 10
807.041230
 20
1124.441842
 30
0.0
 10
799.543496
 20
1134.761542
 30
0.0
  0
LWPOLYLINE
  5
38d
100
AcDbEntity
  8
0
 62
7
100
AcDbPolyline
 90
3
 70
0
 10
850.567988
 20
1129.440292
 30
0.0
 10
857.447820
 20
1124.441842
 30
0.0
 10
864.945555
 20
1134.761542
 30
0.0
  0
LWPOLYLINE
  5
38e
100
AcDbEntity
  8
0
 62
7
100
AcDbPolyline
 90
2
 70
0
 10
850.567988
 20
1129.440292
 30
0.0
 10
858.065722
 20
1139.760067
 30
0.0
  0
LWPOLYLINE
  5
38f
100
AcDbEntity
  8
0
 62
7
100
AcDbPolyline
 90
3
 70
0
 10
868.772348
 20
1089.588517
 30
0.0
 10
866.144483
 20
1081.500817
 30
0.0
 10
878.276070
 20
1077.558967
 30
0.0
  0
LWPOLYLINE
  5
390
100
AcDbEntity
  8
0
 62
7
100
AcDbPolyline
 90
2
 70
0
 10
868.772348
 20
1089.588517
 30
0.0
 10
880.903935
 20
1085.646743
 30
0.0
  0
LWPOLYLINE
  5
391
100
AcDbEntity
  8
0
 62
7
100
AcDbPolyline
 90
2
 70
0
 10
857.752170
 20
1141.739767
 30
0.0
 10
832.244523
 20
1160.272162
 30
0.0
  0
LWPOLYLINE
  5
392
100
AcDbEntity
  8
0
 62
7
100
AcDbPolyline
 90
2
 70
0
 10
882.689865
 20
1086.556717
 30
0.0
 10
892.432913
 20
1116.542768
 30
0.0
  0
LWPOLYLINE
  5
393
100
AcDbEntity
  8
0
 62
7
100
AcDbPolyline
 90
2
 70
0
 10
837.913815
 20
1045.787017
 30
0.0
 10
869.442998
 20
1045.787017
 30
0.0
  0
LWPOLYLINE
  5
394
100
AcDbEntity
  8
0
 62
7
100
AcDbPolyline
 90
2
 70
0
 10
785.303006
 20
1075.773067
 30
0.0
 10
795.046053
 20
1045.787017
 30
0.0
  0
LWPOLYLINE
  5
395
100
AcDbEntity
  8
0
 62
7
100
AcDbPolyline
 90
2
 70
0
 10
797.563781
 20
1135.075118
 30
0.0
 10
772.056138
 20
1116.542768
 30
0.0
  0
LWPOLYLINE
  5
396
100
AcDbEntity
  8
0
 62
7
100
AcDbPolyline
 90
2
 70
0
 10
799.543496
 20
1134.761542
 30
0.0
 10
797.563781
 20
1135.075118
 30
0.0
  0
LWPOLYLINE
  5
397
100
AcDbEntity
  8
0
 62
7
100
AcDbPolyline
 90
2
 70
0
 10
806.423328
 20
1139.760067
 30
0.0
 10
806.736880
 20
1141.739767
 30
0.0
  0
LWPOLYLINE
  5
398
100
AcDbEntity
  8
0
 62
7
100
AcDbPolyline
 90
2
 70
0
 10
858.065722
 20
1139.760067
 30
0.0
 10
857.752170
 20
1141.739767
 30
0.0
  0
LWPOLYLINE
  5
399
100
AcDbEntity
  8
0
 62
7
100
AcDbPolyline
 90
2
 70
0
 10
864.945555
 20
1134.761542
 30
0.0
 10
866.925270
 20
1135.075118
 30
0.0
  0
LWPOLYLINE
  5
39a
100
AcDbEntity
  8
0
 62
7
100
AcDbPolyline
 90
2
 70
0
 10
880.903935
 20
1085.646743
 30
0.0
 10
882.689865
 20
1086.556717
 30
0.0
  0
LWPOLYLINE
  5
39b
100
AcDbEntity
  8
0
 62
7
100
AcDbPolyline
 90
2
 70
0
 10
878.276070
 20
1077.558967
 30
0.0
 10
879.186045
 20
1075.773067
 30
0.0
  0
LWPOLYLINE
  5
39c
100
AcDbEntity
  8
0
 62
7
100
AcDbPolyline
 90
2
 70
0
 10
836.496495
 20
1047.204367
 30
0.0
 10
837.913815
 20
1045.787018
 30
0.0
  0
LWPOLYLINE
  5
39d
100
AcDbEntity
  8
0
 62
7
100
AcDbPolyline
 90
2
 70
0
 10
826.575236
 20
1045.787017
 30
0.0
 10
827.992555
 20
1047.204367
 30
0.0
  0
LWPOLYLINE
  5
39e
100
AcDbEntity
  8
0
 62
7
100
AcDbPolyline
 90
2
 70
0
 10
786.212981
 20
1077.558967
 30
0.0
 10
785.303006
 20
1075.773067
 30
0.0
  0
LWPOLYLINE
  5
39f
100
AcDbEntity
  8
0
 62
7
100
AcDbPolyline
 90
2
 70
0
 10
783.585116
 20
1085.646743
 30
0.0
 10
781.799186
 20
1086.556717
 30
0.0
  0
LWPOLYLINE
  5
3a0
100
AcDbEntity
  8
0
 62
7
100
AcDbPolyline
 90
2
 70
0
 10
798.344568
 20
961.214985
 30
0.0
 10
795.716703
 20
969.302685
 30
0.0
  0
LWPOLYLINE
  5
3a1
100
AcDbEntity
  8
0
 62
7
100
AcDbPolyline
 90
2
 70
0
 10
869.442998
 20
925.501185
 30
0.0
 10
879.186045
 20
955.487235
 30
0.0
  0
LWPOLYLINE
  5
3a2
100
AcDbEntity
  8
0
 62
7
100
AcDbPolyline
 90
2
 70
0
 10
892.432913
 20
996.256935
 30
0.0
 10
866.925270
 20
1014.789285
 30
0.0
  0
LWPOLYLINE
  5
3a3
100
AcDbEntity
  8
0
 62
7
100
AcDbPolyline
 90
2
 70
0
 10
832.244523
 20
1039.986330
 30
0.0
 10
806.736880
 20
1021.453935
 30
0.0
  0
LWPOLYLINE
  5
3a4
100
AcDbEntity
  8
0
 62
7
100
AcDbPolyline
 90
2
 70
0
 10
772.056138
 20
996.256935
 30
0.0
 10
781.799186
 20
966.270885
 30
0.0
  0
LWPOLYLINE
  5
3a5
100
AcDbEntity
  8
0
 62
7
100
AcDbPolyline
 90
2
 70
0
 10
795.046053
 20
925.501185
 30
0.0
 10
826.575235
 20
925.501185
 30
0.0
  0
LWPOLYLINE
  5
3a6
100
AcDbEntity
  8
0
 62
7
100
AcDbPolyline
 90
2
 70
0
 10
836.496495
 20
939.674460
 30
0.0
 10
827.992555
 20
939.674460
 30
0.0
  0
LWPOLYLINE
  5
3a7
100
AcDbEntity
  8
0
 62
7
100
AcDbPolyline
 90
2
 70
0
 10
836.496495
 20
939.674460
 30
0.0
 10
836.496495
 20
926.918535
 30
0.0
  0
LWPOLYLINE
  5
3a8
100
AcDbEntity
  8
0
 62
7
100
AcDbPolyline
 90
2
 70
0
 10
827.992555
 20
939.674460
 30
0.0
 10
827.992555
 20
926.918535
 30
0.0
  0
LWPOLYLINE
  5
3a9
100
AcDbEntity
  8
0
 62
7
100
AcDbPolyline
 90
2
 70
0
 10
795.716703
 20
969.302685
 30
0.0
 10
783.585116
 20
965.360910
 30
0.0
  0
LWPOLYLINE
  5
3aa
100
AcDbEntity
  8
0
 62
7
100
AcDbPolyline
 90
2
 70
0
 10
798.344568
 20
961.214985
 30
0.0
 10
786.212981
 20
957.273135
 30
0.0
  0
LWPOLYLINE
  5
3ab
100
AcDbEntity
  8
0
 62
7
100
AcDbPolyline
 90
3
 70
0
 10
807.041230
 20
1004.156010
 30
0.0
 10
813.921063
 20
1009.154460
 30
0.0
 10
806.423328
 20
1019.474235
 30
0.0
  0
LWPOLYLINE
  5
3ac
100
AcDbEntity
  8
0
 62
7
100
AcDbPolyline
 90
2
 70
0
 10
807.041230
 20
1004.156010
 30
0.0
 10
799.543496
 20
1014.475710
 30
0.0
  0
LWPOLYLINE
  5
3ad
100
AcDbEntity
  8
0
 62
7
100
AcDbPolyline
 90
3
 70
0
 10
850.567988
 20
1009.154460
 30
0.0
 10
857.447820
 20
1004.156010
 30
0.0
 10
864.945555
 20
1014.475710
 30
0.0
  0
LWPOLYLINE
  5
3ae
100
AcDbEntity
  8
0
 62
7
100
AcDbPolyline
 90
2
 70
0
 10
850.567988
 20
1009.154460
 30
0.0
 10
858.065722
 20
1019.474235
 30
0.0
  0
LWPOLYLINE
  5
3af
100
AcDbEntity
  8
0
 62
7
100
AcDbPolyline
 90
3
 70
0
 10
868.772348
 20
969.302685
 30
0.0
 10
866.144483
 20
961.214985
 30
0.0
 10
878.276070
 20
957.273135
 30
0.0
  0
LWPOLYLINE
  5
3b0
100
AcDbEntity
  8
0
 62
7
100
AcDbPolyline
 90
2
 70
0
 10
868.772348
 20
969.302685
 30
0.0
 10
880.903935
 20
965.360910
 30
0.0
  0
LWPOLYLINE
  5
3b1
100
AcDbEntity
  8
0
 62
7
100
AcDbPolyline
 90
2
 70
0
 10
857.752170
 20
1021.453935
 30
0.0
 10
832.244523
 20
1039.986330
 30
0.0
  0
LWPOLYLINE
  5
3b2
100
AcDbEntity
  8
0
 62
7
100
AcDbPolyline
 90
2
 70
0
 10
882.689865
 20
966.270885
 30
0.0
 10
892.432913
 20
996.256935
 30
0.0
  0
LWPOLYLINE
  5
3b3
100
AcDbEntity
  8
0
 62
7
100
AcDbPolyline
 90
2
 70
0
 10
837.913815
 20
925.501185
 30
0.0
 10
869.442998
 20
925.501185
 30
0.0
  0
LWPOLYLINE
  5
3b4
100
AcDbEntity
  8
0
 62
7
100
AcDbPolyline
 90
2
 70
0
 10
785.303006
 20
955.487235
 30
0.0
 10
795.046053
 20
925.501185
 30
0.0
  0
LWPOLYLINE
  5
3b5
100
AcDbEntity
  8
0
 62
7
100
AcDbPolyline
 90
2
 70
0
 10
797.563781
 20
1014.789285
 30
0.0
 10
772.056138
 20
996.256935
 30
0.0
  0
LWPOLYLINE
  5
3b6
100
AcDbEntity
  8
0
 62
7
100
AcDbPolyline
 90
2
 70
0
 10
799.543496
 20
1014.475710
 30
0.0
 10
797.563781
 20
1014.789285
 30
0.0
  0
LWPOLYLINE
  5
3b7
100
AcDbEntity
  8
0
 62
7
100
AcDbPolyline
 90
2
 70
0
 10
806.423328
 20
1019.474235
 30
0.0
 10
806.736880
 20
1021.453935
 30
0.0
  0
LWPOLYLINE
  5
3b8
100
AcDbEntity
  8
0
 62
7
100
AcDbPolyline
 90
2
 70
0
 10
858.065722
 20
1019.474235
 30
0.0
 10
857.752170
 20
1021.453935
 30
0.0
  0
LWPOLYLINE
  5
3b9
100
AcDbEntity
  8
0
 62
7
100
AcDbPolyline
 90
2
 70
0
 10
864.945555
 20
1014.475710
 30
0.0
 10
866.925270
 20
1014.789285
 30
0.0
  0
LWPOLYLINE
  5
3ba
100
AcDbEntity
  8
0
 62
7
100
AcDbPolyline
 90
2
 70
0
 10
880.903935
 20
965.360910
 30
0.0
 10
882.689865
 20
966.270885
 30
0.0
  0
LWPOLYLINE
  5
3bb
100
AcDbEntity
  8
0
 62
7
100
AcDbPolyline
 90
2
 70
0
 10
878.276070
 20
957.273135
 30
0.0
 10
879.186045
 20
955.487235
 30
0.0
  0
LWPOLYLINE
  5
3bc
100
AcDbEntity
  8
0
 62
7
100
AcDbPolyline
 90
2
 70
0
 10
836.496495
 20
926.918535
 30
0.0
 10
837.913815
 20
925.501185
 30
0.0
  0
LWPOLYLINE
  5
3bd
100
AcDbEntity
  8
0
 62
7
100
AcDbPolyline
 90
2
 70
0
 10
826.575236
 20
925.501185
 30
0.0
 10
827.992555
 20
926.918535
 30
0.0
  0
LWPOLYLINE
  5
3be
100
AcDbEntity
  8
0
 62
7
100
AcDbPolyline
 90
2
 70
0
 10
786.212981
 20
957.273135
 30
0.0
 10
785.303006
 20
955.487235
 30
0.0
  0
LWPOLYLINE
  5
3bf
100
AcDbEntity
  8
0
 62
7
100
AcDbPolyline
 90
2
 70
0
 10
783.585116
 20
965.360910
 30
0.0
 10
781.799186
 20
966.270885
 30
0.0
  0
LWPOLYLINE
  5
3c0
100
AcDbEntity
  8
0
 62
7
100
AcDbPolyline
 90
2
 70
0
 10
924.816618
 20
1201.786650
 30
0.0
 10
922.188753
 20
1209.874350
 30
0.0
  0
LWPOLYLINE
  5
3c1
100
AcDbEntity
  8
0
 62
7
100
AcDbPolyline
 90
2
 70
0
 10
995.915047
 20
1166.072850
 30
0.0
 10
1005.658095
 20
1196.058900
 30
0.0
  0
LWPOLYLINE
  5
3c2
100
AcDbEntity
  8
0
 62
7
100
AcDbPolyline
 90
2
 70
0
 10
1018.904962
 20
1236.828600
 30
0.0
 10
993.397320
 20
1255.360950
 30
0.0
  0
LWPOLYLINE
  5
3c3
100
AcDbEntity
  8
0
 62
7
100
AcDbPolyline
 90
2
 70
0
 10
958.716573
 20
1280.557995
 30
0.0
 10
933.208930
 20
1262.025600
 30
0.0
  0
LWPOLYLINE
  5
3c4
100
AcDbEntity
  8
0
 62
7
100
AcDbPolyline
 90
2
 70
0
 10
898.528188
 20
1236.828600
 30
0.0
 10
908.271235
 20
1206.842550
 30
0.0
  0
LWPOLYLINE
  5
3c5
100
AcDbEntity
  8
0
 62
7
100
AcDbPolyline
 90
2
 70
0
 10
921.518103
 20
1166.072850
 30
0.0
 10
953.047285
 20
1166.072850
 30
0.0
  0
LWPOLYLINE
  5
3c6
100
AcDbEntity
  8
0
 62
7
100
AcDbPolyline
 90
2
 70
0
 10
962.968545
 20
1180.246125
 30
0.0
 10
954.464605
 20
1180.246125
 30
0.0
  0
LWPOLYLINE
  5
3c7
100
AcDbEntity
  8
0
 62
7
100
AcDbPolyline
 90
2
 70
0
 10
962.968545
 20
1180.246125
 30
0.0
 10
962.968545
 20
1167.490200
 30
0.0
  0
LWPOLYLINE
  5
3c8
100
AcDbEntity
  8
0
 62
7
100
AcDbPolyline
 90
2
 70
0
 10
954.464605
 20
1180.246125
 30
0.0
 10
954.464605
 20
1167.490200
 30
0.0
  0
LWPOLYLINE
  5
3c9
100
AcDbEntity
  8
0
 62
7
100
AcDbPolyline
 90
2
 70
0
 10
922.188753
 20
1209.874350
 30
0.0
 10
910.057165
 20
1205.932575
 30
0.0
  0
LWPOLYLINE
  5
3ca
100
AcDbEntity
  8
0
 62
7
100
AcDbPolyline
 90
2
 70
0
 10
924.816618
 20
1201.786650
 30
0.0
 10
912.685030
 20
1197.844800
 30
0.0
  0
LWPOLYLINE
  5
3cb
100
AcDbEntity
  8
0
 62
7
100
AcDbPolyline
 90
3
 70
0
 10
933.513280
 20
1244.727675
 30
0.0
 10
940.393113
 20
1249.726125
 30
0.0
 10
932.895378
 20
1260.045900
 30
0.0
  0
LWPOLYLINE
  5
3cc
100
AcDbEntity
  8
0
 62
7
100
AcDbPolyline
 90
2
 70
0
 10
933.513280
 20
1244.727675
 30
0.0
 10
926.015545
 20
1255.047375
 30
0.0
  0
LWPOLYLINE
  5
3cd
100
AcDbEntity
  8
0
 62
7
100
AcDbPolyline
 90
3
 70
0
 10
977.040037
 20
1249.726125
 30
0.0
 10
983.919870
 20
1244.727675
 30
0.0
 10
991.417605
 20
1255.047375
 30
0.0
  0
LWPOLYLINE
  5
3ce
100
AcDbEntity
  8
0
 62
7
100
AcDbPolyline
 90
2
 70
0
 10
977.040037
 20
1249.726125
 30
0.0
 10
984.537772
 20
1260.045900
 30
0.0
  0
LWPOLYLINE
  5
3cf
100
AcDbEntity
  8
0
 62
7
100
AcDbPolyline
 90
3
 70
0
 10
995.244397
 20
1209.874350
 30
0.0
 10
992.616532
 20
1201.786650
 30
0.0
 10
1004.748120
 20
1197.844800
 30
0.0
  0
LWPOLYLINE
  5
3d0
100
AcDbEntity
  8
0
 62
7
100
AcDbPolyline
 90
2
 70
0
 10
995.244397
 20
1209.874350
 30
0.0
 10
1007.375985
 20
1205.932575
 30
0.0
  0
LWPOLYLINE
  5
3d1
100
AcDbEntity
  8
0
 62
7
100
AcDbPolyline
 90
2
 70
0
 10
984.224220
 20
1262.025600
 30
0.0
 10
958.716573
 20
1280.557995
 30
0.0
  0
LWPOLYLINE
  5
3d2
100
AcDbEntity
  8
0
 62
7
100
AcDbPolyline
 90
2
 70
0
 10
1009.161915
 20
1206.842550
 30
0.0
 10
1018.904962
 20
1236.828600
 30
0.0
  0
LWPOLYLINE
  5
3d3
100
AcDbEntity
  8
0
 62
7
100
AcDbPolyline
 90
2
 70
0
 10
964.385865
 20
1166.072850
 30
0.0
 10
995.915047
 20
1166.072850
 30
0.0
  0
LWPOLYLINE
  5
3d4
100
AcDbEntity
  8
0
 62
7
100
AcDbPolyline
 90
2
 70
0
 10
911.775055
 20
1196.058900
 30
0.0
 10
921.518103
 20
1166.072850
 30
0.0
  0
LWPOLYLINE
  5
3d5
100
AcDbEntity
  8
0
 62
7
100
AcDbPolyline
 90
2
 70
0
 10
924.035830
 20
1255.360950
 30
0.0
 10
898.528188
 20
1236.828600
 30
0.0
  0
LWPOLYLINE
  5
3d6
100
AcDbEntity
  8
0
 62
7
100
AcDbPolyline
 90
2
 70
0
 10
926.015545
 20
1255.047375
 30
0.0
 10
924.035830
 20
1255.360950
 30
0.0
  0
LWPOLYLINE
  5
3d7
100
AcDbEntity
  8
0
 62
7
100
AcDbPolyline
 90
2
 70
0
 10
932.895378
 20
1260.045900
 30
0.0
 10
933.208930
 20
1262.025600
 30
0.0
  0
LWPOLYLINE
  5
3d8
100
AcDbEntity
  8
0
 62
7
100
AcDbPolyline
 90
2
 70
0
 10
984.537772
 20
1260.045900
 30
0.0
 10
984.224220
 20
1262.025600
 30
0.0
  0
LWPOLYLINE
  5
3d9
100
AcDbEntity
  8
0
 62
7
100
AcDbPolyline
 90
2
 70
0
 10
991.417605
 20
1255.047375
 30
0.0
 10
993.397320
 20
1255.360950
 30
0.0
  0
LWPOLYLINE
  5
3da
100
AcDbEntity
  8
0
 62
7
100
AcDbPolyline
 90
2
 70
0
 10
1007.375985
 20
1205.932575
 30
0.0
 10
1009.161915
 20
1206.842550
 30
0.0
  0
LWPOLYLINE
  5
3db
100
AcDbEntity
  8
0
 62
7
100
AcDbPolyline
 90
2
 70
0
 10
1004.748120
 20
1197.844800
 30
0.0
 10
1005.658095
 20
1196.058900
 30
0.0
  0
LWPOLYLINE
  5
3dc
100
AcDbEntity
  8
0
 62
7
100
AcDbPolyline
 90
2
 70
0
 10
962.968545
 20
1167.490200
 30
0.0
 10
964.385865
 20
1166.072850
 30
0.0
  0
LWPOLYLINE
  5
3dd
100
AcDbEntity
  8
0
 62
7
100
AcDbPolyline
 90
2
 70
0
 10
953.047285
 20
1166.072850
 30
0.0
 10
954.464605
 20
1167.490200
 30
0.0
  0
LWPOLYLINE
  5
3de
100
AcDbEntity
  8
0
 62
7
100
AcDbPolyline
 90
2
 70
0
 10
912.685030
 20
1197.844800
 30
0.0
 10
911.775055
 20
1196.058900
 30
0.0
  0
LWPOLYLINE
  5
3df
100
AcDbEntity
  8
0
 62
7
100
AcDbPolyline
 90
2
 70
0
 10
910.057165
 20
1205.932575
 30
0.0
 10
908.271235
 20
1206.842550
 30
0.0
  0
LWPOLYLINE
  5
3e0
100
AcDbEntity
  8
0
 62
7
100
AcDbPolyline
 90
2
 70
0
 10
924.816618
 20
1081.500817
 30
0.0
 10
922.188753
 20
1089.588517
 30
0.0
  0
LWPOLYLINE
  5
3e1
100
AcDbEntity
  8
0
 62
7
100
AcDbPolyline
 90
2
 70
0
 10
995.915047
 20
1045.787017
 30
0.0
 10
1005.658095
 20
1075.773067
 30
0.0
  0
LWPOLYLINE
  5
3e2
100
AcDbEntity
  8
0
 62
7
100
AcDbPolyline
 90
2
 70
0
 10
1018.904962
 20
1116.542768
 30
0.0
 10
993.397320
 20
1135.075118
 30
0.0
  0
LWPOLYLINE
  5
3e3
100
AcDbEntity
  8
0
 62
7
100
AcDbPolyline
 90
2
 70
0
 10
958.716573
 20
1160.272162
 30
0.0
 10
933.208930
 20
1141.739767
 30
0.0
  0
LWPOLYLINE
  5
3e4
100
AcDbEntity
  8
0
 62
7
100
AcDbPolyline
 90
2
 70
0
 10
898.528188
 20
1116.542768
 30
0.0
 10
908.271235
 20
1086.556717
 30
0.0
  0
LWPOLYLINE
  5
3e5
100
AcDbEntity
  8
0
 62
7
100
AcDbPolyline
 90
2
 70
0
 10
921.518103
 20
1045.787017
 30
0.0
 10
953.047285
 20
1045.787017
 30
0.0
  0
LWPOLYLINE
  5
3e6
100
AcDbEntity
  8
0
 62
7
100
AcDbPolyline
 90
2
 70
0
 10
962.968545
 20
1059.960292
 30
0.0
 10
954.464605
 20
1059.960292
 30
0.0
  0
LWPOLYLINE
  5
3e7
100
AcDbEntity
  8
0
 62
7
100
AcDbPolyline
 90
2
 70
0
 10
962.968545
 20
1059.960292
 30
0.0
 10
962.968545
 20
1047.204367
 30
0.0
  0
LWPOLYLINE
  5
3e8
100
AcDbEntity
  8
0
 62
7
100
AcDbPolyline
 90
2
 70
0
 10
954.464605
 20
1059.960292
 30
0.0
 10
954.464605
 20
1047.204367
 30
0.0
  0
LWPOLYLINE
  5
3e9
100
AcDbEntity
  8
0
 62
7
100
AcDbPolyline
 90
2
 70
0
 10
922.188753
 20
1089.588517
 30
0.0
 10
910.057165
 20
1085.646743
 30
0.0
  0
LWPOLYLINE
  5
3ea
100
AcDbEntity
  8
0
 62
7
100
AcDbPolyline
 90
2
 70
0
 10
924.816618
 20
1081.500817
 30
0.0
 10
912.685030
 20
1077.558967
 30
0.0
  0
LWPOLYLINE
  5
3eb
100
AcDbEntity
  8
0
 62
7
100
AcDbPolyline
 90
3
 70
0
 10
933.513280
 20
1124.441842
 30
0.0
 10
940.393113
 20
1129.440292
 30
0.0
 10
932.895378
 20
1139.760067
 30
0.0
  0
LWPOLYLINE
  5
3ec
100
AcDbEntity
  8
0
 62
7
100
AcDbPolyline
 90
2
 70
0
 10
933.513280
 20
1124.441842
 30
0.0
 10
926.015545
 20
1134.761542
 30
0.0
  0
LWPOLYLINE
  5
3ed
100
AcDbEntity
  8
0
 62
7
100
AcDbPolyline
 90
3
 70
0
 10
977.040037
 20
1129.440292
 30
0.0
 10
983.919870
 20
1124.441842
 30
0.0
 10
991.417605
 20
1134.761542
 30
0.0
  0
LWPOLYLINE
  5
3ee
100
AcDbEntity
  8
0
 62
7
100
AcDbPolyline
 90
2
 70
0
 10
977.040037
 20
1129.440292
 30
0.0
 10
984.537772
 20
1139.760067
 30
0.0
  0
LWPOLYLINE
  5
3ef
100
AcDbEntity
  8
0
 62
7
100
AcDbPolyline
 90
3
 70
0
 10
995.244397
 20
1089.588517
 30
0.0
 10
992.616532
 20
1081.500817
 30
0.0
 10
1004.748120
 20
1077.558967
 30
0.0
  0
LWPOLYLINE
  5
3f0
100
AcDbEntity
  8
0
 62
7
100
AcDbPolyline
 90
2
 70
0
 10
995.244397
 20
1089.588517
 30
0.0
 10
1007.375985
 20
1085.646743
 30
0.0
  0
LWPOLYLINE
  5
3f1
100
AcDbEntity
  8
0
 62
7
100
AcDbPolyline
 90
2
 70
0
 10
984.224220
 20
1141.739767
 30
0.0
 10
958.716573
 20
1160.272162
 30
0.0
  0
LWPOLYLINE
  5
3f2
100
AcDbEntity
  8
0
 62
7
100
AcDbPolyline
 90
2
 70
0
 10
1009.161915
 20
1086.556717
 30
0.0
 10
1018.904962
 20
1116.542768
 30
0.0
  0
LWPOLYLINE
  5
3f3
100
AcDbEntity
  8
0
 62
7
100
AcDbPolyline
 90
2
 70
0
 10
964.385865
 20
1045.787017
 30
0.0
 10
995.915047
 20
1045.787017
 30
0.0
  0
LWPOLYLINE
  5
3f4
100
AcDbEntity
  8
0
 62
7
100
AcDbPolyline
 90
2
 70
0
 10
911.775055
 20
1075.773067
 30
0.0
 10
921.518103
 20
1045.787017
 30
0.0
  0
LWPOLYLINE
  5
3f5
100
AcDbEntity
  8
0
 62
7
100
AcDbPolyline
 90
2
 70
0
 10
924.035830
 20
1135.075118
 30
0.0
 10
898.528188
 20
1116.542768
 30
0.0
  0
LWPOLYLINE
  5
3f6
100
AcDbEntity
  8
0
 62
7
100
AcDbPolyline
 90
2
 70
0
 10
926.015545
 20
1134.761542
 30
0.0
 10
924.035830
 20
1135.075118
 30
0.0
  0
LWPOLYLINE
  5
3f7
100
AcDbEntity
  8
0
 62
7
100
AcDbPolyline
 90
2
 70
0
 10
932.895378
 20
1139.760067
 30
0.0
 10
933.208930
 20
1141.739767
 30
0.0
  0
LWPOLYLINE
  5
3f8
100
AcDbEntity
  8
0
 62
7
100
AcDbPolyline
 90
2
 70
0
 10
984.537772
 20
1139.760067
 30
0.0
 10
984.224220
 20
1141.739767
 30
0.0
  0
LWPOLYLINE
  5
3f9
100
AcDbEntity
  8
0
 62
7
100
AcDbPolyline
 90
2
 70
0
 10
991.417605
 20
1134.761542
 30
0.0
 10
993.397320
 20
1135.075118
 30
0.0
  0
LWPOLYLINE
  5
3fa
100
AcDbEntity
  8
0
 62
7
100
AcDbPolyline
 90
2
 70
0
 10
1007.375985
 20
1085.646743
 30
0.0
 10
1009.161915
 20
1086.556717
 30
0.0
  0
LWPOLYLINE
  5
3fb
100
AcDbEntity
  8
0
 62
7
100
AcDbPolyline
 90
2
 70
0
 10
1004.748120
 20
1077.558967
 30
0.0
 10
1005.658095
 20
1075.773067
 30
0.0
  0
LWPOLYLINE
  5
3fc
100
AcDbEntity
  8
0
 62
7
100
AcDbPolyline
 90
2
 70
0
 10
962.968545
 20
1047.204367
 30
0.0
 10
964.385865
 20
1045.787018
 30
0.0
  0
LWPOLYLINE
  5
3fd
100
AcDbEntity
  8
0
 62
7
100
AcDbPolyline
 90
2
 70
0
 10
953.047285
 20
1045.787017
 30
0.0
 10
954.464605
 20
1047.204367
 30
0.0
  0
LWPOLYLINE
  5
3fe
100
AcDbEntity
  8
0
 62
7
100
AcDbPolyline
 90
2
 70
0
 10
912.685030
 20
1077.558967
 30
0.0
 10
911.775055
 20
1075.773067
 30
0.0
  0
LWPOLYLINE
  5
3ff
100
AcDbEntity
  8
0
 62
7
100
AcDbPolyline
 90
2
 70
0
 10
910.057165
 20
1085.646743
 30
0.0
 10
908.271235
 20
1086.556717
 30
0.0
  0
LWPOLYLINE
  5
400
100
AcDbEntity
  8
0
 62
7
100
AcDbPolyline
 90
2
 70
0
 10
924.816618
 20
961.214985
 30
0.0
 10
922.188753
 20
969.302685
 30
0.0
  0
LWPOLYLINE
  5
401
100
AcDbEntity
  8
0
 62
7
100
AcDbPolyline
 90
2
 70
0
 10
995.915047
 20
925.501185
 30
0.0
 10
1005.658095
 20
955.487235
 30
0.0
  0
LWPOLYLINE
  5
402
100
AcDbEntity
  8
0
 62
7
100
AcDbPolyline
 90
2
 70
0
 10
1018.904962
 20
996.256935
 30
0.0
 10
993.397320
 20
1014.789285
 30
0.0
  0
LWPOLYLINE
  5
403
100
AcDbEntity
  8
0
 62
7
100
AcDbPolyline
 90
2
 70
0
 10
958.716573
 20
1039.986330
 30
0.0
 10
933.208930
 20
1021.453935
 30
0.0
  0
LWPOLYLINE
  5
404
100
AcDbEntity
  8
0
 62
7
100
AcDbPolyline
 90
2
 70
0
 10
898.528188
 20
996.256935
 30
0.0
 10
908.271235
 20
966.270885
 30
0.0
  0
LWPOLYLINE
  5
405
100
AcDbEntity
  8
0
 62
7
100
AcDbPolyline
 90
2
 70
0
 10
921.518103
 20
925.501185
 30
0.0
 10
953.047285
 20
925.501185
 30
0.0
  0
LWPOLYLINE
  5
406
100
AcDbEntity
  8
0
 62
7
100
AcDbPolyline
 90
2
 70
0
 10
962.968545
 20
939.674460
 30
0.0
 10
954.464605
 20
939.674460
 30
0.0
  0
LWPOLYLINE
  5
407
100
AcDbEntity
  8
0
 62
7
100
AcDbPolyline
 90
2
 70
0
 10
962.968545
 20
939.674460
 30
0.0
 10
962.968545
 20
926.918535
 30
0.0
  0
LWPOLYLINE
  5
408
100
AcDbEntity
  8
0
 62
7
100
AcDbPolyline
 90
2
 70
0
 10
954.464605
 20
939.674460
 30
0.0
 10
954.464605
 20
926.918535
 30
0.0
  0
LWPOLYLINE
  5
409
100
AcDbEntity
  8
0
 62
7
100
AcDbPolyline
 90
2
 70
0
 10
922.188753
 20
969.302685
 30
0.0
 10
910.057165
 20
965.360910
 30
0.0
  0
LWPOLYLINE
  5
40a
100
AcDbEntity
  8
0
 62
7
100
AcDbPolyline
 90
2
 70
0
 10
924.816618
 20
961.214985
 30
0.0
 10
912.685030
 20
957.273135
 30
0.0
  0
LWPOLYLINE
  5
40b
100
AcDbEntity
  8
0
 62
7
100
AcDbPolyline
 90
3
 70
0
 10
933.513280
 20
1004.156010
 30
0.0
 10
940.393113
 20
1009.154460
 30
0.0
 10
932.895378
 20
1019.474235
 30
0.0
  0
LWPOLYLINE
  5
40c
100
AcDbEntity
  8
0
 62
7
100
AcDbPolyline
 90
2
 70
0
 10
933.513280
 20
1004.156010
 30
0.0
 10
926.015545
 20
1014.475710
 30
0.0
  0
LWPOLYLINE
  5
40d
100
AcDbEntity
  8
0
 62
7
100
AcDbPolyline
 90
3
 70
0
 10
977.040037
 20
1009.154460
 30
0.0
 10
983.919870
 20
1004.156010
 30
0.0
 10
991.417605
 20
1014.475710
 30
0.0
  0
LWPOLYLINE
  5
40e
100
AcDbEntity
  8
0
 62
7
100
AcDbPolyline
 90
2
 70
0
 10
977.040037
 20
1009.154460
 30
0.0
 10
984.537772
 20
1019.474235
 30
0.0
  0
LWPOLYLINE
  5
40f
100
AcDbEntity
  8
0
 62
7
100
AcDbPolyline
 90
3
 70
0
 10
995.244397
 20
969.302685
 30
0.0
 10
992.616532
 20
961.214985
 30
0.0
 10
1004.748120
 20
957.273135
 30
0.0
  0
LWPOLYLINE
  5
410
100
AcDbEntity
  8
0
 62
7
100
AcDbPolyline
 90
2
 70
0
 10
995.244397
 20
969.302685
 30
0.0
 10
1007.375985
 20
965.360910
 30
0.0
  0
LWPOLYLINE
  5
411
100
AcDbEntity
  8
0
 62
7
100
AcDbPolyline
 90
2
 70
0
 10
984.224220
 20
1021.453935
 30
0.0
 10
958.716573
 20
1039.986330
 30
0.0
  0
LWPOLYLINE
  5
412
100
AcDbEntity
  8
0
 62
7
100
AcDbPolyline
 90
2
 70
0
 10
1009.161915
 20
966.270885
 30
0.0
 10
1018.904962
 20
996.256935
 30
0.0
  0
LWPOLYLINE
  5
413
100
AcDbEntity
  8
0
 62
7
100
AcDbPolyline
 90
2
 70
0
 10
964.385865
 20
925.501185
 30
0.0
 10
995.915047
 20
925.501185
 30
0.0
  0
LWPOLYLINE
  5
414
100
AcDbEntity
  8
0
 62
7
100
AcDbPolyline
 90
2
 70
0
 10
911.775055
 20
955.487235
 30
0.0
 10
921.518103
 20
925.501185
 30
0.0
  0
LWPOLYLINE
  5
415
100
AcDbEntity
  8
0
 62
7
100
AcDbPolyline
 90
2
 70
0
 10
924.035830
 20
1014.789285
 30
0.0
 10
898.528188
 20
996.256935
 30
0.0
  0
LWPOLYLINE
  5
416
100
AcDbEntity
  8
0
 62
7
100
AcDbPolyline
 90
2
 70
0
 10
926.015545
 20
1014.475710
 30
0.0
 10
924.035830
 20
1014.789285
 30
0.0
  0
LWPOLYLINE
  5
417
100
AcDbEntity
  8
0
 62
7
100
AcDbPolyline
 90
2
 70
0
 10
932.895378
 20
1019.474235
 30
0.0
 10
933.208930
 20
1021.453935
 30
0.0
  0
LWPOLYLINE
  5
418
100
AcDbEntity
  8
0
 62
7
100
AcDbPolyline
 90
2
 70
0
 10
984.537772
 20
1019.474235
 30
0.0
 10
984.224220
 20
1021.453935
 30
0.0
  0
LWPOLYLINE
  5
419
100
AcDbEntity
  8
0
 62
7
100
AcDbPolyline
 90
2
 70
0
 10
991.417605
 20
1014.475710
 30
0.0
 10
993.397320
 20
1014.789285
 30
0.0
  0
LWPOLYLINE
  5
41a
100
AcDbEntity
  8
0
 62
7
100
AcDbPolyline
 90
2
 70
0
 10
1007.375985
 20
965.360910
 30
0.0
 10
1009.161915
 20
966.270885
 30
0.0
  0
LWPOLYLINE
  5
41b
100
AcDbEntity
  8
0
 62
7
100
AcDbPolyline
 90
2
 70
0
 10
1004.748120
 20
957.273135
 30
0.0
 10
1005.658095
 20
955.487235
 30
0.0
  0
LWPOLYLINE
  5
41c
100
AcDbEntity
  8
0
 62
7
100
AcDbPolyline
 90
2
 70
0
 10
962.968545
 20
926.918535
 30
0.0
 10
964.385865
 20
925.501185
 30
0.0
  0
LWPOLYLINE
  5
41d
100
AcDbEntity
  8
0
 62
7
100
AcDbPolyline
 90
2
 70
0
 10
953.047285
 20
925.501185
 30
0.0
 10
954.464605
 20
926.918535
 30
0.0
  0
LWPOLYLINE
  5
41e
100
AcDbEntity
  8
0
 62
7
100
AcDbPolyline
 90
2
 70
0
 10
912.685030
 20
957.273135
 30
0.0
 10
911.775055
 20
955.487235
 30
0.0
  0
LWPOLYLINE
  5
41f
100
AcDbEntity
  8
0
 62
7
100
AcDbPolyline
 90
2
 70
0
 10
910.057165
 20
965.360910
 30
0.0
 10
908.271235
 20
966.270885
 30
0.0
  0
LWPOLYLINE
  5
420
100
AcDbEntity
  8
0
 62
7
100
AcDbPolyline
 90
2
 70
0
 10
1051.288743
 20
1201.786650
 30
0.0
 10
1048.660878
 20
1209.874350
 30
0.0
  0
LWPOLYLINE
  5
421
100
AcDbEntity
  8
0
 62
7
100
AcDbPolyline
 90
2
 70
0
 10
1122.387172
 20
1166.072850
 30
0.0
 10
1132.130220
 20
1196.058900
 30
0.0
  0
LWPOLYLINE
  5
422
100
AcDbEntity
  8
0
 62
7
100
AcDbPolyline
 90
2
 70
0
 10
1145.377088
 20
1236.828600
 30
0.0
 10
1119.869445
 20
1255.360950
 30
0.0
  0
LWPOLYLINE
  5
423
100
AcDbEntity
  8
0
 62
7
100
AcDbPolyline
 90
2
 70
0
 10
1085.188698
 20
1280.557995
 30
0.0
 10
1059.681055
 20
1262.025600
 30
0.0
  0
LWPOLYLINE
  5
424
100
AcDbEntity
  8
0
 62
7
100
AcDbPolyline
 90
2
 70
0
 10
1025.000313
 20
1236.828600
 30
0.0
 10
1034.743360
 20
1206.842550
 30
0.0
  0
LWPOLYLINE
  5
425
100
AcDbEntity
  8
0
 62
7
100
AcDbPolyline
 90
2
 70
0
 10
1047.990228
 20
1166.072850
 30
0.0
 10
1079.519410
 20
1166.072850
 30
0.0
  0
LWPOLYLINE
  5
426
100
AcDbEntity
  8
0
 62
7
100
AcDbPolyline
 90
2
 70
0
 10
1089.440670
 20
1180.246125
 30
0.0
 10
1080.936730
 20
1180.246125
 30
0.0
  0
LWPOLYLINE
  5
427
100
AcDbEntity
  8
0
 62
7
100
AcDbPolyline
 90
2
 70
0
 10
1089.440670
 20
1180.246125
 30
0.0
 10
1089.440670
 20
1167.490200
 30
0.0
  0
LWPOLYLINE
  5
428
100
AcDbEntity
  8
0
 62
7
100
AcDbPolyline
 90
2
 70
0
 10
1080.936730
 20
1180.246125
 30
0.0
 10
1080.936730
 20
1167.490200
 30
0.0
  0
LWPOLYLINE
  5
429
100
AcDbEntity
  8
0
 62
7
100
AcDbPolyline
 90
2
 70
0
 10
1048.660878
 20
1209.874350
 30
0.0
 10
1036.529290
 20
1205.932575
 30
0.0
  0
LWPOLYLINE
  5
42a
100
AcDbEntity
  8
0
 62
7
100
AcDbPolyline
 90
2
 70
0
 10
1051.288743
 20
1201.786650
 30
0.0
 10
1039.157155
 20
1197.844800
 30
0.0
  0
LWPOLYLINE
  5
42b
100
AcDbEntity
  8
0
 62
7
100
AcDbPolyline
 90
3
 70
0
 10
1059.985405
 20
1244.727675
 30
0.0
 10
1066.865238
 20
1249.726125
 30
0.0
 10
1059.367503
 20
1260.045900
 30
0.0
  0
LWPOLYLINE
  5
42c
100
AcDbEntity
  8
0
 62
7
100
AcDbPolyline
 90
2
 70
0
 10
1059.985405
 20
1244.727675
 30
0.0
 10
1052.487670
 20
1255.047375
 30
0.0
  0
LWPOLYLINE
  5
42d
100
AcDbEntity
  8
0
 62
7
100
AcDbPolyline
 90
3
 70
0
 10
1103.512162
 20
1249.726125
 30
0.0
 10
1110.391995
 20
1244.727675
 30
0.0
 10
1117.889730
 20
1255.047375
 30
0.0
  0
LWPOLYLINE
  5
42e
100
AcDbEntity
  8
0
 62
7
100
AcDbPolyline
 90
2
 70
0
 10
1103.512162
 20
1249.726125
 30
0.0
 10
1111.009897
 20
1260.045900
 30
0.0
  0
LWPOLYLINE
  5
42f
100
AcDbEntity
  8
0
 62
7
100
AcDbPolyline
 90
3
 70
0
 10
1121.716522
 20
1209.874350
 30
0.0
 10
1119.088657
 20
1201.786650
 30
0.0
 10
1131.220245
 20
1197.844800
 30
0.0
  0
LWPOLYLINE
  5
430
100
AcDbEntity
  8
0
 62
7
100
AcDbPolyline
 90
2
 70
0
 10
1121.716522
 20
1209.874350
 30
0.0
 10
1133.848110
 20
1205.932575
 30
0.0
  0
LWPOLYLINE
  5
431
100
AcDbEntity
  8
0
 62
7
100
AcDbPolyline
 90
2
 70
0
 10
1110.696345
 20
1262.025600
 30
0.0
 10
1085.188698
 20
1280.557995
 30
0.0
  0
LWPOLYLINE
  5
432
100
AcDbEntity
  8
0
 62
7
100
AcDbPolyline
 90
2
 70
0
 10
1135.634040
 20
1206.842550
 30
0.0
 10
1145.377088
 20
1236.828600
 30
0.0
  0
LWPOLYLINE
  5
433
100
AcDbEntity
  8
0
 62
7
100
AcDbPolyline
 90
2
 70
0
 10
1090.857990
 20
1166.072850
 30
0.0
 10
1122.387172
 20
1166.072850
 30
0.0
  0
LWPOLYLINE
  5
434
100
AcDbEntity
  8
0
 62
7
100
AcDbPolyline
 90
2
 70
0
 10
1038.247180
 20
1196.058900
 30
0.0
 10
1047.990228
 20
1166.072850
 30
0.0
  0
LWPOLYLINE
  5
435
100
AcDbEntity
  8
0
 62
7
100
AcDbPolyline
 90
2
 70
0
 10
1050.507955
 20
1255.360950
 30
0.0
 10
1025.000313
 20
1236.828600
 30
0.0
  0
LWPOLYLINE
  5
436
100
AcDbEntity
  8
0
 62
7
100
AcDbPolyline
 90
2
 70
0
 10
1052.487670
 20
1255.047375
 30
0.0
 10
1050.507955
 20
1255.360950
 30
0.0
  0
LWPOLYLINE
  5
437
100
AcDbEntity
  8
0
 62
7
100
AcDbPolyline
 90
2
 70
0
 10
1059.367503
 20
1260.045900
 30
0.0
 10
1059.681055
 20
1262.025600
 30
0.0
  0
LWPOLYLINE
  5
438
100
AcDbEntity
  8
0
 62
7
100
AcDbPolyline
 90
2
 70
0
 10
1111.009897
 20
1260.045900
 30
0.0
 10
1110.696345
 20
1262.025600
 30
0.0
  0
LWPOLYLINE
  5
439
100
AcDbEntity
  8
0
 62
7
100
AcDbPolyline
 90
2
 70
0
 10
1117.889730
 20
1255.047375
 30
0.0
 10
1119.869445
 20
1255.360950
 30
0.0
  0
LWPOLYLINE
  5
43a
100
AcDbEntity
  8
0
 62
7
100
AcDbPolyline
 90
2
 70
0
 10
1133.848110
 20
1205.932575
 30
0.0
 10
1135.634040
 20
1206.842550
 30
0.0
  0
LWPOLYLINE
  5
43b
100
AcDbEntity
  8
0
 62
7
100
AcDbPolyline
 90
2
 70
0
 10
1131.220245
 20
1197.844800
 30
0.0
 10
1132.130220
 20
1196.058900
 30
0.0
  0
LWPOLYLINE
  5
43c
100
AcDbEntity
  8
0
 62
7
100
AcDbPolyline
 90
2
 70
0
 10
1089.440670
 20
1167.490200
 30
0.0
 10
1090.857990
 20
1166.072850
 30
0.0
  0
LWPOLYLINE
  5
43d
100
AcDbEntity
  8
0
 62
7
100
AcDbPolyline
 90
2
 70
0
 10
1079.519410
 20
1166.072850
 30
0.0
 10
1080.936730
 20
1167.490200
 30
0.0
  0
LWPOLYLINE
  5
43e
100
AcDbEntity
  8
0
 62
7
100
AcDbPolyline
 90
2
 70
0
 10
1039.157155
 20
1197.844800
 30
0.0
 10
1038.247180
 20
1196.058900
 30
0.0
  0
LWPOLYLINE
  5
43f
100
AcDbEntity
  8
0
 62
7
100
AcDbPolyline
 90
2
 70
0
 10
1036.529290
 20
1205.932575
 30
0.0
 10
1034.743360
 20
1206.842550
 30
0.0
  0
LWPOLYLINE
  5
440
100
AcDbEntity
  8
0
 62
7
100
AcDbPolyline
 90
2
 70
0
 10
1051.288743
 20
1081.500817
 30
0.0
 10
1048.660878
 20
1089.588517
 30
0.0
  0
LWPOLYLINE
  5
441
100
AcDbEntity
  8
0
 62
7
100
AcDbPolyline
 90
2
 70
0
 10
1122.387172
 20
1045.787017
 30
0.0
 10
1132.130220
 20
1075.773067
 30
0.0
  0
LWPOLYLINE
  5
442
100
AcDbEntity
  8
0
 62
7
100
AcDbPolyline
 90
2
 70
0
 10
1145.377088
 20
1116.542768
 30
0.0
 10
1119.869445
 20
1135.075118
 30
0.0
  0
LWPOLYLINE
  5
443
100
AcDbEntity
  8
0
 62
7
100
AcDbPolyline
 90
2
 70
0
 10
1085.188698
 20
1160.272162
 30
0.0
 10
1059.681055
 20
1141.739767
 30
0.0
  0
LWPOLYLINE
  5
444
100
AcDbEntity
  8
0
 62
7
100
AcDbPolyline
 90
2
 70
0
 10
1025.000313
 20
1116.542768
 30
0.0
 10
1034.743360
 20
1086.556717
 30
0.0
  0
LWPOLYLINE
  5
445
100
AcDbEntity
  8
0
 62
7
100
AcDbPolyline
 90
2
 70
0
 10
1047.990228
 20
1045.787017
 30
0.0
 10
1079.519410
 20
1045.787017
 30
0.0
  0
LWPOLYLINE
  5
446
100
AcDbEntity
  8
0
 62
7
100
AcDbPolyline
 90
2
 70
0
 10
1089.440670
 20
1059.960292
 30
0.0
 10
1080.936730
 20
1059.960292
 30
0.0
  0
LWPOLYLINE
  5
447
100
AcDbEntity
  8
0
 62
7
100
AcDbPolyline
 90
2
 70
0
 10
1089.440670
 20
1059.960292
 30
0.0
 10
1089.440670
 20
1047.204367
 30
0.0
  0
LWPOLYLINE
  5
448
100
AcDbEntity
  8
0
 62
7
100
AcDbPolyline
 90
2
 70
0
 10
1080.936730
 20
1059.960292
 30
0.0
 10
1080.936730
 20
1047.204367
 30
0.0
  0
LWPOLYLINE
  5
449
100
AcDbEntity
  8
0
 62
7
100
AcDbPolyline
 90
2
 70
0
 10
1048.660878
 20
1089.588517
 30
0.0
 10
1036.529290
 20
1085.646743
 30
0.0
  0
LWPOLYLINE
  5
44a
100
AcDbEntity
  8
0
 62
7
100
AcDbPolyline
 90
2
 70
0
 10
1051.288743
 20
1081.500817
 30
0.0
 10
1039.157155
 20
1077.558967
 30
0.0
  0
LWPOLYLINE
  5
44b
100
AcDbEntity
  8
0
 62
7
100
AcDbPolyline
 90
3
 70
0
 10
1059.985405
 20
1124.441842
 30
0.0
 10
1066.865238
 20
1129.440292
 30
0.0
 10
1059.367503
 20
1139.760067
 30
0.0
  0
LWPOLYLINE
  5
44c
100
AcDbEntity
  8
0
 62
7
100
AcDbPolyline
 90
2
 70
0
 10
1059.985405
 20
1124.441842
 30
0.0
 10
1052.487670
 20
1134.761542
 30
0.0
  0
LWPOLYLINE
  5
44d
100
AcDbEntity
  8
0
 62
7
100
AcDbPolyline
 90
3
 70
0
 10
1103.512162
 20
1129.440292
 30
0.0
 10
1110.391995
 20
1124.441842
 30
0.0
 10
1117.889730
 20
1134.761542
 30
0.0
  0
LWPOLYLINE
  5
44e
100
AcDbEntity
  8
0
 62
7
100
AcDbPolyline
 90
2
 70
0
 10
1103.512162
 20
1129.440292
 30
0.0
 10
1111.009897
 20
1139.760067
 30
0.0
  0
LWPOLYLINE
  5
44f
100
AcDbEntity
  8
0
 62
7
100
AcDbPolyline
 90
3
 70
0
 10
1121.716522
 20
1089.588517
 30
0.0
 10
1119.088657
 20
1081.500817
 30
0.0
 10
1131.220245
 20
1077.558967
 30
0.0
  0
LWPOLYLINE
  5
450
100
AcDbEntity
  8
0
 62
7
100
AcDbPolyline
 90
2
 70
0
 10
1121.716522
 20
1089.588517
 30
0.0
 10
1133.848110
 20
1085.646743
 30
0.0
  0
LWPOLYLINE
  5
451
100
AcDbEntity
  8
0
 62
7
100
AcDbPolyline
 90
2
 70
0
 10
1110.696345
 20
1141.739767
 30
0.0
 10
1085.188698
 20
1160.272162
 30
0.0
  0
LWPOLYLINE
  5
452
100
AcDbEntity
  8
0
 62
7
100
AcDbPolyline
 90
2
 70
0
 10
1135.634040
 20
1086.556717
 30
0.0
 10
1145.377088
 20
1116.542768
 30
0.0
  0
LWPOLYLINE
  5
453
100
AcDbEntity
  8
0
 62
7
100
AcDbPolyline
 90
2
 70
0
 10
1090.857990
 20
1045.787017
 30
0.0
 10
1122.387172
 20
1045.787017
 30
0.0
  0
LWPOLYLINE
  5
454
100
AcDbEntity
  8
0
 62
7
100
AcDbPolyline
 90
2
 70
0
 10
1038.247180
 20
1075.773067
 30
0.0
 10
1047.990228
 20
1045.787017
 30
0.0
  0
LWPOLYLINE
  5
455
100
AcDbEntity
  8
0
 62
7
100
AcDbPolyline
 90
2
 70
0
 10
1050.507955
 20
1135.075118
 30
0.0
 10
1025.000313
 20
1116.542768
 30
0.0
  0
LWPOLYLINE
  5
456
100
AcDbEntity
  8
0
 62
7
100
AcDbPolyline
 90
2
 70
0
 10
1052.487670
 20
1134.761542
 30
0.0
 10
1050.507955
 20
1135.075118
 30
0.0
  0
LWPOLYLINE
  5
457
100
AcDbEntity
  8
0
 62
7
100
AcDbPolyline
 90
2
 70
0
 10
1059.367503
 20
1139.760067
 30
0.0
 10
1059.681055
 20
1141.739767
 30
0.0
  0
LWPOLYLINE
  5
458
100
AcDbEntity
  8
0
 62
7
100
AcDbPolyline
 90
2
 70
0
 10
1111.009897
 20
1139.760067
 30
0.0
 10
1110.696345
 20
1141.739767
 30
0.0
  0
LWPOLYLINE
  5
459
100
AcDbEntity
  8
0
 62
7
100
AcDbPolyline
 90
2
 70
0
 10
1117.889730
 20
1134.761542
 30
0.0
 10
1119.869445
 20
1135.075118
 30
0.0
  0
LWPOLYLINE
  5
45a
100
AcDbEntity
  8
0
 62
7
100
AcDbPolyline
 90
2
 70
0
 10
1133.848110
 20
1085.646743
 30
0.0
 10
1135.634040
 20
1086.556717
 30
0.0
  0
LWPOLYLINE
  5
45b
100
AcDbEntity
  8
0
 62
7
100
AcDbPolyline
 90
2
 70
0
 10
1131.220245
 20
1077.558967
 30
0.0
 10
1132.130220
 20
1075.773067
 30
0.0
  0
LWPOLYLINE
  5
45c
100
AcDbEntity
  8
0
 62
7
100
AcDbPolyline
 90
2
 70
0
 10
1089.440670
 20
1047.204367
 30
0.0
 10
1090.857990
 20
1045.787018
 30
0.0
  0
LWPOLYLINE
  5
45d
100
AcDbEntity
  8
0
 62
7
100
AcDbPolyline
 90
2
 70
0
 10
1079.519410
 20
1045.787017
 30
0.0
 10
1080.936730
 20
1047.204367
 30
0.0
  0
LWPOLYLINE
  5
45e
100
AcDbEntity
  8
0
 62
7
100
AcDbPolyline
 90
2
 70
0
 10
1039.157155
 20
1077.558967
 30
0.0
 10
1038.247180
 20
1075.773067
 30
0.0
  0
LWPOLYLINE
  5
45f
100
AcDbEntity
  8
0
 62
7
100
AcDbPolyline
 90
2
 70
0
 10
1036.529290
 20
1085.646743
 30
0.0
 10
1034.743360
 20
1086.556717
 30
0.0
  0
LWPOLYLINE
  5
460
100
AcDbEntity
  8
0
 62
7
100
AcDbPolyline
 90
2
 70
0
 10
1051.288743
 20
961.214985
 30
0.0
 10
1048.660878
 20
969.302685
 30
0.0
  0
LWPOLYLINE
  5
461
100
AcDbEntity
  8
0
 62
7
100
AcDbPolyline
 90
2
 70
0
 10
1122.387172
 20
925.501185
 30
0.0
 10
1132.130220
 20
955.487235
 30
0.0
  0
LWPOLYLINE
  5
462
100
AcDbEntity
  8
0
 62
7
100
AcDbPolyline
 90
2
 70
0
 10
1145.377088
 20
996.256935
 30
0.0
 10
1119.869445
 20
1014.789285
 30
0.0
  0
LWPOLYLINE
  5
463
100
AcDbEntity
  8
0
 62
7
100
AcDbPolyline
 90
2
 70
0
 10
1085.188698
 20
1039.986330
 30
0.0
 10
1059.681055
 20
1021.453935
 30
0.0
  0
LWPOLYLINE
  5
464
100
AcDbEntity
  8
0
 62
7
100
AcDbPolyline
 90
2
 70
0
 10
1025.000313
 20
996.256935
 30
0.0
 10
1034.743360
 20
966.270885
 30
0.0
  0
LWPOLYLINE
  5
465
100
AcDbEntity
  8
0
 62
7
100
AcDbPolyline
 90
2
 70
0
 10
1047.990228
 20
925.501185
 30
0.0
 10
1079.519410
 20
925.501185
 30
0.0
  0
LWPOLYLINE
  5
466
100
AcDbEntity
  8
0
 62
7
100
AcDbPolyline
 90
2
 70
0
 10
1089.440670
 20
939.674460
 30
0.0
 10
1080.936730
 20
939.674460
 30
0.0
  0
LWPOLYLINE
  5
467
100
AcDbEntity
  8
0
 62
7
100
AcDbPolyline
 90
2
 70
0
 10
1089.440670
 20
939.674460
 30
0.0
 10
1089.440670
 20
926.918535
 30
0.0
  0
LWPOLYLINE
  5
468
100
AcDbEntity
  8
0
 62
7
100
AcDbPolyline
 90
2
 70
0
 10
1080.936730
 20
939.674460
 30
0.0
 10
1080.936730
 20
926.918535
 30
0.0
  0
LWPOLYLINE
  5
469
100
AcDbEntity
  8
0
 62
7
100
AcDbPolyline
 90
2
 70
0
 10
1048.660878
 20
969.302685
 30
0.0
 10
1036.529290
 20
965.360910
 30
0.0
  0
LWPOLYLINE
  5
46a
100
AcDbEntity
  8
0
 62
7
100
AcDbPolyline
 90
2
 70
0
 10
1051.288743
 20
961.214985
 30
0.0
 10
1039.157155
 20
957.273135
 30
0.0
  0
LWPOLYLINE
  5
46b
100
AcDbEntity
  8
0
 62
7
100
AcDbPolyline
 90
3
 70
0
 10
1059.985405
 20
1004.156010
 30
0.0
 10
1066.865238
 20
1009.154460
 30
0.0
 10
1059.367503
 20
1019.474235
 30
0.0
  0
LWPOLYLINE
  5
46c
100
AcDbEntity
  8
0
 62
7
100
AcDbPolyline
 90
2
 70
0
 10
1059.985405
 20
1004.156010
 30
0.0
 10
1052.487670
 20
1014.475710
 30
0.0
  0
LWPOLYLINE
  5
46d
100
AcDbEntity
  8
0
 62
7
100
AcDbPolyline
 90
3
 70
0
 10
1103.512162
 20
1009.154460
 30
0.0
 10
1110.391995
 20
1004.156010
 30
0.0
 10
1117.889730
 20
1014.475710
 30
0.0
  0
LWPOLYLINE
  5
46e
100
AcDbEntity
  8
0
 62
7
100
AcDbPolyline
 90
2
 70
0
 10
1103.512162
 20
1009.154460
 30
0.0
 10
1111.009897
 20
1019.474235
 30
0.0
  0
LWPOLYLINE
  5
46f
100
AcDbEntity
  8
0
 62
7
100
AcDbPolyline
 90
3
 70
0
 10
1121.716522
 20
969.302685
 30
0.0
 10
1119.088657
 20
961.214985
 30
0.0
 10
1131.220245
 20
957.273135
 30
0.0
  0
LWPOLYLINE
  5
470
100
AcDbEntity
  8
0
 62
7
100
AcDbPolyline
 90
2
 70
0
 10
1121.716522
 20
969.302685
 30
0.0
 10
1133.848110
 20
965.360910
 30
0.0
  0
LWPOLYLINE
  5
471
100
AcDbEntity
  8
0
 62
7
100
AcDbPolyline
 90
2
 70
0
 10
1110.696345
 20
1021.453935
 30
0.0
 10
1085.188698
 20
1039.986330
 30
0.0
  0
LWPOLYLINE
  5
472
100
AcDbEntity
  8
0
 62
7
100
AcDbPolyline
 90
2
 70
0
 10
1135.634040
 20
966.270885
 30
0.0
 10
1145.377088
 20
996.256935
 30
0.0
  0
LWPOLYLINE
  5
473
100
AcDbEntity
  8
0
 62
7
100
AcDbPolyline
 90
2
 70
0
 10
1090.857990
 20
925.501185
 30
0.0
 10
1122.387172
 20
925.501185
 30
0.0
  0
LWPOLYLINE
  5
474
100
AcDbEntity
  8
0
 62
7
100
AcDbPolyline
 90
2
 70
0
 10
1038.247180
 20
955.487235
 30
0.0
 10
1047.990228
 20
925.501185
 30
0.0
  0
LWPOLYLINE
  5
475
100
AcDbEntity
  8
0
 62
7
100
AcDbPolyline
 90
2
 70
0
 10
1050.507955
 20
1014.789285
 30
0.0
 10
1025.000313
 20
996.256935
 30
0.0
  0
LWPOLYLINE
  5
476
100
AcDbEntity
  8
0
 62
7
100
AcDbPolyline
 90
2
 70
0
 10
1052.487670
 20
1014.475710
 30
0.0
 10
1050.507955
 20
1014.789285
 30
0.0
  0
LWPOLYLINE
  5
477
100
AcDbEntity
  8
0
 62
7
100
AcDbPolyline
 90
2
 70
0
 10
1059.367503
 20
1019.474235
 30
0.0
 10
1059.681055
 20
1021.453935
 30
0.0
  0
LWPOLYLINE
  5
478
100
AcDbEntity
  8
0
 62
7
100
AcDbPolyline
 90
2
 70
0
 10
1111.009897
 20
1019.474235
 30
0.0
 10
1110.696345
 20
1021.453935
 30
0.0
  0
LWPOLYLINE
  5
479
100
AcDbEntity
  8
0
 62
7
100
AcDbPolyline
 90
2
 70
0
 10
1117.889730
 20
1014.475710
 30
0.0
 10
1119.869445
 20
1014.789285
 30
0.0
  0
LWPOLYLINE
  5
47a
100
AcDbEntity
  8
0
 62
7
100
AcDbPolyline
 90
2
 70
0
 10
1133.848110
 20
965.360910
 30
0.0
 10
1135.634040
 20
966.270885
 30
0.0
  0
LWPOLYLINE
  5
47b
100
AcDbEntity
  8
0
 62
7
100
AcDbPolyline
 90
2
 70
0
 10
1131.220245
 20
957.273135
 30
0.0
 10
1132.130220
 20
955.487235
 30
0.0
  0
LWPOLYLINE
  5
47c
100
AcDbEntity
  8
0
 62
7
100
AcDbPolyline
 90
2
 70
0
 10
1089.440670
 20
926.918535
 30
0.0
 10
1090.857990
 20
925.501185
 30
0.0
  0
LWPOLYLINE
  5
47d
100
AcDbEntity
  8
0
 62
7
100
AcDbPolyline
 90
2
 70
0
 10
1079.519410
 20
925.501185
 30
0.0
 10
1080.936730
 20
926.918535
 30
0.0
  0
LWPOLYLINE
  5
47e
100
AcDbEntity
  8
0
 62
7
100
AcDbPolyline
 90
2
 70
0
 10
1039.157155
 20
957.273135
 30
0.0
 10
1038.247180
 20
955.487235
 30
0.0
  0
LWPOLYLINE
  5
47f
100
AcDbEntity
  8
0
 62
7
100
AcDbPolyline
 90
2
 70
0
 10
1036.529290
 20
965.360910
 30
0.0
 10
1034.743360
 20
966.270885
 30
0.0
  0
LWPOLYLINE
  5
480
100
AcDbEntity
  8
0
 62
7
100
AcDbPolyline
 90
2
 70
0
 10
1177.760793
 20
1201.786650
 30
0.0
 10
1175.132928
 20
1209.874350
 30
0.0
  0
LWPOLYLINE
  5
481
100
AcDbEntity
  8
0
 62
7
100
AcDbPolyline
 90
2
 70
0
 10
1248.859222
 20
1166.072850
 30
0.0
 10
1258.602270
 20
1196.058900
 30
0.0
  0
LWPOLYLINE
  5
482
100
AcDbEntity
  8
0
 62
7
100
AcDbPolyline
 90
2
 70
0
 10
1271.849137
 20
1236.828600
 30
0.0
 10
1246.341495
 20
1255.360950
 30
0.0
  0
LWPOLYLINE
  5
483
100
AcDbEntity
  8
0
 62
7
100
AcDbPolyline
 90
2
 70
0
 10
1211.660748
 20
1280.557995
 30
0.0
 10
1186.153106
 20
1262.025600
 30
0.0
  0
LWPOLYLINE
  5
484
100
AcDbEntity
  8
0
 62
7
100
AcDbPolyline
 90
2
 70
0
 10
1151.472363
 20
1236.828600
 30
0.0
 10
1161.215410
 20
1206.842550
 30
0.0
  0
LWPOLYLINE
  5
485
100
AcDbEntity
  8
0
 62
7
100
AcDbPolyline
 90
2
 70
0
 10
1174.462278
 20
1166.072850
 30
0.0
 10
1205.991460
 20
1166.072850
 30
0.0
  0
LWPOLYLINE
  5
486
100
AcDbEntity
  8
0
 62
7
100
AcDbPolyline
 90
2
 70
0
 10
1215.912720
 20
1180.246125
 30
0.0
 10
1207.408780
 20
1180.246125
 30
0.0
  0
LWPOLYLINE
  5
487
100
AcDbEntity
  8
0
 62
7
100
AcDbPolyline
 90
2
 70
0
 10
1215.912720
 20
1180.246125
 30
0.0
 10
1215.912720
 20
1167.490200
 30
0.0
  0
LWPOLYLINE
  5
488
100
AcDbEntity
  8
0
 62
7
100
AcDbPolyline
 90
2
 70
0
 10
1207.408780
 20
1180.246125
 30
0.0
 10
1207.408780
 20
1167.490200
 30
0.0
  0
LWPOLYLINE
  5
489
100
AcDbEntity
  8
0
 62
7
100
AcDbPolyline
 90
2
 70
0
 10
1175.132928
 20
1209.874350
 30
0.0
 10
1163.001340
 20
1205.932575
 30
0.0
  0
LWPOLYLINE
  5
48a
100
AcDbEntity
  8
0
 62
7
100
AcDbPolyline
 90
2
 70
0
 10
1177.760793
 20
1201.786650
 30
0.0
 10
1165.629205
 20
1197.844800
 30
0.0
  0
LWPOLYLINE
  5
48b
100
AcDbEntity
  8
0
 62
7
100
AcDbPolyline
 90
3
 70
0
 10
1186.457455
 20
1244.727675
 30
0.0
 10
1193.337288
 20
1249.726125
 30
0.0
 10
1185.839553
 20
1260.045900
 30
0.0
  0
LWPOLYLINE
  5
48c
100
AcDbEntity
  8
0
 62
7
100
AcDbPolyline
 90
2
 70
0
 10
1186.457455
 20
1244.727675
 30
0.0
 10
1178.959721
 20
1255.047375
 30
0.0
  0
LWPOLYLINE
  5
48d
100
AcDbEntity
  8
0
 62
7
100
AcDbPolyline
 90
3
 70
0
 10
1229.984213
 20
1249.726125
 30
0.0
 10
1236.864045
 20
1244.727675
 30
0.0
 10
1244.361780
 20
1255.047375
 30
0.0
  0
LWPOLYLINE
  5
48e
100
AcDbEntity
  8
0
 62
7
100
AcDbPolyline
 90
2
 70
0
 10
1229.984213
 20
1249.726125
 30
0.0
 10
1237.481947
 20
1260.045900
 30
0.0
  0
LWPOLYLINE
  5
48f
100
AcDbEntity
  8
0
 62
7
100
AcDbPolyline
 90
3
 70
0
 10
1248.188572
 20
1209.874350
 30
0.0
 10
1245.560708
 20
1201.786650
 30
0.0
 10
1257.692295
 20
1197.844800
 30
0.0
  0
LWPOLYLINE
  5
490
100
AcDbEntity
  8
0
 62
7
100
AcDbPolyline
 90
2
 70
0
 10
1248.188572
 20
1209.874350
 30
0.0
 10
1260.320160
 20
1205.932575
 30
0.0
  0
LWPOLYLINE
  5
491
100
AcDbEntity
  8
0
 62
7
100
AcDbPolyline
 90
2
 70
0
 10
1237.168395
 20
1262.025600
 30
0.0
 10
1211.660748
 20
1280.557995
 30
0.0
  0
LWPOLYLINE
  5
492
100
AcDbEntity
  8
0
 62
7
100
AcDbPolyline
 90
2
 70
0
 10
1262.106090
 20
1206.842550
 30
0.0
 10
1271.849137
 20
1236.828600
 30
0.0
  0
LWPOLYLINE
  5
493
100
AcDbEntity
  8
0
 62
7
100
AcDbPolyline
 90
2
 70
0
 10
1217.330040
 20
1166.072850
 30
0.0
 10
1248.859222
 20
1166.072850
 30
0.0
  0
LWPOLYLINE
  5
494
100
AcDbEntity
  8
0
 62
7
100
AcDbPolyline
 90
2
 70
0
 10
1164.719230
 20
1196.058900
 30
0.0
 10
1174.462278
 20
1166.072850
 30
0.0
  0
LWPOLYLINE
  5
495
100
AcDbEntity
  8
0
 62
7
100
AcDbPolyline
 90
2
 70
0
 10
1176.980006
 20
1255.360950
 30
0.0
 10
1151.472363
 20
1236.828600
 30
0.0
  0
LWPOLYLINE
  5
496
100
AcDbEntity
  8
0
 62
7
100
AcDbPolyline
 90
2
 70
0
 10
1178.959721
 20
1255.047375
 30
0.0
 10
1176.980006
 20
1255.360950
 30
0.0
  0
LWPOLYLINE
  5
497
100
AcDbEntity
  8
0
 62
7
100
AcDbPolyline
 90
2
 70
0
 10
1185.839553
 20
1260.045900
 30
0.0
 10
1186.153106
 20
1262.025600
 30
0.0
  0
LWPOLYLINE
  5
498
100
AcDbEntity
  8
0
 62
7
100
AcDbPolyline
 90
2
 70
0
 10
1237.481947
 20
1260.045900
 30
0.0
 10
1237.168395
 20
1262.025600
 30
0.0
  0
LWPOLYLINE
  5
499
100
AcDbEntity
  8
0
 62
7
100
AcDbPolyline
 90
2
 70
0
 10
1244.361780
 20
1255.047375
 30
0.0
 10
1246.341495
 20
1255.360950
 30
0.0
  0
LWPOLYLINE
  5
49a
100
AcDbEntity
  8
0
 62
7
100
AcDbPolyline
 90
2
 70
0
 10
1260.320160
 20
1205.932575
 30
0.0
 10
1262.106090
 20
1206.842550
 30
0.0
  0
LWPOLYLINE
  5
49b
100
AcDbEntity
  8
0
 62
7
100
AcDbPolyline
 90
2
 70
0
 10
1257.692295
 20
1197.844800
 30
0.0
 10
1258.602270
 20
1196.058900
 30
0.0
  0
LWPOLYLINE
  5
49c
100
AcDbEntity
  8
0
 62
7
100
AcDbPolyline
 90
2
 70
0
 10
1215.912720
 20
1167.490200
 30
0.0
 10
1217.330040
 20
1166.072850
 30
0.0
  0
LWPOLYLINE
  5
49d
100
AcDbEntity
  8
0
 62
7
100
AcDbPolyline
 90
2
 70
0
 10
1205.991460
 20
1166.072850
 30
0.0
 10
1207.408780
 20
1167.490200
 30
0.0
  0
LWPOLYLINE
  5
49e
100
AcDbEntity
  8
0
 62
7
100
AcDbPolyline
 90
2
 70
0
 10
1165.629205
 20
1197.844800
 30
0.0
 10
1164.719230
 20
1196.058900
 30
0.0
  0
LWPOLYLINE
  5
49f
100
AcDbEntity
  8
0
 62
7
100
AcDbPolyline
 90
2
 70
0
 10
1163.001340
 20
1205.932575
 30
0.0
 10
1161.215410
 20
1206.842550
 30
0.0
  0
LWPOLYLINE
  5
4a0
100
AcDbEntity
  8
0
 62
7
100
AcDbPolyline
 90
2
 70
0
 10
1177.760793
 20
1081.500817
 30
0.0
 10
1175.132928
 20
1089.588517
 30
0.0
  0
LWPOLYLINE
  5
4a1
100
AcDbEntity
  8
0
 62
7
100
AcDbPolyline
 90
2
 70
0
 10
1248.859222
 20
1045.787017
 30
0.0
 10
1258.602270
 20
1075.773067
 30
0.0
  0
LWPOLYLINE
  5
4a2
100
AcDbEntity
  8
0
 62
7
100
AcDbPolyline
 90
2
 70
0
 10
1271.849137
 20
1116.542768
 30
0.0
 10
1246.341495
 20
1135.075118
 30
0.0
  0
LWPOLYLINE
  5
4a3
100
AcDbEntity
  8
0
 62
7
100
AcDbPolyline
 90
2
 70
0
 10
1211.660748
 20
1160.272162
 30
0.0
 10
1186.153106
 20
1141.739767
 30
0.0
  0
LWPOLYLINE
  5
4a4
100
AcDbEntity
  8
0
 62
7
100
AcDbPolyline
 90
2
 70
0
 10
1151.472363
 20
1116.542768
 30
0.0
 10
1161.215410
 20
1086.556717
 30
0.0
  0
LWPOLYLINE
  5
4a5
100
AcDbEntity
  8
0
 62
7
100
AcDbPolyline
 90
2
 70
0
 10
1174.462278
 20
1045.787017
 30
0.0
 10
1205.991460
 20
1045.787017
 30
0.0
  0
LWPOLYLINE
  5
4a6
100
AcDbEntity
  8
0
 62
7
100
AcDbPolyline
 90
2
 70
0
 10
1215.912720
 20
1059.960292
 30
0.0
 10
1207.408780
 20
1059.960292
 30
0.0
  0
LWPOLYLINE
  5
4a7
100
AcDbEntity
  8
0
 62
7
100
AcDbPolyline
 90
2
 70
0
 10
1215.912720
 20
1059.960292
 30
0.0
 10
1215.912720
 20
1047.204367
 30
0.0
  0
LWPOLYLINE
  5
4a8
100
AcDbEntity
  8
0
 62
7
100
AcDbPolyline
 90
2
 70
0
 10
1207.408780
 20
1059.960292
 30
0.0
 10
1207.408780
 20
1047.204367
 30
0.0
  0
LWPOLYLINE
  5
4a9
100
AcDbEntity
  8
0
 62
7
100
AcDbPolyline
 90
2
 70
0
 10
1175.132928
 20
1089.588517
 30
0.0
 10
1163.001340
 20
1085.646743
 30
0.0
  0
LWPOLYLINE
  5
4aa
100
AcDbEntity
  8
0
 62
7
100
AcDbPolyline
 90
2
 70
0
 10
1177.760793
 20
1081.500817
 30
0.0
 10
1165.629205
 20
1077.558967
 30
0.0
  0
LWPOLYLINE
  5
4ab
100
AcDbEntity
  8
0
 62
7
100
AcDbPolyline
 90
3
 70
0
 10
1186.457455
 20
1124.441842
 30
0.0
 10
1193.337288
 20
1129.440292
 30
0.0
 10
1185.839553
 20
1139.760067
 30
0.0
  0
LWPOLYLINE
  5
4ac
100
AcDbEntity
  8
0
 62
7
100
AcDbPolyline
 90
2
 70
0
 10
1186.457455
 20
1124.441842
 30
0.0
 10
1178.959721
 20
1134.761542
 30
0.0
  0
LWPOLYLINE
  5
4ad
100
AcDbEntity
  8
0
 62
7
100
AcDbPolyline
 90
3
 70
0
 10
1229.984213
 20
1129.440292
 30
0.0
 10
1236.864045
 20
1124.441842
 30
0.0
 10
1244.361780
 20
1134.761542
 30
0.0
  0
LWPOLYLINE
  5
4ae
100
AcDbEntity
  8
0
 62
7
100
AcDbPolyline
 90
2
 70
0
 10
1229.984213
 20
1129.440292
 30
0.0
 10
1237.481947
 20
1139.760067
 30
0.0
  0
LWPOLYLINE
  5
4af
100
AcDbEntity
  8
0
 62
7
100
AcDbPolyline
 90
3
 70
0
 10
1248.188572
 20
1089.588517
 30
0.0
 10
1245.560708
 20
1081.500817
 30
0.0
 10
1257.692295
 20
1077.558967
 30
0.0
  0
LWPOLYLINE
  5
4b0
100
AcDbEntity
  8
0
 62
7
100
AcDbPolyline
 90
2
 70
0
 10
1248.188572
 20
1089.588517
 30
0.0
 10
1260.320160
 20
1085.646743
 30
0.0
  0
LWPOLYLINE
  5
4b1
100
AcDbEntity
  8
0
 62
7
100
AcDbPolyline
 90
2
 70
0
 10
1237.168395
 20
1141.739767
 30
0.0
 10
1211.660748
 20
1160.272162
 30
0.0
  0
LWPOLYLINE
  5
4b2
100
AcDbEntity
  8
0
 62
7
100
AcDbPolyline
 90
2
 70
0
 10
1262.106090
 20
1086.556717
 30
0.0
 10
1271.849137
 20
1116.542768
 30
0.0
  0
LWPOLYLINE
  5
4b3
100
AcDbEntity
  8
0
 62
7
100
AcDbPolyline
 90
2
 70
0
 10
1217.330040
 20
1045.787017
 30
0.0
 10
1248.859222
 20
1045.787017
 30
0.0
  0
LWPOLYLINE
  5
4b4
100
AcDbEntity
  8
0
 62
7
100
AcDbPolyline
 90
2
 70
0
 10
1164.719230
 20
1075.773067
 30
0.0
 10
1174.462278
 20
1045.787017
 30
0.0
  0
LWPOLYLINE
  5
4b5
100
AcDbEntity
  8
0
 62
7
100
AcDbPolyline
 90
2
 70
0
 10
1176.980006
 20
1135.075118
 30
0.0
 10
1151.472363
 20
1116.542768
 30
0.0
  0
LWPOLYLINE
  5
4b6
100
AcDbEntity
  8
0
 62
7
100
AcDbPolyline
 90
2
 70
0
 10
1178.959721
 20
1134.761542
 30
0.0
 10
1176.980006
 20
1135.075118
 30
0.0
  0
LWPOLYLINE
  5
4b7
100
AcDbEntity
  8
0
 62
7
100
AcDbPolyline
 90
2
 70
0
 10
1185.839553
 20
1139.760067
 30
0.0
 10
1186.153106
 20
1141.739767
 30
0.0
  0
LWPOLYLINE
  5
4b8
100
AcDbEntity
  8
0
 62
7
100
AcDbPolyline
 90
2
 70
0
 10
1237.481947
 20
1139.760067
 30
0.0
 10
1237.168395
 20
1141.739767
 30
0.0
  0
LWPOLYLINE
  5
4b9
100
AcDbEntity
  8
0
 62
7
100
AcDbPolyline
 90
2
 70
0
 10
1244.361780
 20
1134.761542
 30
0.0
 10
1246.341495
 20
1135.075118
 30
0.0
  0
LWPOLYLINE
  5
4ba
100
AcDbEntity
  8
0
 62
7
100
AcDbPolyline
 90
2
 70
0
 10
1260.320160
 20
1085.646743
 30
0.0
 10
1262.106090
 20
1086.556717
 30
0.0
  0
LWPOLYLINE
  5
4bb
100
AcDbEntity
  8
0
 62
7
100
AcDbPolyline
 90
2
 70
0
 10
1257.692295
 20
1077.558967
 30
0.0
 10
1258.602270
 20
1075.773067
 30
0.0
  0
LWPOLYLINE
  5
4bc
100
AcDbEntity
  8
0
 62
7
100
AcDbPolyline
 90
2
 70
0
 10
1215.912720
 20
1047.204367
 30
0.0
 10
1217.330040
 20
1045.787018
 30
0.0
  0
LWPOLYLINE
  5
4bd
100
AcDbEntity
  8
0
 62
7
100
AcDbPolyline
 90
2
 70
0
 10
1205.991460
 20
1045.787017
 30
0.0
 10
1207.408780
 20
1047.204367
 30
0.0
  0
LWPOLYLINE
  5
4be
100
AcDbEntity
  8
0
 62
7
100
AcDbPolyline
 90
2
 70
0
 10
1165.629205
 20
1077.558967
 30
0.0
 10
1164.719230
 20
1075.773067
 30
0.0
  0
LWPOLYLINE
  5
4bf
100
AcDbEntity
  8
0
 62
7
100
AcDbPolyline
 90
2
 70
0
 10
1163.001340
 20
1085.646743
 30
0.0
 10
1161.215410
 20
1086.556717
 30
0.0
  0
LWPOLYLINE
  5
4c0
100
AcDbEntity
  8
0
 62
7
100
AcDbPolyline
 90
2
 70
0
 10
1177.760793
 20
961.214985
 30
0.0
 10
1175.132928
 20
969.302685
 30
0.0
  0
LWPOLYLINE
  5
4c1
100
AcDbEntity
  8
0
 62
7
100
AcDbPolyline
 90
2
 70
0
 10
1248.859222
 20
925.501185
 30
0.0
 10
1258.602270
 20
955.487235
 30
0.0
  0
LWPOLYLINE
  5
4c2
100
AcDbEntity
  8
0
 62
7
100
AcDbPolyline
 90
2
 70
0
 10
1271.849137
 20
996.256935
 30
0.0
 10
1246.341495
 20
1014.789285
 30
0.0
  0
LWPOLYLINE
  5
4c3
100
AcDbEntity
  8
0
 62
7
100
AcDbPolyline
 90
2
 70
0
 10
1211.660748
 20
1039.986330
 30
0.0
 10
1186.153106
 20
1021.453935
 30
0.0
  0
LWPOLYLINE
  5
4c4
100
AcDbEntity
  8
0
 62
7
100
AcDbPolyline
 90
2
 70
0
 10
1151.472363
 20
996.256935
 30
0.0
 10
1161.215410
 20
966.270885
 30
0.0
  0
LWPOLYLINE
  5
4c5
100
AcDbEntity
  8
0
 62
7
100
AcDbPolyline
 90
2
 70
0
 10
1174.462278
 20
925.501185
 30
0.0
 10
1205.991460
 20
925.501185
 30
0.0
  0
LWPOLYLINE
  5
4c6
100
AcDbEntity
  8
0
 62
7
100
AcDbPolyline
 90
2
 70
0
 10
1215.912720
 20
939.674460
 30
0.0
 10
1207.408780
 20
939.674460
 30
0.0
  0
LWPOLYLINE
  5
4c7
100
AcDbEntity
  8
0
 62
7
100
AcDbPolyline
 90
2
 70
0
 10
1215.912720
 20
939.674460
 30
0.0
 10
1215.912720
 20
926.918535
 30
0.0
  0
LWPOLYLINE
  5
4c8
100
AcDbEntity
  8
0
 62
7
100
AcDbPolyline
 90
2
 70
0
 10
1207.408780
 20
939.674460
 30
0.0
 10
1207.408780
 20
926.918535
 30
0.0
  0
LWPOLYLINE
  5
4c9
100
AcDbEntity
  8
0
 62
7
100
AcDbPolyline
 90
2
 70
0
 10
1175.132928
 20
969.302685
 30
0.0
 10
1163.001340
 20
965.360910
 30
0.0
  0
LWPOLYLINE
  5
4ca
100
AcDbEntity
  8
0
 62
7
100
AcDbPolyline
 90
2
 70
0
 10
1177.760793
 20
961.214985
 30
0.0
 10
1165.629205
 20
957.273135
 30
0.0
  0
LWPOLYLINE
  5
4cb
100
AcDbEntity
  8
0
 62
7
100
AcDbPolyline
 90
3
 70
0
 10
1186.457455
 20
1004.156010
 30
0.0
 10
1193.337288
 20
1009.154460
 30
0.0
 10
1185.839553
 20
1019.474235
 30
0.0
  0
LWPOLYLINE
  5
4cc
100
AcDbEntity
  8
0
 62
7
100
AcDbPolyline
 90
2
 70
0
 10
1186.457455
 20
1004.156010
 30
0.0
 10
1178.959721
 20
1014.475710
 30
0.0
  0
LWPOLYLINE
  5
4cd
100
AcDbEntity
  8
0
 62
7
100
AcDbPolyline
 90
3
 70
0
 10
1229.984213
 20
1009.154460
 30
0.0
 10
1236.864045
 20
1004.156010
 30
0.0
 10
1244.361780
 20
1014.475710
 30
0.0
  0
LWPOLYLINE
  5
4ce
100
AcDbEntity
  8
0
 62
7
100
AcDbPolyline
 90
2
 70
0
 10
1229.984213
 20
1009.154460
 30
0.0
 10
1237.481947
 20
1019.474235
 30
0.0
  0
LWPOLYLINE
  5
4cf
100
AcDbEntity
  8
0
 62
7
100
AcDbPolyline
 90
3
 70
0
 10
1248.188572
 20
969.302685
 30
0.0
 10
1245.560708
 20
961.214985
 30
0.0
 10
1257.692295
 20
957.273135
 30
0.0
  0
LWPOLYLINE
  5
4d0
100
AcDbEntity
  8
0
 62
7
100
AcDbPolyline
 90
2
 70
0
 10
1248.188572
 20
969.302685
 30
0.0
 10
1260.320160
 20
965.360910
 30
0.0
  0
LWPOLYLINE
  5
4d1
100
AcDbEntity
  8
0
 62
7
100
AcDbPolyline
 90
2
 70
0
 10
1237.168395
 20
1021.453935
 30
0.0
 10
1211.660748
 20
1039.986330
 30
0.0
  0
LWPOLYLINE
  5
4d2
100
AcDbEntity
  8
0
 62
7
100
AcDbPolyline
 90
2
 70
0
 10
1262.106090
 20
966.270885
 30
0.0
 10
1271.849137
 20
996.256935
 30
0.0
  0
LWPOLYLINE
  5
4d3
100
AcDbEntity
  8
0
 62
7
100
AcDbPolyline
 90
2
 70
0
 10
1217.330040
 20
925.501185
 30
0.0
 10
1248.859222
 20
925.501185
 30
0.0
  0
LWPOLYLINE
  5
4d4
100
AcDbEntity
  8
0
 62
7
100
AcDbPolyline
 90
2
 70
0
 10
1164.719230
 20
955.487235
 30
0.0
 10
1174.462278
 20
925.501185
 30
0.0
  0
LWPOLYLINE
  5
4d5
100
AcDbEntity
  8
0
 62
7
100
AcDbPolyline
 90
2
 70
0
 10
1176.980006
 20
1014.789285
 30
0.0
 10
1151.472363
 20
996.256935
 30
0.0
  0
LWPOLYLINE
  5
4d6
100
AcDbEntity
  8
0
 62
7
100
AcDbPolyline
 90
2
 70
0
 10
1178.959721
 20
1014.475710
 30
0.0
 10
1176.980006
 20
1014.789285
 30
0.0
  0
LWPOLYLINE
  5
4d7
100
AcDbEntity
  8
0
 62
7
100
AcDbPolyline
 90
2
 70
0
 10
1185.839553
 20
1019.474235
 30
0.0
 10
1186.153106
 20
1021.453935
 30
0.0
  0
LWPOLYLINE
  5
4d8
100
AcDbEntity
  8
0
 62
7
100
AcDbPolyline
 90
2
 70
0
 10
1237.481947
 20
1019.474235
 30
0.0
 10
1237.168395
 20
1021.453935
 30
0.0
  0
LWPOLYLINE
  5
4d9
100
AcDbEntity
  8
0
 62
7
100
AcDbPolyline
 90
2
 70
0
 10
1244.361780
 20
1014.475710
 30
0.0
 10
1246.341495
 20
1014.789285
 30
0.0
  0
LWPOLYLINE
  5
4da
100
AcDbEntity
  8
0
 62
7
100
AcDbPolyline
 90
2
 70
0
 10
1260.320160
 20
965.360910
 30
0.0
 10
1262.106090
 20
966.270885
 30
0.0
  0
LWPOLYLINE
  5
4db
100
AcDbEntity
  8
0
 62
7
100
AcDbPolyline
 90
2
 70
0
 10
1257.692295
 20
957.273135
 30
0.0
 10
1258.602270
 20
955.487235
 30
0.0
  0
LWPOLYLINE
  5
4dc
100
AcDbEntity
  8
0
 62
7
100
AcDbPolyline
 90
2
 70
0
 10
1215.912720
 20
926.918535
 30
0.0
 10
1217.330040
 20
925.501185
 30
0.0
  0
LWPOLYLINE
  5
4dd
100
AcDbEntity
  8
0
 62
7
100
AcDbPolyline
 90
2
 70
0
 10
1205.991460
 20
925.501185
 30
0.0
 10
1207.408780
 20
926.918535
 30
0.0
  0
LWPOLYLINE
  5
4de
100
AcDbEntity
  8
0
 62
7
100
AcDbPolyline
 90
2
 70
0
 10
1165.629205
 20
957.273135
 30
0.0
 10
1164.719230
 20
955.487235
 30
0.0
  0
LWPOLYLINE
  5
4df
100
AcDbEntity
  8
0
 62
7
100
AcDbPolyline
 90
2
 70
0
 10
1163.001340
 20
965.360910
 30
0.0
 10
1161.215410
 20
966.270885
 30
0.0
  0
LWPOLYLINE
  5
4e0
100
AcDbEntity
  8
0
 62
7
100
AcDbPolyline
 90
2
 70
0
 10
1304.232918
 20
1201.786650
 30
0.0
 10
1301.605053
 20
1209.874350
 30
0.0
  0
LWPOLYLINE
  5
4e1
100
AcDbEntity
  8
0
 62
7
100
AcDbPolyline
 90
2
 70
0
 10
1375.331347
 20
1166.072850
 30
0.0
 10
1385.074395
 20
1196.058900
 30
0.0
  0
LWPOLYLINE
  5
4e2
100
AcDbEntity
  8
0
 62
7
100
AcDbPolyline
 90
2
 70
0
 10
1398.321263
 20
1236.828600
 30
0.0
 10
1372.813620
 20
1255.360950
 30
0.0
  0
LWPOLYLINE
  5
4e3
100
AcDbEntity
  8
0
 62
7
100
AcDbPolyline
 90
2
 70
0
 10
1338.132873
 20
1280.557995
 30
0.0
 10
1312.625231
 20
1262.025600
 30
0.0
  0
LWPOLYLINE
  5
4e4
100
AcDbEntity
  8
0
 62
7
100
AcDbPolyline
 90
2
 70
0
 10
1277.944488
 20
1236.828600
 30
0.0
 10
1287.687535
 20
1206.842550
 30
0.0
  0
LWPOLYLINE
  5
4e5
100
AcDbEntity
  8
0
 62
7
100
AcDbPolyline
 90
2
 70
0
 10
1300.934403
 20
1166.072850
 30
0.0
 10
1332.463585
 20
1166.072850
 30
0.0
  0
LWPOLYLINE
  5
4e6
100
AcDbEntity
  8
0
 62
7
100
AcDbPolyline
 90
2
 70
0
 10
1342.384845
 20
1180.246125
 30
0.0
 10
1333.880905
 20
1180.246125
 30
0.0
  0
LWPOLYLINE
  5
4e7
100
AcDbEntity
  8
0
 62
7
100
AcDbPolyline
 90
2
 70
0
 10
1342.384845
 20
1180.246125
 30
0.0
 10
1342.384845
 20
1167.490200
 30
0.0
  0
LWPOLYLINE
  5
4e8
100
AcDbEntity
  8
0
 62
7
100
AcDbPolyline
 90
2
 70
0
 10
1333.880905
 20
1180.246125
 30
0.0
 10
1333.880905
 20
1167.490200
 30
0.0
  0
LWPOLYLINE
  5
4e9
100
AcDbEntity
  8
0
 62
7
100
AcDbPolyline
 90
2
 70
0
 10
1301.605053
 20
1209.874350
 30
0.0
 10
1289.473465
 20
1205.932575
 30
0.0
  0
LWPOLYLINE
  5
4ea
100
AcDbEntity
  8
0
 62
7
100
AcDbPolyline
 90
2
 70
0
 10
1304.232918
 20
1201.786650
 30
0.0
 10
1292.101330
 20
1197.844800
 30
0.0
  0
LWPOLYLINE
  5
4eb
100
AcDbEntity
  8
0
 62
7
100
AcDbPolyline
 90
3
 70
0
 10
1312.929580
 20
1244.727675
 30
0.0
 10
1319.809413
 20
1249.726125
 30
0.0
 10
1312.311678
 20
1260.045900
 30
0.0
  0
LWPOLYLINE
  5
4ec
100
AcDbEntity
  8
0
 62
7
100
AcDbPolyline
 90
2
 70
0
 10
1312.929580
 20
1244.727675
 30
0.0
 10
1305.431846
 20
1255.047375
 30
0.0
  0
LWPOLYLINE
  5
4ed
100
AcDbEntity
  8
0
 62
7
100
AcDbPolyline
 90
3
 70
0
 10
1356.456338
 20
1249.726125
 30
0.0
 10
1363.336170
 20
1244.727675
 30
0.0
 10
1370.833905
 20
1255.047375
 30
0.0
  0
LWPOLYLINE
  5
4ee
100
AcDbEntity
  8
0
 62
7
100
AcDbPolyline
 90
2
 70
0
 10
1356.456338
 20
1249.726125
 30
0.0
 10
1363.954072
 20
1260.045900
 30
0.0
  0
LWPOLYLINE
  5
4ef
100
AcDbEntity
  8
0
 62
7
100
AcDbPolyline
 90
3
 70
0
 10
1374.660697
 20
1209.874350
 30
0.0
 10
1372.032833
 20
1201.786650
 30
0.0
 10
1384.164420
 20
1197.844800
 30
0.0
  0
LWPOLYLINE
  5
4f0
100
AcDbEntity
  8
0
 62
7
100
AcDbPolyline
 90
2
 70
0
 10
1374.660697
 20
1209.874350
 30
0.0
 10
1386.792285
 20
1205.932575
 30
0.0
  0
LWPOLYLINE
  5
4f1
100
AcDbEntity
  8
0
 62
7
100
AcDbPolyline
 90
2
 70
0
 10
1363.640520
 20
1262.025600
 30
0.0
 10
1338.132873
 20
1280.557995
 30
0.0
  0
LWPOLYLINE
  5
4f2
100
AcDbEntity
  8
0
 62
7
100
AcDbPolyline
 90
2
 70
0
 10
1388.578215
 20
1206.842550
 30
0.0
 10
1398.321263
 20
1236.828600
 30
0.0
  0
LWPOLYLINE
  5
4f3
100
AcDbEntity
  8
0
 62
7
100
AcDbPolyline
 90
2
 70
0
 10
1343.802165
 20
1166.072850
 30
0.0
 10
1375.331347
 20
1166.072850
 30
0.0
  0
LWPOLYLINE
  5
4f4
100
AcDbEntity
  8
0
 62
7
100
AcDbPolyline
 90
2
 70
0
 10
1291.191355
 20
1196.058900
 30
0.0
 10
1300.934403
 20
1166.072850
 30
0.0
  0
LWPOLYLINE
  5
4f5
100
AcDbEntity
  8
0
 62
7
100
AcDbPolyline
 90
2
 70
0
 10
1303.452131
 20
1255.360950
 30
0.0
 10
1277.944488
 20
1236.828600
 30
0.0
  0
LWPOLYLINE
  5
4f6
100
AcDbEntity
  8
0
 62
7
100
AcDbPolyline
 90
2
 70
0
 10
1305.431846
 20
1255.047375
 30
0.0
 10
1303.452131
 20
1255.360950
 30
0.0
  0
LWPOLYLINE
  5
4f7
100
AcDbEntity
  8
0
 62
7
100
AcDbPolyline
 90
2
 70
0
 10
1312.311678
 20
1260.045900
 30
0.0
 10
1312.625231
 20
1262.025600
 30
0.0
  0
LWPOLYLINE
  5
4f8
100
AcDbEntity
  8
0
 62
7
100
AcDbPolyline
 90
2
 70
0
 10
1363.954072
 20
1260.045900
 30
0.0
 10
1363.640520
 20
1262.025600
 30
0.0
  0
LWPOLYLINE
  5
4f9
100
AcDbEntity
  8
0
 62
7
100
AcDbPolyline
 90
2
 70
0
 10
1370.833905
 20
1255.047375
 30
0.0
 10
1372.813620
 20
1255.360950
 30
0.0
  0
LWPOLYLINE
  5
4fa
100
AcDbEntity
  8
0
 62
7
100
AcDbPolyline
 90
2
 70
0
 10
1386.792285
 20
1205.932575
 30
0.0
 10
1388.578215
 20
1206.842550
 30
0.0
  0
LWPOLYLINE
  5
4fb
100
AcDbEntity
  8
0
 62
7
100
AcDbPolyline
 90
2
 70
0
 10
1384.164420
 20
1197.844800
 30
0.0
 10
1385.074395
 20
1196.058900
 30
0.0
  0
LWPOLYLINE
  5
4fc
100
AcDbEntity
  8
0
 62
7
100
AcDbPolyline
 90
2
 70
0
 10
1342.384845
 20
1167.490200
 30
0.0
 10
1343.802165
 20
1166.072850
 30
0.0
  0
LWPOLYLINE
  5
4fd
100
AcDbEntity
  8
0
 62
7
100
AcDbPolyline
 90
2
 70
0
 10
1332.463585
 20
1166.072850
 30
0.0
 10
1333.880905
 20
1167.490200
 30
0.0
  0
LWPOLYLINE
  5
4fe
100
AcDbEntity
  8
0
 62
7
100
AcDbPolyline
 90
2
 70
0
 10
1292.101330
 20
1197.844800
 30
0.0
 10
1291.191355
 20
1196.058900
 30
0.0
  0
LWPOLYLINE
  5
4ff
100
AcDbEntity
  8
0
 62
7
100
AcDbPolyline
 90
2
 70
0
 10
1289.473465
 20
1205.932575
 30
0.0
 10
1287.687535
 20
1206.842550
 30
0.0
  0
LWPOLYLINE
  5
500
100
AcDbEntity
  8
0
 62
7
100
AcDbPolyline
 90
2
 70
0
 10
1304.232918
 20
1081.500817
 30
0.0
 10
1301.605053
 20
1089.588517
 30
0.0
  0
LWPOLYLINE
  5
501
100
AcDbEntity
  8
0
 62
7
100
AcDbPolyline
 90
2
 70
0
 10
1375.331347
 20
1045.787017
 30
0.0
 10
1385.074395
 20
1075.773067
 30
0.0
  0
LWPOLYLINE
  5
502
100
AcDbEntity
  8
0
 62
7
100
AcDbPolyline
 90
2
 70
0
 10
1398.321263
 20
1116.542768
 30
0.0
 10
1372.813620
 20
1135.075118
 30
0.0
  0
LWPOLYLINE
  5
503
100
AcDbEntity
  8
0
 62
7
100
AcDbPolyline
 90
2
 70
0
 10
1338.132873
 20
1160.272162
 30
0.0
 10
1312.625231
 20
1141.739767
 30
0.0
  0
LWPOLYLINE
  5
504
100
AcDbEntity
  8
0
 62
7
100
AcDbPolyline
 90
2
 70
0
 10
1277.944488
 20
1116.542768
 30
0.0
 10
1287.687535
 20
1086.556717
 30
0.0
  0
LWPOLYLINE
  5
505
100
AcDbEntity
  8
0
 62
7
100
AcDbPolyline
 90
2
 70
0
 10
1300.934403
 20
1045.787017
 30
0.0
 10
1332.463585
 20
1045.787017
 30
0.0
  0
LWPOLYLINE
  5
506
100
AcDbEntity
  8
0
 62
7
100
AcDbPolyline
 90
2
 70
0
 10
1342.384845
 20
1059.960292
 30
0.0
 10
1333.880905
 20
1059.960292
 30
0.0
  0
LWPOLYLINE
  5
507
100
AcDbEntity
  8
0
 62
7
100
AcDbPolyline
 90
2
 70
0
 10
1342.384845
 20
1059.960292
 30
0.0
 10
1342.384845
 20
1047.204367
 30
0.0
  0
LWPOLYLINE
  5
508
100
AcDbEntity
  8
0
 62
7
100
AcDbPolyline
 90
2
 70
0
 10
1333.880905
 20
1059.960292
 30
0.0
 10
1333.880905
 20
1047.204367
 30
0.0
  0
LWPOLYLINE
  5
509
100
AcDbEntity
  8
0
 62
7
100
AcDbPolyline
 90
2
 70
0
 10
1301.605053
 20
1089.588517
 30
0.0
 10
1289.473465
 20
1085.646743
 30
0.0
  0
LWPOLYLINE
  5
50a
100
AcDbEntity
  8
0
 62
7
100
AcDbPolyline
 90
2
 70
0
 10
1304.232918
 20
1081.500817
 30
0.0
 10
1292.101330
 20
1077.558967
 30
0.0
  0
LWPOLYLINE
  5
50b
100
AcDbEntity
  8
0
 62
7
100
AcDbPolyline
 90
3
 70
0
 10
1312.929580
 20
1124.441842
 30
0.0
 10
1319.809413
 20
1129.440292
 30
0.0
 10
1312.311678
 20
1139.760067
 30
0.0
  0
LWPOLYLINE
  5
50c
100
AcDbEntity
  8
0
 62
7
100
AcDbPolyline
 90
2
 70
0
 10
1312.929580
 20
1124.441842
 30
0.0
 10
1305.431846
 20
1134.761542
 30
0.0
  0
LWPOLYLINE
  5
50d
100
AcDbEntity
  8
0
 62
7
100
AcDbPolyline
 90
3
 70
0
 10
1356.456338
 20
1129.440292
 30
0.0
 10
1363.336170
 20
1124.441842
 30
0.0
 10
1370.833905
 20
1134.761542
 30
0.0
  0
LWPOLYLINE
  5
50e
100
AcDbEntity
  8
0
 62
7
100
AcDbPolyline
 90
2
 70
0
 10
1356.456338
 20
1129.440292
 30
0.0
 10
1363.954072
 20
1139.760067
 30
0.0
  0
LWPOLYLINE
  5
50f
100
AcDbEntity
  8
0
 62
7
100
AcDbPolyline
 90
3
 70
0
 10
1374.660697
 20
1089.588517
 30
0.0
 10
1372.032833
 20
1081.500817
 30
0.0
 10
1384.164420
 20
1077.558967
 30
0.0
  0
LWPOLYLINE
  5
510
100
AcDbEntity
  8
0
 62
7
100
AcDbPolyline
 90
2
 70
0
 10
1374.660697
 20
1089.588517
 30
0.0
 10
1386.792285
 20
1085.646743
 30
0.0
  0
LWPOLYLINE
  5
511
100
AcDbEntity
  8
0
 62
7
100
AcDbPolyline
 90
2
 70
0
 10
1363.640520
 20
1141.739767
 30
0.0
 10
1338.132873
 20
1160.272162
 30
0.0
  0
LWPOLYLINE
  5
512
100
AcDbEntity
  8
0
 62
7
100
AcDbPolyline
 90
2
 70
0
 10
1388.578215
 20
1086.556717
 30
0.0
 10
1398.321263
 20
1116.542768
 30
0.0
  0
LWPOLYLINE
  5
513
100
AcDbEntity
  8
0
 62
7
100
AcDbPolyline
 90
2
 70
0
 10
1343.802165
 20
1045.787017
 30
0.0
 10
1375.331347
 20
1045.787017
 30
0.0
  0
LWPOLYLINE
  5
514
100
AcDbEntity
  8
0
 62
7
100
AcDbPolyline
 90
2
 70
0
 10
1291.191355
 20
1075.773067
 30
0.0
 10
1300.934403
 20
1045.787017
 30
0.0
  0
LWPOLYLINE
  5
515
100
AcDbEntity
  8
0
 62
7
100
AcDbPolyline
 90
2
 70
0
 10
1303.452131
 20
1135.075118
 30
0.0
 10
1277.944488
 20
1116.542768
 30
0.0
  0
LWPOLYLINE
  5
516
100
AcDbEntity
  8
0
 62
7
100
AcDbPolyline
 90
2
 70
0
 10
1305.431846
 20
1134.761542
 30
0.0
 10
1303.452131
 20
1135.075118
 30
0.0
  0
LWPOLYLINE
  5
517
100
AcDbEntity
  8
0
 62
7
100
AcDbPolyline
 90
2
 70
0
 10
1312.311678
 20
1139.760067
 30
0.0
 10
1312.625231
 20
1141.739767
 30
0.0
  0
LWPOLYLINE
  5
518
100
AcDbEntity
  8
0
 62
7
100
AcDbPolyline
 90
2
 70
0
 10
1363.954072
 20
1139.760067
 30
0.0
 10
1363.640520
 20
1141.739767
 30
0.0
  0
LWPOLYLINE
  5
519
100
AcDbEntity
  8
0
 62
7
100
AcDbPolyline
 90
2
 70
0
 10
1370.833905
 20
1134.761542
 30
0.0
 10
1372.813620
 20
1135.075118
 30
0.0
  0
LWPOLYLINE
  5
51a
100
AcDbEntity
  8
0
 62
7
100
AcDbPolyline
 90
2
 70
0
 10
1386.792285
 20
1085.646743
 30
0.0
 10
1388.578215
 20
1086.556717
 30
0.0
  0
LWPOLYLINE
  5
51b
100
AcDbEntity
  8
0
 62
7
100
AcDbPolyline
 90
2
 70
0
 10
1384.164420
 20
1077.558967
 30
0.0
 10
1385.074395
 20
1075.773067
 30
0.0
  0
LWPOLYLINE
  5
51c
100
AcDbEntity
  8
0
 62
7
100
AcDbPolyline
 90
2
 70
0
 10
1342.384845
 20
1047.204367
 30
0.0
 10
1343.802165
 20
1045.787018
 30
0.0
  0
LWPOLYLINE
  5
51d
100
AcDbEntity
  8
0
 62
7
100
AcDbPolyline
 90
2
 70
0
 10
1332.463585
 20
1045.787017
 30
0.0
 10
1333.880905
 20
1047.204367
 30
0.0
  0
LWPOLYLINE
  5
51e
100
AcDbEntity
  8
0
 62
7
100
AcDbPolyline
 90
2
 70
0
 10
1292.101330
 20
1077.558967
 30
0.0
 10
1291.191355
 20
1075.773067
 30
0.0
  0
LWPOLYLINE
  5
51f
100
AcDbEntity
  8
0
 62
7
100
AcDbPolyline
 90
2
 70
0
 10
1289.473465
 20
1085.646743
 30
0.0
 10
1287.687535
 20
1086.556717
 30
0.0
  0
LWPOLYLINE
  5
520
100
AcDbEntity
  8
0
 62
7
100
AcDbPolyline
 90
2
 70
0
 10
1304.232918
 20
961.214985
 30
0.0
 10
1301.605053
 20
969.302685
 30
0.0
  0
LWPOLYLINE
  5
521
100
AcDbEntity
  8
0
 62
7
100
AcDbPolyline
 90
2
 70
0
 10
1375.331347
 20
925.501185
 30
0.0
 10
1385.074395
 20
955.487235
 30
0.0
  0
LWPOLYLINE
  5
522
100
AcDbEntity
  8
0
 62
7
100
AcDbPolyline
 90
2
 70
0
 10
1398.321263
 20
996.256935
 30
0.0
 10
1372.813620
 20
1014.789285
 30
0.0
  0
LWPOLYLINE
  5
523
100
AcDbEntity
  8
0
 62
7
100
AcDbPolyline
 90
2
 70
0
 10
1338.132873
 20
1039.986330
 30
0.0
 10
1312.625231
 20
1021.453935
 30
0.0
  0
LWPOLYLINE
  5
524
100
AcDbEntity
  8
0
 62
7
100
AcDbPolyline
 90
2
 70
0
 10
1277.944488
 20
996.256935
 30
0.0
 10
1287.687535
 20
966.270885
 30
0.0
  0
LWPOLYLINE
  5
525
100
AcDbEntity
  8
0
 62
7
100
AcDbPolyline
 90
2
 70
0
 10
1300.934403
 20
925.501185
 30
0.0
 10
1332.463585
 20
925.501185
 30
0.0
  0
LWPOLYLINE
  5
526
100
AcDbEntity
  8
0
 62
7
100
AcDbPolyline
 90
2
 70
0
 10
1342.384845
 20
939.674460
 30
0.0
 10
1333.880905
 20
939.674460
 30
0.0
  0
LWPOLYLINE
  5
527
100
AcDbEntity
  8
0
 62
7
100
AcDbPolyline
 90
2
 70
0
 10
1342.384845
 20
939.674460
 30
0.0
 10
1342.384845
 20
926.918535
 30
0.0
  0
LWPOLYLINE
  5
528
100
AcDbEntity
  8
0
 62
7
100
AcDbPolyline
 90
2
 70
0
 10
1333.880905
 20
939.674460
 30
0.0
 10
1333.880905
 20
926.918535
 30
0.0
  0
LWPOLYLINE
  5
529
100
AcDbEntity
  8
0
 62
7
100
AcDbPolyline
 90
2
 70
0
 10
1301.605053
 20
969.302685
 30
0.0
 10
1289.473465
 20
965.360910
 30
0.0
  0
LWPOLYLINE
  5
52a
100
AcDbEntity
  8
0
 62
7
100
AcDbPolyline
 90
2
 70
0
 10
1304.232918
 20
961.214985
 30
0.0
 10
1292.101330
 20
957.273135
 30
0.0
  0
LWPOLYLINE
  5
52b
100
AcDbEntity
  8
0
 62
7
100
AcDbPolyline
 90
3
 70
0
 10
1312.929580
 20
1004.156010
 30
0.0
 10
1319.809413
 20
1009.154460
 30
0.0
 10
1312.311678
 20
1019.474235
 30
0.0
  0
LWPOLYLINE
  5
52c
100
AcDbEntity
  8
0
 62
7
100
AcDbPolyline
 90
2
 70
0
 10
1312.929580
 20
1004.156010
 30
0.0
 10
1305.431846
 20
1014.475710
 30
0.0
  0
LWPOLYLINE
  5
52d
100
AcDbEntity
  8
0
 62
7
100
AcDbPolyline
 90
3
 70
0
 10
1356.456338
 20
1009.154460
 30
0.0
 10
1363.336170
 20
1004.156010
 30
0.0
 10
1370.833905
 20
1014.475710
 30
0.0
  0
LWPOLYLINE
  5
52e
100
AcDbEntity
  8
0
 62
7
100
AcDbPolyline
 90
2
 70
0
 10
1356.456338
 20
1009.154460
 30
0.0
 10
1363.954072
 20
1019.474235
 30
0.0
  0
LWPOLYLINE
  5
52f
100
AcDbEntity
  8
0
 62
7
100
AcDbPolyline
 90
3
 70
0
 10
1374.660697
 20
969.302685
 30
0.0
 10
1372.032833
 20
961.214985
 30
0.0
 10
1384.164420
 20
957.273135
 30
0.0
  0
LWPOLYLINE
  5
530
100
AcDbEntity
  8
0
 62
7
100
AcDbPolyline
 90
2
 70
0
 10
1374.660697
 20
969.302685
 30
0.0
 10
1386.792285
 20
965.360910
 30
0.0
  0
LWPOLYLINE
  5
531
100
AcDbEntity
  8
0
 62
7
100
AcDbPolyline
 90
2
 70
0
 10
1363.640520
 20
1021.453935
 30
0.0
 10
1338.132873
 20
1039.986330
 30
0.0
  0
LWPOLYLINE
  5
532
100
AcDbEntity
  8
0
 62
7
100
AcDbPolyline
 90
2
 70
0
 10
1388.578215
 20
966.270885
 30
0.0
 10
1398.321263
 20
996.256935
 30
0.0
  0
LWPOLYLINE
  5
533
100
AcDbEntity
  8
0
 62
7
100
AcDbPolyline
 90
2
 70
0
 10
1343.802165
 20
925.501185
 30
0.0
 10
1375.331347
 20
925.501185
 30
0.0
  0
LWPOLYLINE
  5
534
100
AcDbEntity
  8
0
 62
7
100
AcDbPolyline
 90
2
 70
0
 10
1291.191355
 20
955.487235
 30
0.0
 10
1300.934403
 20
925.501185
 30
0.0
  0
LWPOLYLINE
  5
535
100
AcDbEntity
  8
0
 62
7
100
AcDbPolyline
 90
2
 70
0
 10
1303.452131
 20
1014.789285
 30
0.0
 10
1277.944488
 20
996.256935
 30
0.0
  0
LWPOLYLINE
  5
536
100
AcDbEntity
  8
0
 62
7
100
AcDbPolyline
 90
2
 70
0
 10
1305.431846
 20
1014.475710
 30
0.0
 10
1303.452131
 20
1014.789285
 30
0.0
  0
LWPOLYLINE
  5
537
100
AcDbEntity
  8
0
 62
7
100
AcDbPolyline
 90
2
 70
0
 10
1312.311678
 20
1019.474235
 30
0.0
 10
1312.625231
 20
1021.453935
 30
0.0
  0
LWPOLYLINE
  5
538
100
AcDbEntity
  8
0
 62
7
100
AcDbPolyline
 90
2
 70
0
 10
1363.954072
 20
1019.474235
 30
0.0
 10
1363.640520
 20
1021.453935
 30
0.0
  0
LWPOLYLINE
  5
539
100
AcDbEntity
  8
0
 62
7
100
AcDbPolyline
 90
2
 70
0
 10
1370.833905
 20
1014.475710
 30
0.0
 10
1372.813620
 20
1014.789285
 30
0.0
  0
LWPOLYLINE
  5
53a
100
AcDbEntity
  8
0
 62
7
100
AcDbPolyline
 90
2
 70
0
 10
1386.792285
 20
965.360910
 30
0.0
 10
1388.578215
 20
966.270885
 30
0.0
  0
LWPOLYLINE
  5
53b
100
AcDbEntity
  8
0
 62
7
100
AcDbPolyline
 90
2
 70
0
 10
1384.164420
 20
957.273135
 30
0.0
 10
1385.074395
 20
955.487235
 30
0.0
  0
LWPOLYLINE
  5
53c
100
AcDbEntity
  8
0
 62
7
100
AcDbPolyline
 90
2
 70
0
 10
1342.384845
 20
926.918535
 30
0.0
 10
1343.802165
 20
925.501185
 30
0.0
  0
LWPOLYLINE
  5
53d
100
AcDbEntity
  8
0
 62
7
100
AcDbPolyline
 90
2
 70
0
 10
1332.463585
 20
925.501185
 30
0.0
 10
1333.880905
 20
926.918535
 30
0.0
  0
LWPOLYLINE
  5
53e
100
AcDbEntity
  8
0
 62
7
100
AcDbPolyline
 90
2
 70
0
 10
1292.101330
 20
957.273135
 30
0.0
 10
1291.191355
 20
955.487235
 30
0.0
  0
LWPOLYLINE
  5
53f
100
AcDbEntity
  8
0
 62
7
100
AcDbPolyline
 90
2
 70
0
 10
1289.473465
 20
965.360910
 30
0.0
 10
1287.687535
 20
966.270885
 30
0.0
  0
LWPOLYLINE
  5
540
100
AcDbEntity
  8
0
 62
7
100
AcDbPolyline
 90
2
 70
0
 10
1430.704968
 20
1201.786650
 30
0.0
 10
1428.077103
 20
1209.874350
 30
0.0
  0
LWPOLYLINE
  5
541
100
AcDbEntity
  8
0
 62
7
100
AcDbPolyline
 90
2
 70
0
 10
1501.803398
 20
1166.072850
 30
0.0
 10
1511.546445
 20
1196.058900
 30
0.0
  0
LWPOLYLINE
  5
542
100
AcDbEntity
  8
0
 62
7
100
AcDbPolyline
 90
2
 70
0
 10
1524.793312
 20
1236.828600
 30
0.0
 10
1499.285670
 20
1255.360950
 30
0.0
  0
LWPOLYLINE
  5
543
100
AcDbEntity
  8
0
 62
7
100
AcDbPolyline
 90
2
 70
0
 10
1464.604923
 20
1280.557995
 30
0.0
 10
1439.097281
 20
1262.025600
 30
0.0
  0
LWPOLYLINE
  5
544
100
AcDbEntity
  8
0
 62
7
100
AcDbPolyline
 90
2
 70
0
 10
1404.416538
 20
1236.828600
 30
0.0
 10
1414.159586
 20
1206.842550
 30
0.0
  0
LWPOLYLINE
  5
545
100
AcDbEntity
  8
0
 62
7
100
AcDbPolyline
 90
2
 70
0
 10
1427.406453
 20
1166.072850
 30
0.0
 10
1458.935635
 20
1166.072850
 30
0.0
  0
LWPOLYLINE
  5
546
100
AcDbEntity
  8
0
 62
7
100
AcDbPolyline
 90
2
 70
0
 10
1468.856895
 20
1180.246125
 30
0.0
 10
1460.352956
 20
1180.246125
 30
0.0
  0
LWPOLYLINE
  5
547
100
AcDbEntity
  8
0
 62
7
100
AcDbPolyline
 90
2
 70
0
 10
1468.856895
 20
1180.246125
 30
0.0
 10
1468.856895
 20
1167.490200
 30
0.0
  0
LWPOLYLINE
  5
548
100
AcDbEntity
  8
0
 62
7
100
AcDbPolyline
 90
2
 70
0
 10
1460.352956
 20
1180.246125
 30
0.0
 10
1460.352956
 20
1167.490200
 30
0.0
  0
LWPOLYLINE
  5
549
100
AcDbEntity
  8
0
 62
7
100
AcDbPolyline
 90
2
 70
0
 10
1428.077103
 20
1209.874350
 30
0.0
 10
1415.945516
 20
1205.932575
 30
0.0
  0
LWPOLYLINE
  5
54a
100
AcDbEntity
  8
0
 62
7
100
AcDbPolyline
 90
2
 70
0
 10
1430.704968
 20
1201.786650
 30
0.0
 10
1418.573380
 20
1197.844800
 30
0.0
  0
LWPOLYLINE
  5
54b
100
AcDbEntity
  8
0
 62
7
100
AcDbPolyline
 90
3
 70
0
 10
1439.401631
 20
1244.727675
 30
0.0
 10
1446.281463
 20
1249.726125
 30
0.0
 10
1438.783728
 20
1260.045900
 30
0.0
  0
LWPOLYLINE
  5
54c
100
AcDbEntity
  8
0
 62
7
100
AcDbPolyline
 90
2
 70
0
 10
1439.401631
 20
1244.727675
 30
0.0
 10
1431.903896
 20
1255.047375
 30
0.0
  0
LWPOLYLINE
  5
54d
100
AcDbEntity
  8
0
 62
7
100
AcDbPolyline
 90
3
 70
0
 10
1482.928388
 20
1249.726125
 30
0.0
 10
1489.808220
 20
1244.727675
 30
0.0
 10
1497.305955
 20
1255.047375
 30
0.0
  0
LWPOLYLINE
  5
54e
100
AcDbEntity
  8
0
 62
7
100
AcDbPolyline
 90
2
 70
0
 10
1482.928388
 20
1249.726125
 30
0.0
 10
1490.426123
 20
1260.045900
 30
0.0
  0
LWPOLYLINE
  5
54f
100
AcDbEntity
  8
0
 62
7
100
AcDbPolyline
 90
3
 70
0
 10
1501.132748
 20
1209.874350
 30
0.0
 10
1498.504883
 20
1201.786650
 30
0.0
 10
1510.636470
 20
1197.844800
 30
0.0
  0
LWPOLYLINE
  5
550
100
AcDbEntity
  8
0
 62
7
100
AcDbPolyline
 90
2
 70
0
 10
1501.132748
 20
1209.874350
 30
0.0
 10
1513.264335
 20
1205.932575
 30
0.0
  0
LWPOLYLINE
  5
551
100
AcDbEntity
  8
0
 62
7
100
AcDbPolyline
 90
2
 70
0
 10
1490.112570
 20
1262.025600
 30
0.0
 10
1464.604923
 20
1280.557995
 30
0.0
  0
LWPOLYLINE
  5
552
100
AcDbEntity
  8
0
 62
7
100
AcDbPolyline
 90
2
 70
0
 10
1515.050265
 20
1206.842550
 30
0.0
 10
1524.793312
 20
1236.828600
 30
0.0
  0
LWPOLYLINE
  5
553
100
AcDbEntity
  8
0
 62
7
100
AcDbPolyline
 90
2
 70
0
 10
1470.274215
 20
1166.072850
 30
0.0
 10
1501.803398
 20
1166.072850
 30
0.0
  0
LWPOLYLINE
  5
554
100
AcDbEntity
  8
0
 62
7
100
AcDbPolyline
 90
2
 70
0
 10
1417.663405
 20
1196.058900
 30
0.0
 10
1427.406453
 20
1166.072850
 30
0.0
  0
LWPOLYLINE
  5
555
100
AcDbEntity
  8
0
 62
7
100
AcDbPolyline
 90
2
 70
0
 10
1429.924181
 20
1255.360950
 30
0.0
 10
1404.416538
 20
1236.828600
 30
0.0
  0
LWPOLYLINE
  5
556
100
AcDbEntity
  8
0
 62
7
100
AcDbPolyline
 90
2
 70
0
 10
1431.903896
 20
1255.047375
 30
0.0
 10
1429.924181
 20
1255.360950
 30
0.0
  0
LWPOLYLINE
  5
557
100
AcDbEntity
  8
0
 62
7
100
AcDbPolyline
 90
2
 70
0
 10
1438.783728
 20
1260.045900
 30
0.0
 10
1439.097281
 20
1262.025600
 30
0.0
  0
LWPOLYLINE
  5
558
100
AcDbEntity
  8
0
 62
7
100
AcDbPolyline
 90
2
 70
0
 10
1490.426123
 20
1260.045900
 30
0.0
 10
1490.112570
 20
1262.025600
 30
0.0
  0
LWPOLYLINE
  5
559
100
AcDbEntity
  8
0
 62
7
100
AcDbPolyline
 90
2
 70
0
 10
1497.305955
 20
1255.047375
 30
0.0
 10
1499.285670
 20
1255.360950
 30
0.0
  0
LWPOLYLINE
  5
55a
100
AcDbEntity
  8
0
 62
7
100
AcDbPolyline
 90
2
 70
0
 10
1513.264335
 20
1205.932575
 30
0.0
 10
1515.050265
 20
1206.842550
 30
0.0
  0
LWPOLYLINE
  5
55b
100
AcDbEntity
  8
0
 62
7
100
AcDbPolyline
 90
2
 70
0
 10
1510.636470
 20
1197.844800
 30
0.0
 10
1511.546445
 20
1196.058900
 30
0.0
  0
LWPOLYLINE
  5
55c
100
AcDbEntity
  8
0
 62
7
100
AcDbPolyline
 90
2
 70
0
 10
1468.856895
 20
1167.490200
 30
0.0
 10
1470.274215
 20
1166.072850
 30
0.0
  0
LWPOLYLINE
  5
55d
100
AcDbEntity
  8
0
 62
7
100
AcDbPolyline
 90
2
 70
0
 10
1458.935635
 20
1166.072850
 30
0.0
 10
1460.352956
 20
1167.490200
 30
0.0
  0
LWPOLYLINE
  5
55e
100
AcDbEntity
  8
0
 62
7
100
AcDbPolyline
 90
2
 70
0
 10
1418.573380
 20
1197.844800
 30
0.0
 10
1417.663405
 20
1196.058900
 30
0.0
  0
LWPOLYLINE
  5
55f
100
AcDbEntity
  8
0
 62
7
100
AcDbPolyline
 90
2
 70
0
 10
1415.945516
 20
1205.932575
 30
0.0
 10
1414.159586
 20
1206.842550
 30
0.0
  0
LWPOLYLINE
  5
560
100
AcDbEntity
  8
0
 62
7
100
AcDbPolyline
 90
2
 70
0
 10
1430.704968
 20
1081.500817
 30
0.0
 10
1428.077103
 20
1089.588517
 30
0.0
  0
LWPOLYLINE
  5
561
100
AcDbEntity
  8
0
 62
7
100
AcDbPolyline
 90
2
 70
0
 10
1501.803398
 20
1045.787017
 30
0.0
 10
1511.546445
 20
1075.773067
 30
0.0
  0
LWPOLYLINE
  5
562
100
AcDbEntity
  8
0
 62
7
100
AcDbPolyline
 90
2
 70
0
 10
1524.793312
 20
1116.542768
 30
0.0
 10
1499.285670
 20
1135.075118
 30
0.0
  0
LWPOLYLINE
  5
563
100
AcDbEntity
  8
0
 62
7
100
AcDbPolyline
 90
2
 70
0
 10
1464.604923
 20
1160.272162
 30
0.0
 10
1439.097281
 20
1141.739767
 30
0.0
  0
LWPOLYLINE
  5
564
100
AcDbEntity
  8
0
 62
7
100
AcDbPolyline
 90
2
 70
0
 10
1404.416538
 20
1116.542768
 30
0.0
 10
1414.159586
 20
1086.556717
 30
0.0
  0
LWPOLYLINE
  5
565
100
AcDbEntity
  8
0
 62
7
100
AcDbPolyline
 90
2
 70
0
 10
1427.406453
 20
1045.787017
 30
0.0
 10
1458.935635
 20
1045.787017
 30
0.0
  0
LWPOLYLINE
  5
566
100
AcDbEntity
  8
0
 62
7
100
AcDbPolyline
 90
2
 70
0
 10
1468.856895
 20
1059.960292
 30
0.0
 10
1460.352956
 20
1059.960292
 30
0.0
  0
LWPOLYLINE
  5
567
100
AcDbEntity
  8
0
 62
7
100
AcDbPolyline
 90
2
 70
0
 10
1468.856895
 20
1059.960292
 30
0.0
 10
1468.856895
 20
1047.204367
 30
0.0
  0
LWPOLYLINE
  5
568
100
AcDbEntity
  8
0
 62
7
100
AcDbPolyline
 90
2
 70
0
 10
1460.352956
 20
1059.960292
 30
0.0
 10
1460.352956
 20
1047.204367
 30
0.0
  0
LWPOLYLINE
  5
569
100
AcDbEntity
  8
0
 62
7
100
AcDbPolyline
 90
2
 70
0
 10
1428.077103
 20
1089.588517
 30
0.0
 10
1415.945516
 20
1085.646743
 30
0.0
  0
LWPOLYLINE
  5
56a
100
AcDbEntity
  8
0
 62
7
100
AcDbPolyline
 90
2
 70
0
 10
1430.704968
 20
1081.500817
 30
0.0
 10
1418.573380
 20
1077.558967
 30
0.0
  0
LWPOLYLINE
  5
56b
100
AcDbEntity
  8
0
 62
7
100
AcDbPolyline
 90
3
 70
0
 10
1439.401631
 20
1124.441842
 30
0.0
 10
1446.281463
 20
1129.440292
 30
0.0
 10
1438.783728
 20
1139.760067
 30
0.0
  0
LWPOLYLINE
  5
56c
100
AcDbEntity
  8
0
 62
7
100
AcDbPolyline
 90
2
 70
0
 10
1439.401631
 20
1124.441842
 30
0.0
 10
1431.903896
 20
1134.761542
 30
0.0
  0
LWPOLYLINE
  5
56d
100
AcDbEntity
  8
0
 62
7
100
AcDbPolyline
 90
3
 70
0
 10
1482.928388
 20
1129.440292
 30
0.0
 10
1489.808220
 20
1124.441842
 30
0.0
 10
1497.305955
 20
1134.761542
 30
0.0
  0
LWPOLYLINE
  5
56e
100
AcDbEntity
  8
0
 62
7
100
AcDbPolyline
 90
2
 70
0
 10
1482.928388
 20
1129.440292
 30
0.0
 10
1490.426123
 20
1139.760067
 30
0.0
  0
LWPOLYLINE
  5
56f
100
AcDbEntity
  8
0
 62
7
100
AcDbPolyline
 90
3
 70
0
 10
1501.132748
 20
1089.588517
 30
0.0
 10
1498.504883
 20
1081.500817
 30
0.0
 10
1510.636470
 20
1077.558967
 30
0.0
  0
LWPOLYLINE
  5
570
100
AcDbEntity
  8
0
 62
7
100
AcDbPolyline
 90
2
 70
0
 10
1501.132748
 20
1089.588517
 30
0.0
 10
1513.264335
 20
1085.646743
 30
0.0
  0
LWPOLYLINE
  5
571
100
AcDbEntity
  8
0
 62
7
100
AcDbPolyline
 90
2
 70
0
 10
1490.112570
 20
1141.739767
 30
0.0
 10
1464.604923
 20
1160.272162
 30
0.0
  0
LWPOLYLINE
  5
572
100
AcDbEntity
  8
0
 62
7
100
AcDbPolyline
 90
2
 70
0
 10
1515.050265
 20
1086.556717
 30
0.0
 10
1524.793312
 20
1116.542768
 30
0.0
  0
LWPOLYLINE
  5
573
100
AcDbEntity
  8
0
 62
7
100
AcDbPolyline
 90
2
 70
0
 10
1470.274215
 20
1045.787017
 30
0.0
 10
1501.803398
 20
1045.787017
 30
0.0
  0
LWPOLYLINE
  5
574
100
AcDbEntity
  8
0
 62
7
100
AcDbPolyline
 90
2
 70
0
 10
1417.663405
 20
1075.773067
 30
0.0
 10
1427.406453
 20
1045.787017
 30
0.0
  0
LWPOLYLINE
  5
575
100
AcDbEntity
  8
0
 62
7
100
AcDbPolyline
 90
2
 70
0
 10
1429.924181
 20
1135.075118
 30
0.0
 10
1404.416538
 20
1116.542768
 30
0.0
  0
LWPOLYLINE
  5
576
100
AcDbEntity
  8
0
 62
7
100
AcDbPolyline
 90
2
 70
0
 10
1431.903896
 20
1134.761542
 30
0.0
 10
1429.924181
 20
1135.075118
 30
0.0
  0
LWPOLYLINE
  5
577
100
AcDbEntity
  8
0
 62
7
100
AcDbPolyline
 90
2
 70
0
 10
1438.783728
 20
1139.760067
 30
0.0
 10
1439.097281
 20
1141.739767
 30
0.0
  0
LWPOLYLINE
  5
578
100
AcDbEntity
  8
0
 62
7
100
AcDbPolyline
 90
2
 70
0
 10
1490.426123
 20
1139.760067
 30
0.0
 10
1490.112570
 20
1141.739767
 30
0.0
  0
LWPOLYLINE
  5
579
100
AcDbEntity
  8
0
 62
7
100
AcDbPolyline
 90
2
 70
0
 10
1497.305955
 20
1134.761542
 30
0.0
 10
1499.285670
 20
1135.075118
 30
0.0
  0
LWPOLYLINE
  5
57a
100
AcDbEntity
  8
0
 62
7
100
AcDbPolyline
 90
2
 70
0
 10
1513.264335
 20
1085.646743
 30
0.0
 10
1515.050265
 20
1086.556717
 30
0.0
  0
LWPOLYLINE
  5
57b
100
AcDbEntity
  8
0
 62
7
100
AcDbPolyline
 90
2
 70
0
 10
1510.636470
 20
1077.558967
 30
0.0
 10
1511.546445
 20
1075.773067
 30
0.0
  0
LWPOLYLINE
  5
57c
100
AcDbEntity
  8
0
 62
7
100
AcDbPolyline
 90
2
 70
0
 10
1468.856895
 20
1047.204367
 30
0.0
 10
1470.274215
 20
1045.787018
 30
0.0
  0
LWPOLYLINE
  5
57d
100
AcDbEntity
  8
0
 62
7
100
AcDbPolyline
 90
2
 70
0
 10
1458.935635
 20
1045.787017
 30
0.0
 10
1460.352956
 20
1047.204367
 30
0.0
  0
LWPOLYLINE
  5
57e
100
AcDbEntity
  8
0
 62
7
100
AcDbPolyline
 90
2
 70
0
 10
1418.573380
 20
1077.558967
 30
0.0
 10
1417.663405
 20
1075.773067
 30
0.0
  0
LWPOLYLINE
  5
57f
100
AcDbEntity
  8
0
 62
7
100
AcDbPolyline
 90
2
 70
0
 10
1415.945516
 20
1085.646743
 30
0.0
 10
1414.159586
 20
1086.556717
 30
0.0
  0
LWPOLYLINE
  5
580
100
AcDbEntity
  8
0
 62
7
100
AcDbPolyline
 90
2
 70
0
 10
1430.704968
 20
961.214985
 30
0.0
 10
1428.077103
 20
969.302685
 30
0.0
  0
LWPOLYLINE
  5
581
100
AcDbEntity
  8
0
 62
7
100
AcDbPolyline
 90
2
 70
0
 10
1501.803398
 20
925.501185
 30
0.0
 10
1511.546445
 20
955.487235
 30
0.0
  0
LWPOLYLINE
  5
582
100
AcDbEntity
  8
0
 62
7
100
AcDbPolyline
 90
2
 70
0
 10
1524.793312
 20
996.256935
 30
0.0
 10
1499.285670
 20
1014.789285
 30
0.0
  0
LWPOLYLINE
  5
583
100
AcDbEntity
  8
0
 62
7
100
AcDbPolyline
 90
2
 70
0
 10
1464.604923
 20
1039.986330
 30
0.0
 10
1439.097281
 20
1021.453935
 30
0.0
  0
LWPOLYLINE
  5
584
100
AcDbEntity
  8
0
 62
7
100
AcDbPolyline
 90
2
 70
0
 10
1404.416538
 20
996.256935
 30
0.0
 10
1414.159586
 20
966.270885
 30
0.0
  0
LWPOLYLINE
  5
585
100
AcDbEntity
  8
0
 62
7
100
AcDbPolyline
 90
2
 70
0
 10
1427.406453
 20
925.501185
 30
0.0
 10
1458.935635
 20
925.501185
 30
0.0
  0
LWPOLYLINE
  5
586
100
AcDbEntity
  8
0
 62
7
100
AcDbPolyline
 90
2
 70
0
 10
1468.856895
 20
939.674460
 30
0.0
 10
1460.352956
 20
939.674460
 30
0.0
  0
LWPOLYLINE
  5
587
100
AcDbEntity
  8
0
 62
7
100
AcDbPolyline
 90
2
 70
0
 10
1468.856895
 20
939.674460
 30
0.0
 10
1468.856895
 20
926.918535
 30
0.0
  0
LWPOLYLINE
  5
588
100
AcDbEntity
  8
0
 62
7
100
AcDbPolyline
 90
2
 70
0
 10
1460.352956
 20
939.674460
 30
0.0
 10
1460.352956
 20
926.918535
 30
0.0
  0
LWPOLYLINE
  5
589
100
AcDbEntity
  8
0
 62
7
100
AcDbPolyline
 90
2
 70
0
 10
1428.077103
 20
969.302685
 30
0.0
 10
1415.945516
 20
965.360910
 30
0.0
  0
LWPOLYLINE
  5
58a
100
AcDbEntity
  8
0
 62
7
100
AcDbPolyline
 90
2
 70
0
 10
1430.704968
 20
961.214985
 30
0.0
 10
1418.573380
 20
957.273135
 30
0.0
  0
LWPOLYLINE
  5
58b
100
AcDbEntity
  8
0
 62
7
100
AcDbPolyline
 90
3
 70
0
 10
1439.401631
 20
1004.156010
 30
0.0
 10
1446.281463
 20
1009.154460
 30
0.0
 10
1438.783728
 20
1019.474235
 30
0.0
  0
LWPOLYLINE
  5
58c
100
AcDbEntity
  8
0
 62
7
100
AcDbPolyline
 90
2
 70
0
 10
1439.401631
 20
1004.156010
 30
0.0
 10
1431.903896
 20
1014.475710
 30
0.0
  0
LWPOLYLINE
  5
58d
100
AcDbEntity
  8
0
 62
7
100
AcDbPolyline
 90
3
 70
0
 10
1482.928388
 20
1009.154460
 30
0.0
 10
1489.808220
 20
1004.156010
 30
0.0
 10
1497.305955
 20
1014.475710
 30
0.0
  0
LWPOLYLINE
  5
58e
100
AcDbEntity
  8
0
 62
7
100
AcDbPolyline
 90
2
 70
0
 10
1482.928388
 20
1009.154460
 30
0.0
 10
1490.426123
 20
1019.474235
 30
0.0
  0
LWPOLYLINE
  5
58f
100
AcDbEntity
  8
0
 62
7
100
AcDbPolyline
 90
3
 70
0
 10
1501.132748
 20
969.302685
 30
0.0
 10
1498.504883
 20
961.214985
 30
0.0
 10
1510.636470
 20
957.273135
 30
0.0
  0
LWPOLYLINE
  5
590
100
AcDbEntity
  8
0
 62
7
100
AcDbPolyline
 90
2
 70
0
 10
1501.132748
 20
969.302685
 30
0.0
 10
1513.264335
 20
965.360910
 30
0.0
  0
LWPOLYLINE
  5
591
100
AcDbEntity
  8
0
 62
7
100
AcDbPolyline
 90
2
 70
0
 10
1490.112570
 20
1021.453935
 30
0.0
 10
1464.604923
 20
1039.986330
 30
0.0
  0
LWPOLYLINE
  5
592
100
AcDbEntity
  8
0
 62
7
100
AcDbPolyline
 90
2
 70
0
 10
1515.050265
 20
966.270885
 30
0.0
 10
1524.793312
 20
996.256935
 30
0.0
  0
LWPOLYLINE
  5
593
100
AcDbEntity
  8
0
 62
7
100
AcDbPolyline
 90
2
 70
0
 10
1470.274215
 20
925.501185
 30
0.0
 10
1501.803398
 20
925.501185
 30
0.0
  0
LWPOLYLINE
  5
594
100
AcDbEntity
  8
0
 62
7
100
AcDbPolyline
 90
2
 70
0
 10
1417.663405
 20
955.487235
 30
0.0
 10
1427.406453
 20
925.501185
 30
0.0
  0
LWPOLYLINE
  5
595
100
AcDbEntity
  8
0
 62
7
100
AcDbPolyline
 90
2
 70
0
 10
1429.924181
 20
1014.789285
 30
0.0
 10
1404.416538
 20
996.256935
 30
0.0
  0
LWPOLYLINE
  5
596
100
AcDbEntity
  8
0
 62
7
100
AcDbPolyline
 90
2
 70
0
 10
1431.903896
 20
1014.475710
 30
0.0
 10
1429.924181
 20
1014.789285
 30
0.0
  0
LWPOLYLINE
  5
597
100
AcDbEntity
  8
0
 62
7
100
AcDbPolyline
 90
2
 70
0
 10
1438.783728
 20
1019.474235
 30
0.0
 10
1439.097281
 20
1021.453935
 30
0.0
  0
LWPOLYLINE
  5
598
100
AcDbEntity
  8
0
 62
7
100
AcDbPolyline
 90
2
 70
0
 10
1490.426123
 20
1019.474235
 30
0.0
 10
1490.112570
 20
1021.453935
 30
0.0
  0
LWPOLYLINE
  5
599
100
AcDbEntity
  8
0
 62
7
100
AcDbPolyline
 90
2
 70
0
 10
1497.305955
 20
1014.475710
 30
0.0
 10
1499.285670
 20
1014.789285
 30
0.0
  0
LWPOLYLINE
  5
59a
100
AcDbEntity
  8
0
 62
7
100
AcDbPolyline
 90
2
 70
0
 10
1513.264335
 20
965.360910
 30
0.0
 10
1515.050265
 20
966.270885
 30
0.0
  0
LWPOLYLINE
  5
59b
100
AcDbEntity
  8
0
 62
7
100
AcDbPolyline
 90
2
 70
0
 10
1510.636470
 20
957.273135
 30
0.0
 10
1511.546445
 20
955.487235
 30
0.0
  0
LWPOLYLINE
  5
59c
100
AcDbEntity
  8
0
 62
7
100
AcDbPolyline
 90
2
 70
0
 10
1468.856895
 20
926.918535
 30
0.0
 10
1470.274215
 20
925.501185
 30
0.0
  0
LWPOLYLINE
  5
59d
100
AcDbEntity
  8
0
 62
7
100
AcDbPolyline
 90
2
 70
0
 10
1458.935635
 20
925.501185
 30
0.0
 10
1460.352956
 20
926.918535
 30
0.0
  0
LWPOLYLINE
  5
59e
100
AcDbEntity
  8
0
 62
7
100
AcDbPolyline
 90
2
 70
0
 10
1418.573380
 20
957.273135
 30
0.0
 10
1417.663405
 20
955.487235
 30
0.0
  0
LWPOLYLINE
  5
59f
100
AcDbEntity
  8
0
 62
7
100
AcDbPolyline
 90
2
 70
0
 10
1415.945516
 20
965.360910
 30
0.0
 10
1414.159586
 20
966.270885
 30
0.0
  0
ENDSEC
  0
SECTION
  2
OBJECTS
  0
DICTIONARY
  5
C
330
0
100
AcDbDictionary
  3
ACAD_GROUP
350
D
  3
ACAD_MLINESTYLE
350
17
  0
DICTIONARY
  5
D
330
C
100
AcDbDictionary
  0
DICTIONARY
  5
1A
330
C
100
AcDbDictionary
  0
DICTIONARY
  5
17
330
C
100
AcDbDictionary
  3
STANDARD
350
18
  0
DICTIONARY
  5
19
330
C
100
AcDbDictionary
  0
ENDSEC
  0
EOF
