G04 #@! TF.GenerationSoftware,KiCad,Pcbnew,(5.1.2)-1*
G04 #@! TF.CreationDate,2019-05-11T18:41:51-07:00*
G04 #@! TF.ProjectId,Assignment5_box_top,41737369-676e-46d6-956e-74355f626f78,rev?*
G04 #@! TF.SameCoordinates,Original*
G04 #@! TF.FileFunction,Profile,NP*
%FSLAX46Y46*%
G04 Gerber Fmt 4.6, Leading zero omitted, Abs format (unit mm)*
G04 Created by KiCad (PCBNEW (5.1.2)-1) date 2019-05-11 18:41:51*
%MOMM*%
%LPD*%
G04 APERTURE LIST*
%ADD10C,0.200000*%
%ADD11C,0.050000*%
G04 APERTURE END LIST*
D10*
X50580000Y-124260000D02*
X50580000Y-125260000D01*
X79020000Y-133440000D02*
G75*
G02X77460000Y-131880000I0J1560000D01*
G01*
X74020000Y-140570000D02*
X71140000Y-140570000D01*
X56900000Y-140570000D02*
G75*
G02X58460000Y-139010000I1560000J0D01*
G01*
X50580000Y-131880000D02*
G75*
G02X49020000Y-133440000I-1560000J0D01*
G01*
X50580000Y-137130000D02*
X50580000Y-139010000D01*
X49020000Y-133440000D02*
X49020000Y-135570000D01*
X52460000Y-117130000D02*
X50580000Y-117130000D01*
X69580000Y-139010000D02*
X67080000Y-139010000D01*
X52460000Y-139010000D02*
X50580000Y-139010000D01*
X50580000Y-125260000D02*
G75*
G02X49020000Y-126820000I-1560000J0D01*
G01*
X65520000Y-140570000D02*
X62520000Y-140570000D01*
X77460000Y-130880000D02*
G75*
G02X79020000Y-129320000I1560000J0D01*
G01*
X74020000Y-140570000D02*
G75*
G02X75580000Y-139010000I1560000J0D01*
G01*
X75580000Y-139010000D02*
X77460000Y-139010000D01*
X60960000Y-139010000D02*
G75*
G02X62520000Y-140570000I0J-1560000D01*
G01*
X67080000Y-117130000D02*
G75*
G02X65520000Y-115570000I0J1560000D01*
G01*
X69580000Y-117130000D02*
X67080000Y-117130000D01*
X49020000Y-129320000D02*
G75*
G02X50580000Y-130880000I0J-1560000D01*
G01*
X71140000Y-115570000D02*
G75*
G02X69580000Y-117130000I-1560000J0D01*
G01*
X79020000Y-133440000D02*
X79020000Y-135570000D01*
X65520000Y-140570000D02*
G75*
G02X67080000Y-139010000I1560000J0D01*
G01*
X74020000Y-115570000D02*
X71140000Y-115570000D01*
X69580000Y-139010000D02*
G75*
G02X71140000Y-140570000I0J-1560000D01*
G01*
X75580000Y-117130000D02*
G75*
G02X74020000Y-115570000I0J1560000D01*
G01*
X49020000Y-126820000D02*
X49020000Y-129320000D01*
X75580000Y-117130000D02*
X77460000Y-117130000D01*
X77460000Y-137130000D02*
G75*
G02X79020000Y-135570000I1560000J0D01*
G01*
X77460000Y-119010000D02*
X77460000Y-117130000D01*
X79020000Y-120570000D02*
G75*
G02X77460000Y-119010000I0J1560000D01*
G01*
X79020000Y-120570000D02*
X79020000Y-122700000D01*
X77460000Y-124260000D02*
X77460000Y-125260000D01*
X77460000Y-124260000D02*
G75*
G02X79020000Y-122700000I1560000J0D01*
G01*
X52460000Y-139010000D02*
G75*
G02X54020000Y-140570000I0J-1560000D01*
G01*
X79020000Y-126820000D02*
G75*
G02X77460000Y-125260000I0J1560000D01*
G01*
X79020000Y-126820000D02*
X79020000Y-129320000D01*
X77460000Y-131880000D02*
X77460000Y-130880000D01*
X58460000Y-139010000D02*
X60960000Y-139010000D01*
X49020000Y-122700000D02*
G75*
G02X50580000Y-124260000I0J-1560000D01*
G01*
X49020000Y-135570000D02*
G75*
G02X50580000Y-137130000I0J-1560000D01*
G01*
X50580000Y-131880000D02*
X50580000Y-130880000D01*
X56900000Y-140570000D02*
X54020000Y-140570000D01*
X50580000Y-119010000D02*
G75*
G02X49020000Y-120570000I-1560000J0D01*
G01*
X49020000Y-120570000D02*
X49020000Y-122700000D01*
X77460000Y-137130000D02*
X77460000Y-139010000D01*
X50580000Y-119010000D02*
X50580000Y-117130000D01*
X58460000Y-117130000D02*
X60960000Y-117130000D01*
X54020000Y-115570000D02*
G75*
G02X52460000Y-117130000I-1560000J0D01*
G01*
X56900000Y-115570000D02*
X54020000Y-115570000D01*
X58460000Y-117130000D02*
G75*
G02X56900000Y-115570000I0J1560000D01*
G01*
X65520000Y-115570000D02*
X62520000Y-115570000D01*
X62520000Y-115570000D02*
G75*
G02X60960000Y-117130000I-1560000J0D01*
G01*
X39610000Y-115940000D02*
G75*
G02X38050000Y-117500000I-1560000J0D01*
G01*
X35550000Y-117500000D02*
G75*
G02X33990000Y-115940000I0J1560000D01*
G01*
X33990000Y-115940000D02*
X30990000Y-115940000D01*
X30990000Y-115940000D02*
G75*
G02X29430000Y-117500000I-1560000J0D01*
G01*
X42490000Y-115940000D02*
X39610000Y-115940000D01*
X38050000Y-117500000D02*
X35550000Y-117500000D01*
X45930000Y-131250000D02*
G75*
G02X47490000Y-129690000I1560000J0D01*
G01*
X45930000Y-132250000D02*
X45930000Y-131250000D01*
X45930000Y-124630000D02*
G75*
G02X47490000Y-123070000I1560000J0D01*
G01*
X33990000Y-140940000D02*
X30990000Y-140940000D01*
X44050000Y-117500000D02*
X45930000Y-117500000D01*
X47490000Y-120940000D02*
X47490000Y-123070000D01*
X47490000Y-127190000D02*
X47490000Y-129690000D01*
X44050000Y-139380000D02*
X45930000Y-139380000D01*
X47490000Y-133810000D02*
X47490000Y-135940000D01*
X45930000Y-137500000D02*
X45930000Y-139380000D01*
X45930000Y-119380000D02*
X45930000Y-117500000D01*
X47490000Y-120940000D02*
G75*
G02X45930000Y-119380000I0J1560000D01*
G01*
X47490000Y-133810000D02*
G75*
G02X45930000Y-132250000I0J1560000D01*
G01*
X45930000Y-124630000D02*
X45930000Y-125630000D01*
X45930000Y-137500000D02*
G75*
G02X47490000Y-135940000I1560000J0D01*
G01*
X42490000Y-140940000D02*
X39610000Y-140940000D01*
X42490000Y-140940000D02*
G75*
G02X44050000Y-139380000I1560000J0D01*
G01*
X38050000Y-139380000D02*
G75*
G02X39610000Y-140940000I0J-1560000D01*
G01*
X33990000Y-140940000D02*
G75*
G02X35550000Y-139380000I1560000J0D01*
G01*
X29430000Y-139380000D02*
G75*
G02X30990000Y-140940000I0J-1560000D01*
G01*
X47490000Y-127190000D02*
G75*
G02X45930000Y-125630000I0J1560000D01*
G01*
X38050000Y-139380000D02*
X35550000Y-139380000D01*
X44050000Y-117500000D02*
G75*
G02X42490000Y-115940000I0J1560000D01*
G01*
X25370000Y-140940000D02*
X22490000Y-140940000D01*
X20930000Y-139380000D02*
X19050000Y-139380000D01*
X19050000Y-137500000D02*
X19050000Y-139380000D01*
X17490000Y-129690000D02*
G75*
G02X19050000Y-131250000I0J-1560000D01*
G01*
X17490000Y-133810000D02*
X17490000Y-135940000D01*
X20930000Y-117500000D02*
X19050000Y-117500000D01*
X19050000Y-119380000D02*
G75*
G02X17490000Y-120940000I-1560000J0D01*
G01*
X19050000Y-132250000D02*
X19050000Y-131250000D01*
X26930000Y-117500000D02*
X29430000Y-117500000D01*
X26930000Y-117500000D02*
G75*
G02X25370000Y-115940000I0J1560000D01*
G01*
X17490000Y-127190000D02*
X17490000Y-129690000D01*
X25370000Y-115940000D02*
X22490000Y-115940000D01*
X17490000Y-135940000D02*
G75*
G02X19050000Y-137500000I0J-1560000D01*
G01*
X22490000Y-115940000D02*
G75*
G02X20930000Y-117500000I-1560000J0D01*
G01*
X17490000Y-120940000D02*
X17490000Y-123070000D01*
X26930000Y-139380000D02*
X29430000Y-139380000D01*
X19050000Y-124630000D02*
X19050000Y-125630000D01*
X25370000Y-140940000D02*
G75*
G02X26930000Y-139380000I1560000J0D01*
G01*
X19050000Y-125630000D02*
G75*
G02X17490000Y-127190000I-1560000J0D01*
G01*
X20930000Y-139380000D02*
G75*
G02X22490000Y-140940000I0J-1560000D01*
G01*
X19050000Y-132250000D02*
G75*
G02X17490000Y-133810000I-1560000J0D01*
G01*
X17490000Y-123070000D02*
G75*
G02X19050000Y-124630000I0J-1560000D01*
G01*
X19050000Y-119380000D02*
X19050000Y-117500000D01*
X74845000Y-141950000D02*
X49900000Y-141950000D01*
X66155000Y-145097500D02*
G75*
G02X65668750Y-144931125I0J793750D01*
G01*
X58590000Y-160627500D02*
G75*
G02X59076250Y-160793875I0J-793750D01*
G01*
X71405000Y-162214999D02*
X66155000Y-162214999D01*
X71405000Y-145097500D02*
X66155000Y-145097500D01*
X71405000Y-143510000D02*
G75*
G02X71405000Y-145097500I0J-793750D01*
G01*
X71405000Y-160627501D02*
G75*
G02X71405000Y-162214999I0J-793749D01*
G01*
X65668749Y-162048625D02*
G75*
G02X65182500Y-162214999I-486249J627375D01*
G01*
X74845000Y-163774999D02*
X49900000Y-163774999D01*
X59076249Y-162048625D02*
G75*
G02X58590000Y-162214999I-486249J627375D01*
G01*
X65182500Y-162214999D02*
X59562500Y-162214999D01*
X53340000Y-160627500D02*
X58590000Y-160627500D01*
X49900000Y-141950000D02*
X49900000Y-163774999D01*
X74845000Y-141950000D02*
X74845000Y-163774999D01*
X53340000Y-162214999D02*
X58590000Y-162214999D01*
X59076250Y-160793875D02*
G75*
G02X59562500Y-160627500I486250J-627375D01*
G01*
X59562500Y-162215000D02*
G75*
G02X59076250Y-162048625I0J793750D01*
G01*
X71405000Y-160627500D02*
X66155000Y-160627500D01*
X53340000Y-162215000D02*
G75*
G02X53340000Y-160627500I0J793750D01*
G01*
X59562500Y-145097500D02*
G75*
G02X59076250Y-144931125I0J793750D01*
G01*
X59562500Y-145097500D02*
X65182500Y-145097500D01*
X65668750Y-144931125D02*
G75*
G02X65182500Y-145097500I-486250J627375D01*
G01*
X66155000Y-162215000D02*
G75*
G02X65668750Y-162048625I0J793750D01*
G01*
X65668750Y-160793875D02*
G75*
G02X66155000Y-160627500I486250J-627375D01*
G01*
X65182500Y-160627500D02*
G75*
G02X65668750Y-160793875I0J-793750D01*
G01*
X65182500Y-160627500D02*
X59562500Y-160627500D01*
X65182500Y-143510000D02*
G75*
G02X65668750Y-143676375I0J-793750D01*
G01*
X58590000Y-143510000D02*
G75*
G02X59076250Y-143676375I0J-793750D01*
G01*
X59076250Y-144931125D02*
G75*
G02X58590000Y-145097500I-486250J627375D01*
G01*
X53340000Y-145097500D02*
G75*
G02X53340000Y-143510000I0J793750D01*
G01*
X59076250Y-143676375D02*
G75*
G02X59562500Y-143510000I486250J-627375D01*
G01*
X71405000Y-143510000D02*
X66155000Y-143510000D01*
X65668750Y-143676375D02*
G75*
G02X66155000Y-143510000I486250J-627375D01*
G01*
X59562500Y-143510000D02*
X65182500Y-143510000D01*
X53340000Y-145097500D02*
X58590000Y-145097500D01*
X53340000Y-143510000D02*
X58590000Y-143510000D01*
X74845000Y-167350000D02*
X49900000Y-167350000D01*
X66155000Y-170497500D02*
G75*
G02X65668750Y-170331125I0J793750D01*
G01*
X58590000Y-186027500D02*
G75*
G02X59076250Y-186193875I0J-793750D01*
G01*
X71405000Y-187614999D02*
X66155000Y-187614999D01*
X71405000Y-170497500D02*
X66155000Y-170497500D01*
X71405000Y-168910000D02*
G75*
G02X71405000Y-170497500I0J-793750D01*
G01*
X71405000Y-186027501D02*
G75*
G02X71405000Y-187614999I0J-793749D01*
G01*
X65668749Y-187448625D02*
G75*
G02X65182500Y-187614999I-486249J627375D01*
G01*
X74845000Y-189174999D02*
X49900000Y-189174999D01*
X59076249Y-187448625D02*
G75*
G02X58590000Y-187614999I-486249J627375D01*
G01*
X65182500Y-187614999D02*
X59562500Y-187614999D01*
X53340000Y-186027500D02*
X58590000Y-186027500D01*
X49900000Y-167350000D02*
X49900000Y-189174999D01*
X74845000Y-167350000D02*
X74845000Y-189174999D01*
X53340000Y-187614999D02*
X58590000Y-187614999D01*
X59076250Y-186193875D02*
G75*
G02X59562500Y-186027500I486250J-627375D01*
G01*
X59562500Y-187615000D02*
G75*
G02X59076250Y-187448625I0J793750D01*
G01*
X71405000Y-186027500D02*
X66155000Y-186027500D01*
X53340000Y-187615000D02*
G75*
G02X53340000Y-186027500I0J793750D01*
G01*
X59562500Y-170497500D02*
G75*
G02X59076250Y-170331125I0J793750D01*
G01*
X59562500Y-170497500D02*
X65182500Y-170497500D01*
X65668750Y-170331125D02*
G75*
G02X65182500Y-170497500I-486250J627375D01*
G01*
X66155000Y-187615000D02*
G75*
G02X65668750Y-187448625I0J793750D01*
G01*
X65668750Y-186193875D02*
G75*
G02X66155000Y-186027500I486250J-627375D01*
G01*
X65182500Y-186027500D02*
G75*
G02X65668750Y-186193875I0J-793750D01*
G01*
X65182500Y-186027500D02*
X59562500Y-186027500D01*
X65182500Y-168910000D02*
G75*
G02X65668750Y-169076375I0J-793750D01*
G01*
X58590000Y-168910000D02*
G75*
G02X59076250Y-169076375I0J-793750D01*
G01*
X59076250Y-170331125D02*
G75*
G02X58590000Y-170497500I-486250J627375D01*
G01*
X53340000Y-170497500D02*
G75*
G02X53340000Y-168910000I0J793750D01*
G01*
X59076250Y-169076375D02*
G75*
G02X59562500Y-168910000I486250J-627375D01*
G01*
X71405000Y-168910000D02*
X66155000Y-168910000D01*
X65668750Y-169076375D02*
G75*
G02X66155000Y-168910000I486250J-627375D01*
G01*
X59562500Y-168910000D02*
X65182500Y-168910000D01*
X53340000Y-170497500D02*
X58590000Y-170497500D01*
X53340000Y-168910000D02*
X58590000Y-168910000D01*
X30695000Y-162704999D02*
X36870000Y-162704999D01*
X22195000Y-161144999D02*
X28195000Y-161144999D01*
X36870000Y-144000000D02*
G75*
G02X36870000Y-145560000I0J-780000D01*
G01*
X45370000Y-161144999D02*
G75*
G02X45370000Y-162704999I0J-780000D01*
G01*
X39370000Y-161144999D02*
X45370000Y-161144999D01*
X30695000Y-161144999D02*
X36870000Y-161144999D01*
X30695000Y-145560000D02*
G75*
G02X30695000Y-144000000I0J780000D01*
G01*
X22195000Y-162704999D02*
G75*
G02X22195000Y-161144999I0J780000D01*
G01*
X36870000Y-161144998D02*
G75*
G02X36870000Y-162705000I0J-780001D01*
G01*
X39370000Y-162704999D02*
X45370000Y-162704999D01*
X30695000Y-145560000D02*
X36870000Y-145560000D01*
X30695000Y-162704999D02*
G75*
G02X30695000Y-161144999I0J780000D01*
G01*
X30695000Y-144000000D02*
X36870000Y-144000000D01*
X47195000Y-164264999D02*
X20370000Y-164264999D01*
X20370000Y-142440000D02*
X20370000Y-164264999D01*
X47195000Y-142439999D02*
X47195000Y-164264999D01*
X47195000Y-142439999D02*
X20370000Y-142440000D01*
X28195000Y-161144999D02*
G75*
G02X28195000Y-162704999I0J-780000D01*
G01*
X28195000Y-162704999D02*
X22195000Y-162704999D01*
X39370000Y-162704999D02*
G75*
G02X39370000Y-161144999I0J780000D01*
G01*
X39370000Y-145560000D02*
X45370000Y-145560000D01*
X28195000Y-144000000D02*
X22195000Y-144000000D01*
X22195000Y-145560000D02*
X28195000Y-145560000D01*
X45370000Y-144000000D02*
G75*
G02X45370000Y-145560000I0J-780000D01*
G01*
X28195000Y-144000000D02*
G75*
G02X28195000Y-145560000I0J-780000D01*
G01*
X39370000Y-144000000D02*
X45370000Y-144000000D01*
X22195000Y-145560000D02*
G75*
G02X22195000Y-144000000I0J780000D01*
G01*
X39370000Y-145560000D02*
G75*
G02X39370000Y-144000000I0J780000D01*
G01*
D11*
X19446666Y-190500000D02*
G75*
G03X19446666Y-190500000I-1666666J0D01*
G01*
X15280000Y-190500000D02*
X20280000Y-190500000D01*
X17780000Y-188000000D02*
X17780000Y-193000000D01*
D10*
X20155000Y-167060000D02*
X20155000Y-188884999D01*
X45155000Y-185764999D02*
G75*
G02X45155000Y-187324999I0J-780000D01*
G01*
X21980000Y-185764999D02*
X27980000Y-185764999D01*
X46980000Y-167059999D02*
X20155000Y-167060000D01*
X39155000Y-185764999D02*
X45155000Y-185764999D01*
X46980000Y-188884999D02*
X20155000Y-188884999D01*
X39155000Y-187324999D02*
G75*
G02X39155000Y-185764999I0J780000D01*
G01*
X21980000Y-187324999D02*
G75*
G02X21980000Y-185764999I0J780000D01*
G01*
X27980000Y-185764999D02*
G75*
G02X27980000Y-187324999I0J-780000D01*
G01*
X30480000Y-187324999D02*
X36655000Y-187324999D01*
X46980000Y-167059999D02*
X46980000Y-188884999D01*
X27980000Y-187324999D02*
X21980000Y-187324999D01*
X36655000Y-185764998D02*
G75*
G02X36655000Y-187325000I0J-780001D01*
G01*
X39155000Y-187324999D02*
X45155000Y-187324999D01*
X30480000Y-185764999D02*
X36655000Y-185764999D01*
X45155000Y-168620000D02*
G75*
G02X45155000Y-170180000I0J-780000D01*
G01*
X39155000Y-170180000D02*
X45155000Y-170180000D01*
X39155000Y-170180000D02*
G75*
G02X39155000Y-168620000I0J780000D01*
G01*
X39155000Y-168620000D02*
X45155000Y-168620000D01*
X21980000Y-170180000D02*
X27980000Y-170180000D01*
X36655000Y-168620000D02*
G75*
G02X36655000Y-170180000I0J-780000D01*
G01*
X30480000Y-170180000D02*
G75*
G02X30480000Y-168620000I0J780000D01*
G01*
X27980000Y-168620000D02*
G75*
G02X27980000Y-170180000I0J-780000D01*
G01*
X27980000Y-168620000D02*
X21980000Y-168620000D01*
X21980000Y-170180000D02*
G75*
G02X21980000Y-168620000I0J780000D01*
G01*
X30480000Y-168620000D02*
X36655000Y-168620000D01*
X30480000Y-187324999D02*
G75*
G02X30480000Y-185764999I0J780000D01*
G01*
X30480000Y-170180000D02*
X36655000Y-170180000D01*
M02*
