  0
SECTION
  2
HEADER
  9
$ACADVER
  1
AC1014
  9
$HANDSEED
  5
FFFF
  9
$MEASUREMENT
 70
     1
  0
ENDSEC
  0
SECTION
  2
TABLES
  0
TABLE
  2
VPORT
  5
8
330
0
100
AcDbSymbolTable
 70
     4
  0
VPORT
  5
2E
330
8
100
AcDbSymbolTableRecord
100
AcDbViewportTableRecord
  2
*ACTIVE
 70
     0
 10
0.0
 20
0.0
 11
1.0
 21
1.0
 12
210.0
 22
148.5
 13
0.0
 23
0.0
 14
10.0
 24
10.0
 15
10.0
 25
10.0
 16
0.0
 26
0.0
 36
1.0
 17
0.0
 27
0.0
 37
0.0
 40
341.0
 41
1.24
 42
50.0
 43
0.0
 44
0.0
 50
0.0
 51
0.0
 71
     0
 72
   100
 73
     1
 74
     3
 75
     0
 76
     0
 77
     0
 78
     0
  0
ENDTAB
  0
TABLE
  2
LTYPE
  5
5
330
0
100
AcDbSymbolTable
 70
     1
  0
LTYPE
  5
14
330
5
100
AcDbSymbolTableRecord
100
AcDbLinetypeTableRecord
  2
BYBLOCK
 70
     0
  3

 72
    65
 73
     0
 40
0.0
  0
LTYPE
  5
15
330
5
100
AcDbSymbolTableRecord
100
AcDbLinetypeTableRecord
  2
BYLAYER
 70
     0
  3

 72
    65
 73
     0
 40
0.0
  0
LTYPE
  5
16
330
5
100
AcDbSymbolTableRecord
100
AcDbLinetypeTableRecord
  2
CONTINUOUS
 70
     0
  3
Solid line
 72
    65
 73
     0
 40
0.0
  0
ENDTAB
  0
TABLE
  2
LAYER
  5
2
100
AcDbSymbolTable
 70
1
  0
LAYER
  5
50
100
AcDbSymbolTableRecord
100
AcDbLayerTableRecord
  2
0
 70
0
  6
CONTINUOUS
  0
ENDTAB
  0
TABLE
  2
STYLE
  5
3
330
0
100
AcDbSymbolTable
 70
     1
  0
STYLE
  5
11
330
3
100
AcDbSymbolTableRecord
100
AcDbTextStyleTableRecord
  2
STANDARD
 70
     0
 40
0.0
 41
1.0
 50
0.0
 71
     0
 42
2.5
  3
txt
  4

  0
ENDTAB
  0
TABLE
  2
VIEW
  5
6
330
0
100
AcDbSymbolTable
 70
     0
  0
ENDTAB
  0
TABLE
  2
UCS
  5
7
330
0
100
AcDbSymbolTable
 70
     0
  0
ENDTAB
  0
TABLE
  2
APPID
  5
9
330
0
100
AcDbSymbolTable
 70
     2
  0
APPID
  5
12
330
9
100
AcDbSymbolTableRecord
100
AcDbRegAppTableRecord
  2
ACAD
 70
     0
  0
ENDTAB
  0
TABLE
  2
DIMSTYLE
  5
A
330
0
100
AcDbSymbolTable
 70
     1
  0
DIMSTYLE
105
27
330
A
100
AcDbSymbolTableRecord
100
AcDbDimStyleTableRecord
  2
ISO-25
 70
     0
  3

  4

  5

  6

  7

 40
1.0
 41
2.5
 42
0.625
 43
3.75
 44
1.25
 45
0.0
 46
0.0
 47
0.0
 48
0.0
140
2.5
141
2.5
142
0.0
143
0.03937007874016
144
1.0
145
0.0
146
1.0
147
0.625
 71
     0
 72
     0
 73
     0
 74
     0
 75
     0
 76
     0
 77
     1
 78
     8
170
     0
171
     3
172
     1
173
     0
174
     0
175
     0
176
     0
177
     0
178
     0
270
     2
271
     2
272
     2
273
     2
274
     3
340
11
275
     0
280
     0
281
     0
282
     0
283
     0
284
     8
285
     0
286
     0
287
     3
288
     0
  0
ENDTAB
  0
TABLE
  2
BLOCK_RECORD
  5
1
330
0
100
AcDbSymbolTable
 70
     1
  0
BLOCK_RECORD
  5
1F
330
1
100
AcDbSymbolTableRecord
100
AcDbBlockTableRecord
  2
*MODEL_SPACE
  0
BLOCK_RECORD
  5
1B
330
1
100
AcDbSymbolTableRecord
100
AcDbBlockTableRecord
  2
*PAPER_SPACE
  0
ENDTAB
  0
ENDSEC
  0
SECTION
  2
BLOCKS
  0
BLOCK
  5
20
330
1F
100
AcDbEntity
  8
0
100
AcDbBlockBegin
  2
*MODEL_SPACE
 70
     0
 10
0.0
 20
0.0
 30
0.0
  3
*MODEL_SPACE
  1

  0
ENDBLK
  5
21
330
1F
100
AcDbEntity
  8
0
100
AcDbBlockEnd
  0
BLOCK
  5
1C
330
1B
100
AcDbEntity
 67
     1
  8
0
100
AcDbBlockBegin
  2
*PAPER_SPACE
  1

  0
ENDBLK
  5
1D
330
1B
100
AcDbEntity
 67
     1
  8
0
100
AcDbBlockEnd
  0
ENDSEC
  0
SECTION
  2
ENTITIES
  0
LWPOLYLINE
  5
100
100
AcDbEntity
  8
0
 62
7
100
AcDbPolyline
 90
2
 70
0
 10
57.822559
 20
1151.385609
 30
0.0
 10
88.153270
 20
1151.385609
 30
0.0
  0
LWPOLYLINE
  5
101
100
AcDbEntity
  8
0
 62
7
100
AcDbPolyline
 90
2
 70
0
 10
129.822557
 20
1151.385609
 30
0.0
 10
144.987910
 20
1177.652784
 30
0.0
  0
LWPOLYLINE
  5
102
100
AcDbEntity
  8
0
 62
7
100
AcDbPolyline
 90
2
 70
0
 10
165.822557
 20
1213.739484
 30
0.0
 10
150.657205
 20
1240.006659
 30
0.0
  0
LWPOLYLINE
  5
103
100
AcDbEntity
  8
0
 62
7
100
AcDbPolyline
 90
2
 70
0
 10
129.822557
 20
1276.093284
 30
0.0
 10
99.491852
 20
1276.093284
 30
0.0
  0
LWPOLYLINE
  5
104
100
AcDbEntity
  8
0
 62
7
100
AcDbPolyline
 90
2
 70
0
 10
57.822559
 20
1276.093284
 30
0.0
 10
42.657205
 20
1249.826109
 30
0.0
  0
LWPOLYLINE
  5
105
100
AcDbEntity
  8
0
 62
7
100
AcDbPolyline
 90
2
 70
0
 10
21.822557
 20
1213.739484
 30
0.0
 10
36.987910
 20
1187.472309
 30
0.0
  0
LWPOLYLINE
  5
106
100
AcDbEntity
  8
0
 62
7
100
AcDbPolyline
 90
2
 70
0
 10
49.970951
 20
1193.331459
 30
0.0
 10
54.222919
 20
1185.966834
 30
0.0
  0
LWPOLYLINE
  5
107
100
AcDbEntity
  8
0
 62
7
100
AcDbPolyline
 90
2
 70
0
 10
89.570590
 20
1165.558884
 30
0.0
 10
98.074525
 20
1165.558884
 30
0.0
  0
LWPOLYLINE
  5
108
100
AcDbEntity
  8
0
 62
7
100
AcDbPolyline
 90
2
 70
0
 10
89.570590
 20
1165.558884
 30
0.0
 10
89.570590
 20
1152.802959
 30
0.0
  0
LWPOLYLINE
  5
109
100
AcDbEntity
  8
0
 62
7
100
AcDbPolyline
 90
2
 70
0
 10
98.074525
 20
1165.558884
 30
0.0
 10
98.074525
 20
1152.802959
 30
0.0
  0
LWPOLYLINE
  5
10a
100
AcDbEntity
  8
0
 62
7
100
AcDbPolyline
 90
2
 70
0
 10
49.970951
 20
1193.331459
 30
0.0
 10
38.924012
 20
1186.953534
 30
0.0
  0
LWPOLYLINE
  5
10b
100
AcDbEntity
  8
0
 62
7
100
AcDbPolyline
 90
2
 70
0
 10
54.222919
 20
1185.966834
 30
0.0
 10
43.175980
 20
1179.588909
 30
0.0
  0
LWPOLYLINE
  5
10c
100
AcDbEntity
  8
0
 62
7
100
AcDbPolyline
 90
2
 70
0
 10
54.222919
 20
1241.512059
 30
0.0
 10
49.970951
 20
1234.147434
 30
0.0
  0
LWPOLYLINE
  5
10d
100
AcDbEntity
  8
0
 62
7
100
AcDbPolyline
 90
2
 70
0
 10
54.222919
 20
1241.512059
 30
0.0
 10
43.175980
 20
1247.890059
 30
0.0
  0
LWPOLYLINE
  5
10e
100
AcDbEntity
  8
0
 62
7
100
AcDbPolyline
 90
2
 70
0
 10
49.970951
 20
1234.147434
 30
0.0
 10
38.924012
 20
1240.525434
 30
0.0
  0
LWPOLYLINE
  5
10f
100
AcDbEntity
  8
0
 62
7
100
AcDbPolyline
 90
2
 70
0
 10
98.074525
 20
1261.920084
 30
0.0
 10
89.570590
 20
1261.920084
 30
0.0
  0
LWPOLYLINE
  5
110
100
AcDbEntity
  8
0
 62
7
100
AcDbPolyline
 90
2
 70
0
 10
98.074525
 20
1261.920084
 30
0.0
 10
98.074525
 20
1274.675934
 30
0.0
  0
LWPOLYLINE
  5
111
100
AcDbEntity
  8
0
 62
7
100
AcDbPolyline
 90
2
 70
0
 10
89.570590
 20
1261.920084
 30
0.0
 10
89.570590
 20
1274.675934
 30
0.0
  0
LWPOLYLINE
  5
112
100
AcDbEntity
  8
0
 62
7
100
AcDbPolyline
 90
2
 70
0
 10
137.674165
 20
1234.147434
 30
0.0
 10
133.422197
 20
1241.512059
 30
0.0
  0
LWPOLYLINE
  5
113
100
AcDbEntity
  8
0
 62
7
100
AcDbPolyline
 90
2
 70
0
 10
137.674165
 20
1234.147434
 30
0.0
 10
148.721102
 20
1240.525434
 30
0.0
  0
LWPOLYLINE
  5
114
100
AcDbEntity
  8
0
 62
7
100
AcDbPolyline
 90
2
 70
0
 10
133.422197
 20
1241.512059
 30
0.0
 10
144.469135
 20
1247.890059
 30
0.0
  0
LWPOLYLINE
  5
115
100
AcDbEntity
  8
0
 62
7
100
AcDbPolyline
 90
2
 70
0
 10
133.422197
 20
1185.966834
 30
0.0
 10
137.674165
 20
1193.331459
 30
0.0
  0
LWPOLYLINE
  5
116
100
AcDbEntity
  8
0
 62
7
100
AcDbPolyline
 90
2
 70
0
 10
133.422197
 20
1185.966834
 30
0.0
 10
144.469135
 20
1179.588909
 30
0.0
  0
LWPOLYLINE
  5
117
100
AcDbEntity
  8
0
 62
7
100
AcDbPolyline
 90
2
 70
0
 10
137.674165
 20
1193.331459
 30
0.0
 10
148.721102
 20
1186.953534
 30
0.0
  0
LWPOLYLINE
  5
118
100
AcDbEntity
  8
0
 62
7
100
AcDbPolyline
 90
2
 70
0
 10
99.491852
 20
1151.385609
 30
0.0
 10
129.822557
 20
1151.385609
 30
0.0
  0
LWPOLYLINE
  5
119
100
AcDbEntity
  8
0
 62
7
100
AcDbPolyline
 90
2
 70
0
 10
144.987910
 20
1249.826109
 30
0.0
 10
129.822557
 20
1276.093284
 30
0.0
  0
LWPOLYLINE
  5
11a
100
AcDbEntity
  8
0
 62
7
100
AcDbPolyline
 90
2
 70
0
 10
150.657205
 20
1187.472309
 30
0.0
 10
165.822557
 20
1213.739484
 30
0.0
  0
LWPOLYLINE
  5
11b
100
AcDbEntity
  8
0
 62
7
100
AcDbPolyline
 90
2
 70
0
 10
88.153270
 20
1276.093284
 30
0.0
 10
57.822559
 20
1276.093284
 30
0.0
  0
LWPOLYLINE
  5
11c
100
AcDbEntity
  8
0
 62
7
100
AcDbPolyline
 90
2
 70
0
 10
36.987910
 20
1240.006659
 30
0.0
 10
21.822557
 20
1213.739484
 30
0.0
  0
LWPOLYLINE
  5
11d
100
AcDbEntity
  8
0
 62
7
100
AcDbPolyline
 90
2
 70
0
 10
42.657205
 20
1177.652784
 30
0.0
 10
57.822559
 20
1151.385609
 30
0.0
  0
LWPOLYLINE
  5
11e
100
AcDbEntity
  8
0
 62
7
100
AcDbPolyline
 90
2
 70
0
 10
38.924012
 20
1186.953534
 30
0.0
 10
36.987910
 20
1187.472309
 30
0.0
  0
LWPOLYLINE
  5
11f
100
AcDbEntity
  8
0
 62
7
100
AcDbPolyline
 90
2
 70
0
 10
38.924012
 20
1240.525434
 30
0.0
 10
36.987910
 20
1240.006659
 30
0.0
  0
LWPOLYLINE
  5
120
100
AcDbEntity
  8
0
 62
7
100
AcDbPolyline
 90
2
 70
0
 10
42.657205
 20
1249.826109
 30
0.0
 10
43.175980
 20
1247.890059
 30
0.0
  0
LWPOLYLINE
  5
121
100
AcDbEntity
  8
0
 62
7
100
AcDbPolyline
 90
2
 70
0
 10
89.570590
 20
1274.675934
 30
0.0
 10
88.153270
 20
1276.093284
 30
0.0
  0
LWPOLYLINE
  5
122
100
AcDbEntity
  8
0
 62
7
100
AcDbPolyline
 90
2
 70
0
 10
98.074525
 20
1274.675934
 30
0.0
 10
99.491852
 20
1276.093284
 30
0.0
  0
LWPOLYLINE
  5
123
100
AcDbEntity
  8
0
 62
7
100
AcDbPolyline
 90
2
 70
0
 10
144.469135
 20
1247.890059
 30
0.0
 10
144.987910
 20
1249.826109
 30
0.0
  0
LWPOLYLINE
  5
124
100
AcDbEntity
  8
0
 62
7
100
AcDbPolyline
 90
2
 70
0
 10
148.721102
 20
1240.525434
 30
0.0
 10
150.657205
 20
1240.006659
 30
0.0
  0
LWPOLYLINE
  5
125
100
AcDbEntity
  8
0
 62
7
100
AcDbPolyline
 90
2
 70
0
 10
148.721102
 20
1186.953534
 30
0.0
 10
150.657205
 20
1187.472309
 30
0.0
  0
LWPOLYLINE
  5
126
100
AcDbEntity
  8
0
 62
7
100
AcDbPolyline
 90
2
 70
0
 10
144.469135
 20
1179.588909
 30
0.0
 10
144.987910
 20
1177.652784
 30
0.0
  0
LWPOLYLINE
  5
127
100
AcDbEntity
  8
0
 62
7
100
AcDbPolyline
 90
2
 70
0
 10
98.074525
 20
1152.802959
 30
0.0
 10
99.491852
 20
1151.385609
 30
0.0
  0
LWPOLYLINE
  5
128
100
AcDbEntity
  8
0
 62
7
100
AcDbPolyline
 90
2
 70
0
 10
89.570590
 20
1152.802959
 30
0.0
 10
88.153270
 20
1151.385609
 30
0.0
  0
LWPOLYLINE
  5
129
100
AcDbEntity
  8
0
 62
7
100
AcDbPolyline
 90
2
 70
0
 10
43.175980
 20
1179.588909
 30
0.0
 10
42.657205
 20
1177.652784
 30
0.0
  0
LWPOLYLINE
  5
12a
100
AcDbEntity
  8
0
 62
7
100
AcDbPolyline
 90
2
 70
0
 10
57.822559
 20
1151.385609
 30
0.0
 10
88.153270
 20
1151.385609
 30
0.0
  0
LWPOLYLINE
  5
12b
100
AcDbEntity
  8
0
 62
7
100
AcDbPolyline
 90
2
 70
0
 10
129.822557
 20
1151.385609
 30
0.0
 10
144.987910
 20
1177.652784
 30
0.0
  0
LWPOLYLINE
  5
12c
100
AcDbEntity
  8
0
 62
7
100
AcDbPolyline
 90
2
 70
0
 10
165.822557
 20
1213.739484
 30
0.0
 10
150.657205
 20
1240.006659
 30
0.0
  0
LWPOLYLINE
  5
12d
100
AcDbEntity
  8
0
 62
7
100
AcDbPolyline
 90
2
 70
0
 10
129.822557
 20
1276.093284
 30
0.0
 10
99.491852
 20
1276.093284
 30
0.0
  0
LWPOLYLINE
  5
12e
100
AcDbEntity
  8
0
 62
7
100
AcDbPolyline
 90
2
 70
0
 10
57.822559
 20
1276.093284
 30
0.0
 10
42.657205
 20
1249.826109
 30
0.0
  0
LWPOLYLINE
  5
12f
100
AcDbEntity
  8
0
 62
7
100
AcDbPolyline
 90
2
 70
0
 10
21.822557
 20
1213.739484
 30
0.0
 10
36.987910
 20
1187.472309
 30
0.0
  0
LWPOLYLINE
  5
130
100
AcDbEntity
  8
0
 62
7
100
AcDbPolyline
 90
2
 70
0
 10
49.970951
 20
1193.331459
 30
0.0
 10
54.222919
 20
1185.966834
 30
0.0
  0
LWPOLYLINE
  5
131
100
AcDbEntity
  8
0
 62
7
100
AcDbPolyline
 90
2
 70
0
 10
89.570590
 20
1165.558884
 30
0.0
 10
98.074525
 20
1165.558884
 30
0.0
  0
LWPOLYLINE
  5
132
100
AcDbEntity
  8
0
 62
7
100
AcDbPolyline
 90
2
 70
0
 10
89.570590
 20
1165.558884
 30
0.0
 10
89.570590
 20
1152.802959
 30
0.0
  0
LWPOLYLINE
  5
133
100
AcDbEntity
  8
0
 62
7
100
AcDbPolyline
 90
2
 70
0
 10
98.074525
 20
1165.558884
 30
0.0
 10
98.074525
 20
1152.802959
 30
0.0
  0
LWPOLYLINE
  5
134
100
AcDbEntity
  8
0
 62
7
100
AcDbPolyline
 90
2
 70
0
 10
49.970951
 20
1193.331459
 30
0.0
 10
38.924012
 20
1186.953534
 30
0.0
  0
LWPOLYLINE
  5
135
100
AcDbEntity
  8
0
 62
7
100
AcDbPolyline
 90
2
 70
0
 10
54.222919
 20
1185.966834
 30
0.0
 10
43.175980
 20
1179.588909
 30
0.0
  0
LWPOLYLINE
  5
136
100
AcDbEntity
  8
0
 62
7
100
AcDbPolyline
 90
2
 70
0
 10
54.222919
 20
1241.512059
 30
0.0
 10
49.970951
 20
1234.147434
 30
0.0
  0
LWPOLYLINE
  5
137
100
AcDbEntity
  8
0
 62
7
100
AcDbPolyline
 90
2
 70
0
 10
54.222919
 20
1241.512059
 30
0.0
 10
43.175980
 20
1247.890059
 30
0.0
  0
LWPOLYLINE
  5
138
100
AcDbEntity
  8
0
 62
7
100
AcDbPolyline
 90
2
 70
0
 10
49.970951
 20
1234.147434
 30
0.0
 10
38.924012
 20
1240.525434
 30
0.0
  0
LWPOLYLINE
  5
139
100
AcDbEntity
  8
0
 62
7
100
AcDbPolyline
 90
2
 70
0
 10
98.074525
 20
1261.920084
 30
0.0
 10
89.570590
 20
1261.920084
 30
0.0
  0
LWPOLYLINE
  5
13a
100
AcDbEntity
  8
0
 62
7
100
AcDbPolyline
 90
2
 70
0
 10
98.074525
 20
1261.920084
 30
0.0
 10
98.074525
 20
1274.675934
 30
0.0
  0
LWPOLYLINE
  5
13b
100
AcDbEntity
  8
0
 62
7
100
AcDbPolyline
 90
2
 70
0
 10
89.570590
 20
1261.920084
 30
0.0
 10
89.570590
 20
1274.675934
 30
0.0
  0
LWPOLYLINE
  5
13c
100
AcDbEntity
  8
0
 62
7
100
AcDbPolyline
 90
2
 70
0
 10
137.674165
 20
1234.147434
 30
0.0
 10
133.422197
 20
1241.512059
 30
0.0
  0
LWPOLYLINE
  5
13d
100
AcDbEntity
  8
0
 62
7
100
AcDbPolyline
 90
2
 70
0
 10
137.674165
 20
1234.147434
 30
0.0
 10
148.721102
 20
1240.525434
 30
0.0
  0
LWPOLYLINE
  5
13e
100
AcDbEntity
  8
0
 62
7
100
AcDbPolyline
 90
2
 70
0
 10
133.422197
 20
1241.512059
 30
0.0
 10
144.469135
 20
1247.890059
 30
0.0
  0
LWPOLYLINE
  5
13f
100
AcDbEntity
  8
0
 62
7
100
AcDbPolyline
 90
2
 70
0
 10
133.422197
 20
1185.966834
 30
0.0
 10
137.674165
 20
1193.331459
 30
0.0
  0
LWPOLYLINE
  5
140
100
AcDbEntity
  8
0
 62
7
100
AcDbPolyline
 90
2
 70
0
 10
133.422197
 20
1185.966834
 30
0.0
 10
144.469135
 20
1179.588909
 30
0.0
  0
LWPOLYLINE
  5
141
100
AcDbEntity
  8
0
 62
7
100
AcDbPolyline
 90
2
 70
0
 10
137.674165
 20
1193.331459
 30
0.0
 10
148.721102
 20
1186.953534
 30
0.0
  0
LWPOLYLINE
  5
142
100
AcDbEntity
  8
0
 62
7
100
AcDbPolyline
 90
2
 70
0
 10
99.491852
 20
1151.385609
 30
0.0
 10
129.822557
 20
1151.385609
 30
0.0
  0
LWPOLYLINE
  5
143
100
AcDbEntity
  8
0
 62
7
100
AcDbPolyline
 90
2
 70
0
 10
144.987910
 20
1249.826109
 30
0.0
 10
129.822557
 20
1276.093284
 30
0.0
  0
LWPOLYLINE
  5
144
100
AcDbEntity
  8
0
 62
7
100
AcDbPolyline
 90
2
 70
0
 10
150.657205
 20
1187.472309
 30
0.0
 10
165.822557
 20
1213.739484
 30
0.0
  0
LWPOLYLINE
  5
145
100
AcDbEntity
  8
0
 62
7
100
AcDbPolyline
 90
2
 70
0
 10
88.153270
 20
1276.093284
 30
0.0
 10
57.822559
 20
1276.093284
 30
0.0
  0
LWPOLYLINE
  5
146
100
AcDbEntity
  8
0
 62
7
100
AcDbPolyline
 90
2
 70
0
 10
36.987910
 20
1240.006659
 30
0.0
 10
21.822557
 20
1213.739484
 30
0.0
  0
LWPOLYLINE
  5
147
100
AcDbEntity
  8
0
 62
7
100
AcDbPolyline
 90
2
 70
0
 10
42.657205
 20
1177.652784
 30
0.0
 10
57.822559
 20
1151.385609
 30
0.0
  0
LWPOLYLINE
  5
148
100
AcDbEntity
  8
0
 62
7
100
AcDbPolyline
 90
2
 70
0
 10
38.924012
 20
1186.953534
 30
0.0
 10
36.987910
 20
1187.472309
 30
0.0
  0
LWPOLYLINE
  5
149
100
AcDbEntity
  8
0
 62
7
100
AcDbPolyline
 90
2
 70
0
 10
38.924012
 20
1240.525434
 30
0.0
 10
36.987910
 20
1240.006659
 30
0.0
  0
LWPOLYLINE
  5
14a
100
AcDbEntity
  8
0
 62
7
100
AcDbPolyline
 90
2
 70
0
 10
42.657205
 20
1249.826109
 30
0.0
 10
43.175980
 20
1247.890059
 30
0.0
  0
LWPOLYLINE
  5
14b
100
AcDbEntity
  8
0
 62
7
100
AcDbPolyline
 90
2
 70
0
 10
89.570590
 20
1274.675934
 30
0.0
 10
88.153270
 20
1276.093284
 30
0.0
  0
LWPOLYLINE
  5
14c
100
AcDbEntity
  8
0
 62
7
100
AcDbPolyline
 90
2
 70
0
 10
98.074525
 20
1274.675934
 30
0.0
 10
99.491852
 20
1276.093284
 30
0.0
  0
LWPOLYLINE
  5
14d
100
AcDbEntity
  8
0
 62
7
100
AcDbPolyline
 90
2
 70
0
 10
144.469135
 20
1247.890059
 30
0.0
 10
144.987910
 20
1249.826109
 30
0.0
  0
LWPOLYLINE
  5
14e
100
AcDbEntity
  8
0
 62
7
100
AcDbPolyline
 90
2
 70
0
 10
148.721102
 20
1240.525434
 30
0.0
 10
150.657205
 20
1240.006659
 30
0.0
  0
LWPOLYLINE
  5
14f
100
AcDbEntity
  8
0
 62
7
100
AcDbPolyline
 90
2
 70
0
 10
148.721102
 20
1186.953534
 30
0.0
 10
150.657205
 20
1187.472309
 30
0.0
  0
LWPOLYLINE
  5
150
100
AcDbEntity
  8
0
 62
7
100
AcDbPolyline
 90
2
 70
0
 10
144.469135
 20
1179.588909
 30
0.0
 10
144.987910
 20
1177.652784
 30
0.0
  0
LWPOLYLINE
  5
151
100
AcDbEntity
  8
0
 62
7
100
AcDbPolyline
 90
2
 70
0
 10
98.074525
 20
1152.802959
 30
0.0
 10
99.491852
 20
1151.385609
 30
0.0
  0
LWPOLYLINE
  5
152
100
AcDbEntity
  8
0
 62
7
100
AcDbPolyline
 90
2
 70
0
 10
89.570590
 20
1152.802959
 30
0.0
 10
88.153270
 20
1151.385609
 30
0.0
  0
LWPOLYLINE
  5
153
100
AcDbEntity
  8
0
 62
7
100
AcDbPolyline
 90
2
 70
0
 10
43.175980
 20
1179.588909
 30
0.0
 10
42.657205
 20
1177.652784
 30
0.0
  0
LWPOLYLINE
  5
154
100
AcDbEntity
  8
0
 62
7
100
AcDbPolyline
 90
2
 70
0
 10
57.822559
 20
1020.366016
 30
0.0
 10
88.153270
 20
1020.366016
 30
0.0
  0
LWPOLYLINE
  5
155
100
AcDbEntity
  8
0
 62
7
100
AcDbPolyline
 90
2
 70
0
 10
129.822557
 20
1020.366016
 30
0.0
 10
144.987910
 20
1046.633191
 30
0.0
  0
LWPOLYLINE
  5
156
100
AcDbEntity
  8
0
 62
7
100
AcDbPolyline
 90
2
 70
0
 10
165.822557
 20
1082.719891
 30
0.0
 10
150.657205
 20
1108.987066
 30
0.0
  0
LWPOLYLINE
  5
157
100
AcDbEntity
  8
0
 62
7
100
AcDbPolyline
 90
2
 70
0
 10
129.822557
 20
1145.073691
 30
0.0
 10
99.491852
 20
1145.073691
 30
0.0
  0
LWPOLYLINE
  5
158
100
AcDbEntity
  8
0
 62
7
100
AcDbPolyline
 90
2
 70
0
 10
57.822559
 20
1145.073691
 30
0.0
 10
42.657205
 20
1118.806516
 30
0.0
  0
LWPOLYLINE
  5
159
100
AcDbEntity
  8
0
 62
7
100
AcDbPolyline
 90
2
 70
0
 10
21.822557
 20
1082.719891
 30
0.0
 10
36.987910
 20
1056.452716
 30
0.0
  0
LWPOLYLINE
  5
15a
100
AcDbEntity
  8
0
 62
7
100
AcDbPolyline
 90
2
 70
0
 10
49.970951
 20
1062.311866
 30
0.0
 10
54.222919
 20
1054.947242
 30
0.0
  0
LWPOLYLINE
  5
15b
100
AcDbEntity
  8
0
 62
7
100
AcDbPolyline
 90
2
 70
0
 10
89.570590
 20
1034.539291
 30
0.0
 10
98.074525
 20
1034.539291
 30
0.0
  0
LWPOLYLINE
  5
15c
100
AcDbEntity
  8
0
 62
7
100
AcDbPolyline
 90
2
 70
0
 10
89.570590
 20
1034.539291
 30
0.0
 10
89.570590
 20
1021.783366
 30
0.0
  0
LWPOLYLINE
  5
15d
100
AcDbEntity
  8
0
 62
7
100
AcDbPolyline
 90
2
 70
0
 10
98.074525
 20
1034.539291
 30
0.0
 10
98.074525
 20
1021.783366
 30
0.0
  0
LWPOLYLINE
  5
15e
100
AcDbEntity
  8
0
 62
7
100
AcDbPolyline
 90
2
 70
0
 10
49.970951
 20
1062.311866
 30
0.0
 10
38.924012
 20
1055.933941
 30
0.0
  0
LWPOLYLINE
  5
15f
100
AcDbEntity
  8
0
 62
7
100
AcDbPolyline
 90
2
 70
0
 10
54.222919
 20
1054.947242
 30
0.0
 10
43.175980
 20
1048.569317
 30
0.0
  0
LWPOLYLINE
  5
160
100
AcDbEntity
  8
0
 62
7
100
AcDbPolyline
 90
2
 70
0
 10
54.222919
 20
1110.492466
 30
0.0
 10
49.970951
 20
1103.127841
 30
0.0
  0
LWPOLYLINE
  5
161
100
AcDbEntity
  8
0
 62
7
100
AcDbPolyline
 90
2
 70
0
 10
54.222919
 20
1110.492466
 30
0.0
 10
43.175980
 20
1116.870467
 30
0.0
  0
LWPOLYLINE
  5
162
100
AcDbEntity
  8
0
 62
7
100
AcDbPolyline
 90
2
 70
0
 10
49.970951
 20
1103.127841
 30
0.0
 10
38.924012
 20
1109.505841
 30
0.0
  0
LWPOLYLINE
  5
163
100
AcDbEntity
  8
0
 62
7
100
AcDbPolyline
 90
2
 70
0
 10
98.074525
 20
1130.900492
 30
0.0
 10
89.570590
 20
1130.900492
 30
0.0
  0
LWPOLYLINE
  5
164
100
AcDbEntity
  8
0
 62
7
100
AcDbPolyline
 90
2
 70
0
 10
98.074525
 20
1130.900492
 30
0.0
 10
98.074525
 20
1143.656341
 30
0.0
  0
LWPOLYLINE
  5
165
100
AcDbEntity
  8
0
 62
7
100
AcDbPolyline
 90
2
 70
0
 10
89.570590
 20
1130.900492
 30
0.0
 10
89.570590
 20
1143.656341
 30
0.0
  0
LWPOLYLINE
  5
166
100
AcDbEntity
  8
0
 62
7
100
AcDbPolyline
 90
2
 70
0
 10
137.674165
 20
1103.127841
 30
0.0
 10
133.422197
 20
1110.492466
 30
0.0
  0
LWPOLYLINE
  5
167
100
AcDbEntity
  8
0
 62
7
100
AcDbPolyline
 90
2
 70
0
 10
137.674165
 20
1103.127841
 30
0.0
 10
148.721102
 20
1109.505841
 30
0.0
  0
LWPOLYLINE
  5
168
100
AcDbEntity
  8
0
 62
7
100
AcDbPolyline
 90
2
 70
0
 10
133.422197
 20
1110.492466
 30
0.0
 10
144.469135
 20
1116.870467
 30
0.0
  0
LWPOLYLINE
  5
169
100
AcDbEntity
  8
0
 62
7
100
AcDbPolyline
 90
2
 70
0
 10
133.422197
 20
1054.947242
 30
0.0
 10
137.674165
 20
1062.311866
 30
0.0
  0
LWPOLYLINE
  5
16a
100
AcDbEntity
  8
0
 62
7
100
AcDbPolyline
 90
2
 70
0
 10
133.422197
 20
1054.947242
 30
0.0
 10
144.469135
 20
1048.569317
 30
0.0
  0
LWPOLYLINE
  5
16b
100
AcDbEntity
  8
0
 62
7
100
AcDbPolyline
 90
2
 70
0
 10
137.674165
 20
1062.311866
 30
0.0
 10
148.721102
 20
1055.933941
 30
0.0
  0
LWPOLYLINE
  5
16c
100
AcDbEntity
  8
0
 62
7
100
AcDbPolyline
 90
2
 70
0
 10
99.491852
 20
1020.366016
 30
0.0
 10
129.822557
 20
1020.366016
 30
0.0
  0
LWPOLYLINE
  5
16d
100
AcDbEntity
  8
0
 62
7
100
AcDbPolyline
 90
2
 70
0
 10
144.987910
 20
1118.806516
 30
0.0
 10
129.822557
 20
1145.073691
 30
0.0
  0
LWPOLYLINE
  5
16e
100
AcDbEntity
  8
0
 62
7
100
AcDbPolyline
 90
2
 70
0
 10
150.657205
 20
1056.452716
 30
0.0
 10
165.822557
 20
1082.719891
 30
0.0
  0
LWPOLYLINE
  5
16f
100
AcDbEntity
  8
0
 62
7
100
AcDbPolyline
 90
2
 70
0
 10
88.153270
 20
1145.073691
 30
0.0
 10
57.822559
 20
1145.073691
 30
0.0
  0
LWPOLYLINE
  5
170
100
AcDbEntity
  8
0
 62
7
100
AcDbPolyline
 90
2
 70
0
 10
36.987910
 20
1108.987066
 30
0.0
 10
21.822557
 20
1082.719891
 30
0.0
  0
LWPOLYLINE
  5
171
100
AcDbEntity
  8
0
 62
7
100
AcDbPolyline
 90
2
 70
0
 10
42.657205
 20
1046.633191
 30
0.0
 10
57.822559
 20
1020.366016
 30
0.0
  0
LWPOLYLINE
  5
172
100
AcDbEntity
  8
0
 62
7
100
AcDbPolyline
 90
2
 70
0
 10
38.924012
 20
1055.933941
 30
0.0
 10
36.987910
 20
1056.452716
 30
0.0
  0
LWPOLYLINE
  5
173
100
AcDbEntity
  8
0
 62
7
100
AcDbPolyline
 90
2
 70
0
 10
38.924012
 20
1109.505841
 30
0.0
 10
36.987910
 20
1108.987066
 30
0.0
  0
LWPOLYLINE
  5
174
100
AcDbEntity
  8
0
 62
7
100
AcDbPolyline
 90
2
 70
0
 10
42.657205
 20
1118.806516
 30
0.0
 10
43.175980
 20
1116.870467
 30
0.0
  0
LWPOLYLINE
  5
175
100
AcDbEntity
  8
0
 62
7
100
AcDbPolyline
 90
2
 70
0
 10
89.570590
 20
1143.656341
 30
0.0
 10
88.153270
 20
1145.073691
 30
0.0
  0
LWPOLYLINE
  5
176
100
AcDbEntity
  8
0
 62
7
100
AcDbPolyline
 90
2
 70
0
 10
98.074525
 20
1143.656341
 30
0.0
 10
99.491852
 20
1145.073691
 30
0.0
  0
LWPOLYLINE
  5
177
100
AcDbEntity
  8
0
 62
7
100
AcDbPolyline
 90
2
 70
0
 10
144.469135
 20
1116.870467
 30
0.0
 10
144.987910
 20
1118.806516
 30
0.0
  0
LWPOLYLINE
  5
178
100
AcDbEntity
  8
0
 62
7
100
AcDbPolyline
 90
2
 70
0
 10
148.721102
 20
1109.505841
 30
0.0
 10
150.657205
 20
1108.987066
 30
0.0
  0
LWPOLYLINE
  5
179
100
AcDbEntity
  8
0
 62
7
100
AcDbPolyline
 90
2
 70
0
 10
148.721102
 20
1055.933941
 30
0.0
 10
150.657205
 20
1056.452716
 30
0.0
  0
LWPOLYLINE
  5
17a
100
AcDbEntity
  8
0
 62
7
100
AcDbPolyline
 90
2
 70
0
 10
144.469135
 20
1048.569317
 30
0.0
 10
144.987910
 20
1046.633191
 30
0.0
  0
LWPOLYLINE
  5
17b
100
AcDbEntity
  8
0
 62
7
100
AcDbPolyline
 90
2
 70
0
 10
98.074525
 20
1021.783366
 30
0.0
 10
99.491852
 20
1020.366016
 30
0.0
  0
LWPOLYLINE
  5
17c
100
AcDbEntity
  8
0
 62
7
100
AcDbPolyline
 90
2
 70
0
 10
89.570590
 20
1021.783366
 30
0.0
 10
88.153270
 20
1020.366016
 30
0.0
  0
LWPOLYLINE
  5
17d
100
AcDbEntity
  8
0
 62
7
100
AcDbPolyline
 90
2
 70
0
 10
43.175980
 20
1048.569317
 30
0.0
 10
42.657205
 20
1046.633191
 30
0.0
  0
LWPOLYLINE
  5
17e
100
AcDbEntity
  8
0
 62
7
100
AcDbPolyline
 90
2
 70
0
 10
209.098699
 20
1151.385609
 30
0.0
 10
239.429410
 20
1151.385609
 30
0.0
  0
LWPOLYLINE
  5
17f
100
AcDbEntity
  8
0
 62
7
100
AcDbPolyline
 90
2
 70
0
 10
281.098697
 20
1151.385609
 30
0.0
 10
296.264050
 20
1177.652784
 30
0.0
  0
LWPOLYLINE
  5
180
100
AcDbEntity
  8
0
 62
7
100
AcDbPolyline
 90
2
 70
0
 10
317.098697
 20
1213.739484
 30
0.0
 10
301.933345
 20
1240.006659
 30
0.0
  0
LWPOLYLINE
  5
181
100
AcDbEntity
  8
0
 62
7
100
AcDbPolyline
 90
2
 70
0
 10
281.098697
 20
1276.093284
 30
0.0
 10
250.767992
 20
1276.093284
 30
0.0
  0
LWPOLYLINE
  5
182
100
AcDbEntity
  8
0
 62
7
100
AcDbPolyline
 90
2
 70
0
 10
209.098699
 20
1276.093284
 30
0.0
 10
193.933345
 20
1249.826109
 30
0.0
  0
LWPOLYLINE
  5
183
100
AcDbEntity
  8
0
 62
7
100
AcDbPolyline
 90
2
 70
0
 10
173.098697
 20
1213.739484
 30
0.0
 10
188.264050
 20
1187.472309
 30
0.0
  0
LWPOLYLINE
  5
184
100
AcDbEntity
  8
0
 62
7
100
AcDbPolyline
 90
2
 70
0
 10
201.247090
 20
1193.331459
 30
0.0
 10
205.499059
 20
1185.966834
 30
0.0
  0
LWPOLYLINE
  5
185
100
AcDbEntity
  8
0
 62
7
100
AcDbPolyline
 90
2
 70
0
 10
240.846730
 20
1165.558884
 30
0.0
 10
249.350665
 20
1165.558884
 30
0.0
  0
LWPOLYLINE
  5
186
100
AcDbEntity
  8
0
 62
7
100
AcDbPolyline
 90
2
 70
0
 10
240.846730
 20
1165.558884
 30
0.0
 10
240.846730
 20
1152.802959
 30
0.0
  0
LWPOLYLINE
  5
187
100
AcDbEntity
  8
0
 62
7
100
AcDbPolyline
 90
2
 70
0
 10
249.350665
 20
1165.558884
 30
0.0
 10
249.350665
 20
1152.802959
 30
0.0
  0
LWPOLYLINE
  5
188
100
AcDbEntity
  8
0
 62
7
100
AcDbPolyline
 90
2
 70
0
 10
201.247090
 20
1193.331459
 30
0.0
 10
190.200152
 20
1186.953534
 30
0.0
  0
LWPOLYLINE
  5
189
100
AcDbEntity
  8
0
 62
7
100
AcDbPolyline
 90
2
 70
0
 10
205.499059
 20
1185.966834
 30
0.0
 10
194.452120
 20
1179.588909
 30
0.0
  0
LWPOLYLINE
  5
18a
100
AcDbEntity
  8
0
 62
7
100
AcDbPolyline
 90
2
 70
0
 10
205.499059
 20
1241.512059
 30
0.0
 10
201.247090
 20
1234.147434
 30
0.0
  0
LWPOLYLINE
  5
18b
100
AcDbEntity
  8
0
 62
7
100
AcDbPolyline
 90
2
 70
0
 10
205.499059
 20
1241.512059
 30
0.0
 10
194.452120
 20
1247.890059
 30
0.0
  0
LWPOLYLINE
  5
18c
100
AcDbEntity
  8
0
 62
7
100
AcDbPolyline
 90
2
 70
0
 10
201.247090
 20
1234.147434
 30
0.0
 10
190.200152
 20
1240.525434
 30
0.0
  0
LWPOLYLINE
  5
18d
100
AcDbEntity
  8
0
 62
7
100
AcDbPolyline
 90
2
 70
0
 10
249.350665
 20
1261.920084
 30
0.0
 10
240.846730
 20
1261.920084
 30
0.0
  0
LWPOLYLINE
  5
18e
100
AcDbEntity
  8
0
 62
7
100
AcDbPolyline
 90
2
 70
0
 10
249.350665
 20
1261.920084
 30
0.0
 10
249.350665
 20
1274.675934
 30
0.0
  0
LWPOLYLINE
  5
18f
100
AcDbEntity
  8
0
 62
7
100
AcDbPolyline
 90
2
 70
0
 10
240.846730
 20
1261.920084
 30
0.0
 10
240.846730
 20
1274.675934
 30
0.0
  0
LWPOLYLINE
  5
190
100
AcDbEntity
  8
0
 62
7
100
AcDbPolyline
 90
2
 70
0
 10
288.950305
 20
1234.147434
 30
0.0
 10
284.698337
 20
1241.512059
 30
0.0
  0
LWPOLYLINE
  5
191
100
AcDbEntity
  8
0
 62
7
100
AcDbPolyline
 90
2
 70
0
 10
288.950305
 20
1234.147434
 30
0.0
 10
299.997242
 20
1240.525434
 30
0.0
  0
LWPOLYLINE
  5
192
100
AcDbEntity
  8
0
 62
7
100
AcDbPolyline
 90
2
 70
0
 10
284.698337
 20
1241.512059
 30
0.0
 10
295.745275
 20
1247.890059
 30
0.0
  0
LWPOLYLINE
  5
193
100
AcDbEntity
  8
0
 62
7
100
AcDbPolyline
 90
2
 70
0
 10
284.698337
 20
1185.966834
 30
0.0
 10
288.950305
 20
1193.331459
 30
0.0
  0
LWPOLYLINE
  5
194
100
AcDbEntity
  8
0
 62
7
100
AcDbPolyline
 90
2
 70
0
 10
284.698337
 20
1185.966834
 30
0.0
 10
295.745275
 20
1179.588909
 30
0.0
  0
LWPOLYLINE
  5
195
100
AcDbEntity
  8
0
 62
7
100
AcDbPolyline
 90
2
 70
0
 10
288.950305
 20
1193.331459
 30
0.0
 10
299.997242
 20
1186.953534
 30
0.0
  0
LWPOLYLINE
  5
196
100
AcDbEntity
  8
0
 62
7
100
AcDbPolyline
 90
2
 70
0
 10
250.767992
 20
1151.385609
 30
0.0
 10
281.098697
 20
1151.385609
 30
0.0
  0
LWPOLYLINE
  5
197
100
AcDbEntity
  8
0
 62
7
100
AcDbPolyline
 90
2
 70
0
 10
296.264050
 20
1249.826109
 30
0.0
 10
281.098697
 20
1276.093284
 30
0.0
  0
LWPOLYLINE
  5
198
100
AcDbEntity
  8
0
 62
7
100
AcDbPolyline
 90
2
 70
0
 10
301.933345
 20
1187.472309
 30
0.0
 10
317.098697
 20
1213.739484
 30
0.0
  0
LWPOLYLINE
  5
199
100
AcDbEntity
  8
0
 62
7
100
AcDbPolyline
 90
2
 70
0
 10
239.429410
 20
1276.093284
 30
0.0
 10
209.098699
 20
1276.093284
 30
0.0
  0
LWPOLYLINE
  5
19a
100
AcDbEntity
  8
0
 62
7
100
AcDbPolyline
 90
2
 70
0
 10
188.264050
 20
1240.006659
 30
0.0
 10
173.098697
 20
1213.739484
 30
0.0
  0
LWPOLYLINE
  5
19b
100
AcDbEntity
  8
0
 62
7
100
AcDbPolyline
 90
2
 70
0
 10
193.933345
 20
1177.652784
 30
0.0
 10
209.098699
 20
1151.385609
 30
0.0
  0
LWPOLYLINE
  5
19c
100
AcDbEntity
  8
0
 62
7
100
AcDbPolyline
 90
2
 70
0
 10
190.200152
 20
1186.953534
 30
0.0
 10
188.264050
 20
1187.472309
 30
0.0
  0
LWPOLYLINE
  5
19d
100
AcDbEntity
  8
0
 62
7
100
AcDbPolyline
 90
2
 70
0
 10
190.200152
 20
1240.525434
 30
0.0
 10
188.264050
 20
1240.006659
 30
0.0
  0
LWPOLYLINE
  5
19e
100
AcDbEntity
  8
0
 62
7
100
AcDbPolyline
 90
2
 70
0
 10
193.933345
 20
1249.826109
 30
0.0
 10
194.452120
 20
1247.890059
 30
0.0
  0
LWPOLYLINE
  5
19f
100
AcDbEntity
  8
0
 62
7
100
AcDbPolyline
 90
2
 70
0
 10
240.846730
 20
1274.675934
 30
0.0
 10
239.429410
 20
1276.093284
 30
0.0
  0
LWPOLYLINE
  5
1a0
100
AcDbEntity
  8
0
 62
7
100
AcDbPolyline
 90
2
 70
0
 10
249.350665
 20
1274.675934
 30
0.0
 10
250.767992
 20
1276.093284
 30
0.0
  0
LWPOLYLINE
  5
1a1
100
AcDbEntity
  8
0
 62
7
100
AcDbPolyline
 90
2
 70
0
 10
295.745275
 20
1247.890059
 30
0.0
 10
296.264050
 20
1249.826109
 30
0.0
  0
LWPOLYLINE
  5
1a2
100
AcDbEntity
  8
0
 62
7
100
AcDbPolyline
 90
2
 70
0
 10
299.997242
 20
1240.525434
 30
0.0
 10
301.933345
 20
1240.006659
 30
0.0
  0
LWPOLYLINE
  5
1a3
100
AcDbEntity
  8
0
 62
7
100
AcDbPolyline
 90
2
 70
0
 10
299.997242
 20
1186.953534
 30
0.0
 10
301.933345
 20
1187.472309
 30
0.0
  0
LWPOLYLINE
  5
1a4
100
AcDbEntity
  8
0
 62
7
100
AcDbPolyline
 90
2
 70
0
 10
295.745275
 20
1179.588909
 30
0.0
 10
296.264050
 20
1177.652784
 30
0.0
  0
LWPOLYLINE
  5
1a5
100
AcDbEntity
  8
0
 62
7
100
AcDbPolyline
 90
2
 70
0
 10
249.350665
 20
1152.802959
 30
0.0
 10
250.767992
 20
1151.385609
 30
0.0
  0
LWPOLYLINE
  5
1a6
100
AcDbEntity
  8
0
 62
7
100
AcDbPolyline
 90
2
 70
0
 10
240.846730
 20
1152.802959
 30
0.0
 10
239.429410
 20
1151.385609
 30
0.0
  0
LWPOLYLINE
  5
1a7
100
AcDbEntity
  8
0
 62
7
100
AcDbPolyline
 90
2
 70
0
 10
194.452120
 20
1179.588909
 30
0.0
 10
193.933345
 20
1177.652784
 30
0.0
  0
LWPOLYLINE
  5
1a8
100
AcDbEntity
  8
0
 62
7
100
AcDbPolyline
 90
2
 70
0
 10
209.098699
 20
1020.366016
 30
0.0
 10
239.429410
 20
1020.366016
 30
0.0
  0
LWPOLYLINE
  5
1a9
100
AcDbEntity
  8
0
 62
7
100
AcDbPolyline
 90
2
 70
0
 10
281.098697
 20
1020.366016
 30
0.0
 10
296.264050
 20
1046.633191
 30
0.0
  0
LWPOLYLINE
  5
1aa
100
AcDbEntity
  8
0
 62
7
100
AcDbPolyline
 90
2
 70
0
 10
317.098697
 20
1082.719891
 30
0.0
 10
301.933345
 20
1108.987066
 30
0.0
  0
LWPOLYLINE
  5
1ab
100
AcDbEntity
  8
0
 62
7
100
AcDbPolyline
 90
2
 70
0
 10
281.098697
 20
1145.073691
 30
0.0
 10
250.767992
 20
1145.073691
 30
0.0
  0
LWPOLYLINE
  5
1ac
100
AcDbEntity
  8
0
 62
7
100
AcDbPolyline
 90
2
 70
0
 10
209.098699
 20
1145.073691
 30
0.0
 10
193.933345
 20
1118.806516
 30
0.0
  0
LWPOLYLINE
  5
1ad
100
AcDbEntity
  8
0
 62
7
100
AcDbPolyline
 90
2
 70
0
 10
173.098697
 20
1082.719891
 30
0.0
 10
188.264050
 20
1056.452716
 30
0.0
  0
LWPOLYLINE
  5
1ae
100
AcDbEntity
  8
0
 62
7
100
AcDbPolyline
 90
2
 70
0
 10
201.247090
 20
1062.311866
 30
0.0
 10
205.499059
 20
1054.947242
 30
0.0
  0
LWPOLYLINE
  5
1af
100
AcDbEntity
  8
0
 62
7
100
AcDbPolyline
 90
2
 70
0
 10
240.846730
 20
1034.539291
 30
0.0
 10
249.350665
 20
1034.539291
 30
0.0
  0
LWPOLYLINE
  5
1b0
100
AcDbEntity
  8
0
 62
7
100
AcDbPolyline
 90
2
 70
0
 10
240.846730
 20
1034.539291
 30
0.0
 10
240.846730
 20
1021.783366
 30
0.0
  0
LWPOLYLINE
  5
1b1
100
AcDbEntity
  8
0
 62
7
100
AcDbPolyline
 90
2
 70
0
 10
249.350665
 20
1034.539291
 30
0.0
 10
249.350665
 20
1021.783366
 30
0.0
  0
LWPOLYLINE
  5
1b2
100
AcDbEntity
  8
0
 62
7
100
AcDbPolyline
 90
2
 70
0
 10
201.247090
 20
1062.311866
 30
0.0
 10
190.200152
 20
1055.933941
 30
0.0
  0
LWPOLYLINE
  5
1b3
100
AcDbEntity
  8
0
 62
7
100
AcDbPolyline
 90
2
 70
0
 10
205.499059
 20
1054.947242
 30
0.0
 10
194.452120
 20
1048.569317
 30
0.0
  0
LWPOLYLINE
  5
1b4
100
AcDbEntity
  8
0
 62
7
100
AcDbPolyline
 90
2
 70
0
 10
205.499059
 20
1110.492466
 30
0.0
 10
201.247090
 20
1103.127841
 30
0.0
  0
LWPOLYLINE
  5
1b5
100
AcDbEntity
  8
0
 62
7
100
AcDbPolyline
 90
2
 70
0
 10
205.499059
 20
1110.492466
 30
0.0
 10
194.452120
 20
1116.870467
 30
0.0
  0
LWPOLYLINE
  5
1b6
100
AcDbEntity
  8
0
 62
7
100
AcDbPolyline
 90
2
 70
0
 10
201.247090
 20
1103.127841
 30
0.0
 10
190.200152
 20
1109.505841
 30
0.0
  0
LWPOLYLINE
  5
1b7
100
AcDbEntity
  8
0
 62
7
100
AcDbPolyline
 90
2
 70
0
 10
249.350665
 20
1130.900492
 30
0.0
 10
240.846730
 20
1130.900492
 30
0.0
  0
LWPOLYLINE
  5
1b8
100
AcDbEntity
  8
0
 62
7
100
AcDbPolyline
 90
2
 70
0
 10
249.350665
 20
1130.900492
 30
0.0
 10
249.350665
 20
1143.656341
 30
0.0
  0
LWPOLYLINE
  5
1b9
100
AcDbEntity
  8
0
 62
7
100
AcDbPolyline
 90
2
 70
0
 10
240.846730
 20
1130.900492
 30
0.0
 10
240.846730
 20
1143.656341
 30
0.0
  0
LWPOLYLINE
  5
1ba
100
AcDbEntity
  8
0
 62
7
100
AcDbPolyline
 90
2
 70
0
 10
288.950305
 20
1103.127841
 30
0.0
 10
284.698337
 20
1110.492466
 30
0.0
  0
LWPOLYLINE
  5
1bb
100
AcDbEntity
  8
0
 62
7
100
AcDbPolyline
 90
2
 70
0
 10
288.950305
 20
1103.127841
 30
0.0
 10
299.997242
 20
1109.505841
 30
0.0
  0
LWPOLYLINE
  5
1bc
100
AcDbEntity
  8
0
 62
7
100
AcDbPolyline
 90
2
 70
0
 10
284.698337
 20
1110.492466
 30
0.0
 10
295.745275
 20
1116.870467
 30
0.0
  0
LWPOLYLINE
  5
1bd
100
AcDbEntity
  8
0
 62
7
100
AcDbPolyline
 90
2
 70
0
 10
284.698337
 20
1054.947242
 30
0.0
 10
288.950305
 20
1062.311866
 30
0.0
  0
LWPOLYLINE
  5
1be
100
AcDbEntity
  8
0
 62
7
100
AcDbPolyline
 90
2
 70
0
 10
284.698337
 20
1054.947242
 30
0.0
 10
295.745275
 20
1048.569317
 30
0.0
  0
LWPOLYLINE
  5
1bf
100
AcDbEntity
  8
0
 62
7
100
AcDbPolyline
 90
2
 70
0
 10
288.950305
 20
1062.311866
 30
0.0
 10
299.997242
 20
1055.933941
 30
0.0
  0
LWPOLYLINE
  5
1c0
100
AcDbEntity
  8
0
 62
7
100
AcDbPolyline
 90
2
 70
0
 10
250.767992
 20
1020.366016
 30
0.0
 10
281.098697
 20
1020.366016
 30
0.0
  0
LWPOLYLINE
  5
1c1
100
AcDbEntity
  8
0
 62
7
100
AcDbPolyline
 90
2
 70
0
 10
296.264050
 20
1118.806516
 30
0.0
 10
281.098697
 20
1145.073691
 30
0.0
  0
LWPOLYLINE
  5
1c2
100
AcDbEntity
  8
0
 62
7
100
AcDbPolyline
 90
2
 70
0
 10
301.933345
 20
1056.452716
 30
0.0
 10
317.098697
 20
1082.719891
 30
0.0
  0
LWPOLYLINE
  5
1c3
100
AcDbEntity
  8
0
 62
7
100
AcDbPolyline
 90
2
 70
0
 10
239.429410
 20
1145.073691
 30
0.0
 10
209.098699
 20
1145.073691
 30
0.0
  0
LWPOLYLINE
  5
1c4
100
AcDbEntity
  8
0
 62
7
100
AcDbPolyline
 90
2
 70
0
 10
188.264050
 20
1108.987066
 30
0.0
 10
173.098697
 20
1082.719891
 30
0.0
  0
LWPOLYLINE
  5
1c5
100
AcDbEntity
  8
0
 62
7
100
AcDbPolyline
 90
2
 70
0
 10
193.933345
 20
1046.633191
 30
0.0
 10
209.098699
 20
1020.366016
 30
0.0
  0
LWPOLYLINE
  5
1c6
100
AcDbEntity
  8
0
 62
7
100
AcDbPolyline
 90
2
 70
0
 10
190.200152
 20
1055.933941
 30
0.0
 10
188.264050
 20
1056.452716
 30
0.0
  0
LWPOLYLINE
  5
1c7
100
AcDbEntity
  8
0
 62
7
100
AcDbPolyline
 90
2
 70
0
 10
190.200152
 20
1109.505841
 30
0.0
 10
188.264050
 20
1108.987066
 30
0.0
  0
LWPOLYLINE
  5
1c8
100
AcDbEntity
  8
0
 62
7
100
AcDbPolyline
 90
2
 70
0
 10
193.933345
 20
1118.806516
 30
0.0
 10
194.452120
 20
1116.870467
 30
0.0
  0
LWPOLYLINE
  5
1c9
100
AcDbEntity
  8
0
 62
7
100
AcDbPolyline
 90
2
 70
0
 10
240.846730
 20
1143.656341
 30
0.0
 10
239.429410
 20
1145.073691
 30
0.0
  0
LWPOLYLINE
  5
1ca
100
AcDbEntity
  8
0
 62
7
100
AcDbPolyline
 90
2
 70
0
 10
249.350665
 20
1143.656341
 30
0.0
 10
250.767992
 20
1145.073691
 30
0.0
  0
LWPOLYLINE
  5
1cb
100
AcDbEntity
  8
0
 62
7
100
AcDbPolyline
 90
2
 70
0
 10
295.745275
 20
1116.870467
 30
0.0
 10
296.264050
 20
1118.806516
 30
0.0
  0
LWPOLYLINE
  5
1cc
100
AcDbEntity
  8
0
 62
7
100
AcDbPolyline
 90
2
 70
0
 10
299.997242
 20
1109.505841
 30
0.0
 10
301.933345
 20
1108.987066
 30
0.0
  0
LWPOLYLINE
  5
1cd
100
AcDbEntity
  8
0
 62
7
100
AcDbPolyline
 90
2
 70
0
 10
299.997242
 20
1055.933941
 30
0.0
 10
301.933345
 20
1056.452716
 30
0.0
  0
LWPOLYLINE
  5
1ce
100
AcDbEntity
  8
0
 62
7
100
AcDbPolyline
 90
2
 70
0
 10
295.745275
 20
1048.569317
 30
0.0
 10
296.264050
 20
1046.633191
 30
0.0
  0
LWPOLYLINE
  5
1cf
100
AcDbEntity
  8
0
 62
7
100
AcDbPolyline
 90
2
 70
0
 10
249.350665
 20
1021.783366
 30
0.0
 10
250.767992
 20
1020.366016
 30
0.0
  0
LWPOLYLINE
  5
1d0
100
AcDbEntity
  8
0
 62
7
100
AcDbPolyline
 90
2
 70
0
 10
240.846730
 20
1021.783366
 30
0.0
 10
239.429410
 20
1020.366016
 30
0.0
  0
LWPOLYLINE
  5
1d1
100
AcDbEntity
  8
0
 62
7
100
AcDbPolyline
 90
2
 70
0
 10
194.452120
 20
1048.569317
 30
0.0
 10
193.933345
 20
1046.633191
 30
0.0
  0
LWPOLYLINE
  5
1d2
100
AcDbEntity
  8
0
 62
7
100
AcDbPolyline
 90
2
 70
0
 10
360.374846
 20
1151.385609
 30
0.0
 10
390.705557
 20
1151.385609
 30
0.0
  0
LWPOLYLINE
  5
1d3
100
AcDbEntity
  8
0
 62
7
100
AcDbPolyline
 90
2
 70
0
 10
432.374845
 20
1151.385609
 30
0.0
 10
447.540197
 20
1177.652784
 30
0.0
  0
LWPOLYLINE
  5
1d4
100
AcDbEntity
  8
0
 62
7
100
AcDbPolyline
 90
2
 70
0
 10
468.374845
 20
1213.739484
 30
0.0
 10
453.209492
 20
1240.006659
 30
0.0
  0
LWPOLYLINE
  5
1d5
100
AcDbEntity
  8
0
 62
7
100
AcDbPolyline
 90
2
 70
0
 10
432.374845
 20
1276.093284
 30
0.0
 10
402.044140
 20
1276.093284
 30
0.0
  0
LWPOLYLINE
  5
1d6
100
AcDbEntity
  8
0
 62
7
100
AcDbPolyline
 90
2
 70
0
 10
360.374846
 20
1276.093284
 30
0.0
 10
345.209492
 20
1249.826109
 30
0.0
  0
LWPOLYLINE
  5
1d7
100
AcDbEntity
  8
0
 62
7
100
AcDbPolyline
 90
2
 70
0
 10
324.374845
 20
1213.739484
 30
0.0
 10
339.540197
 20
1187.472309
 30
0.0
  0
LWPOLYLINE
  5
1d8
100
AcDbEntity
  8
0
 62
7
100
AcDbPolyline
 90
2
 70
0
 10
352.523238
 20
1193.331459
 30
0.0
 10
356.775206
 20
1185.966834
 30
0.0
  0
LWPOLYLINE
  5
1d9
100
AcDbEntity
  8
0
 62
7
100
AcDbPolyline
 90
2
 70
0
 10
392.122877
 20
1165.558884
 30
0.0
 10
400.626812
 20
1165.558884
 30
0.0
  0
LWPOLYLINE
  5
1da
100
AcDbEntity
  8
0
 62
7
100
AcDbPolyline
 90
2
 70
0
 10
392.122877
 20
1165.558884
 30
0.0
 10
392.122877
 20
1152.802959
 30
0.0
  0
LWPOLYLINE
  5
1db
100
AcDbEntity
  8
0
 62
7
100
AcDbPolyline
 90
2
 70
0
 10
400.626812
 20
1165.558884
 30
0.0
 10
400.626812
 20
1152.802959
 30
0.0
  0
LWPOLYLINE
  5
1dc
100
AcDbEntity
  8
0
 62
7
100
AcDbPolyline
 90
2
 70
0
 10
352.523238
 20
1193.331459
 30
0.0
 10
341.476300
 20
1186.953534
 30
0.0
  0
LWPOLYLINE
  5
1dd
100
AcDbEntity
  8
0
 62
7
100
AcDbPolyline
 90
2
 70
0
 10
356.775206
 20
1185.966834
 30
0.0
 10
345.728267
 20
1179.588909
 30
0.0
  0
LWPOLYLINE
  5
1de
100
AcDbEntity
  8
0
 62
7
100
AcDbPolyline
 90
2
 70
0
 10
356.775206
 20
1241.512059
 30
0.0
 10
352.523238
 20
1234.147434
 30
0.0
  0
LWPOLYLINE
  5
1df
100
AcDbEntity
  8
0
 62
7
100
AcDbPolyline
 90
2
 70
0
 10
356.775206
 20
1241.512059
 30
0.0
 10
345.728267
 20
1247.890059
 30
0.0
  0
LWPOLYLINE
  5
1e0
100
AcDbEntity
  8
0
 62
7
100
AcDbPolyline
 90
2
 70
0
 10
352.523238
 20
1234.147434
 30
0.0
 10
341.476300
 20
1240.525434
 30
0.0
  0
LWPOLYLINE
  5
1e1
100
AcDbEntity
  8
0
 62
7
100
AcDbPolyline
 90
2
 70
0
 10
400.626812
 20
1261.920084
 30
0.0
 10
392.122877
 20
1261.920084
 30
0.0
  0
LWPOLYLINE
  5
1e2
100
AcDbEntity
  8
0
 62
7
100
AcDbPolyline
 90
2
 70
0
 10
400.626812
 20
1261.920084
 30
0.0
 10
400.626812
 20
1274.675934
 30
0.0
  0
LWPOLYLINE
  5
1e3
100
AcDbEntity
  8
0
 62
7
100
AcDbPolyline
 90
2
 70
0
 10
392.122877
 20
1261.920084
 30
0.0
 10
392.122877
 20
1274.675934
 30
0.0
  0
LWPOLYLINE
  5
1e4
100
AcDbEntity
  8
0
 62
7
100
AcDbPolyline
 90
2
 70
0
 10
440.226452
 20
1234.147434
 30
0.0
 10
435.974485
 20
1241.512059
 30
0.0
  0
LWPOLYLINE
  5
1e5
100
AcDbEntity
  8
0
 62
7
100
AcDbPolyline
 90
2
 70
0
 10
440.226452
 20
1234.147434
 30
0.0
 10
451.273390
 20
1240.525434
 30
0.0
  0
LWPOLYLINE
  5
1e6
100
AcDbEntity
  8
0
 62
7
100
AcDbPolyline
 90
2
 70
0
 10
435.974485
 20
1241.512059
 30
0.0
 10
447.021422
 20
1247.890059
 30
0.0
  0
LWPOLYLINE
  5
1e7
100
AcDbEntity
  8
0
 62
7
100
AcDbPolyline
 90
2
 70
0
 10
435.974485
 20
1185.966834
 30
0.0
 10
440.226452
 20
1193.331459
 30
0.0
  0
LWPOLYLINE
  5
1e8
100
AcDbEntity
  8
0
 62
7
100
AcDbPolyline
 90
2
 70
0
 10
435.974485
 20
1185.966834
 30
0.0
 10
447.021422
 20
1179.588909
 30
0.0
  0
LWPOLYLINE
  5
1e9
100
AcDbEntity
  8
0
 62
7
100
AcDbPolyline
 90
2
 70
0
 10
440.226452
 20
1193.331459
 30
0.0
 10
451.273390
 20
1186.953534
 30
0.0
  0
LWPOLYLINE
  5
1ea
100
AcDbEntity
  8
0
 62
7
100
AcDbPolyline
 90
2
 70
0
 10
402.044140
 20
1151.385609
 30
0.0
 10
432.374845
 20
1151.385609
 30
0.0
  0
LWPOLYLINE
  5
1eb
100
AcDbEntity
  8
0
 62
7
100
AcDbPolyline
 90
2
 70
0
 10
447.540197
 20
1249.826109
 30
0.0
 10
432.374845
 20
1276.093284
 30
0.0
  0
LWPOLYLINE
  5
1ec
100
AcDbEntity
  8
0
 62
7
100
AcDbPolyline
 90
2
 70
0
 10
453.209492
 20
1187.472309
 30
0.0
 10
468.374845
 20
1213.739484
 30
0.0
  0
LWPOLYLINE
  5
1ed
100
AcDbEntity
  8
0
 62
7
100
AcDbPolyline
 90
2
 70
0
 10
390.705557
 20
1276.093284
 30
0.0
 10
360.374846
 20
1276.093284
 30
0.0
  0
LWPOLYLINE
  5
1ee
100
AcDbEntity
  8
0
 62
7
100
AcDbPolyline
 90
2
 70
0
 10
339.540197
 20
1240.006659
 30
0.0
 10
324.374845
 20
1213.739484
 30
0.0
  0
LWPOLYLINE
  5
1ef
100
AcDbEntity
  8
0
 62
7
100
AcDbPolyline
 90
2
 70
0
 10
345.209492
 20
1177.652784
 30
0.0
 10
360.374846
 20
1151.385609
 30
0.0
  0
LWPOLYLINE
  5
1f0
100
AcDbEntity
  8
0
 62
7
100
AcDbPolyline
 90
2
 70
0
 10
341.476300
 20
1186.953534
 30
0.0
 10
339.540197
 20
1187.472309
 30
0.0
  0
LWPOLYLINE
  5
1f1
100
AcDbEntity
  8
0
 62
7
100
AcDbPolyline
 90
2
 70
0
 10
341.476300
 20
1240.525434
 30
0.0
 10
339.540197
 20
1240.006659
 30
0.0
  0
LWPOLYLINE
  5
1f2
100
AcDbEntity
  8
0
 62
7
100
AcDbPolyline
 90
2
 70
0
 10
345.209492
 20
1249.826109
 30
0.0
 10
345.728267
 20
1247.890059
 30
0.0
  0
LWPOLYLINE
  5
1f3
100
AcDbEntity
  8
0
 62
7
100
AcDbPolyline
 90
2
 70
0
 10
392.122877
 20
1274.675934
 30
0.0
 10
390.705557
 20
1276.093284
 30
0.0
  0
LWPOLYLINE
  5
1f4
100
AcDbEntity
  8
0
 62
7
100
AcDbPolyline
 90
2
 70
0
 10
400.626812
 20
1274.675934
 30
0.0
 10
402.044140
 20
1276.093284
 30
0.0
  0
LWPOLYLINE
  5
1f5
100
AcDbEntity
  8
0
 62
7
100
AcDbPolyline
 90
2
 70
0
 10
447.021422
 20
1247.890059
 30
0.0
 10
447.540197
 20
1249.826109
 30
0.0
  0
LWPOLYLINE
  5
1f6
100
AcDbEntity
  8
0
 62
7
100
AcDbPolyline
 90
2
 70
0
 10
451.273390
 20
1240.525434
 30
0.0
 10
453.209492
 20
1240.006659
 30
0.0
  0
LWPOLYLINE
  5
1f7
100
AcDbEntity
  8
0
 62
7
100
AcDbPolyline
 90
2
 70
0
 10
451.273390
 20
1186.953534
 30
0.0
 10
453.209492
 20
1187.472309
 30
0.0
  0
LWPOLYLINE
  5
1f8
100
AcDbEntity
  8
0
 62
7
100
AcDbPolyline
 90
2
 70
0
 10
447.021422
 20
1179.588909
 30
0.0
 10
447.540197
 20
1177.652784
 30
0.0
  0
LWPOLYLINE
  5
1f9
100
AcDbEntity
  8
0
 62
7
100
AcDbPolyline
 90
2
 70
0
 10
400.626812
 20
1152.802959
 30
0.0
 10
402.044140
 20
1151.385609
 30
0.0
  0
LWPOLYLINE
  5
1fa
100
AcDbEntity
  8
0
 62
7
100
AcDbPolyline
 90
2
 70
0
 10
392.122877
 20
1152.802959
 30
0.0
 10
390.705557
 20
1151.385609
 30
0.0
  0
LWPOLYLINE
  5
1fb
100
AcDbEntity
  8
0
 62
7
100
AcDbPolyline
 90
2
 70
0
 10
345.728267
 20
1179.588909
 30
0.0
 10
345.209492
 20
1177.652784
 30
0.0
  0
LWPOLYLINE
  5
1fc
100
AcDbEntity
  8
0
 62
7
100
AcDbPolyline
 90
2
 70
0
 10
360.374846
 20
1020.366016
 30
0.0
 10
390.705557
 20
1020.366016
 30
0.0
  0
LWPOLYLINE
  5
1fd
100
AcDbEntity
  8
0
 62
7
100
AcDbPolyline
 90
2
 70
0
 10
432.374845
 20
1020.366016
 30
0.0
 10
447.540197
 20
1046.633191
 30
0.0
  0
LWPOLYLINE
  5
1fe
100
AcDbEntity
  8
0
 62
7
100
AcDbPolyline
 90
2
 70
0
 10
468.374845
 20
1082.719891
 30
0.0
 10
453.209492
 20
1108.987066
 30
0.0
  0
LWPOLYLINE
  5
1ff
100
AcDbEntity
  8
0
 62
7
100
AcDbPolyline
 90
2
 70
0
 10
432.374845
 20
1145.073691
 30
0.0
 10
402.044140
 20
1145.073691
 30
0.0
  0
LWPOLYLINE
  5
200
100
AcDbEntity
  8
0
 62
7
100
AcDbPolyline
 90
2
 70
0
 10
360.374846
 20
1145.073691
 30
0.0
 10
345.209492
 20
1118.806516
 30
0.0
  0
LWPOLYLINE
  5
201
100
AcDbEntity
  8
0
 62
7
100
AcDbPolyline
 90
2
 70
0
 10
324.374845
 20
1082.719891
 30
0.0
 10
339.540197
 20
1056.452716
 30
0.0
  0
LWPOLYLINE
  5
202
100
AcDbEntity
  8
0
 62
7
100
AcDbPolyline
 90
2
 70
0
 10
352.523238
 20
1062.311866
 30
0.0
 10
356.775206
 20
1054.947242
 30
0.0
  0
LWPOLYLINE
  5
203
100
AcDbEntity
  8
0
 62
7
100
AcDbPolyline
 90
2
 70
0
 10
392.122877
 20
1034.539291
 30
0.0
 10
400.626812
 20
1034.539291
 30
0.0
  0
LWPOLYLINE
  5
204
100
AcDbEntity
  8
0
 62
7
100
AcDbPolyline
 90
2
 70
0
 10
392.122877
 20
1034.539291
 30
0.0
 10
392.122877
 20
1021.783366
 30
0.0
  0
LWPOLYLINE
  5
205
100
AcDbEntity
  8
0
 62
7
100
AcDbPolyline
 90
2
 70
0
 10
400.626812
 20
1034.539291
 30
0.0
 10
400.626812
 20
1021.783366
 30
0.0
  0
LWPOLYLINE
  5
206
100
AcDbEntity
  8
0
 62
7
100
AcDbPolyline
 90
2
 70
0
 10
352.523238
 20
1062.311866
 30
0.0
 10
341.476300
 20
1055.933941
 30
0.0
  0
LWPOLYLINE
  5
207
100
AcDbEntity
  8
0
 62
7
100
AcDbPolyline
 90
2
 70
0
 10
356.775206
 20
1054.947242
 30
0.0
 10
345.728267
 20
1048.569317
 30
0.0
  0
LWPOLYLINE
  5
208
100
AcDbEntity
  8
0
 62
7
100
AcDbPolyline
 90
2
 70
0
 10
356.775206
 20
1110.492466
 30
0.0
 10
352.523238
 20
1103.127841
 30
0.0
  0
LWPOLYLINE
  5
209
100
AcDbEntity
  8
0
 62
7
100
AcDbPolyline
 90
2
 70
0
 10
356.775206
 20
1110.492466
 30
0.0
 10
345.728267
 20
1116.870467
 30
0.0
  0
LWPOLYLINE
  5
20a
100
AcDbEntity
  8
0
 62
7
100
AcDbPolyline
 90
2
 70
0
 10
352.523238
 20
1103.127841
 30
0.0
 10
341.476300
 20
1109.505841
 30
0.0
  0
LWPOLYLINE
  5
20b
100
AcDbEntity
  8
0
 62
7
100
AcDbPolyline
 90
2
 70
0
 10
400.626812
 20
1130.900492
 30
0.0
 10
392.122877
 20
1130.900492
 30
0.0
  0
LWPOLYLINE
  5
20c
100
AcDbEntity
  8
0
 62
7
100
AcDbPolyline
 90
2
 70
0
 10
400.626812
 20
1130.900492
 30
0.0
 10
400.626812
 20
1143.656341
 30
0.0
  0
LWPOLYLINE
  5
20d
100
AcDbEntity
  8
0
 62
7
100
AcDbPolyline
 90
2
 70
0
 10
392.122877
 20
1130.900492
 30
0.0
 10
392.122877
 20
1143.656341
 30
0.0
  0
LWPOLYLINE
  5
20e
100
AcDbEntity
  8
0
 62
7
100
AcDbPolyline
 90
2
 70
0
 10
440.226452
 20
1103.127841
 30
0.0
 10
435.974485
 20
1110.492466
 30
0.0
  0
LWPOLYLINE
  5
20f
100
AcDbEntity
  8
0
 62
7
100
AcDbPolyline
 90
2
 70
0
 10
440.226452
 20
1103.127841
 30
0.0
 10
451.273390
 20
1109.505841
 30
0.0
  0
LWPOLYLINE
  5
210
100
AcDbEntity
  8
0
 62
7
100
AcDbPolyline
 90
2
 70
0
 10
435.974485
 20
1110.492466
 30
0.0
 10
447.021422
 20
1116.870467
 30
0.0
  0
LWPOLYLINE
  5
211
100
AcDbEntity
  8
0
 62
7
100
AcDbPolyline
 90
2
 70
0
 10
435.974485
 20
1054.947242
 30
0.0
 10
440.226452
 20
1062.311866
 30
0.0
  0
LWPOLYLINE
  5
212
100
AcDbEntity
  8
0
 62
7
100
AcDbPolyline
 90
2
 70
0
 10
435.974485
 20
1054.947242
 30
0.0
 10
447.021422
 20
1048.569317
 30
0.0
  0
LWPOLYLINE
  5
213
100
AcDbEntity
  8
0
 62
7
100
AcDbPolyline
 90
2
 70
0
 10
440.226452
 20
1062.311866
 30
0.0
 10
451.273390
 20
1055.933941
 30
0.0
  0
LWPOLYLINE
  5
214
100
AcDbEntity
  8
0
 62
7
100
AcDbPolyline
 90
2
 70
0
 10
402.044140
 20
1020.366016
 30
0.0
 10
432.374845
 20
1020.366016
 30
0.0
  0
LWPOLYLINE
  5
215
100
AcDbEntity
  8
0
 62
7
100
AcDbPolyline
 90
2
 70
0
 10
447.540197
 20
1118.806516
 30
0.0
 10
432.374845
 20
1145.073691
 30
0.0
  0
LWPOLYLINE
  5
216
100
AcDbEntity
  8
0
 62
7
100
AcDbPolyline
 90
2
 70
0
 10
453.209492
 20
1056.452716
 30
0.0
 10
468.374845
 20
1082.719891
 30
0.0
  0
LWPOLYLINE
  5
217
100
AcDbEntity
  8
0
 62
7
100
AcDbPolyline
 90
2
 70
0
 10
390.705557
 20
1145.073691
 30
0.0
 10
360.374846
 20
1145.073691
 30
0.0
  0
LWPOLYLINE
  5
218
100
AcDbEntity
  8
0
 62
7
100
AcDbPolyline
 90
2
 70
0
 10
339.540197
 20
1108.987066
 30
0.0
 10
324.374845
 20
1082.719891
 30
0.0
  0
LWPOLYLINE
  5
219
100
AcDbEntity
  8
0
 62
7
100
AcDbPolyline
 90
2
 70
0
 10
345.209492
 20
1046.633191
 30
0.0
 10
360.374846
 20
1020.366016
 30
0.0
  0
LWPOLYLINE
  5
21a
100
AcDbEntity
  8
0
 62
7
100
AcDbPolyline
 90
2
 70
0
 10
341.476300
 20
1055.933941
 30
0.0
 10
339.540197
 20
1056.452716
 30
0.0
  0
LWPOLYLINE
  5
21b
100
AcDbEntity
  8
0
 62
7
100
AcDbPolyline
 90
2
 70
0
 10
341.476300
 20
1109.505841
 30
0.0
 10
339.540197
 20
1108.987066
 30
0.0
  0
LWPOLYLINE
  5
21c
100
AcDbEntity
  8
0
 62
7
100
AcDbPolyline
 90
2
 70
0
 10
345.209492
 20
1118.806516
 30
0.0
 10
345.728267
 20
1116.870467
 30
0.0
  0
LWPOLYLINE
  5
21d
100
AcDbEntity
  8
0
 62
7
100
AcDbPolyline
 90
2
 70
0
 10
392.122877
 20
1143.656341
 30
0.0
 10
390.705557
 20
1145.073691
 30
0.0
  0
LWPOLYLINE
  5
21e
100
AcDbEntity
  8
0
 62
7
100
AcDbPolyline
 90
2
 70
0
 10
400.626812
 20
1143.656341
 30
0.0
 10
402.044140
 20
1145.073691
 30
0.0
  0
LWPOLYLINE
  5
21f
100
AcDbEntity
  8
0
 62
7
100
AcDbPolyline
 90
2
 70
0
 10
447.021422
 20
1116.870467
 30
0.0
 10
447.540197
 20
1118.806516
 30
0.0
  0
LWPOLYLINE
  5
220
100
AcDbEntity
  8
0
 62
7
100
AcDbPolyline
 90
2
 70
0
 10
451.273390
 20
1109.505841
 30
0.0
 10
453.209492
 20
1108.987066
 30
0.0
  0
LWPOLYLINE
  5
221
100
AcDbEntity
  8
0
 62
7
100
AcDbPolyline
 90
2
 70
0
 10
451.273390
 20
1055.933941
 30
0.0
 10
453.209492
 20
1056.452716
 30
0.0
  0
LWPOLYLINE
  5
222
100
AcDbEntity
  8
0
 62
7
100
AcDbPolyline
 90
2
 70
0
 10
447.021422
 20
1048.569317
 30
0.0
 10
447.540197
 20
1046.633191
 30
0.0
  0
LWPOLYLINE
  5
223
100
AcDbEntity
  8
0
 62
7
100
AcDbPolyline
 90
2
 70
0
 10
400.626812
 20
1021.783366
 30
0.0
 10
402.044140
 20
1020.366016
 30
0.0
  0
LWPOLYLINE
  5
224
100
AcDbEntity
  8
0
 62
7
100
AcDbPolyline
 90
2
 70
0
 10
392.122877
 20
1021.783366
 30
0.0
 10
390.705557
 20
1020.366016
 30
0.0
  0
LWPOLYLINE
  5
225
100
AcDbEntity
  8
0
 62
7
100
AcDbPolyline
 90
2
 70
0
 10
345.728267
 20
1048.569317
 30
0.0
 10
345.209492
 20
1046.633191
 30
0.0
  0
LWPOLYLINE
  5
226
100
AcDbEntity
  8
0
 62
7
100
AcDbPolyline
 90
2
 70
0
 10
511.650986
 20
1151.385609
 30
0.0
 10
541.981697
 20
1151.385609
 30
0.0
  0
LWPOLYLINE
  5
227
100
AcDbEntity
  8
0
 62
7
100
AcDbPolyline
 90
2
 70
0
 10
583.650985
 20
1151.385609
 30
0.0
 10
598.816337
 20
1177.652784
 30
0.0
  0
LWPOLYLINE
  5
228
100
AcDbEntity
  8
0
 62
7
100
AcDbPolyline
 90
2
 70
0
 10
619.650985
 20
1213.739484
 30
0.0
 10
604.485632
 20
1240.006659
 30
0.0
  0
LWPOLYLINE
  5
229
100
AcDbEntity
  8
0
 62
7
100
AcDbPolyline
 90
2
 70
0
 10
583.650985
 20
1276.093284
 30
0.0
 10
553.320280
 20
1276.093284
 30
0.0
  0
LWPOLYLINE
  5
22a
100
AcDbEntity
  8
0
 62
7
100
AcDbPolyline
 90
2
 70
0
 10
511.650986
 20
1276.093284
 30
0.0
 10
496.485632
 20
1249.826109
 30
0.0
  0
LWPOLYLINE
  5
22b
100
AcDbEntity
  8
0
 62
7
100
AcDbPolyline
 90
2
 70
0
 10
475.650985
 20
1213.739484
 30
0.0
 10
490.816337
 20
1187.472309
 30
0.0
  0
LWPOLYLINE
  5
22c
100
AcDbEntity
  8
0
 62
7
100
AcDbPolyline
 90
2
 70
0
 10
503.799378
 20
1193.331459
 30
0.0
 10
508.051346
 20
1185.966834
 30
0.0
  0
LWPOLYLINE
  5
22d
100
AcDbEntity
  8
0
 62
7
100
AcDbPolyline
 90
2
 70
0
 10
543.399017
 20
1165.558884
 30
0.0
 10
551.902952
 20
1165.558884
 30
0.0
  0
LWPOLYLINE
  5
22e
100
AcDbEntity
  8
0
 62
7
100
AcDbPolyline
 90
2
 70
0
 10
543.399017
 20
1165.558884
 30
0.0
 10
543.399017
 20
1152.802959
 30
0.0
  0
LWPOLYLINE
  5
22f
100
AcDbEntity
  8
0
 62
7
100
AcDbPolyline
 90
2
 70
0
 10
551.902952
 20
1165.558884
 30
0.0
 10
551.902952
 20
1152.802959
 30
0.0
  0
LWPOLYLINE
  5
230
100
AcDbEntity
  8
0
 62
7
100
AcDbPolyline
 90
2
 70
0
 10
503.799378
 20
1193.331459
 30
0.0
 10
492.752440
 20
1186.953534
 30
0.0
  0
LWPOLYLINE
  5
231
100
AcDbEntity
  8
0
 62
7
100
AcDbPolyline
 90
2
 70
0
 10
508.051346
 20
1185.966834
 30
0.0
 10
497.004407
 20
1179.588909
 30
0.0
  0
LWPOLYLINE
  5
232
100
AcDbEntity
  8
0
 62
7
100
AcDbPolyline
 90
2
 70
0
 10
508.051346
 20
1241.512059
 30
0.0
 10
503.799378
 20
1234.147434
 30
0.0
  0
LWPOLYLINE
  5
233
100
AcDbEntity
  8
0
 62
7
100
AcDbPolyline
 90
2
 70
0
 10
508.051346
 20
1241.512059
 30
0.0
 10
497.004407
 20
1247.890059
 30
0.0
  0
LWPOLYLINE
  5
234
100
AcDbEntity
  8
0
 62
7
100
AcDbPolyline
 90
2
 70
0
 10
503.799378
 20
1234.147434
 30
0.0
 10
492.752440
 20
1240.525434
 30
0.0
  0
LWPOLYLINE
  5
235
100
AcDbEntity
  8
0
 62
7
100
AcDbPolyline
 90
2
 70
0
 10
551.902952
 20
1261.920084
 30
0.0
 10
543.399017
 20
1261.920084
 30
0.0
  0
LWPOLYLINE
  5
236
100
AcDbEntity
  8
0
 62
7
100
AcDbPolyline
 90
2
 70
0
 10
551.902952
 20
1261.920084
 30
0.0
 10
551.902952
 20
1274.675934
 30
0.0
  0
LWPOLYLINE
  5
237
100
AcDbEntity
  8
0
 62
7
100
AcDbPolyline
 90
2
 70
0
 10
543.399017
 20
1261.920084
 30
0.0
 10
543.399017
 20
1274.675934
 30
0.0
  0
LWPOLYLINE
  5
238
100
AcDbEntity
  8
0
 62
7
100
AcDbPolyline
 90
2
 70
0
 10
591.502592
 20
1234.147434
 30
0.0
 10
587.250625
 20
1241.512059
 30
0.0
  0
LWPOLYLINE
  5
239
100
AcDbEntity
  8
0
 62
7
100
AcDbPolyline
 90
2
 70
0
 10
591.502592
 20
1234.147434
 30
0.0
 10
602.549530
 20
1240.525434
 30
0.0
  0
LWPOLYLINE
  5
23a
100
AcDbEntity
  8
0
 62
7
100
AcDbPolyline
 90
2
 70
0
 10
587.250625
 20
1241.512059
 30
0.0
 10
598.297562
 20
1247.890059
 30
0.0
  0
LWPOLYLINE
  5
23b
100
AcDbEntity
  8
0
 62
7
100
AcDbPolyline
 90
2
 70
0
 10
587.250625
 20
1185.966834
 30
0.0
 10
591.502592
 20
1193.331459
 30
0.0
  0
LWPOLYLINE
  5
23c
100
AcDbEntity
  8
0
 62
7
100
AcDbPolyline
 90
2
 70
0
 10
587.250625
 20
1185.966834
 30
0.0
 10
598.297562
 20
1179.588909
 30
0.0
  0
LWPOLYLINE
  5
23d
100
AcDbEntity
  8
0
 62
7
100
AcDbPolyline
 90
2
 70
0
 10
591.502592
 20
1193.331459
 30
0.0
 10
602.549530
 20
1186.953534
 30
0.0
  0
LWPOLYLINE
  5
23e
100
AcDbEntity
  8
0
 62
7
100
AcDbPolyline
 90
2
 70
0
 10
553.320280
 20
1151.385609
 30
0.0
 10
583.650985
 20
1151.385609
 30
0.0
  0
LWPOLYLINE
  5
23f
100
AcDbEntity
  8
0
 62
7
100
AcDbPolyline
 90
2
 70
0
 10
598.816337
 20
1249.826109
 30
0.0
 10
583.650985
 20
1276.093284
 30
0.0
  0
LWPOLYLINE
  5
240
100
AcDbEntity
  8
0
 62
7
100
AcDbPolyline
 90
2
 70
0
 10
604.485632
 20
1187.472309
 30
0.0
 10
619.650985
 20
1213.739484
 30
0.0
  0
LWPOLYLINE
  5
241
100
AcDbEntity
  8
0
 62
7
100
AcDbPolyline
 90
2
 70
0
 10
541.981697
 20
1276.093284
 30
0.0
 10
511.650986
 20
1276.093284
 30
0.0
  0
LWPOLYLINE
  5
242
100
AcDbEntity
  8
0
 62
7
100
AcDbPolyline
 90
2
 70
0
 10
490.816337
 20
1240.006659
 30
0.0
 10
475.650985
 20
1213.739484
 30
0.0
  0
LWPOLYLINE
  5
243
100
AcDbEntity
  8
0
 62
7
100
AcDbPolyline
 90
2
 70
0
 10
496.485632
 20
1177.652784
 30
0.0
 10
511.650986
 20
1151.385609
 30
0.0
  0
LWPOLYLINE
  5
244
100
AcDbEntity
  8
0
 62
7
100
AcDbPolyline
 90
2
 70
0
 10
492.752440
 20
1186.953534
 30
0.0
 10
490.816337
 20
1187.472309
 30
0.0
  0
LWPOLYLINE
  5
245
100
AcDbEntity
  8
0
 62
7
100
AcDbPolyline
 90
2
 70
0
 10
492.752440
 20
1240.525434
 30
0.0
 10
490.816337
 20
1240.006659
 30
0.0
  0
LWPOLYLINE
  5
246
100
AcDbEntity
  8
0
 62
7
100
AcDbPolyline
 90
2
 70
0
 10
496.485632
 20
1249.826109
 30
0.0
 10
497.004407
 20
1247.890059
 30
0.0
  0
LWPOLYLINE
  5
247
100
AcDbEntity
  8
0
 62
7
100
AcDbPolyline
 90
2
 70
0
 10
543.399017
 20
1274.675934
 30
0.0
 10
541.981697
 20
1276.093284
 30
0.0
  0
LWPOLYLINE
  5
248
100
AcDbEntity
  8
0
 62
7
100
AcDbPolyline
 90
2
 70
0
 10
551.902952
 20
1274.675934
 30
0.0
 10
553.320280
 20
1276.093284
 30
0.0
  0
LWPOLYLINE
  5
249
100
AcDbEntity
  8
0
 62
7
100
AcDbPolyline
 90
2
 70
0
 10
598.297562
 20
1247.890059
 30
0.0
 10
598.816337
 20
1249.826109
 30
0.0
  0
LWPOLYLINE
  5
24a
100
AcDbEntity
  8
0
 62
7
100
AcDbPolyline
 90
2
 70
0
 10
602.549530
 20
1240.525434
 30
0.0
 10
604.485632
 20
1240.006659
 30
0.0
  0
LWPOLYLINE
  5
24b
100
AcDbEntity
  8
0
 62
7
100
AcDbPolyline
 90
2
 70
0
 10
602.549530
 20
1186.953534
 30
0.0
 10
604.485632
 20
1187.472309
 30
0.0
  0
LWPOLYLINE
  5
24c
100
AcDbEntity
  8
0
 62
7
100
AcDbPolyline
 90
2
 70
0
 10
598.297562
 20
1179.588909
 30
0.0
 10
598.816337
 20
1177.652784
 30
0.0
  0
LWPOLYLINE
  5
24d
100
AcDbEntity
  8
0
 62
7
100
AcDbPolyline
 90
2
 70
0
 10
551.902952
 20
1152.802959
 30
0.0
 10
553.320280
 20
1151.385609
 30
0.0
  0
LWPOLYLINE
  5
24e
100
AcDbEntity
  8
0
 62
7
100
AcDbPolyline
 90
2
 70
0
 10
543.399017
 20
1152.802959
 30
0.0
 10
541.981697
 20
1151.385609
 30
0.0
  0
LWPOLYLINE
  5
24f
100
AcDbEntity
  8
0
 62
7
100
AcDbPolyline
 90
2
 70
0
 10
497.004407
 20
1179.588909
 30
0.0
 10
496.485632
 20
1177.652784
 30
0.0
  0
LWPOLYLINE
  5
250
100
AcDbEntity
  8
0
 62
7
100
AcDbPolyline
 90
2
 70
0
 10
511.650986
 20
1020.366016
 30
0.0
 10
541.981697
 20
1020.366016
 30
0.0
  0
LWPOLYLINE
  5
251
100
AcDbEntity
  8
0
 62
7
100
AcDbPolyline
 90
2
 70
0
 10
583.650985
 20
1020.366016
 30
0.0
 10
598.816337
 20
1046.633191
 30
0.0
  0
LWPOLYLINE
  5
252
100
AcDbEntity
  8
0
 62
7
100
AcDbPolyline
 90
2
 70
0
 10
619.650985
 20
1082.719891
 30
0.0
 10
604.485632
 20
1108.987066
 30
0.0
  0
LWPOLYLINE
  5
253
100
AcDbEntity
  8
0
 62
7
100
AcDbPolyline
 90
2
 70
0
 10
583.650985
 20
1145.073691
 30
0.0
 10
553.320280
 20
1145.073691
 30
0.0
  0
LWPOLYLINE
  5
254
100
AcDbEntity
  8
0
 62
7
100
AcDbPolyline
 90
2
 70
0
 10
511.650986
 20
1145.073691
 30
0.0
 10
496.485632
 20
1118.806516
 30
0.0
  0
LWPOLYLINE
  5
255
100
AcDbEntity
  8
0
 62
7
100
AcDbPolyline
 90
2
 70
0
 10
475.650985
 20
1082.719891
 30
0.0
 10
490.816337
 20
1056.452716
 30
0.0
  0
LWPOLYLINE
  5
256
100
AcDbEntity
  8
0
 62
7
100
AcDbPolyline
 90
2
 70
0
 10
503.799378
 20
1062.311866
 30
0.0
 10
508.051346
 20
1054.947242
 30
0.0
  0
LWPOLYLINE
  5
257
100
AcDbEntity
  8
0
 62
7
100
AcDbPolyline
 90
2
 70
0
 10
543.399017
 20
1034.539291
 30
0.0
 10
551.902952
 20
1034.539291
 30
0.0
  0
LWPOLYLINE
  5
258
100
AcDbEntity
  8
0
 62
7
100
AcDbPolyline
 90
2
 70
0
 10
543.399017
 20
1034.539291
 30
0.0
 10
543.399017
 20
1021.783366
 30
0.0
  0
LWPOLYLINE
  5
259
100
AcDbEntity
  8
0
 62
7
100
AcDbPolyline
 90
2
 70
0
 10
551.902952
 20
1034.539291
 30
0.0
 10
551.902952
 20
1021.783366
 30
0.0
  0
LWPOLYLINE
  5
25a
100
AcDbEntity
  8
0
 62
7
100
AcDbPolyline
 90
2
 70
0
 10
503.799378
 20
1062.311866
 30
0.0
 10
492.752440
 20
1055.933941
 30
0.0
  0
LWPOLYLINE
  5
25b
100
AcDbEntity
  8
0
 62
7
100
AcDbPolyline
 90
2
 70
0
 10
508.051346
 20
1054.947242
 30
0.0
 10
497.004407
 20
1048.569317
 30
0.0
  0
LWPOLYLINE
  5
25c
100
AcDbEntity
  8
0
 62
7
100
AcDbPolyline
 90
2
 70
0
 10
508.051346
 20
1110.492466
 30
0.0
 10
503.799378
 20
1103.127841
 30
0.0
  0
LWPOLYLINE
  5
25d
100
AcDbEntity
  8
0
 62
7
100
AcDbPolyline
 90
2
 70
0
 10
508.051346
 20
1110.492466
 30
0.0
 10
497.004407
 20
1116.870467
 30
0.0
  0
LWPOLYLINE
  5
25e
100
AcDbEntity
  8
0
 62
7
100
AcDbPolyline
 90
2
 70
0
 10
503.799378
 20
1103.127841
 30
0.0
 10
492.752440
 20
1109.505841
 30
0.0
  0
LWPOLYLINE
  5
25f
100
AcDbEntity
  8
0
 62
7
100
AcDbPolyline
 90
2
 70
0
 10
551.902952
 20
1130.900492
 30
0.0
 10
543.399017
 20
1130.900492
 30
0.0
  0
LWPOLYLINE
  5
260
100
AcDbEntity
  8
0
 62
7
100
AcDbPolyline
 90
2
 70
0
 10
551.902952
 20
1130.900492
 30
0.0
 10
551.902952
 20
1143.656341
 30
0.0
  0
LWPOLYLINE
  5
261
100
AcDbEntity
  8
0
 62
7
100
AcDbPolyline
 90
2
 70
0
 10
543.399017
 20
1130.900492
 30
0.0
 10
543.399017
 20
1143.656341
 30
0.0
  0
LWPOLYLINE
  5
262
100
AcDbEntity
  8
0
 62
7
100
AcDbPolyline
 90
2
 70
0
 10
591.502592
 20
1103.127841
 30
0.0
 10
587.250625
 20
1110.492466
 30
0.0
  0
LWPOLYLINE
  5
263
100
AcDbEntity
  8
0
 62
7
100
AcDbPolyline
 90
2
 70
0
 10
591.502592
 20
1103.127841
 30
0.0
 10
602.549530
 20
1109.505841
 30
0.0
  0
LWPOLYLINE
  5
264
100
AcDbEntity
  8
0
 62
7
100
AcDbPolyline
 90
2
 70
0
 10
587.250625
 20
1110.492466
 30
0.0
 10
598.297562
 20
1116.870467
 30
0.0
  0
LWPOLYLINE
  5
265
100
AcDbEntity
  8
0
 62
7
100
AcDbPolyline
 90
2
 70
0
 10
587.250625
 20
1054.947242
 30
0.0
 10
591.502592
 20
1062.311866
 30
0.0
  0
LWPOLYLINE
  5
266
100
AcDbEntity
  8
0
 62
7
100
AcDbPolyline
 90
2
 70
0
 10
587.250625
 20
1054.947242
 30
0.0
 10
598.297562
 20
1048.569317
 30
0.0
  0
LWPOLYLINE
  5
267
100
AcDbEntity
  8
0
 62
7
100
AcDbPolyline
 90
2
 70
0
 10
591.502592
 20
1062.311866
 30
0.0
 10
602.549530
 20
1055.933941
 30
0.0
  0
LWPOLYLINE
  5
268
100
AcDbEntity
  8
0
 62
7
100
AcDbPolyline
 90
2
 70
0
 10
553.320280
 20
1020.366016
 30
0.0
 10
583.650985
 20
1020.366016
 30
0.0
  0
LWPOLYLINE
  5
269
100
AcDbEntity
  8
0
 62
7
100
AcDbPolyline
 90
2
 70
0
 10
598.816337
 20
1118.806516
 30
0.0
 10
583.650985
 20
1145.073691
 30
0.0
  0
LWPOLYLINE
  5
26a
100
AcDbEntity
  8
0
 62
7
100
AcDbPolyline
 90
2
 70
0
 10
604.485632
 20
1056.452716
 30
0.0
 10
619.650985
 20
1082.719891
 30
0.0
  0
LWPOLYLINE
  5
26b
100
AcDbEntity
  8
0
 62
7
100
AcDbPolyline
 90
2
 70
0
 10
541.981697
 20
1145.073691
 30
0.0
 10
511.650986
 20
1145.073691
 30
0.0
  0
LWPOLYLINE
  5
26c
100
AcDbEntity
  8
0
 62
7
100
AcDbPolyline
 90
2
 70
0
 10
490.816337
 20
1108.987066
 30
0.0
 10
475.650985
 20
1082.719891
 30
0.0
  0
LWPOLYLINE
  5
26d
100
AcDbEntity
  8
0
 62
7
100
AcDbPolyline
 90
2
 70
0
 10
496.485632
 20
1046.633191
 30
0.0
 10
511.650986
 20
1020.366016
 30
0.0
  0
LWPOLYLINE
  5
26e
100
AcDbEntity
  8
0
 62
7
100
AcDbPolyline
 90
2
 70
0
 10
492.752440
 20
1055.933941
 30
0.0
 10
490.816337
 20
1056.452716
 30
0.0
  0
LWPOLYLINE
  5
26f
100
AcDbEntity
  8
0
 62
7
100
AcDbPolyline
 90
2
 70
0
 10
492.752440
 20
1109.505841
 30
0.0
 10
490.816337
 20
1108.987066
 30
0.0
  0
LWPOLYLINE
  5
270
100
AcDbEntity
  8
0
 62
7
100
AcDbPolyline
 90
2
 70
0
 10
496.485632
 20
1118.806516
 30
0.0
 10
497.004407
 20
1116.870467
 30
0.0
  0
LWPOLYLINE
  5
271
100
AcDbEntity
  8
0
 62
7
100
AcDbPolyline
 90
2
 70
0
 10
543.399017
 20
1143.656341
 30
0.0
 10
541.981697
 20
1145.073691
 30
0.0
  0
LWPOLYLINE
  5
272
100
AcDbEntity
  8
0
 62
7
100
AcDbPolyline
 90
2
 70
0
 10
551.902952
 20
1143.656341
 30
0.0
 10
553.320280
 20
1145.073691
 30
0.0
  0
LWPOLYLINE
  5
273
100
AcDbEntity
  8
0
 62
7
100
AcDbPolyline
 90
2
 70
0
 10
598.297562
 20
1116.870467
 30
0.0
 10
598.816337
 20
1118.806516
 30
0.0
  0
LWPOLYLINE
  5
274
100
AcDbEntity
  8
0
 62
7
100
AcDbPolyline
 90
2
 70
0
 10
602.549530
 20
1109.505841
 30
0.0
 10
604.485632
 20
1108.987066
 30
0.0
  0
LWPOLYLINE
  5
275
100
AcDbEntity
  8
0
 62
7
100
AcDbPolyline
 90
2
 70
0
 10
602.549530
 20
1055.933941
 30
0.0
 10
604.485632
 20
1056.452716
 30
0.0
  0
LWPOLYLINE
  5
276
100
AcDbEntity
  8
0
 62
7
100
AcDbPolyline
 90
2
 70
0
 10
598.297562
 20
1048.569317
 30
0.0
 10
598.816337
 20
1046.633191
 30
0.0
  0
LWPOLYLINE
  5
277
100
AcDbEntity
  8
0
 62
7
100
AcDbPolyline
 90
2
 70
0
 10
551.902952
 20
1021.783366
 30
0.0
 10
553.320280
 20
1020.366016
 30
0.0
  0
LWPOLYLINE
  5
278
100
AcDbEntity
  8
0
 62
7
100
AcDbPolyline
 90
2
 70
0
 10
543.399017
 20
1021.783366
 30
0.0
 10
541.981697
 20
1020.366016
 30
0.0
  0
LWPOLYLINE
  5
279
100
AcDbEntity
  8
0
 62
7
100
AcDbPolyline
 90
2
 70
0
 10
497.004407
 20
1048.569317
 30
0.0
 10
496.485632
 20
1046.633191
 30
0.0
  0
LWPOLYLINE
  5
27a
100
AcDbEntity
  8
0
 62
7
100
AcDbPolyline
 90
2
 70
0
 10
662.927126
 20
1151.385609
 30
0.0
 10
693.257837
 20
1151.385609
 30
0.0
  0
LWPOLYLINE
  5
27b
100
AcDbEntity
  8
0
 62
7
100
AcDbPolyline
 90
2
 70
0
 10
734.927125
 20
1151.385609
 30
0.0
 10
750.092477
 20
1177.652784
 30
0.0
  0
LWPOLYLINE
  5
27c
100
AcDbEntity
  8
0
 62
7
100
AcDbPolyline
 90
2
 70
0
 10
770.927125
 20
1213.739484
 30
0.0
 10
755.761772
 20
1240.006659
 30
0.0
  0
LWPOLYLINE
  5
27d
100
AcDbEntity
  8
0
 62
7
100
AcDbPolyline
 90
2
 70
0
 10
734.927125
 20
1276.093284
 30
0.0
 10
704.596420
 20
1276.093284
 30
0.0
  0
LWPOLYLINE
  5
27e
100
AcDbEntity
  8
0
 62
7
100
AcDbPolyline
 90
2
 70
0
 10
662.927126
 20
1276.093284
 30
0.0
 10
647.761772
 20
1249.826109
 30
0.0
  0
LWPOLYLINE
  5
27f
100
AcDbEntity
  8
0
 62
7
100
AcDbPolyline
 90
2
 70
0
 10
626.927125
 20
1213.739484
 30
0.0
 10
642.092477
 20
1187.472309
 30
0.0
  0
LWPOLYLINE
  5
280
100
AcDbEntity
  8
0
 62
7
100
AcDbPolyline
 90
2
 70
0
 10
655.075518
 20
1193.331459
 30
0.0
 10
659.327486
 20
1185.966834
 30
0.0
  0
LWPOLYLINE
  5
281
100
AcDbEntity
  8
0
 62
7
100
AcDbPolyline
 90
2
 70
0
 10
694.675157
 20
1165.558884
 30
0.0
 10
703.179092
 20
1165.558884
 30
0.0
  0
LWPOLYLINE
  5
282
100
AcDbEntity
  8
0
 62
7
100
AcDbPolyline
 90
2
 70
0
 10
694.675157
 20
1165.558884
 30
0.0
 10
694.675157
 20
1152.802959
 30
0.0
  0
LWPOLYLINE
  5
283
100
AcDbEntity
  8
0
 62
7
100
AcDbPolyline
 90
2
 70
0
 10
703.179092
 20
1165.558884
 30
0.0
 10
703.179092
 20
1152.802959
 30
0.0
  0
LWPOLYLINE
  5
284
100
AcDbEntity
  8
0
 62
7
100
AcDbPolyline
 90
2
 70
0
 10
655.075518
 20
1193.331459
 30
0.0
 10
644.028580
 20
1186.953534
 30
0.0
  0
LWPOLYLINE
  5
285
100
AcDbEntity
  8
0
 62
7
100
AcDbPolyline
 90
2
 70
0
 10
659.327486
 20
1185.966834
 30
0.0
 10
648.280547
 20
1179.588909
 30
0.0
  0
LWPOLYLINE
  5
286
100
AcDbEntity
  8
0
 62
7
100
AcDbPolyline
 90
2
 70
0
 10
659.327486
 20
1241.512059
 30
0.0
 10
655.075518
 20
1234.147434
 30
0.0
  0
LWPOLYLINE
  5
287
100
AcDbEntity
  8
0
 62
7
100
AcDbPolyline
 90
2
 70
0
 10
659.327486
 20
1241.512059
 30
0.0
 10
648.280547
 20
1247.890059
 30
0.0
  0
LWPOLYLINE
  5
288
100
AcDbEntity
  8
0
 62
7
100
AcDbPolyline
 90
2
 70
0
 10
655.075518
 20
1234.147434
 30
0.0
 10
644.028580
 20
1240.525434
 30
0.0
  0
LWPOLYLINE
  5
289
100
AcDbEntity
  8
0
 62
7
100
AcDbPolyline
 90
2
 70
0
 10
703.179092
 20
1261.920084
 30
0.0
 10
694.675157
 20
1261.920084
 30
0.0
  0
LWPOLYLINE
  5
28a
100
AcDbEntity
  8
0
 62
7
100
AcDbPolyline
 90
2
 70
0
 10
703.179092
 20
1261.920084
 30
0.0
 10
703.179092
 20
1274.675934
 30
0.0
  0
LWPOLYLINE
  5
28b
100
AcDbEntity
  8
0
 62
7
100
AcDbPolyline
 90
2
 70
0
 10
694.675157
 20
1261.920084
 30
0.0
 10
694.675157
 20
1274.675934
 30
0.0
  0
LWPOLYLINE
  5
28c
100
AcDbEntity
  8
0
 62
7
100
AcDbPolyline
 90
2
 70
0
 10
742.778732
 20
1234.147434
 30
0.0
 10
738.526765
 20
1241.512059
 30
0.0
  0
LWPOLYLINE
  5
28d
100
AcDbEntity
  8
0
 62
7
100
AcDbPolyline
 90
2
 70
0
 10
742.778732
 20
1234.147434
 30
0.0
 10
753.825670
 20
1240.525434
 30
0.0
  0
LWPOLYLINE
  5
28e
100
AcDbEntity
  8
0
 62
7
100
AcDbPolyline
 90
2
 70
0
 10
738.526765
 20
1241.512059
 30
0.0
 10
749.573702
 20
1247.890059
 30
0.0
  0
LWPOLYLINE
  5
28f
100
AcDbEntity
  8
0
 62
7
100
AcDbPolyline
 90
2
 70
0
 10
738.526765
 20
1185.966834
 30
0.0
 10
742.778732
 20
1193.331459
 30
0.0
  0
LWPOLYLINE
  5
290
100
AcDbEntity
  8
0
 62
7
100
AcDbPolyline
 90
2
 70
0
 10
738.526765
 20
1185.966834
 30
0.0
 10
749.573702
 20
1179.588909
 30
0.0
  0
LWPOLYLINE
  5
291
100
AcDbEntity
  8
0
 62
7
100
AcDbPolyline
 90
2
 70
0
 10
742.778732
 20
1193.331459
 30
0.0
 10
753.825670
 20
1186.953534
 30
0.0
  0
LWPOLYLINE
  5
292
100
AcDbEntity
  8
0
 62
7
100
AcDbPolyline
 90
2
 70
0
 10
704.596420
 20
1151.385609
 30
0.0
 10
734.927125
 20
1151.385609
 30
0.0
  0
LWPOLYLINE
  5
293
100
AcDbEntity
  8
0
 62
7
100
AcDbPolyline
 90
2
 70
0
 10
750.092477
 20
1249.826109
 30
0.0
 10
734.927125
 20
1276.093284
 30
0.0
  0
LWPOLYLINE
  5
294
100
AcDbEntity
  8
0
 62
7
100
AcDbPolyline
 90
2
 70
0
 10
755.761772
 20
1187.472309
 30
0.0
 10
770.927125
 20
1213.739484
 30
0.0
  0
LWPOLYLINE
  5
295
100
AcDbEntity
  8
0
 62
7
100
AcDbPolyline
 90
2
 70
0
 10
693.257837
 20
1276.093284
 30
0.0
 10
662.927126
 20
1276.093284
 30
0.0
  0
LWPOLYLINE
  5
296
100
AcDbEntity
  8
0
 62
7
100
AcDbPolyline
 90
2
 70
0
 10
642.092477
 20
1240.006659
 30
0.0
 10
626.927125
 20
1213.739484
 30
0.0
  0
LWPOLYLINE
  5
297
100
AcDbEntity
  8
0
 62
7
100
AcDbPolyline
 90
2
 70
0
 10
647.761772
 20
1177.652784
 30
0.0
 10
662.927126
 20
1151.385609
 30
0.0
  0
LWPOLYLINE
  5
298
100
AcDbEntity
  8
0
 62
7
100
AcDbPolyline
 90
2
 70
0
 10
644.028580
 20
1186.953534
 30
0.0
 10
642.092477
 20
1187.472309
 30
0.0
  0
LWPOLYLINE
  5
299
100
AcDbEntity
  8
0
 62
7
100
AcDbPolyline
 90
2
 70
0
 10
644.028580
 20
1240.525434
 30
0.0
 10
642.092477
 20
1240.006659
 30
0.0
  0
LWPOLYLINE
  5
29a
100
AcDbEntity
  8
0
 62
7
100
AcDbPolyline
 90
2
 70
0
 10
647.761772
 20
1249.826109
 30
0.0
 10
648.280547
 20
1247.890059
 30
0.0
  0
LWPOLYLINE
  5
29b
100
AcDbEntity
  8
0
 62
7
100
AcDbPolyline
 90
2
 70
0
 10
694.675157
 20
1274.675934
 30
0.0
 10
693.257837
 20
1276.093284
 30
0.0
  0
LWPOLYLINE
  5
29c
100
AcDbEntity
  8
0
 62
7
100
AcDbPolyline
 90
2
 70
0
 10
703.179092
 20
1274.675934
 30
0.0
 10
704.596420
 20
1276.093284
 30
0.0
  0
LWPOLYLINE
  5
29d
100
AcDbEntity
  8
0
 62
7
100
AcDbPolyline
 90
2
 70
0
 10
749.573702
 20
1247.890059
 30
0.0
 10
750.092477
 20
1249.826109
 30
0.0
  0
LWPOLYLINE
  5
29e
100
AcDbEntity
  8
0
 62
7
100
AcDbPolyline
 90
2
 70
0
 10
753.825670
 20
1240.525434
 30
0.0
 10
755.761772
 20
1240.006659
 30
0.0
  0
LWPOLYLINE
  5
29f
100
AcDbEntity
  8
0
 62
7
100
AcDbPolyline
 90
2
 70
0
 10
753.825670
 20
1186.953534
 30
0.0
 10
755.761772
 20
1187.472309
 30
0.0
  0
LWPOLYLINE
  5
2a0
100
AcDbEntity
  8
0
 62
7
100
AcDbPolyline
 90
2
 70
0
 10
749.573702
 20
1179.588909
 30
0.0
 10
750.092477
 20
1177.652784
 30
0.0
  0
LWPOLYLINE
  5
2a1
100
AcDbEntity
  8
0
 62
7
100
AcDbPolyline
 90
2
 70
0
 10
703.179092
 20
1152.802959
 30
0.0
 10
704.596420
 20
1151.385609
 30
0.0
  0
LWPOLYLINE
  5
2a2
100
AcDbEntity
  8
0
 62
7
100
AcDbPolyline
 90
2
 70
0
 10
694.675157
 20
1152.802959
 30
0.0
 10
693.257837
 20
1151.385609
 30
0.0
  0
LWPOLYLINE
  5
2a3
100
AcDbEntity
  8
0
 62
7
100
AcDbPolyline
 90
2
 70
0
 10
648.280547
 20
1179.588909
 30
0.0
 10
647.761772
 20
1177.652784
 30
0.0
  0
LWPOLYLINE
  5
2a4
100
AcDbEntity
  8
0
 62
7
100
AcDbPolyline
 90
2
 70
0
 10
662.927126
 20
1020.366016
 30
0.0
 10
693.257837
 20
1020.366016
 30
0.0
  0
LWPOLYLINE
  5
2a5
100
AcDbEntity
  8
0
 62
7
100
AcDbPolyline
 90
2
 70
0
 10
734.927125
 20
1020.366016
 30
0.0
 10
750.092477
 20
1046.633191
 30
0.0
  0
LWPOLYLINE
  5
2a6
100
AcDbEntity
  8
0
 62
7
100
AcDbPolyline
 90
2
 70
0
 10
770.927125
 20
1082.719891
 30
0.0
 10
755.761772
 20
1108.987066
 30
0.0
  0
LWPOLYLINE
  5
2a7
100
AcDbEntity
  8
0
 62
7
100
AcDbPolyline
 90
2
 70
0
 10
734.927125
 20
1145.073691
 30
0.0
 10
704.596420
 20
1145.073691
 30
0.0
  0
LWPOLYLINE
  5
2a8
100
AcDbEntity
  8
0
 62
7
100
AcDbPolyline
 90
2
 70
0
 10
662.927126
 20
1145.073691
 30
0.0
 10
647.761772
 20
1118.806516
 30
0.0
  0
LWPOLYLINE
  5
2a9
100
AcDbEntity
  8
0
 62
7
100
AcDbPolyline
 90
2
 70
0
 10
626.927125
 20
1082.719891
 30
0.0
 10
642.092477
 20
1056.452716
 30
0.0
  0
LWPOLYLINE
  5
2aa
100
AcDbEntity
  8
0
 62
7
100
AcDbPolyline
 90
2
 70
0
 10
655.075518
 20
1062.311866
 30
0.0
 10
659.327486
 20
1054.947242
 30
0.0
  0
LWPOLYLINE
  5
2ab
100
AcDbEntity
  8
0
 62
7
100
AcDbPolyline
 90
2
 70
0
 10
694.675157
 20
1034.539291
 30
0.0
 10
703.179092
 20
1034.539291
 30
0.0
  0
LWPOLYLINE
  5
2ac
100
AcDbEntity
  8
0
 62
7
100
AcDbPolyline
 90
2
 70
0
 10
694.675157
 20
1034.539291
 30
0.0
 10
694.675157
 20
1021.783366
 30
0.0
  0
LWPOLYLINE
  5
2ad
100
AcDbEntity
  8
0
 62
7
100
AcDbPolyline
 90
2
 70
0
 10
703.179092
 20
1034.539291
 30
0.0
 10
703.179092
 20
1021.783366
 30
0.0
  0
LWPOLYLINE
  5
2ae
100
AcDbEntity
  8
0
 62
7
100
AcDbPolyline
 90
2
 70
0
 10
655.075518
 20
1062.311866
 30
0.0
 10
644.028580
 20
1055.933941
 30
0.0
  0
LWPOLYLINE
  5
2af
100
AcDbEntity
  8
0
 62
7
100
AcDbPolyline
 90
2
 70
0
 10
659.327486
 20
1054.947242
 30
0.0
 10
648.280547
 20
1048.569317
 30
0.0
  0
LWPOLYLINE
  5
2b0
100
AcDbEntity
  8
0
 62
7
100
AcDbPolyline
 90
2
 70
0
 10
659.327486
 20
1110.492466
 30
0.0
 10
655.075518
 20
1103.127841
 30
0.0
  0
LWPOLYLINE
  5
2b1
100
AcDbEntity
  8
0
 62
7
100
AcDbPolyline
 90
2
 70
0
 10
659.327486
 20
1110.492466
 30
0.0
 10
648.280547
 20
1116.870467
 30
0.0
  0
LWPOLYLINE
  5
2b2
100
AcDbEntity
  8
0
 62
7
100
AcDbPolyline
 90
2
 70
0
 10
655.075518
 20
1103.127841
 30
0.0
 10
644.028580
 20
1109.505841
 30
0.0
  0
LWPOLYLINE
  5
2b3
100
AcDbEntity
  8
0
 62
7
100
AcDbPolyline
 90
2
 70
0
 10
703.179092
 20
1130.900492
 30
0.0
 10
694.675157
 20
1130.900492
 30
0.0
  0
LWPOLYLINE
  5
2b4
100
AcDbEntity
  8
0
 62
7
100
AcDbPolyline
 90
2
 70
0
 10
703.179092
 20
1130.900492
 30
0.0
 10
703.179092
 20
1143.656341
 30
0.0
  0
LWPOLYLINE
  5
2b5
100
AcDbEntity
  8
0
 62
7
100
AcDbPolyline
 90
2
 70
0
 10
694.675157
 20
1130.900492
 30
0.0
 10
694.675157
 20
1143.656341
 30
0.0
  0
LWPOLYLINE
  5
2b6
100
AcDbEntity
  8
0
 62
7
100
AcDbPolyline
 90
2
 70
0
 10
742.778732
 20
1103.127841
 30
0.0
 10
738.526765
 20
1110.492466
 30
0.0
  0
LWPOLYLINE
  5
2b7
100
AcDbEntity
  8
0
 62
7
100
AcDbPolyline
 90
2
 70
0
 10
742.778732
 20
1103.127841
 30
0.0
 10
753.825670
 20
1109.505841
 30
0.0
  0
LWPOLYLINE
  5
2b8
100
AcDbEntity
  8
0
 62
7
100
AcDbPolyline
 90
2
 70
0
 10
738.526765
 20
1110.492466
 30
0.0
 10
749.573702
 20
1116.870467
 30
0.0
  0
LWPOLYLINE
  5
2b9
100
AcDbEntity
  8
0
 62
7
100
AcDbPolyline
 90
2
 70
0
 10
738.526765
 20
1054.947242
 30
0.0
 10
742.778732
 20
1062.311866
 30
0.0
  0
LWPOLYLINE
  5
2ba
100
AcDbEntity
  8
0
 62
7
100
AcDbPolyline
 90
2
 70
0
 10
738.526765
 20
1054.947242
 30
0.0
 10
749.573702
 20
1048.569317
 30
0.0
  0
LWPOLYLINE
  5
2bb
100
AcDbEntity
  8
0
 62
7
100
AcDbPolyline
 90
2
 70
0
 10
742.778732
 20
1062.311866
 30
0.0
 10
753.825670
 20
1055.933941
 30
0.0
  0
LWPOLYLINE
  5
2bc
100
AcDbEntity
  8
0
 62
7
100
AcDbPolyline
 90
2
 70
0
 10
704.596420
 20
1020.366016
 30
0.0
 10
734.927125
 20
1020.366016
 30
0.0
  0
LWPOLYLINE
  5
2bd
100
AcDbEntity
  8
0
 62
7
100
AcDbPolyline
 90
2
 70
0
 10
750.092477
 20
1118.806516
 30
0.0
 10
734.927125
 20
1145.073691
 30
0.0
  0
LWPOLYLINE
  5
2be
100
AcDbEntity
  8
0
 62
7
100
AcDbPolyline
 90
2
 70
0
 10
755.761772
 20
1056.452716
 30
0.0
 10
770.927125
 20
1082.719891
 30
0.0
  0
LWPOLYLINE
  5
2bf
100
AcDbEntity
  8
0
 62
7
100
AcDbPolyline
 90
2
 70
0
 10
693.257837
 20
1145.073691
 30
0.0
 10
662.927126
 20
1145.073691
 30
0.0
  0
LWPOLYLINE
  5
2c0
100
AcDbEntity
  8
0
 62
7
100
AcDbPolyline
 90
2
 70
0
 10
642.092477
 20
1108.987066
 30
0.0
 10
626.927125
 20
1082.719891
 30
0.0
  0
LWPOLYLINE
  5
2c1
100
AcDbEntity
  8
0
 62
7
100
AcDbPolyline
 90
2
 70
0
 10
647.761772
 20
1046.633191
 30
0.0
 10
662.927126
 20
1020.366016
 30
0.0
  0
LWPOLYLINE
  5
2c2
100
AcDbEntity
  8
0
 62
7
100
AcDbPolyline
 90
2
 70
0
 10
644.028580
 20
1055.933941
 30
0.0
 10
642.092477
 20
1056.452716
 30
0.0
  0
LWPOLYLINE
  5
2c3
100
AcDbEntity
  8
0
 62
7
100
AcDbPolyline
 90
2
 70
0
 10
644.028580
 20
1109.505841
 30
0.0
 10
642.092477
 20
1108.987066
 30
0.0
  0
LWPOLYLINE
  5
2c4
100
AcDbEntity
  8
0
 62
7
100
AcDbPolyline
 90
2
 70
0
 10
647.761772
 20
1118.806516
 30
0.0
 10
648.280547
 20
1116.870467
 30
0.0
  0
LWPOLYLINE
  5
2c5
100
AcDbEntity
  8
0
 62
7
100
AcDbPolyline
 90
2
 70
0
 10
694.675157
 20
1143.656341
 30
0.0
 10
693.257837
 20
1145.073691
 30
0.0
  0
LWPOLYLINE
  5
2c6
100
AcDbEntity
  8
0
 62
7
100
AcDbPolyline
 90
2
 70
0
 10
703.179092
 20
1143.656341
 30
0.0
 10
704.596420
 20
1145.073691
 30
0.0
  0
LWPOLYLINE
  5
2c7
100
AcDbEntity
  8
0
 62
7
100
AcDbPolyline
 90
2
 70
0
 10
749.573702
 20
1116.870467
 30
0.0
 10
750.092477
 20
1118.806516
 30
0.0
  0
LWPOLYLINE
  5
2c8
100
AcDbEntity
  8
0
 62
7
100
AcDbPolyline
 90
2
 70
0
 10
753.825670
 20
1109.505841
 30
0.0
 10
755.761772
 20
1108.987066
 30
0.0
  0
LWPOLYLINE
  5
2c9
100
AcDbEntity
  8
0
 62
7
100
AcDbPolyline
 90
2
 70
0
 10
753.825670
 20
1055.933941
 30
0.0
 10
755.761772
 20
1056.452716
 30
0.0
  0
LWPOLYLINE
  5
2ca
100
AcDbEntity
  8
0
 62
7
100
AcDbPolyline
 90
2
 70
0
 10
749.573702
 20
1048.569317
 30
0.0
 10
750.092477
 20
1046.633191
 30
0.0
  0
LWPOLYLINE
  5
2cb
100
AcDbEntity
  8
0
 62
7
100
AcDbPolyline
 90
2
 70
0
 10
703.179092
 20
1021.783366
 30
0.0
 10
704.596420
 20
1020.366016
 30
0.0
  0
LWPOLYLINE
  5
2cc
100
AcDbEntity
  8
0
 62
7
100
AcDbPolyline
 90
2
 70
0
 10
694.675157
 20
1021.783366
 30
0.0
 10
693.257837
 20
1020.366016
 30
0.0
  0
LWPOLYLINE
  5
2cd
100
AcDbEntity
  8
0
 62
7
100
AcDbPolyline
 90
2
 70
0
 10
648.280547
 20
1048.569317
 30
0.0
 10
647.761772
 20
1046.633191
 30
0.0
  0
LWPOLYLINE
  5
2ce
100
AcDbEntity
  8
0
 62
7
100
AcDbPolyline
 90
2
 70
0
 10
814.203259
 20
1151.385609
 30
0.0
 10
844.533970
 20
1151.385609
 30
0.0
  0
LWPOLYLINE
  5
2cf
100
AcDbEntity
  8
0
 62
7
100
AcDbPolyline
 90
2
 70
0
 10
886.203257
 20
1151.385609
 30
0.0
 10
901.368610
 20
1177.652784
 30
0.0
  0
LWPOLYLINE
  5
2d0
100
AcDbEntity
  8
0
 62
7
100
AcDbPolyline
 90
2
 70
0
 10
922.203257
 20
1213.739484
 30
0.0
 10
907.037905
 20
1240.006659
 30
0.0
  0
LWPOLYLINE
  5
2d1
100
AcDbEntity
  8
0
 62
7
100
AcDbPolyline
 90
2
 70
0
 10
886.203257
 20
1276.093284
 30
0.0
 10
855.872552
 20
1276.093284
 30
0.0
  0
LWPOLYLINE
  5
2d2
100
AcDbEntity
  8
0
 62
7
100
AcDbPolyline
 90
2
 70
0
 10
814.203259
 20
1276.093284
 30
0.0
 10
799.037905
 20
1249.826109
 30
0.0
  0
LWPOLYLINE
  5
2d3
100
AcDbEntity
  8
0
 62
7
100
AcDbPolyline
 90
2
 70
0
 10
778.203257
 20
1213.739484
 30
0.0
 10
793.368610
 20
1187.472309
 30
0.0
  0
LWPOLYLINE
  5
2d4
100
AcDbEntity
  8
0
 62
7
100
AcDbPolyline
 90
2
 70
0
 10
806.351651
 20
1193.331459
 30
0.0
 10
810.603619
 20
1185.966834
 30
0.0
  0
LWPOLYLINE
  5
2d5
100
AcDbEntity
  8
0
 62
7
100
AcDbPolyline
 90
2
 70
0
 10
845.951290
 20
1165.558884
 30
0.0
 10
854.455225
 20
1165.558884
 30
0.0
  0
LWPOLYLINE
  5
2d6
100
AcDbEntity
  8
0
 62
7
100
AcDbPolyline
 90
2
 70
0
 10
845.951290
 20
1165.558884
 30
0.0
 10
845.951290
 20
1152.802959
 30
0.0
  0
LWPOLYLINE
  5
2d7
100
AcDbEntity
  8
0
 62
7
100
AcDbPolyline
 90
2
 70
0
 10
854.455225
 20
1165.558884
 30
0.0
 10
854.455225
 20
1152.802959
 30
0.0
  0
LWPOLYLINE
  5
2d8
100
AcDbEntity
  8
0
 62
7
100
AcDbPolyline
 90
2
 70
0
 10
806.351651
 20
1193.331459
 30
0.0
 10
795.304712
 20
1186.953534
 30
0.0
  0
LWPOLYLINE
  5
2d9
100
AcDbEntity
  8
0
 62
7
100
AcDbPolyline
 90
2
 70
0
 10
810.603619
 20
1185.966834
 30
0.0
 10
799.556680
 20
1179.588909
 30
0.0
  0
LWPOLYLINE
  5
2da
100
AcDbEntity
  8
0
 62
7
100
AcDbPolyline
 90
2
 70
0
 10
810.603619
 20
1241.512059
 30
0.0
 10
806.351651
 20
1234.147434
 30
0.0
  0
LWPOLYLINE
  5
2db
100
AcDbEntity
  8
0
 62
7
100
AcDbPolyline
 90
2
 70
0
 10
810.603619
 20
1241.512059
 30
0.0
 10
799.556680
 20
1247.890059
 30
0.0
  0
LWPOLYLINE
  5
2dc
100
AcDbEntity
  8
0
 62
7
100
AcDbPolyline
 90
2
 70
0
 10
806.351651
 20
1234.147434
 30
0.0
 10
795.304712
 20
1240.525434
 30
0.0
  0
LWPOLYLINE
  5
2dd
100
AcDbEntity
  8
0
 62
7
100
AcDbPolyline
 90
2
 70
0
 10
854.455225
 20
1261.920084
 30
0.0
 10
845.951290
 20
1261.920084
 30
0.0
  0
LWPOLYLINE
  5
2de
100
AcDbEntity
  8
0
 62
7
100
AcDbPolyline
 90
2
 70
0
 10
854.455225
 20
1261.920084
 30
0.0
 10
854.455225
 20
1274.675934
 30
0.0
  0
LWPOLYLINE
  5
2df
100
AcDbEntity
  8
0
 62
7
100
AcDbPolyline
 90
2
 70
0
 10
845.951290
 20
1261.920084
 30
0.0
 10
845.951290
 20
1274.675934
 30
0.0
  0
LWPOLYLINE
  5
2e0
100
AcDbEntity
  8
0
 62
7
100
AcDbPolyline
 90
2
 70
0
 10
894.054865
 20
1234.147434
 30
0.0
 10
889.802897
 20
1241.512059
 30
0.0
  0
LWPOLYLINE
  5
2e1
100
AcDbEntity
  8
0
 62
7
100
AcDbPolyline
 90
2
 70
0
 10
894.054865
 20
1234.147434
 30
0.0
 10
905.101802
 20
1240.525434
 30
0.0
  0
LWPOLYLINE
  5
2e2
100
AcDbEntity
  8
0
 62
7
100
AcDbPolyline
 90
2
 70
0
 10
889.802897
 20
1241.512059
 30
0.0
 10
900.849835
 20
1247.890059
 30
0.0
  0
LWPOLYLINE
  5
2e3
100
AcDbEntity
  8
0
 62
7
100
AcDbPolyline
 90
2
 70
0
 10
889.802897
 20
1185.966834
 30
0.0
 10
894.054865
 20
1193.331459
 30
0.0
  0
LWPOLYLINE
  5
2e4
100
AcDbEntity
  8
0
 62
7
100
AcDbPolyline
 90
2
 70
0
 10
889.802897
 20
1185.966834
 30
0.0
 10
900.849835
 20
1179.588909
 30
0.0
  0
LWPOLYLINE
  5
2e5
100
AcDbEntity
  8
0
 62
7
100
AcDbPolyline
 90
2
 70
0
 10
894.054865
 20
1193.331459
 30
0.0
 10
905.101802
 20
1186.953534
 30
0.0
  0
LWPOLYLINE
  5
2e6
100
AcDbEntity
  8
0
 62
7
100
AcDbPolyline
 90
2
 70
0
 10
855.872552
 20
1151.385609
 30
0.0
 10
886.203257
 20
1151.385609
 30
0.0
  0
LWPOLYLINE
  5
2e7
100
AcDbEntity
  8
0
 62
7
100
AcDbPolyline
 90
2
 70
0
 10
901.368610
 20
1249.826109
 30
0.0
 10
886.203257
 20
1276.093284
 30
0.0
  0
LWPOLYLINE
  5
2e8
100
AcDbEntity
  8
0
 62
7
100
AcDbPolyline
 90
2
 70
0
 10
907.037905
 20
1187.472309
 30
0.0
 10
922.203257
 20
1213.739484
 30
0.0
  0
LWPOLYLINE
  5
2e9
100
AcDbEntity
  8
0
 62
7
100
AcDbPolyline
 90
2
 70
0
 10
844.533970
 20
1276.093284
 30
0.0
 10
814.203259
 20
1276.093284
 30
0.0
  0
LWPOLYLINE
  5
2ea
100
AcDbEntity
  8
0
 62
7
100
AcDbPolyline
 90
2
 70
0
 10
793.368610
 20
1240.006659
 30
0.0
 10
778.203257
 20
1213.739484
 30
0.0
  0
LWPOLYLINE
  5
2eb
100
AcDbEntity
  8
0
 62
7
100
AcDbPolyline
 90
2
 70
0
 10
799.037905
 20
1177.652784
 30
0.0
 10
814.203259
 20
1151.385609
 30
0.0
  0
LWPOLYLINE
  5
2ec
100
AcDbEntity
  8
0
 62
7
100
AcDbPolyline
 90
2
 70
0
 10
795.304712
 20
1186.953534
 30
0.0
 10
793.368610
 20
1187.472309
 30
0.0
  0
LWPOLYLINE
  5
2ed
100
AcDbEntity
  8
0
 62
7
100
AcDbPolyline
 90
2
 70
0
 10
795.304712
 20
1240.525434
 30
0.0
 10
793.368610
 20
1240.006659
 30
0.0
  0
LWPOLYLINE
  5
2ee
100
AcDbEntity
  8
0
 62
7
100
AcDbPolyline
 90
2
 70
0
 10
799.037905
 20
1249.826109
 30
0.0
 10
799.556680
 20
1247.890059
 30
0.0
  0
LWPOLYLINE
  5
2ef
100
AcDbEntity
  8
0
 62
7
100
AcDbPolyline
 90
2
 70
0
 10
845.951290
 20
1274.675934
 30
0.0
 10
844.533970
 20
1276.093284
 30
0.0
  0
LWPOLYLINE
  5
2f0
100
AcDbEntity
  8
0
 62
7
100
AcDbPolyline
 90
2
 70
0
 10
854.455225
 20
1274.675934
 30
0.0
 10
855.872552
 20
1276.093284
 30
0.0
  0
LWPOLYLINE
  5
2f1
100
AcDbEntity
  8
0
 62
7
100
AcDbPolyline
 90
2
 70
0
 10
900.849835
 20
1247.890059
 30
0.0
 10
901.368610
 20
1249.826109
 30
0.0
  0
LWPOLYLINE
  5
2f2
100
AcDbEntity
  8
0
 62
7
100
AcDbPolyline
 90
2
 70
0
 10
905.101802
 20
1240.525434
 30
0.0
 10
907.037905
 20
1240.006659
 30
0.0
  0
LWPOLYLINE
  5
2f3
100
AcDbEntity
  8
0
 62
7
100
AcDbPolyline
 90
2
 70
0
 10
905.101802
 20
1186.953534
 30
0.0
 10
907.037905
 20
1187.472309
 30
0.0
  0
LWPOLYLINE
  5
2f4
100
AcDbEntity
  8
0
 62
7
100
AcDbPolyline
 90
2
 70
0
 10
900.849835
 20
1179.588909
 30
0.0
 10
901.368610
 20
1177.652784
 30
0.0
  0
LWPOLYLINE
  5
2f5
100
AcDbEntity
  8
0
 62
7
100
AcDbPolyline
 90
2
 70
0
 10
854.455225
 20
1152.802959
 30
0.0
 10
855.872552
 20
1151.385609
 30
0.0
  0
LWPOLYLINE
  5
2f6
100
AcDbEntity
  8
0
 62
7
100
AcDbPolyline
 90
2
 70
0
 10
845.951290
 20
1152.802959
 30
0.0
 10
844.533970
 20
1151.385609
 30
0.0
  0
LWPOLYLINE
  5
2f7
100
AcDbEntity
  8
0
 62
7
100
AcDbPolyline
 90
2
 70
0
 10
799.556680
 20
1179.588909
 30
0.0
 10
799.037905
 20
1177.652784
 30
0.0
  0
LWPOLYLINE
  5
2f8
100
AcDbEntity
  8
0
 62
7
100
AcDbPolyline
 90
2
 70
0
 10
814.203259
 20
1020.366016
 30
0.0
 10
844.533970
 20
1020.366016
 30
0.0
  0
LWPOLYLINE
  5
2f9
100
AcDbEntity
  8
0
 62
7
100
AcDbPolyline
 90
2
 70
0
 10
886.203257
 20
1020.366016
 30
0.0
 10
901.368610
 20
1046.633191
 30
0.0
  0
LWPOLYLINE
  5
2fa
100
AcDbEntity
  8
0
 62
7
100
AcDbPolyline
 90
2
 70
0
 10
922.203257
 20
1082.719891
 30
0.0
 10
907.037905
 20
1108.987066
 30
0.0
  0
LWPOLYLINE
  5
2fb
100
AcDbEntity
  8
0
 62
7
100
AcDbPolyline
 90
2
 70
0
 10
886.203257
 20
1145.073691
 30
0.0
 10
855.872552
 20
1145.073691
 30
0.0
  0
LWPOLYLINE
  5
2fc
100
AcDbEntity
  8
0
 62
7
100
AcDbPolyline
 90
2
 70
0
 10
814.203259
 20
1145.073691
 30
0.0
 10
799.037905
 20
1118.806516
 30
0.0
  0
LWPOLYLINE
  5
2fd
100
AcDbEntity
  8
0
 62
7
100
AcDbPolyline
 90
2
 70
0
 10
778.203257
 20
1082.719891
 30
0.0
 10
793.368610
 20
1056.452716
 30
0.0
  0
LWPOLYLINE
  5
2fe
100
AcDbEntity
  8
0
 62
7
100
AcDbPolyline
 90
2
 70
0
 10
806.351651
 20
1062.311866
 30
0.0
 10
810.603619
 20
1054.947242
 30
0.0
  0
LWPOLYLINE
  5
2ff
100
AcDbEntity
  8
0
 62
7
100
AcDbPolyline
 90
2
 70
0
 10
845.951290
 20
1034.539291
 30
0.0
 10
854.455225
 20
1034.539291
 30
0.0
  0
LWPOLYLINE
  5
300
100
AcDbEntity
  8
0
 62
7
100
AcDbPolyline
 90
2
 70
0
 10
845.951290
 20
1034.539291
 30
0.0
 10
845.951290
 20
1021.783366
 30
0.0
  0
LWPOLYLINE
  5
301
100
AcDbEntity
  8
0
 62
7
100
AcDbPolyline
 90
2
 70
0
 10
854.455225
 20
1034.539291
 30
0.0
 10
854.455225
 20
1021.783366
 30
0.0
  0
LWPOLYLINE
  5
302
100
AcDbEntity
  8
0
 62
7
100
AcDbPolyline
 90
2
 70
0
 10
806.351651
 20
1062.311866
 30
0.0
 10
795.304712
 20
1055.933941
 30
0.0
  0
LWPOLYLINE
  5
303
100
AcDbEntity
  8
0
 62
7
100
AcDbPolyline
 90
2
 70
0
 10
810.603619
 20
1054.947242
 30
0.0
 10
799.556680
 20
1048.569317
 30
0.0
  0
LWPOLYLINE
  5
304
100
AcDbEntity
  8
0
 62
7
100
AcDbPolyline
 90
2
 70
0
 10
810.603619
 20
1110.492466
 30
0.0
 10
806.351651
 20
1103.127841
 30
0.0
  0
LWPOLYLINE
  5
305
100
AcDbEntity
  8
0
 62
7
100
AcDbPolyline
 90
2
 70
0
 10
810.603619
 20
1110.492466
 30
0.0
 10
799.556680
 20
1116.870467
 30
0.0
  0
LWPOLYLINE
  5
306
100
AcDbEntity
  8
0
 62
7
100
AcDbPolyline
 90
2
 70
0
 10
806.351651
 20
1103.127841
 30
0.0
 10
795.304712
 20
1109.505841
 30
0.0
  0
LWPOLYLINE
  5
307
100
AcDbEntity
  8
0
 62
7
100
AcDbPolyline
 90
2
 70
0
 10
854.455225
 20
1130.900492
 30
0.0
 10
845.951290
 20
1130.900492
 30
0.0
  0
LWPOLYLINE
  5
308
100
AcDbEntity
  8
0
 62
7
100
AcDbPolyline
 90
2
 70
0
 10
854.455225
 20
1130.900492
 30
0.0
 10
854.455225
 20
1143.656341
 30
0.0
  0
LWPOLYLINE
  5
309
100
AcDbEntity
  8
0
 62
7
100
AcDbPolyline
 90
2
 70
0
 10
845.951290
 20
1130.900492
 30
0.0
 10
845.951290
 20
1143.656341
 30
0.0
  0
LWPOLYLINE
  5
30a
100
AcDbEntity
  8
0
 62
7
100
AcDbPolyline
 90
2
 70
0
 10
894.054865
 20
1103.127841
 30
0.0
 10
889.802897
 20
1110.492466
 30
0.0
  0
LWPOLYLINE
  5
30b
100
AcDbEntity
  8
0
 62
7
100
AcDbPolyline
 90
2
 70
0
 10
894.054865
 20
1103.127841
 30
0.0
 10
905.101802
 20
1109.505841
 30
0.0
  0
LWPOLYLINE
  5
30c
100
AcDbEntity
  8
0
 62
7
100
AcDbPolyline
 90
2
 70
0
 10
889.802897
 20
1110.492466
 30
0.0
 10
900.849835
 20
1116.870467
 30
0.0
  0
LWPOLYLINE
  5
30d
100
AcDbEntity
  8
0
 62
7
100
AcDbPolyline
 90
2
 70
0
 10
889.802897
 20
1054.947242
 30
0.0
 10
894.054865
 20
1062.311866
 30
0.0
  0
LWPOLYLINE
  5
30e
100
AcDbEntity
  8
0
 62
7
100
AcDbPolyline
 90
2
 70
0
 10
889.802897
 20
1054.947242
 30
0.0
 10
900.849835
 20
1048.569317
 30
0.0
  0
LWPOLYLINE
  5
30f
100
AcDbEntity
  8
0
 62
7
100
AcDbPolyline
 90
2
 70
0
 10
894.054865
 20
1062.311866
 30
0.0
 10
905.101802
 20
1055.933941
 30
0.0
  0
LWPOLYLINE
  5
310
100
AcDbEntity
  8
0
 62
7
100
AcDbPolyline
 90
2
 70
0
 10
855.872552
 20
1020.366016
 30
0.0
 10
886.203257
 20
1020.366016
 30
0.0
  0
LWPOLYLINE
  5
311
100
AcDbEntity
  8
0
 62
7
100
AcDbPolyline
 90
2
 70
0
 10
901.368610
 20
1118.806516
 30
0.0
 10
886.203257
 20
1145.073691
 30
0.0
  0
LWPOLYLINE
  5
312
100
AcDbEntity
  8
0
 62
7
100
AcDbPolyline
 90
2
 70
0
 10
907.037905
 20
1056.452716
 30
0.0
 10
922.203257
 20
1082.719891
 30
0.0
  0
LWPOLYLINE
  5
313
100
AcDbEntity
  8
0
 62
7
100
AcDbPolyline
 90
2
 70
0
 10
844.533970
 20
1145.073691
 30
0.0
 10
814.203259
 20
1145.073691
 30
0.0
  0
LWPOLYLINE
  5
314
100
AcDbEntity
  8
0
 62
7
100
AcDbPolyline
 90
2
 70
0
 10
793.368610
 20
1108.987066
 30
0.0
 10
778.203257
 20
1082.719891
 30
0.0
  0
LWPOLYLINE
  5
315
100
AcDbEntity
  8
0
 62
7
100
AcDbPolyline
 90
2
 70
0
 10
799.037905
 20
1046.633191
 30
0.0
 10
814.203259
 20
1020.366016
 30
0.0
  0
LWPOLYLINE
  5
316
100
AcDbEntity
  8
0
 62
7
100
AcDbPolyline
 90
2
 70
0
 10
795.304712
 20
1055.933941
 30
0.0
 10
793.368610
 20
1056.452716
 30
0.0
  0
LWPOLYLINE
  5
317
100
AcDbEntity
  8
0
 62
7
100
AcDbPolyline
 90
2
 70
0
 10
795.304712
 20
1109.505841
 30
0.0
 10
793.368610
 20
1108.987066
 30
0.0
  0
LWPOLYLINE
  5
318
100
AcDbEntity
  8
0
 62
7
100
AcDbPolyline
 90
2
 70
0
 10
799.037905
 20
1118.806516
 30
0.0
 10
799.556680
 20
1116.870467
 30
0.0
  0
LWPOLYLINE
  5
319
100
AcDbEntity
  8
0
 62
7
100
AcDbPolyline
 90
2
 70
0
 10
845.951290
 20
1143.656341
 30
0.0
 10
844.533970
 20
1145.073691
 30
0.0
  0
LWPOLYLINE
  5
31a
100
AcDbEntity
  8
0
 62
7
100
AcDbPolyline
 90
2
 70
0
 10
854.455225
 20
1143.656341
 30
0.0
 10
855.872552
 20
1145.073691
 30
0.0
  0
LWPOLYLINE
  5
31b
100
AcDbEntity
  8
0
 62
7
100
AcDbPolyline
 90
2
 70
0
 10
900.849835
 20
1116.870467
 30
0.0
 10
901.368610
 20
1118.806516
 30
0.0
  0
LWPOLYLINE
  5
31c
100
AcDbEntity
  8
0
 62
7
100
AcDbPolyline
 90
2
 70
0
 10
905.101802
 20
1109.505841
 30
0.0
 10
907.037905
 20
1108.987066
 30
0.0
  0
LWPOLYLINE
  5
31d
100
AcDbEntity
  8
0
 62
7
100
AcDbPolyline
 90
2
 70
0
 10
905.101802
 20
1055.933941
 30
0.0
 10
907.037905
 20
1056.452716
 30
0.0
  0
LWPOLYLINE
  5
31e
100
AcDbEntity
  8
0
 62
7
100
AcDbPolyline
 90
2
 70
0
 10
900.849835
 20
1048.569317
 30
0.0
 10
901.368610
 20
1046.633191
 30
0.0
  0
LWPOLYLINE
  5
31f
100
AcDbEntity
  8
0
 62
7
100
AcDbPolyline
 90
2
 70
0
 10
854.455225
 20
1021.783366
 30
0.0
 10
855.872552
 20
1020.366016
 30
0.0
  0
LWPOLYLINE
  5
320
100
AcDbEntity
  8
0
 62
7
100
AcDbPolyline
 90
2
 70
0
 10
845.951290
 20
1021.783366
 30
0.0
 10
844.533970
 20
1020.366016
 30
0.0
  0
LWPOLYLINE
  5
321
100
AcDbEntity
  8
0
 62
7
100
AcDbPolyline
 90
2
 70
0
 10
799.556680
 20
1048.569317
 30
0.0
 10
799.037905
 20
1046.633191
 30
0.0
  0
LWPOLYLINE
  5
322
100
AcDbEntity
  8
0
 62
7
100
AcDbPolyline
 90
2
 70
0
 10
965.479384
 20
1151.385609
 30
0.0
 10
995.810095
 20
1151.385609
 30
0.0
  0
LWPOLYLINE
  5
323
100
AcDbEntity
  8
0
 62
7
100
AcDbPolyline
 90
2
 70
0
 10
1037.479382
 20
1151.385609
 30
0.0
 10
1052.644735
 20
1177.652784
 30
0.0
  0
LWPOLYLINE
  5
324
100
AcDbEntity
  8
0
 62
7
100
AcDbPolyline
 90
2
 70
0
 10
1073.479382
 20
1213.739484
 30
0.0
 10
1058.314030
 20
1240.006659
 30
0.0
  0
LWPOLYLINE
  5
325
100
AcDbEntity
  8
0
 62
7
100
AcDbPolyline
 90
2
 70
0
 10
1037.479382
 20
1276.093284
 30
0.0
 10
1007.148677
 20
1276.093284
 30
0.0
  0
LWPOLYLINE
  5
326
100
AcDbEntity
  8
0
 62
7
100
AcDbPolyline
 90
2
 70
0
 10
965.479384
 20
1276.093284
 30
0.0
 10
950.314030
 20
1249.826109
 30
0.0
  0
LWPOLYLINE
  5
327
100
AcDbEntity
  8
0
 62
7
100
AcDbPolyline
 90
2
 70
0
 10
929.479382
 20
1213.739484
 30
0.0
 10
944.644735
 20
1187.472309
 30
0.0
  0
LWPOLYLINE
  5
328
100
AcDbEntity
  8
0
 62
7
100
AcDbPolyline
 90
2
 70
0
 10
957.627776
 20
1193.331459
 30
0.0
 10
961.879744
 20
1185.966834
 30
0.0
  0
LWPOLYLINE
  5
329
100
AcDbEntity
  8
0
 62
7
100
AcDbPolyline
 90
2
 70
0
 10
997.227415
 20
1165.558884
 30
0.0
 10
1005.731350
 20
1165.558884
 30
0.0
  0
LWPOLYLINE
  5
32a
100
AcDbEntity
  8
0
 62
7
100
AcDbPolyline
 90
2
 70
0
 10
997.227415
 20
1165.558884
 30
0.0
 10
997.227415
 20
1152.802959
 30
0.0
  0
LWPOLYLINE
  5
32b
100
AcDbEntity
  8
0
 62
7
100
AcDbPolyline
 90
2
 70
0
 10
1005.731350
 20
1165.558884
 30
0.0
 10
1005.731350
 20
1152.802959
 30
0.0
  0
LWPOLYLINE
  5
32c
100
AcDbEntity
  8
0
 62
7
100
AcDbPolyline
 90
2
 70
0
 10
957.627776
 20
1193.331459
 30
0.0
 10
946.580837
 20
1186.953534
 30
0.0
  0
LWPOLYLINE
  5
32d
100
AcDbEntity
  8
0
 62
7
100
AcDbPolyline
 90
2
 70
0
 10
961.879744
 20
1185.966834
 30
0.0
 10
950.832805
 20
1179.588909
 30
0.0
  0
LWPOLYLINE
  5
32e
100
AcDbEntity
  8
0
 62
7
100
AcDbPolyline
 90
2
 70
0
 10
961.879744
 20
1241.512059
 30
0.0
 10
957.627776
 20
1234.147434
 30
0.0
  0
LWPOLYLINE
  5
32f
100
AcDbEntity
  8
0
 62
7
100
AcDbPolyline
 90
2
 70
0
 10
961.879744
 20
1241.512059
 30
0.0
 10
950.832805
 20
1247.890059
 30
0.0
  0
LWPOLYLINE
  5
330
100
AcDbEntity
  8
0
 62
7
100
AcDbPolyline
 90
2
 70
0
 10
957.627776
 20
1234.147434
 30
0.0
 10
946.580837
 20
1240.525434
 30
0.0
  0
LWPOLYLINE
  5
331
100
AcDbEntity
  8
0
 62
7
100
AcDbPolyline
 90
2
 70
0
 10
1005.731350
 20
1261.920084
 30
0.0
 10
997.227415
 20
1261.920084
 30
0.0
  0
LWPOLYLINE
  5
332
100
AcDbEntity
  8
0
 62
7
100
AcDbPolyline
 90
2
 70
0
 10
1005.731350
 20
1261.920084
 30
0.0
 10
1005.731350
 20
1274.675934
 30
0.0
  0
LWPOLYLINE
  5
333
100
AcDbEntity
  8
0
 62
7
100
AcDbPolyline
 90
2
 70
0
 10
997.227415
 20
1261.920084
 30
0.0
 10
997.227415
 20
1274.675934
 30
0.0
  0
LWPOLYLINE
  5
334
100
AcDbEntity
  8
0
 62
7
100
AcDbPolyline
 90
2
 70
0
 10
1045.330990
 20
1234.147434
 30
0.0
 10
1041.079022
 20
1241.512059
 30
0.0
  0
LWPOLYLINE
  5
335
100
AcDbEntity
  8
0
 62
7
100
AcDbPolyline
 90
2
 70
0
 10
1045.330990
 20
1234.147434
 30
0.0
 10
1056.377927
 20
1240.525434
 30
0.0
  0
LWPOLYLINE
  5
336
100
AcDbEntity
  8
0
 62
7
100
AcDbPolyline
 90
2
 70
0
 10
1041.079022
 20
1241.512059
 30
0.0
 10
1052.125960
 20
1247.890059
 30
0.0
  0
LWPOLYLINE
  5
337
100
AcDbEntity
  8
0
 62
7
100
AcDbPolyline
 90
2
 70
0
 10
1041.079022
 20
1185.966834
 30
0.0
 10
1045.330990
 20
1193.331459
 30
0.0
  0
LWPOLYLINE
  5
338
100
AcDbEntity
  8
0
 62
7
100
AcDbPolyline
 90
2
 70
0
 10
1041.079022
 20
1185.966834
 30
0.0
 10
1052.125960
 20
1179.588909
 30
0.0
  0
LWPOLYLINE
  5
339
100
AcDbEntity
  8
0
 62
7
100
AcDbPolyline
 90
2
 70
0
 10
1045.330990
 20
1193.331459
 30
0.0
 10
1056.377927
 20
1186.953534
 30
0.0
  0
LWPOLYLINE
  5
33a
100
AcDbEntity
  8
0
 62
7
100
AcDbPolyline
 90
2
 70
0
 10
1007.148677
 20
1151.385609
 30
0.0
 10
1037.479382
 20
1151.385609
 30
0.0
  0
LWPOLYLINE
  5
33b
100
AcDbEntity
  8
0
 62
7
100
AcDbPolyline
 90
2
 70
0
 10
1052.644735
 20
1249.826109
 30
0.0
 10
1037.479382
 20
1276.093284
 30
0.0
  0
LWPOLYLINE
  5
33c
100
AcDbEntity
  8
0
 62
7
100
AcDbPolyline
 90
2
 70
0
 10
1058.314030
 20
1187.472309
 30
0.0
 10
1073.479382
 20
1213.739484
 30
0.0
  0
LWPOLYLINE
  5
33d
100
AcDbEntity
  8
0
 62
7
100
AcDbPolyline
 90
2
 70
0
 10
995.810095
 20
1276.093284
 30
0.0
 10
965.479384
 20
1276.093284
 30
0.0
  0
LWPOLYLINE
  5
33e
100
AcDbEntity
  8
0
 62
7
100
AcDbPolyline
 90
2
 70
0
 10
944.644735
 20
1240.006659
 30
0.0
 10
929.479382
 20
1213.739484
 30
0.0
  0
LWPOLYLINE
  5
33f
100
AcDbEntity
  8
0
 62
7
100
AcDbPolyline
 90
2
 70
0
 10
950.314030
 20
1177.652784
 30
0.0
 10
965.479384
 20
1151.385609
 30
0.0
  0
LWPOLYLINE
  5
340
100
AcDbEntity
  8
0
 62
7
100
AcDbPolyline
 90
2
 70
0
 10
946.580837
 20
1186.953534
 30
0.0
 10
944.644735
 20
1187.472309
 30
0.0
  0
LWPOLYLINE
  5
341
100
AcDbEntity
  8
0
 62
7
100
AcDbPolyline
 90
2
 70
0
 10
946.580837
 20
1240.525434
 30
0.0
 10
944.644735
 20
1240.006659
 30
0.0
  0
LWPOLYLINE
  5
342
100
AcDbEntity
  8
0
 62
7
100
AcDbPolyline
 90
2
 70
0
 10
950.314030
 20
1249.826109
 30
0.0
 10
950.832805
 20
1247.890059
 30
0.0
  0
LWPOLYLINE
  5
343
100
AcDbEntity
  8
0
 62
7
100
AcDbPolyline
 90
2
 70
0
 10
997.227415
 20
1274.675934
 30
0.0
 10
995.810095
 20
1276.093284
 30
0.0
  0
LWPOLYLINE
  5
344
100
AcDbEntity
  8
0
 62
7
100
AcDbPolyline
 90
2
 70
0
 10
1005.731350
 20
1274.675934
 30
0.0
 10
1007.148677
 20
1276.093284
 30
0.0
  0
LWPOLYLINE
  5
345
100
AcDbEntity
  8
0
 62
7
100
AcDbPolyline
 90
2
 70
0
 10
1052.125960
 20
1247.890059
 30
0.0
 10
1052.644735
 20
1249.826109
 30
0.0
  0
LWPOLYLINE
  5
346
100
AcDbEntity
  8
0
 62
7
100
AcDbPolyline
 90
2
 70
0
 10
1056.377927
 20
1240.525434
 30
0.0
 10
1058.314030
 20
1240.006659
 30
0.0
  0
LWPOLYLINE
  5
347
100
AcDbEntity
  8
0
 62
7
100
AcDbPolyline
 90
2
 70
0
 10
1056.377927
 20
1186.953534
 30
0.0
 10
1058.314030
 20
1187.472309
 30
0.0
  0
LWPOLYLINE
  5
348
100
AcDbEntity
  8
0
 62
7
100
AcDbPolyline
 90
2
 70
0
 10
1052.125960
 20
1179.588909
 30
0.0
 10
1052.644735
 20
1177.652784
 30
0.0
  0
LWPOLYLINE
  5
349
100
AcDbEntity
  8
0
 62
7
100
AcDbPolyline
 90
2
 70
0
 10
1005.731350
 20
1152.802959
 30
0.0
 10
1007.148677
 20
1151.385609
 30
0.0
  0
LWPOLYLINE
  5
34a
100
AcDbEntity
  8
0
 62
7
100
AcDbPolyline
 90
2
 70
0
 10
997.227415
 20
1152.802959
 30
0.0
 10
995.810095
 20
1151.385609
 30
0.0
  0
LWPOLYLINE
  5
34b
100
AcDbEntity
  8
0
 62
7
100
AcDbPolyline
 90
2
 70
0
 10
950.832805
 20
1179.588909
 30
0.0
 10
950.314030
 20
1177.652784
 30
0.0
  0
LWPOLYLINE
  5
34c
100
AcDbEntity
  8
0
 62
7
100
AcDbPolyline
 90
2
 70
0
 10
965.479384
 20
1020.366016
 30
0.0
 10
995.810095
 20
1020.366016
 30
0.0
  0
LWPOLYLINE
  5
34d
100
AcDbEntity
  8
0
 62
7
100
AcDbPolyline
 90
2
 70
0
 10
1037.479382
 20
1020.366016
 30
0.0
 10
1052.644735
 20
1046.633191
 30
0.0
  0
LWPOLYLINE
  5
34e
100
AcDbEntity
  8
0
 62
7
100
AcDbPolyline
 90
2
 70
0
 10
1073.479382
 20
1082.719891
 30
0.0
 10
1058.314030
 20
1108.987066
 30
0.0
  0
LWPOLYLINE
  5
34f
100
AcDbEntity
  8
0
 62
7
100
AcDbPolyline
 90
2
 70
0
 10
1037.479382
 20
1145.073691
 30
0.0
 10
1007.148677
 20
1145.073691
 30
0.0
  0
LWPOLYLINE
  5
350
100
AcDbEntity
  8
0
 62
7
100
AcDbPolyline
 90
2
 70
0
 10
965.479384
 20
1145.073691
 30
0.0
 10
950.314030
 20
1118.806516
 30
0.0
  0
LWPOLYLINE
  5
351
100
AcDbEntity
  8
0
 62
7
100
AcDbPolyline
 90
2
 70
0
 10
929.479382
 20
1082.719891
 30
0.0
 10
944.644735
 20
1056.452716
 30
0.0
  0
LWPOLYLINE
  5
352
100
AcDbEntity
  8
0
 62
7
100
AcDbPolyline
 90
2
 70
0
 10
957.627776
 20
1062.311866
 30
0.0
 10
961.879744
 20
1054.947242
 30
0.0
  0
LWPOLYLINE
  5
353
100
AcDbEntity
  8
0
 62
7
100
AcDbPolyline
 90
2
 70
0
 10
997.227415
 20
1034.539291
 30
0.0
 10
1005.731350
 20
1034.539291
 30
0.0
  0
LWPOLYLINE
  5
354
100
AcDbEntity
  8
0
 62
7
100
AcDbPolyline
 90
2
 70
0
 10
997.227415
 20
1034.539291
 30
0.0
 10
997.227415
 20
1021.783366
 30
0.0
  0
LWPOLYLINE
  5
355
100
AcDbEntity
  8
0
 62
7
100
AcDbPolyline
 90
2
 70
0
 10
1005.731350
 20
1034.539291
 30
0.0
 10
1005.731350
 20
1021.783366
 30
0.0
  0
LWPOLYLINE
  5
356
100
AcDbEntity
  8
0
 62
7
100
AcDbPolyline
 90
2
 70
0
 10
957.627776
 20
1062.311866
 30
0.0
 10
946.580837
 20
1055.933941
 30
0.0
  0
LWPOLYLINE
  5
357
100
AcDbEntity
  8
0
 62
7
100
AcDbPolyline
 90
2
 70
0
 10
961.879744
 20
1054.947242
 30
0.0
 10
950.832805
 20
1048.569317
 30
0.0
  0
LWPOLYLINE
  5
358
100
AcDbEntity
  8
0
 62
7
100
AcDbPolyline
 90
2
 70
0
 10
961.879744
 20
1110.492466
 30
0.0
 10
957.627776
 20
1103.127841
 30
0.0
  0
LWPOLYLINE
  5
359
100
AcDbEntity
  8
0
 62
7
100
AcDbPolyline
 90
2
 70
0
 10
961.879744
 20
1110.492466
 30
0.0
 10
950.832805
 20
1116.870467
 30
0.0
  0
LWPOLYLINE
  5
35a
100
AcDbEntity
  8
0
 62
7
100
AcDbPolyline
 90
2
 70
0
 10
957.627776
 20
1103.127841
 30
0.0
 10
946.580837
 20
1109.505841
 30
0.0
  0
LWPOLYLINE
  5
35b
100
AcDbEntity
  8
0
 62
7
100
AcDbPolyline
 90
2
 70
0
 10
1005.731350
 20
1130.900492
 30
0.0
 10
997.227415
 20
1130.900492
 30
0.0
  0
LWPOLYLINE
  5
35c
100
AcDbEntity
  8
0
 62
7
100
AcDbPolyline
 90
2
 70
0
 10
1005.731350
 20
1130.900492
 30
0.0
 10
1005.731350
 20
1143.656341
 30
0.0
  0
LWPOLYLINE
  5
35d
100
AcDbEntity
  8
0
 62
7
100
AcDbPolyline
 90
2
 70
0
 10
997.227415
 20
1130.900492
 30
0.0
 10
997.227415
 20
1143.656341
 30
0.0
  0
LWPOLYLINE
  5
35e
100
AcDbEntity
  8
0
 62
7
100
AcDbPolyline
 90
2
 70
0
 10
1045.330990
 20
1103.127841
 30
0.0
 10
1041.079022
 20
1110.492466
 30
0.0
  0
LWPOLYLINE
  5
35f
100
AcDbEntity
  8
0
 62
7
100
AcDbPolyline
 90
2
 70
0
 10
1045.330990
 20
1103.127841
 30
0.0
 10
1056.377927
 20
1109.505841
 30
0.0
  0
LWPOLYLINE
  5
360
100
AcDbEntity
  8
0
 62
7
100
AcDbPolyline
 90
2
 70
0
 10
1041.079022
 20
1110.492466
 30
0.0
 10
1052.125960
 20
1116.870467
 30
0.0
  0
LWPOLYLINE
  5
361
100
AcDbEntity
  8
0
 62
7
100
AcDbPolyline
 90
2
 70
0
 10
1041.079022
 20
1054.947242
 30
0.0
 10
1045.330990
 20
1062.311866
 30
0.0
  0
LWPOLYLINE
  5
362
100
AcDbEntity
  8
0
 62
7
100
AcDbPolyline
 90
2
 70
0
 10
1041.079022
 20
1054.947242
 30
0.0
 10
1052.125960
 20
1048.569317
 30
0.0
  0
LWPOLYLINE
  5
363
100
AcDbEntity
  8
0
 62
7
100
AcDbPolyline
 90
2
 70
0
 10
1045.330990
 20
1062.311866
 30
0.0
 10
1056.377927
 20
1055.933941
 30
0.0
  0
LWPOLYLINE
  5
364
100
AcDbEntity
  8
0
 62
7
100
AcDbPolyline
 90
2
 70
0
 10
1007.148677
 20
1020.366016
 30
0.0
 10
1037.479382
 20
1020.366016
 30
0.0
  0
LWPOLYLINE
  5
365
100
AcDbEntity
  8
0
 62
7
100
AcDbPolyline
 90
2
 70
0
 10
1052.644735
 20
1118.806516
 30
0.0
 10
1037.479382
 20
1145.073691
 30
0.0
  0
LWPOLYLINE
  5
366
100
AcDbEntity
  8
0
 62
7
100
AcDbPolyline
 90
2
 70
0
 10
1058.314030
 20
1056.452716
 30
0.0
 10
1073.479382
 20
1082.719891
 30
0.0
  0
LWPOLYLINE
  5
367
100
AcDbEntity
  8
0
 62
7
100
AcDbPolyline
 90
2
 70
0
 10
995.810095
 20
1145.073691
 30
0.0
 10
965.479384
 20
1145.073691
 30
0.0
  0
LWPOLYLINE
  5
368
100
AcDbEntity
  8
0
 62
7
100
AcDbPolyline
 90
2
 70
0
 10
944.644735
 20
1108.987066
 30
0.0
 10
929.479382
 20
1082.719891
 30
0.0
  0
LWPOLYLINE
  5
369
100
AcDbEntity
  8
0
 62
7
100
AcDbPolyline
 90
2
 70
0
 10
950.314030
 20
1046.633191
 30
0.0
 10
965.479384
 20
1020.366016
 30
0.0
  0
LWPOLYLINE
  5
36a
100
AcDbEntity
  8
0
 62
7
100
AcDbPolyline
 90
2
 70
0
 10
946.580837
 20
1055.933941
 30
0.0
 10
944.644735
 20
1056.452716
 30
0.0
  0
LWPOLYLINE
  5
36b
100
AcDbEntity
  8
0
 62
7
100
AcDbPolyline
 90
2
 70
0
 10
946.580837
 20
1109.505841
 30
0.0
 10
944.644735
 20
1108.987066
 30
0.0
  0
LWPOLYLINE
  5
36c
100
AcDbEntity
  8
0
 62
7
100
AcDbPolyline
 90
2
 70
0
 10
950.314030
 20
1118.806516
 30
0.0
 10
950.832805
 20
1116.870467
 30
0.0
  0
LWPOLYLINE
  5
36d
100
AcDbEntity
  8
0
 62
7
100
AcDbPolyline
 90
2
 70
0
 10
997.227415
 20
1143.656341
 30
0.0
 10
995.810095
 20
1145.073691
 30
0.0
  0
LWPOLYLINE
  5
36e
100
AcDbEntity
  8
0
 62
7
100
AcDbPolyline
 90
2
 70
0
 10
1005.731350
 20
1143.656341
 30
0.0
 10
1007.148677
 20
1145.073691
 30
0.0
  0
LWPOLYLINE
  5
36f
100
AcDbEntity
  8
0
 62
7
100
AcDbPolyline
 90
2
 70
0
 10
1052.125960
 20
1116.870467
 30
0.0
 10
1052.644735
 20
1118.806516
 30
0.0
  0
LWPOLYLINE
  5
370
100
AcDbEntity
  8
0
 62
7
100
AcDbPolyline
 90
2
 70
0
 10
1056.377927
 20
1109.505841
 30
0.0
 10
1058.314030
 20
1108.987066
 30
0.0
  0
LWPOLYLINE
  5
371
100
AcDbEntity
  8
0
 62
7
100
AcDbPolyline
 90
2
 70
0
 10
1056.377927
 20
1055.933941
 30
0.0
 10
1058.314030
 20
1056.452716
 30
0.0
  0
LWPOLYLINE
  5
372
100
AcDbEntity
  8
0
 62
7
100
AcDbPolyline
 90
2
 70
0
 10
1052.125960
 20
1048.569317
 30
0.0
 10
1052.644735
 20
1046.633191
 30
0.0
  0
LWPOLYLINE
  5
373
100
AcDbEntity
  8
0
 62
7
100
AcDbPolyline
 90
2
 70
0
 10
1005.731350
 20
1021.783366
 30
0.0
 10
1007.148677
 20
1020.366016
 30
0.0
  0
LWPOLYLINE
  5
374
100
AcDbEntity
  8
0
 62
7
100
AcDbPolyline
 90
2
 70
0
 10
997.227415
 20
1021.783366
 30
0.0
 10
995.810095
 20
1020.366016
 30
0.0
  0
LWPOLYLINE
  5
375
100
AcDbEntity
  8
0
 62
7
100
AcDbPolyline
 90
2
 70
0
 10
950.832805
 20
1048.569317
 30
0.0
 10
950.314030
 20
1046.633191
 30
0.0
  0
LWPOLYLINE
  5
376
100
AcDbEntity
  8
0
 62
7
100
AcDbPolyline
 90
2
 70
0
 10
1116.755584
 20
1151.385609
 30
0.0
 10
1147.086295
 20
1151.385609
 30
0.0
  0
LWPOLYLINE
  5
377
100
AcDbEntity
  8
0
 62
7
100
AcDbPolyline
 90
2
 70
0
 10
1188.755582
 20
1151.385609
 30
0.0
 10
1203.920935
 20
1177.652784
 30
0.0
  0
LWPOLYLINE
  5
378
100
AcDbEntity
  8
0
 62
7
100
AcDbPolyline
 90
2
 70
0
 10
1224.755582
 20
1213.739484
 30
0.0
 10
1209.590230
 20
1240.006659
 30
0.0
  0
LWPOLYLINE
  5
379
100
AcDbEntity
  8
0
 62
7
100
AcDbPolyline
 90
2
 70
0
 10
1188.755582
 20
1276.093284
 30
0.0
 10
1158.424877
 20
1276.093284
 30
0.0
  0
LWPOLYLINE
  5
37a
100
AcDbEntity
  8
0
 62
7
100
AcDbPolyline
 90
2
 70
0
 10
1116.755584
 20
1276.093284
 30
0.0
 10
1101.590230
 20
1249.826109
 30
0.0
  0
LWPOLYLINE
  5
37b
100
AcDbEntity
  8
0
 62
7
100
AcDbPolyline
 90
2
 70
0
 10
1080.755582
 20
1213.739484
 30
0.0
 10
1095.920935
 20
1187.472309
 30
0.0
  0
LWPOLYLINE
  5
37c
100
AcDbEntity
  8
0
 62
7
100
AcDbPolyline
 90
2
 70
0
 10
1108.903975
 20
1193.331459
 30
0.0
 10
1113.155944
 20
1185.966834
 30
0.0
  0
LWPOLYLINE
  5
37d
100
AcDbEntity
  8
0
 62
7
100
AcDbPolyline
 90
2
 70
0
 10
1148.503615
 20
1165.558884
 30
0.0
 10
1157.007550
 20
1165.558884
 30
0.0
  0
LWPOLYLINE
  5
37e
100
AcDbEntity
  8
0
 62
7
100
AcDbPolyline
 90
2
 70
0
 10
1148.503615
 20
1165.558884
 30
0.0
 10
1148.503615
 20
1152.802959
 30
0.0
  0
LWPOLYLINE
  5
37f
100
AcDbEntity
  8
0
 62
7
100
AcDbPolyline
 90
2
 70
0
 10
1157.007550
 20
1165.558884
 30
0.0
 10
1157.007550
 20
1152.802959
 30
0.0
  0
LWPOLYLINE
  5
380
100
AcDbEntity
  8
0
 62
7
100
AcDbPolyline
 90
2
 70
0
 10
1108.903975
 20
1193.331459
 30
0.0
 10
1097.857037
 20
1186.953534
 30
0.0
  0
LWPOLYLINE
  5
381
100
AcDbEntity
  8
0
 62
7
100
AcDbPolyline
 90
2
 70
0
 10
1113.155944
 20
1185.966834
 30
0.0
 10
1102.109005
 20
1179.588909
 30
0.0
  0
LWPOLYLINE
  5
382
100
AcDbEntity
  8
0
 62
7
100
AcDbPolyline
 90
2
 70
0
 10
1113.155944
 20
1241.512059
 30
0.0
 10
1108.903975
 20
1234.147434
 30
0.0
  0
LWPOLYLINE
  5
383
100
AcDbEntity
  8
0
 62
7
100
AcDbPolyline
 90
2
 70
0
 10
1113.155944
 20
1241.512059
 30
0.0
 10
1102.109005
 20
1247.890059
 30
0.0
  0
LWPOLYLINE
  5
384
100
AcDbEntity
  8
0
 62
7
100
AcDbPolyline
 90
2
 70
0
 10
1108.903975
 20
1234.147434
 30
0.0
 10
1097.857037
 20
1240.525434
 30
0.0
  0
LWPOLYLINE
  5
385
100
AcDbEntity
  8
0
 62
7
100
AcDbPolyline
 90
2
 70
0
 10
1157.007550
 20
1261.920084
 30
0.0
 10
1148.503615
 20
1261.920084
 30
0.0
  0
LWPOLYLINE
  5
386
100
AcDbEntity
  8
0
 62
7
100
AcDbPolyline
 90
2
 70
0
 10
1157.007550
 20
1261.920084
 30
0.0
 10
1157.007550
 20
1274.675934
 30
0.0
  0
LWPOLYLINE
  5
387
100
AcDbEntity
  8
0
 62
7
100
AcDbPolyline
 90
2
 70
0
 10
1148.503615
 20
1261.920084
 30
0.0
 10
1148.503615
 20
1274.675934
 30
0.0
  0
LWPOLYLINE
  5
388
100
AcDbEntity
  8
0
 62
7
100
AcDbPolyline
 90
2
 70
0
 10
1196.607190
 20
1234.147434
 30
0.0
 10
1192.355222
 20
1241.512059
 30
0.0
  0
LWPOLYLINE
  5
389
100
AcDbEntity
  8
0
 62
7
100
AcDbPolyline
 90
2
 70
0
 10
1196.607190
 20
1234.147434
 30
0.0
 10
1207.654127
 20
1240.525434
 30
0.0
  0
LWPOLYLINE
  5
38a
100
AcDbEntity
  8
0
 62
7
100
AcDbPolyline
 90
2
 70
0
 10
1192.355222
 20
1241.512059
 30
0.0
 10
1203.402160
 20
1247.890059
 30
0.0
  0
LWPOLYLINE
  5
38b
100
AcDbEntity
  8
0
 62
7
100
AcDbPolyline
 90
2
 70
0
 10
1192.355222
 20
1185.966834
 30
0.0
 10
1196.607190
 20
1193.331459
 30
0.0
  0
LWPOLYLINE
  5
38c
100
AcDbEntity
  8
0
 62
7
100
AcDbPolyline
 90
2
 70
0
 10
1192.355222
 20
1185.966834
 30
0.0
 10
1203.402160
 20
1179.588909
 30
0.0
  0
LWPOLYLINE
  5
38d
100
AcDbEntity
  8
0
 62
7
100
AcDbPolyline
 90
2
 70
0
 10
1196.607190
 20
1193.331459
 30
0.0
 10
1207.654127
 20
1186.953534
 30
0.0
  0
LWPOLYLINE
  5
38e
100
AcDbEntity
  8
0
 62
7
100
AcDbPolyline
 90
2
 70
0
 10
1158.424877
 20
1151.385609
 30
0.0
 10
1188.755582
 20
1151.385609
 30
0.0
  0
LWPOLYLINE
  5
38f
100
AcDbEntity
  8
0
 62
7
100
AcDbPolyline
 90
2
 70
0
 10
1203.920935
 20
1249.826109
 30
0.0
 10
1188.755582
 20
1276.093284
 30
0.0
  0
LWPOLYLINE
  5
390
100
AcDbEntity
  8
0
 62
7
100
AcDbPolyline
 90
2
 70
0
 10
1209.590230
 20
1187.472309
 30
0.0
 10
1224.755582
 20
1213.739484
 30
0.0
  0
LWPOLYLINE
  5
391
100
AcDbEntity
  8
0
 62
7
100
AcDbPolyline
 90
2
 70
0
 10
1147.086295
 20
1276.093284
 30
0.0
 10
1116.755584
 20
1276.093284
 30
0.0
  0
LWPOLYLINE
  5
392
100
AcDbEntity
  8
0
 62
7
100
AcDbPolyline
 90
2
 70
0
 10
1095.920935
 20
1240.006659
 30
0.0
 10
1080.755582
 20
1213.739484
 30
0.0
  0
LWPOLYLINE
  5
393
100
AcDbEntity
  8
0
 62
7
100
AcDbPolyline
 90
2
 70
0
 10
1101.590230
 20
1177.652784
 30
0.0
 10
1116.755584
 20
1151.385609
 30
0.0
  0
LWPOLYLINE
  5
394
100
AcDbEntity
  8
0
 62
7
100
AcDbPolyline
 90
2
 70
0
 10
1097.857037
 20
1186.953534
 30
0.0
 10
1095.920935
 20
1187.472309
 30
0.0
  0
LWPOLYLINE
  5
395
100
AcDbEntity
  8
0
 62
7
100
AcDbPolyline
 90
2
 70
0
 10
1097.857037
 20
1240.525434
 30
0.0
 10
1095.920935
 20
1240.006659
 30
0.0
  0
LWPOLYLINE
  5
396
100
AcDbEntity
  8
0
 62
7
100
AcDbPolyline
 90
2
 70
0
 10
1101.590230
 20
1249.826109
 30
0.0
 10
1102.109005
 20
1247.890059
 30
0.0
  0
LWPOLYLINE
  5
397
100
AcDbEntity
  8
0
 62
7
100
AcDbPolyline
 90
2
 70
0
 10
1148.503615
 20
1274.675934
 30
0.0
 10
1147.086295
 20
1276.093284
 30
0.0
  0
LWPOLYLINE
  5
398
100
AcDbEntity
  8
0
 62
7
100
AcDbPolyline
 90
2
 70
0
 10
1157.007550
 20
1274.675934
 30
0.0
 10
1158.424877
 20
1276.093284
 30
0.0
  0
LWPOLYLINE
  5
399
100
AcDbEntity
  8
0
 62
7
100
AcDbPolyline
 90
2
 70
0
 10
1203.402160
 20
1247.890059
 30
0.0
 10
1203.920935
 20
1249.826109
 30
0.0
  0
LWPOLYLINE
  5
39a
100
AcDbEntity
  8
0
 62
7
100
AcDbPolyline
 90
2
 70
0
 10
1207.654127
 20
1240.525434
 30
0.0
 10
1209.590230
 20
1240.006659
 30
0.0
  0
LWPOLYLINE
  5
39b
100
AcDbEntity
  8
0
 62
7
100
AcDbPolyline
 90
2
 70
0
 10
1207.654127
 20
1186.953534
 30
0.0
 10
1209.590230
 20
1187.472309
 30
0.0
  0
LWPOLYLINE
  5
39c
100
AcDbEntity
  8
0
 62
7
100
AcDbPolyline
 90
2
 70
0
 10
1203.402160
 20
1179.588909
 30
0.0
 10
1203.920935
 20
1177.652784
 30
0.0
  0
LWPOLYLINE
  5
39d
100
AcDbEntity
  8
0
 62
7
100
AcDbPolyline
 90
2
 70
0
 10
1157.007550
 20
1152.802959
 30
0.0
 10
1158.424877
 20
1151.385609
 30
0.0
  0
LWPOLYLINE
  5
39e
100
AcDbEntity
  8
0
 62
7
100
AcDbPolyline
 90
2
 70
0
 10
1148.503615
 20
1152.802959
 30
0.0
 10
1147.086295
 20
1151.385609
 30
0.0
  0
LWPOLYLINE
  5
39f
100
AcDbEntity
  8
0
 62
7
100
AcDbPolyline
 90
2
 70
0
 10
1102.109005
 20
1179.588909
 30
0.0
 10
1101.590230
 20
1177.652784
 30
0.0
  0
LWPOLYLINE
  5
3a0
100
AcDbEntity
  8
0
 62
7
100
AcDbPolyline
 90
2
 70
0
 10
1116.755584
 20
1020.366016
 30
0.0
 10
1147.086295
 20
1020.366016
 30
0.0
  0
LWPOLYLINE
  5
3a1
100
AcDbEntity
  8
0
 62
7
100
AcDbPolyline
 90
2
 70
0
 10
1188.755582
 20
1020.366016
 30
0.0
 10
1203.920935
 20
1046.633191
 30
0.0
  0
LWPOLYLINE
  5
3a2
100
AcDbEntity
  8
0
 62
7
100
AcDbPolyline
 90
2
 70
0
 10
1224.755582
 20
1082.719891
 30
0.0
 10
1209.590230
 20
1108.987066
 30
0.0
  0
LWPOLYLINE
  5
3a3
100
AcDbEntity
  8
0
 62
7
100
AcDbPolyline
 90
2
 70
0
 10
1188.755582
 20
1145.073691
 30
0.0
 10
1158.424877
 20
1145.073691
 30
0.0
  0
LWPOLYLINE
  5
3a4
100
AcDbEntity
  8
0
 62
7
100
AcDbPolyline
 90
2
 70
0
 10
1116.755584
 20
1145.073691
 30
0.0
 10
1101.590230
 20
1118.806516
 30
0.0
  0
LWPOLYLINE
  5
3a5
100
AcDbEntity
  8
0
 62
7
100
AcDbPolyline
 90
2
 70
0
 10
1080.755582
 20
1082.719891
 30
0.0
 10
1095.920935
 20
1056.452716
 30
0.0
  0
LWPOLYLINE
  5
3a6
100
AcDbEntity
  8
0
 62
7
100
AcDbPolyline
 90
2
 70
0
 10
1108.903975
 20
1062.311866
 30
0.0
 10
1113.155944
 20
1054.947242
 30
0.0
  0
LWPOLYLINE
  5
3a7
100
AcDbEntity
  8
0
 62
7
100
AcDbPolyline
 90
2
 70
0
 10
1148.503615
 20
1034.539291
 30
0.0
 10
1157.007550
 20
1034.539291
 30
0.0
  0
LWPOLYLINE
  5
3a8
100
AcDbEntity
  8
0
 62
7
100
AcDbPolyline
 90
2
 70
0
 10
1148.503615
 20
1034.539291
 30
0.0
 10
1148.503615
 20
1021.783366
 30
0.0
  0
LWPOLYLINE
  5
3a9
100
AcDbEntity
  8
0
 62
7
100
AcDbPolyline
 90
2
 70
0
 10
1157.007550
 20
1034.539291
 30
0.0
 10
1157.007550
 20
1021.783366
 30
0.0
  0
LWPOLYLINE
  5
3aa
100
AcDbEntity
  8
0
 62
7
100
AcDbPolyline
 90
2
 70
0
 10
1108.903975
 20
1062.311866
 30
0.0
 10
1097.857037
 20
1055.933941
 30
0.0
  0
LWPOLYLINE
  5
3ab
100
AcDbEntity
  8
0
 62
7
100
AcDbPolyline
 90
2
 70
0
 10
1113.155944
 20
1054.947242
 30
0.0
 10
1102.109005
 20
1048.569317
 30
0.0
  0
LWPOLYLINE
  5
3ac
100
AcDbEntity
  8
0
 62
7
100
AcDbPolyline
 90
2
 70
0
 10
1113.155944
 20
1110.492466
 30
0.0
 10
1108.903975
 20
1103.127841
 30
0.0
  0
LWPOLYLINE
  5
3ad
100
AcDbEntity
  8
0
 62
7
100
AcDbPolyline
 90
2
 70
0
 10
1113.155944
 20
1110.492466
 30
0.0
 10
1102.109005
 20
1116.870467
 30
0.0
  0
LWPOLYLINE
  5
3ae
100
AcDbEntity
  8
0
 62
7
100
AcDbPolyline
 90
2
 70
0
 10
1108.903975
 20
1103.127841
 30
0.0
 10
1097.857037
 20
1109.505841
 30
0.0
  0
LWPOLYLINE
  5
3af
100
AcDbEntity
  8
0
 62
7
100
AcDbPolyline
 90
2
 70
0
 10
1157.007550
 20
1130.900492
 30
0.0
 10
1148.503615
 20
1130.900492
 30
0.0
  0
LWPOLYLINE
  5
3b0
100
AcDbEntity
  8
0
 62
7
100
AcDbPolyline
 90
2
 70
0
 10
1157.007550
 20
1130.900492
 30
0.0
 10
1157.007550
 20
1143.656341
 30
0.0
  0
LWPOLYLINE
  5
3b1
100
AcDbEntity
  8
0
 62
7
100
AcDbPolyline
 90
2
 70
0
 10
1148.503615
 20
1130.900492
 30
0.0
 10
1148.503615
 20
1143.656341
 30
0.0
  0
LWPOLYLINE
  5
3b2
100
AcDbEntity
  8
0
 62
7
100
AcDbPolyline
 90
2
 70
0
 10
1196.607190
 20
1103.127841
 30
0.0
 10
1192.355222
 20
1110.492466
 30
0.0
  0
LWPOLYLINE
  5
3b3
100
AcDbEntity
  8
0
 62
7
100
AcDbPolyline
 90
2
 70
0
 10
1196.607190
 20
1103.127841
 30
0.0
 10
1207.654127
 20
1109.505841
 30
0.0
  0
LWPOLYLINE
  5
3b4
100
AcDbEntity
  8
0
 62
7
100
AcDbPolyline
 90
2
 70
0
 10
1192.355222
 20
1110.492466
 30
0.0
 10
1203.402160
 20
1116.870467
 30
0.0
  0
LWPOLYLINE
  5
3b5
100
AcDbEntity
  8
0
 62
7
100
AcDbPolyline
 90
2
 70
0
 10
1192.355222
 20
1054.947242
 30
0.0
 10
1196.607190
 20
1062.311866
 30
0.0
  0
LWPOLYLINE
  5
3b6
100
AcDbEntity
  8
0
 62
7
100
AcDbPolyline
 90
2
 70
0
 10
1192.355222
 20
1054.947242
 30
0.0
 10
1203.402160
 20
1048.569317
 30
0.0
  0
LWPOLYLINE
  5
3b7
100
AcDbEntity
  8
0
 62
7
100
AcDbPolyline
 90
2
 70
0
 10
1196.607190
 20
1062.311866
 30
0.0
 10
1207.654127
 20
1055.933941
 30
0.0
  0
LWPOLYLINE
  5
3b8
100
AcDbEntity
  8
0
 62
7
100
AcDbPolyline
 90
2
 70
0
 10
1158.424877
 20
1020.366016
 30
0.0
 10
1188.755582
 20
1020.366016
 30
0.0
  0
LWPOLYLINE
  5
3b9
100
AcDbEntity
  8
0
 62
7
100
AcDbPolyline
 90
2
 70
0
 10
1203.920935
 20
1118.806516
 30
0.0
 10
1188.755582
 20
1145.073691
 30
0.0
  0
LWPOLYLINE
  5
3ba
100
AcDbEntity
  8
0
 62
7
100
AcDbPolyline
 90
2
 70
0
 10
1209.590230
 20
1056.452716
 30
0.0
 10
1224.755582
 20
1082.719891
 30
0.0
  0
LWPOLYLINE
  5
3bb
100
AcDbEntity
  8
0
 62
7
100
AcDbPolyline
 90
2
 70
0
 10
1147.086295
 20
1145.073691
 30
0.0
 10
1116.755584
 20
1145.073691
 30
0.0
  0
LWPOLYLINE
  5
3bc
100
AcDbEntity
  8
0
 62
7
100
AcDbPolyline
 90
2
 70
0
 10
1095.920935
 20
1108.987066
 30
0.0
 10
1080.755582
 20
1082.719891
 30
0.0
  0
LWPOLYLINE
  5
3bd
100
AcDbEntity
  8
0
 62
7
100
AcDbPolyline
 90
2
 70
0
 10
1101.590230
 20
1046.633191
 30
0.0
 10
1116.755584
 20
1020.366016
 30
0.0
  0
LWPOLYLINE
  5
3be
100
AcDbEntity
  8
0
 62
7
100
AcDbPolyline
 90
2
 70
0
 10
1097.857037
 20
1055.933941
 30
0.0
 10
1095.920935
 20
1056.452716
 30
0.0
  0
LWPOLYLINE
  5
3bf
100
AcDbEntity
  8
0
 62
7
100
AcDbPolyline
 90
2
 70
0
 10
1097.857037
 20
1109.505841
 30
0.0
 10
1095.920935
 20
1108.987066
 30
0.0
  0
LWPOLYLINE
  5
3c0
100
AcDbEntity
  8
0
 62
7
100
AcDbPolyline
 90
2
 70
0
 10
1101.590230
 20
1118.806516
 30
0.0
 10
1102.109005
 20
1116.870467
 30
0.0
  0
LWPOLYLINE
  5
3c1
100
AcDbEntity
  8
0
 62
7
100
AcDbPolyline
 90
2
 70
0
 10
1148.503615
 20
1143.656341
 30
0.0
 10
1147.086295
 20
1145.073691
 30
0.0
  0
LWPOLYLINE
  5
3c2
100
AcDbEntity
  8
0
 62
7
100
AcDbPolyline
 90
2
 70
0
 10
1157.007550
 20
1143.656341
 30
0.0
 10
1158.424877
 20
1145.073691
 30
0.0
  0
LWPOLYLINE
  5
3c3
100
AcDbEntity
  8
0
 62
7
100
AcDbPolyline
 90
2
 70
0
 10
1203.402160
 20
1116.870467
 30
0.0
 10
1203.920935
 20
1118.806516
 30
0.0
  0
LWPOLYLINE
  5
3c4
100
AcDbEntity
  8
0
 62
7
100
AcDbPolyline
 90
2
 70
0
 10
1207.654127
 20
1109.505841
 30
0.0
 10
1209.590230
 20
1108.987066
 30
0.0
  0
LWPOLYLINE
  5
3c5
100
AcDbEntity
  8
0
 62
7
100
AcDbPolyline
 90
2
 70
0
 10
1207.654127
 20
1055.933941
 30
0.0
 10
1209.590230
 20
1056.452716
 30
0.0
  0
LWPOLYLINE
  5
3c6
100
AcDbEntity
  8
0
 62
7
100
AcDbPolyline
 90
2
 70
0
 10
1203.402160
 20
1048.569317
 30
0.0
 10
1203.920935
 20
1046.633191
 30
0.0
  0
LWPOLYLINE
  5
3c7
100
AcDbEntity
  8
0
 62
7
100
AcDbPolyline
 90
2
 70
0
 10
1157.007550
 20
1021.783366
 30
0.0
 10
1158.424877
 20
1020.366016
 30
0.0
  0
LWPOLYLINE
  5
3c8
100
AcDbEntity
  8
0
 62
7
100
AcDbPolyline
 90
2
 70
0
 10
1148.503615
 20
1021.783366
 30
0.0
 10
1147.086295
 20
1020.366016
 30
0.0
  0
LWPOLYLINE
  5
3c9
100
AcDbEntity
  8
0
 62
7
100
AcDbPolyline
 90
2
 70
0
 10
1102.109005
 20
1048.569317
 30
0.0
 10
1101.590230
 20
1046.633191
 30
0.0
  0
LWPOLYLINE
  5
3ca
100
AcDbEntity
  8
0
 62
7
100
AcDbPolyline
 90
2
 70
0
 10
1268.031709
 20
1151.385609
 30
0.0
 10
1298.362420
 20
1151.385609
 30
0.0
  0
LWPOLYLINE
  5
3cb
100
AcDbEntity
  8
0
 62
7
100
AcDbPolyline
 90
2
 70
0
 10
1340.031707
 20
1151.385609
 30
0.0
 10
1355.197060
 20
1177.652784
 30
0.0
  0
LWPOLYLINE
  5
3cc
100
AcDbEntity
  8
0
 62
7
100
AcDbPolyline
 90
2
 70
0
 10
1376.031707
 20
1213.739484
 30
0.0
 10
1360.866355
 20
1240.006659
 30
0.0
  0
LWPOLYLINE
  5
3cd
100
AcDbEntity
  8
0
 62
7
100
AcDbPolyline
 90
2
 70
0
 10
1340.031707
 20
1276.093284
 30
0.0
 10
1309.701002
 20
1276.093284
 30
0.0
  0
LWPOLYLINE
  5
3ce
100
AcDbEntity
  8
0
 62
7
100
AcDbPolyline
 90
2
 70
0
 10
1268.031709
 20
1276.093284
 30
0.0
 10
1252.866355
 20
1249.826109
 30
0.0
  0
LWPOLYLINE
  5
3cf
100
AcDbEntity
  8
0
 62
7
100
AcDbPolyline
 90
2
 70
0
 10
1232.031707
 20
1213.739484
 30
0.0
 10
1247.197060
 20
1187.472309
 30
0.0
  0
LWPOLYLINE
  5
3d0
100
AcDbEntity
  8
0
 62
7
100
AcDbPolyline
 90
2
 70
0
 10
1260.180100
 20
1193.331459
 30
0.0
 10
1264.432069
 20
1185.966834
 30
0.0
  0
LWPOLYLINE
  5
3d1
100
AcDbEntity
  8
0
 62
7
100
AcDbPolyline
 90
2
 70
0
 10
1299.779740
 20
1165.558884
 30
0.0
 10
1308.283675
 20
1165.558884
 30
0.0
  0
LWPOLYLINE
  5
3d2
100
AcDbEntity
  8
0
 62
7
100
AcDbPolyline
 90
2
 70
0
 10
1299.779740
 20
1165.558884
 30
0.0
 10
1299.779740
 20
1152.802959
 30
0.0
  0
LWPOLYLINE
  5
3d3
100
AcDbEntity
  8
0
 62
7
100
AcDbPolyline
 90
2
 70
0
 10
1308.283675
 20
1165.558884
 30
0.0
 10
1308.283675
 20
1152.802959
 30
0.0
  0
LWPOLYLINE
  5
3d4
100
AcDbEntity
  8
0
 62
7
100
AcDbPolyline
 90
2
 70
0
 10
1260.180100
 20
1193.331459
 30
0.0
 10
1249.133162
 20
1186.953534
 30
0.0
  0
LWPOLYLINE
  5
3d5
100
AcDbEntity
  8
0
 62
7
100
AcDbPolyline
 90
2
 70
0
 10
1264.432069
 20
1185.966834
 30
0.0
 10
1253.385130
 20
1179.588909
 30
0.0
  0
LWPOLYLINE
  5
3d6
100
AcDbEntity
  8
0
 62
7
100
AcDbPolyline
 90
2
 70
0
 10
1264.432069
 20
1241.512059
 30
0.0
 10
1260.180100
 20
1234.147434
 30
0.0
  0
LWPOLYLINE
  5
3d7
100
AcDbEntity
  8
0
 62
7
100
AcDbPolyline
 90
2
 70
0
 10
1264.432069
 20
1241.512059
 30
0.0
 10
1253.385130
 20
1247.890059
 30
0.0
  0
LWPOLYLINE
  5
3d8
100
AcDbEntity
  8
0
 62
7
100
AcDbPolyline
 90
2
 70
0
 10
1260.180100
 20
1234.147434
 30
0.0
 10
1249.133162
 20
1240.525434
 30
0.0
  0
LWPOLYLINE
  5
3d9
100
AcDbEntity
  8
0
 62
7
100
AcDbPolyline
 90
2
 70
0
 10
1308.283675
 20
1261.920084
 30
0.0
 10
1299.779740
 20
1261.920084
 30
0.0
  0
LWPOLYLINE
  5
3da
100
AcDbEntity
  8
0
 62
7
100
AcDbPolyline
 90
2
 70
0
 10
1308.283675
 20
1261.920084
 30
0.0
 10
1308.283675
 20
1274.675934
 30
0.0
  0
LWPOLYLINE
  5
3db
100
AcDbEntity
  8
0
 62
7
100
AcDbPolyline
 90
2
 70
0
 10
1299.779740
 20
1261.920084
 30
0.0
 10
1299.779740
 20
1274.675934
 30
0.0
  0
LWPOLYLINE
  5
3dc
100
AcDbEntity
  8
0
 62
7
100
AcDbPolyline
 90
2
 70
0
 10
1347.883315
 20
1234.147434
 30
0.0
 10
1343.631347
 20
1241.512059
 30
0.0
  0
LWPOLYLINE
  5
3dd
100
AcDbEntity
  8
0
 62
7
100
AcDbPolyline
 90
2
 70
0
 10
1347.883315
 20
1234.147434
 30
0.0
 10
1358.930252
 20
1240.525434
 30
0.0
  0
LWPOLYLINE
  5
3de
100
AcDbEntity
  8
0
 62
7
100
AcDbPolyline
 90
2
 70
0
 10
1343.631347
 20
1241.512059
 30
0.0
 10
1354.678285
 20
1247.890059
 30
0.0
  0
LWPOLYLINE
  5
3df
100
AcDbEntity
  8
0
 62
7
100
AcDbPolyline
 90
2
 70
0
 10
1343.631347
 20
1185.966834
 30
0.0
 10
1347.883315
 20
1193.331459
 30
0.0
  0
LWPOLYLINE
  5
3e0
100
AcDbEntity
  8
0
 62
7
100
AcDbPolyline
 90
2
 70
0
 10
1343.631347
 20
1185.966834
 30
0.0
 10
1354.678285
 20
1179.588909
 30
0.0
  0
LWPOLYLINE
  5
3e1
100
AcDbEntity
  8
0
 62
7
100
AcDbPolyline
 90
2
 70
0
 10
1347.883315
 20
1193.331459
 30
0.0
 10
1358.930252
 20
1186.953534
 30
0.0
  0
LWPOLYLINE
  5
3e2
100
AcDbEntity
  8
0
 62
7
100
AcDbPolyline
 90
2
 70
0
 10
1309.701002
 20
1151.385609
 30
0.0
 10
1340.031707
 20
1151.385609
 30
0.0
  0
LWPOLYLINE
  5
3e3
100
AcDbEntity
  8
0
 62
7
100
AcDbPolyline
 90
2
 70
0
 10
1355.197060
 20
1249.826109
 30
0.0
 10
1340.031707
 20
1276.093284
 30
0.0
  0
LWPOLYLINE
  5
3e4
100
AcDbEntity
  8
0
 62
7
100
AcDbPolyline
 90
2
 70
0
 10
1360.866355
 20
1187.472309
 30
0.0
 10
1376.031707
 20
1213.739484
 30
0.0
  0
LWPOLYLINE
  5
3e5
100
AcDbEntity
  8
0
 62
7
100
AcDbPolyline
 90
2
 70
0
 10
1298.362420
 20
1276.093284
 30
0.0
 10
1268.031709
 20
1276.093284
 30
0.0
  0
LWPOLYLINE
  5
3e6
100
AcDbEntity
  8
0
 62
7
100
AcDbPolyline
 90
2
 70
0
 10
1247.197060
 20
1240.006659
 30
0.0
 10
1232.031707
 20
1213.739484
 30
0.0
  0
LWPOLYLINE
  5
3e7
100
AcDbEntity
  8
0
 62
7
100
AcDbPolyline
 90
2
 70
0
 10
1252.866355
 20
1177.652784
 30
0.0
 10
1268.031709
 20
1151.385609
 30
0.0
  0
LWPOLYLINE
  5
3e8
100
AcDbEntity
  8
0
 62
7
100
AcDbPolyline
 90
2
 70
0
 10
1249.133162
 20
1186.953534
 30
0.0
 10
1247.197060
 20
1187.472309
 30
0.0
  0
LWPOLYLINE
  5
3e9
100
AcDbEntity
  8
0
 62
7
100
AcDbPolyline
 90
2
 70
0
 10
1249.133162
 20
1240.525434
 30
0.0
 10
1247.197060
 20
1240.006659
 30
0.0
  0
LWPOLYLINE
  5
3ea
100
AcDbEntity
  8
0
 62
7
100
AcDbPolyline
 90
2
 70
0
 10
1252.866355
 20
1249.826109
 30
0.0
 10
1253.385130
 20
1247.890059
 30
0.0
  0
LWPOLYLINE
  5
3eb
100
AcDbEntity
  8
0
 62
7
100
AcDbPolyline
 90
2
 70
0
 10
1299.779740
 20
1274.675934
 30
0.0
 10
1298.362420
 20
1276.093284
 30
0.0
  0
LWPOLYLINE
  5
3ec
100
AcDbEntity
  8
0
 62
7
100
AcDbPolyline
 90
2
 70
0
 10
1308.283675
 20
1274.675934
 30
0.0
 10
1309.701002
 20
1276.093284
 30
0.0
  0
LWPOLYLINE
  5
3ed
100
AcDbEntity
  8
0
 62
7
100
AcDbPolyline
 90
2
 70
0
 10
1354.678285
 20
1247.890059
 30
0.0
 10
1355.197060
 20
1249.826109
 30
0.0
  0
LWPOLYLINE
  5
3ee
100
AcDbEntity
  8
0
 62
7
100
AcDbPolyline
 90
2
 70
0
 10
1358.930252
 20
1240.525434
 30
0.0
 10
1360.866355
 20
1240.006659
 30
0.0
  0
LWPOLYLINE
  5
3ef
100
AcDbEntity
  8
0
 62
7
100
AcDbPolyline
 90
2
 70
0
 10
1358.930252
 20
1186.953534
 30
0.0
 10
1360.866355
 20
1187.472309
 30
0.0
  0
LWPOLYLINE
  5
3f0
100
AcDbEntity
  8
0
 62
7
100
AcDbPolyline
 90
2
 70
0
 10
1354.678285
 20
1179.588909
 30
0.0
 10
1355.197060
 20
1177.652784
 30
0.0
  0
LWPOLYLINE
  5
3f1
100
AcDbEntity
  8
0
 62
7
100
AcDbPolyline
 90
2
 70
0
 10
1308.283675
 20
1152.802959
 30
0.0
 10
1309.701002
 20
1151.385609
 30
0.0
  0
LWPOLYLINE
  5
3f2
100
AcDbEntity
  8
0
 62
7
100
AcDbPolyline
 90
2
 70
0
 10
1299.779740
 20
1152.802959
 30
0.0
 10
1298.362420
 20
1151.385609
 30
0.0
  0
LWPOLYLINE
  5
3f3
100
AcDbEntity
  8
0
 62
7
100
AcDbPolyline
 90
2
 70
0
 10
1253.385130
 20
1179.588909
 30
0.0
 10
1252.866355
 20
1177.652784
 30
0.0
  0
LWPOLYLINE
  5
3f4
100
AcDbEntity
  8
0
 62
7
100
AcDbPolyline
 90
2
 70
0
 10
1268.031709
 20
1020.366016
 30
0.0
 10
1298.362420
 20
1020.366016
 30
0.0
  0
LWPOLYLINE
  5
3f5
100
AcDbEntity
  8
0
 62
7
100
AcDbPolyline
 90
2
 70
0
 10
1340.031707
 20
1020.366016
 30
0.0
 10
1355.197060
 20
1046.633191
 30
0.0
  0
LWPOLYLINE
  5
3f6
100
AcDbEntity
  8
0
 62
7
100
AcDbPolyline
 90
2
 70
0
 10
1376.031707
 20
1082.719891
 30
0.0
 10
1360.866355
 20
1108.987066
 30
0.0
  0
LWPOLYLINE
  5
3f7
100
AcDbEntity
  8
0
 62
7
100
AcDbPolyline
 90
2
 70
0
 10
1340.031707
 20
1145.073691
 30
0.0
 10
1309.701002
 20
1145.073691
 30
0.0
  0
LWPOLYLINE
  5
3f8
100
AcDbEntity
  8
0
 62
7
100
AcDbPolyline
 90
2
 70
0
 10
1268.031709
 20
1145.073691
 30
0.0
 10
1252.866355
 20
1118.806516
 30
0.0
  0
LWPOLYLINE
  5
3f9
100
AcDbEntity
  8
0
 62
7
100
AcDbPolyline
 90
2
 70
0
 10
1232.031707
 20
1082.719891
 30
0.0
 10
1247.197060
 20
1056.452716
 30
0.0
  0
LWPOLYLINE
  5
3fa
100
AcDbEntity
  8
0
 62
7
100
AcDbPolyline
 90
2
 70
0
 10
1260.180100
 20
1062.311866
 30
0.0
 10
1264.432069
 20
1054.947242
 30
0.0
  0
LWPOLYLINE
  5
3fb
100
AcDbEntity
  8
0
 62
7
100
AcDbPolyline
 90
2
 70
0
 10
1299.779740
 20
1034.539291
 30
0.0
 10
1308.283675
 20
1034.539291
 30
0.0
  0
LWPOLYLINE
  5
3fc
100
AcDbEntity
  8
0
 62
7
100
AcDbPolyline
 90
2
 70
0
 10
1299.779740
 20
1034.539291
 30
0.0
 10
1299.779740
 20
1021.783366
 30
0.0
  0
LWPOLYLINE
  5
3fd
100
AcDbEntity
  8
0
 62
7
100
AcDbPolyline
 90
2
 70
0
 10
1308.283675
 20
1034.539291
 30
0.0
 10
1308.283675
 20
1021.783366
 30
0.0
  0
LWPOLYLINE
  5
3fe
100
AcDbEntity
  8
0
 62
7
100
AcDbPolyline
 90
2
 70
0
 10
1260.180100
 20
1062.311866
 30
0.0
 10
1249.133162
 20
1055.933941
 30
0.0
  0
LWPOLYLINE
  5
3ff
100
AcDbEntity
  8
0
 62
7
100
AcDbPolyline
 90
2
 70
0
 10
1264.432069
 20
1054.947242
 30
0.0
 10
1253.385130
 20
1048.569317
 30
0.0
  0
LWPOLYLINE
  5
400
100
AcDbEntity
  8
0
 62
7
100
AcDbPolyline
 90
2
 70
0
 10
1264.432069
 20
1110.492466
 30
0.0
 10
1260.180100
 20
1103.127841
 30
0.0
  0
LWPOLYLINE
  5
401
100
AcDbEntity
  8
0
 62
7
100
AcDbPolyline
 90
2
 70
0
 10
1264.432069
 20
1110.492466
 30
0.0
 10
1253.385130
 20
1116.870467
 30
0.0
  0
LWPOLYLINE
  5
402
100
AcDbEntity
  8
0
 62
7
100
AcDbPolyline
 90
2
 70
0
 10
1260.180100
 20
1103.127841
 30
0.0
 10
1249.133162
 20
1109.505841
 30
0.0
  0
LWPOLYLINE
  5
403
100
AcDbEntity
  8
0
 62
7
100
AcDbPolyline
 90
2
 70
0
 10
1308.283675
 20
1130.900492
 30
0.0
 10
1299.779740
 20
1130.900492
 30
0.0
  0
LWPOLYLINE
  5
404
100
AcDbEntity
  8
0
 62
7
100
AcDbPolyline
 90
2
 70
0
 10
1308.283675
 20
1130.900492
 30
0.0
 10
1308.283675
 20
1143.656341
 30
0.0
  0
LWPOLYLINE
  5
405
100
AcDbEntity
  8
0
 62
7
100
AcDbPolyline
 90
2
 70
0
 10
1299.779740
 20
1130.900492
 30
0.0
 10
1299.779740
 20
1143.656341
 30
0.0
  0
LWPOLYLINE
  5
406
100
AcDbEntity
  8
0
 62
7
100
AcDbPolyline
 90
2
 70
0
 10
1347.883315
 20
1103.127841
 30
0.0
 10
1343.631347
 20
1110.492466
 30
0.0
  0
LWPOLYLINE
  5
407
100
AcDbEntity
  8
0
 62
7
100
AcDbPolyline
 90
2
 70
0
 10
1347.883315
 20
1103.127841
 30
0.0
 10
1358.930252
 20
1109.505841
 30
0.0
  0
LWPOLYLINE
  5
408
100
AcDbEntity
  8
0
 62
7
100
AcDbPolyline
 90
2
 70
0
 10
1343.631347
 20
1110.492466
 30
0.0
 10
1354.678285
 20
1116.870467
 30
0.0
  0
LWPOLYLINE
  5
409
100
AcDbEntity
  8
0
 62
7
100
AcDbPolyline
 90
2
 70
0
 10
1343.631347
 20
1054.947242
 30
0.0
 10
1347.883315
 20
1062.311866
 30
0.0
  0
LWPOLYLINE
  5
40a
100
AcDbEntity
  8
0
 62
7
100
AcDbPolyline
 90
2
 70
0
 10
1343.631347
 20
1054.947242
 30
0.0
 10
1354.678285
 20
1048.569317
 30
0.0
  0
LWPOLYLINE
  5
40b
100
AcDbEntity
  8
0
 62
7
100
AcDbPolyline
 90
2
 70
0
 10
1347.883315
 20
1062.311866
 30
0.0
 10
1358.930252
 20
1055.933941
 30
0.0
  0
LWPOLYLINE
  5
40c
100
AcDbEntity
  8
0
 62
7
100
AcDbPolyline
 90
2
 70
0
 10
1309.701002
 20
1020.366016
 30
0.0
 10
1340.031707
 20
1020.366016
 30
0.0
  0
LWPOLYLINE
  5
40d
100
AcDbEntity
  8
0
 62
7
100
AcDbPolyline
 90
2
 70
0
 10
1355.197060
 20
1118.806516
 30
0.0
 10
1340.031707
 20
1145.073691
 30
0.0
  0
LWPOLYLINE
  5
40e
100
AcDbEntity
  8
0
 62
7
100
AcDbPolyline
 90
2
 70
0
 10
1360.866355
 20
1056.452716
 30
0.0
 10
1376.031707
 20
1082.719891
 30
0.0
  0
LWPOLYLINE
  5
40f
100
AcDbEntity
  8
0
 62
7
100
AcDbPolyline
 90
2
 70
0
 10
1298.362420
 20
1145.073691
 30
0.0
 10
1268.031709
 20
1145.073691
 30
0.0
  0
LWPOLYLINE
  5
410
100
AcDbEntity
  8
0
 62
7
100
AcDbPolyline
 90
2
 70
0
 10
1247.197060
 20
1108.987066
 30
0.0
 10
1232.031707
 20
1082.719891
 30
0.0
  0
LWPOLYLINE
  5
411
100
AcDbEntity
  8
0
 62
7
100
AcDbPolyline
 90
2
 70
0
 10
1252.866355
 20
1046.633191
 30
0.0
 10
1268.031709
 20
1020.366016
 30
0.0
  0
LWPOLYLINE
  5
412
100
AcDbEntity
  8
0
 62
7
100
AcDbPolyline
 90
2
 70
0
 10
1249.133162
 20
1055.933941
 30
0.0
 10
1247.197060
 20
1056.452716
 30
0.0
  0
LWPOLYLINE
  5
413
100
AcDbEntity
  8
0
 62
7
100
AcDbPolyline
 90
2
 70
0
 10
1249.133162
 20
1109.505841
 30
0.0
 10
1247.197060
 20
1108.987066
 30
0.0
  0
LWPOLYLINE
  5
414
100
AcDbEntity
  8
0
 62
7
100
AcDbPolyline
 90
2
 70
0
 10
1252.866355
 20
1118.806516
 30
0.0
 10
1253.385130
 20
1116.870467
 30
0.0
  0
LWPOLYLINE
  5
415
100
AcDbEntity
  8
0
 62
7
100
AcDbPolyline
 90
2
 70
0
 10
1299.779740
 20
1143.656341
 30
0.0
 10
1298.362420
 20
1145.073691
 30
0.0
  0
LWPOLYLINE
  5
416
100
AcDbEntity
  8
0
 62
7
100
AcDbPolyline
 90
2
 70
0
 10
1308.283675
 20
1143.656341
 30
0.0
 10
1309.701002
 20
1145.073691
 30
0.0
  0
LWPOLYLINE
  5
417
100
AcDbEntity
  8
0
 62
7
100
AcDbPolyline
 90
2
 70
0
 10
1354.678285
 20
1116.870467
 30
0.0
 10
1355.197060
 20
1118.806516
 30
0.0
  0
LWPOLYLINE
  5
418
100
AcDbEntity
  8
0
 62
7
100
AcDbPolyline
 90
2
 70
0
 10
1358.930252
 20
1109.505841
 30
0.0
 10
1360.866355
 20
1108.987066
 30
0.0
  0
LWPOLYLINE
  5
419
100
AcDbEntity
  8
0
 62
7
100
AcDbPolyline
 90
2
 70
0
 10
1358.930252
 20
1055.933941
 30
0.0
 10
1360.866355
 20
1056.452716
 30
0.0
  0
LWPOLYLINE
  5
41a
100
AcDbEntity
  8
0
 62
7
100
AcDbPolyline
 90
2
 70
0
 10
1354.678285
 20
1048.569317
 30
0.0
 10
1355.197060
 20
1046.633191
 30
0.0
  0
LWPOLYLINE
  5
41b
100
AcDbEntity
  8
0
 62
7
100
AcDbPolyline
 90
2
 70
0
 10
1308.283675
 20
1021.783366
 30
0.0
 10
1309.701002
 20
1020.366016
 30
0.0
  0
LWPOLYLINE
  5
41c
100
AcDbEntity
  8
0
 62
7
100
AcDbPolyline
 90
2
 70
0
 10
1299.779740
 20
1021.783366
 30
0.0
 10
1298.362420
 20
1020.366016
 30
0.0
  0
LWPOLYLINE
  5
41d
100
AcDbEntity
  8
0
 62
7
100
AcDbPolyline
 90
2
 70
0
 10
1253.385130
 20
1048.569317
 30
0.0
 10
1252.866355
 20
1046.633191
 30
0.0
  0
LWPOLYLINE
  5
41e
100
AcDbEntity
  8
0
 62
7
100
AcDbPolyline
 90
2
 70
0
 10
1419.307834
 20
1151.385609
 30
0.0
 10
1449.638545
 20
1151.385609
 30
0.0
  0
LWPOLYLINE
  5
41f
100
AcDbEntity
  8
0
 62
7
100
AcDbPolyline
 90
2
 70
0
 10
1491.307832
 20
1151.385609
 30
0.0
 10
1506.473185
 20
1177.652784
 30
0.0
  0
LWPOLYLINE
  5
420
100
AcDbEntity
  8
0
 62
7
100
AcDbPolyline
 90
2
 70
0
 10
1527.307832
 20
1213.739484
 30
0.0
 10
1512.142480
 20
1240.006659
 30
0.0
  0
LWPOLYLINE
  5
421
100
AcDbEntity
  8
0
 62
7
100
AcDbPolyline
 90
2
 70
0
 10
1491.307832
 20
1276.093284
 30
0.0
 10
1460.977127
 20
1276.093284
 30
0.0
  0
LWPOLYLINE
  5
422
100
AcDbEntity
  8
0
 62
7
100
AcDbPolyline
 90
2
 70
0
 10
1419.307834
 20
1276.093284
 30
0.0
 10
1404.142480
 20
1249.826109
 30
0.0
  0
LWPOLYLINE
  5
423
100
AcDbEntity
  8
0
 62
7
100
AcDbPolyline
 90
2
 70
0
 10
1383.307832
 20
1213.739484
 30
0.0
 10
1398.473185
 20
1187.472309
 30
0.0
  0
LWPOLYLINE
  5
424
100
AcDbEntity
  8
0
 62
7
100
AcDbPolyline
 90
2
 70
0
 10
1411.456225
 20
1193.331459
 30
0.0
 10
1415.708194
 20
1185.966834
 30
0.0
  0
LWPOLYLINE
  5
425
100
AcDbEntity
  8
0
 62
7
100
AcDbPolyline
 90
2
 70
0
 10
1451.055865
 20
1165.558884
 30
0.0
 10
1459.559800
 20
1165.558884
 30
0.0
  0
LWPOLYLINE
  5
426
100
AcDbEntity
  8
0
 62
7
100
AcDbPolyline
 90
2
 70
0
 10
1451.055865
 20
1165.558884
 30
0.0
 10
1451.055865
 20
1152.802959
 30
0.0
  0
LWPOLYLINE
  5
427
100
AcDbEntity
  8
0
 62
7
100
AcDbPolyline
 90
2
 70
0
 10
1459.559800
 20
1165.558884
 30
0.0
 10
1459.559800
 20
1152.802959
 30
0.0
  0
LWPOLYLINE
  5
428
100
AcDbEntity
  8
0
 62
7
100
AcDbPolyline
 90
2
 70
0
 10
1411.456225
 20
1193.331459
 30
0.0
 10
1400.409287
 20
1186.953534
 30
0.0
  0
LWPOLYLINE
  5
429
100
AcDbEntity
  8
0
 62
7
100
AcDbPolyline
 90
2
 70
0
 10
1415.708194
 20
1185.966834
 30
0.0
 10
1404.661255
 20
1179.588909
 30
0.0
  0
LWPOLYLINE
  5
42a
100
AcDbEntity
  8
0
 62
7
100
AcDbPolyline
 90
2
 70
0
 10
1415.708194
 20
1241.512059
 30
0.0
 10
1411.456225
 20
1234.147434
 30
0.0
  0
LWPOLYLINE
  5
42b
100
AcDbEntity
  8
0
 62
7
100
AcDbPolyline
 90
2
 70
0
 10
1415.708194
 20
1241.512059
 30
0.0
 10
1404.661255
 20
1247.890059
 30
0.0
  0
LWPOLYLINE
  5
42c
100
AcDbEntity
  8
0
 62
7
100
AcDbPolyline
 90
2
 70
0
 10
1411.456225
 20
1234.147434
 30
0.0
 10
1400.409287
 20
1240.525434
 30
0.0
  0
LWPOLYLINE
  5
42d
100
AcDbEntity
  8
0
 62
7
100
AcDbPolyline
 90
2
 70
0
 10
1459.559800
 20
1261.920084
 30
0.0
 10
1451.055865
 20
1261.920084
 30
0.0
  0
LWPOLYLINE
  5
42e
100
AcDbEntity
  8
0
 62
7
100
AcDbPolyline
 90
2
 70
0
 10
1459.559800
 20
1261.920084
 30
0.0
 10
1459.559800
 20
1274.675934
 30
0.0
  0
LWPOLYLINE
  5
42f
100
AcDbEntity
  8
0
 62
7
100
AcDbPolyline
 90
2
 70
0
 10
1451.055865
 20
1261.920084
 30
0.0
 10
1451.055865
 20
1274.675934
 30
0.0
  0
LWPOLYLINE
  5
430
100
AcDbEntity
  8
0
 62
7
100
AcDbPolyline
 90
2
 70
0
 10
1499.159440
 20
1234.147434
 30
0.0
 10
1494.907472
 20
1241.512059
 30
0.0
  0
LWPOLYLINE
  5
431
100
AcDbEntity
  8
0
 62
7
100
AcDbPolyline
 90
2
 70
0
 10
1499.159440
 20
1234.147434
 30
0.0
 10
1510.206377
 20
1240.525434
 30
0.0
  0
LWPOLYLINE
  5
432
100
AcDbEntity
  8
0
 62
7
100
AcDbPolyline
 90
2
 70
0
 10
1494.907472
 20
1241.512059
 30
0.0
 10
1505.954410
 20
1247.890059
 30
0.0
  0
LWPOLYLINE
  5
433
100
AcDbEntity
  8
0
 62
7
100
AcDbPolyline
 90
2
 70
0
 10
1494.907472
 20
1185.966834
 30
0.0
 10
1499.159440
 20
1193.331459
 30
0.0
  0
LWPOLYLINE
  5
434
100
AcDbEntity
  8
0
 62
7
100
AcDbPolyline
 90
2
 70
0
 10
1494.907472
 20
1185.966834
 30
0.0
 10
1505.954410
 20
1179.588909
 30
0.0
  0
LWPOLYLINE
  5
435
100
AcDbEntity
  8
0
 62
7
100
AcDbPolyline
 90
2
 70
0
 10
1499.159440
 20
1193.331459
 30
0.0
 10
1510.206377
 20
1186.953534
 30
0.0
  0
LWPOLYLINE
  5
436
100
AcDbEntity
  8
0
 62
7
100
AcDbPolyline
 90
2
 70
0
 10
1460.977127
 20
1151.385609
 30
0.0
 10
1491.307832
 20
1151.385609
 30
0.0
  0
LWPOLYLINE
  5
437
100
AcDbEntity
  8
0
 62
7
100
AcDbPolyline
 90
2
 70
0
 10
1506.473185
 20
1249.826109
 30
0.0
 10
1491.307832
 20
1276.093284
 30
0.0
  0
LWPOLYLINE
  5
438
100
AcDbEntity
  8
0
 62
7
100
AcDbPolyline
 90
2
 70
0
 10
1512.142480
 20
1187.472309
 30
0.0
 10
1527.307832
 20
1213.739484
 30
0.0
  0
LWPOLYLINE
  5
439
100
AcDbEntity
  8
0
 62
7
100
AcDbPolyline
 90
2
 70
0
 10
1449.638545
 20
1276.093284
 30
0.0
 10
1419.307834
 20
1276.093284
 30
0.0
  0
LWPOLYLINE
  5
43a
100
AcDbEntity
  8
0
 62
7
100
AcDbPolyline
 90
2
 70
0
 10
1398.473185
 20
1240.006659
 30
0.0
 10
1383.307832
 20
1213.739484
 30
0.0
  0
LWPOLYLINE
  5
43b
100
AcDbEntity
  8
0
 62
7
100
AcDbPolyline
 90
2
 70
0
 10
1404.142480
 20
1177.652784
 30
0.0
 10
1419.307834
 20
1151.385609
 30
0.0
  0
LWPOLYLINE
  5
43c
100
AcDbEntity
  8
0
 62
7
100
AcDbPolyline
 90
2
 70
0
 10
1400.409287
 20
1186.953534
 30
0.0
 10
1398.473185
 20
1187.472309
 30
0.0
  0
LWPOLYLINE
  5
43d
100
AcDbEntity
  8
0
 62
7
100
AcDbPolyline
 90
2
 70
0
 10
1400.409287
 20
1240.525434
 30
0.0
 10
1398.473185
 20
1240.006659
 30
0.0
  0
LWPOLYLINE
  5
43e
100
AcDbEntity
  8
0
 62
7
100
AcDbPolyline
 90
2
 70
0
 10
1404.142480
 20
1249.826109
 30
0.0
 10
1404.661255
 20
1247.890059
 30
0.0
  0
LWPOLYLINE
  5
43f
100
AcDbEntity
  8
0
 62
7
100
AcDbPolyline
 90
2
 70
0
 10
1451.055865
 20
1274.675934
 30
0.0
 10
1449.638545
 20
1276.093284
 30
0.0
  0
LWPOLYLINE
  5
440
100
AcDbEntity
  8
0
 62
7
100
AcDbPolyline
 90
2
 70
0
 10
1459.559800
 20
1274.675934
 30
0.0
 10
1460.977127
 20
1276.093284
 30
0.0
  0
LWPOLYLINE
  5
441
100
AcDbEntity
  8
0
 62
7
100
AcDbPolyline
 90
2
 70
0
 10
1505.954410
 20
1247.890059
 30
0.0
 10
1506.473185
 20
1249.826109
 30
0.0
  0
LWPOLYLINE
  5
442
100
AcDbEntity
  8
0
 62
7
100
AcDbPolyline
 90
2
 70
0
 10
1510.206377
 20
1240.525434
 30
0.0
 10
1512.142480
 20
1240.006659
 30
0.0
  0
LWPOLYLINE
  5
443
100
AcDbEntity
  8
0
 62
7
100
AcDbPolyline
 90
2
 70
0
 10
1510.206377
 20
1186.953534
 30
0.0
 10
1512.142480
 20
1187.472309
 30
0.0
  0
LWPOLYLINE
  5
444
100
AcDbEntity
  8
0
 62
7
100
AcDbPolyline
 90
2
 70
0
 10
1505.954410
 20
1179.588909
 30
0.0
 10
1506.473185
 20
1177.652784
 30
0.0
  0
LWPOLYLINE
  5
445
100
AcDbEntity
  8
0
 62
7
100
AcDbPolyline
 90
2
 70
0
 10
1459.559800
 20
1152.802959
 30
0.0
 10
1460.977127
 20
1151.385609
 30
0.0
  0
LWPOLYLINE
  5
446
100
AcDbEntity
  8
0
 62
7
100
AcDbPolyline
 90
2
 70
0
 10
1451.055865
 20
1152.802959
 30
0.0
 10
1449.638545
 20
1151.385609
 30
0.0
  0
LWPOLYLINE
  5
447
100
AcDbEntity
  8
0
 62
7
100
AcDbPolyline
 90
2
 70
0
 10
1404.661255
 20
1179.588909
 30
0.0
 10
1404.142480
 20
1177.652784
 30
0.0
  0
LWPOLYLINE
  5
448
100
AcDbEntity
  8
0
 62
7
100
AcDbPolyline
 90
2
 70
0
 10
1419.307834
 20
1020.366016
 30
0.0
 10
1449.638545
 20
1020.366016
 30
0.0
  0
LWPOLYLINE
  5
449
100
AcDbEntity
  8
0
 62
7
100
AcDbPolyline
 90
2
 70
0
 10
1491.307832
 20
1020.366016
 30
0.0
 10
1506.473185
 20
1046.633191
 30
0.0
  0
LWPOLYLINE
  5
44a
100
AcDbEntity
  8
0
 62
7
100
AcDbPolyline
 90
2
 70
0
 10
1527.307832
 20
1082.719891
 30
0.0
 10
1512.142480
 20
1108.987066
 30
0.0
  0
LWPOLYLINE
  5
44b
100
AcDbEntity
  8
0
 62
7
100
AcDbPolyline
 90
2
 70
0
 10
1491.307832
 20
1145.073691
 30
0.0
 10
1460.977127
 20
1145.073691
 30
0.0
  0
LWPOLYLINE
  5
44c
100
AcDbEntity
  8
0
 62
7
100
AcDbPolyline
 90
2
 70
0
 10
1419.307834
 20
1145.073691
 30
0.0
 10
1404.142480
 20
1118.806516
 30
0.0
  0
LWPOLYLINE
  5
44d
100
AcDbEntity
  8
0
 62
7
100
AcDbPolyline
 90
2
 70
0
 10
1383.307832
 20
1082.719891
 30
0.0
 10
1398.473185
 20
1056.452716
 30
0.0
  0
LWPOLYLINE
  5
44e
100
AcDbEntity
  8
0
 62
7
100
AcDbPolyline
 90
2
 70
0
 10
1411.456225
 20
1062.311866
 30
0.0
 10
1415.708194
 20
1054.947242
 30
0.0
  0
LWPOLYLINE
  5
44f
100
AcDbEntity
  8
0
 62
7
100
AcDbPolyline
 90
2
 70
0
 10
1451.055865
 20
1034.539291
 30
0.0
 10
1459.559800
 20
1034.539291
 30
0.0
  0
LWPOLYLINE
  5
450
100
AcDbEntity
  8
0
 62
7
100
AcDbPolyline
 90
2
 70
0
 10
1451.055865
 20
1034.539291
 30
0.0
 10
1451.055865
 20
1021.783366
 30
0.0
  0
LWPOLYLINE
  5
451
100
AcDbEntity
  8
0
 62
7
100
AcDbPolyline
 90
2
 70
0
 10
1459.559800
 20
1034.539291
 30
0.0
 10
1459.559800
 20
1021.783366
 30
0.0
  0
LWPOLYLINE
  5
452
100
AcDbEntity
  8
0
 62
7
100
AcDbPolyline
 90
2
 70
0
 10
1411.456225
 20
1062.311866
 30
0.0
 10
1400.409287
 20
1055.933941
 30
0.0
  0
LWPOLYLINE
  5
453
100
AcDbEntity
  8
0
 62
7
100
AcDbPolyline
 90
2
 70
0
 10
1415.708194
 20
1054.947242
 30
0.0
 10
1404.661255
 20
1048.569317
 30
0.0
  0
LWPOLYLINE
  5
454
100
AcDbEntity
  8
0
 62
7
100
AcDbPolyline
 90
2
 70
0
 10
1415.708194
 20
1110.492466
 30
0.0
 10
1411.456225
 20
1103.127841
 30
0.0
  0
LWPOLYLINE
  5
455
100
AcDbEntity
  8
0
 62
7
100
AcDbPolyline
 90
2
 70
0
 10
1415.708194
 20
1110.492466
 30
0.0
 10
1404.661255
 20
1116.870467
 30
0.0
  0
LWPOLYLINE
  5
456
100
AcDbEntity
  8
0
 62
7
100
AcDbPolyline
 90
2
 70
0
 10
1411.456225
 20
1103.127841
 30
0.0
 10
1400.409287
 20
1109.505841
 30
0.0
  0
LWPOLYLINE
  5
457
100
AcDbEntity
  8
0
 62
7
100
AcDbPolyline
 90
2
 70
0
 10
1459.559800
 20
1130.900492
 30
0.0
 10
1451.055865
 20
1130.900492
 30
0.0
  0
LWPOLYLINE
  5
458
100
AcDbEntity
  8
0
 62
7
100
AcDbPolyline
 90
2
 70
0
 10
1459.559800
 20
1130.900492
 30
0.0
 10
1459.559800
 20
1143.656341
 30
0.0
  0
LWPOLYLINE
  5
459
100
AcDbEntity
  8
0
 62
7
100
AcDbPolyline
 90
2
 70
0
 10
1451.055865
 20
1130.900492
 30
0.0
 10
1451.055865
 20
1143.656341
 30
0.0
  0
LWPOLYLINE
  5
45a
100
AcDbEntity
  8
0
 62
7
100
AcDbPolyline
 90
2
 70
0
 10
1499.159440
 20
1103.127841
 30
0.0
 10
1494.907472
 20
1110.492466
 30
0.0
  0
LWPOLYLINE
  5
45b
100
AcDbEntity
  8
0
 62
7
100
AcDbPolyline
 90
2
 70
0
 10
1499.159440
 20
1103.127841
 30
0.0
 10
1510.206377
 20
1109.505841
 30
0.0
  0
LWPOLYLINE
  5
45c
100
AcDbEntity
  8
0
 62
7
100
AcDbPolyline
 90
2
 70
0
 10
1494.907472
 20
1110.492466
 30
0.0
 10
1505.954410
 20
1116.870467
 30
0.0
  0
LWPOLYLINE
  5
45d
100
AcDbEntity
  8
0
 62
7
100
AcDbPolyline
 90
2
 70
0
 10
1494.907472
 20
1054.947242
 30
0.0
 10
1499.159440
 20
1062.311866
 30
0.0
  0
LWPOLYLINE
  5
45e
100
AcDbEntity
  8
0
 62
7
100
AcDbPolyline
 90
2
 70
0
 10
1494.907472
 20
1054.947242
 30
0.0
 10
1505.954410
 20
1048.569317
 30
0.0
  0
LWPOLYLINE
  5
45f
100
AcDbEntity
  8
0
 62
7
100
AcDbPolyline
 90
2
 70
0
 10
1499.159440
 20
1062.311866
 30
0.0
 10
1510.206377
 20
1055.933941
 30
0.0
  0
LWPOLYLINE
  5
460
100
AcDbEntity
  8
0
 62
7
100
AcDbPolyline
 90
2
 70
0
 10
1460.977127
 20
1020.366016
 30
0.0
 10
1491.307832
 20
1020.366016
 30
0.0
  0
LWPOLYLINE
  5
461
100
AcDbEntity
  8
0
 62
7
100
AcDbPolyline
 90
2
 70
0
 10
1506.473185
 20
1118.806516
 30
0.0
 10
1491.307832
 20
1145.073691
 30
0.0
  0
LWPOLYLINE
  5
462
100
AcDbEntity
  8
0
 62
7
100
AcDbPolyline
 90
2
 70
0
 10
1512.142480
 20
1056.452716
 30
0.0
 10
1527.307832
 20
1082.719891
 30
0.0
  0
LWPOLYLINE
  5
463
100
AcDbEntity
  8
0
 62
7
100
AcDbPolyline
 90
2
 70
0
 10
1449.638545
 20
1145.073691
 30
0.0
 10
1419.307834
 20
1145.073691
 30
0.0
  0
LWPOLYLINE
  5
464
100
AcDbEntity
  8
0
 62
7
100
AcDbPolyline
 90
2
 70
0
 10
1398.473185
 20
1108.987066
 30
0.0
 10
1383.307832
 20
1082.719891
 30
0.0
  0
LWPOLYLINE
  5
465
100
AcDbEntity
  8
0
 62
7
100
AcDbPolyline
 90
2
 70
0
 10
1404.142480
 20
1046.633191
 30
0.0
 10
1419.307834
 20
1020.366016
 30
0.0
  0
LWPOLYLINE
  5
466
100
AcDbEntity
  8
0
 62
7
100
AcDbPolyline
 90
2
 70
0
 10
1400.409287
 20
1055.933941
 30
0.0
 10
1398.473185
 20
1056.452716
 30
0.0
  0
LWPOLYLINE
  5
467
100
AcDbEntity
  8
0
 62
7
100
AcDbPolyline
 90
2
 70
0
 10
1400.409287
 20
1109.505841
 30
0.0
 10
1398.473185
 20
1108.987066
 30
0.0
  0
LWPOLYLINE
  5
468
100
AcDbEntity
  8
0
 62
7
100
AcDbPolyline
 90
2
 70
0
 10
1404.142480
 20
1118.806516
 30
0.0
 10
1404.661255
 20
1116.870467
 30
0.0
  0
LWPOLYLINE
  5
469
100
AcDbEntity
  8
0
 62
7
100
AcDbPolyline
 90
2
 70
0
 10
1451.055865
 20
1143.656341
 30
0.0
 10
1449.638545
 20
1145.073691
 30
0.0
  0
LWPOLYLINE
  5
46a
100
AcDbEntity
  8
0
 62
7
100
AcDbPolyline
 90
2
 70
0
 10
1459.559800
 20
1143.656341
 30
0.0
 10
1460.977127
 20
1145.073691
 30
0.0
  0
LWPOLYLINE
  5
46b
100
AcDbEntity
  8
0
 62
7
100
AcDbPolyline
 90
2
 70
0
 10
1505.954410
 20
1116.870467
 30
0.0
 10
1506.473185
 20
1118.806516
 30
0.0
  0
LWPOLYLINE
  5
46c
100
AcDbEntity
  8
0
 62
7
100
AcDbPolyline
 90
2
 70
0
 10
1510.206377
 20
1109.505841
 30
0.0
 10
1512.142480
 20
1108.987066
 30
0.0
  0
LWPOLYLINE
  5
46d
100
AcDbEntity
  8
0
 62
7
100
AcDbPolyline
 90
2
 70
0
 10
1510.206377
 20
1055.933941
 30
0.0
 10
1512.142480
 20
1056.452716
 30
0.0
  0
LWPOLYLINE
  5
46e
100
AcDbEntity
  8
0
 62
7
100
AcDbPolyline
 90
2
 70
0
 10
1505.954410
 20
1048.569317
 30
0.0
 10
1506.473185
 20
1046.633191
 30
0.0
  0
LWPOLYLINE
  5
46f
100
AcDbEntity
  8
0
 62
7
100
AcDbPolyline
 90
2
 70
0
 10
1459.559800
 20
1021.783366
 30
0.0
 10
1460.977127
 20
1020.366016
 30
0.0
  0
LWPOLYLINE
  5
470
100
AcDbEntity
  8
0
 62
7
100
AcDbPolyline
 90
2
 70
0
 10
1451.055865
 20
1021.783366
 30
0.0
 10
1449.638545
 20
1020.366016
 30
0.0
  0
LWPOLYLINE
  5
471
100
AcDbEntity
  8
0
 62
7
100
AcDbPolyline
 90
2
 70
0
 10
1404.661255
 20
1048.569317
 30
0.0
 10
1404.142480
 20
1046.633191
 30
0.0
  0
LWPOLYLINE
  5
472
100
AcDbEntity
  8
0
 62
7
100
AcDbPolyline
 90
2
 70
0
 10
1570.583959
 20
1151.385609
 30
0.0
 10
1600.914670
 20
1151.385609
 30
0.0
  0
LWPOLYLINE
  5
473
100
AcDbEntity
  8
0
 62
7
100
AcDbPolyline
 90
2
 70
0
 10
1642.583957
 20
1151.385609
 30
0.0
 10
1657.749310
 20
1177.652784
 30
0.0
  0
LWPOLYLINE
  5
474
100
AcDbEntity
  8
0
 62
7
100
AcDbPolyline
 90
2
 70
0
 10
1678.583957
 20
1213.739484
 30
0.0
 10
1663.418605
 20
1240.006659
 30
0.0
  0
LWPOLYLINE
  5
475
100
AcDbEntity
  8
0
 62
7
100
AcDbPolyline
 90
2
 70
0
 10
1642.583957
 20
1276.093284
 30
0.0
 10
1612.253252
 20
1276.093284
 30
0.0
  0
LWPOLYLINE
  5
476
100
AcDbEntity
  8
0
 62
7
100
AcDbPolyline
 90
2
 70
0
 10
1570.583959
 20
1276.093284
 30
0.0
 10
1555.418605
 20
1249.826109
 30
0.0
  0
LWPOLYLINE
  5
477
100
AcDbEntity
  8
0
 62
7
100
AcDbPolyline
 90
2
 70
0
 10
1534.583957
 20
1213.739484
 30
0.0
 10
1549.749310
 20
1187.472309
 30
0.0
  0
LWPOLYLINE
  5
478
100
AcDbEntity
  8
0
 62
7
100
AcDbPolyline
 90
2
 70
0
 10
1562.732350
 20
1193.331459
 30
0.0
 10
1566.984319
 20
1185.966834
 30
0.0
  0
LWPOLYLINE
  5
479
100
AcDbEntity
  8
0
 62
7
100
AcDbPolyline
 90
2
 70
0
 10
1602.331990
 20
1165.558884
 30
0.0
 10
1610.835925
 20
1165.558884
 30
0.0
  0
LWPOLYLINE
  5
47a
100
AcDbEntity
  8
0
 62
7
100
AcDbPolyline
 90
2
 70
0
 10
1602.331990
 20
1165.558884
 30
0.0
 10
1602.331990
 20
1152.802959
 30
0.0
  0
LWPOLYLINE
  5
47b
100
AcDbEntity
  8
0
 62
7
100
AcDbPolyline
 90
2
 70
0
 10
1610.835925
 20
1165.558884
 30
0.0
 10
1610.835925
 20
1152.802959
 30
0.0
  0
LWPOLYLINE
  5
47c
100
AcDbEntity
  8
0
 62
7
100
AcDbPolyline
 90
2
 70
0
 10
1562.732350
 20
1193.331459
 30
0.0
 10
1551.685412
 20
1186.953534
 30
0.0
  0
LWPOLYLINE
  5
47d
100
AcDbEntity
  8
0
 62
7
100
AcDbPolyline
 90
2
 70
0
 10
1566.984319
 20
1185.966834
 30
0.0
 10
1555.937380
 20
1179.588909
 30
0.0
  0
LWPOLYLINE
  5
47e
100
AcDbEntity
  8
0
 62
7
100
AcDbPolyline
 90
2
 70
0
 10
1566.984319
 20
1241.512059
 30
0.0
 10
1562.732350
 20
1234.147434
 30
0.0
  0
LWPOLYLINE
  5
47f
100
AcDbEntity
  8
0
 62
7
100
AcDbPolyline
 90
2
 70
0
 10
1566.984319
 20
1241.512059
 30
0.0
 10
1555.937380
 20
1247.890059
 30
0.0
  0
LWPOLYLINE
  5
480
100
AcDbEntity
  8
0
 62
7
100
AcDbPolyline
 90
2
 70
0
 10
1562.732350
 20
1234.147434
 30
0.0
 10
1551.685412
 20
1240.525434
 30
0.0
  0
LWPOLYLINE
  5
481
100
AcDbEntity
  8
0
 62
7
100
AcDbPolyline
 90
2
 70
0
 10
1610.835925
 20
1261.920084
 30
0.0
 10
1602.331990
 20
1261.920084
 30
0.0
  0
LWPOLYLINE
  5
482
100
AcDbEntity
  8
0
 62
7
100
AcDbPolyline
 90
2
 70
0
 10
1610.835925
 20
1261.920084
 30
0.0
 10
1610.835925
 20
1274.675934
 30
0.0
  0
LWPOLYLINE
  5
483
100
AcDbEntity
  8
0
 62
7
100
AcDbPolyline
 90
2
 70
0
 10
1602.331990
 20
1261.920084
 30
0.0
 10
1602.331990
 20
1274.675934
 30
0.0
  0
LWPOLYLINE
  5
484
100
AcDbEntity
  8
0
 62
7
100
AcDbPolyline
 90
2
 70
0
 10
1650.435565
 20
1234.147434
 30
0.0
 10
1646.183597
 20
1241.512059
 30
0.0
  0
LWPOLYLINE
  5
485
100
AcDbEntity
  8
0
 62
7
100
AcDbPolyline
 90
2
 70
0
 10
1650.435565
 20
1234.147434
 30
0.0
 10
1661.482502
 20
1240.525434
 30
0.0
  0
LWPOLYLINE
  5
486
100
AcDbEntity
  8
0
 62
7
100
AcDbPolyline
 90
2
 70
0
 10
1646.183597
 20
1241.512059
 30
0.0
 10
1657.230535
 20
1247.890059
 30
0.0
  0
LWPOLYLINE
  5
487
100
AcDbEntity
  8
0
 62
7
100
AcDbPolyline
 90
2
 70
0
 10
1646.183597
 20
1185.966834
 30
0.0
 10
1650.435565
 20
1193.331459
 30
0.0
  0
LWPOLYLINE
  5
488
100
AcDbEntity
  8
0
 62
7
100
AcDbPolyline
 90
2
 70
0
 10
1646.183597
 20
1185.966834
 30
0.0
 10
1657.230535
 20
1179.588909
 30
0.0
  0
LWPOLYLINE
  5
489
100
AcDbEntity
  8
0
 62
7
100
AcDbPolyline
 90
2
 70
0
 10
1650.435565
 20
1193.331459
 30
0.0
 10
1661.482502
 20
1186.953534
 30
0.0
  0
LWPOLYLINE
  5
48a
100
AcDbEntity
  8
0
 62
7
100
AcDbPolyline
 90
2
 70
0
 10
1612.253252
 20
1151.385609
 30
0.0
 10
1642.583957
 20
1151.385609
 30
0.0
  0
LWPOLYLINE
  5
48b
100
AcDbEntity
  8
0
 62
7
100
AcDbPolyline
 90
2
 70
0
 10
1657.749310
 20
1249.826109
 30
0.0
 10
1642.583957
 20
1276.093284
 30
0.0
  0
LWPOLYLINE
  5
48c
100
AcDbEntity
  8
0
 62
7
100
AcDbPolyline
 90
2
 70
0
 10
1663.418605
 20
1187.472309
 30
0.0
 10
1678.583957
 20
1213.739484
 30
0.0
  0
LWPOLYLINE
  5
48d
100
AcDbEntity
  8
0
 62
7
100
AcDbPolyline
 90
2
 70
0
 10
1600.914670
 20
1276.093284
 30
0.0
 10
1570.583959
 20
1276.093284
 30
0.0
  0
LWPOLYLINE
  5
48e
100
AcDbEntity
  8
0
 62
7
100
AcDbPolyline
 90
2
 70
0
 10
1549.749310
 20
1240.006659
 30
0.0
 10
1534.583957
 20
1213.739484
 30
0.0
  0
LWPOLYLINE
  5
48f
100
AcDbEntity
  8
0
 62
7
100
AcDbPolyline
 90
2
 70
0
 10
1555.418605
 20
1177.652784
 30
0.0
 10
1570.583959
 20
1151.385609
 30
0.0
  0
LWPOLYLINE
  5
490
100
AcDbEntity
  8
0
 62
7
100
AcDbPolyline
 90
2
 70
0
 10
1551.685412
 20
1186.953534
 30
0.0
 10
1549.749310
 20
1187.472309
 30
0.0
  0
LWPOLYLINE
  5
491
100
AcDbEntity
  8
0
 62
7
100
AcDbPolyline
 90
2
 70
0
 10
1551.685412
 20
1240.525434
 30
0.0
 10
1549.749310
 20
1240.006659
 30
0.0
  0
LWPOLYLINE
  5
492
100
AcDbEntity
  8
0
 62
7
100
AcDbPolyline
 90
2
 70
0
 10
1555.418605
 20
1249.826109
 30
0.0
 10
1555.937380
 20
1247.890059
 30
0.0
  0
LWPOLYLINE
  5
493
100
AcDbEntity
  8
0
 62
7
100
AcDbPolyline
 90
2
 70
0
 10
1602.331990
 20
1274.675934
 30
0.0
 10
1600.914670
 20
1276.093284
 30
0.0
  0
LWPOLYLINE
  5
494
100
AcDbEntity
  8
0
 62
7
100
AcDbPolyline
 90
2
 70
0
 10
1610.835925
 20
1274.675934
 30
0.0
 10
1612.253252
 20
1276.093284
 30
0.0
  0
LWPOLYLINE
  5
495
100
AcDbEntity
  8
0
 62
7
100
AcDbPolyline
 90
2
 70
0
 10
1657.230535
 20
1247.890059
 30
0.0
 10
1657.749310
 20
1249.826109
 30
0.0
  0
LWPOLYLINE
  5
496
100
AcDbEntity
  8
0
 62
7
100
AcDbPolyline
 90
2
 70
0
 10
1661.482502
 20
1240.525434
 30
0.0
 10
1663.418605
 20
1240.006659
 30
0.0
  0
LWPOLYLINE
  5
497
100
AcDbEntity
  8
0
 62
7
100
AcDbPolyline
 90
2
 70
0
 10
1661.482502
 20
1186.953534
 30
0.0
 10
1663.418605
 20
1187.472309
 30
0.0
  0
LWPOLYLINE
  5
498
100
AcDbEntity
  8
0
 62
7
100
AcDbPolyline
 90
2
 70
0
 10
1657.230535
 20
1179.588909
 30
0.0
 10
1657.749310
 20
1177.652784
 30
0.0
  0
LWPOLYLINE
  5
499
100
AcDbEntity
  8
0
 62
7
100
AcDbPolyline
 90
2
 70
0
 10
1610.835925
 20
1152.802959
 30
0.0
 10
1612.253252
 20
1151.385609
 30
0.0
  0
LWPOLYLINE
  5
49a
100
AcDbEntity
  8
0
 62
7
100
AcDbPolyline
 90
2
 70
0
 10
1602.331990
 20
1152.802959
 30
0.0
 10
1600.914670
 20
1151.385609
 30
0.0
  0
LWPOLYLINE
  5
49b
100
AcDbEntity
  8
0
 62
7
100
AcDbPolyline
 90
2
 70
0
 10
1555.937380
 20
1179.588909
 30
0.0
 10
1555.418605
 20
1177.652784
 30
0.0
  0
LWPOLYLINE
  5
49c
100
AcDbEntity
  8
0
 62
7
100
AcDbPolyline
 90
2
 70
0
 10
1570.583959
 20
1020.366016
 30
0.0
 10
1600.914670
 20
1020.366016
 30
0.0
  0
LWPOLYLINE
  5
49d
100
AcDbEntity
  8
0
 62
7
100
AcDbPolyline
 90
2
 70
0
 10
1642.583957
 20
1020.366016
 30
0.0
 10
1657.749310
 20
1046.633191
 30
0.0
  0
LWPOLYLINE
  5
49e
100
AcDbEntity
  8
0
 62
7
100
AcDbPolyline
 90
2
 70
0
 10
1678.583957
 20
1082.719891
 30
0.0
 10
1663.418605
 20
1108.987066
 30
0.0
  0
LWPOLYLINE
  5
49f
100
AcDbEntity
  8
0
 62
7
100
AcDbPolyline
 90
2
 70
0
 10
1642.583957
 20
1145.073691
 30
0.0
 10
1612.253252
 20
1145.073691
 30
0.0
  0
LWPOLYLINE
  5
4a0
100
AcDbEntity
  8
0
 62
7
100
AcDbPolyline
 90
2
 70
0
 10
1570.583959
 20
1145.073691
 30
0.0
 10
1555.418605
 20
1118.806516
 30
0.0
  0
LWPOLYLINE
  5
4a1
100
AcDbEntity
  8
0
 62
7
100
AcDbPolyline
 90
2
 70
0
 10
1534.583957
 20
1082.719891
 30
0.0
 10
1549.749310
 20
1056.452716
 30
0.0
  0
LWPOLYLINE
  5
4a2
100
AcDbEntity
  8
0
 62
7
100
AcDbPolyline
 90
2
 70
0
 10
1562.732350
 20
1062.311866
 30
0.0
 10
1566.984319
 20
1054.947242
 30
0.0
  0
LWPOLYLINE
  5
4a3
100
AcDbEntity
  8
0
 62
7
100
AcDbPolyline
 90
2
 70
0
 10
1602.331990
 20
1034.539291
 30
0.0
 10
1610.835925
 20
1034.539291
 30
0.0
  0
LWPOLYLINE
  5
4a4
100
AcDbEntity
  8
0
 62
7
100
AcDbPolyline
 90
2
 70
0
 10
1602.331990
 20
1034.539291
 30
0.0
 10
1602.331990
 20
1021.783366
 30
0.0
  0
LWPOLYLINE
  5
4a5
100
AcDbEntity
  8
0
 62
7
100
AcDbPolyline
 90
2
 70
0
 10
1610.835925
 20
1034.539291
 30
0.0
 10
1610.835925
 20
1021.783366
 30
0.0
  0
LWPOLYLINE
  5
4a6
100
AcDbEntity
  8
0
 62
7
100
AcDbPolyline
 90
2
 70
0
 10
1562.732350
 20
1062.311866
 30
0.0
 10
1551.685412
 20
1055.933941
 30
0.0
  0
LWPOLYLINE
  5
4a7
100
AcDbEntity
  8
0
 62
7
100
AcDbPolyline
 90
2
 70
0
 10
1566.984319
 20
1054.947242
 30
0.0
 10
1555.937380
 20
1048.569317
 30
0.0
  0
LWPOLYLINE
  5
4a8
100
AcDbEntity
  8
0
 62
7
100
AcDbPolyline
 90
2
 70
0
 10
1566.984319
 20
1110.492466
 30
0.0
 10
1562.732350
 20
1103.127841
 30
0.0
  0
LWPOLYLINE
  5
4a9
100
AcDbEntity
  8
0
 62
7
100
AcDbPolyline
 90
2
 70
0
 10
1566.984319
 20
1110.492466
 30
0.0
 10
1555.937380
 20
1116.870467
 30
0.0
  0
LWPOLYLINE
  5
4aa
100
AcDbEntity
  8
0
 62
7
100
AcDbPolyline
 90
2
 70
0
 10
1562.732350
 20
1103.127841
 30
0.0
 10
1551.685412
 20
1109.505841
 30
0.0
  0
LWPOLYLINE
  5
4ab
100
AcDbEntity
  8
0
 62
7
100
AcDbPolyline
 90
2
 70
0
 10
1610.835925
 20
1130.900492
 30
0.0
 10
1602.331990
 20
1130.900492
 30
0.0
  0
LWPOLYLINE
  5
4ac
100
AcDbEntity
  8
0
 62
7
100
AcDbPolyline
 90
2
 70
0
 10
1610.835925
 20
1130.900492
 30
0.0
 10
1610.835925
 20
1143.656341
 30
0.0
  0
LWPOLYLINE
  5
4ad
100
AcDbEntity
  8
0
 62
7
100
AcDbPolyline
 90
2
 70
0
 10
1602.331990
 20
1130.900492
 30
0.0
 10
1602.331990
 20
1143.656341
 30
0.0
  0
LWPOLYLINE
  5
4ae
100
AcDbEntity
  8
0
 62
7
100
AcDbPolyline
 90
2
 70
0
 10
1650.435565
 20
1103.127841
 30
0.0
 10
1646.183597
 20
1110.492466
 30
0.0
  0
LWPOLYLINE
  5
4af
100
AcDbEntity
  8
0
 62
7
100
AcDbPolyline
 90
2
 70
0
 10
1650.435565
 20
1103.127841
 30
0.0
 10
1661.482502
 20
1109.505841
 30
0.0
  0
LWPOLYLINE
  5
4b0
100
AcDbEntity
  8
0
 62
7
100
AcDbPolyline
 90
2
 70
0
 10
1646.183597
 20
1110.492466
 30
0.0
 10
1657.230535
 20
1116.870467
 30
0.0
  0
LWPOLYLINE
  5
4b1
100
AcDbEntity
  8
0
 62
7
100
AcDbPolyline
 90
2
 70
0
 10
1646.183597
 20
1054.947242
 30
0.0
 10
1650.435565
 20
1062.311866
 30
0.0
  0
LWPOLYLINE
  5
4b2
100
AcDbEntity
  8
0
 62
7
100
AcDbPolyline
 90
2
 70
0
 10
1646.183597
 20
1054.947242
 30
0.0
 10
1657.230535
 20
1048.569317
 30
0.0
  0
LWPOLYLINE
  5
4b3
100
AcDbEntity
  8
0
 62
7
100
AcDbPolyline
 90
2
 70
0
 10
1650.435565
 20
1062.311866
 30
0.0
 10
1661.482502
 20
1055.933941
 30
0.0
  0
LWPOLYLINE
  5
4b4
100
AcDbEntity
  8
0
 62
7
100
AcDbPolyline
 90
2
 70
0
 10
1612.253252
 20
1020.366016
 30
0.0
 10
1642.583957
 20
1020.366016
 30
0.0
  0
LWPOLYLINE
  5
4b5
100
AcDbEntity
  8
0
 62
7
100
AcDbPolyline
 90
2
 70
0
 10
1657.749310
 20
1118.806516
 30
0.0
 10
1642.583957
 20
1145.073691
 30
0.0
  0
LWPOLYLINE
  5
4b6
100
AcDbEntity
  8
0
 62
7
100
AcDbPolyline
 90
2
 70
0
 10
1663.418605
 20
1056.452716
 30
0.0
 10
1678.583957
 20
1082.719891
 30
0.0
  0
LWPOLYLINE
  5
4b7
100
AcDbEntity
  8
0
 62
7
100
AcDbPolyline
 90
2
 70
0
 10
1600.914670
 20
1145.073691
 30
0.0
 10
1570.583959
 20
1145.073691
 30
0.0
  0
LWPOLYLINE
  5
4b8
100
AcDbEntity
  8
0
 62
7
100
AcDbPolyline
 90
2
 70
0
 10
1549.749310
 20
1108.987066
 30
0.0
 10
1534.583957
 20
1082.719891
 30
0.0
  0
LWPOLYLINE
  5
4b9
100
AcDbEntity
  8
0
 62
7
100
AcDbPolyline
 90
2
 70
0
 10
1555.418605
 20
1046.633191
 30
0.0
 10
1570.583959
 20
1020.366016
 30
0.0
  0
LWPOLYLINE
  5
4ba
100
AcDbEntity
  8
0
 62
7
100
AcDbPolyline
 90
2
 70
0
 10
1551.685412
 20
1055.933941
 30
0.0
 10
1549.749310
 20
1056.452716
 30
0.0
  0
LWPOLYLINE
  5
4bb
100
AcDbEntity
  8
0
 62
7
100
AcDbPolyline
 90
2
 70
0
 10
1551.685412
 20
1109.505841
 30
0.0
 10
1549.749310
 20
1108.987066
 30
0.0
  0
LWPOLYLINE
  5
4bc
100
AcDbEntity
  8
0
 62
7
100
AcDbPolyline
 90
2
 70
0
 10
1555.418605
 20
1118.806516
 30
0.0
 10
1555.937380
 20
1116.870467
 30
0.0
  0
LWPOLYLINE
  5
4bd
100
AcDbEntity
  8
0
 62
7
100
AcDbPolyline
 90
2
 70
0
 10
1602.331990
 20
1143.656341
 30
0.0
 10
1600.914670
 20
1145.073691
 30
0.0
  0
LWPOLYLINE
  5
4be
100
AcDbEntity
  8
0
 62
7
100
AcDbPolyline
 90
2
 70
0
 10
1610.835925
 20
1143.656341
 30
0.0
 10
1612.253252
 20
1145.073691
 30
0.0
  0
LWPOLYLINE
  5
4bf
100
AcDbEntity
  8
0
 62
7
100
AcDbPolyline
 90
2
 70
0
 10
1657.230535
 20
1116.870467
 30
0.0
 10
1657.749310
 20
1118.806516
 30
0.0
  0
LWPOLYLINE
  5
4c0
100
AcDbEntity
  8
0
 62
7
100
AcDbPolyline
 90
2
 70
0
 10
1661.482502
 20
1109.505841
 30
0.0
 10
1663.418605
 20
1108.987066
 30
0.0
  0
LWPOLYLINE
  5
4c1
100
AcDbEntity
  8
0
 62
7
100
AcDbPolyline
 90
2
 70
0
 10
1661.482502
 20
1055.933941
 30
0.0
 10
1663.418605
 20
1056.452716
 30
0.0
  0
LWPOLYLINE
  5
4c2
100
AcDbEntity
  8
0
 62
7
100
AcDbPolyline
 90
2
 70
0
 10
1657.230535
 20
1048.569317
 30
0.0
 10
1657.749310
 20
1046.633191
 30
0.0
  0
LWPOLYLINE
  5
4c3
100
AcDbEntity
  8
0
 62
7
100
AcDbPolyline
 90
2
 70
0
 10
1610.835925
 20
1021.783366
 30
0.0
 10
1612.253252
 20
1020.366016
 30
0.0
  0
LWPOLYLINE
  5
4c4
100
AcDbEntity
  8
0
 62
7
100
AcDbPolyline
 90
2
 70
0
 10
1602.331990
 20
1021.783366
 30
0.0
 10
1600.914670
 20
1020.366016
 30
0.0
  0
LWPOLYLINE
  5
4c5
100
AcDbEntity
  8
0
 62
7
100
AcDbPolyline
 90
2
 70
0
 10
1555.937380
 20
1048.569317
 30
0.0
 10
1555.418605
 20
1046.633191
 30
0.0
  0
LWPOLYLINE
  5
4c6
100
AcDbEntity
  8
0
 62
7
100
AcDbPolyline
 90
2
 70
0
 10
1721.860159
 20
1151.385609
 30
0.0
 10
1752.190870
 20
1151.385609
 30
0.0
  0
LWPOLYLINE
  5
4c7
100
AcDbEntity
  8
0
 62
7
100
AcDbPolyline
 90
2
 70
0
 10
1793.860157
 20
1151.385609
 30
0.0
 10
1809.025510
 20
1177.652784
 30
0.0
  0
LWPOLYLINE
  5
4c8
100
AcDbEntity
  8
0
 62
7
100
AcDbPolyline
 90
2
 70
0
 10
1829.860157
 20
1213.739484
 30
0.0
 10
1814.694805
 20
1240.006659
 30
0.0
  0
LWPOLYLINE
  5
4c9
100
AcDbEntity
  8
0
 62
7
100
AcDbPolyline
 90
2
 70
0
 10
1793.860157
 20
1276.093284
 30
0.0
 10
1763.529452
 20
1276.093284
 30
0.0
  0
LWPOLYLINE
  5
4ca
100
AcDbEntity
  8
0
 62
7
100
AcDbPolyline
 90
2
 70
0
 10
1721.860159
 20
1276.093284
 30
0.0
 10
1706.694805
 20
1249.826109
 30
0.0
  0
LWPOLYLINE
  5
4cb
100
AcDbEntity
  8
0
 62
7
100
AcDbPolyline
 90
2
 70
0
 10
1685.860157
 20
1213.739484
 30
0.0
 10
1701.025510
 20
1187.472309
 30
0.0
  0
LWPOLYLINE
  5
4cc
100
AcDbEntity
  8
0
 62
7
100
AcDbPolyline
 90
2
 70
0
 10
1714.008550
 20
1193.331459
 30
0.0
 10
1718.260519
 20
1185.966834
 30
0.0
  0
LWPOLYLINE
  5
4cd
100
AcDbEntity
  8
0
 62
7
100
AcDbPolyline
 90
2
 70
0
 10
1753.608190
 20
1165.558884
 30
0.0
 10
1762.112125
 20
1165.558884
 30
0.0
  0
LWPOLYLINE
  5
4ce
100
AcDbEntity
  8
0
 62
7
100
AcDbPolyline
 90
2
 70
0
 10
1753.608190
 20
1165.558884
 30
0.0
 10
1753.608190
 20
1152.802959
 30
0.0
  0
LWPOLYLINE
  5
4cf
100
AcDbEntity
  8
0
 62
7
100
AcDbPolyline
 90
2
 70
0
 10
1762.112125
 20
1165.558884
 30
0.0
 10
1762.112125
 20
1152.802959
 30
0.0
  0
LWPOLYLINE
  5
4d0
100
AcDbEntity
  8
0
 62
7
100
AcDbPolyline
 90
2
 70
0
 10
1714.008550
 20
1193.331459
 30
0.0
 10
1702.961612
 20
1186.953534
 30
0.0
  0
LWPOLYLINE
  5
4d1
100
AcDbEntity
  8
0
 62
7
100
AcDbPolyline
 90
2
 70
0
 10
1718.260519
 20
1185.966834
 30
0.0
 10
1707.213580
 20
1179.588909
 30
0.0
  0
LWPOLYLINE
  5
4d2
100
AcDbEntity
  8
0
 62
7
100
AcDbPolyline
 90
2
 70
0
 10
1718.260519
 20
1241.512059
 30
0.0
 10
1714.008550
 20
1234.147434
 30
0.0
  0
LWPOLYLINE
  5
4d3
100
AcDbEntity
  8
0
 62
7
100
AcDbPolyline
 90
2
 70
0
 10
1718.260519
 20
1241.512059
 30
0.0
 10
1707.213580
 20
1247.890059
 30
0.0
  0
LWPOLYLINE
  5
4d4
100
AcDbEntity
  8
0
 62
7
100
AcDbPolyline
 90
2
 70
0
 10
1714.008550
 20
1234.147434
 30
0.0
 10
1702.961612
 20
1240.525434
 30
0.0
  0
LWPOLYLINE
  5
4d5
100
AcDbEntity
  8
0
 62
7
100
AcDbPolyline
 90
2
 70
0
 10
1762.112125
 20
1261.920084
 30
0.0
 10
1753.608190
 20
1261.920084
 30
0.0
  0
LWPOLYLINE
  5
4d6
100
AcDbEntity
  8
0
 62
7
100
AcDbPolyline
 90
2
 70
0
 10
1762.112125
 20
1261.920084
 30
0.0
 10
1762.112125
 20
1274.675934
 30
0.0
  0
LWPOLYLINE
  5
4d7
100
AcDbEntity
  8
0
 62
7
100
AcDbPolyline
 90
2
 70
0
 10
1753.608190
 20
1261.920084
 30
0.0
 10
1753.608190
 20
1274.675934
 30
0.0
  0
LWPOLYLINE
  5
4d8
100
AcDbEntity
  8
0
 62
7
100
AcDbPolyline
 90
2
 70
0
 10
1801.711765
 20
1234.147434
 30
0.0
 10
1797.459797
 20
1241.512059
 30
0.0
  0
LWPOLYLINE
  5
4d9
100
AcDbEntity
  8
0
 62
7
100
AcDbPolyline
 90
2
 70
0
 10
1801.711765
 20
1234.147434
 30
0.0
 10
1812.758702
 20
1240.525434
 30
0.0
  0
LWPOLYLINE
  5
4da
100
AcDbEntity
  8
0
 62
7
100
AcDbPolyline
 90
2
 70
0
 10
1797.459797
 20
1241.512059
 30
0.0
 10
1808.506735
 20
1247.890059
 30
0.0
  0
LWPOLYLINE
  5
4db
100
AcDbEntity
  8
0
 62
7
100
AcDbPolyline
 90
2
 70
0
 10
1797.459797
 20
1185.966834
 30
0.0
 10
1801.711765
 20
1193.331459
 30
0.0
  0
LWPOLYLINE
  5
4dc
100
AcDbEntity
  8
0
 62
7
100
AcDbPolyline
 90
2
 70
0
 10
1797.459797
 20
1185.966834
 30
0.0
 10
1808.506735
 20
1179.588909
 30
0.0
  0
LWPOLYLINE
  5
4dd
100
AcDbEntity
  8
0
 62
7
100
AcDbPolyline
 90
2
 70
0
 10
1801.711765
 20
1193.331459
 30
0.0
 10
1812.758702
 20
1186.953534
 30
0.0
  0
LWPOLYLINE
  5
4de
100
AcDbEntity
  8
0
 62
7
100
AcDbPolyline
 90
2
 70
0
 10
1763.529452
 20
1151.385609
 30
0.0
 10
1793.860157
 20
1151.385609
 30
0.0
  0
LWPOLYLINE
  5
4df
100
AcDbEntity
  8
0
 62
7
100
AcDbPolyline
 90
2
 70
0
 10
1809.025510
 20
1249.826109
 30
0.0
 10
1793.860157
 20
1276.093284
 30
0.0
  0
LWPOLYLINE
  5
4e0
100
AcDbEntity
  8
0
 62
7
100
AcDbPolyline
 90
2
 70
0
 10
1814.694805
 20
1187.472309
 30
0.0
 10
1829.860157
 20
1213.739484
 30
0.0
  0
LWPOLYLINE
  5
4e1
100
AcDbEntity
  8
0
 62
7
100
AcDbPolyline
 90
2
 70
0
 10
1752.190870
 20
1276.093284
 30
0.0
 10
1721.860159
 20
1276.093284
 30
0.0
  0
LWPOLYLINE
  5
4e2
100
AcDbEntity
  8
0
 62
7
100
AcDbPolyline
 90
2
 70
0
 10
1701.025510
 20
1240.006659
 30
0.0
 10
1685.860157
 20
1213.739484
 30
0.0
  0
LWPOLYLINE
  5
4e3
100
AcDbEntity
  8
0
 62
7
100
AcDbPolyline
 90
2
 70
0
 10
1706.694805
 20
1177.652784
 30
0.0
 10
1721.860159
 20
1151.385609
 30
0.0
  0
LWPOLYLINE
  5
4e4
100
AcDbEntity
  8
0
 62
7
100
AcDbPolyline
 90
2
 70
0
 10
1702.961612
 20
1186.953534
 30
0.0
 10
1701.025510
 20
1187.472309
 30
0.0
  0
LWPOLYLINE
  5
4e5
100
AcDbEntity
  8
0
 62
7
100
AcDbPolyline
 90
2
 70
0
 10
1702.961612
 20
1240.525434
 30
0.0
 10
1701.025510
 20
1240.006659
 30
0.0
  0
LWPOLYLINE
  5
4e6
100
AcDbEntity
  8
0
 62
7
100
AcDbPolyline
 90
2
 70
0
 10
1706.694805
 20
1249.826109
 30
0.0
 10
1707.213580
 20
1247.890059
 30
0.0
  0
LWPOLYLINE
  5
4e7
100
AcDbEntity
  8
0
 62
7
100
AcDbPolyline
 90
2
 70
0
 10
1753.608190
 20
1274.675934
 30
0.0
 10
1752.190870
 20
1276.093284
 30
0.0
  0
LWPOLYLINE
  5
4e8
100
AcDbEntity
  8
0
 62
7
100
AcDbPolyline
 90
2
 70
0
 10
1762.112125
 20
1274.675934
 30
0.0
 10
1763.529452
 20
1276.093284
 30
0.0
  0
LWPOLYLINE
  5
4e9
100
AcDbEntity
  8
0
 62
7
100
AcDbPolyline
 90
2
 70
0
 10
1808.506735
 20
1247.890059
 30
0.0
 10
1809.025510
 20
1249.826109
 30
0.0
  0
LWPOLYLINE
  5
4ea
100
AcDbEntity
  8
0
 62
7
100
AcDbPolyline
 90
2
 70
0
 10
1812.758702
 20
1240.525434
 30
0.0
 10
1814.694805
 20
1240.006659
 30
0.0
  0
LWPOLYLINE
  5
4eb
100
AcDbEntity
  8
0
 62
7
100
AcDbPolyline
 90
2
 70
0
 10
1812.758702
 20
1186.953534
 30
0.0
 10
1814.694805
 20
1187.472309
 30
0.0
  0
LWPOLYLINE
  5
4ec
100
AcDbEntity
  8
0
 62
7
100
AcDbPolyline
 90
2
 70
0
 10
1808.506735
 20
1179.588909
 30
0.0
 10
1809.025510
 20
1177.652784
 30
0.0
  0
LWPOLYLINE
  5
4ed
100
AcDbEntity
  8
0
 62
7
100
AcDbPolyline
 90
2
 70
0
 10
1762.112125
 20
1152.802959
 30
0.0
 10
1763.529452
 20
1151.385609
 30
0.0
  0
LWPOLYLINE
  5
4ee
100
AcDbEntity
  8
0
 62
7
100
AcDbPolyline
 90
2
 70
0
 10
1753.608190
 20
1152.802959
 30
0.0
 10
1752.190870
 20
1151.385609
 30
0.0
  0
LWPOLYLINE
  5
4ef
100
AcDbEntity
  8
0
 62
7
100
AcDbPolyline
 90
2
 70
0
 10
1707.213580
 20
1179.588909
 30
0.0
 10
1706.694805
 20
1177.652784
 30
0.0
  0
LWPOLYLINE
  5
4f0
100
AcDbEntity
  8
0
 62
7
100
AcDbPolyline
 90
2
 70
0
 10
1721.860159
 20
1020.366016
 30
0.0
 10
1752.190870
 20
1020.366016
 30
0.0
  0
LWPOLYLINE
  5
4f1
100
AcDbEntity
  8
0
 62
7
100
AcDbPolyline
 90
2
 70
0
 10
1793.860157
 20
1020.366016
 30
0.0
 10
1809.025510
 20
1046.633191
 30
0.0
  0
LWPOLYLINE
  5
4f2
100
AcDbEntity
  8
0
 62
7
100
AcDbPolyline
 90
2
 70
0
 10
1829.860157
 20
1082.719891
 30
0.0
 10
1814.694805
 20
1108.987066
 30
0.0
  0
LWPOLYLINE
  5
4f3
100
AcDbEntity
  8
0
 62
7
100
AcDbPolyline
 90
2
 70
0
 10
1793.860157
 20
1145.073691
 30
0.0
 10
1763.529452
 20
1145.073691
 30
0.0
  0
LWPOLYLINE
  5
4f4
100
AcDbEntity
  8
0
 62
7
100
AcDbPolyline
 90
2
 70
0
 10
1721.860159
 20
1145.073691
 30
0.0
 10
1706.694805
 20
1118.806516
 30
0.0
  0
LWPOLYLINE
  5
4f5
100
AcDbEntity
  8
0
 62
7
100
AcDbPolyline
 90
2
 70
0
 10
1685.860157
 20
1082.719891
 30
0.0
 10
1701.025510
 20
1056.452716
 30
0.0
  0
LWPOLYLINE
  5
4f6
100
AcDbEntity
  8
0
 62
7
100
AcDbPolyline
 90
2
 70
0
 10
1714.008550
 20
1062.311866
 30
0.0
 10
1718.260519
 20
1054.947242
 30
0.0
  0
LWPOLYLINE
  5
4f7
100
AcDbEntity
  8
0
 62
7
100
AcDbPolyline
 90
2
 70
0
 10
1753.608190
 20
1034.539291
 30
0.0
 10
1762.112125
 20
1034.539291
 30
0.0
  0
LWPOLYLINE
  5
4f8
100
AcDbEntity
  8
0
 62
7
100
AcDbPolyline
 90
2
 70
0
 10
1753.608190
 20
1034.539291
 30
0.0
 10
1753.608190
 20
1021.783366
 30
0.0
  0
LWPOLYLINE
  5
4f9
100
AcDbEntity
  8
0
 62
7
100
AcDbPolyline
 90
2
 70
0
 10
1762.112125
 20
1034.539291
 30
0.0
 10
1762.112125
 20
1021.783366
 30
0.0
  0
LWPOLYLINE
  5
4fa
100
AcDbEntity
  8
0
 62
7
100
AcDbPolyline
 90
2
 70
0
 10
1714.008550
 20
1062.311866
 30
0.0
 10
1702.961612
 20
1055.933941
 30
0.0
  0
LWPOLYLINE
  5
4fb
100
AcDbEntity
  8
0
 62
7
100
AcDbPolyline
 90
2
 70
0
 10
1718.260519
 20
1054.947242
 30
0.0
 10
1707.213580
 20
1048.569317
 30
0.0
  0
LWPOLYLINE
  5
4fc
100
AcDbEntity
  8
0
 62
7
100
AcDbPolyline
 90
2
 70
0
 10
1718.260519
 20
1110.492466
 30
0.0
 10
1714.008550
 20
1103.127841
 30
0.0
  0
LWPOLYLINE
  5
4fd
100
AcDbEntity
  8
0
 62
7
100
AcDbPolyline
 90
2
 70
0
 10
1718.260519
 20
1110.492466
 30
0.0
 10
1707.213580
 20
1116.870467
 30
0.0
  0
LWPOLYLINE
  5
4fe
100
AcDbEntity
  8
0
 62
7
100
AcDbPolyline
 90
2
 70
0
 10
1714.008550
 20
1103.127841
 30
0.0
 10
1702.961612
 20
1109.505841
 30
0.0
  0
LWPOLYLINE
  5
4ff
100
AcDbEntity
  8
0
 62
7
100
AcDbPolyline
 90
2
 70
0
 10
1762.112125
 20
1130.900492
 30
0.0
 10
1753.608190
 20
1130.900492
 30
0.0
  0
LWPOLYLINE
  5
500
100
AcDbEntity
  8
0
 62
7
100
AcDbPolyline
 90
2
 70
0
 10
1762.112125
 20
1130.900492
 30
0.0
 10
1762.112125
 20
1143.656341
 30
0.0
  0
LWPOLYLINE
  5
501
100
AcDbEntity
  8
0
 62
7
100
AcDbPolyline
 90
2
 70
0
 10
1753.608190
 20
1130.900492
 30
0.0
 10
1753.608190
 20
1143.656341
 30
0.0
  0
LWPOLYLINE
  5
502
100
AcDbEntity
  8
0
 62
7
100
AcDbPolyline
 90
2
 70
0
 10
1801.711765
 20
1103.127841
 30
0.0
 10
1797.459797
 20
1110.492466
 30
0.0
  0
LWPOLYLINE
  5
503
100
AcDbEntity
  8
0
 62
7
100
AcDbPolyline
 90
2
 70
0
 10
1801.711765
 20
1103.127841
 30
0.0
 10
1812.758702
 20
1109.505841
 30
0.0
  0
LWPOLYLINE
  5
504
100
AcDbEntity
  8
0
 62
7
100
AcDbPolyline
 90
2
 70
0
 10
1797.459797
 20
1110.492466
 30
0.0
 10
1808.506735
 20
1116.870467
 30
0.0
  0
LWPOLYLINE
  5
505
100
AcDbEntity
  8
0
 62
7
100
AcDbPolyline
 90
2
 70
0
 10
1797.459797
 20
1054.947242
 30
0.0
 10
1801.711765
 20
1062.311866
 30
0.0
  0
LWPOLYLINE
  5
506
100
AcDbEntity
  8
0
 62
7
100
AcDbPolyline
 90
2
 70
0
 10
1797.459797
 20
1054.947242
 30
0.0
 10
1808.506735
 20
1048.569317
 30
0.0
  0
LWPOLYLINE
  5
507
100
AcDbEntity
  8
0
 62
7
100
AcDbPolyline
 90
2
 70
0
 10
1801.711765
 20
1062.311866
 30
0.0
 10
1812.758702
 20
1055.933941
 30
0.0
  0
LWPOLYLINE
  5
508
100
AcDbEntity
  8
0
 62
7
100
AcDbPolyline
 90
2
 70
0
 10
1763.529452
 20
1020.366016
 30
0.0
 10
1793.860157
 20
1020.366016
 30
0.0
  0
LWPOLYLINE
  5
509
100
AcDbEntity
  8
0
 62
7
100
AcDbPolyline
 90
2
 70
0
 10
1809.025510
 20
1118.806516
 30
0.0
 10
1793.860157
 20
1145.073691
 30
0.0
  0
LWPOLYLINE
  5
50a
100
AcDbEntity
  8
0
 62
7
100
AcDbPolyline
 90
2
 70
0
 10
1814.694805
 20
1056.452716
 30
0.0
 10
1829.860157
 20
1082.719891
 30
0.0
  0
LWPOLYLINE
  5
50b
100
AcDbEntity
  8
0
 62
7
100
AcDbPolyline
 90
2
 70
0
 10
1752.190870
 20
1145.073691
 30
0.0
 10
1721.860159
 20
1145.073691
 30
0.0
  0
LWPOLYLINE
  5
50c
100
AcDbEntity
  8
0
 62
7
100
AcDbPolyline
 90
2
 70
0
 10
1701.025510
 20
1108.987066
 30
0.0
 10
1685.860157
 20
1082.719891
 30
0.0
  0
LWPOLYLINE
  5
50d
100
AcDbEntity
  8
0
 62
7
100
AcDbPolyline
 90
2
 70
0
 10
1706.694805
 20
1046.633191
 30
0.0
 10
1721.860159
 20
1020.366016
 30
0.0
  0
LWPOLYLINE
  5
50e
100
AcDbEntity
  8
0
 62
7
100
AcDbPolyline
 90
2
 70
0
 10
1702.961612
 20
1055.933941
 30
0.0
 10
1701.025510
 20
1056.452716
 30
0.0
  0
LWPOLYLINE
  5
50f
100
AcDbEntity
  8
0
 62
7
100
AcDbPolyline
 90
2
 70
0
 10
1702.961612
 20
1109.505841
 30
0.0
 10
1701.025510
 20
1108.987066
 30
0.0
  0
LWPOLYLINE
  5
510
100
AcDbEntity
  8
0
 62
7
100
AcDbPolyline
 90
2
 70
0
 10
1706.694805
 20
1118.806516
 30
0.0
 10
1707.213580
 20
1116.870467
 30
0.0
  0
LWPOLYLINE
  5
511
100
AcDbEntity
  8
0
 62
7
100
AcDbPolyline
 90
2
 70
0
 10
1753.608190
 20
1143.656341
 30
0.0
 10
1752.190870
 20
1145.073691
 30
0.0
  0
LWPOLYLINE
  5
512
100
AcDbEntity
  8
0
 62
7
100
AcDbPolyline
 90
2
 70
0
 10
1762.112125
 20
1143.656341
 30
0.0
 10
1763.529452
 20
1145.073691
 30
0.0
  0
LWPOLYLINE
  5
513
100
AcDbEntity
  8
0
 62
7
100
AcDbPolyline
 90
2
 70
0
 10
1808.506735
 20
1116.870467
 30
0.0
 10
1809.025510
 20
1118.806516
 30
0.0
  0
LWPOLYLINE
  5
514
100
AcDbEntity
  8
0
 62
7
100
AcDbPolyline
 90
2
 70
0
 10
1812.758702
 20
1109.505841
 30
0.0
 10
1814.694805
 20
1108.987066
 30
0.0
  0
LWPOLYLINE
  5
515
100
AcDbEntity
  8
0
 62
7
100
AcDbPolyline
 90
2
 70
0
 10
1812.758702
 20
1055.933941
 30
0.0
 10
1814.694805
 20
1056.452716
 30
0.0
  0
LWPOLYLINE
  5
516
100
AcDbEntity
  8
0
 62
7
100
AcDbPolyline
 90
2
 70
0
 10
1808.506735
 20
1048.569317
 30
0.0
 10
1809.025510
 20
1046.633191
 30
0.0
  0
LWPOLYLINE
  5
517
100
AcDbEntity
  8
0
 62
7
100
AcDbPolyline
 90
2
 70
0
 10
1762.112125
 20
1021.783366
 30
0.0
 10
1763.529452
 20
1020.366016
 30
0.0
  0
LWPOLYLINE
  5
518
100
AcDbEntity
  8
0
 62
7
100
AcDbPolyline
 90
2
 70
0
 10
1753.608190
 20
1021.783366
 30
0.0
 10
1752.190870
 20
1020.366016
 30
0.0
  0
LWPOLYLINE
  5
519
100
AcDbEntity
  8
0
 62
7
100
AcDbPolyline
 90
2
 70
0
 10
1707.213580
 20
1048.569317
 30
0.0
 10
1706.694805
 20
1046.633191
 30
0.0
  0
ENDSEC
  0
SECTION
  2
OBJECTS
  0
DICTIONARY
  5
C
330
0
100
AcDbDictionary
  3
ACAD_GROUP
350
D
  3
ACAD_MLINESTYLE
350
17
  0
DICTIONARY
  5
D
330
C
100
AcDbDictionary
  0
DICTIONARY
  5
1A
330
C
100
AcDbDictionary
  0
DICTIONARY
  5
17
330
C
100
AcDbDictionary
  3
STANDARD
350
18
  0
DICTIONARY
  5
19
330
C
100
AcDbDictionary
  0
ENDSEC
  0
EOF
