  0
SECTION
  2
HEADER
  9
$ACADVER
  1
AC1014
  9
$HANDSEED
  5
FFFF
  9
$MEASUREMENT
 70
     1
  0
ENDSEC
  0
SECTION
  2
TABLES
  0
TABLE
  2
VPORT
  5
8
330
0
100
AcDbSymbolTable
 70
     4
  0
VPORT
  5
2E
330
8
100
AcDbSymbolTableRecord
100
AcDbViewportTableRecord
  2
*ACTIVE
 70
     0
 10
0.0
 20
0.0
 11
1.0
 21
1.0
 12
210.0
 22
148.5
 13
0.0
 23
0.0
 14
10.0
 24
10.0
 15
10.0
 25
10.0
 16
0.0
 26
0.0
 36
1.0
 17
0.0
 27
0.0
 37
0.0
 40
341.0
 41
1.24
 42
50.0
 43
0.0
 44
0.0
 50
0.0
 51
0.0
 71
     0
 72
   100
 73
     1
 74
     3
 75
     0
 76
     0
 77
     0
 78
     0
  0
ENDTAB
  0
TABLE
  2
LTYPE
  5
5
330
0
100
AcDbSymbolTable
 70
     1
  0
LTYPE
  5
14
330
5
100
AcDbSymbolTableRecord
100
AcDbLinetypeTableRecord
  2
BYBLOCK
 70
     0
  3

 72
    65
 73
     0
 40
0.0
  0
LTYPE
  5
15
330
5
100
AcDbSymbolTableRecord
100
AcDbLinetypeTableRecord
  2
BYLAYER
 70
     0
  3

 72
    65
 73
     0
 40
0.0
  0
LTYPE
  5
16
330
5
100
AcDbSymbolTableRecord
100
AcDbLinetypeTableRecord
  2
CONTINUOUS
 70
     0
  3
Solid line
 72
    65
 73
     0
 40
0.0
  0
ENDTAB
  0
TABLE
  2
LAYER
  5
2
100
AcDbSymbolTable
 70
1
  0
LAYER
  5
50
100
AcDbSymbolTableRecord
100
AcDbLayerTableRecord
  2
0
 70
0
  6
CONTINUOUS
  0
ENDTAB
  0
TABLE
  2
STYLE
  5
3
330
0
100
AcDbSymbolTable
 70
     1
  0
STYLE
  5
11
330
3
100
AcDbSymbolTableRecord
100
AcDbTextStyleTableRecord
  2
STANDARD
 70
     0
 40
0.0
 41
1.0
 50
0.0
 71
     0
 42
2.5
  3
txt
  4

  0
ENDTAB
  0
TABLE
  2
VIEW
  5
6
330
0
100
AcDbSymbolTable
 70
     0
  0
ENDTAB
  0
TABLE
  2
UCS
  5
7
330
0
100
AcDbSymbolTable
 70
     0
  0
ENDTAB
  0
TABLE
  2
APPID
  5
9
330
0
100
AcDbSymbolTable
 70
     2
  0
APPID
  5
12
330
9
100
AcDbSymbolTableRecord
100
AcDbRegAppTableRecord
  2
ACAD
 70
     0
  0
ENDTAB
  0
TABLE
  2
DIMSTYLE
  5
A
330
0
100
AcDbSymbolTable
 70
     1
  0
DIMSTYLE
105
27
330
A
100
AcDbSymbolTableRecord
100
AcDbDimStyleTableRecord
  2
ISO-25
 70
     0
  3

  4

  5

  6

  7

 40
1.0
 41
2.5
 42
0.625
 43
3.75
 44
1.25
 45
0.0
 46
0.0
 47
0.0
 48
0.0
140
2.5
141
2.5
142
0.0
143
0.03937007874016
144
1.0
145
0.0
146
1.0
147
0.625
 71
     0
 72
     0
 73
     0
 74
     0
 75
     0
 76
     0
 77
     1
 78
     8
170
     0
171
     3
172
     1
173
     0
174
     0
175
     0
176
     0
177
     0
178
     0
270
     2
271
     2
272
     2
273
     2
274
     3
340
11
275
     0
280
     0
281
     0
282
     0
283
     0
284
     8
285
     0
286
     0
287
     3
288
     0
  0
ENDTAB
  0
TABLE
  2
BLOCK_RECORD
  5
1
330
0
100
AcDbSymbolTable
 70
     1
  0
BLOCK_RECORD
  5
1F
330
1
100
AcDbSymbolTableRecord
100
AcDbBlockTableRecord
  2
*MODEL_SPACE
  0
BLOCK_RECORD
  5
1B
330
1
100
AcDbSymbolTableRecord
100
AcDbBlockTableRecord
  2
*PAPER_SPACE
  0
ENDTAB
  0
ENDSEC
  0
SECTION
  2
BLOCKS
  0
BLOCK
  5
20
330
1F
100
AcDbEntity
  8
0
100
AcDbBlockBegin
  2
*MODEL_SPACE
 70
     0
 10
0.0
 20
0.0
 30
0.0
  3
*MODEL_SPACE
  1

  0
ENDBLK
  5
21
330
1F
100
AcDbEntity
  8
0
100
AcDbBlockEnd
  0
BLOCK
  5
1C
330
1B
100
AcDbEntity
 67
     1
  8
0
100
AcDbBlockBegin
  2
*PAPER_SPACE
  1

  0
ENDBLK
  5
1D
330
1B
100
AcDbEntity
 67
     1
  8
0
100
AcDbBlockEnd
  0
ENDSEC
  0
SECTION
  2
ENTITIES
  0
LWPOLYLINE
  5
100
100
AcDbEntity
  8
0
 62
7
100
AcDbPolyline
 90
2
 70
0
 10
48.448329
 20
727.586317
 30
0.0
 10
45.820324
 20
735.674460
 30
0.0
  0
LWPOLYLINE
  5
101
100
AcDbEntity
  8
0
 62
7
100
AcDbPolyline
 90
2
 70
0
 10
119.550600
 20
691.870590
 30
0.0
 10
129.294173
 20
721.858252
 30
0.0
  0
LWPOLYLINE
  5
102
100
AcDbEntity
  8
0
 62
7
100
AcDbPolyline
 90
2
 70
0
 10
142.541760
 20
762.630157
 30
0.0
 10
117.032738
 20
781.163504
 30
0.0
  0
LWPOLYLINE
  5
103
100
AcDbEntity
  8
0
 62
7
100
AcDbPolyline
 90
2
 70
0
 10
82.350120
 20
806.361904
 30
0.0
 10
56.841093
 20
787.828534
 30
0.0
  0
LWPOLYLINE
  5
104
100
AcDbEntity
  8
0
 62
7
100
AcDbPolyline
 90
2
 70
0
 10
22.158478
 20
762.630157
 30
0.0
 10
31.902055
 20
732.642487
 30
0.0
  0
LWPOLYLINE
  5
105
100
AcDbEntity
  8
0
 62
7
100
AcDbPolyline
 90
2
 70
0
 10
45.149638
 20
691.870590
 30
0.0
 10
76.680525
 20
691.870590
 30
0.0
  0
LWPOLYLINE
  5
106
100
AcDbEntity
  8
0
 62
7
100
AcDbPolyline
 90
2
 70
0
 10
86.602313
 20
706.044630
 30
0.0
 10
78.097920
 20
706.044630
 30
0.0
  0
LWPOLYLINE
  5
107
100
AcDbEntity
  8
0
 62
7
100
AcDbPolyline
 90
2
 70
0
 10
86.602313
 20
706.044630
 30
0.0
 10
86.602313
 20
693.288007
 30
0.0
  0
LWPOLYLINE
  5
108
100
AcDbEntity
  8
0
 62
7
100
AcDbPolyline
 90
2
 70
0
 10
78.097920
 20
706.044630
 30
0.0
 10
78.097920
 20
693.288007
 30
0.0
  0
LWPOLYLINE
  5
109
100
AcDbEntity
  8
0
 62
7
100
AcDbPolyline
 90
2
 70
0
 10
45.820324
 20
735.674460
 30
0.0
 10
33.688085
 20
731.732452
 30
0.0
  0
LWPOLYLINE
  5
10a
100
AcDbEntity
  8
0
 62
7
100
AcDbPolyline
 90
2
 70
0
 10
48.448329
 20
727.586317
 30
0.0
 10
36.316083
 20
723.644235
 30
0.0
  0
LWPOLYLINE
  5
10b
100
AcDbEntity
  8
0
 62
7
100
AcDbPolyline
 90
3
 70
0
 10
57.145463
 20
770.529670
 30
0.0
 10
64.025671
 20
775.528370
 30
0.0
 10
56.527523
 20
785.848709
 30
0.0
  0
LWPOLYLINE
  5
10c
100
AcDbEntity
  8
0
 62
7
100
AcDbPolyline
 90
2
 70
0
 10
57.145463
 20
770.529670
 30
0.0
 10
49.647321
 20
780.849926
 30
0.0
  0
LWPOLYLINE
  5
10d
100
AcDbEntity
  8
0
 62
7
100
AcDbPolyline
 90
3
 70
0
 10
100.674577
 20
775.528370
 30
0.0
 10
107.554770
 20
770.529670
 30
0.0
 10
115.052917
 20
780.849926
 30
0.0
  0
LWPOLYLINE
  5
10e
100
AcDbEntity
  8
0
 62
7
100
AcDbPolyline
 90
2
 70
0
 10
100.674577
 20
775.528370
 30
0.0
 10
108.172710
 20
785.848709
 30
0.0
  0
LWPOLYLINE
  5
10f
100
AcDbEntity
  8
0
 62
7
100
AcDbPolyline
 90
3
 70
0
 10
118.879920
 20
735.674460
 30
0.0
 10
116.251913
 20
727.586317
 30
0.0
 10
128.384153
 20
723.644235
 30
0.0
  0
LWPOLYLINE
  5
110
100
AcDbEntity
  8
0
 62
7
100
AcDbPolyline
 90
2
 70
0
 10
118.879920
 20
735.674460
 30
0.0
 10
131.012160
 20
731.732452
 30
0.0
  0
LWPOLYLINE
  5
111
100
AcDbEntity
  8
0
 62
7
100
AcDbPolyline
 90
2
 70
0
 10
107.859142
 20
787.828534
 30
0.0
 10
82.350120
 20
806.361904
 30
0.0
  0
LWPOLYLINE
  5
112
100
AcDbEntity
  8
0
 62
7
100
AcDbPolyline
 90
2
 70
0
 10
132.798187
 20
732.642487
 30
0.0
 10
142.541760
 20
762.630157
 30
0.0
  0
LWPOLYLINE
  5
113
100
AcDbEntity
  8
0
 62
7
100
AcDbPolyline
 90
2
 70
0
 10
88.019708
 20
691.870590
 30
0.0
 10
119.550600
 20
691.870590
 30
0.0
  0
LWPOLYLINE
  5
114
100
AcDbEntity
  8
0
 62
7
100
AcDbPolyline
 90
2
 70
0
 10
35.406062
 20
721.858252
 30
0.0
 10
45.149638
 20
691.870590
 30
0.0
  0
LWPOLYLINE
  5
115
100
AcDbEntity
  8
0
 62
7
100
AcDbPolyline
 90
2
 70
0
 10
47.667504
 20
781.163504
 30
0.0
 10
22.158478
 20
762.630157
 30
0.0
  0
LWPOLYLINE
  5
116
100
AcDbEntity
  8
0
 62
7
100
AcDbPolyline
 90
2
 70
0
 10
49.647329
 20
780.849926
 30
0.0
 10
47.667504
 20
781.163504
 30
0.0
  0
LWPOLYLINE
  5
117
100
AcDbEntity
  8
0
 62
7
100
AcDbPolyline
 90
2
 70
0
 10
56.527523
 20
785.848709
 30
0.0
 10
56.841093
 20
787.828534
 30
0.0
  0
LWPOLYLINE
  5
118
100
AcDbEntity
  8
0
 62
7
100
AcDbPolyline
 90
2
 70
0
 10
108.172710
 20
785.848709
 30
0.0
 10
107.859142
 20
787.828534
 30
0.0
  0
LWPOLYLINE
  5
119
100
AcDbEntity
  8
0
 62
7
100
AcDbPolyline
 90
2
 70
0
 10
115.052917
 20
780.849926
 30
0.0
 10
117.032737
 20
781.163504
 30
0.0
  0
LWPOLYLINE
  5
11a
100
AcDbEntity
  8
0
 62
7
100
AcDbPolyline
 90
2
 70
0
 10
131.012160
 20
731.732452
 30
0.0
 10
132.798188
 20
732.642487
 30
0.0
  0
LWPOLYLINE
  5
11b
100
AcDbEntity
  8
0
 62
7
100
AcDbPolyline
 90
2
 70
0
 10
128.384152
 20
723.644235
 30
0.0
 10
129.294173
 20
721.858252
 30
0.0
  0
LWPOLYLINE
  5
11c
100
AcDbEntity
  8
0
 62
7
100
AcDbPolyline
 90
2
 70
0
 10
86.602313
 20
693.288007
 30
0.0
 10
88.019708
 20
691.870590
 30
0.0
  0
LWPOLYLINE
  5
11d
100
AcDbEntity
  8
0
 62
7
100
AcDbPolyline
 90
2
 70
0
 10
76.680525
 20
691.870590
 30
0.0
 10
78.097920
 20
693.288007
 30
0.0
  0
LWPOLYLINE
  5
11e
100
AcDbEntity
  8
0
 62
7
100
AcDbPolyline
 90
2
 70
0
 10
36.316091
 20
723.644235
 30
0.0
 10
35.406062
 20
721.858252
 30
0.0
  0
LWPOLYLINE
  5
11f
100
AcDbEntity
  8
0
 62
7
100
AcDbPolyline
 90
2
 70
0
 10
33.688085
 20
731.732452
 30
0.0
 10
31.902055
 20
732.642487
 30
0.0
  0
LWPOLYLINE
  5
120
100
AcDbEntity
  8
0
 62
7
100
AcDbPolyline
 90
2
 70
0
 10
48.448329
 20
607.301955
 30
0.0
 10
45.820324
 20
615.390097
 30
0.0
  0
LWPOLYLINE
  5
121
100
AcDbEntity
  8
0
 62
7
100
AcDbPolyline
 90
2
 70
0
 10
119.550600
 20
571.586227
 30
0.0
 10
129.294173
 20
601.573890
 30
0.0
  0
LWPOLYLINE
  5
122
100
AcDbEntity
  8
0
 62
7
100
AcDbPolyline
 90
2
 70
0
 10
142.541760
 20
642.345795
 30
0.0
 10
117.032738
 20
660.879142
 30
0.0
  0
LWPOLYLINE
  5
123
100
AcDbEntity
  8
0
 62
7
100
AcDbPolyline
 90
2
 70
0
 10
82.350120
 20
686.077541
 30
0.0
 10
56.841093
 20
667.544171
 30
0.0
  0
LWPOLYLINE
  5
124
100
AcDbEntity
  8
0
 62
7
100
AcDbPolyline
 90
2
 70
0
 10
22.158478
 20
642.345795
 30
0.0
 10
31.902055
 20
612.358125
 30
0.0
  0
LWPOLYLINE
  5
125
100
AcDbEntity
  8
0
 62
7
100
AcDbPolyline
 90
2
 70
0
 10
45.149638
 20
571.586227
 30
0.0
 10
76.680525
 20
571.586227
 30
0.0
  0
LWPOLYLINE
  5
126
100
AcDbEntity
  8
0
 62
7
100
AcDbPolyline
 90
2
 70
0
 10
86.602313
 20
585.760267
 30
0.0
 10
78.097920
 20
585.760267
 30
0.0
  0
LWPOLYLINE
  5
127
100
AcDbEntity
  8
0
 62
7
100
AcDbPolyline
 90
2
 70
0
 10
86.602313
 20
585.760267
 30
0.0
 10
86.602313
 20
573.003645
 30
0.0
  0
LWPOLYLINE
  5
128
100
AcDbEntity
  8
0
 62
7
100
AcDbPolyline
 90
2
 70
0
 10
78.097920
 20
585.760267
 30
0.0
 10
78.097920
 20
573.003645
 30
0.0
  0
LWPOLYLINE
  5
129
100
AcDbEntity
  8
0
 62
7
100
AcDbPolyline
 90
2
 70
0
 10
45.820324
 20
615.390097
 30
0.0
 10
33.688085
 20
611.448090
 30
0.0
  0
LWPOLYLINE
  5
12a
100
AcDbEntity
  8
0
 62
7
100
AcDbPolyline
 90
2
 70
0
 10
48.448329
 20
607.301955
 30
0.0
 10
36.316083
 20
603.359872
 30
0.0
  0
LWPOLYLINE
  5
12b
100
AcDbEntity
  8
0
 62
7
100
AcDbPolyline
 90
3
 70
0
 10
57.145463
 20
650.245307
 30
0.0
 10
64.025671
 20
655.244008
 30
0.0
 10
56.527523
 20
665.564347
 30
0.0
  0
LWPOLYLINE
  5
12c
100
AcDbEntity
  8
0
 62
7
100
AcDbPolyline
 90
2
 70
0
 10
57.145463
 20
650.245307
 30
0.0
 10
49.647321
 20
660.565564
 30
0.0
  0
LWPOLYLINE
  5
12d
100
AcDbEntity
  8
0
 62
7
100
AcDbPolyline
 90
3
 70
0
 10
100.674577
 20
655.244008
 30
0.0
 10
107.554770
 20
650.245307
 30
0.0
 10
115.052917
 20
660.565564
 30
0.0
  0
LWPOLYLINE
  5
12e
100
AcDbEntity
  8
0
 62
7
100
AcDbPolyline
 90
2
 70
0
 10
100.674577
 20
655.244008
 30
0.0
 10
108.172710
 20
665.564347
 30
0.0
  0
LWPOLYLINE
  5
12f
100
AcDbEntity
  8
0
 62
7
100
AcDbPolyline
 90
3
 70
0
 10
118.879920
 20
615.390097
 30
0.0
 10
116.251913
 20
607.301955
 30
0.0
 10
128.384153
 20
603.359872
 30
0.0
  0
LWPOLYLINE
  5
130
100
AcDbEntity
  8
0
 62
7
100
AcDbPolyline
 90
2
 70
0
 10
118.879920
 20
615.390097
 30
0.0
 10
131.012160
 20
611.448090
 30
0.0
  0
LWPOLYLINE
  5
131
100
AcDbEntity
  8
0
 62
7
100
AcDbPolyline
 90
2
 70
0
 10
107.859142
 20
667.544171
 30
0.0
 10
82.350120
 20
686.077541
 30
0.0
  0
LWPOLYLINE
  5
132
100
AcDbEntity
  8
0
 62
7
100
AcDbPolyline
 90
2
 70
0
 10
132.798187
 20
612.358125
 30
0.0
 10
142.541760
 20
642.345795
 30
0.0
  0
LWPOLYLINE
  5
133
100
AcDbEntity
  8
0
 62
7
100
AcDbPolyline
 90
2
 70
0
 10
88.019708
 20
571.586227
 30
0.0
 10
119.550600
 20
571.586227
 30
0.0
  0
LWPOLYLINE
  5
134
100
AcDbEntity
  8
0
 62
7
100
AcDbPolyline
 90
2
 70
0
 10
35.406062
 20
601.573890
 30
0.0
 10
45.149638
 20
571.586227
 30
0.0
  0
LWPOLYLINE
  5
135
100
AcDbEntity
  8
0
 62
7
100
AcDbPolyline
 90
2
 70
0
 10
47.667504
 20
660.879142
 30
0.0
 10
22.158478
 20
642.345795
 30
0.0
  0
LWPOLYLINE
  5
136
100
AcDbEntity
  8
0
 62
7
100
AcDbPolyline
 90
2
 70
0
 10
49.647329
 20
660.565564
 30
0.0
 10
47.667504
 20
660.879142
 30
0.0
  0
LWPOLYLINE
  5
137
100
AcDbEntity
  8
0
 62
7
100
AcDbPolyline
 90
2
 70
0
 10
56.527523
 20
665.564347
 30
0.0
 10
56.841093
 20
667.544171
 30
0.0
  0
LWPOLYLINE
  5
138
100
AcDbEntity
  8
0
 62
7
100
AcDbPolyline
 90
2
 70
0
 10
108.172710
 20
665.564347
 30
0.0
 10
107.859142
 20
667.544171
 30
0.0
  0
LWPOLYLINE
  5
139
100
AcDbEntity
  8
0
 62
7
100
AcDbPolyline
 90
2
 70
0
 10
115.052917
 20
660.565564
 30
0.0
 10
117.032737
 20
660.879142
 30
0.0
  0
LWPOLYLINE
  5
13a
100
AcDbEntity
  8
0
 62
7
100
AcDbPolyline
 90
2
 70
0
 10
131.012160
 20
611.448090
 30
0.0
 10
132.798188
 20
612.358125
 30
0.0
  0
LWPOLYLINE
  5
13b
100
AcDbEntity
  8
0
 62
7
100
AcDbPolyline
 90
2
 70
0
 10
128.384152
 20
603.359872
 30
0.0
 10
129.294173
 20
601.573890
 30
0.0
  0
LWPOLYLINE
  5
13c
100
AcDbEntity
  8
0
 62
7
100
AcDbPolyline
 90
2
 70
0
 10
86.602313
 20
573.003645
 30
0.0
 10
88.019708
 20
571.586227
 30
0.0
  0
LWPOLYLINE
  5
13d
100
AcDbEntity
  8
0
 62
7
100
AcDbPolyline
 90
2
 70
0
 10
76.680525
 20
571.586227
 30
0.0
 10
78.097920
 20
573.003645
 30
0.0
  0
LWPOLYLINE
  5
13e
100
AcDbEntity
  8
0
 62
7
100
AcDbPolyline
 90
2
 70
0
 10
36.316091
 20
603.359872
 30
0.0
 10
35.406062
 20
601.573890
 30
0.0
  0
LWPOLYLINE
  5
13f
100
AcDbEntity
  8
0
 62
7
100
AcDbPolyline
 90
2
 70
0
 10
33.688085
 20
611.448090
 30
0.0
 10
31.902055
 20
612.358125
 30
0.0
  0
LWPOLYLINE
  5
140
100
AcDbEntity
  8
0
 62
7
100
AcDbPolyline
 90
2
 70
0
 10
48.448329
 20
487.017592
 30
0.0
 10
45.820324
 20
495.105735
 30
0.0
  0
LWPOLYLINE
  5
141
100
AcDbEntity
  8
0
 62
7
100
AcDbPolyline
 90
2
 70
0
 10
119.550600
 20
451.301865
 30
0.0
 10
129.294173
 20
481.289527
 30
0.0
  0
LWPOLYLINE
  5
142
100
AcDbEntity
  8
0
 62
7
100
AcDbPolyline
 90
2
 70
0
 10
142.541760
 20
522.061432
 30
0.0
 10
117.032738
 20
540.594779
 30
0.0
  0
LWPOLYLINE
  5
143
100
AcDbEntity
  8
0
 62
7
100
AcDbPolyline
 90
2
 70
0
 10
82.350120
 20
565.793179
 30
0.0
 10
56.841093
 20
547.259809
 30
0.0
  0
LWPOLYLINE
  5
144
100
AcDbEntity
  8
0
 62
7
100
AcDbPolyline
 90
2
 70
0
 10
22.158478
 20
522.061432
 30
0.0
 10
31.902055
 20
492.073762
 30
0.0
  0
LWPOLYLINE
  5
145
100
AcDbEntity
  8
0
 62
7
100
AcDbPolyline
 90
2
 70
0
 10
45.149638
 20
451.301865
 30
0.0
 10
76.680525
 20
451.301865
 30
0.0
  0
LWPOLYLINE
  5
146
100
AcDbEntity
  8
0
 62
7
100
AcDbPolyline
 90
2
 70
0
 10
86.602313
 20
465.475905
 30
0.0
 10
78.097920
 20
465.475905
 30
0.0
  0
LWPOLYLINE
  5
147
100
AcDbEntity
  8
0
 62
7
100
AcDbPolyline
 90
2
 70
0
 10
86.602313
 20
465.475905
 30
0.0
 10
86.602313
 20
452.719282
 30
0.0
  0
LWPOLYLINE
  5
148
100
AcDbEntity
  8
0
 62
7
100
AcDbPolyline
 90
2
 70
0
 10
78.097920
 20
465.475905
 30
0.0
 10
78.097920
 20
452.719282
 30
0.0
  0
LWPOLYLINE
  5
149
100
AcDbEntity
  8
0
 62
7
100
AcDbPolyline
 90
2
 70
0
 10
45.820324
 20
495.105735
 30
0.0
 10
33.688085
 20
491.163727
 30
0.0
  0
LWPOLYLINE
  5
14a
100
AcDbEntity
  8
0
 62
7
100
AcDbPolyline
 90
2
 70
0
 10
48.448329
 20
487.017592
 30
0.0
 10
36.316083
 20
483.075510
 30
0.0
  0
LWPOLYLINE
  5
14b
100
AcDbEntity
  8
0
 62
7
100
AcDbPolyline
 90
3
 70
0
 10
57.145463
 20
529.960945
 30
0.0
 10
64.025671
 20
534.959645
 30
0.0
 10
56.527523
 20
545.279984
 30
0.0
  0
LWPOLYLINE
  5
14c
100
AcDbEntity
  8
0
 62
7
100
AcDbPolyline
 90
2
 70
0
 10
57.145463
 20
529.960945
 30
0.0
 10
49.647321
 20
540.281201
 30
0.0
  0
LWPOLYLINE
  5
14d
100
AcDbEntity
  8
0
 62
7
100
AcDbPolyline
 90
3
 70
0
 10
100.674577
 20
534.959645
 30
0.0
 10
107.554770
 20
529.960945
 30
0.0
 10
115.052917
 20
540.281201
 30
0.0
  0
LWPOLYLINE
  5
14e
100
AcDbEntity
  8
0
 62
7
100
AcDbPolyline
 90
2
 70
0
 10
100.674577
 20
534.959645
 30
0.0
 10
108.172710
 20
545.279984
 30
0.0
  0
LWPOLYLINE
  5
14f
100
AcDbEntity
  8
0
 62
7
100
AcDbPolyline
 90
3
 70
0
 10
118.879920
 20
495.105735
 30
0.0
 10
116.251913
 20
487.017592
 30
0.0
 10
128.384153
 20
483.075510
 30
0.0
  0
LWPOLYLINE
  5
150
100
AcDbEntity
  8
0
 62
7
100
AcDbPolyline
 90
2
 70
0
 10
118.879920
 20
495.105735
 30
0.0
 10
131.012160
 20
491.163727
 30
0.0
  0
LWPOLYLINE
  5
151
100
AcDbEntity
  8
0
 62
7
100
AcDbPolyline
 90
2
 70
0
 10
107.859142
 20
547.259809
 30
0.0
 10
82.350120
 20
565.793179
 30
0.0
  0
LWPOLYLINE
  5
152
100
AcDbEntity
  8
0
 62
7
100
AcDbPolyline
 90
2
 70
0
 10
132.798187
 20
492.073762
 30
0.0
 10
142.541760
 20
522.061432
 30
0.0
  0
LWPOLYLINE
  5
153
100
AcDbEntity
  8
0
 62
7
100
AcDbPolyline
 90
2
 70
0
 10
88.019708
 20
451.301865
 30
0.0
 10
119.550600
 20
451.301865
 30
0.0
  0
LWPOLYLINE
  5
154
100
AcDbEntity
  8
0
 62
7
100
AcDbPolyline
 90
2
 70
0
 10
35.406062
 20
481.289527
 30
0.0
 10
45.149638
 20
451.301865
 30
0.0
  0
LWPOLYLINE
  5
155
100
AcDbEntity
  8
0
 62
7
100
AcDbPolyline
 90
2
 70
0
 10
47.667504
 20
540.594779
 30
0.0
 10
22.158478
 20
522.061432
 30
0.0
  0
LWPOLYLINE
  5
156
100
AcDbEntity
  8
0
 62
7
100
AcDbPolyline
 90
2
 70
0
 10
49.647329
 20
540.281201
 30
0.0
 10
47.667504
 20
540.594779
 30
0.0
  0
LWPOLYLINE
  5
157
100
AcDbEntity
  8
0
 62
7
100
AcDbPolyline
 90
2
 70
0
 10
56.527523
 20
545.279984
 30
0.0
 10
56.841093
 20
547.259809
 30
0.0
  0
LWPOLYLINE
  5
158
100
AcDbEntity
  8
0
 62
7
100
AcDbPolyline
 90
2
 70
0
 10
108.172710
 20
545.279984
 30
0.0
 10
107.859142
 20
547.259809
 30
0.0
  0
LWPOLYLINE
  5
159
100
AcDbEntity
  8
0
 62
7
100
AcDbPolyline
 90
2
 70
0
 10
115.052917
 20
540.281201
 30
0.0
 10
117.032737
 20
540.594779
 30
0.0
  0
LWPOLYLINE
  5
15a
100
AcDbEntity
  8
0
 62
7
100
AcDbPolyline
 90
2
 70
0
 10
131.012160
 20
491.163727
 30
0.0
 10
132.798188
 20
492.073762
 30
0.0
  0
LWPOLYLINE
  5
15b
100
AcDbEntity
  8
0
 62
7
100
AcDbPolyline
 90
2
 70
0
 10
128.384152
 20
483.075510
 30
0.0
 10
129.294173
 20
481.289527
 30
0.0
  0
LWPOLYLINE
  5
15c
100
AcDbEntity
  8
0
 62
7
100
AcDbPolyline
 90
2
 70
0
 10
86.602313
 20
452.719282
 30
0.0
 10
88.019708
 20
451.301865
 30
0.0
  0
LWPOLYLINE
  5
15d
100
AcDbEntity
  8
0
 62
7
100
AcDbPolyline
 90
2
 70
0
 10
76.680525
 20
451.301865
 30
0.0
 10
78.097920
 20
452.719282
 30
0.0
  0
LWPOLYLINE
  5
15e
100
AcDbEntity
  8
0
 62
7
100
AcDbPolyline
 90
2
 70
0
 10
36.316091
 20
483.075510
 30
0.0
 10
35.406062
 20
481.289527
 30
0.0
  0
LWPOLYLINE
  5
15f
100
AcDbEntity
  8
0
 62
7
100
AcDbPolyline
 90
2
 70
0
 10
33.688085
 20
491.163727
 30
0.0
 10
31.902055
 20
492.073762
 30
0.0
  0
LWPOLYLINE
  5
160
100
AcDbEntity
  8
0
 62
7
100
AcDbPolyline
 90
2
 70
0
 10
174.922787
 20
727.586317
 30
0.0
 10
172.294781
 20
735.674460
 30
0.0
  0
LWPOLYLINE
  5
161
100
AcDbEntity
  8
0
 62
7
100
AcDbPolyline
 90
2
 70
0
 10
246.025058
 20
691.870590
 30
0.0
 10
255.768630
 20
721.858252
 30
0.0
  0
LWPOLYLINE
  5
162
100
AcDbEntity
  8
0
 62
7
100
AcDbPolyline
 90
2
 70
0
 10
269.016218
 20
762.630157
 30
0.0
 10
243.507195
 20
781.163504
 30
0.0
  0
LWPOLYLINE
  5
163
100
AcDbEntity
  8
0
 62
7
100
AcDbPolyline
 90
2
 70
0
 10
208.824578
 20
806.361904
 30
0.0
 10
183.315551
 20
787.828534
 30
0.0
  0
LWPOLYLINE
  5
164
100
AcDbEntity
  8
0
 62
7
100
AcDbPolyline
 90
2
 70
0
 10
148.632935
 20
762.630157
 30
0.0
 10
158.376512
 20
732.642487
 30
0.0
  0
LWPOLYLINE
  5
165
100
AcDbEntity
  8
0
 62
7
100
AcDbPolyline
 90
2
 70
0
 10
171.624096
 20
691.870590
 30
0.0
 10
203.154983
 20
691.870590
 30
0.0
  0
LWPOLYLINE
  5
166
100
AcDbEntity
  8
0
 62
7
100
AcDbPolyline
 90
2
 70
0
 10
213.076770
 20
706.044630
 30
0.0
 10
204.572378
 20
706.044630
 30
0.0
  0
LWPOLYLINE
  5
167
100
AcDbEntity
  8
0
 62
7
100
AcDbPolyline
 90
2
 70
0
 10
213.076770
 20
706.044630
 30
0.0
 10
213.076770
 20
693.288007
 30
0.0
  0
LWPOLYLINE
  5
168
100
AcDbEntity
  8
0
 62
7
100
AcDbPolyline
 90
2
 70
0
 10
204.572378
 20
706.044630
 30
0.0
 10
204.572378
 20
693.288007
 30
0.0
  0
LWPOLYLINE
  5
169
100
AcDbEntity
  8
0
 62
7
100
AcDbPolyline
 90
2
 70
0
 10
172.294781
 20
735.674460
 30
0.0
 10
160.162542
 20
731.732452
 30
0.0
  0
LWPOLYLINE
  5
16a
100
AcDbEntity
  8
0
 62
7
100
AcDbPolyline
 90
2
 70
0
 10
174.922787
 20
727.586317
 30
0.0
 10
162.790541
 20
723.644235
 30
0.0
  0
LWPOLYLINE
  5
16b
100
AcDbEntity
  8
0
 62
7
100
AcDbPolyline
 90
3
 70
0
 10
183.619920
 20
770.529670
 30
0.0
 10
190.500128
 20
775.528370
 30
0.0
 10
183.001980
 20
785.848709
 30
0.0
  0
LWPOLYLINE
  5
16c
100
AcDbEntity
  8
0
 62
7
100
AcDbPolyline
 90
2
 70
0
 10
183.619920
 20
770.529670
 30
0.0
 10
176.121779
 20
780.849926
 30
0.0
  0
LWPOLYLINE
  5
16d
100
AcDbEntity
  8
0
 62
7
100
AcDbPolyline
 90
3
 70
0
 10
227.149035
 20
775.528370
 30
0.0
 10
234.029227
 20
770.529670
 30
0.0
 10
241.527375
 20
780.849926
 30
0.0
  0
LWPOLYLINE
  5
16e
100
AcDbEntity
  8
0
 62
7
100
AcDbPolyline
 90
2
 70
0
 10
227.149035
 20
775.528370
 30
0.0
 10
234.647167
 20
785.848709
 30
0.0
  0
LWPOLYLINE
  5
16f
100
AcDbEntity
  8
0
 62
7
100
AcDbPolyline
 90
3
 70
0
 10
245.354377
 20
735.674460
 30
0.0
 10
242.726370
 20
727.586317
 30
0.0
 10
254.858610
 20
723.644235
 30
0.0
  0
LWPOLYLINE
  5
170
100
AcDbEntity
  8
0
 62
7
100
AcDbPolyline
 90
2
 70
0
 10
245.354377
 20
735.674460
 30
0.0
 10
257.486617
 20
731.732452
 30
0.0
  0
LWPOLYLINE
  5
171
100
AcDbEntity
  8
0
 62
7
100
AcDbPolyline
 90
2
 70
0
 10
234.333600
 20
787.828534
 30
0.0
 10
208.824578
 20
806.361904
 30
0.0
  0
LWPOLYLINE
  5
172
100
AcDbEntity
  8
0
 62
7
100
AcDbPolyline
 90
2
 70
0
 10
259.272645
 20
732.642487
 30
0.0
 10
269.016218
 20
762.630157
 30
0.0
  0
LWPOLYLINE
  5
173
100
AcDbEntity
  8
0
 62
7
100
AcDbPolyline
 90
2
 70
0
 10
214.494165
 20
691.870590
 30
0.0
 10
246.025058
 20
691.870590
 30
0.0
  0
LWPOLYLINE
  5
174
100
AcDbEntity
  8
0
 62
7
100
AcDbPolyline
 90
2
 70
0
 10
161.880520
 20
721.858252
 30
0.0
 10
171.624096
 20
691.870590
 30
0.0
  0
LWPOLYLINE
  5
175
100
AcDbEntity
  8
0
 62
7
100
AcDbPolyline
 90
2
 70
0
 10
174.141962
 20
781.163504
 30
0.0
 10
148.632935
 20
762.630157
 30
0.0
  0
LWPOLYLINE
  5
176
100
AcDbEntity
  8
0
 62
7
100
AcDbPolyline
 90
2
 70
0
 10
176.121786
 20
780.849926
 30
0.0
 10
174.141962
 20
781.163504
 30
0.0
  0
LWPOLYLINE
  5
177
100
AcDbEntity
  8
0
 62
7
100
AcDbPolyline
 90
2
 70
0
 10
183.001980
 20
785.848709
 30
0.0
 10
183.315551
 20
787.828534
 30
0.0
  0
LWPOLYLINE
  5
178
100
AcDbEntity
  8
0
 62
7
100
AcDbPolyline
 90
2
 70
0
 10
234.647167
 20
785.848709
 30
0.0
 10
234.333600
 20
787.828534
 30
0.0
  0
LWPOLYLINE
  5
179
100
AcDbEntity
  8
0
 62
7
100
AcDbPolyline
 90
2
 70
0
 10
241.527375
 20
780.849926
 30
0.0
 10
243.507195
 20
781.163504
 30
0.0
  0
LWPOLYLINE
  5
17a
100
AcDbEntity
  8
0
 62
7
100
AcDbPolyline
 90
2
 70
0
 10
257.486617
 20
731.732452
 30
0.0
 10
259.272645
 20
732.642487
 30
0.0
  0
LWPOLYLINE
  5
17b
100
AcDbEntity
  8
0
 62
7
100
AcDbPolyline
 90
2
 70
0
 10
254.858610
 20
723.644235
 30
0.0
 10
255.768630
 20
721.858252
 30
0.0
  0
LWPOLYLINE
  5
17c
100
AcDbEntity
  8
0
 62
7
100
AcDbPolyline
 90
2
 70
0
 10
213.076770
 20
693.288007
 30
0.0
 10
214.494165
 20
691.870590
 30
0.0
  0
LWPOLYLINE
  5
17d
100
AcDbEntity
  8
0
 62
7
100
AcDbPolyline
 90
2
 70
0
 10
203.154983
 20
691.870590
 30
0.0
 10
204.572378
 20
693.288007
 30
0.0
  0
LWPOLYLINE
  5
17e
100
AcDbEntity
  8
0
 62
7
100
AcDbPolyline
 90
2
 70
0
 10
162.790548
 20
723.644235
 30
0.0
 10
161.880520
 20
721.858252
 30
0.0
  0
LWPOLYLINE
  5
17f
100
AcDbEntity
  8
0
 62
7
100
AcDbPolyline
 90
2
 70
0
 10
160.162542
 20
731.732452
 30
0.0
 10
158.376512
 20
732.642487
 30
0.0
  0
LWPOLYLINE
  5
180
100
AcDbEntity
  8
0
 62
7
100
AcDbPolyline
 90
2
 70
0
 10
174.922787
 20
607.301955
 30
0.0
 10
172.294781
 20
615.390097
 30
0.0
  0
LWPOLYLINE
  5
181
100
AcDbEntity
  8
0
 62
7
100
AcDbPolyline
 90
2
 70
0
 10
246.025058
 20
571.586227
 30
0.0
 10
255.768630
 20
601.573890
 30
0.0
  0
LWPOLYLINE
  5
182
100
AcDbEntity
  8
0
 62
7
100
AcDbPolyline
 90
2
 70
0
 10
269.016218
 20
642.345795
 30
0.0
 10
243.507195
 20
660.879142
 30
0.0
  0
LWPOLYLINE
  5
183
100
AcDbEntity
  8
0
 62
7
100
AcDbPolyline
 90
2
 70
0
 10
208.824578
 20
686.077541
 30
0.0
 10
183.315551
 20
667.544171
 30
0.0
  0
LWPOLYLINE
  5
184
100
AcDbEntity
  8
0
 62
7
100
AcDbPolyline
 90
2
 70
0
 10
148.632935
 20
642.345795
 30
0.0
 10
158.376512
 20
612.358125
 30
0.0
  0
LWPOLYLINE
  5
185
100
AcDbEntity
  8
0
 62
7
100
AcDbPolyline
 90
2
 70
0
 10
171.624096
 20
571.586227
 30
0.0
 10
203.154983
 20
571.586227
 30
0.0
  0
LWPOLYLINE
  5
186
100
AcDbEntity
  8
0
 62
7
100
AcDbPolyline
 90
2
 70
0
 10
213.076770
 20
585.760267
 30
0.0
 10
204.572378
 20
585.760267
 30
0.0
  0
LWPOLYLINE
  5
187
100
AcDbEntity
  8
0
 62
7
100
AcDbPolyline
 90
2
 70
0
 10
213.076770
 20
585.760267
 30
0.0
 10
213.076770
 20
573.003645
 30
0.0
  0
LWPOLYLINE
  5
188
100
AcDbEntity
  8
0
 62
7
100
AcDbPolyline
 90
2
 70
0
 10
204.572378
 20
585.760267
 30
0.0
 10
204.572378
 20
573.003645
 30
0.0
  0
LWPOLYLINE
  5
189
100
AcDbEntity
  8
0
 62
7
100
AcDbPolyline
 90
2
 70
0
 10
172.294781
 20
615.390097
 30
0.0
 10
160.162542
 20
611.448090
 30
0.0
  0
LWPOLYLINE
  5
18a
100
AcDbEntity
  8
0
 62
7
100
AcDbPolyline
 90
2
 70
0
 10
174.922787
 20
607.301955
 30
0.0
 10
162.790541
 20
603.359872
 30
0.0
  0
LWPOLYLINE
  5
18b
100
AcDbEntity
  8
0
 62
7
100
AcDbPolyline
 90
3
 70
0
 10
183.619920
 20
650.245307
 30
0.0
 10
190.500128
 20
655.244008
 30
0.0
 10
183.001980
 20
665.564347
 30
0.0
  0
LWPOLYLINE
  5
18c
100
AcDbEntity
  8
0
 62
7
100
AcDbPolyline
 90
2
 70
0
 10
183.619920
 20
650.245307
 30
0.0
 10
176.121779
 20
660.565564
 30
0.0
  0
LWPOLYLINE
  5
18d
100
AcDbEntity
  8
0
 62
7
100
AcDbPolyline
 90
3
 70
0
 10
227.149035
 20
655.244008
 30
0.0
 10
234.029227
 20
650.245307
 30
0.0
 10
241.527375
 20
660.565564
 30
0.0
  0
LWPOLYLINE
  5
18e
100
AcDbEntity
  8
0
 62
7
100
AcDbPolyline
 90
2
 70
0
 10
227.149035
 20
655.244008
 30
0.0
 10
234.647167
 20
665.564347
 30
0.0
  0
LWPOLYLINE
  5
18f
100
AcDbEntity
  8
0
 62
7
100
AcDbPolyline
 90
3
 70
0
 10
245.354377
 20
615.390097
 30
0.0
 10
242.726370
 20
607.301955
 30
0.0
 10
254.858610
 20
603.359872
 30
0.0
  0
LWPOLYLINE
  5
190
100
AcDbEntity
  8
0
 62
7
100
AcDbPolyline
 90
2
 70
0
 10
245.354377
 20
615.390097
 30
0.0
 10
257.486617
 20
611.448090
 30
0.0
  0
LWPOLYLINE
  5
191
100
AcDbEntity
  8
0
 62
7
100
AcDbPolyline
 90
2
 70
0
 10
234.333600
 20
667.544171
 30
0.0
 10
208.824578
 20
686.077541
 30
0.0
  0
LWPOLYLINE
  5
192
100
AcDbEntity
  8
0
 62
7
100
AcDbPolyline
 90
2
 70
0
 10
259.272645
 20
612.358125
 30
0.0
 10
269.016218
 20
642.345795
 30
0.0
  0
LWPOLYLINE
  5
193
100
AcDbEntity
  8
0
 62
7
100
AcDbPolyline
 90
2
 70
0
 10
214.494165
 20
571.586227
 30
0.0
 10
246.025058
 20
571.586227
 30
0.0
  0
LWPOLYLINE
  5
194
100
AcDbEntity
  8
0
 62
7
100
AcDbPolyline
 90
2
 70
0
 10
161.880520
 20
601.573890
 30
0.0
 10
171.624096
 20
571.586227
 30
0.0
  0
LWPOLYLINE
  5
195
100
AcDbEntity
  8
0
 62
7
100
AcDbPolyline
 90
2
 70
0
 10
174.141962
 20
660.879142
 30
0.0
 10
148.632935
 20
642.345795
 30
0.0
  0
LWPOLYLINE
  5
196
100
AcDbEntity
  8
0
 62
7
100
AcDbPolyline
 90
2
 70
0
 10
176.121786
 20
660.565564
 30
0.0
 10
174.141962
 20
660.879142
 30
0.0
  0
LWPOLYLINE
  5
197
100
AcDbEntity
  8
0
 62
7
100
AcDbPolyline
 90
2
 70
0
 10
183.001980
 20
665.564347
 30
0.0
 10
183.315551
 20
667.544171
 30
0.0
  0
LWPOLYLINE
  5
198
100
AcDbEntity
  8
0
 62
7
100
AcDbPolyline
 90
2
 70
0
 10
234.647167
 20
665.564347
 30
0.0
 10
234.333600
 20
667.544171
 30
0.0
  0
LWPOLYLINE
  5
199
100
AcDbEntity
  8
0
 62
7
100
AcDbPolyline
 90
2
 70
0
 10
241.527375
 20
660.565564
 30
0.0
 10
243.507195
 20
660.879142
 30
0.0
  0
LWPOLYLINE
  5
19a
100
AcDbEntity
  8
0
 62
7
100
AcDbPolyline
 90
2
 70
0
 10
257.486617
 20
611.448090
 30
0.0
 10
259.272645
 20
612.358125
 30
0.0
  0
LWPOLYLINE
  5
19b
100
AcDbEntity
  8
0
 62
7
100
AcDbPolyline
 90
2
 70
0
 10
254.858610
 20
603.359872
 30
0.0
 10
255.768630
 20
601.573890
 30
0.0
  0
LWPOLYLINE
  5
19c
100
AcDbEntity
  8
0
 62
7
100
AcDbPolyline
 90
2
 70
0
 10
213.076770
 20
573.003645
 30
0.0
 10
214.494165
 20
571.586227
 30
0.0
  0
LWPOLYLINE
  5
19d
100
AcDbEntity
  8
0
 62
7
100
AcDbPolyline
 90
2
 70
0
 10
203.154983
 20
571.586227
 30
0.0
 10
204.572378
 20
573.003645
 30
0.0
  0
LWPOLYLINE
  5
19e
100
AcDbEntity
  8
0
 62
7
100
AcDbPolyline
 90
2
 70
0
 10
162.790548
 20
603.359872
 30
0.0
 10
161.880520
 20
601.573890
 30
0.0
  0
LWPOLYLINE
  5
19f
100
AcDbEntity
  8
0
 62
7
100
AcDbPolyline
 90
2
 70
0
 10
160.162542
 20
611.448090
 30
0.0
 10
158.376512
 20
612.358125
 30
0.0
  0
LWPOLYLINE
  5
1a0
100
AcDbEntity
  8
0
 62
7
100
AcDbPolyline
 90
2
 70
0
 10
174.922787
 20
487.017592
 30
0.0
 10
172.294781
 20
495.105735
 30
0.0
  0
LWPOLYLINE
  5
1a1
100
AcDbEntity
  8
0
 62
7
100
AcDbPolyline
 90
2
 70
0
 10
246.025058
 20
451.301865
 30
0.0
 10
255.768630
 20
481.289527
 30
0.0
  0
LWPOLYLINE
  5
1a2
100
AcDbEntity
  8
0
 62
7
100
AcDbPolyline
 90
2
 70
0
 10
269.016218
 20
522.061432
 30
0.0
 10
243.507195
 20
540.594779
 30
0.0
  0
LWPOLYLINE
  5
1a3
100
AcDbEntity
  8
0
 62
7
100
AcDbPolyline
 90
2
 70
0
 10
208.824578
 20
565.793179
 30
0.0
 10
183.315551
 20
547.259809
 30
0.0
  0
LWPOLYLINE
  5
1a4
100
AcDbEntity
  8
0
 62
7
100
AcDbPolyline
 90
2
 70
0
 10
148.632935
 20
522.061432
 30
0.0
 10
158.376512
 20
492.073762
 30
0.0
  0
LWPOLYLINE
  5
1a5
100
AcDbEntity
  8
0
 62
7
100
AcDbPolyline
 90
2
 70
0
 10
171.624096
 20
451.301865
 30
0.0
 10
203.154983
 20
451.301865
 30
0.0
  0
LWPOLYLINE
  5
1a6
100
AcDbEntity
  8
0
 62
7
100
AcDbPolyline
 90
2
 70
0
 10
213.076770
 20
465.475905
 30
0.0
 10
204.572378
 20
465.475905
 30
0.0
  0
LWPOLYLINE
  5
1a7
100
AcDbEntity
  8
0
 62
7
100
AcDbPolyline
 90
2
 70
0
 10
213.076770
 20
465.475905
 30
0.0
 10
213.076770
 20
452.719282
 30
0.0
  0
LWPOLYLINE
  5
1a8
100
AcDbEntity
  8
0
 62
7
100
AcDbPolyline
 90
2
 70
0
 10
204.572378
 20
465.475905
 30
0.0
 10
204.572378
 20
452.719282
 30
0.0
  0
LWPOLYLINE
  5
1a9
100
AcDbEntity
  8
0
 62
7
100
AcDbPolyline
 90
2
 70
0
 10
172.294781
 20
495.105735
 30
0.0
 10
160.162542
 20
491.163727
 30
0.0
  0
LWPOLYLINE
  5
1aa
100
AcDbEntity
  8
0
 62
7
100
AcDbPolyline
 90
2
 70
0
 10
174.922787
 20
487.017592
 30
0.0
 10
162.790541
 20
483.075510
 30
0.0
  0
LWPOLYLINE
  5
1ab
100
AcDbEntity
  8
0
 62
7
100
AcDbPolyline
 90
3
 70
0
 10
183.619920
 20
529.960945
 30
0.0
 10
190.500128
 20
534.959645
 30
0.0
 10
183.001980
 20
545.279984
 30
0.0
  0
LWPOLYLINE
  5
1ac
100
AcDbEntity
  8
0
 62
7
100
AcDbPolyline
 90
2
 70
0
 10
183.619920
 20
529.960945
 30
0.0
 10
176.121779
 20
540.281201
 30
0.0
  0
LWPOLYLINE
  5
1ad
100
AcDbEntity
  8
0
 62
7
100
AcDbPolyline
 90
3
 70
0
 10
227.149035
 20
534.959645
 30
0.0
 10
234.029227
 20
529.960945
 30
0.0
 10
241.527375
 20
540.281201
 30
0.0
  0
LWPOLYLINE
  5
1ae
100
AcDbEntity
  8
0
 62
7
100
AcDbPolyline
 90
2
 70
0
 10
227.149035
 20
534.959645
 30
0.0
 10
234.647167
 20
545.279984
 30
0.0
  0
LWPOLYLINE
  5
1af
100
AcDbEntity
  8
0
 62
7
100
AcDbPolyline
 90
3
 70
0
 10
245.354377
 20
495.105735
 30
0.0
 10
242.726370
 20
487.017592
 30
0.0
 10
254.858610
 20
483.075510
 30
0.0
  0
LWPOLYLINE
  5
1b0
100
AcDbEntity
  8
0
 62
7
100
AcDbPolyline
 90
2
 70
0
 10
245.354377
 20
495.105735
 30
0.0
 10
257.486617
 20
491.163727
 30
0.0
  0
LWPOLYLINE
  5
1b1
100
AcDbEntity
  8
0
 62
7
100
AcDbPolyline
 90
2
 70
0
 10
234.333600
 20
547.259809
 30
0.0
 10
208.824578
 20
565.793179
 30
0.0
  0
LWPOLYLINE
  5
1b2
100
AcDbEntity
  8
0
 62
7
100
AcDbPolyline
 90
2
 70
0
 10
259.272645
 20
492.073762
 30
0.0
 10
269.016218
 20
522.061432
 30
0.0
  0
LWPOLYLINE
  5
1b3
100
AcDbEntity
  8
0
 62
7
100
AcDbPolyline
 90
2
 70
0
 10
214.494165
 20
451.301865
 30
0.0
 10
246.025058
 20
451.301865
 30
0.0
  0
LWPOLYLINE
  5
1b4
100
AcDbEntity
  8
0
 62
7
100
AcDbPolyline
 90
2
 70
0
 10
161.880520
 20
481.289527
 30
0.0
 10
171.624096
 20
451.301865
 30
0.0
  0
LWPOLYLINE
  5
1b5
100
AcDbEntity
  8
0
 62
7
100
AcDbPolyline
 90
2
 70
0
 10
174.141962
 20
540.594779
 30
0.0
 10
148.632935
 20
522.061432
 30
0.0
  0
LWPOLYLINE
  5
1b6
100
AcDbEntity
  8
0
 62
7
100
AcDbPolyline
 90
2
 70
0
 10
176.121786
 20
540.281201
 30
0.0
 10
174.141962
 20
540.594779
 30
0.0
  0
LWPOLYLINE
  5
1b7
100
AcDbEntity
  8
0
 62
7
100
AcDbPolyline
 90
2
 70
0
 10
183.001980
 20
545.279984
 30
0.0
 10
183.315551
 20
547.259809
 30
0.0
  0
LWPOLYLINE
  5
1b8
100
AcDbEntity
  8
0
 62
7
100
AcDbPolyline
 90
2
 70
0
 10
234.647167
 20
545.279984
 30
0.0
 10
234.333600
 20
547.259809
 30
0.0
  0
LWPOLYLINE
  5
1b9
100
AcDbEntity
  8
0
 62
7
100
AcDbPolyline
 90
2
 70
0
 10
241.527375
 20
540.281201
 30
0.0
 10
243.507195
 20
540.594779
 30
0.0
  0
LWPOLYLINE
  5
1ba
100
AcDbEntity
  8
0
 62
7
100
AcDbPolyline
 90
2
 70
0
 10
257.486617
 20
491.163727
 30
0.0
 10
259.272645
 20
492.073762
 30
0.0
  0
LWPOLYLINE
  5
1bb
100
AcDbEntity
  8
0
 62
7
100
AcDbPolyline
 90
2
 70
0
 10
254.858610
 20
483.075510
 30
0.0
 10
255.768630
 20
481.289527
 30
0.0
  0
LWPOLYLINE
  5
1bc
100
AcDbEntity
  8
0
 62
7
100
AcDbPolyline
 90
2
 70
0
 10
213.076770
 20
452.719282
 30
0.0
 10
214.494165
 20
451.301865
 30
0.0
  0
LWPOLYLINE
  5
1bd
100
AcDbEntity
  8
0
 62
7
100
AcDbPolyline
 90
2
 70
0
 10
203.154983
 20
451.301865
 30
0.0
 10
204.572378
 20
452.719282
 30
0.0
  0
LWPOLYLINE
  5
1be
100
AcDbEntity
  8
0
 62
7
100
AcDbPolyline
 90
2
 70
0
 10
162.790548
 20
483.075510
 30
0.0
 10
161.880520
 20
481.289527
 30
0.0
  0
LWPOLYLINE
  5
1bf
100
AcDbEntity
  8
0
 62
7
100
AcDbPolyline
 90
2
 70
0
 10
160.162542
 20
491.163727
 30
0.0
 10
158.376512
 20
492.073762
 30
0.0
  0
LWPOLYLINE
  5
1c0
100
AcDbEntity
  8
0
 62
7
100
AcDbPolyline
 90
2
 70
0
 10
301.397237
 20
727.586317
 30
0.0
 10
298.769231
 20
735.674460
 30
0.0
  0
LWPOLYLINE
  5
1c1
100
AcDbEntity
  8
0
 62
7
100
AcDbPolyline
 90
2
 70
0
 10
372.499508
 20
691.870590
 30
0.0
 10
382.243080
 20
721.858252
 30
0.0
  0
LWPOLYLINE
  5
1c2
100
AcDbEntity
  8
0
 62
7
100
AcDbPolyline
 90
2
 70
0
 10
395.490668
 20
762.630157
 30
0.0
 10
369.981645
 20
781.163504
 30
0.0
  0
LWPOLYLINE
  5
1c3
100
AcDbEntity
  8
0
 62
7
100
AcDbPolyline
 90
2
 70
0
 10
335.299028
 20
806.361904
 30
0.0
 10
309.790001
 20
787.828534
 30
0.0
  0
LWPOLYLINE
  5
1c4
100
AcDbEntity
  8
0
 62
7
100
AcDbPolyline
 90
2
 70
0
 10
275.107385
 20
762.630157
 30
0.0
 10
284.850962
 20
732.642487
 30
0.0
  0
LWPOLYLINE
  5
1c5
100
AcDbEntity
  8
0
 62
7
100
AcDbPolyline
 90
2
 70
0
 10
298.098546
 20
691.870590
 30
0.0
 10
329.629433
 20
691.870590
 30
0.0
  0
LWPOLYLINE
  5
1c6
100
AcDbEntity
  8
0
 62
7
100
AcDbPolyline
 90
2
 70
0
 10
339.551220
 20
706.044630
 30
0.0
 10
331.046828
 20
706.044630
 30
0.0
  0
LWPOLYLINE
  5
1c7
100
AcDbEntity
  8
0
 62
7
100
AcDbPolyline
 90
2
 70
0
 10
339.551220
 20
706.044630
 30
0.0
 10
339.551220
 20
693.288007
 30
0.0
  0
LWPOLYLINE
  5
1c8
100
AcDbEntity
  8
0
 62
7
100
AcDbPolyline
 90
2
 70
0
 10
331.046828
 20
706.044630
 30
0.0
 10
331.046828
 20
693.288007
 30
0.0
  0
LWPOLYLINE
  5
1c9
100
AcDbEntity
  8
0
 62
7
100
AcDbPolyline
 90
2
 70
0
 10
298.769231
 20
735.674460
 30
0.0
 10
286.636992
 20
731.732452
 30
0.0
  0
LWPOLYLINE
  5
1ca
100
AcDbEntity
  8
0
 62
7
100
AcDbPolyline
 90
2
 70
0
 10
301.397237
 20
727.586317
 30
0.0
 10
289.264991
 20
723.644235
 30
0.0
  0
LWPOLYLINE
  5
1cb
100
AcDbEntity
  8
0
 62
7
100
AcDbPolyline
 90
3
 70
0
 10
310.094370
 20
770.529670
 30
0.0
 10
316.974578
 20
775.528370
 30
0.0
 10
309.476430
 20
785.848709
 30
0.0
  0
LWPOLYLINE
  5
1cc
100
AcDbEntity
  8
0
 62
7
100
AcDbPolyline
 90
2
 70
0
 10
310.094370
 20
770.529670
 30
0.0
 10
302.596228
 20
780.849926
 30
0.0
  0
LWPOLYLINE
  5
1cd
100
AcDbEntity
  8
0
 62
7
100
AcDbPolyline
 90
3
 70
0
 10
353.623485
 20
775.528370
 30
0.0
 10
360.503677
 20
770.529670
 30
0.0
 10
368.001825
 20
780.849926
 30
0.0
  0
LWPOLYLINE
  5
1ce
100
AcDbEntity
  8
0
 62
7
100
AcDbPolyline
 90
2
 70
0
 10
353.623485
 20
775.528370
 30
0.0
 10
361.121618
 20
785.848709
 30
0.0
  0
LWPOLYLINE
  5
1cf
100
AcDbEntity
  8
0
 62
7
100
AcDbPolyline
 90
3
 70
0
 10
371.828827
 20
735.674460
 30
0.0
 10
369.200820
 20
727.586317
 30
0.0
 10
381.333060
 20
723.644235
 30
0.0
  0
LWPOLYLINE
  5
1d0
100
AcDbEntity
  8
0
 62
7
100
AcDbPolyline
 90
2
 70
0
 10
371.828827
 20
735.674460
 30
0.0
 10
383.961068
 20
731.732452
 30
0.0
  0
LWPOLYLINE
  5
1d1
100
AcDbEntity
  8
0
 62
7
100
AcDbPolyline
 90
2
 70
0
 10
360.808050
 20
787.828534
 30
0.0
 10
335.299028
 20
806.361904
 30
0.0
  0
LWPOLYLINE
  5
1d2
100
AcDbEntity
  8
0
 62
7
100
AcDbPolyline
 90
2
 70
0
 10
385.747095
 20
732.642487
 30
0.0
 10
395.490668
 20
762.630157
 30
0.0
  0
LWPOLYLINE
  5
1d3
100
AcDbEntity
  8
0
 62
7
100
AcDbPolyline
 90
2
 70
0
 10
340.968615
 20
691.870590
 30
0.0
 10
372.499508
 20
691.870590
 30
0.0
  0
LWPOLYLINE
  5
1d4
100
AcDbEntity
  8
0
 62
7
100
AcDbPolyline
 90
2
 70
0
 10
288.354970
 20
721.858252
 30
0.0
 10
298.098546
 20
691.870590
 30
0.0
  0
LWPOLYLINE
  5
1d5
100
AcDbEntity
  8
0
 62
7
100
AcDbPolyline
 90
2
 70
0
 10
300.616412
 20
781.163504
 30
0.0
 10
275.107385
 20
762.630157
 30
0.0
  0
LWPOLYLINE
  5
1d6
100
AcDbEntity
  8
0
 62
7
100
AcDbPolyline
 90
2
 70
0
 10
302.596236
 20
780.849926
 30
0.0
 10
300.616412
 20
781.163504
 30
0.0
  0
LWPOLYLINE
  5
1d7
100
AcDbEntity
  8
0
 62
7
100
AcDbPolyline
 90
2
 70
0
 10
309.476430
 20
785.848709
 30
0.0
 10
309.790001
 20
787.828534
 30
0.0
  0
LWPOLYLINE
  5
1d8
100
AcDbEntity
  8
0
 62
7
100
AcDbPolyline
 90
2
 70
0
 10
361.121618
 20
785.848709
 30
0.0
 10
360.808050
 20
787.828534
 30
0.0
  0
LWPOLYLINE
  5
1d9
100
AcDbEntity
  8
0
 62
7
100
AcDbPolyline
 90
2
 70
0
 10
368.001825
 20
780.849926
 30
0.0
 10
369.981645
 20
781.163504
 30
0.0
  0
LWPOLYLINE
  5
1da
100
AcDbEntity
  8
0
 62
7
100
AcDbPolyline
 90
2
 70
0
 10
383.961068
 20
731.732452
 30
0.0
 10
385.747095
 20
732.642487
 30
0.0
  0
LWPOLYLINE
  5
1db
100
AcDbEntity
  8
0
 62
7
100
AcDbPolyline
 90
2
 70
0
 10
381.333060
 20
723.644235
 30
0.0
 10
382.243080
 20
721.858252
 30
0.0
  0
LWPOLYLINE
  5
1dc
100
AcDbEntity
  8
0
 62
7
100
AcDbPolyline
 90
2
 70
0
 10
339.551220
 20
693.288007
 30
0.0
 10
340.968615
 20
691.870590
 30
0.0
  0
LWPOLYLINE
  5
1dd
100
AcDbEntity
  8
0
 62
7
100
AcDbPolyline
 90
2
 70
0
 10
329.629433
 20
691.870590
 30
0.0
 10
331.046828
 20
693.288007
 30
0.0
  0
LWPOLYLINE
  5
1de
100
AcDbEntity
  8
0
 62
7
100
AcDbPolyline
 90
2
 70
0
 10
289.264998
 20
723.644235
 30
0.0
 10
288.354970
 20
721.858252
 30
0.0
  0
LWPOLYLINE
  5
1df
100
AcDbEntity
  8
0
 62
7
100
AcDbPolyline
 90
2
 70
0
 10
286.636992
 20
731.732452
 30
0.0
 10
284.850962
 20
732.642487
 30
0.0
  0
LWPOLYLINE
  5
1e0
100
AcDbEntity
  8
0
 62
7
100
AcDbPolyline
 90
2
 70
0
 10
301.397237
 20
607.301955
 30
0.0
 10
298.769231
 20
615.390097
 30
0.0
  0
LWPOLYLINE
  5
1e1
100
AcDbEntity
  8
0
 62
7
100
AcDbPolyline
 90
2
 70
0
 10
372.499508
 20
571.586227
 30
0.0
 10
382.243080
 20
601.573890
 30
0.0
  0
LWPOLYLINE
  5
1e2
100
AcDbEntity
  8
0
 62
7
100
AcDbPolyline
 90
2
 70
0
 10
395.490668
 20
642.345795
 30
0.0
 10
369.981645
 20
660.879142
 30
0.0
  0
LWPOLYLINE
  5
1e3
100
AcDbEntity
  8
0
 62
7
100
AcDbPolyline
 90
2
 70
0
 10
335.299028
 20
686.077541
 30
0.0
 10
309.790001
 20
667.544171
 30
0.0
  0
LWPOLYLINE
  5
1e4
100
AcDbEntity
  8
0
 62
7
100
AcDbPolyline
 90
2
 70
0
 10
275.107385
 20
642.345795
 30
0.0
 10
284.850962
 20
612.358125
 30
0.0
  0
LWPOLYLINE
  5
1e5
100
AcDbEntity
  8
0
 62
7
100
AcDbPolyline
 90
2
 70
0
 10
298.098546
 20
571.586227
 30
0.0
 10
329.629433
 20
571.586227
 30
0.0
  0
LWPOLYLINE
  5
1e6
100
AcDbEntity
  8
0
 62
7
100
AcDbPolyline
 90
2
 70
0
 10
339.551220
 20
585.760267
 30
0.0
 10
331.046828
 20
585.760267
 30
0.0
  0
LWPOLYLINE
  5
1e7
100
AcDbEntity
  8
0
 62
7
100
AcDbPolyline
 90
2
 70
0
 10
339.551220
 20
585.760267
 30
0.0
 10
339.551220
 20
573.003645
 30
0.0
  0
LWPOLYLINE
  5
1e8
100
AcDbEntity
  8
0
 62
7
100
AcDbPolyline
 90
2
 70
0
 10
331.046828
 20
585.760267
 30
0.0
 10
331.046828
 20
573.003645
 30
0.0
  0
LWPOLYLINE
  5
1e9
100
AcDbEntity
  8
0
 62
7
100
AcDbPolyline
 90
2
 70
0
 10
298.769231
 20
615.390097
 30
0.0
 10
286.636992
 20
611.448090
 30
0.0
  0
LWPOLYLINE
  5
1ea
100
AcDbEntity
  8
0
 62
7
100
AcDbPolyline
 90
2
 70
0
 10
301.397237
 20
607.301955
 30
0.0
 10
289.264991
 20
603.359872
 30
0.0
  0
LWPOLYLINE
  5
1eb
100
AcDbEntity
  8
0
 62
7
100
AcDbPolyline
 90
3
 70
0
 10
310.094370
 20
650.245307
 30
0.0
 10
316.974578
 20
655.244008
 30
0.0
 10
309.476430
 20
665.564347
 30
0.0
  0
LWPOLYLINE
  5
1ec
100
AcDbEntity
  8
0
 62
7
100
AcDbPolyline
 90
2
 70
0
 10
310.094370
 20
650.245307
 30
0.0
 10
302.596228
 20
660.565564
 30
0.0
  0
LWPOLYLINE
  5
1ed
100
AcDbEntity
  8
0
 62
7
100
AcDbPolyline
 90
3
 70
0
 10
353.623485
 20
655.244008
 30
0.0
 10
360.503677
 20
650.245307
 30
0.0
 10
368.001825
 20
660.565564
 30
0.0
  0
LWPOLYLINE
  5
1ee
100
AcDbEntity
  8
0
 62
7
100
AcDbPolyline
 90
2
 70
0
 10
353.623485
 20
655.244008
 30
0.0
 10
361.121618
 20
665.564347
 30
0.0
  0
LWPOLYLINE
  5
1ef
100
AcDbEntity
  8
0
 62
7
100
AcDbPolyline
 90
3
 70
0
 10
371.828827
 20
615.390097
 30
0.0
 10
369.200820
 20
607.301955
 30
0.0
 10
381.333060
 20
603.359872
 30
0.0
  0
LWPOLYLINE
  5
1f0
100
AcDbEntity
  8
0
 62
7
100
AcDbPolyline
 90
2
 70
0
 10
371.828827
 20
615.390097
 30
0.0
 10
383.961068
 20
611.448090
 30
0.0
  0
LWPOLYLINE
  5
1f1
100
AcDbEntity
  8
0
 62
7
100
AcDbPolyline
 90
2
 70
0
 10
360.808050
 20
667.544171
 30
0.0
 10
335.299028
 20
686.077541
 30
0.0
  0
LWPOLYLINE
  5
1f2
100
AcDbEntity
  8
0
 62
7
100
AcDbPolyline
 90
2
 70
0
 10
385.747095
 20
612.358125
 30
0.0
 10
395.490668
 20
642.345795
 30
0.0
  0
LWPOLYLINE
  5
1f3
100
AcDbEntity
  8
0
 62
7
100
AcDbPolyline
 90
2
 70
0
 10
340.968615
 20
571.586227
 30
0.0
 10
372.499508
 20
571.586227
 30
0.0
  0
LWPOLYLINE
  5
1f4
100
AcDbEntity
  8
0
 62
7
100
AcDbPolyline
 90
2
 70
0
 10
288.354970
 20
601.573890
 30
0.0
 10
298.098546
 20
571.586227
 30
0.0
  0
LWPOLYLINE
  5
1f5
100
AcDbEntity
  8
0
 62
7
100
AcDbPolyline
 90
2
 70
0
 10
300.616412
 20
660.879142
 30
0.0
 10
275.107385
 20
642.345795
 30
0.0
  0
LWPOLYLINE
  5
1f6
100
AcDbEntity
  8
0
 62
7
100
AcDbPolyline
 90
2
 70
0
 10
302.596236
 20
660.565564
 30
0.0
 10
300.616412
 20
660.879142
 30
0.0
  0
LWPOLYLINE
  5
1f7
100
AcDbEntity
  8
0
 62
7
100
AcDbPolyline
 90
2
 70
0
 10
309.476430
 20
665.564347
 30
0.0
 10
309.790001
 20
667.544171
 30
0.0
  0
LWPOLYLINE
  5
1f8
100
AcDbEntity
  8
0
 62
7
100
AcDbPolyline
 90
2
 70
0
 10
361.121618
 20
665.564347
 30
0.0
 10
360.808050
 20
667.544171
 30
0.0
  0
LWPOLYLINE
  5
1f9
100
AcDbEntity
  8
0
 62
7
100
AcDbPolyline
 90
2
 70
0
 10
368.001825
 20
660.565564
 30
0.0
 10
369.981645
 20
660.879142
 30
0.0
  0
LWPOLYLINE
  5
1fa
100
AcDbEntity
  8
0
 62
7
100
AcDbPolyline
 90
2
 70
0
 10
383.961068
 20
611.448090
 30
0.0
 10
385.747095
 20
612.358125
 30
0.0
  0
LWPOLYLINE
  5
1fb
100
AcDbEntity
  8
0
 62
7
100
AcDbPolyline
 90
2
 70
0
 10
381.333060
 20
603.359872
 30
0.0
 10
382.243080
 20
601.573890
 30
0.0
  0
LWPOLYLINE
  5
1fc
100
AcDbEntity
  8
0
 62
7
100
AcDbPolyline
 90
2
 70
0
 10
339.551220
 20
573.003645
 30
0.0
 10
340.968615
 20
571.586227
 30
0.0
  0
LWPOLYLINE
  5
1fd
100
AcDbEntity
  8
0
 62
7
100
AcDbPolyline
 90
2
 70
0
 10
329.629433
 20
571.586227
 30
0.0
 10
331.046828
 20
573.003645
 30
0.0
  0
LWPOLYLINE
  5
1fe
100
AcDbEntity
  8
0
 62
7
100
AcDbPolyline
 90
2
 70
0
 10
289.264998
 20
603.359872
 30
0.0
 10
288.354970
 20
601.573890
 30
0.0
  0
LWPOLYLINE
  5
1ff
100
AcDbEntity
  8
0
 62
7
100
AcDbPolyline
 90
2
 70
0
 10
286.636992
 20
611.448090
 30
0.0
 10
284.850962
 20
612.358125
 30
0.0
  0
LWPOLYLINE
  5
200
100
AcDbEntity
  8
0
 62
7
100
AcDbPolyline
 90
2
 70
0
 10
301.397237
 20
487.017592
 30
0.0
 10
298.769231
 20
495.105735
 30
0.0
  0
LWPOLYLINE
  5
201
100
AcDbEntity
  8
0
 62
7
100
AcDbPolyline
 90
2
 70
0
 10
372.499508
 20
451.301865
 30
0.0
 10
382.243080
 20
481.289527
 30
0.0
  0
LWPOLYLINE
  5
202
100
AcDbEntity
  8
0
 62
7
100
AcDbPolyline
 90
2
 70
0
 10
395.490668
 20
522.061432
 30
0.0
 10
369.981645
 20
540.594779
 30
0.0
  0
LWPOLYLINE
  5
203
100
AcDbEntity
  8
0
 62
7
100
AcDbPolyline
 90
2
 70
0
 10
335.299028
 20
565.793179
 30
0.0
 10
309.790001
 20
547.259809
 30
0.0
  0
LWPOLYLINE
  5
204
100
AcDbEntity
  8
0
 62
7
100
AcDbPolyline
 90
2
 70
0
 10
275.107385
 20
522.061432
 30
0.0
 10
284.850962
 20
492.073762
 30
0.0
  0
LWPOLYLINE
  5
205
100
AcDbEntity
  8
0
 62
7
100
AcDbPolyline
 90
2
 70
0
 10
298.098546
 20
451.301865
 30
0.0
 10
329.629433
 20
451.301865
 30
0.0
  0
LWPOLYLINE
  5
206
100
AcDbEntity
  8
0
 62
7
100
AcDbPolyline
 90
2
 70
0
 10
339.551220
 20
465.475905
 30
0.0
 10
331.046828
 20
465.475905
 30
0.0
  0
LWPOLYLINE
  5
207
100
AcDbEntity
  8
0
 62
7
100
AcDbPolyline
 90
2
 70
0
 10
339.551220
 20
465.475905
 30
0.0
 10
339.551220
 20
452.719282
 30
0.0
  0
LWPOLYLINE
  5
208
100
AcDbEntity
  8
0
 62
7
100
AcDbPolyline
 90
2
 70
0
 10
331.046828
 20
465.475905
 30
0.0
 10
331.046828
 20
452.719282
 30
0.0
  0
LWPOLYLINE
  5
209
100
AcDbEntity
  8
0
 62
7
100
AcDbPolyline
 90
2
 70
0
 10
298.769231
 20
495.105735
 30
0.0
 10
286.636992
 20
491.163727
 30
0.0
  0
LWPOLYLINE
  5
20a
100
AcDbEntity
  8
0
 62
7
100
AcDbPolyline
 90
2
 70
0
 10
301.397237
 20
487.017592
 30
0.0
 10
289.264991
 20
483.075510
 30
0.0
  0
LWPOLYLINE
  5
20b
100
AcDbEntity
  8
0
 62
7
100
AcDbPolyline
 90
3
 70
0
 10
310.094370
 20
529.960945
 30
0.0
 10
316.974578
 20
534.959645
 30
0.0
 10
309.476430
 20
545.279984
 30
0.0
  0
LWPOLYLINE
  5
20c
100
AcDbEntity
  8
0
 62
7
100
AcDbPolyline
 90
2
 70
0
 10
310.094370
 20
529.960945
 30
0.0
 10
302.596228
 20
540.281201
 30
0.0
  0
LWPOLYLINE
  5
20d
100
AcDbEntity
  8
0
 62
7
100
AcDbPolyline
 90
3
 70
0
 10
353.623485
 20
534.959645
 30
0.0
 10
360.503677
 20
529.960945
 30
0.0
 10
368.001825
 20
540.281201
 30
0.0
  0
LWPOLYLINE
  5
20e
100
AcDbEntity
  8
0
 62
7
100
AcDbPolyline
 90
2
 70
0
 10
353.623485
 20
534.959645
 30
0.0
 10
361.121618
 20
545.279984
 30
0.0
  0
LWPOLYLINE
  5
20f
100
AcDbEntity
  8
0
 62
7
100
AcDbPolyline
 90
3
 70
0
 10
371.828827
 20
495.105735
 30
0.0
 10
369.200820
 20
487.017592
 30
0.0
 10
381.333060
 20
483.075510
 30
0.0
  0
LWPOLYLINE
  5
210
100
AcDbEntity
  8
0
 62
7
100
AcDbPolyline
 90
2
 70
0
 10
371.828827
 20
495.105735
 30
0.0
 10
383.961068
 20
491.163727
 30
0.0
  0
LWPOLYLINE
  5
211
100
AcDbEntity
  8
0
 62
7
100
AcDbPolyline
 90
2
 70
0
 10
360.808050
 20
547.259809
 30
0.0
 10
335.299028
 20
565.793179
 30
0.0
  0
LWPOLYLINE
  5
212
100
AcDbEntity
  8
0
 62
7
100
AcDbPolyline
 90
2
 70
0
 10
385.747095
 20
492.073762
 30
0.0
 10
395.490668
 20
522.061432
 30
0.0
  0
LWPOLYLINE
  5
213
100
AcDbEntity
  8
0
 62
7
100
AcDbPolyline
 90
2
 70
0
 10
340.968615
 20
451.301865
 30
0.0
 10
372.499508
 20
451.301865
 30
0.0
  0
LWPOLYLINE
  5
214
100
AcDbEntity
  8
0
 62
7
100
AcDbPolyline
 90
2
 70
0
 10
288.354970
 20
481.289527
 30
0.0
 10
298.098546
 20
451.301865
 30
0.0
  0
LWPOLYLINE
  5
215
100
AcDbEntity
  8
0
 62
7
100
AcDbPolyline
 90
2
 70
0
 10
300.616412
 20
540.594779
 30
0.0
 10
275.107385
 20
522.061432
 30
0.0
  0
LWPOLYLINE
  5
216
100
AcDbEntity
  8
0
 62
7
100
AcDbPolyline
 90
2
 70
0
 10
302.596236
 20
540.281201
 30
0.0
 10
300.616412
 20
540.594779
 30
0.0
  0
LWPOLYLINE
  5
217
100
AcDbEntity
  8
0
 62
7
100
AcDbPolyline
 90
2
 70
0
 10
309.476430
 20
545.279984
 30
0.0
 10
309.790001
 20
547.259809
 30
0.0
  0
LWPOLYLINE
  5
218
100
AcDbEntity
  8
0
 62
7
100
AcDbPolyline
 90
2
 70
0
 10
361.121618
 20
545.279984
 30
0.0
 10
360.808050
 20
547.259809
 30
0.0
  0
LWPOLYLINE
  5
219
100
AcDbEntity
  8
0
 62
7
100
AcDbPolyline
 90
2
 70
0
 10
368.001825
 20
540.281201
 30
0.0
 10
369.981645
 20
540.594779
 30
0.0
  0
LWPOLYLINE
  5
21a
100
AcDbEntity
  8
0
 62
7
100
AcDbPolyline
 90
2
 70
0
 10
383.961068
 20
491.163727
 30
0.0
 10
385.747095
 20
492.073762
 30
0.0
  0
LWPOLYLINE
  5
21b
100
AcDbEntity
  8
0
 62
7
100
AcDbPolyline
 90
2
 70
0
 10
381.333060
 20
483.075510
 30
0.0
 10
382.243080
 20
481.289527
 30
0.0
  0
LWPOLYLINE
  5
21c
100
AcDbEntity
  8
0
 62
7
100
AcDbPolyline
 90
2
 70
0
 10
339.551220
 20
452.719282
 30
0.0
 10
340.968615
 20
451.301865
 30
0.0
  0
LWPOLYLINE
  5
21d
100
AcDbEntity
  8
0
 62
7
100
AcDbPolyline
 90
2
 70
0
 10
329.629433
 20
451.301865
 30
0.0
 10
331.046828
 20
452.719282
 30
0.0
  0
LWPOLYLINE
  5
21e
100
AcDbEntity
  8
0
 62
7
100
AcDbPolyline
 90
2
 70
0
 10
289.264998
 20
483.075510
 30
0.0
 10
288.354970
 20
481.289527
 30
0.0
  0
LWPOLYLINE
  5
21f
100
AcDbEntity
  8
0
 62
7
100
AcDbPolyline
 90
2
 70
0
 10
286.636992
 20
491.163727
 30
0.0
 10
284.850962
 20
492.073762
 30
0.0
  0
LWPOLYLINE
  5
220
100
AcDbEntity
  8
0
 62
7
100
AcDbPolyline
 90
2
 70
0
 10
427.871694
 20
727.586317
 30
0.0
 10
425.243689
 20
735.674460
 30
0.0
  0
LWPOLYLINE
  5
221
100
AcDbEntity
  8
0
 62
7
100
AcDbPolyline
 90
2
 70
0
 10
498.973965
 20
691.870590
 30
0.0
 10
508.717537
 20
721.858252
 30
0.0
  0
LWPOLYLINE
  5
222
100
AcDbEntity
  8
0
 62
7
100
AcDbPolyline
 90
2
 70
0
 10
521.965125
 20
762.630157
 30
0.0
 10
496.456102
 20
781.163504
 30
0.0
  0
LWPOLYLINE
  5
223
100
AcDbEntity
  8
0
 62
7
100
AcDbPolyline
 90
2
 70
0
 10
461.773485
 20
806.361904
 30
0.0
 10
436.264458
 20
787.828534
 30
0.0
  0
LWPOLYLINE
  5
224
100
AcDbEntity
  8
0
 62
7
100
AcDbPolyline
 90
2
 70
0
 10
401.581843
 20
762.630157
 30
0.0
 10
411.325420
 20
732.642487
 30
0.0
  0
LWPOLYLINE
  5
225
100
AcDbEntity
  8
0
 62
7
100
AcDbPolyline
 90
2
 70
0
 10
424.573003
 20
691.870590
 30
0.0
 10
456.103890
 20
691.870590
 30
0.0
  0
LWPOLYLINE
  5
226
100
AcDbEntity
  8
0
 62
7
100
AcDbPolyline
 90
2
 70
0
 10
466.025678
 20
706.044630
 30
0.0
 10
457.521285
 20
706.044630
 30
0.0
  0
LWPOLYLINE
  5
227
100
AcDbEntity
  8
0
 62
7
100
AcDbPolyline
 90
2
 70
0
 10
466.025678
 20
706.044630
 30
0.0
 10
466.025678
 20
693.288007
 30
0.0
  0
LWPOLYLINE
  5
228
100
AcDbEntity
  8
0
 62
7
100
AcDbPolyline
 90
2
 70
0
 10
457.521285
 20
706.044630
 30
0.0
 10
457.521285
 20
693.288007
 30
0.0
  0
LWPOLYLINE
  5
229
100
AcDbEntity
  8
0
 62
7
100
AcDbPolyline
 90
2
 70
0
 10
425.243689
 20
735.674460
 30
0.0
 10
413.111449
 20
731.732452
 30
0.0
  0
LWPOLYLINE
  5
22a
100
AcDbEntity
  8
0
 62
7
100
AcDbPolyline
 90
2
 70
0
 10
427.871694
 20
727.586317
 30
0.0
 10
415.739448
 20
723.644235
 30
0.0
  0
LWPOLYLINE
  5
22b
100
AcDbEntity
  8
0
 62
7
100
AcDbPolyline
 90
3
 70
0
 10
436.568827
 20
770.529670
 30
0.0
 10
443.449036
 20
775.528370
 30
0.0
 10
435.950888
 20
785.848709
 30
0.0
  0
LWPOLYLINE
  5
22c
100
AcDbEntity
  8
0
 62
7
100
AcDbPolyline
 90
2
 70
0
 10
436.568827
 20
770.529670
 30
0.0
 10
429.070686
 20
780.849926
 30
0.0
  0
LWPOLYLINE
  5
22d
100
AcDbEntity
  8
0
 62
7
100
AcDbPolyline
 90
3
 70
0
 10
480.097942
 20
775.528370
 30
0.0
 10
486.978135
 20
770.529670
 30
0.0
 10
494.476282
 20
780.849926
 30
0.0
  0
LWPOLYLINE
  5
22e
100
AcDbEntity
  8
0
 62
7
100
AcDbPolyline
 90
2
 70
0
 10
480.097942
 20
775.528370
 30
0.0
 10
487.596075
 20
785.848709
 30
0.0
  0
LWPOLYLINE
  5
22f
100
AcDbEntity
  8
0
 62
7
100
AcDbPolyline
 90
3
 70
0
 10
498.303285
 20
735.674460
 30
0.0
 10
495.675277
 20
727.586317
 30
0.0
 10
507.807518
 20
723.644235
 30
0.0
  0
LWPOLYLINE
  5
230
100
AcDbEntity
  8
0
 62
7
100
AcDbPolyline
 90
2
 70
0
 10
498.303285
 20
735.674460
 30
0.0
 10
510.435525
 20
731.732452
 30
0.0
  0
LWPOLYLINE
  5
231
100
AcDbEntity
  8
0
 62
7
100
AcDbPolyline
 90
2
 70
0
 10
487.282507
 20
787.828534
 30
0.0
 10
461.773485
 20
806.361904
 30
0.0
  0
LWPOLYLINE
  5
232
100
AcDbEntity
  8
0
 62
7
100
AcDbPolyline
 90
2
 70
0
 10
512.221552
 20
732.642487
 30
0.0
 10
521.965125
 20
762.630157
 30
0.0
  0
LWPOLYLINE
  5
233
100
AcDbEntity
  8
0
 62
7
100
AcDbPolyline
 90
2
 70
0
 10
467.443072
 20
691.870590
 30
0.0
 10
498.973965
 20
691.870590
 30
0.0
  0
LWPOLYLINE
  5
234
100
AcDbEntity
  8
0
 62
7
100
AcDbPolyline
 90
2
 70
0
 10
414.829427
 20
721.858252
 30
0.0
 10
424.573003
 20
691.870590
 30
0.0
  0
LWPOLYLINE
  5
235
100
AcDbEntity
  8
0
 62
7
100
AcDbPolyline
 90
2
 70
0
 10
427.090869
 20
781.163504
 30
0.0
 10
401.581843
 20
762.630157
 30
0.0
  0
LWPOLYLINE
  5
236
100
AcDbEntity
  8
0
 62
7
100
AcDbPolyline
 90
2
 70
0
 10
429.070694
 20
780.849926
 30
0.0
 10
427.090869
 20
781.163504
 30
0.0
  0
LWPOLYLINE
  5
237
100
AcDbEntity
  8
0
 62
7
100
AcDbPolyline
 90
2
 70
0
 10
435.950888
 20
785.848709
 30
0.0
 10
436.264458
 20
787.828534
 30
0.0
  0
LWPOLYLINE
  5
238
100
AcDbEntity
  8
0
 62
7
100
AcDbPolyline
 90
2
 70
0
 10
487.596075
 20
785.848709
 30
0.0
 10
487.282507
 20
787.828534
 30
0.0
  0
LWPOLYLINE
  5
239
100
AcDbEntity
  8
0
 62
7
100
AcDbPolyline
 90
2
 70
0
 10
494.476282
 20
780.849926
 30
0.0
 10
496.456102
 20
781.163504
 30
0.0
  0
LWPOLYLINE
  5
23a
100
AcDbEntity
  8
0
 62
7
100
AcDbPolyline
 90
2
 70
0
 10
510.435525
 20
731.732452
 30
0.0
 10
512.221553
 20
732.642487
 30
0.0
  0
LWPOLYLINE
  5
23b
100
AcDbEntity
  8
0
 62
7
100
AcDbPolyline
 90
2
 70
0
 10
507.807518
 20
723.644235
 30
0.0
 10
508.717537
 20
721.858252
 30
0.0
  0
LWPOLYLINE
  5
23c
100
AcDbEntity
  8
0
 62
7
100
AcDbPolyline
 90
2
 70
0
 10
466.025678
 20
693.288007
 30
0.0
 10
467.443072
 20
691.870590
 30
0.0
  0
LWPOLYLINE
  5
23d
100
AcDbEntity
  8
0
 62
7
100
AcDbPolyline
 90
2
 70
0
 10
456.103890
 20
691.870590
 30
0.0
 10
457.521285
 20
693.288007
 30
0.0
  0
LWPOLYLINE
  5
23e
100
AcDbEntity
  8
0
 62
7
100
AcDbPolyline
 90
2
 70
0
 10
415.739455
 20
723.644235
 30
0.0
 10
414.829427
 20
721.858252
 30
0.0
  0
LWPOLYLINE
  5
23f
100
AcDbEntity
  8
0
 62
7
100
AcDbPolyline
 90
2
 70
0
 10
413.111449
 20
731.732452
 30
0.0
 10
411.325420
 20
732.642487
 30
0.0
  0
LWPOLYLINE
  5
240
100
AcDbEntity
  8
0
 62
7
100
AcDbPolyline
 90
2
 70
0
 10
427.871694
 20
607.301955
 30
0.0
 10
425.243689
 20
615.390097
 30
0.0
  0
LWPOLYLINE
  5
241
100
AcDbEntity
  8
0
 62
7
100
AcDbPolyline
 90
2
 70
0
 10
498.973965
 20
571.586227
 30
0.0
 10
508.717537
 20
601.573890
 30
0.0
  0
LWPOLYLINE
  5
242
100
AcDbEntity
  8
0
 62
7
100
AcDbPolyline
 90
2
 70
0
 10
521.965125
 20
642.345795
 30
0.0
 10
496.456102
 20
660.879142
 30
0.0
  0
LWPOLYLINE
  5
243
100
AcDbEntity
  8
0
 62
7
100
AcDbPolyline
 90
2
 70
0
 10
461.773485
 20
686.077541
 30
0.0
 10
436.264458
 20
667.544171
 30
0.0
  0
LWPOLYLINE
  5
244
100
AcDbEntity
  8
0
 62
7
100
AcDbPolyline
 90
2
 70
0
 10
401.581843
 20
642.345795
 30
0.0
 10
411.325420
 20
612.358125
 30
0.0
  0
LWPOLYLINE
  5
245
100
AcDbEntity
  8
0
 62
7
100
AcDbPolyline
 90
2
 70
0
 10
424.573003
 20
571.586227
 30
0.0
 10
456.103890
 20
571.586227
 30
0.0
  0
LWPOLYLINE
  5
246
100
AcDbEntity
  8
0
 62
7
100
AcDbPolyline
 90
2
 70
0
 10
466.025678
 20
585.760267
 30
0.0
 10
457.521285
 20
585.760267
 30
0.0
  0
LWPOLYLINE
  5
247
100
AcDbEntity
  8
0
 62
7
100
AcDbPolyline
 90
2
 70
0
 10
466.025678
 20
585.760267
 30
0.0
 10
466.025678
 20
573.003645
 30
0.0
  0
LWPOLYLINE
  5
248
100
AcDbEntity
  8
0
 62
7
100
AcDbPolyline
 90
2
 70
0
 10
457.521285
 20
585.760267
 30
0.0
 10
457.521285
 20
573.003645
 30
0.0
  0
LWPOLYLINE
  5
249
100
AcDbEntity
  8
0
 62
7
100
AcDbPolyline
 90
2
 70
0
 10
425.243689
 20
615.390097
 30
0.0
 10
413.111449
 20
611.448090
 30
0.0
  0
LWPOLYLINE
  5
24a
100
AcDbEntity
  8
0
 62
7
100
AcDbPolyline
 90
2
 70
0
 10
427.871694
 20
607.301955
 30
0.0
 10
415.739448
 20
603.359872
 30
0.0
  0
LWPOLYLINE
  5
24b
100
AcDbEntity
  8
0
 62
7
100
AcDbPolyline
 90
3
 70
0
 10
436.568827
 20
650.245307
 30
0.0
 10
443.449036
 20
655.244008
 30
0.0
 10
435.950888
 20
665.564347
 30
0.0
  0
LWPOLYLINE
  5
24c
100
AcDbEntity
  8
0
 62
7
100
AcDbPolyline
 90
2
 70
0
 10
436.568827
 20
650.245307
 30
0.0
 10
429.070686
 20
660.565564
 30
0.0
  0
LWPOLYLINE
  5
24d
100
AcDbEntity
  8
0
 62
7
100
AcDbPolyline
 90
3
 70
0
 10
480.097942
 20
655.244008
 30
0.0
 10
486.978135
 20
650.245307
 30
0.0
 10
494.476282
 20
660.565564
 30
0.0
  0
LWPOLYLINE
  5
24e
100
AcDbEntity
  8
0
 62
7
100
AcDbPolyline
 90
2
 70
0
 10
480.097942
 20
655.244008
 30
0.0
 10
487.596075
 20
665.564347
 30
0.0
  0
LWPOLYLINE
  5
24f
100
AcDbEntity
  8
0
 62
7
100
AcDbPolyline
 90
3
 70
0
 10
498.303285
 20
615.390097
 30
0.0
 10
495.675277
 20
607.301955
 30
0.0
 10
507.807518
 20
603.359872
 30
0.0
  0
LWPOLYLINE
  5
250
100
AcDbEntity
  8
0
 62
7
100
AcDbPolyline
 90
2
 70
0
 10
498.303285
 20
615.390097
 30
0.0
 10
510.435525
 20
611.448090
 30
0.0
  0
LWPOLYLINE
  5
251
100
AcDbEntity
  8
0
 62
7
100
AcDbPolyline
 90
2
 70
0
 10
487.282507
 20
667.544171
 30
0.0
 10
461.773485
 20
686.077541
 30
0.0
  0
LWPOLYLINE
  5
252
100
AcDbEntity
  8
0
 62
7
100
AcDbPolyline
 90
2
 70
0
 10
512.221552
 20
612.358125
 30
0.0
 10
521.965125
 20
642.345795
 30
0.0
  0
LWPOLYLINE
  5
253
100
AcDbEntity
  8
0
 62
7
100
AcDbPolyline
 90
2
 70
0
 10
467.443072
 20
571.586227
 30
0.0
 10
498.973965
 20
571.586227
 30
0.0
  0
LWPOLYLINE
  5
254
100
AcDbEntity
  8
0
 62
7
100
AcDbPolyline
 90
2
 70
0
 10
414.829427
 20
601.573890
 30
0.0
 10
424.573003
 20
571.586227
 30
0.0
  0
LWPOLYLINE
  5
255
100
AcDbEntity
  8
0
 62
7
100
AcDbPolyline
 90
2
 70
0
 10
427.090869
 20
660.879142
 30
0.0
 10
401.581843
 20
642.345795
 30
0.0
  0
LWPOLYLINE
  5
256
100
AcDbEntity
  8
0
 62
7
100
AcDbPolyline
 90
2
 70
0
 10
429.070694
 20
660.565564
 30
0.0
 10
427.090869
 20
660.879142
 30
0.0
  0
LWPOLYLINE
  5
257
100
AcDbEntity
  8
0
 62
7
100
AcDbPolyline
 90
2
 70
0
 10
435.950888
 20
665.564347
 30
0.0
 10
436.264458
 20
667.544171
 30
0.0
  0
LWPOLYLINE
  5
258
100
AcDbEntity
  8
0
 62
7
100
AcDbPolyline
 90
2
 70
0
 10
487.596075
 20
665.564347
 30
0.0
 10
487.282507
 20
667.544171
 30
0.0
  0
LWPOLYLINE
  5
259
100
AcDbEntity
  8
0
 62
7
100
AcDbPolyline
 90
2
 70
0
 10
494.476282
 20
660.565564
 30
0.0
 10
496.456102
 20
660.879142
 30
0.0
  0
LWPOLYLINE
  5
25a
100
AcDbEntity
  8
0
 62
7
100
AcDbPolyline
 90
2
 70
0
 10
510.435525
 20
611.448090
 30
0.0
 10
512.221553
 20
612.358125
 30
0.0
  0
LWPOLYLINE
  5
25b
100
AcDbEntity
  8
0
 62
7
100
AcDbPolyline
 90
2
 70
0
 10
507.807518
 20
603.359872
 30
0.0
 10
508.717537
 20
601.573890
 30
0.0
  0
LWPOLYLINE
  5
25c
100
AcDbEntity
  8
0
 62
7
100
AcDbPolyline
 90
2
 70
0
 10
466.025678
 20
573.003645
 30
0.0
 10
467.443072
 20
571.586227
 30
0.0
  0
LWPOLYLINE
  5
25d
100
AcDbEntity
  8
0
 62
7
100
AcDbPolyline
 90
2
 70
0
 10
456.103890
 20
571.586227
 30
0.0
 10
457.521285
 20
573.003645
 30
0.0
  0
LWPOLYLINE
  5
25e
100
AcDbEntity
  8
0
 62
7
100
AcDbPolyline
 90
2
 70
0
 10
415.739455
 20
603.359872
 30
0.0
 10
414.829427
 20
601.573890
 30
0.0
  0
LWPOLYLINE
  5
25f
100
AcDbEntity
  8
0
 62
7
100
AcDbPolyline
 90
2
 70
0
 10
413.111449
 20
611.448090
 30
0.0
 10
411.325420
 20
612.358125
 30
0.0
  0
LWPOLYLINE
  5
260
100
AcDbEntity
  8
0
 62
7
100
AcDbPolyline
 90
2
 70
0
 10
427.871694
 20
487.017592
 30
0.0
 10
425.243689
 20
495.105735
 30
0.0
  0
LWPOLYLINE
  5
261
100
AcDbEntity
  8
0
 62
7
100
AcDbPolyline
 90
2
 70
0
 10
498.973965
 20
451.301865
 30
0.0
 10
508.717537
 20
481.289527
 30
0.0
  0
LWPOLYLINE
  5
262
100
AcDbEntity
  8
0
 62
7
100
AcDbPolyline
 90
2
 70
0
 10
521.965125
 20
522.061432
 30
0.0
 10
496.456102
 20
540.594779
 30
0.0
  0
LWPOLYLINE
  5
263
100
AcDbEntity
  8
0
 62
7
100
AcDbPolyline
 90
2
 70
0
 10
461.773485
 20
565.793179
 30
0.0
 10
436.264458
 20
547.259809
 30
0.0
  0
LWPOLYLINE
  5
264
100
AcDbEntity
  8
0
 62
7
100
AcDbPolyline
 90
2
 70
0
 10
401.581843
 20
522.061432
 30
0.0
 10
411.325420
 20
492.073762
 30
0.0
  0
LWPOLYLINE
  5
265
100
AcDbEntity
  8
0
 62
7
100
AcDbPolyline
 90
2
 70
0
 10
424.573003
 20
451.301865
 30
0.0
 10
456.103890
 20
451.301865
 30
0.0
  0
LWPOLYLINE
  5
266
100
AcDbEntity
  8
0
 62
7
100
AcDbPolyline
 90
2
 70
0
 10
466.025678
 20
465.475905
 30
0.0
 10
457.521285
 20
465.475905
 30
0.0
  0
LWPOLYLINE
  5
267
100
AcDbEntity
  8
0
 62
7
100
AcDbPolyline
 90
2
 70
0
 10
466.025678
 20
465.475905
 30
0.0
 10
466.025678
 20
452.719282
 30
0.0
  0
LWPOLYLINE
  5
268
100
AcDbEntity
  8
0
 62
7
100
AcDbPolyline
 90
2
 70
0
 10
457.521285
 20
465.475905
 30
0.0
 10
457.521285
 20
452.719282
 30
0.0
  0
LWPOLYLINE
  5
269
100
AcDbEntity
  8
0
 62
7
100
AcDbPolyline
 90
2
 70
0
 10
425.243689
 20
495.105735
 30
0.0
 10
413.111449
 20
491.163727
 30
0.0
  0
LWPOLYLINE
  5
26a
100
AcDbEntity
  8
0
 62
7
100
AcDbPolyline
 90
2
 70
0
 10
427.871694
 20
487.017592
 30
0.0
 10
415.739448
 20
483.075510
 30
0.0
  0
LWPOLYLINE
  5
26b
100
AcDbEntity
  8
0
 62
7
100
AcDbPolyline
 90
3
 70
0
 10
436.568827
 20
529.960945
 30
0.0
 10
443.449036
 20
534.959645
 30
0.0
 10
435.950888
 20
545.279984
 30
0.0
  0
LWPOLYLINE
  5
26c
100
AcDbEntity
  8
0
 62
7
100
AcDbPolyline
 90
2
 70
0
 10
436.568827
 20
529.960945
 30
0.0
 10
429.070686
 20
540.281201
 30
0.0
  0
LWPOLYLINE
  5
26d
100
AcDbEntity
  8
0
 62
7
100
AcDbPolyline
 90
3
 70
0
 10
480.097942
 20
534.959645
 30
0.0
 10
486.978135
 20
529.960945
 30
0.0
 10
494.476282
 20
540.281201
 30
0.0
  0
LWPOLYLINE
  5
26e
100
AcDbEntity
  8
0
 62
7
100
AcDbPolyline
 90
2
 70
0
 10
480.097942
 20
534.959645
 30
0.0
 10
487.596075
 20
545.279984
 30
0.0
  0
LWPOLYLINE
  5
26f
100
AcDbEntity
  8
0
 62
7
100
AcDbPolyline
 90
3
 70
0
 10
498.303285
 20
495.105735
 30
0.0
 10
495.675277
 20
487.017592
 30
0.0
 10
507.807518
 20
483.075510
 30
0.0
  0
LWPOLYLINE
  5
270
100
AcDbEntity
  8
0
 62
7
100
AcDbPolyline
 90
2
 70
0
 10
498.303285
 20
495.105735
 30
0.0
 10
510.435525
 20
491.163727
 30
0.0
  0
LWPOLYLINE
  5
271
100
AcDbEntity
  8
0
 62
7
100
AcDbPolyline
 90
2
 70
0
 10
487.282507
 20
547.259809
 30
0.0
 10
461.773485
 20
565.793179
 30
0.0
  0
LWPOLYLINE
  5
272
100
AcDbEntity
  8
0
 62
7
100
AcDbPolyline
 90
2
 70
0
 10
512.221552
 20
492.073762
 30
0.0
 10
521.965125
 20
522.061432
 30
0.0
  0
LWPOLYLINE
  5
273
100
AcDbEntity
  8
0
 62
7
100
AcDbPolyline
 90
2
 70
0
 10
467.443072
 20
451.301865
 30
0.0
 10
498.973965
 20
451.301865
 30
0.0
  0
LWPOLYLINE
  5
274
100
AcDbEntity
  8
0
 62
7
100
AcDbPolyline
 90
2
 70
0
 10
414.829427
 20
481.289527
 30
0.0
 10
424.573003
 20
451.301865
 30
0.0
  0
LWPOLYLINE
  5
275
100
AcDbEntity
  8
0
 62
7
100
AcDbPolyline
 90
2
 70
0
 10
427.090869
 20
540.594779
 30
0.0
 10
401.581843
 20
522.061432
 30
0.0
  0
LWPOLYLINE
  5
276
100
AcDbEntity
  8
0
 62
7
100
AcDbPolyline
 90
2
 70
0
 10
429.070694
 20
540.281201
 30
0.0
 10
427.090869
 20
540.594779
 30
0.0
  0
LWPOLYLINE
  5
277
100
AcDbEntity
  8
0
 62
7
100
AcDbPolyline
 90
2
 70
0
 10
435.950888
 20
545.279984
 30
0.0
 10
436.264458
 20
547.259809
 30
0.0
  0
LWPOLYLINE
  5
278
100
AcDbEntity
  8
0
 62
7
100
AcDbPolyline
 90
2
 70
0
 10
487.596075
 20
545.279984
 30
0.0
 10
487.282507
 20
547.259809
 30
0.0
  0
LWPOLYLINE
  5
279
100
AcDbEntity
  8
0
 62
7
100
AcDbPolyline
 90
2
 70
0
 10
494.476282
 20
540.281201
 30
0.0
 10
496.456102
 20
540.594779
 30
0.0
  0
LWPOLYLINE
  5
27a
100
AcDbEntity
  8
0
 62
7
100
AcDbPolyline
 90
2
 70
0
 10
510.435525
 20
491.163727
 30
0.0
 10
512.221553
 20
492.073762
 30
0.0
  0
LWPOLYLINE
  5
27b
100
AcDbEntity
  8
0
 62
7
100
AcDbPolyline
 90
2
 70
0
 10
507.807518
 20
483.075510
 30
0.0
 10
508.717537
 20
481.289527
 30
0.0
  0
LWPOLYLINE
  5
27c
100
AcDbEntity
  8
0
 62
7
100
AcDbPolyline
 90
2
 70
0
 10
466.025678
 20
452.719282
 30
0.0
 10
467.443072
 20
451.301865
 30
0.0
  0
LWPOLYLINE
  5
27d
100
AcDbEntity
  8
0
 62
7
100
AcDbPolyline
 90
2
 70
0
 10
456.103890
 20
451.301865
 30
0.0
 10
457.521285
 20
452.719282
 30
0.0
  0
LWPOLYLINE
  5
27e
100
AcDbEntity
  8
0
 62
7
100
AcDbPolyline
 90
2
 70
0
 10
415.739455
 20
483.075510
 30
0.0
 10
414.829427
 20
481.289527
 30
0.0
  0
LWPOLYLINE
  5
27f
100
AcDbEntity
  8
0
 62
7
100
AcDbPolyline
 90
2
 70
0
 10
413.111449
 20
491.163727
 30
0.0
 10
411.325420
 20
492.073762
 30
0.0
  0
ENDSEC
  0
SECTION
  2
OBJECTS
  0
DICTIONARY
  5
C
330
0
100
AcDbDictionary
  3
ACAD_GROUP
350
D
  3
ACAD_MLINESTYLE
350
17
  0
DICTIONARY
  5
D
330
C
100
AcDbDictionary
  0
DICTIONARY
  5
1A
330
C
100
AcDbDictionary
  0
DICTIONARY
  5
17
330
C
100
AcDbDictionary
  3
STANDARD
350
18
  0
DICTIONARY
  5
19
330
C
100
AcDbDictionary
  0
ENDSEC
  0
EOF
