<?xml version="1.0" encoding="UTF-8" standalone="no"?>
<!DOCTYPE svg PUBLIC "-//W3C//DTD SVG 1.1//EN" "http://www.w3.org/Graphics/SVG/1.1/DTD/svg11.dtd">
<svg width="2880pt" height="2880pt" viewBox="0 0 2880 2880" overflow="visible" version="1.1" xmlns="http://www.w3.org/2000/svg">
  <path d="M1343.993,97.27956 C1344.448,96.54696 1344.448,95.44926 1343.993,94.71667 L1329.068,68.86437 C1328.767,68.19691 1327.64,67.8948 1327.046,68.32277 L1313.652,76.05569 C1313.059,76.48367 1311.931,76.18155 1311.631,75.51408 L1309.922,72.5535 C1309.494,71.95985 1309.796,70.83234 1310.464,70.53222 L1323.857,62.7993 C1324.525,62.49918 1324.827,61.37167 1324.399,60.77802 L1309.473,34.92573 C1309.066,34.16608 1308.115,33.61724 1307.254,33.64428 L1277.402,33.64428 C1276.674,33.57047 1275.848,34.39586 1275.922,35.12397 L1275.922,50.58979 C1275.996,51.3179 1275.171,52.14329 1274.443,52.06948 L1271.024,52.06948 C1270.296,52.14329 1269.47,51.3179 1269.544,50.58979 L1269.544,35.12397 C1269.618,34.39586 1268.793,33.57047 1268.065,33.64428 L1238.213,33.64428 C1237.351,33.61724 1236.401,34.16608 1235.993,34.92573 L1221.068,60.77802 C1220.64,61.37167 1220.942,62.49918 1221.609,62.7993 L1235.003,70.53222 C1235.67,70.83234 1235.973,71.95985 1235.545,72.5535 L1233.835,75.51408 C1233.535,76.18155 1232.408,76.48367 1231.814,76.05569 L1218.42,68.32277 C1217.827,67.8948 1216.699,68.19691 1216.399,68.86437 L1201.473,94.71667 C1201.019,95.44926 1201.019,96.54696 1201.473,97.27956 L1216.399,123.1318 C1216.699,123.7993 1217.827,124.1014 1218.42,123.6734 L1231.814,115.9405 C1232.408,115.5126 1233.535,115.8147 1233.835,116.4821 L1235.545,119.4427 C1235.973,120.0364 1235.67,121.1639 1235.003,121.464 L1221.609,129.1969 C1220.942,129.497 1220.64,130.6246 1221.068,131.2182 L1235.993,157.0705 C1236.401,157.8301 1237.351,158.379 1238.213,158.3519 L1268.065,158.3519 C1268.793,158.4258 1269.618,157.6004 1269.544,156.8723 L1269.544,141.4064 C1269.47,140.6783 1270.296,139.8529 1271.024,139.9267 L1274.443,139.9267 C1275.171,139.8529 1275.996,140.6783 1275.922,141.4064 L1275.922,156.8723 C1275.848,157.6004 1276.674,158.4258 1277.402,158.3519 L1307.254,158.3519 C1308.115,158.379 1309.066,157.8301 1309.473,157.0705 L1324.399,131.2182 C1324.827,130.6246 1324.525,129.497 1323.857,129.1969 L1310.464,121.464 C1309.796,121.1639 1309.494,120.0364 1309.922,119.4427 L1311.631,116.4821 C1311.931,115.8147 1313.059,115.5126 1313.652,115.9405 L1327.046,123.6734 C1327.64,124.1014 1328.767,123.7993 1329.068,123.1318 z" stroke="#000000" stroke-width="1" fill-opacity="0" />
  <path d="M1198.259,97.27956 C1198.713,96.54696 1198.713,95.44926 1198.259,94.71667 L1183.333,68.86437 C1183.033,68.19691 1181.905,67.8948 1181.312,68.32277 L1167.918,76.05569 C1167.324,76.48367 1166.197,76.18155 1165.896,75.51408 L1164.187,72.5535 C1163.759,71.95985 1164.061,70.83234 1164.729,70.53222 L1178.122,62.7993 C1178.79,62.49918 1179.092,61.37167 1178.664,60.77802 L1163.738,34.92573 C1163.331,34.16608 1162.38,33.61724 1161.519,33.64428 L1131.667,33.64428 C1130.939,33.57047 1130.114,34.39586 1130.187,35.12397 L1130.187,50.58979 C1130.261,51.3179 1129.436,52.14329 1128.708,52.06948 L1125.289,52.06948 C1124.561,52.14329 1123.736,51.3179 1123.809,50.58979 L1123.809,35.12397 C1123.883,34.39586 1123.058,33.57047 1122.33,33.64428 L1092.478,33.64428 C1091.617,33.61724 1090.666,34.16608 1090.259,34.92573 L1075.333,60.77802 C1074.905,61.37167 1075.207,62.49918 1075.874,62.7993 L1089.268,70.53222 C1089.936,70.83234 1090.238,71.95985 1089.81,72.5535 L1088.1,75.51408 C1087.8,76.18155 1086.673,76.48367 1086.079,76.05569 L1072.685,68.32277 C1072.092,67.8948 1070.964,68.19691 1070.664,68.86437 L1055.738,94.71667 C1055.284,95.44926 1055.284,96.54696 1055.738,97.27956 L1070.664,123.1318 C1070.964,123.7993 1072.092,124.1014 1072.685,123.6734 L1086.079,115.9405 C1086.673,115.5126 1087.8,115.8147 1088.1,116.4821 L1089.81,119.4427 C1090.238,120.0364 1089.936,121.1639 1089.268,121.464 L1075.874,129.1969 C1075.207,129.497 1074.905,130.6246 1075.333,131.2182 L1090.259,157.0705 C1090.666,157.8301 1091.617,158.379 1092.478,158.3519 L1122.33,158.3519 C1123.058,158.4258 1123.883,157.6004 1123.809,156.8723 L1123.809,141.4064 C1123.736,140.6783 1124.561,139.8529 1125.289,139.9267 L1128.708,139.9267 C1129.436,139.8529 1130.261,140.6783 1130.187,141.4064 L1130.187,156.8723 C1130.114,157.6004 1130.939,158.4258 1131.667,158.3519 L1161.519,158.3519 C1162.38,158.379 1163.331,157.8301 1163.738,157.0705 L1178.664,131.2182 C1179.092,130.6246 1178.79,129.497 1178.122,129.1969 L1164.729,121.464 C1164.061,121.1639 1163.759,120.0364 1164.187,119.4427 L1165.896,116.4821 C1166.197,115.8147 1167.324,115.5126 1167.918,115.9405 L1181.312,123.6734 C1181.905,124.1014 1183.033,123.7993 1183.333,123.1318 z" stroke="#000000" stroke-width="1" fill-opacity="0" />
  <path d="M1052.524,97.27956 C1052.978,96.54696 1052.978,95.44926 1052.524,94.71667 L1037.598,68.86437 C1037.298,68.19691 1036.17,67.8948 1035.577,68.32277 L1022.183,76.05569 C1021.589,76.48367 1020.462,76.18155 1020.162,75.51408 L1018.452,72.5535 C1018.024,71.95985 1018.326,70.83234 1018.994,70.53222 L1032.388,62.7993 C1033.055,62.49918 1033.357,61.37167 1032.929,60.77802 L1018.003,34.92573 C1017.596,34.16608 1016.646,33.61724 1015.784,33.64428 L985.9323,33.64428 C985.2042,33.57047 984.3788,34.39586 984.4526,35.12397 L984.4526,50.58979 C984.5264,51.3179 983.701,52.14329 982.9729,52.06948 L979.5543,52.06948 C978.8262,52.14329 978.0009,51.3179 978.0746,50.58979 L978.0746,35.12397 C978.1484,34.39586 977.3231,33.57047 976.595,33.64428 L946.7433,33.64428 C945.8818,33.61724 944.9312,34.16608 944.5238,34.92573 L929.598,60.77802 C929.17,61.37167 929.4721,62.49918 930.1395,62.7993 L943.5333,70.53222 C944.2008,70.83234 944.5029,71.95985 944.075,72.5535 L942.3657,75.51408 C942.0656,76.18155 940.938,76.48367 940.3444,76.05569 L926.9506,68.32277 C926.3569,67.8948 925.2294,68.19691 924.9293,68.86437 L910.0035,94.71667 C909.5493,95.44926 909.5493,96.54696 910.0035,97.27956 L924.9293,123.1318 C925.2294,123.7993 926.3569,124.1014 926.9506,123.6734 L940.3444,115.9405 C940.938,115.5126 942.0656,115.8147 942.3657,116.4821 L944.075,119.4427 C944.5029,120.0364 944.2008,121.1639 943.5333,121.464 L930.1395,129.1969 C929.4721,129.497 929.17,130.6246 929.598,131.2182 L944.5238,157.0705 C944.9312,157.8301 945.8818,158.379 946.7433,158.3519 L976.595,158.3519 C977.3231,158.4258 978.1484,157.6004 978.0746,156.8723 L978.0746,141.4064 C978.0009,140.6783 978.8262,139.8529 979.5543,139.9267 L982.9729,139.9267 C983.701,139.8529 984.5264,140.6783 984.4526,141.4064 L984.4526,156.8723 C984.3788,157.6004 985.2042,158.4258 985.9323,158.3519 L1015.784,158.3519 C1016.646,158.379 1017.596,157.8301 1018.003,157.0705 L1032.929,131.2182 C1033.357,130.6246 1033.055,129.497 1032.388,129.1969 L1018.994,121.464 C1018.326,121.1639 1018.024,120.0364 1018.452,119.4427 L1020.162,116.4821 C1020.462,115.8147 1021.589,115.5126 1022.183,115.9405 L1035.577,123.6734 C1036.17,124.1014 1037.298,123.7993 1037.598,123.1318 z" stroke="#000000" stroke-width="1" fill-opacity="0" />
  <path d="M906.789,97.27956 C907.2432,96.54696 907.2432,95.44926 906.789,94.71667 L891.8632,68.86437 C891.563,68.19691 890.4355,67.8948 889.8419,68.32277 L876.4481,76.05569 C875.8544,76.48367 874.7269,76.18155 874.4268,75.51408 L872.7175,72.5535 C872.2895,71.95985 872.5916,70.83234 873.2591,70.53222 L886.6529,62.7993 C887.3204,62.49918 887.6224,61.37167 887.1945,60.77802 L872.2687,34.92573 C871.8613,34.16608 870.9107,33.61724 870.0491,33.64428 L840.1975,33.64428 C839.4694,33.57047 838.644,34.39586 838.7178,35.12397 L838.7178,50.58979 C838.7916,51.3179 837.9662,52.14329 837.2381,52.06948 L833.8195,52.06948 C833.0914,52.14329 832.2661,51.3179 832.3398,50.58979 L832.3398,35.12397 C832.4136,34.39586 831.5883,33.57047 830.8602,33.64428 L801.0085,33.64428 C800.147,33.61724 799.1964,34.16608 798.789,34.92573 L783.8632,60.77802 C783.4352,61.37167 783.7373,62.49918 784.4047,62.7993 L797.7985,70.53222 C798.466,70.83234 798.7681,71.95985 798.3401,72.5535 L796.6309,75.51408 C796.3307,76.18155 795.2032,76.48367 794.6096,76.05569 L781.2158,68.32277 C780.6221,67.8948 779.4946,68.19691 779.1945,68.86437 L764.2687,94.71667 C763.8145,95.44926 763.8145,96.54696 764.2687,97.27956 L779.1945,123.1318 C779.4946,123.7993 780.6221,124.1014 781.2158,123.6734 L794.6096,115.9405 C795.2032,115.5126 796.3307,115.8147 796.6309,116.4821 L798.3401,119.4427 C798.7681,120.0364 798.466,121.1639 797.7985,121.464 L784.4047,129.1969 C783.7373,129.497 783.4352,130.6246 783.8632,131.2182 L798.789,157.0705 C799.1964,157.8301 800.147,158.379 801.0085,158.3519 L830.8602,158.3519 C831.5883,158.4258 832.4136,157.6004 832.3398,156.8723 L832.3398,141.4064 C832.2661,140.6783 833.0914,139.8529 833.8195,139.9267 L837.2381,139.9267 C837.9662,139.8529 838.7916,140.6783 838.7178,141.4064 L838.7178,156.8723 C838.644,157.6004 839.4694,158.4258 840.1975,158.3519 L870.0491,158.3519 C870.9107,158.379 871.8613,157.8301 872.2687,157.0705 L887.1945,131.2182 C887.6224,130.6246 887.3204,129.497 886.6529,129.1969 L873.2591,121.464 C872.5916,121.1639 872.2895,120.0364 872.7175,119.4427 L874.4268,116.4821 C874.7269,115.8147 875.8544,115.5126 876.4481,115.9405 L889.8419,123.6734 C890.4355,124.1014 891.563,123.7993 891.8632,123.1318 z" stroke="#000000" stroke-width="1" fill-opacity="0" />
  <path d="M761.0542,97.27956 C761.5084,96.54696 761.5084,95.44926 761.0542,94.71667 L746.1284,68.86437 C745.8282,68.19691 744.7007,67.8948 744.1071,68.32277 L730.7133,76.05569 C730.1196,76.48367 728.9921,76.18155 728.692,75.51408 L726.9827,72.5535 C726.5547,71.95985 726.8568,70.83234 727.5243,70.53222 L740.9181,62.7993 C741.5856,62.49918 741.8876,61.37167 741.4597,60.77802 L726.5339,34.92573 C726.1265,34.16608 725.1759,33.61724 724.3143,33.64428 L694.4627,33.64428 C693.7346,33.57047 692.9092,34.39586 692.983,35.12397 L692.983,50.58979 C693.0568,51.3179 692.2314,52.14329 691.5033,52.06948 L688.0847,52.06948 C687.3566,52.14329 686.5313,51.3179 686.605,50.58979 L686.605,35.12397 C686.6788,34.39586 685.8535,33.57047 685.1254,33.64428 L655.2737,33.64428 C654.4122,33.61724 653.4615,34.16608 653.0542,34.92573 L638.1284,60.77802 C637.7004,61.37167 638.0025,62.49918 638.6699,62.7993 L652.0637,70.53222 C652.7312,70.83234 653.0333,71.95985 652.6053,72.5535 L650.8961,75.51408 C650.5959,76.18155 649.4684,76.48367 648.8748,76.05569 L635.481,68.32277 C634.8873,67.8948 633.7598,68.19691 633.4597,68.86437 L618.5339,94.71667 C618.0797,95.44926 618.0797,96.54696 618.5339,97.27956 L633.4597,123.1318 C633.7598,123.7993 634.8873,124.1014 635.481,123.6734 L648.8748,115.9405 C649.4684,115.5126 650.5959,115.8147 650.8961,116.4821 L652.6053,119.4427 C653.0333,120.0364 652.7312,121.1639 652.0637,121.464 L638.6699,129.1969 C638.0025,129.497 637.7004,130.6246 638.1284,131.2182 L653.0542,157.0705 C653.4615,157.8301 654.4122,158.379 655.2737,158.3519 L685.1254,158.3519 C685.8535,158.4258 686.6788,157.6004 686.605,156.8723 L686.605,141.4064 C686.5313,140.6783 687.3566,139.8529 688.0847,139.9267 L691.5033,139.9267 C692.2314,139.8529 693.0568,140.6783 692.983,141.4064 L692.983,156.8723 C692.9092,157.6004 693.7346,158.4258 694.4627,158.3519 L724.3143,158.3519 C725.1759,158.379 726.1265,157.8301 726.5339,157.0705 L741.4597,131.2182 C741.8876,130.6246 741.5856,129.497 740.9181,129.1969 L727.5243,121.464 C726.8568,121.1639 726.5547,120.0364 726.9827,119.4427 L728.692,116.4821 C728.9921,115.8147 730.1196,115.5126 730.7133,115.9405 L744.1071,123.6734 C744.7007,124.1014 745.8282,123.7993 746.1284,123.1318 z" stroke="#000000" stroke-width="1" fill-opacity="0" />
  <path d="M615.3194,97.27956 C615.7736,96.54696 615.7736,95.44926 615.3194,94.71667 L600.3936,68.86437 C600.0934,68.19691 598.9659,67.8948 598.3723,68.32277 L584.9785,76.05569 C584.3848,76.48367 583.2573,76.18155 582.9572,75.51408 L581.2479,72.5535 C580.8199,71.95985 581.122,70.83234 581.7895,70.53222 L595.1833,62.7993 C595.8508,62.49918 596.1528,61.37167 595.7249,60.77802 L580.7991,34.92573 C580.3917,34.16608 579.4411,33.61724 578.5795,33.64428 L548.7278,33.64428 C547.9998,33.57047 547.1744,34.39586 547.2482,35.12397 L547.2482,50.58979 C547.322,51.3179 546.4966,52.14329 545.7685,52.06948 L542.3499,52.06948 C541.6218,52.14329 540.7964,51.3179 540.8702,50.58979 L540.8702,35.12397 C540.944,34.39586 540.1187,33.57047 539.3906,33.64428 L509.5389,33.64428 C508.6774,33.61724 507.7267,34.16608 507.3194,34.92573 L492.3936,60.77802 C491.9656,61.37167 492.2677,62.49918 492.9352,62.7993 L506.3289,70.53222 C506.9964,70.83234 507.2985,71.95985 506.8705,72.5535 L505.1613,75.51408 C504.8611,76.18155 503.7336,76.48367 503.14,76.05569 L489.7462,68.32277 C489.1525,67.8948 488.025,68.19691 487.7249,68.86437 L472.799,94.71667 C472.3448,95.44926 472.3448,96.54696 472.799,97.27956 L487.7249,123.1318 C488.025,123.7993 489.1525,124.1014 489.7462,123.6734 L503.14,115.9405 C503.7336,115.5126 504.8611,115.8147 505.1613,116.4821 L506.8705,119.4427 C507.2985,120.0364 506.9964,121.1639 506.3289,121.464 L492.9352,129.1969 C492.2677,129.497 491.9656,130.6246 492.3936,131.2182 L507.3194,157.0705 C507.7267,157.8301 508.6774,158.379 509.5389,158.3519 L539.3906,158.3519 C540.1187,158.4258 540.944,157.6004 540.8702,156.8723 L540.8702,141.4064 C540.7964,140.6783 541.6218,139.8529 542.3499,139.9267 L545.7685,139.9267 C546.4966,139.8529 547.322,140.6783 547.2482,141.4064 L547.2482,156.8723 C547.1744,157.6004 547.9998,158.4258 548.7278,158.3519 L578.5795,158.3519 C579.4411,158.379 580.3917,157.8301 580.7991,157.0705 L595.7249,131.2182 C596.1528,130.6246 595.8508,129.497 595.1833,129.1969 L581.7895,121.464 C581.122,121.1639 580.8199,120.0364 581.2479,119.4427 L582.9572,116.4821 C583.2573,115.8147 584.3848,115.5126 584.9785,115.9405 L598.3723,123.6734 C598.9659,124.1014 600.0934,123.7993 600.3936,123.1318 z" stroke="#000000" stroke-width="1" fill-opacity="0" />
  <path d="M469.5846,97.27956 C470.0388,96.54696 470.0388,95.44926 469.5846,94.71667 L454.6588,68.86437 C454.3586,68.19691 453.2311,67.8948 452.6375,68.32277 L439.2437,76.05569 C438.65,76.48367 437.5225,76.18155 437.2224,75.51408 L435.5131,72.5535 C435.0851,71.95985 435.3872,70.83234 436.0547,70.53222 L449.4485,62.7993 C450.1159,62.49918 450.4181,61.37167 449.9901,60.77802 L435.0642,34.92573 C434.6569,34.16608 433.7063,33.61724 432.8447,33.64428 L402.9931,33.64428 C402.265,33.57047 401.4396,34.39586 401.5134,35.12397 L401.5134,50.58979 C401.5872,51.3179 400.7618,52.14329 400.0337,52.06948 L396.6151,52.06948 C395.887,52.14329 395.0616,51.3179 395.1354,50.58979 L395.1354,35.12397 C395.2093,34.39586 394.3839,33.57047 393.6558,33.64428 L363.8041,33.64428 C362.9426,33.61724 361.9919,34.16608 361.5846,34.92573 L346.6588,60.77802 C346.2308,61.37167 346.5329,62.49918 347.2003,62.7993 L360.5941,70.53222 C361.2616,70.83234 361.5637,71.95985 361.1357,72.5535 L359.4265,75.51408 C359.1263,76.18155 357.9988,76.48367 357.4052,76.05569 L344.0114,68.32277 C343.4177,67.8948 342.2902,68.19691 341.9901,68.86437 L327.0642,94.71667 C326.61,95.44926 326.61,96.54696 327.0642,97.27956 L341.9901,123.1318 C342.2902,123.7993 343.4177,124.1014 344.0114,123.6734 L357.4052,115.9405 C357.9988,115.5126 359.1263,115.8147 359.4265,116.4821 L361.1357,119.4427 C361.5637,120.0364 361.2616,121.1639 360.5941,121.464 L347.2003,129.1969 C346.5329,129.497 346.2308,130.6246 346.6588,131.2182 L361.5846,157.0705 C361.9919,157.8301 362.9426,158.379 363.8041,158.3519 L393.6558,158.3519 C394.3839,158.4258 395.2093,157.6004 395.1354,156.8723 L395.1354,141.4064 C395.0616,140.6783 395.887,139.8529 396.6151,139.9267 L400.0337,139.9267 C400.7618,139.8529 401.5872,140.6783 401.5134,141.4064 L401.5134,156.8723 C401.4396,157.6004 402.265,158.4258 402.9931,158.3519 L432.8447,158.3519 C433.7063,158.379 434.6569,157.8301 435.0642,157.0705 L449.9901,131.2182 C450.4181,130.6246 450.1159,129.497 449.4485,129.1969 L436.0547,121.464 C435.3872,121.1639 435.0851,120.0364 435.5131,119.4427 L437.2224,116.4821 C437.5225,115.8147 438.65,115.5126 439.2437,115.9405 L452.6375,123.6734 C453.2311,124.1014 454.3586,123.7993 454.6588,123.1318 z" stroke="#000000" stroke-width="1" fill-opacity="0" />
  <path d="M323.8498,97.27956 C324.304,96.54696 324.304,95.44926 323.8498,94.71667 L308.924,68.86437 C308.6238,68.19691 307.4963,67.8948 306.9026,68.32277 L293.5089,76.05569 C292.9152,76.48367 291.7877,76.18155 291.4875,75.51408 L289.7783,72.5535 C289.3503,71.95985 289.6524,70.83234 290.3199,70.53222 L303.7137,62.7993 C304.3811,62.49918 304.6833,61.37167 304.2553,60.77802 L289.3294,34.92573 C288.9221,34.16608 287.9715,33.61724 287.1099,33.64428 L257.2583,33.64428 C256.5302,33.57047 255.7048,34.39586 255.7786,35.12397 L255.7786,50.58979 C255.8524,51.3179 255.027,52.14329 254.2989,52.06948 L250.8803,52.06948 C250.1522,52.14329 249.3268,51.3179 249.4006,50.58979 L249.4006,35.12397 C249.4744,34.39586 248.649,33.57047 247.9209,33.64428 L218.0693,33.64428 C217.2077,33.61724 216.2571,34.16608 215.8498,34.92573 L200.9239,60.77802 C200.496,61.37167 200.7981,62.49918 201.4655,62.7993 L214.8593,70.53222 C215.5268,70.83234 215.8289,71.95985 215.4009,72.5535 L213.6917,75.51408 C213.3915,76.18155 212.264,76.48367 211.6704,76.05569 L198.2766,68.32277 C197.6829,67.8948 196.5554,68.19691 196.2553,68.86437 L181.3295,94.71667 C180.8753,95.44926 180.8753,96.54696 181.3295,97.27956 L196.2553,123.1318 C196.5554,123.7993 197.6829,124.1014 198.2766,123.6734 L211.6704,115.9405 C212.264,115.5126 213.3915,115.8147 213.6917,116.4821 L215.4009,119.4427 C215.8289,120.0364 215.5268,121.1639 214.8593,121.464 L201.4655,129.1969 C200.7981,129.497 200.496,130.6246 200.9239,131.2182 L215.8498,157.0705 C216.2571,157.8301 217.2077,158.379 218.0693,158.3519 L247.9209,158.3519 C248.649,158.4258 249.4744,157.6004 249.4006,156.8723 L249.4006,141.4064 C249.3268,140.6783 250.1522,139.8529 250.8803,139.9267 L254.2989,139.9267 C255.027,139.8529 255.8524,140.6783 255.7786,141.4064 L255.7786,156.8723 C255.7048,157.6004 256.5302,158.4258 257.2583,158.3519 L287.1099,158.3519 C287.9715,158.379 288.9221,157.8301 289.3294,157.0705 L304.2553,131.2182 C304.6833,130.6246 304.3811,129.497 303.7137,129.1969 L290.3199,121.464 C289.6524,121.1639 289.3503,120.0364 289.7783,119.4427 L291.4875,116.4821 C291.7877,115.8147 292.9152,115.5126 293.5089,115.9405 L306.9026,123.6734 C307.4963,124.1014 308.6238,123.7993 308.924,123.1318 z" stroke="#000000" stroke-width="1" fill-opacity="0" />
  <path d="M178.115,97.27956 C178.5692,96.54696 178.5692,95.44926 178.115,94.71667 L163.1891,68.86437 C162.889,68.19691 161.7615,67.8948 161.1678,68.32277 L147.774,76.05569 C147.1804,76.48367 146.0529,76.18155 145.7528,75.51408 L144.0435,72.5535 C143.6155,71.95985 143.9176,70.83234 144.5851,70.53222 L157.9789,62.7993 C158.6463,62.49918 158.9485,61.37167 158.5205,60.77802 L143.5947,34.92573 C143.1873,34.16608 142.2367,33.61724 141.3751,33.64428 L111.5235,33.64428 C110.7954,33.57047 109.97,34.39586 110.0438,35.12397 L110.0438,50.58979 C110.1176,51.3179 109.2922,52.14329 108.5641,52.06948 L105.1455,52.06948 C104.4174,52.14329 103.592,51.3179 103.6658,50.58979 L103.6658,35.12397 C103.7396,34.39586 102.9142,33.57047 102.1861,33.64428 L72.33449,33.64428 C71.47295,33.61724 70.52231,34.16608 70.11496,34.92573 L55.18913,60.77802 C54.76115,61.37167 55.06327,62.49918 55.73074,62.7993 L69.12453,70.53222 C69.792,70.83234 70.09412,71.95985 69.66614,72.5535 L67.95685,75.51408 C67.65672,76.18155 66.52921,76.48367 65.93556,76.05569 L52.54176,68.32277 C51.94811,67.8948 50.8206,68.19691 50.52047,68.86437 L35.59465,94.71667 C35.14045,95.44926 35.14045,96.54696 35.59465,97.27956 L50.52047,123.1318 C50.8206,123.7993 51.94811,124.1014 52.54176,123.6734 L65.93556,115.9405 C66.52921,115.5126 67.65672,115.8147 67.95685,116.4821 L69.66614,119.4427 C70.09412,120.0364 69.792,121.1639 69.12453,121.464 L55.73074,129.1969 C55.06327,129.497 54.76115,130.6246 55.18913,131.2182 L70.11496,157.0705 C70.52231,157.8301 71.47295,158.379 72.33449,158.3519 L102.1861,158.3519 C102.9142,158.4258 103.7396,157.6004 103.6658,156.8723 L103.6658,141.4064 C103.592,140.6783 104.4174,139.8529 105.1455,139.9267 L108.5641,139.9267 C109.2922,139.8529 110.1176,140.6783 110.0438,141.4064 L110.0438,156.8723 C109.97,157.6004 110.7954,158.4258 111.5235,158.3519 L141.3751,158.3519 C142.2367,158.379 143.1873,157.8301 143.5947,157.0705 L158.5205,131.2182 C158.9485,130.6246 158.6463,129.497 157.9789,129.1969 L144.5851,121.464 C143.9176,121.1639 143.6155,120.0364 144.0435,119.4427 L145.7528,116.4821 C146.0529,115.8147 147.1804,115.5126 147.774,115.9405 L161.1678,123.6734 C161.7615,124.1014 162.889,123.7993 163.1891,123.1318 z" stroke="#000000" stroke-width="1" fill-opacity="0" />
  <path d="M1489.728,239.0118 C1490.182,238.2792 1490.182,237.1815 1489.728,236.4489 L1474.802,210.5967 C1474.502,209.9292 1473.375,209.6271 1472.781,210.0551 L1459.387,217.788 C1458.794,218.2159 1457.666,217.9138 1457.366,217.2464 L1455.657,214.2858 C1455.229,213.6921 1455.531,212.5646 1456.198,212.2645 L1469.592,204.5316 C1470.26,204.2315 1470.562,203.1039 1470.134,202.5103 L1455.208,176.658 C1454.801,175.8984 1453.85,175.3495 1452.988,175.3766 L1423.137,175.3766 C1422.409,175.3027 1421.583,176.1281 1421.657,176.8562 L1421.657,192.3221 C1421.731,193.0502 1420.905,193.8756 1420.177,193.8018 L1416.759,193.8018 C1416.031,193.8756 1415.205,193.0502 1415.279,192.3221 L1415.279,176.8562 C1415.353,176.1281 1414.527,175.3027 1413.799,175.3766 L1383.948,175.3766 C1383.086,175.3495 1382.135,175.8984 1381.728,176.658 L1366.802,202.5103 C1366.374,203.1039 1366.677,204.2315 1367.344,204.5316 L1380.738,212.2645 C1381.405,212.5646 1381.707,213.6921 1381.279,214.2858 L1379.57,217.2464 C1379.27,217.9138 1378.142,218.2159 1377.549,217.788 L1364.155,210.0551 C1363.561,209.6271 1362.434,209.9292 1362.134,210.5967 L1347.208,236.4489 C1346.754,237.1815 1346.754,238.2792 1347.208,239.0118 L1362.134,264.8641 C1362.434,265.5316 1363.561,265.8337 1364.155,265.4057 L1377.549,257.6728 C1378.142,257.2448 1379.27,257.547 1379.57,258.2144 L1381.279,261.175 C1381.707,261.7686 1381.405,262.8961 1380.738,263.1963 L1367.344,270.9292 C1366.677,271.2293 1366.374,272.3568 1366.802,272.9505 L1381.728,298.8028 C1382.135,299.5624 1383.086,300.1113 1383.948,300.0842 L1413.799,300.0842 C1414.527,300.1581 1415.353,299.3326 1415.279,298.6045 L1415.279,283.1387 C1415.205,282.4106 1416.031,281.5852 1416.759,281.659 L1420.177,281.659 C1420.905,281.5852 1421.731,282.4106 1421.657,283.1387 L1421.657,298.6045 C1421.583,299.3326 1422.409,300.1581 1423.137,300.0842 L1452.988,300.0842 C1453.85,300.1113 1454.801,299.5624 1455.208,298.8028 L1470.134,272.9505 C1470.562,272.3568 1470.26,271.2293 1469.592,270.9292 L1456.198,263.1963 C1455.531,262.8961 1455.229,261.7686 1455.657,261.175 L1457.366,258.2144 C1457.666,257.547 1458.794,257.2448 1459.387,257.6728 L1472.781,265.4057 C1473.375,265.8337 1474.502,265.5316 1474.802,264.8641 z" stroke="#000000" stroke-width="1" fill-opacity="0" />
  <path d="M1343.993,239.0118 C1344.448,238.2792 1344.448,237.1815 1343.993,236.4489 L1329.068,210.5967 C1328.767,209.9292 1327.64,209.6271 1327.046,210.0551 L1313.652,217.788 C1313.059,218.2159 1311.931,217.9138 1311.631,217.2464 L1309.922,214.2858 C1309.494,213.6921 1309.796,212.5646 1310.464,212.2645 L1323.857,204.5316 C1324.525,204.2315 1324.827,203.1039 1324.399,202.5103 L1309.473,176.658 C1309.066,175.8984 1308.115,175.3495 1307.254,175.3766 L1277.402,175.3766 C1276.674,175.3027 1275.848,176.1281 1275.922,176.8562 L1275.922,192.3221 C1275.996,193.0502 1275.171,193.8756 1274.443,193.8018 L1271.024,193.8018 C1270.296,193.8756 1269.47,193.0502 1269.544,192.3221 L1269.544,176.8562 C1269.618,176.1281 1268.793,175.3027 1268.065,175.3766 L1238.213,175.3766 C1237.351,175.3495 1236.401,175.8984 1235.993,176.658 L1221.068,202.5103 C1220.64,203.1039 1220.942,204.2315 1221.609,204.5316 L1235.003,212.2645 C1235.67,212.5646 1235.973,213.6921 1235.545,214.2858 L1233.835,217.2464 C1233.535,217.9138 1232.408,218.2159 1231.814,217.788 L1218.42,210.0551 C1217.827,209.6271 1216.699,209.9292 1216.399,210.5967 L1201.473,236.4489 C1201.019,237.1815 1201.019,238.2792 1201.473,239.0118 L1216.399,264.8641 C1216.699,265.5316 1217.827,265.8337 1218.42,265.4057 L1231.814,257.6728 C1232.408,257.2448 1233.535,257.547 1233.835,258.2144 L1235.545,261.175 C1235.973,261.7686 1235.67,262.8961 1235.003,263.1963 L1221.609,270.9292 C1220.942,271.2293 1220.64,272.3568 1221.068,272.9505 L1235.993,298.8028 C1236.401,299.5624 1237.351,300.1113 1238.213,300.0842 L1268.065,300.0842 C1268.793,300.1581 1269.618,299.3326 1269.544,298.6045 L1269.544,283.1387 C1269.47,282.4106 1270.296,281.5852 1271.024,281.659 L1274.443,281.659 C1275.171,281.5852 1275.996,282.4106 1275.922,283.1387 L1275.922,298.6045 C1275.848,299.3326 1276.674,300.1581 1277.402,300.0842 L1307.254,300.0842 C1308.115,300.1113 1309.066,299.5624 1309.473,298.8028 L1324.399,272.9505 C1324.827,272.3568 1324.525,271.2293 1323.857,270.9292 L1310.464,263.1963 C1309.796,262.8961 1309.494,261.7686 1309.922,261.175 L1311.631,258.2144 C1311.931,257.547 1313.059,257.2448 1313.652,257.6728 L1327.046,265.4057 C1327.64,265.8337 1328.767,265.5316 1329.068,264.8641 z" stroke="#000000" stroke-width="1" fill-opacity="0" />
  <path d="M1198.259,239.0118 C1198.713,238.2792 1198.713,237.1815 1198.259,236.4489 L1183.333,210.5967 C1183.033,209.9292 1181.905,209.6271 1181.312,210.0551 L1167.918,217.788 C1167.324,218.2159 1166.197,217.9138 1165.896,217.2464 L1164.187,214.2858 C1163.759,213.6921 1164.061,212.5646 1164.729,212.2645 L1178.122,204.5316 C1178.79,204.2315 1179.092,203.1039 1178.664,202.5103 L1163.738,176.658 C1163.331,175.8984 1162.38,175.3495 1161.519,175.3766 L1131.667,175.3766 C1130.939,175.3027 1130.114,176.1281 1130.187,176.8562 L1130.187,192.3221 C1130.261,193.0502 1129.436,193.8756 1128.708,193.8018 L1125.289,193.8018 C1124.561,193.8756 1123.736,193.0502 1123.809,192.3221 L1123.809,176.8562 C1123.883,176.1281 1123.058,175.3027 1122.33,175.3766 L1092.478,175.3766 C1091.617,175.3495 1090.666,175.8984 1090.259,176.658 L1075.333,202.5103 C1074.905,203.1039 1075.207,204.2315 1075.874,204.5316 L1089.268,212.2645 C1089.936,212.5646 1090.238,213.6921 1089.81,214.2858 L1088.1,217.2464 C1087.8,217.9138 1086.673,218.2159 1086.079,217.788 L1072.685,210.0551 C1072.092,209.6271 1070.964,209.9292 1070.664,210.5967 L1055.738,236.4489 C1055.284,237.1815 1055.284,238.2792 1055.738,239.0118 L1070.664,264.8641 C1070.964,265.5316 1072.092,265.8337 1072.685,265.4057 L1086.079,257.6728 C1086.673,257.2448 1087.8,257.547 1088.1,258.2144 L1089.81,261.175 C1090.238,261.7686 1089.936,262.8961 1089.268,263.1963 L1075.874,270.9292 C1075.207,271.2293 1074.905,272.3568 1075.333,272.9505 L1090.259,298.8028 C1090.666,299.5624 1091.617,300.1113 1092.478,300.0842 L1122.33,300.0842 C1123.058,300.1581 1123.883,299.3326 1123.809,298.6045 L1123.809,283.1387 C1123.736,282.4106 1124.561,281.5852 1125.289,281.659 L1128.708,281.659 C1129.436,281.5852 1130.261,282.4106 1130.187,283.1387 L1130.187,298.6045 C1130.114,299.3326 1130.939,300.1581 1131.667,300.0842 L1161.519,300.0842 C1162.38,300.1113 1163.331,299.5624 1163.738,298.8028 L1178.664,272.9505 C1179.092,272.3568 1178.79,271.2293 1178.122,270.9292 L1164.729,263.1963 C1164.061,262.8961 1163.759,261.7686 1164.187,261.175 L1165.896,258.2144 C1166.197,257.547 1167.324,257.2448 1167.918,257.6728 L1181.312,265.4057 C1181.905,265.8337 1183.033,265.5316 1183.333,264.8641 z" stroke="#000000" stroke-width="1" fill-opacity="0" />
  <path d="M1052.524,239.0118 C1052.978,238.2792 1052.978,237.1815 1052.524,236.4489 L1037.598,210.5967 C1037.298,209.9292 1036.17,209.6271 1035.577,210.0551 L1022.183,217.788 C1021.589,218.2159 1020.462,217.9138 1020.162,217.2464 L1018.452,214.2858 C1018.024,213.6921 1018.326,212.5646 1018.994,212.2645 L1032.388,204.5316 C1033.055,204.2315 1033.357,203.1039 1032.929,202.5103 L1018.003,176.658 C1017.596,175.8984 1016.646,175.3495 1015.784,175.3766 L985.9323,175.3766 C985.2042,175.3027 984.3788,176.1281 984.4526,176.8562 L984.4526,192.3221 C984.5264,193.0502 983.701,193.8756 982.9729,193.8018 L979.5543,193.8018 C978.8262,193.8756 978.0009,193.0502 978.0746,192.3221 L978.0746,176.8562 C978.1484,176.1281 977.3231,175.3027 976.595,175.3766 L946.7433,175.3766 C945.8818,175.3495 944.9312,175.8984 944.5238,176.658 L929.598,202.5103 C929.17,203.1039 929.4721,204.2315 930.1395,204.5316 L943.5333,212.2645 C944.2008,212.5646 944.5029,213.6921 944.075,214.2858 L942.3657,217.2464 C942.0656,217.9138 940.938,218.2159 940.3444,217.788 L926.9506,210.0551 C926.3569,209.6271 925.2294,209.9292 924.9293,210.5967 L910.0035,236.4489 C909.5493,237.1815 909.5493,238.2792 910.0035,239.0118 L924.9293,264.8641 C925.2294,265.5316 926.3569,265.8337 926.9506,265.4057 L940.3444,257.6728 C940.938,257.2448 942.0656,257.547 942.3657,258.2144 L944.075,261.175 C944.5029,261.7686 944.2008,262.8961 943.5333,263.1963 L930.1395,270.9292 C929.4721,271.2293 929.17,272.3568 929.598,272.9505 L944.5238,298.8028 C944.9312,299.5624 945.8818,300.1113 946.7433,300.0842 L976.595,300.0842 C977.3231,300.1581 978.1484,299.3326 978.0746,298.6045 L978.0746,283.1387 C978.0009,282.4106 978.8262,281.5852 979.5543,281.659 L982.9729,281.659 C983.701,281.5852 984.5264,282.4106 984.4526,283.1387 L984.4526,298.6045 C984.3788,299.3326 985.2042,300.1581 985.9323,300.0842 L1015.784,300.0842 C1016.646,300.1113 1017.596,299.5624 1018.003,298.8028 L1032.929,272.9505 C1033.357,272.3568 1033.055,271.2293 1032.388,270.9292 L1018.994,263.1963 C1018.326,262.8961 1018.024,261.7686 1018.452,261.175 L1020.162,258.2144 C1020.462,257.547 1021.589,257.2448 1022.183,257.6728 L1035.577,265.4057 C1036.17,265.8337 1037.298,265.5316 1037.598,264.8641 z" stroke="#000000" stroke-width="1" fill-opacity="0" />
  <path d="M906.789,239.0118 C907.2432,238.2792 907.2432,237.1815 906.789,236.4489 L891.8632,210.5967 C891.563,209.9292 890.4355,209.6271 889.8419,210.0551 L876.4481,217.788 C875.8544,218.2159 874.7269,217.9138 874.4268,217.2464 L872.7175,214.2858 C872.2895,213.6921 872.5916,212.5646 873.2591,212.2645 L886.6529,204.5316 C887.3204,204.2315 887.6224,203.1039 887.1945,202.5103 L872.2687,176.658 C871.8613,175.8984 870.9107,175.3495 870.0491,175.3766 L840.1975,175.3766 C839.4694,175.3027 838.644,176.1281 838.7178,176.8562 L838.7178,192.3221 C838.7916,193.0502 837.9662,193.8756 837.2381,193.8018 L833.8195,193.8018 C833.0914,193.8756 832.2661,193.0502 832.3398,192.3221 L832.3398,176.8562 C832.4136,176.1281 831.5883,175.3027 830.8602,175.3766 L801.0085,175.3766 C800.147,175.3495 799.1964,175.8984 798.789,176.658 L783.8632,202.5103 C783.4352,203.1039 783.7373,204.2315 784.4047,204.5316 L797.7985,212.2645 C798.466,212.5646 798.7681,213.6921 798.3401,214.2858 L796.6309,217.2464 C796.3307,217.9138 795.2032,218.2159 794.6096,217.788 L781.2158,210.0551 C780.6221,209.6271 779.4946,209.9292 779.1945,210.5967 L764.2687,236.4489 C763.8145,237.1815 763.8145,238.2792 764.2687,239.0118 L779.1945,264.8641 C779.4946,265.5316 780.6221,265.8337 781.2158,265.4057 L794.6096,257.6728 C795.2032,257.2448 796.3307,257.547 796.6309,258.2144 L798.3401,261.175 C798.7681,261.7686 798.466,262.8961 797.7985,263.1963 L784.4047,270.9292 C783.7373,271.2293 783.4352,272.3568 783.8632,272.9505 L798.789,298.8028 C799.1964,299.5624 800.147,300.1113 801.0085,300.0842 L830.8602,300.0842 C831.5883,300.1581 832.4136,299.3326 832.3398,298.6045 L832.3398,283.1387 C832.2661,282.4106 833.0914,281.5852 833.8195,281.659 L837.2381,281.659 C837.9662,281.5852 838.7916,282.4106 838.7178,283.1387 L838.7178,298.6045 C838.644,299.3326 839.4694,300.1581 840.1975,300.0842 L870.0491,300.0842 C870.9107,300.1113 871.8613,299.5624 872.2687,298.8028 L887.1945,272.9505 C887.6224,272.3568 887.3204,271.2293 886.6529,270.9292 L873.2591,263.1963 C872.5916,262.8961 872.2895,261.7686 872.7175,261.175 L874.4268,258.2144 C874.7269,257.547 875.8544,257.2448 876.4481,257.6728 L889.8419,265.4057 C890.4355,265.8337 891.563,265.5316 891.8632,264.8641 z" stroke="#000000" stroke-width="1" fill-opacity="0" />
  <path d="M761.0542,239.0118 C761.5084,238.2792 761.5084,237.1815 761.0542,236.4489 L746.1284,210.5967 C745.8282,209.9292 744.7007,209.6271 744.1071,210.0551 L730.7133,217.788 C730.1196,218.2159 728.9921,217.9138 728.692,217.2464 L726.9827,214.2858 C726.5547,213.6921 726.8568,212.5646 727.5243,212.2645 L740.9181,204.5316 C741.5856,204.2315 741.8876,203.1039 741.4597,202.5103 L726.5339,176.658 C726.1265,175.8984 725.1759,175.3495 724.3143,175.3766 L694.4627,175.3766 C693.7346,175.3027 692.9092,176.1281 692.983,176.8562 L692.983,192.3221 C693.0568,193.0502 692.2314,193.8756 691.5033,193.8018 L688.0847,193.8018 C687.3566,193.8756 686.5313,193.0502 686.605,192.3221 L686.605,176.8562 C686.6788,176.1281 685.8535,175.3027 685.1254,175.3766 L655.2737,175.3766 C654.4122,175.3495 653.4615,175.8984 653.0542,176.658 L638.1284,202.5103 C637.7004,203.1039 638.0025,204.2315 638.6699,204.5316 L652.0637,212.2645 C652.7312,212.5646 653.0333,213.6921 652.6053,214.2858 L650.8961,217.2464 C650.5959,217.9138 649.4684,218.2159 648.8748,217.788 L635.481,210.0551 C634.8873,209.6271 633.7598,209.9292 633.4597,210.5967 L618.5339,236.4489 C618.0797,237.1815 618.0797,238.2792 618.5339,239.0118 L633.4597,264.8641 C633.7598,265.5316 634.8873,265.8337 635.481,265.4057 L648.8748,257.6728 C649.4684,257.2448 650.5959,257.547 650.8961,258.2144 L652.6053,261.175 C653.0333,261.7686 652.7312,262.8961 652.0637,263.1963 L638.6699,270.9292 C638.0025,271.2293 637.7004,272.3568 638.1284,272.9505 L653.0542,298.8028 C653.4615,299.5624 654.4122,300.1113 655.2737,300.0842 L685.1254,300.0842 C685.8535,300.1581 686.6788,299.3326 686.605,298.6045 L686.605,283.1387 C686.5313,282.4106 687.3566,281.5852 688.0847,281.659 L691.5033,281.659 C692.2314,281.5852 693.0568,282.4106 692.983,283.1387 L692.983,298.6045 C692.9092,299.3326 693.7346,300.1581 694.4627,300.0842 L724.3143,300.0842 C725.1759,300.1113 726.1265,299.5624 726.5339,298.8028 L741.4597,272.9505 C741.8876,272.3568 741.5856,271.2293 740.9181,270.9292 L727.5243,263.1963 C726.8568,262.8961 726.5547,261.7686 726.9827,261.175 L728.692,258.2144 C728.9921,257.547 730.1196,257.2448 730.7133,257.6728 L744.1071,265.4057 C744.7007,265.8337 745.8282,265.5316 746.1284,264.8641 z" stroke="#000000" stroke-width="1" fill-opacity="0" />
  <path d="M615.3194,239.0118 C615.7736,238.2792 615.7736,237.1815 615.3194,236.4489 L600.3936,210.5967 C600.0934,209.9292 598.9659,209.6271 598.3723,210.0551 L584.9785,217.788 C584.3848,218.2159 583.2573,217.9138 582.9572,217.2464 L581.2479,214.2858 C580.8199,213.6921 581.122,212.5646 581.7895,212.2645 L595.1833,204.5316 C595.8508,204.2315 596.1528,203.1039 595.7249,202.5103 L580.7991,176.658 C580.3917,175.8984 579.4411,175.3495 578.5795,175.3766 L548.7278,175.3766 C547.9998,175.3027 547.1744,176.1281 547.2482,176.8562 L547.2482,192.3221 C547.322,193.0502 546.4966,193.8756 545.7685,193.8018 L542.3499,193.8018 C541.6218,193.8756 540.7964,193.0502 540.8702,192.3221 L540.8702,176.8562 C540.944,176.1281 540.1187,175.3027 539.3906,175.3766 L509.5389,175.3766 C508.6774,175.3495 507.7267,175.8984 507.3194,176.658 L492.3936,202.5103 C491.9656,203.1039 492.2677,204.2315 492.9352,204.5316 L506.3289,212.2645 C506.9964,212.5646 507.2985,213.6921 506.8705,214.2858 L505.1613,217.2464 C504.8611,217.9138 503.7336,218.2159 503.14,217.788 L489.7462,210.0551 C489.1525,209.6271 488.025,209.9292 487.7249,210.5967 L472.799,236.4489 C472.3448,237.1815 472.3448,238.2792 472.799,239.0118 L487.7249,264.8641 C488.025,265.5316 489.1525,265.8337 489.7462,265.4057 L503.14,257.6728 C503.7336,257.2448 504.8611,257.547 505.1613,258.2144 L506.8705,261.175 C507.2985,261.7686 506.9964,262.8961 506.3289,263.1963 L492.9352,270.9292 C492.2677,271.2293 491.9656,272.3568 492.3936,272.9505 L507.3194,298.8028 C507.7267,299.5624 508.6774,300.1113 509.5389,300.0842 L539.3906,300.0842 C540.1187,300.1581 540.944,299.3326 540.8702,298.6045 L540.8702,283.1387 C540.7964,282.4106 541.6218,281.5852 542.3499,281.659 L545.7685,281.659 C546.4966,281.5852 547.322,282.4106 547.2482,283.1387 L547.2482,298.6045 C547.1744,299.3326 547.9998,300.1581 548.7278,300.0842 L578.5795,300.0842 C579.4411,300.1113 580.3917,299.5624 580.7991,298.8028 L595.7249,272.9505 C596.1528,272.3568 595.8508,271.2293 595.1833,270.9292 L581.7895,263.1963 C581.122,262.8961 580.8199,261.7686 581.2479,261.175 L582.9572,258.2144 C583.2573,257.547 584.3848,257.2448 584.9785,257.6728 L598.3723,265.4057 C598.9659,265.8337 600.0934,265.5316 600.3936,264.8641 z" stroke="#000000" stroke-width="1" fill-opacity="0" />
  <path d="M469.5846,239.0118 C470.0388,238.2792 470.0388,237.1815 469.5846,236.4489 L454.6588,210.5967 C454.3586,209.9292 453.2311,209.6271 452.6375,210.0551 L439.2437,217.788 C438.65,218.2159 437.5225,217.9138 437.2224,217.2464 L435.5131,214.2858 C435.0851,213.6921 435.3872,212.5646 436.0547,212.2645 L449.4485,204.5316 C450.1159,204.2315 450.4181,203.1039 449.9901,202.5103 L435.0642,176.658 C434.6569,175.8984 433.7063,175.3495 432.8447,175.3766 L402.9931,175.3766 C402.265,175.3027 401.4396,176.1281 401.5134,176.8562 L401.5134,192.3221 C401.5872,193.0502 400.7618,193.8756 400.0337,193.8018 L396.6151,193.8018 C395.887,193.8756 395.0616,193.0502 395.1354,192.3221 L395.1354,176.8562 C395.2093,176.1281 394.3839,175.3027 393.6558,175.3766 L363.8041,175.3766 C362.9426,175.3495 361.9919,175.8984 361.5846,176.658 L346.6588,202.5103 C346.2308,203.1039 346.5329,204.2315 347.2003,204.5316 L360.5941,212.2645 C361.2616,212.5646 361.5637,213.6921 361.1357,214.2858 L359.4265,217.2464 C359.1263,217.9138 357.9988,218.2159 357.4052,217.788 L344.0114,210.0551 C343.4177,209.6271 342.2902,209.9292 341.9901,210.5967 L327.0642,236.4489 C326.61,237.1815 326.61,238.2792 327.0642,239.0118 L341.9901,264.8641 C342.2902,265.5316 343.4177,265.8337 344.0114,265.4057 L357.4052,257.6728 C357.9988,257.2448 359.1263,257.547 359.4265,258.2144 L361.1357,261.175 C361.5637,261.7686 361.2616,262.8961 360.5941,263.1963 L347.2003,270.9292 C346.5329,271.2293 346.2308,272.3568 346.6588,272.9505 L361.5846,298.8028 C361.9919,299.5624 362.9426,300.1113 363.8041,300.0842 L393.6558,300.0842 C394.3839,300.1581 395.2093,299.3326 395.1354,298.6045 L395.1354,283.1387 C395.0616,282.4106 395.887,281.5852 396.6151,281.659 L400.0337,281.659 C400.7618,281.5852 401.5872,282.4106 401.5134,283.1387 L401.5134,298.6045 C401.4396,299.3326 402.265,300.1581 402.9931,300.0842 L432.8447,300.0842 C433.7063,300.1113 434.6569,299.5624 435.0642,298.8028 L449.9901,272.9505 C450.4181,272.3568 450.1159,271.2293 449.4485,270.9292 L436.0547,263.1963 C435.3872,262.8961 435.0851,261.7686 435.5131,261.175 L437.2224,258.2144 C437.5225,257.547 438.65,257.2448 439.2437,257.6728 L452.6375,265.4057 C453.2311,265.8337 454.3586,265.5316 454.6588,264.8641 z" stroke="#000000" stroke-width="1" fill-opacity="0" />
  <path d="M323.8498,239.0118 C324.304,238.2792 324.304,237.1815 323.8498,236.4489 L308.924,210.5967 C308.6238,209.9292 307.4963,209.6271 306.9026,210.0551 L293.5089,217.788 C292.9152,218.2159 291.7877,217.9138 291.4875,217.2464 L289.7783,214.2858 C289.3503,213.6921 289.6524,212.5646 290.3199,212.2645 L303.7137,204.5316 C304.3811,204.2315 304.6833,203.1039 304.2553,202.5103 L289.3294,176.658 C288.9221,175.8984 287.9715,175.3495 287.1099,175.3766 L257.2583,175.3766 C256.5302,175.3027 255.7048,176.1281 255.7786,176.8562 L255.7786,192.3221 C255.8524,193.0502 255.027,193.8756 254.2989,193.8018 L250.8803,193.8018 C250.1522,193.8756 249.3268,193.0502 249.4006,192.3221 L249.4006,176.8562 C249.4744,176.1281 248.649,175.3027 247.9209,175.3766 L218.0693,175.3766 C217.2077,175.3495 216.2571,175.8984 215.8498,176.658 L200.9239,202.5103 C200.496,203.1039 200.7981,204.2315 201.4655,204.5316 L214.8593,212.2645 C215.5268,212.5646 215.8289,213.6921 215.4009,214.2858 L213.6917,217.2464 C213.3915,217.9138 212.264,218.2159 211.6704,217.788 L198.2766,210.0551 C197.6829,209.6271 196.5554,209.9292 196.2553,210.5967 L181.3295,236.4489 C180.8753,237.1815 180.8753,238.2792 181.3295,239.0118 L196.2553,264.8641 C196.5554,265.5316 197.6829,265.8337 198.2766,265.4057 L211.6704,257.6728 C212.264,257.2448 213.3915,257.547 213.6917,258.2144 L215.4009,261.175 C215.8289,261.7686 215.5268,262.8961 214.8593,263.1963 L201.4655,270.9292 C200.7981,271.2293 200.496,272.3568 200.9239,272.9505 L215.8498,298.8028 C216.2571,299.5624 217.2077,300.1113 218.0693,300.0842 L247.9209,300.0842 C248.649,300.1581 249.4744,299.3326 249.4006,298.6045 L249.4006,283.1387 C249.3268,282.4106 250.1522,281.5852 250.8803,281.659 L254.2989,281.659 C255.027,281.5852 255.8524,282.4106 255.7786,283.1387 L255.7786,298.6045 C255.7048,299.3326 256.5302,300.1581 257.2583,300.0842 L287.1099,300.0842 C287.9715,300.1113 288.9221,299.5624 289.3294,298.8028 L304.2553,272.9505 C304.6833,272.3568 304.3811,271.2293 303.7137,270.9292 L290.3199,263.1963 C289.6524,262.8961 289.3503,261.7686 289.7783,261.175 L291.4875,258.2144 C291.7877,257.547 292.9152,257.2448 293.5089,257.6728 L306.9026,265.4057 C307.4963,265.8337 308.6238,265.5316 308.924,264.8641 z" stroke="#000000" stroke-width="1" fill-opacity="0" />
  <path d="M178.115,239.0118 C178.5692,238.2792 178.5692,237.1815 178.115,236.4489 L163.1891,210.5967 C162.889,209.9292 161.7615,209.6271 161.1678,210.0551 L147.774,217.788 C147.1804,218.2159 146.0529,217.9138 145.7528,217.2464 L144.0435,214.2858 C143.6155,213.6921 143.9176,212.5646 144.5851,212.2645 L157.9789,204.5316 C158.6463,204.2315 158.9485,203.1039 158.5205,202.5103 L143.5947,176.658 C143.1873,175.8984 142.2367,175.3495 141.3751,175.3766 L111.5235,175.3766 C110.7954,175.3027 109.97,176.1281 110.0438,176.8562 L110.0438,192.3221 C110.1176,193.0502 109.2922,193.8756 108.5641,193.8018 L105.1455,193.8018 C104.4174,193.8756 103.592,193.0502 103.6658,192.3221 L103.6658,176.8562 C103.7396,176.1281 102.9142,175.3027 102.1861,175.3766 L72.33449,175.3766 C71.47295,175.3495 70.52231,175.8984 70.11496,176.658 L55.18913,202.5103 C54.76115,203.1039 55.06327,204.2315 55.73074,204.5316 L69.12453,212.2645 C69.792,212.5646 70.09412,213.6921 69.66614,214.2858 L67.95685,217.2464 C67.65672,217.9138 66.52921,218.2159 65.93556,217.788 L52.54176,210.0551 C51.94811,209.6271 50.8206,209.9292 50.52047,210.5967 L35.59465,236.4489 C35.14045,237.1815 35.14045,238.2792 35.59465,239.0118 L50.52047,264.8641 C50.8206,265.5316 51.94811,265.8337 52.54176,265.4057 L65.93556,257.6728 C66.52921,257.2448 67.65672,257.547 67.95685,258.2144 L69.66614,261.175 C70.09412,261.7686 69.792,262.8961 69.12453,263.1963 L55.73074,270.9292 C55.06327,271.2293 54.76115,272.3568 55.18913,272.9505 L70.11496,298.8028 C70.52231,299.5624 71.47295,300.1113 72.33449,300.0842 L102.1861,300.0842 C102.9142,300.1581 103.7396,299.3326 103.6658,298.6045 L103.6658,283.1387 C103.592,282.4106 104.4174,281.5852 105.1455,281.659 L108.5641,281.659 C109.2922,281.5852 110.1176,282.4106 110.0438,283.1387 L110.0438,298.6045 C109.97,299.3326 110.7954,300.1581 111.5235,300.0842 L141.3751,300.0842 C142.2367,300.1113 143.1873,299.5624 143.5947,298.8028 L158.5205,272.9505 C158.9485,272.3568 158.6463,271.2293 157.9789,270.9292 L144.5851,263.1963 C143.9176,262.8961 143.6155,261.7686 144.0435,261.175 L145.7528,258.2144 C146.0529,257.547 147.1804,257.2448 147.774,257.6728 L161.1678,265.4057 C161.7615,265.8337 162.889,265.5316 163.1891,264.8641 z" stroke="#000000" stroke-width="1" fill-opacity="0" />
  <path d="M1489.728,380.7441 C1490.182,380.0115 1490.182,378.9138 1489.728,378.1812 L1474.802,352.3289 C1474.502,351.6615 1473.375,351.3594 1472.781,351.7874 L1459.387,359.5203 C1458.794,359.9482 1457.666,359.6461 1457.366,358.9786 L1455.657,356.0181 C1455.229,355.4244 1455.531,354.2969 1456.198,353.9968 L1469.592,346.2639 C1470.26,345.9637 1470.562,344.8362 1470.134,344.2426 L1455.208,318.3903 C1454.801,317.6306 1453.85,317.0818 1452.988,317.1089 L1423.137,317.1089 C1422.409,317.035 1421.583,317.8604 1421.657,318.5885 L1421.657,334.0544 C1421.731,334.7825 1420.905,335.6078 1420.177,335.5341 L1416.759,335.5341 C1416.031,335.6078 1415.205,334.7825 1415.279,334.0544 L1415.279,318.5885 C1415.353,317.8604 1414.527,317.035 1413.799,317.1089 L1383.948,317.1089 C1383.086,317.0818 1382.135,317.6306 1381.728,318.3903 L1366.802,344.2426 C1366.374,344.8362 1366.677,345.9637 1367.344,346.2639 L1380.738,353.9968 C1381.405,354.2969 1381.707,355.4244 1381.279,356.0181 L1379.57,358.9786 C1379.27,359.6461 1378.142,359.9482 1377.549,359.5203 L1364.155,351.7874 C1363.561,351.3594 1362.434,351.6615 1362.134,352.3289 L1347.208,378.1812 C1346.754,378.9138 1346.754,380.0115 1347.208,380.7441 L1362.134,406.5964 C1362.434,407.2639 1363.561,407.566 1364.155,407.138 L1377.549,399.4051 C1378.142,398.9771 1379.27,399.2792 1379.57,399.9467 L1381.279,402.9073 C1381.707,403.5009 1381.405,404.6284 1380.738,404.9286 L1367.344,412.6615 C1366.677,412.9616 1366.374,414.0891 1366.802,414.6828 L1381.728,440.5351 C1382.135,441.2947 1383.086,441.8435 1383.948,441.8165 L1413.799,441.8165 C1414.527,441.8903 1415.353,441.0649 1415.279,440.3368 L1415.279,424.871 C1415.205,424.1429 1416.031,423.3175 1416.759,423.3913 L1420.177,423.3913 C1420.905,423.3175 1421.731,424.1429 1421.657,424.871 L1421.657,440.3368 C1421.583,441.0649 1422.409,441.8903 1423.137,441.8165 L1452.988,441.8165 C1453.85,441.8435 1454.801,441.2947 1455.208,440.5351 L1470.134,414.6828 C1470.562,414.0891 1470.26,412.9616 1469.592,412.6615 L1456.198,404.9286 C1455.531,404.6284 1455.229,403.5009 1455.657,402.9073 L1457.366,399.9467 C1457.666,399.2792 1458.794,398.9771 1459.387,399.4051 L1472.781,407.138 C1473.375,407.566 1474.502,407.2639 1474.802,406.5964 z" stroke="#000000" stroke-width="1" fill-opacity="0" />
  <path d="M1343.993,380.7441 C1344.448,380.0115 1344.448,378.9138 1343.993,378.1812 L1329.068,352.3289 C1328.767,351.6615 1327.64,351.3594 1327.046,351.7874 L1313.652,359.5203 C1313.059,359.9482 1311.931,359.6461 1311.631,358.9786 L1309.922,356.0181 C1309.494,355.4244 1309.796,354.2969 1310.464,353.9968 L1323.857,346.2639 C1324.525,345.9637 1324.827,344.8362 1324.399,344.2426 L1309.473,318.3903 C1309.066,317.6306 1308.115,317.0818 1307.254,317.1089 L1277.402,317.1089 C1276.674,317.035 1275.848,317.8604 1275.922,318.5885 L1275.922,334.0544 C1275.996,334.7825 1275.171,335.6078 1274.443,335.5341 L1271.024,335.5341 C1270.296,335.6078 1269.47,334.7825 1269.544,334.0544 L1269.544,318.5885 C1269.618,317.8604 1268.793,317.035 1268.065,317.1089 L1238.213,317.1089 C1237.351,317.0818 1236.401,317.6306 1235.993,318.3903 L1221.068,344.2426 C1220.64,344.8362 1220.942,345.9637 1221.609,346.2639 L1235.003,353.9968 C1235.67,354.2969 1235.973,355.4244 1235.545,356.0181 L1233.835,358.9786 C1233.535,359.6461 1232.408,359.9482 1231.814,359.5203 L1218.42,351.7874 C1217.827,351.3594 1216.699,351.6615 1216.399,352.3289 L1201.473,378.1812 C1201.019,378.9138 1201.019,380.0115 1201.473,380.7441 L1216.399,406.5964 C1216.699,407.2639 1217.827,407.566 1218.42,407.138 L1231.814,399.4051 C1232.408,398.9771 1233.535,399.2792 1233.835,399.9467 L1235.545,402.9073 C1235.973,403.5009 1235.67,404.6284 1235.003,404.9286 L1221.609,412.6615 C1220.942,412.9616 1220.64,414.0891 1221.068,414.6828 L1235.993,440.5351 C1236.401,441.2947 1237.351,441.8435 1238.213,441.8165 L1268.065,441.8165 C1268.793,441.8903 1269.618,441.0649 1269.544,440.3368 L1269.544,424.871 C1269.47,424.1429 1270.296,423.3175 1271.024,423.3913 L1274.443,423.3913 C1275.171,423.3175 1275.996,424.1429 1275.922,424.871 L1275.922,440.3368 C1275.848,441.0649 1276.674,441.8903 1277.402,441.8165 L1307.254,441.8165 C1308.115,441.8435 1309.066,441.2947 1309.473,440.5351 L1324.399,414.6828 C1324.827,414.0891 1324.525,412.9616 1323.857,412.6615 L1310.464,404.9286 C1309.796,404.6284 1309.494,403.5009 1309.922,402.9073 L1311.631,399.9467 C1311.931,399.2792 1313.059,398.9771 1313.652,399.4051 L1327.046,407.138 C1327.64,407.566 1328.767,407.2639 1329.068,406.5964 z" stroke="#000000" stroke-width="1" fill-opacity="0" />
  <path d="M1198.259,380.7441 C1198.713,380.0115 1198.713,378.9138 1198.259,378.1812 L1183.333,352.3289 C1183.033,351.6615 1181.905,351.3594 1181.312,351.7874 L1167.918,359.5203 C1167.324,359.9482 1166.197,359.6461 1165.896,358.9786 L1164.187,356.0181 C1163.759,355.4244 1164.061,354.2969 1164.729,353.9968 L1178.122,346.2639 C1178.79,345.9637 1179.092,344.8362 1178.664,344.2426 L1163.738,318.3903 C1163.331,317.6306 1162.38,317.0818 1161.519,317.1089 L1131.667,317.1089 C1130.939,317.035 1130.114,317.8604 1130.187,318.5885 L1130.187,334.0544 C1130.261,334.7825 1129.436,335.6078 1128.708,335.5341 L1125.289,335.5341 C1124.561,335.6078 1123.736,334.7825 1123.809,334.0544 L1123.809,318.5885 C1123.883,317.8604 1123.058,317.035 1122.33,317.1089 L1092.478,317.1089 C1091.617,317.0818 1090.666,317.6306 1090.259,318.3903 L1075.333,344.2426 C1074.905,344.8362 1075.207,345.9637 1075.874,346.2639 L1089.268,353.9968 C1089.936,354.2969 1090.238,355.4244 1089.81,356.0181 L1088.1,358.9786 C1087.8,359.6461 1086.673,359.9482 1086.079,359.5203 L1072.685,351.7874 C1072.092,351.3594 1070.964,351.6615 1070.664,352.3289 L1055.738,378.1812 C1055.284,378.9138 1055.284,380.0115 1055.738,380.7441 L1070.664,406.5964 C1070.964,407.2639 1072.092,407.566 1072.685,407.138 L1086.079,399.4051 C1086.673,398.9771 1087.8,399.2792 1088.1,399.9467 L1089.81,402.9073 C1090.238,403.5009 1089.936,404.6284 1089.268,404.9286 L1075.874,412.6615 C1075.207,412.9616 1074.905,414.0891 1075.333,414.6828 L1090.259,440.5351 C1090.666,441.2947 1091.617,441.8435 1092.478,441.8165 L1122.33,441.8165 C1123.058,441.8903 1123.883,441.0649 1123.809,440.3368 L1123.809,424.871 C1123.736,424.1429 1124.561,423.3175 1125.289,423.3913 L1128.708,423.3913 C1129.436,423.3175 1130.261,424.1429 1130.187,424.871 L1130.187,440.3368 C1130.114,441.0649 1130.939,441.8903 1131.667,441.8165 L1161.519,441.8165 C1162.38,441.8435 1163.331,441.2947 1163.738,440.5351 L1178.664,414.6828 C1179.092,414.0891 1178.79,412.9616 1178.122,412.6615 L1164.729,404.9286 C1164.061,404.6284 1163.759,403.5009 1164.187,402.9073 L1165.896,399.9467 C1166.197,399.2792 1167.324,398.9771 1167.918,399.4051 L1181.312,407.138 C1181.905,407.566 1183.033,407.2639 1183.333,406.5964 z" stroke="#000000" stroke-width="1" fill-opacity="0" />
  <path d="M1052.524,380.7441 C1052.978,380.0115 1052.978,378.9138 1052.524,378.1812 L1037.598,352.3289 C1037.298,351.6615 1036.17,351.3594 1035.577,351.7874 L1022.183,359.5203 C1021.589,359.9482 1020.462,359.6461 1020.162,358.9786 L1018.452,356.0181 C1018.024,355.4244 1018.326,354.2969 1018.994,353.9968 L1032.388,346.2639 C1033.055,345.9637 1033.357,344.8362 1032.929,344.2426 L1018.003,318.3903 C1017.596,317.6306 1016.646,317.0818 1015.784,317.1089 L985.9323,317.1089 C985.2042,317.035 984.3788,317.8604 984.4526,318.5885 L984.4526,334.0544 C984.5264,334.7825 983.701,335.6078 982.9729,335.5341 L979.5543,335.5341 C978.8262,335.6078 978.0009,334.7825 978.0746,334.0544 L978.0746,318.5885 C978.1484,317.8604 977.3231,317.035 976.595,317.1089 L946.7433,317.1089 C945.8818,317.0818 944.9312,317.6306 944.5238,318.3903 L929.598,344.2426 C929.17,344.8362 929.4721,345.9637 930.1395,346.2639 L943.5333,353.9968 C944.2008,354.2969 944.5029,355.4244 944.075,356.0181 L942.3657,358.9786 C942.0656,359.6461 940.938,359.9482 940.3444,359.5203 L926.9506,351.7874 C926.3569,351.3594 925.2294,351.6615 924.9293,352.3289 L910.0035,378.1812 C909.5493,378.9138 909.5493,380.0115 910.0035,380.7441 L924.9293,406.5964 C925.2294,407.2639 926.3569,407.566 926.9506,407.138 L940.3444,399.4051 C940.938,398.9771 942.0656,399.2792 942.3657,399.9467 L944.075,402.9073 C944.5029,403.5009 944.2008,404.6284 943.5333,404.9286 L930.1395,412.6615 C929.4721,412.9616 929.17,414.0891 929.598,414.6828 L944.5238,440.5351 C944.9312,441.2947 945.8818,441.8435 946.7433,441.8165 L976.595,441.8165 C977.3231,441.8903 978.1484,441.0649 978.0746,440.3368 L978.0746,424.871 C978.0009,424.1429 978.8262,423.3175 979.5543,423.3913 L982.9729,423.3913 C983.701,423.3175 984.5264,424.1429 984.4526,424.871 L984.4526,440.3368 C984.3788,441.0649 985.2042,441.8903 985.9323,441.8165 L1015.784,441.8165 C1016.646,441.8435 1017.596,441.2947 1018.003,440.5351 L1032.929,414.6828 C1033.357,414.0891 1033.055,412.9616 1032.388,412.6615 L1018.994,404.9286 C1018.326,404.6284 1018.024,403.5009 1018.452,402.9073 L1020.162,399.9467 C1020.462,399.2792 1021.589,398.9771 1022.183,399.4051 L1035.577,407.138 C1036.17,407.566 1037.298,407.2639 1037.598,406.5964 z" stroke="#000000" stroke-width="1" fill-opacity="0" />
  <path d="M906.789,380.7441 C907.2432,380.0115 907.2432,378.9138 906.789,378.1812 L891.8632,352.3289 C891.563,351.6615 890.4355,351.3594 889.8419,351.7874 L876.4481,359.5203 C875.8544,359.9482 874.7269,359.6461 874.4268,358.9786 L872.7175,356.0181 C872.2895,355.4244 872.5916,354.2969 873.2591,353.9968 L886.6529,346.2639 C887.3204,345.9637 887.6224,344.8362 887.1945,344.2426 L872.2687,318.3903 C871.8613,317.6306 870.9107,317.0818 870.0491,317.1089 L840.1975,317.1089 C839.4694,317.035 838.644,317.8604 838.7178,318.5885 L838.7178,334.0544 C838.7916,334.7825 837.9662,335.6078 837.2381,335.5341 L833.8195,335.5341 C833.0914,335.6078 832.2661,334.7825 832.3398,334.0544 L832.3398,318.5885 C832.4136,317.8604 831.5883,317.035 830.8602,317.1089 L801.0085,317.1089 C800.147,317.0818 799.1964,317.6306 798.789,318.3903 L783.8632,344.2426 C783.4352,344.8362 783.7373,345.9637 784.4047,346.2639 L797.7985,353.9968 C798.466,354.2969 798.7681,355.4244 798.3401,356.0181 L796.6309,358.9786 C796.3307,359.6461 795.2032,359.9482 794.6096,359.5203 L781.2158,351.7874 C780.6221,351.3594 779.4946,351.6615 779.1945,352.3289 L764.2687,378.1812 C763.8145,378.9138 763.8145,380.0115 764.2687,380.7441 L779.1945,406.5964 C779.4946,407.2639 780.6221,407.566 781.2158,407.138 L794.6096,399.4051 C795.2032,398.9771 796.3307,399.2792 796.6309,399.9467 L798.3401,402.9073 C798.7681,403.5009 798.466,404.6284 797.7985,404.9286 L784.4047,412.6615 C783.7373,412.9616 783.4352,414.0891 783.8632,414.6828 L798.789,440.5351 C799.1964,441.2947 800.147,441.8435 801.0085,441.8165 L830.8602,441.8165 C831.5883,441.8903 832.4136,441.0649 832.3398,440.3368 L832.3398,424.871 C832.2661,424.1429 833.0914,423.3175 833.8195,423.3913 L837.2381,423.3913 C837.9662,423.3175 838.7916,424.1429 838.7178,424.871 L838.7178,440.3368 C838.644,441.0649 839.4694,441.8903 840.1975,441.8165 L870.0491,441.8165 C870.9107,441.8435 871.8613,441.2947 872.2687,440.5351 L887.1945,414.6828 C887.6224,414.0891 887.3204,412.9616 886.6529,412.6615 L873.2591,404.9286 C872.5916,404.6284 872.2895,403.5009 872.7175,402.9073 L874.4268,399.9467 C874.7269,399.2792 875.8544,398.9771 876.4481,399.4051 L889.8419,407.138 C890.4355,407.566 891.563,407.2639 891.8632,406.5964 z" stroke="#000000" stroke-width="1" fill-opacity="0" />
  <path d="M761.0542,380.7441 C761.5084,380.0115 761.5084,378.9138 761.0542,378.1812 L746.1284,352.3289 C745.8282,351.6615 744.7007,351.3594 744.1071,351.7874 L730.7133,359.5203 C730.1196,359.9482 728.9921,359.6461 728.692,358.9786 L726.9827,356.0181 C726.5547,355.4244 726.8568,354.2969 727.5243,353.9968 L740.9181,346.2639 C741.5856,345.9637 741.8876,344.8362 741.4597,344.2426 L726.5339,318.3903 C726.1265,317.6306 725.1759,317.0818 724.3143,317.1089 L694.4627,317.1089 C693.7346,317.035 692.9092,317.8604 692.983,318.5885 L692.983,334.0544 C693.0568,334.7825 692.2314,335.6078 691.5033,335.5341 L688.0847,335.5341 C687.3566,335.6078 686.5313,334.7825 686.605,334.0544 L686.605,318.5885 C686.6788,317.8604 685.8535,317.035 685.1254,317.1089 L655.2737,317.1089 C654.4122,317.0818 653.4615,317.6306 653.0542,318.3903 L638.1284,344.2426 C637.7004,344.8362 638.0025,345.9637 638.6699,346.2639 L652.0637,353.9968 C652.7312,354.2969 653.0333,355.4244 652.6053,356.0181 L650.8961,358.9786 C650.5959,359.6461 649.4684,359.9482 648.8748,359.5203 L635.481,351.7874 C634.8873,351.3594 633.7598,351.6615 633.4597,352.3289 L618.5339,378.1812 C618.0797,378.9138 618.0797,380.0115 618.5339,380.7441 L633.4597,406.5964 C633.7598,407.2639 634.8873,407.566 635.481,407.138 L648.8748,399.4051 C649.4684,398.9771 650.5959,399.2792 650.8961,399.9467 L652.6053,402.9073 C653.0333,403.5009 652.7312,404.6284 652.0637,404.9286 L638.6699,412.6615 C638.0025,412.9616 637.7004,414.0891 638.1284,414.6828 L653.0542,440.5351 C653.4615,441.2947 654.4122,441.8435 655.2737,441.8165 L685.1254,441.8165 C685.8535,441.8903 686.6788,441.0649 686.605,440.3368 L686.605,424.871 C686.5313,424.1429 687.3566,423.3175 688.0847,423.3913 L691.5033,423.3913 C692.2314,423.3175 693.0568,424.1429 692.983,424.871 L692.983,440.3368 C692.9092,441.0649 693.7346,441.8903 694.4627,441.8165 L724.3143,441.8165 C725.1759,441.8435 726.1265,441.2947 726.5339,440.5351 L741.4597,414.6828 C741.8876,414.0891 741.5856,412.9616 740.9181,412.6615 L727.5243,404.9286 C726.8568,404.6284 726.5547,403.5009 726.9827,402.9073 L728.692,399.9467 C728.9921,399.2792 730.1196,398.9771 730.7133,399.4051 L744.1071,407.138 C744.7007,407.566 745.8282,407.2639 746.1284,406.5964 z" stroke="#000000" stroke-width="1" fill-opacity="0" />
  <path d="M615.3194,380.7441 C615.7736,380.0115 615.7736,378.9138 615.3194,378.1812 L600.3936,352.3289 C600.0934,351.6615 598.9659,351.3594 598.3723,351.7874 L584.9785,359.5203 C584.3848,359.9482 583.2573,359.6461 582.9572,358.9786 L581.2479,356.0181 C580.8199,355.4244 581.122,354.2969 581.7895,353.9968 L595.1833,346.2639 C595.8508,345.9637 596.1528,344.8362 595.7249,344.2426 L580.7991,318.3903 C580.3917,317.6306 579.4411,317.0818 578.5795,317.1089 L548.7278,317.1089 C547.9998,317.035 547.1744,317.8604 547.2482,318.5885 L547.2482,334.0544 C547.322,334.7825 546.4966,335.6078 545.7685,335.5341 L542.3499,335.5341 C541.6218,335.6078 540.7964,334.7825 540.8702,334.0544 L540.8702,318.5885 C540.944,317.8604 540.1187,317.035 539.3906,317.1089 L509.5389,317.1089 C508.6774,317.0818 507.7267,317.6306 507.3194,318.3903 L492.3936,344.2426 C491.9656,344.8362 492.2677,345.9637 492.9352,346.2639 L506.3289,353.9968 C506.9964,354.2969 507.2985,355.4244 506.8705,356.0181 L505.1613,358.9786 C504.8611,359.6461 503.7336,359.9482 503.14,359.5203 L489.7462,351.7874 C489.1525,351.3594 488.025,351.6615 487.7249,352.3289 L472.799,378.1812 C472.3448,378.9138 472.3448,380.0115 472.799,380.7441 L487.7249,406.5964 C488.025,407.2639 489.1525,407.566 489.7462,407.138 L503.14,399.4051 C503.7336,398.9771 504.8611,399.2792 505.1613,399.9467 L506.8705,402.9073 C507.2985,403.5009 506.9964,404.6284 506.3289,404.9286 L492.9352,412.6615 C492.2677,412.9616 491.9656,414.0891 492.3936,414.6828 L507.3194,440.5351 C507.7267,441.2947 508.6774,441.8435 509.5389,441.8165 L539.3906,441.8165 C540.1187,441.8903 540.944,441.0649 540.8702,440.3368 L540.8702,424.871 C540.7964,424.1429 541.6218,423.3175 542.3499,423.3913 L545.7685,423.3913 C546.4966,423.3175 547.322,424.1429 547.2482,424.871 L547.2482,440.3368 C547.1744,441.0649 547.9998,441.8903 548.7278,441.8165 L578.5795,441.8165 C579.4411,441.8435 580.3917,441.2947 580.7991,440.5351 L595.7249,414.6828 C596.1528,414.0891 595.8508,412.9616 595.1833,412.6615 L581.7895,404.9286 C581.122,404.6284 580.8199,403.5009 581.2479,402.9073 L582.9572,399.9467 C583.2573,399.2792 584.3848,398.9771 584.9785,399.4051 L598.3723,407.138 C598.9659,407.566 600.0934,407.2639 600.3936,406.5964 z" stroke="#000000" stroke-width="1" fill-opacity="0" />
  <path d="M469.5846,380.7441 C470.0388,380.0115 470.0388,378.9138 469.5846,378.1812 L454.6588,352.3289 C454.3586,351.6615 453.2311,351.3594 452.6375,351.7874 L439.2437,359.5203 C438.65,359.9482 437.5225,359.6461 437.2224,358.9786 L435.5131,356.0181 C435.0851,355.4244 435.3872,354.2969 436.0547,353.9968 L449.4485,346.2639 C450.1159,345.9637 450.4181,344.8362 449.9901,344.2426 L435.0642,318.3903 C434.6569,317.6306 433.7063,317.0818 432.8447,317.1089 L402.9931,317.1089 C402.265,317.035 401.4396,317.8604 401.5134,318.5885 L401.5134,334.0544 C401.5872,334.7825 400.7618,335.6078 400.0337,335.5341 L396.6151,335.5341 C395.887,335.6078 395.0616,334.7825 395.1354,334.0544 L395.1354,318.5885 C395.2093,317.8604 394.3839,317.035 393.6558,317.1089 L363.8041,317.1089 C362.9426,317.0818 361.9919,317.6306 361.5846,318.3903 L346.6588,344.2426 C346.2308,344.8362 346.5329,345.9637 347.2003,346.2639 L360.5941,353.9968 C361.2616,354.2969 361.5637,355.4244 361.1357,356.0181 L359.4265,358.9786 C359.1263,359.6461 357.9988,359.9482 357.4052,359.5203 L344.0114,351.7874 C343.4177,351.3594 342.2902,351.6615 341.9901,352.3289 L327.0642,378.1812 C326.61,378.9138 326.61,380.0115 327.0642,380.7441 L341.9901,406.5964 C342.2902,407.2639 343.4177,407.566 344.0114,407.138 L357.4052,399.4051 C357.9988,398.9771 359.1263,399.2792 359.4265,399.9467 L361.1357,402.9073 C361.5637,403.5009 361.2616,404.6284 360.5941,404.9286 L347.2003,412.6615 C346.5329,412.9616 346.2308,414.0891 346.6588,414.6828 L361.5846,440.5351 C361.9919,441.2947 362.9426,441.8435 363.8041,441.8165 L393.6558,441.8165 C394.3839,441.8903 395.2093,441.0649 395.1354,440.3368 L395.1354,424.871 C395.0616,424.1429 395.887,423.3175 396.6151,423.3913 L400.0337,423.3913 C400.7618,423.3175 401.5872,424.1429 401.5134,424.871 L401.5134,440.3368 C401.4396,441.0649 402.265,441.8903 402.9931,441.8165 L432.8447,441.8165 C433.7063,441.8435 434.6569,441.2947 435.0642,440.5351 L449.9901,414.6828 C450.4181,414.0891 450.1159,412.9616 449.4485,412.6615 L436.0547,404.9286 C435.3872,404.6284 435.0851,403.5009 435.5131,402.9073 L437.2224,399.9467 C437.5225,399.2792 438.65,398.9771 439.2437,399.4051 L452.6375,407.138 C453.2311,407.566 454.3586,407.2639 454.6588,406.5964 z" stroke="#000000" stroke-width="1" fill-opacity="0" />
  <path d="M323.8498,380.7441 C324.304,380.0115 324.304,378.9138 323.8498,378.1812 L308.924,352.3289 C308.6238,351.6615 307.4963,351.3594 306.9026,351.7874 L293.5089,359.5203 C292.9152,359.9482 291.7877,359.6461 291.4875,358.9786 L289.7783,356.0181 C289.3503,355.4244 289.6524,354.2969 290.3199,353.9968 L303.7137,346.2639 C304.3811,345.9637 304.6833,344.8362 304.2553,344.2426 L289.3294,318.3903 C288.9221,317.6306 287.9715,317.0818 287.1099,317.1089 L257.2583,317.1089 C256.5302,317.035 255.7048,317.8604 255.7786,318.5885 L255.7786,334.0544 C255.8524,334.7825 255.027,335.6078 254.2989,335.5341 L250.8803,335.5341 C250.1522,335.6078 249.3268,334.7825 249.4006,334.0544 L249.4006,318.5885 C249.4744,317.8604 248.649,317.035 247.9209,317.1089 L218.0693,317.1089 C217.2077,317.0818 216.2571,317.6306 215.8498,318.3903 L200.9239,344.2426 C200.496,344.8362 200.7981,345.9637 201.4655,346.2639 L214.8593,353.9968 C215.5268,354.2969 215.8289,355.4244 215.4009,356.0181 L213.6917,358.9786 C213.3915,359.6461 212.264,359.9482 211.6704,359.5203 L198.2766,351.7874 C197.6829,351.3594 196.5554,351.6615 196.2553,352.3289 L181.3295,378.1812 C180.8753,378.9138 180.8753,380.0115 181.3295,380.7441 L196.2553,406.5964 C196.5554,407.2639 197.6829,407.566 198.2766,407.138 L211.6704,399.4051 C212.264,398.9771 213.3915,399.2792 213.6917,399.9467 L215.4009,402.9073 C215.8289,403.5009 215.5268,404.6284 214.8593,404.9286 L201.4655,412.6615 C200.7981,412.9616 200.496,414.0891 200.9239,414.6828 L215.8498,440.5351 C216.2571,441.2947 217.2077,441.8435 218.0693,441.8165 L247.9209,441.8165 C248.649,441.8903 249.4744,441.0649 249.4006,440.3368 L249.4006,424.871 C249.3268,424.1429 250.1522,423.3175 250.8803,423.3913 L254.2989,423.3913 C255.027,423.3175 255.8524,424.1429 255.7786,424.871 L255.7786,440.3368 C255.7048,441.0649 256.5302,441.8903 257.2583,441.8165 L287.1099,441.8165 C287.9715,441.8435 288.9221,441.2947 289.3294,440.5351 L304.2553,414.6828 C304.6833,414.0891 304.3811,412.9616 303.7137,412.6615 L290.3199,404.9286 C289.6524,404.6284 289.3503,403.5009 289.7783,402.9073 L291.4875,399.9467 C291.7877,399.2792 292.9152,398.9771 293.5089,399.4051 L306.9026,407.138 C307.4963,407.566 308.6238,407.2639 308.924,406.5964 z" stroke="#000000" stroke-width="1" fill-opacity="0" />
  <path d="M178.115,380.7441 C178.5692,380.0115 178.5692,378.9138 178.115,378.1812 L163.1891,352.3289 C162.889,351.6615 161.7615,351.3594 161.1678,351.7874 L147.774,359.5203 C147.1804,359.9482 146.0529,359.6461 145.7528,358.9786 L144.0435,356.0181 C143.6155,355.4244 143.9176,354.2969 144.5851,353.9968 L157.9789,346.2639 C158.6463,345.9637 158.9485,344.8362 158.5205,344.2426 L143.5947,318.3903 C143.1873,317.6306 142.2367,317.0818 141.3751,317.1089 L111.5235,317.1089 C110.7954,317.035 109.97,317.8604 110.0438,318.5885 L110.0438,334.0544 C110.1176,334.7825 109.2922,335.6078 108.5641,335.5341 L105.1455,335.5341 C104.4174,335.6078 103.592,334.7825 103.6658,334.0544 L103.6658,318.5885 C103.7396,317.8604 102.9142,317.035 102.1861,317.1089 L72.33449,317.1089 C71.47295,317.0818 70.52231,317.6306 70.11496,318.3903 L55.18913,344.2426 C54.76115,344.8362 55.06327,345.9637 55.73074,346.2639 L69.12453,353.9968 C69.792,354.2969 70.09412,355.4244 69.66614,356.0181 L67.95685,358.9786 C67.65672,359.6461 66.52921,359.9482 65.93556,359.5203 L52.54176,351.7874 C51.94811,351.3594 50.8206,351.6615 50.52047,352.3289 L35.59465,378.1812 C35.14045,378.9138 35.14045,380.0115 35.59465,380.7441 L50.52047,406.5964 C50.8206,407.2639 51.94811,407.566 52.54176,407.138 L65.93556,399.4051 C66.52921,398.9771 67.65672,399.2792 67.95685,399.9467 L69.66614,402.9073 C70.09412,403.5009 69.792,404.6284 69.12453,404.9286 L55.73074,412.6615 C55.06327,412.9616 54.76115,414.0891 55.18913,414.6828 L70.11496,440.5351 C70.52231,441.2947 71.47295,441.8435 72.33449,441.8165 L102.1861,441.8165 C102.9142,441.8903 103.7396,441.0649 103.6658,440.3368 L103.6658,424.871 C103.592,424.1429 104.4174,423.3175 105.1455,423.3913 L108.5641,423.3913 C109.2922,423.3175 110.1176,424.1429 110.0438,424.871 L110.0438,440.3368 C109.97,441.0649 110.7954,441.8903 111.5235,441.8165 L141.3751,441.8165 C142.2367,441.8435 143.1873,441.2947 143.5947,440.5351 L158.5205,414.6828 C158.9485,414.0891 158.6463,412.9616 157.9789,412.6615 L144.5851,404.9286 C143.9176,404.6284 143.6155,403.5009 144.0435,402.9073 L145.7528,399.9467 C146.0529,399.2792 147.1804,398.9771 147.774,399.4051 L161.1678,407.138 C161.7615,407.566 162.889,407.2639 163.1891,406.5964 z" stroke="#000000" stroke-width="1" fill-opacity="0" />
  <path d="M1489.728,97.27956 C1490.182,96.54696 1490.182,95.44926 1489.728,94.71667 L1474.802,68.86437 C1474.502,68.19691 1473.375,67.8948 1472.781,68.32277 L1459.387,76.05569 C1458.794,76.48367 1457.666,76.18155 1457.366,75.51408 L1455.657,72.5535 C1455.229,71.95985 1455.531,70.83234 1456.198,70.53222 L1469.592,62.7993 C1470.26,62.49918 1470.562,61.37167 1470.134,60.77802 L1455.208,34.92573 C1454.801,34.16608 1453.85,33.61724 1452.988,33.64428 L1423.137,33.64428 C1422.409,33.57047 1421.583,34.39586 1421.657,35.12397 L1421.657,50.58979 C1421.731,51.3179 1420.905,52.14329 1420.177,52.06948 L1416.759,52.06948 C1416.031,52.14329 1415.205,51.3179 1415.279,50.58979 L1415.279,35.12397 C1415.353,34.39586 1414.527,33.57047 1413.799,33.64428 L1383.948,33.64428 C1383.086,33.61724 1382.135,34.16608 1381.728,34.92573 L1366.802,60.77802 C1366.374,61.37167 1366.677,62.49918 1367.344,62.7993 L1380.738,70.53222 C1381.405,70.83234 1381.707,71.95985 1381.279,72.5535 L1379.57,75.51408 C1379.27,76.18155 1378.142,76.48367 1377.549,76.05569 L1364.155,68.32277 C1363.561,67.8948 1362.434,68.19691 1362.134,68.86437 L1347.208,94.71667 C1346.754,95.44926 1346.754,96.54696 1347.208,97.27956 L1362.134,123.1318 C1362.434,123.7993 1363.561,124.1014 1364.155,123.6734 L1377.549,115.9405 C1378.142,115.5126 1379.27,115.8147 1379.57,116.4821 L1381.279,119.4427 C1381.707,120.0364 1381.405,121.1639 1380.738,121.464 L1367.344,129.1969 C1366.677,129.497 1366.374,130.6246 1366.802,131.2182 L1381.728,157.0705 C1382.135,157.8301 1383.086,158.379 1383.948,158.3519 L1413.799,158.3519 C1414.527,158.4258 1415.353,157.6004 1415.279,156.8723 L1415.279,141.4064 C1415.205,140.6783 1416.031,139.8529 1416.759,139.9267 L1420.177,139.9267 C1420.905,139.8529 1421.731,140.6783 1421.657,141.4064 L1421.657,156.8723 C1421.583,157.6004 1422.409,158.4258 1423.137,158.3519 L1452.988,158.3519 C1453.85,158.379 1454.801,157.8301 1455.208,157.0705 L1470.134,131.2182 C1470.562,130.6246 1470.26,129.497 1469.592,129.1969 L1456.198,121.464 C1455.531,121.1639 1455.229,120.0364 1455.657,119.4427 L1457.366,116.4821 C1457.666,115.8147 1458.794,115.5126 1459.387,115.9405 L1472.781,123.6734 C1473.375,124.1014 1474.502,123.7993 1474.802,123.1318 z" stroke="#000000" stroke-width="1" fill-opacity="0" />
  <path d="M1440,1440 L1723.465,1440 L1723.465,1156.536 L1440,1156.536 L1440,1440 L1723.465,1440 L1723.465,1156.536 L1440,1156.536 z" stroke="#000000" stroke-width="1" fill-opacity="0" />
</svg>