<?xml version="1.0" encoding="UTF-8" standalone="no"?>
<!DOCTYPE svg PUBLIC "-//W3C//DTD SVG 1.1//EN" "http://www.w3.org/Graphics/SVG/1.1/DTD/svg11.dtd">
<svg width="2880pt" height="2880pt" viewBox="0 0 2880 2880" overflow="visible" version="1.1" xmlns="http://www.w3.org/2000/svg">
  <path d="M1381.248,201.0109 C1381.88,201.5235 1383.011,201.5235 1383.642,201.0109 L1411.358,180.8741 C1411.991,180.5058 1412.173,179.3529 1411.686,178.8073 L1402.595,166.2951 C1402.107,165.7495 1402.29,164.5966 1402.922,164.2283 L1408.784,159.9696 C1409.33,159.4819 1410.483,159.6645 1410.851,160.2969 L1419.942,172.8091 C1420.31,173.4415 1421.463,173.6241 1422.008,173.1364 L1449.724,152.9996 C1450.407,152.5574 1450.757,151.4816 1450.464,150.7226 L1439.878,118.1405 C1439.723,117.4252 1438.683,116.8953 1438.013,117.1905 L1423.304,121.9697 C1422.635,122.2649 1421.594,121.735 1421.44,121.0197 L1419.201,114.129 C1418.906,113.4593 1419.436,112.4192 1420.151,112.2644 L1434.86,107.4852 C1435.575,107.3304 1436.105,106.2904 1435.81,105.6207 L1425.223,73.03867 C1425.014,72.25278 1424.098,71.5879 1423.286,71.63141 L1389.027,71.63141 C1388.299,71.55759 1387.474,72.38299 1387.548,73.11109 L1387.548,88.57692 C1387.622,89.30502 1386.796,90.13042 1386.068,90.0566 L1378.823,90.0566 C1378.095,90.13042 1377.269,89.30502 1377.343,88.57692 L1377.343,73.11109 C1377.417,72.38299 1376.591,71.55759 1375.863,71.63141 L1341.604,71.63141 C1340.792,71.5879 1339.877,72.25278 1339.668,73.03867 L1329.081,105.6207 C1328.786,106.2904 1329.316,107.3304 1330.031,107.4852 L1344.74,112.2644 C1345.455,112.4192 1345.985,113.4593 1345.69,114.129 L1343.451,121.0197 C1343.296,121.735 1342.256,122.2649 1341.586,121.9697 L1326.878,117.1905 C1326.208,116.8953 1325.168,117.4252 1325.013,118.1405 L1314.427,150.7226 C1314.134,151.4816 1314.484,152.5574 1315.166,152.9996 L1342.882,173.1364 C1343.428,173.6241 1344.581,173.4415 1344.949,172.8091 L1354.04,160.2969 C1354.408,159.6645 1355.561,159.4819 1356.107,159.9696 L1361.968,164.2283 C1362.601,164.5966 1362.783,165.7495 1362.296,166.2951 L1353.205,178.8073 C1352.717,179.3529 1352.9,180.5058 1353.532,180.8741 z" stroke="#000000" stroke-width="1" fill-opacity="0" />
  <path d="M1239.516,201.0109 C1240.147,201.5235 1241.279,201.5235 1241.91,201.0109 L1269.626,180.8741 C1270.259,180.5058 1270.441,179.3529 1269.953,178.8073 L1260.863,166.2951 C1260.375,165.7495 1260.558,164.5966 1261.19,164.2283 L1267.052,159.9696 C1267.598,159.4819 1268.75,159.6645 1269.119,160.2969 L1278.209,172.8091 C1278.578,173.4415 1279.73,173.6241 1280.276,173.1364 L1307.992,152.9996 C1308.675,152.5574 1309.024,151.4816 1308.732,150.7226 L1298.145,118.1405 C1297.991,117.4252 1296.95,116.8953 1296.281,117.1905 L1281.572,121.9697 C1280.902,122.2649 1279.862,121.735 1279.707,121.0197 L1277.469,114.129 C1277.173,113.4593 1277.703,112.4192 1278.419,112.2644 L1293.127,107.4852 C1293.843,107.3304 1294.373,106.2904 1294.077,105.6207 L1283.491,73.03867 C1283.281,72.25278 1282.366,71.5879 1281.554,71.63141 L1247.295,71.63141 C1246.567,71.55759 1245.742,72.38299 1245.815,73.11109 L1245.815,88.57692 C1245.889,89.30502 1245.064,90.13042 1244.336,90.0566 L1237.09,90.0566 C1236.362,90.13042 1235.537,89.30502 1235.611,88.57692 L1235.611,73.11109 C1235.685,72.38299 1234.859,71.55759 1234.131,71.63141 L1199.872,71.63141 C1199.06,71.5879 1198.145,72.25278 1197.935,73.03867 L1187.349,105.6207 C1187.054,106.2904 1187.583,107.3304 1188.299,107.4852 L1203.008,112.2644 C1203.723,112.4192 1204.253,113.4593 1203.958,114.129 L1201.719,121.0197 C1201.564,121.735 1200.524,122.2649 1199.854,121.9697 L1185.145,117.1905 C1184.476,116.8953 1183.436,117.4252 1183.281,118.1405 L1172.694,150.7226 C1172.402,151.4816 1172.751,152.5574 1173.434,152.9996 L1201.15,173.1364 C1201.696,173.6241 1202.849,173.4415 1203.217,172.8091 L1212.307,160.2969 C1212.676,159.6645 1213.829,159.4819 1214.374,159.9696 L1220.236,164.2283 C1220.868,164.5966 1221.051,165.7495 1220.563,166.2951 L1211.473,178.8073 C1210.985,179.3529 1211.168,180.5058 1211.8,180.8741 z" stroke="#000000" stroke-width="1" fill-opacity="0" />
  <path d="M1097.784,201.0109 C1098.415,201.5235 1099.546,201.5235 1100.178,201.0109 L1127.894,180.8741 C1128.526,180.5058 1128.709,179.3529 1128.221,178.8073 L1119.131,166.2951 C1118.643,165.7495 1118.826,164.5966 1119.458,164.2283 L1125.32,159.9696 C1125.865,159.4819 1127.018,159.6645 1127.386,160.2969 L1136.477,172.8091 C1136.845,173.4415 1137.998,173.6241 1138.544,173.1364 L1166.26,152.9996 C1166.942,152.5574 1167.292,151.4816 1167,150.7226 L1156.413,118.1405 C1156.258,117.4252 1155.218,116.8953 1154.549,117.1905 L1139.84,121.9697 C1139.17,122.2649 1138.13,121.735 1137.975,121.0197 L1135.736,114.129 C1135.441,113.4593 1135.971,112.4192 1136.686,112.2644 L1151.395,107.4852 C1152.11,107.3304 1152.64,106.2904 1152.345,105.6207 L1141.759,73.03867 C1141.549,72.25278 1140.634,71.5879 1139.822,71.63141 L1105.563,71.63141 C1104.835,71.55759 1104.009,72.38299 1104.083,73.11109 L1104.083,88.57692 C1104.157,89.30502 1103.332,90.13042 1102.604,90.0566 L1095.358,90.0566 C1094.63,90.13042 1093.805,89.30502 1093.878,88.57692 L1093.878,73.11109 C1093.952,72.38299 1093.127,71.55759 1092.399,71.63141 L1058.14,71.63141 C1057.328,71.5879 1056.413,72.25278 1056.203,73.03867 L1045.616,105.6207 C1045.321,106.2904 1045.851,107.3304 1046.566,107.4852 L1061.275,112.2644 C1061.991,112.4192 1062.521,113.4593 1062.225,114.129 L1059.986,121.0197 C1059.832,121.735 1058.792,122.2649 1058.122,121.9697 L1043.413,117.1905 C1042.743,116.8953 1041.703,117.4252 1041.548,118.1405 L1030.962,150.7226 C1030.67,151.4816 1031.019,152.5574 1031.702,152.9996 L1059.418,173.1364 C1059.963,173.6241 1061.116,173.4415 1061.485,172.8091 L1070.575,160.2969 C1070.943,159.6645 1072.096,159.4819 1072.642,159.9696 L1078.504,164.2283 C1079.136,164.5966 1079.319,165.7495 1078.831,166.2951 L1069.74,178.8073 C1069.253,179.3529 1069.435,180.5058 1070.068,180.8741 z" stroke="#000000" stroke-width="1" fill-opacity="0" />
  <path d="M956.0514,201.0109 C956.6829,201.5235 957.8141,201.5235 958.4456,201.0109 L986.1616,180.8741 C986.794,180.5058 986.9766,179.3529 986.4889,178.8073 L977.3983,166.2951 C976.9106,165.7495 977.0933,164.5966 977.7256,164.2283 L983.5873,159.9696 C984.1329,159.4819 985.2859,159.6645 985.6541,160.2969 L994.7447,172.8091 C995.113,173.4415 996.2659,173.6241 996.8115,173.1364 L1024.527,152.9996 C1025.21,152.5574 1025.56,151.4816 1025.267,150.7226 L1014.681,118.1405 C1014.526,117.4252 1013.486,116.8953 1012.816,117.1905 L998.1074,121.9697 C997.4377,122.2649 996.3976,121.735 996.2429,121.0197 L994.0039,114.129 C993.7087,113.4593 994.2386,112.4192 994.954,112.2644 L1009.663,107.4852 C1010.378,107.3304 1010.908,106.2904 1010.613,105.6207 L1000.026,73.03867 C999.8167,72.25278 998.9016,71.5879 998.0894,71.63141 L963.8306,71.63141 C963.1024,71.55759 962.277,72.38299 962.3509,73.11109 L962.3509,88.57692 C962.4247,89.30502 961.5993,90.13042 960.8712,90.0566 L953.6259,90.0566 C952.8977,90.13042 952.0723,89.30502 952.1461,88.57692 L952.1461,73.11109 C952.22,72.38299 951.3946,71.55759 950.6664,71.63141 L916.4077,71.63141 C915.5955,71.5879 914.6803,72.25278 914.4707,73.03867 L903.8842,105.6207 C903.589,106.2904 904.1189,107.3304 904.8342,107.4852 L919.543,112.2644 C920.2584,112.4192 920.7883,113.4593 920.4931,114.129 L918.2542,121.0197 C918.0994,121.735 917.0593,122.2649 916.3896,121.9697 L901.6807,117.1905 C901.0111,116.8953 899.971,117.4252 899.8162,118.1405 L889.2297,150.7226 C888.9373,151.4816 889.2869,152.5574 889.9695,152.9996 L917.6855,173.1364 C918.2311,173.6241 919.384,173.4415 919.7523,172.8091 L928.8429,160.2969 C929.2111,159.6645 930.3641,159.4819 930.9097,159.9696 L936.7714,164.2283 C937.4037,164.5966 937.5864,165.7495 937.0987,166.2951 L928.0081,178.8073 C927.5204,179.3529 927.703,180.5058 928.3354,180.8741 z" stroke="#000000" stroke-width="1" fill-opacity="0" />
  <path d="M814.3192,201.0109 C814.9506,201.5235 816.0818,201.5235 816.7133,201.0109 L844.4293,180.8741 C845.0617,180.5058 845.2443,179.3529 844.7566,178.8073 L835.666,166.2951 C835.1783,165.7495 835.361,164.5966 835.9934,164.2283 L841.855,159.9696 C842.4007,159.4819 843.5536,159.6645 843.9218,160.2969 L853.0124,172.8091 C853.3807,173.4415 854.5336,173.6241 855.0792,173.1364 L882.7952,152.9996 C883.4778,152.5574 883.8274,151.4816 883.535,150.7226 L872.9485,118.1405 C872.7937,117.4252 871.7537,116.8953 871.084,117.1905 L856.3751,121.9697 C855.7054,122.2649 854.6654,121.735 854.5106,121.0197 L852.2717,114.129 C851.9764,113.4593 852.5064,112.4192 853.2217,112.2644 L867.9305,107.4852 C868.6458,107.3304 869.1758,106.2904 868.8806,105.6207 L858.294,73.03867 C858.0844,72.25278 857.1693,71.5879 856.3571,71.63141 L822.0983,71.63141 C821.3702,71.55759 820.5447,72.38299 820.6186,73.11109 L820.6186,88.57692 C820.6924,89.30502 819.867,90.13042 819.1389,90.0566 L811.8936,90.0566 C811.1655,90.13042 810.34,89.30502 810.4139,88.57692 L810.4139,73.11109 C810.4877,72.38299 809.6623,71.55759 808.9341,71.63141 L774.6754,71.63141 C773.8632,71.5879 772.9481,72.25278 772.7385,73.03867 L762.1519,105.6207 C761.8567,106.2904 762.3866,107.3304 763.1019,107.4852 L777.8108,112.2644 C778.5261,112.4192 779.056,113.4593 778.7608,114.129 L776.5219,121.0197 C776.3671,121.735 775.327,122.2649 774.6573,121.9697 L759.9485,117.1905 C759.2788,116.8953 758.2388,117.4252 758.0839,118.1405 L747.4974,150.7226 C747.205,151.4816 747.5546,152.5574 748.2372,152.9996 L775.9532,173.1364 C776.4988,173.6241 777.6518,173.4415 778.02,172.8091 L787.1106,160.2969 C787.4789,159.6645 788.6318,159.4819 789.1774,159.9696 L795.0391,164.2283 C795.6715,164.5966 795.8541,165.7495 795.3664,166.2951 L786.2758,178.8073 C785.7881,179.3529 785.9708,180.5058 786.6031,180.8741 z" stroke="#000000" stroke-width="1" fill-opacity="0" />
  <path d="M672.5869,201.0109 C673.2184,201.5235 674.3495,201.5235 674.981,201.0109 L702.697,180.8741 C703.3294,180.5058 703.512,179.3529 703.0244,178.8073 L693.9338,166.2951 C693.446,165.7495 693.6287,164.5966 694.2611,164.2283 L700.1227,159.9696 C700.6684,159.4819 701.8213,159.6645 702.1896,160.2969 L711.2802,172.8091 C711.6484,173.4415 712.8013,173.6241 713.347,173.1364 L741.0629,152.9996 C741.7455,152.5574 742.0951,151.4816 741.8027,150.7226 L731.2162,118.1405 C731.0614,117.4252 730.0214,116.8953 729.3517,117.1905 L714.6428,121.9697 C713.9731,122.2649 712.9331,121.735 712.7783,121.0197 L710.5394,114.129 C710.2441,113.4593 710.7741,112.4192 711.4894,112.2644 L726.1982,107.4852 C726.9135,107.3304 727.4435,106.2904 727.1483,105.6207 L716.5617,73.03867 C716.3521,72.25278 715.437,71.5879 714.6248,71.63141 L680.366,71.63141 C679.6379,71.55759 678.8125,72.38299 678.8863,73.11109 L678.8863,88.57692 C678.9601,89.30502 678.1347,90.13042 677.4066,90.0566 L670.1613,90.0566 C669.4332,90.13042 668.6078,89.30502 668.6816,88.57692 L668.6816,73.11109 C668.7554,72.38299 667.93,71.55759 667.2019,71.63141 L632.9431,71.63141 C632.1309,71.5879 631.2158,72.25278 631.0062,73.03867 L620.4196,105.6207 C620.1244,106.2904 620.6544,107.3304 621.3696,107.4852 L636.0785,112.2644 C636.7938,112.4192 637.3237,113.4593 637.0285,114.129 L634.7896,121.0197 C634.6348,121.735 633.5947,122.2649 632.925,121.9697 L618.2162,117.1905 C617.5465,116.8953 616.5065,117.4252 616.3517,118.1405 L605.7651,150.7226 C605.4728,151.4816 605.8223,152.5574 606.5049,152.9996 L634.2209,173.1364 C634.7666,173.6241 635.9195,173.4415 636.2877,172.8091 L645.3784,160.2969 C645.7466,159.6645 646.8995,159.4819 647.4451,159.9696 L653.3068,164.2283 C653.9392,164.5966 654.1218,165.7495 653.6341,166.2951 L644.5435,178.8073 C644.0558,179.3529 644.2385,180.5058 644.8709,180.8741 z" stroke="#000000" stroke-width="1" fill-opacity="0" />
  <path d="M530.8546,201.0109 C531.4861,201.5235 532.6172,201.5235 533.2487,201.0109 L560.9647,180.8741 C561.5971,180.5058 561.7797,179.3529 561.2921,178.8073 L552.2015,166.2951 C551.7138,165.7495 551.8964,164.5966 552.5288,164.2283 L558.3904,159.9696 C558.9361,159.4819 560.089,159.6645 560.4573,160.2969 L569.5479,172.8091 C569.9161,173.4415 571.069,173.6241 571.6147,173.1364 L599.3306,152.9996 C600.0133,152.5574 600.3629,151.4816 600.0705,150.7226 L589.4839,118.1405 C589.3291,117.4252 588.2891,116.8953 587.6194,117.1905 L572.9105,121.9697 C572.2408,122.2649 571.2008,121.735 571.046,121.0197 L568.8071,114.129 C568.5119,113.4593 569.0418,112.4192 569.7571,112.2644 L584.466,107.4852 C585.1813,107.3304 585.7112,106.2904 585.416,105.6207 L574.8295,73.03867 C574.6198,72.25278 573.7047,71.5879 572.8925,71.63141 L538.6337,71.63141 C537.9056,71.55759 537.0802,72.38299 537.154,73.11109 L537.154,88.57692 C537.2278,89.30502 536.4025,90.13042 535.6743,90.0566 L528.429,90.0566 C527.7009,90.13042 526.8755,89.30502 526.9493,88.57692 L526.9493,73.11109 C527.0231,72.38299 526.1977,71.55759 525.4696,71.63141 L491.2108,71.63141 C490.3986,71.5879 489.4835,72.25278 489.2739,73.03867 L478.6873,105.6207 C478.3921,106.2904 478.9221,107.3304 479.6373,107.4852 L494.3462,112.2644 C495.0615,112.4192 495.5914,113.4593 495.2962,114.129 L493.0573,121.0197 C492.9025,121.735 491.8624,122.2649 491.1928,121.9697 L476.4839,117.1905 C475.8142,116.8953 474.7742,117.4252 474.6194,118.1405 L464.0328,150.7226 C463.7405,151.4816 464.09,152.5574 464.7727,152.9996 L492.4886,173.1364 C493.0343,173.6241 494.1872,173.4415 494.5555,172.8091 L503.6461,160.2969 C504.0143,159.6645 505.1672,159.4819 505.7129,159.9696 L511.5745,164.2283 C512.2069,164.5966 512.3895,165.7495 511.9018,166.2951 L502.8112,178.8073 C502.3236,179.3529 502.5062,180.5058 503.1386,180.8741 z" stroke="#000000" stroke-width="1" fill-opacity="0" />
  <path d="M389.1223,201.0109 C389.7538,201.5235 390.8849,201.5235 391.5164,201.0109 L419.2324,180.8741 C419.8649,180.5058 420.0475,179.3529 419.5598,178.8073 L410.4692,166.2951 C409.9815,165.7495 410.1641,164.5966 410.7965,164.2283 L416.6581,159.9696 C417.2038,159.4819 418.3567,159.6645 418.725,160.2969 L427.8156,172.8091 C428.1838,173.4415 429.3367,173.6241 429.8824,173.1364 L457.5984,152.9996 C458.281,152.5574 458.6306,151.4816 458.3382,150.7226 L447.7516,118.1405 C447.5968,117.4252 446.5568,116.8953 445.8871,117.1905 L431.1783,121.9697 C430.5086,122.2649 429.4685,121.735 429.3138,121.0197 L427.0748,114.129 C426.7796,113.4593 427.3095,112.4192 428.0248,112.2644 L442.7337,107.4852 C443.449,107.3304 443.9789,106.2904 443.6837,105.6207 L433.0972,73.03867 C432.8875,72.25278 431.9724,71.5879 431.1602,71.63141 L396.9014,71.63141 C396.1733,71.55759 395.3479,72.38299 395.4217,73.11109 L395.4217,88.57692 C395.4955,89.30502 394.6702,90.13042 393.942,90.0566 L386.6967,90.0566 C385.9686,90.13042 385.1432,89.30502 385.217,88.57692 L385.217,73.11109 C385.2908,72.38299 384.4654,71.55759 383.7373,71.63141 L349.4785,71.63141 C348.6663,71.5879 347.7512,72.25278 347.5416,73.03867 L336.955,105.6207 C336.6598,106.2904 337.1898,107.3304 337.9051,107.4852 L352.6139,112.2644 C353.3292,112.4192 353.8591,113.4593 353.5639,114.129 L351.325,121.0197 C351.1702,121.735 350.1302,122.2649 349.4605,121.9697 L334.7516,117.1905 C334.0819,116.8953 333.0419,117.4252 332.8871,118.1405 L322.3005,150.7226 C322.0082,151.4816 322.3577,152.5574 323.0404,152.9996 L350.7563,173.1364 C351.302,173.6241 352.4549,173.4415 352.8232,172.8091 L361.9138,160.2969 C362.282,159.6645 363.4349,159.4819 363.9806,159.9696 L369.8422,164.2283 C370.4746,164.5966 370.6573,165.7495 370.1696,166.2951 L361.079,178.8073 C360.5913,179.3529 360.7739,180.5058 361.4063,180.8741 z" stroke="#000000" stroke-width="1" fill-opacity="0" />
  <path d="M247.39,201.0109 C248.0215,201.5235 249.1527,201.5235 249.7842,201.0109 L277.5001,180.8741 C278.1326,180.5058 278.3152,179.3529 277.8275,178.8073 L268.7369,166.2951 C268.2492,165.7495 268.4318,164.5966 269.0643,164.2283 L274.9259,159.9696 C275.4715,159.4819 276.6245,159.6645 276.9927,160.2969 L286.0833,172.8091 C286.4515,173.4415 287.6045,173.6241 288.1501,173.1364 L315.8661,152.9996 C316.5487,152.5574 316.8983,151.4816 316.6059,150.7226 L306.0193,118.1405 C305.8646,117.4252 304.8245,116.8953 304.1548,117.1905 L289.446,121.9697 C288.7763,122.2649 287.7362,121.735 287.5815,121.0197 L285.3425,114.129 C285.0473,113.4593 285.5772,112.4192 286.2925,112.2644 L301.0014,107.4852 C301.7167,107.3304 302.2466,106.2904 301.9514,105.6207 L291.3649,73.03867 C291.1553,72.25278 290.2401,71.5879 289.4279,71.63141 L255.1691,71.63141 C254.441,71.55759 253.6156,72.38299 253.6895,73.11109 L253.6895,88.57692 C253.7633,89.30502 252.9379,90.13042 252.2098,90.0566 L244.9644,90.0566 C244.2363,90.13042 243.4109,89.30502 243.4847,88.57692 L243.4847,73.11109 C243.5585,72.38299 242.7331,71.55759 242.005,71.63141 L207.7462,71.63141 C206.934,71.5879 206.0189,72.25278 205.8093,73.03867 L195.2227,105.6207 C194.9276,106.2904 195.4575,107.3304 196.1728,107.4852 L210.8816,112.2644 C211.5969,112.4192 212.1269,113.4593 211.8316,114.129 L209.5927,121.0197 C209.4379,121.735 208.3979,122.2649 207.7282,121.9697 L193.0193,117.1905 C192.3497,116.8953 191.3096,117.4252 191.1548,118.1405 L180.5683,150.7226 C180.2759,151.4816 180.6255,152.5574 181.3081,152.9996 L209.0241,173.1364 C209.5697,173.6241 210.7226,173.4415 211.0909,172.8091 L220.1815,160.2969 C220.5497,159.6645 221.7026,159.4819 222.2483,159.9696 L228.1099,164.2283 C228.7424,164.5966 228.925,165.7495 228.4373,166.2951 L219.3467,178.8073 C218.859,179.3529 219.0416,180.5058 219.674,180.8741 z" stroke="#000000" stroke-width="1" fill-opacity="0" />
  <path d="M105.6577,201.0109 C106.2892,201.5235 107.4204,201.5235 108.0519,201.0109 L135.7679,180.8741 C136.4003,180.5058 136.5829,179.3529 136.0952,178.8073 L127.0046,166.2951 C126.5169,165.7495 126.6995,164.5966 127.332,164.2283 L133.1936,159.9696 C133.7392,159.4819 134.8922,159.6645 135.2604,160.2969 L144.351,172.8091 C144.7193,173.4415 145.8722,173.6241 146.4178,173.1364 L174.1338,152.9996 C174.8164,152.5574 175.166,151.4816 174.8736,150.7226 L164.2871,118.1405 C164.1323,117.4252 163.0922,116.8953 162.4226,117.1905 L147.7137,121.9697 C147.044,122.2649 146.004,121.735 145.8492,121.0197 L143.6102,114.129 C143.315,113.4593 143.845,112.4192 144.5603,112.2644 L159.2691,107.4852 C159.9844,107.3304 160.5143,106.2904 160.2191,105.6207 L149.6326,73.03867 C149.423,72.25278 148.5079,71.5879 147.6957,71.63141 L113.4369,71.63141 C112.7087,71.55759 111.8834,72.38299 111.9572,73.11109 L111.9572,88.57692 C112.031,89.30502 111.2056,90.13042 110.4775,90.0566 L103.2321,90.0566 C102.504,90.13042 101.6786,89.30502 101.7524,88.57692 L101.7524,73.11109 C101.8263,72.38299 101.0009,71.55759 100.2728,71.63141 L66.01395,71.63141 C65.20175,71.5879 64.28662,72.25278 64.07702,73.03867 L53.49046,105.6207 C53.19527,106.2904 53.7252,107.3304 54.44048,107.4852 L69.14935,112.2644 C69.86463,112.4192 70.39457,113.4593 70.09937,114.129 L67.86044,121.0197 C67.70564,121.735 66.66558,122.2649 65.99593,121.9697 L51.28705,117.1905 C50.61739,116.8953 49.57733,117.4252 49.42253,118.1405 L38.83598,150.7226 C38.54362,151.4816 38.89317,152.5574 39.57582,152.9996 L67.29178,173.1364 C67.83744,173.6241 68.99036,173.4415 69.3586,172.8091 L78.4492,160.2969 C78.81744,159.6645 79.97036,159.4819 80.51602,159.9696 L86.37763,164.2283 C87.01007,164.5966 87.19267,165.7495 86.70499,166.2951 L77.6144,178.8073 C77.12672,179.3529 77.30932,180.5058 77.94176,180.8741 z" stroke="#000000" stroke-width="1" fill-opacity="0" />
  <path d="M1381.248,342.7432 C1381.88,343.2558 1383.011,343.2558 1383.642,342.7432 L1411.358,322.6064 C1411.991,322.2381 1412.173,321.0852 1411.686,320.5395 L1402.595,308.0274 C1402.107,307.4818 1402.29,306.3288 1402.922,305.9606 L1408.784,301.7019 C1409.33,301.2142 1410.483,301.3968 1410.851,302.0292 L1419.942,314.5414 C1420.31,315.1738 1421.463,315.3564 1422.008,314.8687 L1449.724,294.7319 C1450.407,294.2897 1450.757,293.2139 1450.464,292.4549 L1439.878,259.8728 C1439.723,259.1575 1438.683,258.6276 1438.013,258.9228 L1423.304,263.702 C1422.635,263.9972 1421.594,263.4673 1421.44,262.752 L1419.201,255.8612 C1418.906,255.1916 1419.436,254.1515 1420.151,253.9967 L1434.86,249.2175 C1435.575,249.0627 1436.105,248.0227 1435.81,247.353 L1425.223,214.771 C1425.014,213.9851 1424.098,213.3202 1423.286,213.3637 L1389.027,213.3637 C1388.299,213.2899 1387.474,214.1153 1387.548,214.8434 L1387.548,230.3092 C1387.622,231.0373 1386.796,231.8627 1386.068,231.7889 L1378.823,231.7889 C1378.095,231.8627 1377.269,231.0373 1377.343,230.3092 L1377.343,214.8434 C1377.417,214.1153 1376.591,213.2899 1375.863,213.3637 L1341.604,213.3637 C1340.792,213.3202 1339.877,213.9851 1339.668,214.771 L1329.081,247.353 C1328.786,248.0227 1329.316,249.0627 1330.031,249.2175 L1344.74,253.9967 C1345.455,254.1515 1345.985,255.1916 1345.69,255.8612 L1343.451,262.752 C1343.296,263.4673 1342.256,263.9972 1341.586,263.702 L1326.878,258.9228 C1326.208,258.6276 1325.168,259.1575 1325.013,259.8728 L1314.427,292.4549 C1314.134,293.2139 1314.484,294.2897 1315.166,294.7319 L1342.882,314.8687 C1343.428,315.3564 1344.581,315.1738 1344.949,314.5414 L1354.04,302.0292 C1354.408,301.3968 1355.561,301.2142 1356.107,301.7019 L1361.968,305.9606 C1362.601,306.3288 1362.783,307.4818 1362.296,308.0274 L1353.205,320.5395 C1352.717,321.0852 1352.9,322.2381 1353.532,322.6064 z" stroke="#000000" stroke-width="1" fill-opacity="0" />
  <path d="M1239.516,342.7432 C1240.147,343.2558 1241.279,343.2558 1241.91,342.7432 L1269.626,322.6064 C1270.259,322.2381 1270.441,321.0852 1269.953,320.5395 L1260.863,308.0274 C1260.375,307.4818 1260.558,306.3288 1261.19,305.9606 L1267.052,301.7019 C1267.598,301.2142 1268.75,301.3968 1269.119,302.0292 L1278.209,314.5414 C1278.578,315.1738 1279.73,315.3564 1280.276,314.8687 L1307.992,294.7319 C1308.675,294.2897 1309.024,293.2139 1308.732,292.4549 L1298.145,259.8728 C1297.991,259.1575 1296.95,258.6276 1296.281,258.9228 L1281.572,263.702 C1280.902,263.9972 1279.862,263.4673 1279.707,262.752 L1277.469,255.8612 C1277.173,255.1916 1277.703,254.1515 1278.419,253.9967 L1293.127,249.2175 C1293.843,249.0627 1294.373,248.0227 1294.077,247.353 L1283.491,214.771 C1283.281,213.9851 1282.366,213.3202 1281.554,213.3637 L1247.295,213.3637 C1246.567,213.2899 1245.742,214.1153 1245.815,214.8434 L1245.815,230.3092 C1245.889,231.0373 1245.064,231.8627 1244.336,231.7889 L1237.09,231.7889 C1236.362,231.8627 1235.537,231.0373 1235.611,230.3092 L1235.611,214.8434 C1235.685,214.1153 1234.859,213.2899 1234.131,213.3637 L1199.872,213.3637 C1199.06,213.3202 1198.145,213.9851 1197.935,214.771 L1187.349,247.353 C1187.054,248.0227 1187.583,249.0627 1188.299,249.2175 L1203.008,253.9967 C1203.723,254.1515 1204.253,255.1916 1203.958,255.8612 L1201.719,262.752 C1201.564,263.4673 1200.524,263.9972 1199.854,263.702 L1185.145,258.9228 C1184.476,258.6276 1183.436,259.1575 1183.281,259.8728 L1172.694,292.4549 C1172.402,293.2139 1172.751,294.2897 1173.434,294.7319 L1201.15,314.8687 C1201.696,315.3564 1202.849,315.1738 1203.217,314.5414 L1212.307,302.0292 C1212.676,301.3968 1213.829,301.2142 1214.374,301.7019 L1220.236,305.9606 C1220.868,306.3288 1221.051,307.4818 1220.563,308.0274 L1211.473,320.5395 C1210.985,321.0852 1211.168,322.2381 1211.8,322.6064 z" stroke="#000000" stroke-width="1" fill-opacity="0" />
  <path d="M1097.784,342.7432 C1098.415,343.2558 1099.546,343.2558 1100.178,342.7432 L1127.894,322.6064 C1128.526,322.2381 1128.709,321.0852 1128.221,320.5395 L1119.131,308.0274 C1118.643,307.4818 1118.826,306.3288 1119.458,305.9606 L1125.32,301.7019 C1125.865,301.2142 1127.018,301.3968 1127.386,302.0292 L1136.477,314.5414 C1136.845,315.1738 1137.998,315.3564 1138.544,314.8687 L1166.26,294.7319 C1166.942,294.2897 1167.292,293.2139 1167,292.4549 L1156.413,259.8728 C1156.258,259.1575 1155.218,258.6276 1154.549,258.9228 L1139.84,263.702 C1139.17,263.9972 1138.13,263.4673 1137.975,262.752 L1135.736,255.8612 C1135.441,255.1916 1135.971,254.1515 1136.686,253.9967 L1151.395,249.2175 C1152.11,249.0627 1152.64,248.0227 1152.345,247.353 L1141.759,214.771 C1141.549,213.9851 1140.634,213.3202 1139.822,213.3637 L1105.563,213.3637 C1104.835,213.2899 1104.009,214.1153 1104.083,214.8434 L1104.083,230.3092 C1104.157,231.0373 1103.332,231.8627 1102.604,231.7889 L1095.358,231.7889 C1094.63,231.8627 1093.805,231.0373 1093.878,230.3092 L1093.878,214.8434 C1093.952,214.1153 1093.127,213.2899 1092.399,213.3637 L1058.14,213.3637 C1057.328,213.3202 1056.413,213.9851 1056.203,214.771 L1045.616,247.353 C1045.321,248.0227 1045.851,249.0627 1046.566,249.2175 L1061.275,253.9967 C1061.991,254.1515 1062.521,255.1916 1062.225,255.8612 L1059.986,262.752 C1059.832,263.4673 1058.792,263.9972 1058.122,263.702 L1043.413,258.9228 C1042.743,258.6276 1041.703,259.1575 1041.548,259.8728 L1030.962,292.4549 C1030.67,293.2139 1031.019,294.2897 1031.702,294.7319 L1059.418,314.8687 C1059.963,315.3564 1061.116,315.1738 1061.485,314.5414 L1070.575,302.0292 C1070.943,301.3968 1072.096,301.2142 1072.642,301.7019 L1078.504,305.9606 C1079.136,306.3288 1079.319,307.4818 1078.831,308.0274 L1069.74,320.5395 C1069.253,321.0852 1069.435,322.2381 1070.068,322.6064 z" stroke="#000000" stroke-width="1" fill-opacity="0" />
  <path d="M956.0514,342.7432 C956.6829,343.2558 957.8141,343.2558 958.4456,342.7432 L986.1616,322.6064 C986.794,322.2381 986.9766,321.0852 986.4889,320.5395 L977.3983,308.0274 C976.9106,307.4818 977.0933,306.3288 977.7256,305.9606 L983.5873,301.7019 C984.1329,301.2142 985.2859,301.3968 985.6541,302.0292 L994.7447,314.5414 C995.113,315.1738 996.2659,315.3564 996.8115,314.8687 L1024.527,294.7319 C1025.21,294.2897 1025.56,293.2139 1025.267,292.4549 L1014.681,259.8728 C1014.526,259.1575 1013.486,258.6276 1012.816,258.9228 L998.1074,263.702 C997.4377,263.9972 996.3976,263.4673 996.2429,262.752 L994.0039,255.8612 C993.7087,255.1916 994.2386,254.1515 994.954,253.9967 L1009.663,249.2175 C1010.378,249.0627 1010.908,248.0227 1010.613,247.353 L1000.026,214.771 C999.8167,213.9851 998.9016,213.3202 998.0894,213.3637 L963.8306,213.3637 C963.1024,213.2899 962.277,214.1153 962.3509,214.8434 L962.3509,230.3092 C962.4247,231.0373 961.5993,231.8627 960.8712,231.7889 L953.6259,231.7889 C952.8977,231.8627 952.0723,231.0373 952.1461,230.3092 L952.1461,214.8434 C952.22,214.1153 951.3946,213.2899 950.6664,213.3637 L916.4077,213.3637 C915.5955,213.3202 914.6803,213.9851 914.4707,214.771 L903.8842,247.353 C903.589,248.0227 904.1189,249.0627 904.8342,249.2175 L919.543,253.9967 C920.2584,254.1515 920.7883,255.1916 920.4931,255.8612 L918.2542,262.752 C918.0994,263.4673 917.0593,263.9972 916.3896,263.702 L901.6807,258.9228 C901.0111,258.6276 899.971,259.1575 899.8162,259.8728 L889.2297,292.4549 C888.9373,293.2139 889.2869,294.2897 889.9695,294.7319 L917.6855,314.8687 C918.2311,315.3564 919.384,315.1738 919.7523,314.5414 L928.8429,302.0292 C929.2111,301.3968 930.3641,301.2142 930.9097,301.7019 L936.7714,305.9606 C937.4037,306.3288 937.5864,307.4818 937.0987,308.0274 L928.0081,320.5395 C927.5204,321.0852 927.703,322.2381 928.3354,322.6064 z" stroke="#000000" stroke-width="1" fill-opacity="0" />
  <path d="M814.3192,342.7432 C814.9506,343.2558 816.0818,343.2558 816.7133,342.7432 L844.4293,322.6064 C845.0617,322.2381 845.2443,321.0852 844.7566,320.5395 L835.666,308.0274 C835.1783,307.4818 835.361,306.3288 835.9934,305.9606 L841.855,301.7019 C842.4007,301.2142 843.5536,301.3968 843.9218,302.0292 L853.0124,314.5414 C853.3807,315.1738 854.5336,315.3564 855.0792,314.8687 L882.7952,294.7319 C883.4778,294.2897 883.8274,293.2139 883.535,292.4549 L872.9485,259.8728 C872.7937,259.1575 871.7537,258.6276 871.084,258.9228 L856.3751,263.702 C855.7054,263.9972 854.6654,263.4673 854.5106,262.752 L852.2717,255.8612 C851.9764,255.1916 852.5064,254.1515 853.2217,253.9967 L867.9305,249.2175 C868.6458,249.0627 869.1758,248.0227 868.8806,247.353 L858.294,214.771 C858.0844,213.9851 857.1693,213.3202 856.3571,213.3637 L822.0983,213.3637 C821.3702,213.2899 820.5447,214.1153 820.6186,214.8434 L820.6186,230.3092 C820.6924,231.0373 819.867,231.8627 819.1389,231.7889 L811.8936,231.7889 C811.1655,231.8627 810.34,231.0373 810.4139,230.3092 L810.4139,214.8434 C810.4877,214.1153 809.6623,213.2899 808.9341,213.3637 L774.6754,213.3637 C773.8632,213.3202 772.9481,213.9851 772.7385,214.771 L762.1519,247.353 C761.8567,248.0227 762.3866,249.0627 763.1019,249.2175 L777.8108,253.9967 C778.5261,254.1515 779.056,255.1916 778.7608,255.8612 L776.5219,262.752 C776.3671,263.4673 775.327,263.9972 774.6573,263.702 L759.9485,258.9228 C759.2788,258.6276 758.2388,259.1575 758.0839,259.8728 L747.4974,292.4549 C747.205,293.2139 747.5546,294.2897 748.2372,294.7319 L775.9532,314.8687 C776.4988,315.3564 777.6518,315.1738 778.02,314.5414 L787.1106,302.0292 C787.4789,301.3968 788.6318,301.2142 789.1774,301.7019 L795.0391,305.9606 C795.6715,306.3288 795.8541,307.4818 795.3664,308.0274 L786.2758,320.5395 C785.7881,321.0852 785.9708,322.2381 786.6031,322.6064 z" stroke="#000000" stroke-width="1" fill-opacity="0" />
  <path d="M672.5869,342.7432 C673.2184,343.2558 674.3495,343.2558 674.981,342.7432 L702.697,322.6064 C703.3294,322.2381 703.512,321.0852 703.0244,320.5395 L693.9338,308.0274 C693.446,307.4818 693.6287,306.3288 694.2611,305.9606 L700.1227,301.7019 C700.6684,301.2142 701.8213,301.3968 702.1896,302.0292 L711.2802,314.5414 C711.6484,315.1738 712.8013,315.3564 713.347,314.8687 L741.0629,294.7319 C741.7455,294.2897 742.0951,293.2139 741.8027,292.4549 L731.2162,259.8728 C731.0614,259.1575 730.0214,258.6276 729.3517,258.9228 L714.6428,263.702 C713.9731,263.9972 712.9331,263.4673 712.7783,262.752 L710.5394,255.8612 C710.2441,255.1916 710.7741,254.1515 711.4894,253.9967 L726.1982,249.2175 C726.9135,249.0627 727.4435,248.0227 727.1483,247.353 L716.5617,214.771 C716.3521,213.9851 715.437,213.3202 714.6248,213.3637 L680.366,213.3637 C679.6379,213.2899 678.8125,214.1153 678.8863,214.8434 L678.8863,230.3092 C678.9601,231.0373 678.1347,231.8627 677.4066,231.7889 L670.1613,231.7889 C669.4332,231.8627 668.6078,231.0373 668.6816,230.3092 L668.6816,214.8434 C668.7554,214.1153 667.93,213.2899 667.2019,213.3637 L632.9431,213.3637 C632.1309,213.3202 631.2158,213.9851 631.0062,214.771 L620.4196,247.353 C620.1244,248.0227 620.6544,249.0627 621.3696,249.2175 L636.0785,253.9967 C636.7938,254.1515 637.3237,255.1916 637.0285,255.8612 L634.7896,262.752 C634.6348,263.4673 633.5947,263.9972 632.925,263.702 L618.2162,258.9228 C617.5465,258.6276 616.5065,259.1575 616.3517,259.8728 L605.7651,292.4549 C605.4728,293.2139 605.8223,294.2897 606.5049,294.7319 L634.2209,314.8687 C634.7666,315.3564 635.9195,315.1738 636.2877,314.5414 L645.3784,302.0292 C645.7466,301.3968 646.8995,301.2142 647.4451,301.7019 L653.3068,305.9606 C653.9392,306.3288 654.1218,307.4818 653.6341,308.0274 L644.5435,320.5395 C644.0558,321.0852 644.2385,322.2381 644.8709,322.6064 z" stroke="#000000" stroke-width="1" fill-opacity="0" />
  <path d="M530.8546,342.7432 C531.4861,343.2558 532.6172,343.2558 533.2487,342.7432 L560.9647,322.6064 C561.5971,322.2381 561.7797,321.0852 561.2921,320.5395 L552.2015,308.0274 C551.7138,307.4818 551.8964,306.3288 552.5288,305.9606 L558.3904,301.7019 C558.9361,301.2142 560.089,301.3968 560.4573,302.0292 L569.5479,314.5414 C569.9161,315.1738 571.069,315.3564 571.6147,314.8687 L599.3306,294.7319 C600.0133,294.2897 600.3629,293.2139 600.0705,292.4549 L589.4839,259.8728 C589.3291,259.1575 588.2891,258.6276 587.6194,258.9228 L572.9105,263.702 C572.2408,263.9972 571.2008,263.4673 571.046,262.752 L568.8071,255.8612 C568.5119,255.1916 569.0418,254.1515 569.7571,253.9967 L584.466,249.2175 C585.1813,249.0627 585.7112,248.0227 585.416,247.353 L574.8295,214.771 C574.6198,213.9851 573.7047,213.3202 572.8925,213.3637 L538.6337,213.3637 C537.9056,213.2899 537.0802,214.1153 537.154,214.8434 L537.154,230.3092 C537.2278,231.0373 536.4025,231.8627 535.6743,231.7889 L528.429,231.7889 C527.7009,231.8627 526.8755,231.0373 526.9493,230.3092 L526.9493,214.8434 C527.0231,214.1153 526.1977,213.2899 525.4696,213.3637 L491.2108,213.3637 C490.3986,213.3202 489.4835,213.9851 489.2739,214.771 L478.6873,247.353 C478.3921,248.0227 478.9221,249.0627 479.6373,249.2175 L494.3462,253.9967 C495.0615,254.1515 495.5914,255.1916 495.2962,255.8612 L493.0573,262.752 C492.9025,263.4673 491.8624,263.9972 491.1928,263.702 L476.4839,258.9228 C475.8142,258.6276 474.7742,259.1575 474.6194,259.8728 L464.0328,292.4549 C463.7405,293.2139 464.09,294.2897 464.7727,294.7319 L492.4886,314.8687 C493.0343,315.3564 494.1872,315.1738 494.5555,314.5414 L503.6461,302.0292 C504.0143,301.3968 505.1672,301.2142 505.7129,301.7019 L511.5745,305.9606 C512.2069,306.3288 512.3895,307.4818 511.9018,308.0274 L502.8112,320.5395 C502.3236,321.0852 502.5062,322.2381 503.1386,322.6064 z" stroke="#000000" stroke-width="1" fill-opacity="0" />
  <path d="M389.1223,342.7432 C389.7538,343.2558 390.8849,343.2558 391.5164,342.7432 L419.2324,322.6064 C419.8649,322.2381 420.0475,321.0852 419.5598,320.5395 L410.4692,308.0274 C409.9815,307.4818 410.1641,306.3288 410.7965,305.9606 L416.6581,301.7019 C417.2038,301.2142 418.3567,301.3968 418.725,302.0292 L427.8156,314.5414 C428.1838,315.1738 429.3367,315.3564 429.8824,314.8687 L457.5984,294.7319 C458.281,294.2897 458.6306,293.2139 458.3382,292.4549 L447.7516,259.8728 C447.5968,259.1575 446.5568,258.6276 445.8871,258.9228 L431.1783,263.702 C430.5086,263.9972 429.4685,263.4673 429.3138,262.752 L427.0748,255.8612 C426.7796,255.1916 427.3095,254.1515 428.0248,253.9967 L442.7337,249.2175 C443.449,249.0627 443.9789,248.0227 443.6837,247.353 L433.0972,214.771 C432.8875,213.9851 431.9724,213.3202 431.1602,213.3637 L396.9014,213.3637 C396.1733,213.2899 395.3479,214.1153 395.4217,214.8434 L395.4217,230.3092 C395.4955,231.0373 394.6702,231.8627 393.942,231.7889 L386.6967,231.7889 C385.9686,231.8627 385.1432,231.0373 385.217,230.3092 L385.217,214.8434 C385.2908,214.1153 384.4654,213.2899 383.7373,213.3637 L349.4785,213.3637 C348.6663,213.3202 347.7512,213.9851 347.5416,214.771 L336.955,247.353 C336.6598,248.0227 337.1898,249.0627 337.9051,249.2175 L352.6139,253.9967 C353.3292,254.1515 353.8591,255.1916 353.5639,255.8612 L351.325,262.752 C351.1702,263.4673 350.1302,263.9972 349.4605,263.702 L334.7516,258.9228 C334.0819,258.6276 333.0419,259.1575 332.8871,259.8728 L322.3005,292.4549 C322.0082,293.2139 322.3577,294.2897 323.0404,294.7319 L350.7563,314.8687 C351.302,315.3564 352.4549,315.1738 352.8232,314.5414 L361.9138,302.0292 C362.282,301.3968 363.4349,301.2142 363.9806,301.7019 L369.8422,305.9606 C370.4746,306.3288 370.6573,307.4818 370.1696,308.0274 L361.079,320.5395 C360.5913,321.0852 360.7739,322.2381 361.4063,322.6064 z" stroke="#000000" stroke-width="1" fill-opacity="0" />
  <path d="M247.39,342.7432 C248.0215,343.2558 249.1527,343.2558 249.7842,342.7432 L277.5001,322.6064 C278.1326,322.2381 278.3152,321.0852 277.8275,320.5395 L268.7369,308.0274 C268.2492,307.4818 268.4318,306.3288 269.0643,305.9606 L274.9259,301.7019 C275.4715,301.2142 276.6245,301.3968 276.9927,302.0292 L286.0833,314.5414 C286.4515,315.1738 287.6045,315.3564 288.1501,314.8687 L315.8661,294.7319 C316.5487,294.2897 316.8983,293.2139 316.6059,292.4549 L306.0193,259.8728 C305.8646,259.1575 304.8245,258.6276 304.1548,258.9228 L289.446,263.702 C288.7763,263.9972 287.7362,263.4673 287.5815,262.752 L285.3425,255.8612 C285.0473,255.1916 285.5772,254.1515 286.2925,253.9967 L301.0014,249.2175 C301.7167,249.0627 302.2466,248.0227 301.9514,247.353 L291.3649,214.771 C291.1553,213.9851 290.2401,213.3202 289.4279,213.3637 L255.1691,213.3637 C254.441,213.2899 253.6156,214.1153 253.6895,214.8434 L253.6895,230.3092 C253.7633,231.0373 252.9379,231.8627 252.2098,231.7889 L244.9644,231.7889 C244.2363,231.8627 243.4109,231.0373 243.4847,230.3092 L243.4847,214.8434 C243.5585,214.1153 242.7331,213.2899 242.005,213.3637 L207.7462,213.3637 C206.934,213.3202 206.0189,213.9851 205.8093,214.771 L195.2227,247.353 C194.9276,248.0227 195.4575,249.0627 196.1728,249.2175 L210.8816,253.9967 C211.5969,254.1515 212.1269,255.1916 211.8316,255.8612 L209.5927,262.752 C209.4379,263.4673 208.3979,263.9972 207.7282,263.702 L193.0193,258.9228 C192.3497,258.6276 191.3096,259.1575 191.1548,259.8728 L180.5683,292.4549 C180.2759,293.2139 180.6255,294.2897 181.3081,294.7319 L209.0241,314.8687 C209.5697,315.3564 210.7226,315.1738 211.0909,314.5414 L220.1815,302.0292 C220.5497,301.3968 221.7026,301.2142 222.2483,301.7019 L228.1099,305.9606 C228.7424,306.3288 228.925,307.4818 228.4373,308.0274 L219.3467,320.5395 C218.859,321.0852 219.0416,322.2381 219.674,322.6064 z" stroke="#000000" stroke-width="1" fill-opacity="0" />
  <path d="M105.6577,342.7432 C106.2892,343.2558 107.4204,343.2558 108.0519,342.7432 L135.7679,322.6064 C136.4003,322.2381 136.5829,321.0852 136.0952,320.5395 L127.0046,308.0274 C126.5169,307.4818 126.6995,306.3288 127.332,305.9606 L133.1936,301.7019 C133.7392,301.2142 134.8922,301.3968 135.2604,302.0292 L144.351,314.5414 C144.7193,315.1738 145.8722,315.3564 146.4178,314.8687 L174.1338,294.7319 C174.8164,294.2897 175.166,293.2139 174.8736,292.4549 L164.2871,259.8728 C164.1323,259.1575 163.0922,258.6276 162.4226,258.9228 L147.7137,263.702 C147.044,263.9972 146.004,263.4673 145.8492,262.752 L143.6102,255.8612 C143.315,255.1916 143.845,254.1515 144.5603,253.9967 L159.2691,249.2175 C159.9844,249.0627 160.5143,248.0227 160.2191,247.353 L149.6326,214.771 C149.423,213.9851 148.5079,213.3202 147.6957,213.3637 L113.4369,213.3637 C112.7087,213.2899 111.8834,214.1153 111.9572,214.8434 L111.9572,230.3092 C112.031,231.0373 111.2056,231.8627 110.4775,231.7889 L103.2321,231.7889 C102.504,231.8627 101.6786,231.0373 101.7524,230.3092 L101.7524,214.8434 C101.8263,214.1153 101.0009,213.2899 100.2728,213.3637 L66.01395,213.3637 C65.20175,213.3202 64.28662,213.9851 64.07702,214.771 L53.49046,247.353 C53.19527,248.0227 53.7252,249.0627 54.44048,249.2175 L69.14935,253.9967 C69.86463,254.1515 70.39457,255.1916 70.09937,255.8612 L67.86044,262.752 C67.70564,263.4673 66.66558,263.9972 65.99593,263.702 L51.28705,258.9228 C50.61739,258.6276 49.57733,259.1575 49.42253,259.8728 L38.83598,292.4549 C38.54362,293.2139 38.89317,294.2897 39.57582,294.7319 L67.29178,314.8687 C67.83744,315.3564 68.99036,315.1738 69.3586,314.5414 L78.4492,302.0292 C78.81744,301.3968 79.97036,301.2142 80.51602,301.7019 L86.37763,305.9606 C87.01007,306.3288 87.19267,307.4818 86.70499,308.0274 L77.6144,320.5395 C77.12672,321.0852 77.30932,322.2381 77.94176,322.6064 z" stroke="#000000" stroke-width="1" fill-opacity="0" />
  <path d="M1381.248,484.4755 C1381.88,484.9881 1383.011,484.9881 1383.642,484.4755 L1411.358,464.3387 C1411.991,463.9704 1412.173,462.8175 1411.686,462.2718 L1402.595,449.7597 C1402.107,449.214 1402.29,448.0611 1402.922,447.6929 L1408.784,443.4341 C1409.33,442.9465 1410.483,443.1291 1410.851,443.7615 L1419.942,456.2736 C1420.31,456.9061 1421.463,457.0887 1422.008,456.601 L1449.724,436.4642 C1450.407,436.022 1450.757,434.9462 1450.464,434.1872 L1439.878,401.6051 C1439.723,400.8898 1438.683,400.3599 1438.013,400.6551 L1423.304,405.4343 C1422.635,405.7295 1421.594,405.1996 1421.44,404.4843 L1419.201,397.5935 C1418.906,396.9239 1419.436,395.8838 1420.151,395.729 L1434.86,390.9498 C1435.575,390.795 1436.105,389.7549 1435.81,389.0853 L1425.223,356.5032 C1425.014,355.7173 1424.098,355.0525 1423.286,355.096 L1389.027,355.096 C1388.299,355.0222 1387.474,355.8476 1387.548,356.5757 L1387.548,372.0415 C1387.622,372.7696 1386.796,373.595 1386.068,373.5212 L1378.823,373.5212 C1378.095,373.595 1377.269,372.7696 1377.343,372.0415 L1377.343,356.5757 C1377.417,355.8476 1376.591,355.0222 1375.863,355.096 L1341.604,355.096 C1340.792,355.0525 1339.877,355.7173 1339.668,356.5032 L1329.081,389.0853 C1328.786,389.7549 1329.316,390.795 1330.031,390.9498 L1344.74,395.729 C1345.455,395.8838 1345.985,396.9239 1345.69,397.5935 L1343.451,404.4843 C1343.296,405.1996 1342.256,405.7295 1341.586,405.4343 L1326.878,400.6551 C1326.208,400.3599 1325.168,400.8898 1325.013,401.6051 L1314.427,434.1872 C1314.134,434.9462 1314.484,436.022 1315.166,436.4642 L1342.882,456.601 C1343.428,457.0887 1344.581,456.9061 1344.949,456.2736 L1354.04,443.7615 C1354.408,443.1291 1355.561,442.9465 1356.107,443.4341 L1361.968,447.6929 C1362.601,448.0611 1362.783,449.214 1362.296,449.7597 L1353.205,462.2718 C1352.717,462.8175 1352.9,463.9704 1353.532,464.3387 z" stroke="#000000" stroke-width="1" fill-opacity="0" />
  <path d="M1239.516,484.4755 C1240.147,484.9881 1241.279,484.9881 1241.91,484.4755 L1269.626,464.3387 C1270.259,463.9704 1270.441,462.8175 1269.953,462.2718 L1260.863,449.7597 C1260.375,449.214 1260.558,448.0611 1261.19,447.6929 L1267.052,443.4341 C1267.598,442.9465 1268.75,443.1291 1269.119,443.7615 L1278.209,456.2736 C1278.578,456.9061 1279.73,457.0887 1280.276,456.601 L1307.992,436.4642 C1308.675,436.022 1309.024,434.9462 1308.732,434.1872 L1298.145,401.6051 C1297.991,400.8898 1296.95,400.3599 1296.281,400.6551 L1281.572,405.4343 C1280.902,405.7295 1279.862,405.1996 1279.707,404.4843 L1277.469,397.5935 C1277.173,396.9239 1277.703,395.8838 1278.419,395.729 L1293.127,390.9498 C1293.843,390.795 1294.373,389.7549 1294.077,389.0853 L1283.491,356.5032 C1283.281,355.7173 1282.366,355.0525 1281.554,355.096 L1247.295,355.096 C1246.567,355.0222 1245.742,355.8476 1245.815,356.5757 L1245.815,372.0415 C1245.889,372.7696 1245.064,373.595 1244.336,373.5212 L1237.09,373.5212 C1236.362,373.595 1235.537,372.7696 1235.611,372.0415 L1235.611,356.5757 C1235.685,355.8476 1234.859,355.0222 1234.131,355.096 L1199.872,355.096 C1199.06,355.0525 1198.145,355.7173 1197.935,356.5032 L1187.349,389.0853 C1187.054,389.7549 1187.583,390.795 1188.299,390.9498 L1203.008,395.729 C1203.723,395.8838 1204.253,396.9239 1203.958,397.5935 L1201.719,404.4843 C1201.564,405.1996 1200.524,405.7295 1199.854,405.4343 L1185.145,400.6551 C1184.476,400.3599 1183.436,400.8898 1183.281,401.6051 L1172.694,434.1872 C1172.402,434.9462 1172.751,436.022 1173.434,436.4642 L1201.15,456.601 C1201.696,457.0887 1202.849,456.9061 1203.217,456.2736 L1212.307,443.7615 C1212.676,443.1291 1213.829,442.9465 1214.374,443.4341 L1220.236,447.6929 C1220.868,448.0611 1221.051,449.214 1220.563,449.7597 L1211.473,462.2718 C1210.985,462.8175 1211.168,463.9704 1211.8,464.3387 z" stroke="#000000" stroke-width="1" fill-opacity="0" />
  <path d="M1097.784,484.4755 C1098.415,484.9881 1099.546,484.9881 1100.178,484.4755 L1127.894,464.3387 C1128.526,463.9704 1128.709,462.8175 1128.221,462.2718 L1119.131,449.7597 C1118.643,449.214 1118.826,448.0611 1119.458,447.6929 L1125.32,443.4341 C1125.865,442.9465 1127.018,443.1291 1127.386,443.7615 L1136.477,456.2736 C1136.845,456.9061 1137.998,457.0887 1138.544,456.601 L1166.26,436.4642 C1166.942,436.022 1167.292,434.9462 1167,434.1872 L1156.413,401.6051 C1156.258,400.8898 1155.218,400.3599 1154.549,400.6551 L1139.84,405.4343 C1139.17,405.7295 1138.13,405.1996 1137.975,404.4843 L1135.736,397.5935 C1135.441,396.9239 1135.971,395.8838 1136.686,395.729 L1151.395,390.9498 C1152.11,390.795 1152.64,389.7549 1152.345,389.0853 L1141.759,356.5032 C1141.549,355.7173 1140.634,355.0525 1139.822,355.096 L1105.563,355.096 C1104.835,355.0222 1104.009,355.8476 1104.083,356.5757 L1104.083,372.0415 C1104.157,372.7696 1103.332,373.595 1102.604,373.5212 L1095.358,373.5212 C1094.63,373.595 1093.805,372.7696 1093.878,372.0415 L1093.878,356.5757 C1093.952,355.8476 1093.127,355.0222 1092.399,355.096 L1058.14,355.096 C1057.328,355.0525 1056.413,355.7173 1056.203,356.5032 L1045.616,389.0853 C1045.321,389.7549 1045.851,390.795 1046.566,390.9498 L1061.275,395.729 C1061.991,395.8838 1062.521,396.9239 1062.225,397.5935 L1059.986,404.4843 C1059.832,405.1996 1058.792,405.7295 1058.122,405.4343 L1043.413,400.6551 C1042.743,400.3599 1041.703,400.8898 1041.548,401.6051 L1030.962,434.1872 C1030.67,434.9462 1031.019,436.022 1031.702,436.4642 L1059.418,456.601 C1059.963,457.0887 1061.116,456.9061 1061.485,456.2736 L1070.575,443.7615 C1070.943,443.1291 1072.096,442.9465 1072.642,443.4341 L1078.504,447.6929 C1079.136,448.0611 1079.319,449.214 1078.831,449.7597 L1069.74,462.2718 C1069.253,462.8175 1069.435,463.9704 1070.068,464.3387 z" stroke="#000000" stroke-width="1" fill-opacity="0" />
  <path d="M956.0514,484.4755 C956.6829,484.9881 957.8141,484.9881 958.4456,484.4755 L986.1616,464.3387 C986.794,463.9704 986.9766,462.8175 986.4889,462.2718 L977.3983,449.7597 C976.9106,449.214 977.0933,448.0611 977.7256,447.6929 L983.5873,443.4341 C984.1329,442.9465 985.2859,443.1291 985.6541,443.7615 L994.7447,456.2736 C995.113,456.9061 996.2659,457.0887 996.8115,456.601 L1024.527,436.4642 C1025.21,436.022 1025.56,434.9462 1025.267,434.1872 L1014.681,401.6051 C1014.526,400.8898 1013.486,400.3599 1012.816,400.6551 L998.1074,405.4343 C997.4377,405.7295 996.3976,405.1996 996.2429,404.4843 L994.0039,397.5935 C993.7087,396.9239 994.2386,395.8838 994.954,395.729 L1009.663,390.9498 C1010.378,390.795 1010.908,389.7549 1010.613,389.0853 L1000.026,356.5032 C999.8167,355.7173 998.9016,355.0525 998.0894,355.096 L963.8306,355.096 C963.1024,355.0222 962.277,355.8476 962.3509,356.5757 L962.3509,372.0415 C962.4247,372.7696 961.5993,373.595 960.8712,373.5212 L953.6259,373.5212 C952.8977,373.595 952.0723,372.7696 952.1461,372.0415 L952.1461,356.5757 C952.22,355.8476 951.3946,355.0222 950.6664,355.096 L916.4077,355.096 C915.5955,355.0525 914.6803,355.7173 914.4707,356.5032 L903.8842,389.0853 C903.589,389.7549 904.1189,390.795 904.8342,390.9498 L919.543,395.729 C920.2584,395.8838 920.7883,396.9239 920.4931,397.5935 L918.2542,404.4843 C918.0994,405.1996 917.0593,405.7295 916.3896,405.4343 L901.6807,400.6551 C901.0111,400.3599 899.971,400.8898 899.8162,401.6051 L889.2297,434.1872 C888.9373,434.9462 889.2869,436.022 889.9695,436.4642 L917.6855,456.601 C918.2311,457.0887 919.384,456.9061 919.7523,456.2736 L928.8429,443.7615 C929.2111,443.1291 930.3641,442.9465 930.9097,443.4341 L936.7714,447.6929 C937.4037,448.0611 937.5864,449.214 937.0987,449.7597 L928.0081,462.2718 C927.5204,462.8175 927.703,463.9704 928.3354,464.3387 z" stroke="#000000" stroke-width="1" fill-opacity="0" />
  <path d="M814.3192,484.4755 C814.9506,484.9881 816.0818,484.9881 816.7133,484.4755 L844.4293,464.3387 C845.0617,463.9704 845.2443,462.8175 844.7566,462.2718 L835.666,449.7597 C835.1783,449.214 835.361,448.0611 835.9934,447.6929 L841.855,443.4341 C842.4007,442.9465 843.5536,443.1291 843.9218,443.7615 L853.0124,456.2736 C853.3807,456.9061 854.5336,457.0887 855.0792,456.601 L882.7952,436.4642 C883.4778,436.022 883.8274,434.9462 883.535,434.1872 L872.9485,401.6051 C872.7937,400.8898 871.7537,400.3599 871.084,400.6551 L856.3751,405.4343 C855.7054,405.7295 854.6654,405.1996 854.5106,404.4843 L852.2717,397.5935 C851.9764,396.9239 852.5064,395.8838 853.2217,395.729 L867.9305,390.9498 C868.6458,390.795 869.1758,389.7549 868.8806,389.0853 L858.294,356.5032 C858.0844,355.7173 857.1693,355.0525 856.3571,355.096 L822.0983,355.096 C821.3702,355.0222 820.5447,355.8476 820.6186,356.5757 L820.6186,372.0415 C820.6924,372.7696 819.867,373.595 819.1389,373.5212 L811.8936,373.5212 C811.1655,373.595 810.34,372.7696 810.4139,372.0415 L810.4139,356.5757 C810.4877,355.8476 809.6623,355.0222 808.9341,355.096 L774.6754,355.096 C773.8632,355.0525 772.9481,355.7173 772.7385,356.5032 L762.1519,389.0853 C761.8567,389.7549 762.3866,390.795 763.1019,390.9498 L777.8108,395.729 C778.5261,395.8838 779.056,396.9239 778.7608,397.5935 L776.5219,404.4843 C776.3671,405.1996 775.327,405.7295 774.6573,405.4343 L759.9485,400.6551 C759.2788,400.3599 758.2388,400.8898 758.0839,401.6051 L747.4974,434.1872 C747.205,434.9462 747.5546,436.022 748.2372,436.4642 L775.9532,456.601 C776.4988,457.0887 777.6518,456.9061 778.02,456.2736 L787.1106,443.7615 C787.4789,443.1291 788.6318,442.9465 789.1774,443.4341 L795.0391,447.6929 C795.6715,448.0611 795.8541,449.214 795.3664,449.7597 L786.2758,462.2718 C785.7881,462.8175 785.9708,463.9704 786.6031,464.3387 z" stroke="#000000" stroke-width="1" fill-opacity="0" />
  <path d="M672.5869,484.4755 C673.2184,484.9881 674.3495,484.9881 674.981,484.4755 L702.697,464.3387 C703.3294,463.9704 703.512,462.8175 703.0244,462.2718 L693.9338,449.7597 C693.446,449.214 693.6287,448.0611 694.2611,447.6929 L700.1227,443.4341 C700.6684,442.9465 701.8213,443.1291 702.1896,443.7615 L711.2802,456.2736 C711.6484,456.9061 712.8013,457.0887 713.347,456.601 L741.0629,436.4642 C741.7455,436.022 742.0951,434.9462 741.8027,434.1872 L731.2162,401.6051 C731.0614,400.8898 730.0214,400.3599 729.3517,400.6551 L714.6428,405.4343 C713.9731,405.7295 712.9331,405.1996 712.7783,404.4843 L710.5394,397.5935 C710.2441,396.9239 710.7741,395.8838 711.4894,395.729 L726.1982,390.9498 C726.9135,390.795 727.4435,389.7549 727.1483,389.0853 L716.5617,356.5032 C716.3521,355.7173 715.437,355.0525 714.6248,355.096 L680.366,355.096 C679.6379,355.0222 678.8125,355.8476 678.8863,356.5757 L678.8863,372.0415 C678.9601,372.7696 678.1347,373.595 677.4066,373.5212 L670.1613,373.5212 C669.4332,373.595 668.6078,372.7696 668.6816,372.0415 L668.6816,356.5757 C668.7554,355.8476 667.93,355.0222 667.2019,355.096 L632.9431,355.096 C632.1309,355.0525 631.2158,355.7173 631.0062,356.5032 L620.4196,389.0853 C620.1244,389.7549 620.6544,390.795 621.3696,390.9498 L636.0785,395.729 C636.7938,395.8838 637.3237,396.9239 637.0285,397.5935 L634.7896,404.4843 C634.6348,405.1996 633.5947,405.7295 632.925,405.4343 L618.2162,400.6551 C617.5465,400.3599 616.5065,400.8898 616.3517,401.6051 L605.7651,434.1872 C605.4728,434.9462 605.8223,436.022 606.5049,436.4642 L634.2209,456.601 C634.7666,457.0887 635.9195,456.9061 636.2877,456.2736 L645.3784,443.7615 C645.7466,443.1291 646.8995,442.9465 647.4451,443.4341 L653.3068,447.6929 C653.9392,448.0611 654.1218,449.214 653.6341,449.7597 L644.5435,462.2718 C644.0558,462.8175 644.2385,463.9704 644.8709,464.3387 z" stroke="#000000" stroke-width="1" fill-opacity="0" />
  <path d="M530.8546,484.4755 C531.4861,484.9881 532.6172,484.9881 533.2487,484.4755 L560.9647,464.3387 C561.5971,463.9704 561.7797,462.8175 561.2921,462.2718 L552.2015,449.7597 C551.7138,449.214 551.8964,448.0611 552.5288,447.6929 L558.3904,443.4341 C558.9361,442.9465 560.089,443.1291 560.4573,443.7615 L569.5479,456.2736 C569.9161,456.9061 571.069,457.0887 571.6147,456.601 L599.3306,436.4642 C600.0133,436.022 600.3629,434.9462 600.0705,434.1872 L589.4839,401.6051 C589.3291,400.8898 588.2891,400.3599 587.6194,400.6551 L572.9105,405.4343 C572.2408,405.7295 571.2008,405.1996 571.046,404.4843 L568.8071,397.5935 C568.5119,396.9239 569.0418,395.8838 569.7571,395.729 L584.466,390.9498 C585.1813,390.795 585.7112,389.7549 585.416,389.0853 L574.8295,356.5032 C574.6198,355.7173 573.7047,355.0525 572.8925,355.096 L538.6337,355.096 C537.9056,355.0222 537.0802,355.8476 537.154,356.5757 L537.154,372.0415 C537.2278,372.7696 536.4025,373.595 535.6743,373.5212 L528.429,373.5212 C527.7009,373.595 526.8755,372.7696 526.9493,372.0415 L526.9493,356.5757 C527.0231,355.8476 526.1977,355.0222 525.4696,355.096 L491.2108,355.096 C490.3986,355.0525 489.4835,355.7173 489.2739,356.5032 L478.6873,389.0853 C478.3921,389.7549 478.9221,390.795 479.6373,390.9498 L494.3462,395.729 C495.0615,395.8838 495.5914,396.9239 495.2962,397.5935 L493.0573,404.4843 C492.9025,405.1996 491.8624,405.7295 491.1928,405.4343 L476.4839,400.6551 C475.8142,400.3599 474.7742,400.8898 474.6194,401.6051 L464.0328,434.1872 C463.7405,434.9462 464.09,436.022 464.7727,436.4642 L492.4886,456.601 C493.0343,457.0887 494.1872,456.9061 494.5555,456.2736 L503.6461,443.7615 C504.0143,443.1291 505.1672,442.9465 505.7129,443.4341 L511.5745,447.6929 C512.2069,448.0611 512.3895,449.214 511.9018,449.7597 L502.8112,462.2718 C502.3236,462.8175 502.5062,463.9704 503.1386,464.3387 z" stroke="#000000" stroke-width="1" fill-opacity="0" />
  <path d="M389.1223,484.4755 C389.7538,484.9881 390.8849,484.9881 391.5164,484.4755 L419.2324,464.3387 C419.8649,463.9704 420.0475,462.8175 419.5598,462.2718 L410.4692,449.7597 C409.9815,449.214 410.1641,448.0611 410.7965,447.6929 L416.6581,443.4341 C417.2038,442.9465 418.3567,443.1291 418.725,443.7615 L427.8156,456.2736 C428.1838,456.9061 429.3367,457.0887 429.8824,456.601 L457.5984,436.4642 C458.281,436.022 458.6306,434.9462 458.3382,434.1872 L447.7516,401.6051 C447.5968,400.8898 446.5568,400.3599 445.8871,400.6551 L431.1783,405.4343 C430.5086,405.7295 429.4685,405.1996 429.3138,404.4843 L427.0748,397.5935 C426.7796,396.9239 427.3095,395.8838 428.0248,395.729 L442.7337,390.9498 C443.449,390.795 443.9789,389.7549 443.6837,389.0853 L433.0972,356.5032 C432.8875,355.7173 431.9724,355.0525 431.1602,355.096 L396.9014,355.096 C396.1733,355.0222 395.3479,355.8476 395.4217,356.5757 L395.4217,372.0415 C395.4955,372.7696 394.6702,373.595 393.942,373.5212 L386.6967,373.5212 C385.9686,373.595 385.1432,372.7696 385.217,372.0415 L385.217,356.5757 C385.2908,355.8476 384.4654,355.0222 383.7373,355.096 L349.4785,355.096 C348.6663,355.0525 347.7512,355.7173 347.5416,356.5032 L336.955,389.0853 C336.6598,389.7549 337.1898,390.795 337.9051,390.9498 L352.6139,395.729 C353.3292,395.8838 353.8591,396.9239 353.5639,397.5935 L351.325,404.4843 C351.1702,405.1996 350.1302,405.7295 349.4605,405.4343 L334.7516,400.6551 C334.0819,400.3599 333.0419,400.8898 332.8871,401.6051 L322.3005,434.1872 C322.0082,434.9462 322.3577,436.022 323.0404,436.4642 L350.7563,456.601 C351.302,457.0887 352.4549,456.9061 352.8232,456.2736 L361.9138,443.7615 C362.282,443.1291 363.4349,442.9465 363.9806,443.4341 L369.8422,447.6929 C370.4746,448.0611 370.6573,449.214 370.1696,449.7597 L361.079,462.2718 C360.5913,462.8175 360.7739,463.9704 361.4063,464.3387 z" stroke="#000000" stroke-width="1" fill-opacity="0" />
  <path d="M247.39,484.4755 C248.0215,484.9881 249.1527,484.9881 249.7842,484.4755 L277.5001,464.3387 C278.1326,463.9704 278.3152,462.8175 277.8275,462.2718 L268.7369,449.7597 C268.2492,449.214 268.4318,448.0611 269.0643,447.6929 L274.9259,443.4341 C275.4715,442.9465 276.6245,443.1291 276.9927,443.7615 L286.0833,456.2736 C286.4515,456.9061 287.6045,457.0887 288.1501,456.601 L315.8661,436.4642 C316.5487,436.022 316.8983,434.9462 316.6059,434.1872 L306.0193,401.6051 C305.8646,400.8898 304.8245,400.3599 304.1548,400.6551 L289.446,405.4343 C288.7763,405.7295 287.7362,405.1996 287.5815,404.4843 L285.3425,397.5935 C285.0473,396.9239 285.5772,395.8838 286.2925,395.729 L301.0014,390.9498 C301.7167,390.795 302.2466,389.7549 301.9514,389.0853 L291.3649,356.5032 C291.1553,355.7173 290.2401,355.0525 289.4279,355.096 L255.1691,355.096 C254.441,355.0222 253.6156,355.8476 253.6895,356.5757 L253.6895,372.0415 C253.7633,372.7696 252.9379,373.595 252.2098,373.5212 L244.9644,373.5212 C244.2363,373.595 243.4109,372.7696 243.4847,372.0415 L243.4847,356.5757 C243.5585,355.8476 242.7331,355.0222 242.005,355.096 L207.7462,355.096 C206.934,355.0525 206.0189,355.7173 205.8093,356.5032 L195.2227,389.0853 C194.9276,389.7549 195.4575,390.795 196.1728,390.9498 L210.8816,395.729 C211.5969,395.8838 212.1269,396.9239 211.8316,397.5935 L209.5927,404.4843 C209.4379,405.1996 208.3979,405.7295 207.7282,405.4343 L193.0193,400.6551 C192.3497,400.3599 191.3096,400.8898 191.1548,401.6051 L180.5683,434.1872 C180.2759,434.9462 180.6255,436.022 181.3081,436.4642 L209.0241,456.601 C209.5697,457.0887 210.7226,456.9061 211.0909,456.2736 L220.1815,443.7615 C220.5497,443.1291 221.7026,442.9465 222.2483,443.4341 L228.1099,447.6929 C228.7424,448.0611 228.925,449.214 228.4373,449.7597 L219.3467,462.2718 C218.859,462.8175 219.0416,463.9704 219.674,464.3387 z" stroke="#000000" stroke-width="1" fill-opacity="0" />
  <path d="M105.6577,484.4755 C106.2892,484.9881 107.4204,484.9881 108.0519,484.4755 L135.7679,464.3387 C136.4003,463.9704 136.5829,462.8175 136.0952,462.2718 L127.0046,449.7597 C126.5169,449.214 126.6995,448.0611 127.332,447.6929 L133.1936,443.4341 C133.7392,442.9465 134.8922,443.1291 135.2604,443.7615 L144.351,456.2736 C144.7193,456.9061 145.8722,457.0887 146.4178,456.601 L174.1338,436.4642 C174.8164,436.022 175.166,434.9462 174.8736,434.1872 L164.2871,401.6051 C164.1323,400.8898 163.0922,400.3599 162.4226,400.6551 L147.7137,405.4343 C147.044,405.7295 146.004,405.1996 145.8492,404.4843 L143.6102,397.5935 C143.315,396.9239 143.845,395.8838 144.5603,395.729 L159.2691,390.9498 C159.9844,390.795 160.5143,389.7549 160.2191,389.0853 L149.6326,356.5032 C149.423,355.7173 148.5079,355.0525 147.6957,355.096 L113.4369,355.096 C112.7087,355.0222 111.8834,355.8476 111.9572,356.5757 L111.9572,372.0415 C112.031,372.7696 111.2056,373.595 110.4775,373.5212 L103.2321,373.5212 C102.504,373.595 101.6786,372.7696 101.7524,372.0415 L101.7524,356.5757 C101.8263,355.8476 101.0009,355.0222 100.2728,355.096 L66.01395,355.096 C65.20175,355.0525 64.28662,355.7173 64.07702,356.5032 L53.49046,389.0853 C53.19527,389.7549 53.7252,390.795 54.44048,390.9498 L69.14935,395.729 C69.86463,395.8838 70.39457,396.9239 70.09937,397.5935 L67.86044,404.4843 C67.70564,405.1996 66.66558,405.7295 65.99593,405.4343 L51.28705,400.6551 C50.61739,400.3599 49.57733,400.8898 49.42253,401.6051 L38.83598,434.1872 C38.54362,434.9462 38.89317,436.022 39.57582,436.4642 L67.29178,456.601 C67.83744,457.0887 68.99036,456.9061 69.3586,456.2736 L78.4492,443.7615 C78.81744,443.1291 79.97036,442.9465 80.51602,443.4341 L86.37763,447.6929 C87.01007,448.0611 87.19267,449.214 86.70499,449.7597 L77.6144,462.2718 C77.12672,462.8175 77.30932,463.9704 77.94176,464.3387 z" stroke="#000000" stroke-width="1" fill-opacity="0" />
  <path d="M1440,1440 L1723.465,1440 L1723.465,1156.536 L1440,1156.536 L1440,1440 L1723.465,1440 L1723.465,1156.536 L1440,1156.536 z" stroke="#000000" stroke-width="1" fill-opacity="0" />
</svg>