  0
SECTION
  2
HEADER
  9
$ACADVER
  1
AC1014
  9
$HANDSEED
  5
FFFF
  9
$MEASUREMENT
 70
     1
  0
ENDSEC
  0
SECTION
  2
TABLES
  0
TABLE
  2
VPORT
  5
8
330
0
100
AcDbSymbolTable
 70
     4
  0
VPORT
  5
2E
330
8
100
AcDbSymbolTableRecord
100
AcDbViewportTableRecord
  2
*ACTIVE
 70
     0
 10
0.0
 20
0.0
 11
1.0
 21
1.0
 12
210.0
 22
148.5
 13
0.0
 23
0.0
 14
10.0
 24
10.0
 15
10.0
 25
10.0
 16
0.0
 26
0.0
 36
1.0
 17
0.0
 27
0.0
 37
0.0
 40
341.0
 41
1.24
 42
50.0
 43
0.0
 44
0.0
 50
0.0
 51
0.0
 71
     0
 72
   100
 73
     1
 74
     3
 75
     0
 76
     0
 77
     0
 78
     0
  0
ENDTAB
  0
TABLE
  2
LTYPE
  5
5
330
0
100
AcDbSymbolTable
 70
     1
  0
LTYPE
  5
14
330
5
100
AcDbSymbolTableRecord
100
AcDbLinetypeTableRecord
  2
BYBLOCK
 70
     0
  3

 72
    65
 73
     0
 40
0.0
  0
LTYPE
  5
15
330
5
100
AcDbSymbolTableRecord
100
AcDbLinetypeTableRecord
  2
BYLAYER
 70
     0
  3

 72
    65
 73
     0
 40
0.0
  0
LTYPE
  5
16
330
5
100
AcDbSymbolTableRecord
100
AcDbLinetypeTableRecord
  2
CONTINUOUS
 70
     0
  3
Solid line
 72
    65
 73
     0
 40
0.0
  0
ENDTAB
  0
TABLE
  2
LAYER
  5
2
100
AcDbSymbolTable
 70
3
  0
LAYER
  5
50
100
AcDbSymbolTableRecord
100
AcDbLayerTableRecord
  2
0
 70
0
  6
CONTINUOUS
  0
LAYER
  5
51
100
AcDbSymbolTableRecord
100
AcDbLayerTableRecord
  2
SECTION_JOG_LINES
 70
0
  6
CONTINUOUS
  0
LAYER
  5
52
100
AcDbSymbolTableRecord
100
AcDbLayerTableRecord
  2
Holes
 70
0
  6
CONTINUOUS
  0
ENDTAB
  0
TABLE
  2
STYLE
  5
3
330
0
100
AcDbSymbolTable
 70
     1
  0
STYLE
  5
11
330
3
100
AcDbSymbolTableRecord
100
AcDbTextStyleTableRecord
  2
STANDARD
 70
     0
 40
0.0
 41
1.0
 50
0.0
 71
     0
 42
2.5
  3
txt
  4

  0
ENDTAB
  0
TABLE
  2
VIEW
  5
6
330
0
100
AcDbSymbolTable
 70
     0
  0
ENDTAB
  0
TABLE
  2
UCS
  5
7
330
0
100
AcDbSymbolTable
 70
     0
  0
ENDTAB
  0
TABLE
  2
APPID
  5
9
330
0
100
AcDbSymbolTable
 70
     2
  0
APPID
  5
12
330
9
100
AcDbSymbolTableRecord
100
AcDbRegAppTableRecord
  2
ACAD
 70
     0
  0
ENDTAB
  0
TABLE
  2
DIMSTYLE
  5
A
330
0
100
AcDbSymbolTable
 70
     1
  0
DIMSTYLE
105
27
330
A
100
AcDbSymbolTableRecord
100
AcDbDimStyleTableRecord
  2
ISO-25
 70
     0
  3

  4

  5

  6

  7

 40
1.0
 41
2.5
 42
0.625
 43
3.75
 44
1.25
 45
0.0
 46
0.0
 47
0.0
 48
0.0
140
2.5
141
2.5
142
0.0
143
0.03937007874016
144
1.0
145
0.0
146
1.0
147
0.625
 71
     0
 72
     0
 73
     0
 74
     0
 75
     0
 76
     0
 77
     1
 78
     8
170
     0
171
     3
172
     1
173
     0
174
     0
175
     0
176
     0
177
     0
178
     0
270
     2
271
     2
272
     2
273
     2
274
     3
340
11
275
     0
280
     0
281
     0
282
     0
283
     0
284
     8
285
     0
286
     0
287
     3
288
     0
  0
ENDTAB
  0
TABLE
  2
BLOCK_RECORD
  5
1
330
0
100
AcDbSymbolTable
 70
     1
  0
BLOCK_RECORD
  5
1F
330
1
100
AcDbSymbolTableRecord
100
AcDbBlockTableRecord
  2
*MODEL_SPACE
  0
BLOCK_RECORD
  5
1B
330
1
100
AcDbSymbolTableRecord
100
AcDbBlockTableRecord
  2
*PAPER_SPACE
  0
ENDTAB
  0
ENDSEC
  0
SECTION
  2
BLOCKS
  0
BLOCK
  5
20
330
1F
100
AcDbEntity
  8
0
100
AcDbBlockBegin
  2
*MODEL_SPACE
 70
     0
 10
0.0
 20
0.0
 30
0.0
  3
*MODEL_SPACE
  1

  0
ENDBLK
  5
21
330
1F
100
AcDbEntity
  8
0
100
AcDbBlockEnd
  0
BLOCK
  5
1C
330
1B
100
AcDbEntity
 67
     1
  8
0
100
AcDbBlockBegin
  2
*PAPER_SPACE
  1

  0
ENDBLK
  5
1D
330
1B
100
AcDbEntity
 67
     1
  8
0
100
AcDbBlockEnd
  0
ENDSEC
  0
SECTION
  2
ENTITIES
  0
LWPOLYLINE
  5
100
100
AcDbEntity
  8
SECTION_JOG_LINES
 62
7
100
AcDbPolyline
 90
2
 70
0
 10
35.513100
 20
480.464654
 30
0.0
 10
35.513100
 20
392.464660
 30
0.0
  0
LWPOLYLINE
  5
101
100
AcDbEntity
  8
SECTION_JOG_LINES
 62
7
100
AcDbPolyline
 90
2
 70
0
 10
23.213102
 20
480.464654
 30
0.0
 10
35.513100
 20
480.464654
 30
0.0
  0
LWPOLYLINE
  5
102
100
AcDbEntity
  8
SECTION_JOG_LINES
 62
7
100
AcDbPolyline
 90
3
 70
0
 10
23.213102
 20
480.464654
 30
0.0
 10
23.213102
 20
392.464660
 30
0.0
 10
35.513100
 20
392.464660
 30
0.0
  0
LWPOLYLINE
  5
103
100
AcDbEntity
  8
SECTION_JOG_LINES
 62
7
100
AcDbPolyline
 90
4
 70
1
 10
21.461065
 20
482.674475
 30
0.0
 10
186.461071
 20
482.674475
 30
0.0
 10
186.461071
 20
362.674477
 30
0.0
 10
21.461065
 20
362.674477
 30
0.0
  0
LWPOLYLINE
  5
104
100
AcDbEntity
  8
SECTION_JOG_LINES
 62
7
100
AcDbPolyline
 90
2
 70
0
 10
49.841354
 20
480.392555
 30
0.0
 10
49.841354
 20
392.392561
 30
0.0
  0
LWPOLYLINE
  5
105
100
AcDbEntity
  8
SECTION_JOG_LINES
 62
7
100
AcDbPolyline
 90
2
 70
0
 10
37.541353
 20
480.392555
 30
0.0
 10
49.841354
 20
480.392555
 30
0.0
  0
LWPOLYLINE
  5
106
100
AcDbEntity
  8
SECTION_JOG_LINES
 62
7
100
AcDbPolyline
 90
3
 70
0
 10
37.541353
 20
480.392555
 30
0.0
 10
37.541353
 20
392.392561
 30
0.0
 10
49.841354
 20
392.392561
 30
0.0
  0
LWPOLYLINE
  5
107
100
AcDbEntity
  8
SECTION_JOG_LINES
 62
7
100
AcDbPolyline
 90
2
 70
0
 10
53.440796
 20
454.313290
 30
0.0
 10
130.440792
 20
454.313290
 30
0.0
  0
LWPOLYLINE
  5
108
100
AcDbEntity
  8
SECTION_JOG_LINES
 62
7
100
AcDbPolyline
 90
2
 70
0
 10
130.440792
 20
480.113287
 30
0.0
 10
130.440792
 20
454.313290
 30
0.0
  0
LWPOLYLINE
  5
109
100
AcDbEntity
  8
SECTION_JOG_LINES
 62
7
100
AcDbPolyline
 90
2
 70
0
 10
53.440796
 20
480.113287
 30
0.0
 10
130.440792
 20
480.113287
 30
0.0
  0
SPLINE
  5
10a
100
AcDbEntity
  8
SECTION_JOG_LINES
 62
7
100
AcDbSpline
 70
8
 71
3
 72
8
 73
4
 74
0
 40
0
 40
0
 40
0
 40
0
 40
1
 40
1
 40
1
 40
1
 10
60.471079
 20
445.099731
 30
0.0
 10
60.382211
 20
445.211782
 30
0.0
 10
60.293343
 20
445.323833
 30
0.0
 10
60.197378
 20
445.419798
 30
0.0
  0
SPLINE
  5
10b
100
AcDbEntity
  8
SECTION_JOG_LINES
 62
7
100
AcDbSpline
 70
8
 71
3
 72
8
 73
4
 74
0
 40
0
 40
0
 40
0
 40
0
 40
1
 40
1
 40
1
 40
1
 10
60.197378
 20
445.419798
 30
0.0
 10
60.100387
 20
445.516820
 30
0.0
 10
59.996149
 20
445.597412
 30
0.0
 10
59.861056
 20
445.688006
 30
0.0
  0
SPLINE
  5
10c
100
AcDbEntity
  8
SECTION_JOG_LINES
 62
7
100
AcDbSpline
 70
8
 71
3
 72
8
 73
4
 74
0
 40
0
 40
0
 40
0
 40
0
 40
1
 40
1
 40
1
 40
1
 10
59.861056
 20
445.688006
 30
0.0
 10
59.677128
 20
445.811407
 30
0.0
 10
59.436003
 20
445.953356
 30
0.0
 10
59.163352
 20
446.074086
 30
0.0
  0
SPLINE
  5
10d
100
AcDbEntity
  8
SECTION_JOG_LINES
 62
7
100
AcDbSpline
 70
8
 71
3
 72
8
 73
4
 74
0
 40
0
 40
0
 40
0
 40
0
 40
1
 40
1
 40
1
 40
1
 10
59.163352
 20
446.074086
 30
0.0
 10
58.840031
 20
446.217225
 30
0.0
 10
58.472377
 20
446.330520
 30
0.0
 10
58.104723
 20
446.443788
 30
0.0
  0
SPLINE
  5
10e
100
AcDbEntity
  8
SECTION_JOG_LINES
 62
7
100
AcDbSpline
 70
8
 71
3
 72
8
 73
4
 74
0
 40
0
 40
0
 40
0
 40
0
 40
1
 40
1
 40
1
 40
1
 10
68.259169
 20
424.442520
 30
0.0
 10
68.265201
 20
424.299645
 30
0.0
 10
68.271234
 20
424.156743
 30
0.0
 10
68.292469
 20
424.022705
 30
0.0
  0
SPLINE
  5
10f
100
AcDbEntity
  8
SECTION_JOG_LINES
 62
7
100
AcDbSpline
 70
8
 71
3
 72
8
 73
4
 74
0
 40
0
 40
0
 40
0
 40
0
 40
1
 40
1
 40
1
 40
1
 10
68.292469
 20
424.022705
 30
0.0
 10
68.313927
 20
423.887212
 30
0.0
 10
68.350879
 20
423.760741
 30
0.0
 10
68.406907
 20
423.608024
 30
0.0
  0
SPLINE
  5
110
100
AcDbEntity
  8
SECTION_JOG_LINES
 62
7
100
AcDbSpline
 70
8
 71
3
 72
8
 73
4
 74
0
 40
0
 40
0
 40
0
 40
0
 40
1
 40
1
 40
1
 40
1
 10
68.406907
 20
423.608024
 30
0.0
 10
68.483189
 20
423.400114
 30
0.0
 10
68.594819
 20
423.143521
 30
0.0
 10
68.744441
 20
422.885605
 30
0.0
  0
SPLINE
  5
111
100
AcDbEntity
  8
SECTION_JOG_LINES
 62
7
100
AcDbSpline
 70
8
 71
3
 72
8
 73
4
 74
0
 40
0
 40
0
 40
0
 40
0
 40
1
 40
1
 40
1
 40
1
 10
68.744441
 20
422.885605
 30
0.0
 10
68.921868
 20
422.579747
 30
0.0
 10
69.152722
 20
422.271984
 30
0.0
 10
69.383577
 20
421.964247
 30
0.0
  0
SPLINE
  5
112
100
AcDbEntity
  8
SECTION_JOG_LINES
 62
7
100
AcDbSpline
 70
8
 71
3
 72
8
 73
4
 74
0
 40
0
 40
0
 40
0
 40
0
 40
1
 40
1
 40
1
 40
1
 10
64.650133
 20
424.843681
 30
0.0
 10
64.611724
 20
424.705939
 30
0.0
 10
64.573314
 20
424.568170
 30
0.0
 10
64.552073
 20
424.434132
 30
0.0
  0
SPLINE
  5
113
100
AcDbEntity
  8
SECTION_JOG_LINES
 62
7
100
AcDbSpline
 70
8
 71
3
 72
8
 73
4
 74
0
 40
0
 40
0
 40
0
 40
0
 40
1
 40
1
 40
1
 40
1
 10
64.552073
 20
424.434132
 30
0.0
 10
64.530616
 20
424.298639
 30
0.0
 10
64.526673
 20
424.166956
 30
0.0
 10
64.532759
 20
424.004396
 30
0.0
  0
SPLINE
  5
114
100
AcDbEntity
  8
SECTION_JOG_LINES
 62
7
100
AcDbSpline
 70
8
 71
3
 72
8
 73
4
 74
0
 40
0
 40
0
 40
0
 40
0
 40
1
 40
1
 40
1
 40
1
 10
64.532759
 20
424.004396
 30
0.0
 10
64.541067
 20
423.783072
 30
0.0
 10
64.567935
 20
423.504545
 30
0.0
 10
64.630530
 20
423.213001
 30
0.0
  0
SPLINE
  5
115
100
AcDbEntity
  8
SECTION_JOG_LINES
 62
7
100
AcDbSpline
 70
8
 71
3
 72
8
 73
4
 74
0
 40
0
 40
0
 40
0
 40
0
 40
1
 40
1
 40
1
 40
1
 10
64.630530
 20
423.213001
 30
0.0
 10
64.704759
 20
422.867296
 30
0.0
 10
64.829214
 20
422.503283
 30
0.0
 10
64.953668
 20
422.139242
 30
0.0
  0
SPLINE
  5
116
100
AcDbEntity
  8
SECTION_JOG_LINES
 62
7
100
AcDbSpline
 70
8
 71
3
 72
8
 73
4
 74
0
 40
0
 40
0
 40
0
 40
0
 40
1
 40
1
 40
1
 40
1
 10
63.626653
 20
425.176236
 30
0.0
 10
63.576758
 20
425.042224
 30
0.0
 10
63.526860
 20
424.908186
 30
0.0
 10
63.465252
 20
424.787245
 30
0.0
  0
SPLINE
  5
117
100
AcDbEntity
  8
SECTION_JOG_LINES
 62
7
100
AcDbSpline
 70
8
 71
3
 72
8
 73
4
 74
0
 40
0
 40
0
 40
0
 40
0
 40
1
 40
1
 40
1
 40
1
 10
63.465252
 20
424.787245
 30
0.0
 10
63.402985
 20
424.665034
 30
0.0
 10
63.328754
 20
424.556158
 30
0.0
 10
63.228276
 20
424.428232
 30
0.0
  0
SPLINE
  5
118
100
AcDbEntity
  8
SECTION_JOG_LINES
 62
7
100
AcDbSpline
 70
8
 71
3
 72
8
 73
4
 74
0
 40
0
 40
0
 40
0
 40
0
 40
1
 40
1
 40
1
 40
1
 10
63.228276
 20
424.428232
 30
0.0
 10
63.091475
 20
424.254057
 30
0.0
 10
62.906018
 20
424.044533
 30
0.0
 10
62.684017
 20
423.845461
 30
0.0
  0
SPLINE
  5
119
100
AcDbEntity
  8
SECTION_JOG_LINES
 62
7
100
AcDbSpline
 70
8
 71
3
 72
8
 73
4
 74
0
 40
0
 40
0
 40
0
 40
0
 40
1
 40
1
 40
1
 40
1
 10
62.684017
 20
423.845461
 30
0.0
 10
62.420757
 20
423.609400
 30
0.0
 10
62.106104
 20
423.388076
 30
0.0
 10
61.791450
 20
423.166725
 30
0.0
  0
SPLINE
  5
11a
100
AcDbEntity
  8
SECTION_JOG_LINES
 62
7
100
AcDbSpline
 70
8
 71
3
 72
8
 73
4
 74
0
 40
0
 40
0
 40
0
 40
0
 40
1
 40
1
 40
1
 40
1
 10
60.471079
 20
426.973021
 30
0.0
 10
60.382211
 20
426.860970
 30
0.0
 10
60.293343
 20
426.748945
 30
0.0
 10
60.197378
 20
426.652955
 30
0.0
  0
SPLINE
  5
11b
100
AcDbEntity
  8
SECTION_JOG_LINES
 62
7
100
AcDbSpline
 70
8
 71
3
 72
8
 73
4
 74
0
 40
0
 40
0
 40
0
 40
0
 40
1
 40
1
 40
1
 40
1
 10
60.197378
 20
426.652955
 30
0.0
 10
60.100387
 20
426.555958
 30
0.0
 10
59.996149
 20
426.475366
 30
0.0
 10
59.861056
 20
426.384746
 30
0.0
  0
SPLINE
  5
11c
100
AcDbEntity
  8
SECTION_JOG_LINES
 62
7
100
AcDbSpline
 70
8
 71
3
 72
8
 73
4
 74
0
 40
0
 40
0
 40
0
 40
0
 40
1
 40
1
 40
1
 40
1
 10
59.861056
 20
426.384746
 30
0.0
 10
59.677128
 20
426.261371
 30
0.0
 10
59.436003
 20
426.119396
 30
0.0
 10
59.163352
 20
425.998693
 30
0.0
  0
SPLINE
  5
11d
100
AcDbEntity
  8
SECTION_JOG_LINES
 62
7
100
AcDbSpline
 70
8
 71
3
 72
8
 73
4
 74
0
 40
0
 40
0
 40
0
 40
0
 40
1
 40
1
 40
1
 40
1
 10
59.163352
 20
425.998693
 30
0.0
 10
58.840031
 20
425.855527
 30
0.0
 10
58.472377
 20
425.742232
 30
0.0
 10
58.104723
 20
425.628964
 30
0.0
  0
SPLINE
  5
11e
100
AcDbEntity
  8
SECTION_JOG_LINES
 62
7
100
AcDbSpline
 70
8
 71
3
 72
8
 73
4
 74
0
 40
0
 40
0
 40
0
 40
0
 40
1
 40
1
 40
1
 40
1
 10
74.971108
 20
445.099731
 30
0.0
 10
75.059977
 20
445.211782
 30
0.0
 10
75.148847
 20
445.323833
 30
0.0
 10
75.244812
 20
445.419798
 30
0.0
  0
SPLINE
  5
11f
100
AcDbEntity
  8
SECTION_JOG_LINES
 62
7
100
AcDbSpline
 70
8
 71
3
 72
8
 73
4
 74
0
 40
0
 40
0
 40
0
 40
0
 40
1
 40
1
 40
1
 40
1
 10
75.244812
 20
445.419798
 30
0.0
 10
75.341800
 20
445.516820
 30
0.0
 10
75.446038
 20
445.597412
 30
0.0
 10
75.581132
 20
445.688006
 30
0.0
  0
SPLINE
  5
120
100
AcDbEntity
  8
SECTION_JOG_LINES
 62
7
100
AcDbSpline
 70
8
 71
3
 72
8
 73
4
 74
0
 40
0
 40
0
 40
0
 40
0
 40
1
 40
1
 40
1
 40
1
 10
75.581132
 20
445.688006
 30
0.0
 10
75.765059
 20
445.811407
 30
0.0
 10
76.006185
 20
445.953356
 30
0.0
 10
76.278835
 20
446.074086
 30
0.0
  0
SPLINE
  5
121
100
AcDbEntity
  8
SECTION_JOG_LINES
 62
7
100
AcDbSpline
 70
8
 71
3
 72
8
 73
4
 74
0
 40
0
 40
0
 40
0
 40
0
 40
1
 40
1
 40
1
 40
1
 10
76.278835
 20
446.074086
 30
0.0
 10
76.602159
 20
446.217225
 30
0.0
 10
76.969811
 20
446.330520
 30
0.0
 10
77.337465
 20
446.443788
 30
0.0
  0
SPLINE
  5
122
100
AcDbEntity
  8
SECTION_JOG_LINES
 62
7
100
AcDbSpline
 70
8
 71
3
 72
8
 73
4
 74
0
 40
0
 40
0
 40
0
 40
0
 40
1
 40
1
 40
1
 40
1
 10
74.100484
 20
426.340482
 30
0.0
 10
74.179583
 20
426.221340
 30
0.0
 10
74.258681
 20
426.102198
 30
0.0
 10
74.320305
 20
425.981257
 30
0.0
  0
SPLINE
  5
123
100
AcDbEntity
  8
SECTION_JOG_LINES
 62
7
100
AcDbSpline
 70
8
 71
3
 72
8
 73
4
 74
0
 40
0
 40
0
 40
0
 40
0
 40
1
 40
1
 40
1
 40
1
 10
74.320305
 20
425.981257
 30
0.0
 10
74.382588
 20
425.859046
 30
0.0
 10
74.427024
 20
425.735009
 30
0.0
 10
74.471464
 20
425.578508
 30
0.0
  0
SPLINE
  5
124
100
AcDbEntity
  8
SECTION_JOG_LINES
 62
7
100
AcDbSpline
 70
8
 71
3
 72
8
 73
4
 74
0
 40
0
 40
0
 40
0
 40
0
 40
1
 40
1
 40
1
 40
1
 10
74.471464
 20
425.578508
 30
0.0
 10
74.531963
 20
425.365466
 30
0.0
 10
74.592468
 20
425.092283
 30
0.0
 10
74.623025
 20
424.795659
 30
0.0
  0
SPLINE
  5
125
100
AcDbEntity
  8
SECTION_JOG_LINES
 62
7
100
AcDbSpline
 70
8
 71
3
 72
8
 73
4
 74
0
 40
0
 40
0
 40
0
 40
0
 40
1
 40
1
 40
1
 40
1
 10
74.623025
 20
424.795659
 30
0.0
 10
74.659262
 20
424.443922
 30
0.0
 10
74.653389
 20
424.059271
 30
0.0
 10
74.647526
 20
423.674593
 30
0.0
  0
SPLINE
  5
126
100
AcDbEntity
  8
SECTION_JOG_LINES
 62
7
100
AcDbSpline
 70
8
 71
3
 72
8
 73
4
 74
0
 40
0
 40
0
 40
0
 40
0
 40
1
 40
1
 40
1
 40
1
 10
58.657733
 20
428.786369
 30
0.0
 10
58.545690
 20
428.697496
 30
0.0
 10
58.433647
 20
428.608622
 30
0.0
 10
58.337670
 20
428.512658
 30
0.0
  0
SPLINE
  5
127
100
AcDbEntity
  8
SECTION_JOG_LINES
 62
7
100
AcDbSpline
 70
8
 71
3
 72
8
 73
4
 74
0
 40
0
 40
0
 40
0
 40
0
 40
1
 40
1
 40
1
 40
1
 10
58.337670
 20
428.512658
 30
0.0
 10
58.240665
 20
428.415662
 30
0.0
 10
58.160073
 20
428.311442
 30
0.0
 10
58.069456
 20
428.176346
 30
0.0
  0
SPLINE
  5
128
100
AcDbEntity
  8
SECTION_JOG_LINES
 62
7
100
AcDbSpline
 70
8
 71
3
 72
8
 73
4
 74
0
 40
0
 40
0
 40
0
 40
0
 40
1
 40
1
 40
1
 40
1
 10
58.069456
 20
428.176346
 30
0.0
 10
57.946078
 20
427.992408
 30
0.0
 10
57.804113
 20
427.751293
 30
0.0
 10
57.683395
 20
427.478640
 30
0.0
  0
SPLINE
  5
129
100
AcDbEntity
  8
SECTION_JOG_LINES
 62
7
100
AcDbSpline
 70
8
 71
3
 72
8
 73
4
 74
0
 40
0
 40
0
 40
0
 40
0
 40
1
 40
1
 40
1
 40
1
 10
57.683395
 20
427.478640
 30
0.0
 10
57.540239
 20
427.155319
 30
0.0
 10
57.426958
 20
426.787654
 30
0.0
 10
57.313677
 20
426.420015
 30
0.0
  0
SPLINE
  5
12a
100
AcDbEntity
  8
SECTION_JOG_LINES
 62
7
100
AcDbSpline
 70
8
 71
3
 72
8
 73
4
 74
0
 40
0
 40
0
 40
0
 40
0
 40
1
 40
1
 40
1
 40
1
 10
56.127229
 20
436.574459
 30
0.0
 10
55.984349
 20
436.580545
 30
0.0
 10
55.841469
 20
436.586630
 30
0.0
 10
55.707415
 20
436.607744
 30
0.0
  0
SPLINE
  5
12b
100
AcDbEntity
  8
SECTION_JOG_LINES
 62
7
100
AcDbSpline
 70
8
 71
3
 72
8
 73
4
 74
0
 40
0
 40
0
 40
0
 40
0
 40
1
 40
1
 40
1
 40
1
 10
55.707415
 20
436.607744
 30
0.0
 10
55.571927
 20
436.629175
 30
0.0
 10
55.445459
 20
436.666164
 30
0.0
 10
55.292741
 20
436.722203
 30
0.0
  0
SPLINE
  5
12c
100
AcDbEntity
  8
SECTION_JOG_LINES
 62
7
100
AcDbSpline
 70
8
 71
3
 72
8
 73
4
 74
0
 40
0
 40
0
 40
0
 40
0
 40
1
 40
1
 40
1
 40
1
 10
55.292741
 20
436.722203
 30
0.0
 10
55.084816
 20
436.798482
 30
0.0
 10
54.828234
 20
436.910110
 30
0.0
 10
54.570310
 20
437.059731
 30
0.0
  0
SPLINE
  5
12d
100
AcDbEntity
  8
SECTION_JOG_LINES
 62
7
100
AcDbSpline
 70
8
 71
3
 72
8
 73
4
 74
0
 40
0
 40
0
 40
0
 40
0
 40
1
 40
1
 40
1
 40
1
 10
54.570310
 20
437.059731
 30
0.0
 10
54.264452
 20
437.237161
 30
0.0
 10
53.956704
 20
437.468010
 30
0.0
 10
53.648957
 20
437.698859
 30
0.0
  0
SPLINE
  5
12e
100
AcDbEntity
  8
SECTION_JOG_LINES
 62
7
100
AcDbSpline
 70
8
 71
3
 72
8
 73
4
 74
0
 40
0
 40
0
 40
0
 40
0
 40
1
 40
1
 40
1
 40
1
 10
78.581239
 20
440.130830
 30
0.0
 10
78.715261
 20
440.180704
 30
0.0
 10
78.849283
 20
440.230604
 30
0.0
 10
78.970219
 20
440.292225
 30
0.0
  0
SPLINE
  5
12f
100
AcDbEntity
  8
SECTION_JOG_LINES
 62
7
100
AcDbSpline
 70
8
 71
3
 72
8
 73
4
 74
0
 40
0
 40
0
 40
0
 40
0
 40
1
 40
1
 40
1
 40
1
 10
78.970219
 20
440.292225
 30
0.0
 10
79.092444
 20
440.354482
 30
0.0
 10
79.201304
 20
440.428724
 30
0.0
 10
79.329232
 20
440.529186
 30
0.0
  0
SPLINE
  5
130
100
AcDbEntity
  8
SECTION_JOG_LINES
 62
7
100
AcDbSpline
 70
8
 71
3
 72
8
 73
4
 74
0
 40
0
 40
0
 40
0
 40
0
 40
1
 40
1
 40
1
 40
1
 10
79.329232
 20
440.529186
 30
0.0
 10
79.503408
 20
440.666002
 30
0.0
 10
79.712936
 20
440.851449
 30
0.0
 10
79.912001
 20
441.073461
 30
0.0
  0
SPLINE
  5
131
100
AcDbEntity
  8
SECTION_JOG_LINES
 62
7
100
AcDbSpline
 70
8
 71
3
 72
8
 73
4
 74
0
 40
0
 40
0
 40
0
 40
0
 40
1
 40
1
 40
1
 40
1
 10
79.912001
 20
441.073461
 30
0.0
 10
80.148062
 20
441.336721
 30
0.0
 10
80.369410
 20
441.651364
 30
0.0
 10
80.590758
 20
441.966033
 30
0.0
  0
SPLINE
  5
132
100
AcDbEntity
  8
SECTION_JOG_LINES
 62
7
100
AcDbSpline
 70
8
 71
3
 72
8
 73
4
 74
0
 40
0
 40
0
 40
0
 40
0
 40
1
 40
1
 40
1
 40
1
 10
77.416999
 20
442.415771
 30
0.0
 10
77.536143
 20
442.494855
 30
0.0
 10
77.655285
 20
442.573966
 30
0.0
 10
77.776213
 20
442.635587
 30
0.0
  0
SPLINE
  5
133
100
AcDbEntity
  8
SECTION_JOG_LINES
 62
7
100
AcDbSpline
 70
8
 71
3
 72
8
 73
4
 74
0
 40
0
 40
0
 40
0
 40
0
 40
1
 40
1
 40
1
 40
1
 10
77.776213
 20
442.635587
 30
0.0
 10
77.898429
 20
442.697870
 30
0.0
 10
78.022469
 20
442.742320
 30
0.0
 10
78.178954
 20
442.786744
 30
0.0
  0
SPLINE
  5
134
100
AcDbEntity
  8
SECTION_JOG_LINES
 62
7
100
AcDbSpline
 70
8
 71
3
 72
8
 73
4
 74
0
 40
0
 40
0
 40
0
 40
0
 40
1
 40
1
 40
1
 40
1
 10
78.178954
 20
442.786744
 30
0.0
 10
78.392007
 20
442.847254
 30
0.0
 10
78.665200
 20
442.907764
 30
0.0
 10
78.961808
 20
442.938323
 30
0.0
  0
SPLINE
  5
135
100
AcDbEntity
  8
SECTION_JOG_LINES
 62
7
100
AcDbSpline
 70
8
 71
3
 72
8
 73
4
 74
0
 40
0
 40
0
 40
0
 40
0
 40
1
 40
1
 40
1
 40
1
 10
78.961808
 20
442.938323
 30
0.0
 10
79.313545
 20
442.974545
 30
0.0
 10
79.698210
 20
442.968671
 30
0.0
 10
80.082874
 20
442.962665
 30
0.0
  0
SPLINE
  5
136
100
AcDbEntity
  8
SECTION_JOG_LINES
 62
7
100
AcDbSpline
 70
8
 71
3
 72
8
 73
4
 74
0
 40
0
 40
0
 40
0
 40
0
 40
1
 40
1
 40
1
 40
1
 10
61.341704
 20
426.340482
 30
0.0
 10
61.262607
 20
426.221340
 30
0.0
 10
61.183509
 20
426.102198
 30
0.0
 10
61.121883
 20
425.981257
 30
0.0
  0
SPLINE
  5
137
100
AcDbEntity
  8
SECTION_JOG_LINES
 62
7
100
AcDbSpline
 70
8
 71
3
 72
8
 73
4
 74
0
 40
0
 40
0
 40
0
 40
0
 40
1
 40
1
 40
1
 40
1
 10
61.121883
 20
425.981257
 30
0.0
 10
61.059600
 20
425.859046
 30
0.0
 10
61.015163
 20
425.735009
 30
0.0
 10
60.970726
 20
425.578508
 30
0.0
  0
SPLINE
  5
138
100
AcDbEntity
  8
SECTION_JOG_LINES
 62
7
100
AcDbSpline
 70
8
 71
3
 72
8
 73
4
 74
0
 40
0
 40
0
 40
0
 40
0
 40
1
 40
1
 40
1
 40
1
 10
60.970726
 20
425.578508
 30
0.0
 10
60.910224
 20
425.365466
 30
0.0
 10
60.849719
 20
425.092283
 30
0.0
 10
60.819162
 20
424.795659
 30
0.0
  0
SPLINE
  5
139
100
AcDbEntity
  8
SECTION_JOG_LINES
 62
7
100
AcDbSpline
 70
8
 71
3
 72
8
 73
4
 74
0
 40
0
 40
0
 40
0
 40
0
 40
1
 40
1
 40
1
 40
1
 10
60.819162
 20
424.795659
 30
0.0
 10
60.782925
 20
424.443922
 30
0.0
 10
60.788801
 20
424.059271
 30
0.0
 10
60.794662
 20
423.674593
 30
0.0
  0
SPLINE
  5
13a
100
AcDbEntity
  8
SECTION_JOG_LINES
 62
7
100
AcDbSpline
 70
8
 71
3
 72
8
 73
4
 74
0
 40
0
 40
0
 40
0
 40
0
 40
1
 40
1
 40
1
 40
1
 10
58.025189
 20
429.656981
 30
0.0
 10
57.906047
 20
429.577897
 30
0.0
 10
57.786902
 20
429.498786
 30
0.0
 10
57.665977
 20
429.437165
 30
0.0
  0
SPLINE
  5
13b
100
AcDbEntity
  8
SECTION_JOG_LINES
 62
7
100
AcDbSpline
 70
8
 71
3
 72
8
 73
4
 74
0
 40
0
 40
0
 40
0
 40
0
 40
1
 40
1
 40
1
 40
1
 10
57.665977
 20
429.437165
 30
0.0
 10
57.543758
 20
429.374882
 30
0.0
 10
57.419719
 20
429.330459
 30
0.0
 10
57.263234
 20
429.286009
 30
0.0
  0
SPLINE
  5
13c
100
AcDbEntity
  8
SECTION_JOG_LINES
 62
7
100
AcDbSpline
 70
8
 71
3
 72
8
 73
4
 74
0
 40
0
 40
0
 40
0
 40
0
 40
1
 40
1
 40
1
 40
1
 10
57.263234
 20
429.286009
 30
0.0
 10
57.050183
 20
429.225498
 30
0.0
 10
56.776988
 20
429.165015
 30
0.0
 10
56.480379
 20
429.134455
 30
0.0
  0
SPLINE
  5
13d
100
AcDbEntity
  8
SECTION_JOG_LINES
 62
7
100
AcDbSpline
 70
8
 71
3
 72
8
 73
4
 74
0
 40
0
 40
0
 40
0
 40
0
 40
1
 40
1
 40
1
 40
1
 10
56.480379
 20
429.134455
 30
0.0
 10
56.128642
 20
429.098207
 30
0.0
 10
55.743978
 20
429.104081
 30
0.0
 10
55.359313
 20
429.109849
 30
0.0
  0
SPLINE
  5
13e
100
AcDbEntity
  8
SECTION_JOG_LINES
 62
7
100
AcDbSpline
 70
8
 71
3
 72
8
 73
4
 74
0
 40
0
 40
0
 40
0
 40
0
 40
1
 40
1
 40
1
 40
1
 10
78.913789
 20
432.965410
 30
0.0
 10
79.051542
 20
432.927019
 30
0.0
 10
79.189297
 20
432.888602
 30
0.0
 10
79.323348
 20
432.867356
 30
0.0
  0
SPLINE
  5
13f
100
AcDbEntity
  8
SECTION_JOG_LINES
 62
7
100
AcDbSpline
 70
8
 71
3
 72
8
 73
4
 74
0
 40
0
 40
0
 40
0
 40
0
 40
1
 40
1
 40
1
 40
1
 10
79.323348
 20
432.867356
 30
0.0
 10
79.458831
 20
432.845924
 30
0.0
 10
79.590532
 20
432.841956
 30
0.0
 10
79.753090
 20
432.848041
 30
0.0
  0
SPLINE
  5
140
100
AcDbEntity
  8
SECTION_JOG_LINES
 62
7
100
AcDbSpline
 70
8
 71
3
 72
8
 73
4
 74
0
 40
0
 40
0
 40
0
 40
0
 40
1
 40
1
 40
1
 40
1
 10
79.753090
 20
432.848041
 30
0.0
 10
79.974408
 20
432.856243
 30
0.0
 10
80.252927
 20
432.883231
 30
0.0
 10
80.544464
 20
432.945831
 30
0.0
  0
SPLINE
  5
141
100
AcDbEntity
  8
SECTION_JOG_LINES
 62
7
100
AcDbSpline
 70
8
 71
3
 72
8
 73
4
 74
0
 40
0
 40
0
 40
0
 40
0
 40
1
 40
1
 40
1
 40
1
 10
80.544464
 20
432.945831
 30
0.0
 10
80.890181
 20
433.020047
 30
0.0
 10
81.254203
 20
433.144507
 30
0.0
 10
81.618227
 20
433.268967
 30
0.0
  0
SPLINE
  5
142
100
AcDbEntity
  8
SECTION_JOG_LINES
 62
7
100
AcDbSpline
 70
8
 71
3
 72
8
 73
4
 74
0
 40
0
 40
0
 40
0
 40
0
 40
1
 40
1
 40
1
 40
1
 10
64.650133
 20
447.229071
 30
0.0
 10
64.611724
 20
447.366840
 30
0.0
 10
64.573314
 20
447.504582
 30
0.0
 10
64.552073
 20
447.638646
 30
0.0
  0
SPLINE
  5
143
100
AcDbEntity
  8
SECTION_JOG_LINES
 62
7
100
AcDbSpline
 70
8
 71
3
 72
8
 73
4
 74
0
 40
0
 40
0
 40
0
 40
0
 40
1
 40
1
 40
1
 40
1
 10
64.552073
 20
447.638646
 30
0.0
 10
64.530616
 20
447.774113
 30
0.0
 10
64.526673
 20
447.905823
 30
0.0
 10
64.532759
 20
448.068383
 30
0.0
  0
SPLINE
  5
144
100
AcDbEntity
  8
SECTION_JOG_LINES
 62
7
100
AcDbSpline
 70
8
 71
3
 72
8
 73
4
 74
0
 40
0
 40
0
 40
0
 40
0
 40
1
 40
1
 40
1
 40
1
 10
64.532759
 20
448.068383
 30
0.0
 10
64.541067
 20
448.289706
 30
0.0
 10
64.567935
 20
448.568207
 30
0.0
 10
64.630530
 20
448.859751
 30
0.0
  0
SPLINE
  5
145
100
AcDbEntity
  8
SECTION_JOG_LINES
 62
7
100
AcDbSpline
 70
8
 71
3
 72
8
 73
4
 74
0
 40
0
 40
0
 40
0
 40
0
 40
1
 40
1
 40
1
 40
1
 10
64.630530
 20
448.859751
 30
0.0
 10
64.704759
 20
449.205456
 30
0.0
 10
64.829214
 20
449.569496
 30
0.0
 10
64.953668
 20
449.933510
 30
0.0
  0
SPLINE
  5
146
100
AcDbEntity
  8
SECTION_JOG_LINES
 62
7
100
AcDbSpline
 70
8
 71
3
 72
8
 73
4
 74
0
 40
0
 40
0
 40
0
 40
0
 40
1
 40
1
 40
1
 40
1
 10
56.860948
 20
440.130830
 30
0.0
 10
56.726926
 20
440.180704
 30
0.0
 10
56.592904
 20
440.230604
 30
0.0
 10
56.471971
 20
440.292225
 30
0.0
  0
SPLINE
  5
147
100
AcDbEntity
  8
SECTION_JOG_LINES
 62
7
100
AcDbSpline
 70
8
 71
3
 72
8
 73
4
 74
0
 40
0
 40
0
 40
0
 40
0
 40
1
 40
1
 40
1
 40
1
 10
56.471971
 20
440.292225
 30
0.0
 10
56.349744
 20
440.354482
 30
0.0
 10
56.240886
 20
440.428724
 30
0.0
 10
56.112955
 20
440.529186
 30
0.0
  0
SPLINE
  5
148
100
AcDbEntity
  8
SECTION_JOG_LINES
 62
7
100
AcDbSpline
 70
8
 71
3
 72
8
 73
4
 74
0
 40
0
 40
0
 40
0
 40
0
 40
1
 40
1
 40
1
 40
1
 10
56.112955
 20
440.529186
 30
0.0
 10
55.938780
 20
440.666002
 30
0.0
 10
55.729251
 20
440.851449
 30
0.0
 10
55.530186
 20
441.073461
 30
0.0
  0
SPLINE
  5
149
100
AcDbEntity
  8
SECTION_JOG_LINES
 62
7
100
AcDbSpline
 70
8
 71
3
 72
8
 73
4
 74
0
 40
0
 40
0
 40
0
 40
0
 40
1
 40
1
 40
1
 40
1
 10
55.530186
 20
441.073461
 30
0.0
 10
55.294125
 20
441.336721
 30
0.0
 10
55.072777
 20
441.651364
 30
0.0
 10
54.851430
 20
441.966033
 30
0.0
  0
SPLINE
  5
14a
100
AcDbEntity
  8
SECTION_JOG_LINES
 62
7
100
AcDbSpline
 70
8
 71
3
 72
8
 73
4
 74
0
 40
0
 40
0
 40
0
 40
0
 40
1
 40
1
 40
1
 40
1
 10
70.792057
 20
424.843681
 30
0.0
 10
70.830464
 20
424.705939
 30
0.0
 10
70.868873
 20
424.568170
 30
0.0
 10
70.890114
 20
424.434132
 30
0.0
  0
SPLINE
  5
14b
100
AcDbEntity
  8
SECTION_JOG_LINES
 62
7
100
AcDbSpline
 70
8
 71
3
 72
8
 73
4
 74
0
 40
0
 40
0
 40
0
 40
0
 40
1
 40
1
 40
1
 40
1
 10
70.890114
 20
424.434132
 30
0.0
 10
70.911572
 20
424.298639
 30
0.0
 10
70.915514
 20
424.166956
 30
0.0
 10
70.909429
 20
424.004396
 30
0.0
  0
SPLINE
  5
14c
100
AcDbEntity
  8
SECTION_JOG_LINES
 62
7
100
AcDbSpline
 70
8
 71
3
 72
8
 73
4
 74
0
 40
0
 40
0
 40
0
 40
0
 40
1
 40
1
 40
1
 40
1
 10
70.909429
 20
424.004396
 30
0.0
 10
70.901121
 20
423.783072
 30
0.0
 10
70.874255
 20
423.504545
 30
0.0
 10
70.811657
 20
423.213001
 30
0.0
  0
SPLINE
  5
14d
100
AcDbEntity
  8
SECTION_JOG_LINES
 62
7
100
AcDbSpline
 70
8
 71
3
 72
8
 73
4
 74
0
 40
0
 40
0
 40
0
 40
0
 40
1
 40
1
 40
1
 40
1
 10
70.811657
 20
423.213001
 30
0.0
 10
70.737428
 20
422.867296
 30
0.0
 10
70.612974
 20
422.503283
 30
0.0
 10
70.488519
 20
422.139242
 30
0.0
  0
SPLINE
  5
14e
100
AcDbEntity
  8
SECTION_JOG_LINES
 62
7
100
AcDbSpline
 70
8
 71
3
 72
8
 73
4
 74
0
 40
0
 40
0
 40
0
 40
0
 40
1
 40
1
 40
1
 40
1
 10
56.127229
 20
435.498293
 30
0.0
 10
55.984349
 20
435.492208
 30
0.0
 10
55.841469
 20
435.486122
 30
0.0
 10
55.707415
 20
435.465008
 30
0.0
  0
SPLINE
  5
14f
100
AcDbEntity
  8
SECTION_JOG_LINES
 62
7
100
AcDbSpline
 70
8
 71
3
 72
8
 73
4
 74
0
 40
0
 40
0
 40
0
 40
0
 40
1
 40
1
 40
1
 40
1
 10
55.707415
 20
435.465008
 30
0.0
 10
55.571927
 20
435.443577
 30
0.0
 10
55.445459
 20
435.406588
 30
0.0
 10
55.292741
 20
435.350576
 30
0.0
  0
SPLINE
  5
150
100
AcDbEntity
  8
SECTION_JOG_LINES
 62
7
100
AcDbSpline
 70
8
 71
3
 72
8
 73
4
 74
0
 40
0
 40
0
 40
0
 40
0
 40
1
 40
1
 40
1
 40
1
 10
55.292741
 20
435.350576
 30
0.0
 10
55.084816
 20
435.274297
 30
0.0
 10
54.828234
 20
435.162643
 30
0.0
 10
54.570310
 20
435.013021
 30
0.0
  0
SPLINE
  5
151
100
AcDbEntity
  8
SECTION_JOG_LINES
 62
7
100
AcDbSpline
 70
8
 71
3
 72
8
 73
4
 74
0
 40
0
 40
0
 40
0
 40
0
 40
1
 40
1
 40
1
 40
1
 10
54.570310
 20
435.013021
 30
0.0
 10
54.264452
 20
434.835618
 30
0.0
 10
53.956704
 20
434.604742
 30
0.0
 10
53.648957
 20
434.373893
 30
0.0
  0
SPLINE
  5
152
100
AcDbEntity
  8
SECTION_JOG_LINES
 62
7
100
AcDbSpline
 70
8
 71
3
 72
8
 73
4
 74
0
 40
0
 40
0
 40
0
 40
0
 40
1
 40
1
 40
1
 40
1
 10
56.528401
 20
439.107342
 30
0.0
 10
56.390646
 20
439.145759
 30
0.0
 10
56.252891
 20
439.184150
 30
0.0
 10
56.118839
 20
439.205396
 30
0.0
  0
SPLINE
  5
153
100
AcDbEntity
  8
SECTION_JOG_LINES
 62
7
100
AcDbSpline
 70
8
 71
3
 72
8
 73
4
 74
0
 40
0
 40
0
 40
0
 40
0
 40
1
 40
1
 40
1
 40
1
 10
56.118839
 20
439.205396
 30
0.0
 10
55.983357
 20
439.226828
 30
0.0
 10
55.851658
 20
439.230796
 30
0.0
 10
55.689100
 20
439.224711
 30
0.0
  0
SPLINE
  5
154
100
AcDbEntity
  8
SECTION_JOG_LINES
 62
7
100
AcDbSpline
 70
8
 71
3
 72
8
 73
4
 74
0
 40
0
 40
0
 40
0
 40
0
 40
1
 40
1
 40
1
 40
1
 10
55.689100
 20
439.224711
 30
0.0
 10
55.467779
 20
439.216509
 30
0.0
 10
55.189260
 20
439.189521
 30
0.0
 10
54.897724
 20
439.126948
 30
0.0
  0
SPLINE
  5
155
100
AcDbEntity
  8
SECTION_JOG_LINES
 62
7
100
AcDbSpline
 70
8
 71
3
 72
8
 73
4
 74
0
 40
0
 40
0
 40
0
 40
0
 40
1
 40
1
 40
1
 40
1
 10
54.897724
 20
439.126948
 30
0.0
 10
54.552006
 20
439.052705
 30
0.0
 10
54.187984
 20
438.928245
 30
0.0
 10
53.823960
 20
438.803785
 30
0.0
  0
SPLINE
  5
156
100
AcDbEntity
  8
SECTION_JOG_LINES
 62
7
100
AcDbSpline
 70
8
 71
3
 72
8
 73
4
 74
0
 40
0
 40
0
 40
0
 40
0
 40
1
 40
1
 40
1
 40
1
 10
58.025189
 20
442.415771
 30
0.0
 10
57.906047
 20
442.494855
 30
0.0
 10
57.786902
 20
442.573966
 30
0.0
 10
57.665977
 20
442.635587
 30
0.0
  0
SPLINE
  5
157
100
AcDbEntity
  8
SECTION_JOG_LINES
 62
7
100
AcDbSpline
 70
8
 71
3
 72
8
 73
4
 74
0
 40
0
 40
0
 40
0
 40
0
 40
1
 40
1
 40
1
 40
1
 10
57.665977
 20
442.635587
 30
0.0
 10
57.543758
 20
442.697870
 30
0.0
 10
57.419719
 20
442.742320
 30
0.0
 10
57.263234
 20
442.786744
 30
0.0
  0
SPLINE
  5
158
100
AcDbEntity
  8
SECTION_JOG_LINES
 62
7
100
AcDbSpline
 70
8
 71
3
 72
8
 73
4
 74
0
 40
0
 40
0
 40
0
 40
0
 40
1
 40
1
 40
1
 40
1
 10
57.263234
 20
442.786744
 30
0.0
 10
57.050183
 20
442.847254
 30
0.0
 10
56.776988
 20
442.907764
 30
0.0
 10
56.480379
 20
442.938323
 30
0.0
  0
SPLINE
  5
159
100
AcDbEntity
  8
SECTION_JOG_LINES
 62
7
100
AcDbSpline
 70
8
 71
3
 72
8
 73
4
 74
0
 40
0
 40
0
 40
0
 40
0
 40
1
 40
1
 40
1
 40
1
 10
56.480379
 20
442.938323
 30
0.0
 10
56.128642
 20
442.974545
 30
0.0
 10
55.743978
 20
442.968671
 30
0.0
 10
55.359313
 20
442.962665
 30
0.0
  0
SPLINE
  5
15a
100
AcDbEntity
  8
SECTION_JOG_LINES
 62
7
100
AcDbSpline
 70
8
 71
3
 72
8
 73
4
 74
0
 40
0
 40
0
 40
0
 40
0
 40
1
 40
1
 40
1
 40
1
 10
71.815534
 20
425.176236
 30
0.0
 10
71.865432
 20
425.042224
 30
0.0
 10
71.915327
 20
424.908186
 30
0.0
 10
71.976935
 20
424.787245
 30
0.0
  0
SPLINE
  5
15b
100
AcDbEntity
  8
SECTION_JOG_LINES
 62
7
100
AcDbSpline
 70
8
 71
3
 72
8
 73
4
 74
0
 40
0
 40
0
 40
0
 40
0
 40
1
 40
1
 40
1
 40
1
 10
71.976935
 20
424.787245
 30
0.0
 10
72.039202
 20
424.665034
 30
0.0
 10
72.113434
 20
424.556158
 30
0.0
 10
72.213915
 20
424.428232
 30
0.0
  0
SPLINE
  5
15c
100
AcDbEntity
  8
SECTION_JOG_LINES
 62
7
100
AcDbSpline
 70
8
 71
3
 72
8
 73
4
 74
0
 40
0
 40
0
 40
0
 40
0
 40
1
 40
1
 40
1
 40
1
 10
72.213915
 20
424.428232
 30
0.0
 10
72.350715
 20
424.254057
 30
0.0
 10
72.536169
 20
424.044533
 30
0.0
 10
72.758170
 20
423.845461
 30
0.0
  0
SPLINE
  5
15d
100
AcDbEntity
  8
SECTION_JOG_LINES
 62
7
100
AcDbSpline
 70
8
 71
3
 72
8
 73
4
 74
0
 40
0
 40
0
 40
0
 40
0
 40
1
 40
1
 40
1
 40
1
 10
72.758170
 20
423.845461
 30
0.0
 10
73.021431
 20
423.609400
 30
0.0
 10
73.336084
 20
423.388076
 30
0.0
 10
73.650737
 20
423.166725
 30
0.0
  0
SPLINE
  5
15e
100
AcDbEntity
  8
SECTION_JOG_LINES
 62
7
100
AcDbSpline
 70
8
 71
3
 72
8
 73
4
 74
0
 40
0
 40
0
 40
0
 40
0
 40
1
 40
1
 40
1
 40
1
 10
56.528401
 20
432.965410
 30
0.0
 10
56.390646
 20
432.927019
 30
0.0
 10
56.252891
 20
432.888602
 30
0.0
 10
56.118839
 20
432.867356
 30
0.0
  0
SPLINE
  5
15f
100
AcDbEntity
  8
SECTION_JOG_LINES
 62
7
100
AcDbSpline
 70
8
 71
3
 72
8
 73
4
 74
0
 40
0
 40
0
 40
0
 40
0
 40
1
 40
1
 40
1
 40
1
 10
56.118839
 20
432.867356
 30
0.0
 10
55.983357
 20
432.845924
 30
0.0
 10
55.851658
 20
432.841956
 30
0.0
 10
55.689100
 20
432.848041
 30
0.0
  0
SPLINE
  5
160
100
AcDbEntity
  8
SECTION_JOG_LINES
 62
7
100
AcDbSpline
 70
8
 71
3
 72
8
 73
4
 74
0
 40
0
 40
0
 40
0
 40
0
 40
1
 40
1
 40
1
 40
1
 10
55.689100
 20
432.848041
 30
0.0
 10
55.467779
 20
432.856243
 30
0.0
 10
55.189260
 20
432.883231
 30
0.0
 10
54.897724
 20
432.945831
 30
0.0
  0
SPLINE
  5
161
100
AcDbEntity
  8
SECTION_JOG_LINES
 62
7
100
AcDbSpline
 70
8
 71
3
 72
8
 73
4
 74
0
 40
0
 40
0
 40
0
 40
0
 40
1
 40
1
 40
1
 40
1
 10
54.897724
 20
432.945831
 30
0.0
 10
54.552006
 20
433.020047
 30
0.0
 10
54.187984
 20
433.144507
 30
0.0
 10
53.823960
 20
433.268967
 30
0.0
  0
SPLINE
  5
162
100
AcDbEntity
  8
SECTION_JOG_LINES
 62
7
100
AcDbSpline
 70
8
 71
3
 72
8
 73
4
 74
0
 40
0
 40
0
 40
0
 40
0
 40
1
 40
1
 40
1
 40
1
 10
56.860948
 20
431.941949
 30
0.0
 10
56.726926
 20
431.892049
 30
0.0
 10
56.592904
 20
431.842148
 30
0.0
 10
56.471971
 20
431.780527
 30
0.0
  0
SPLINE
  5
163
100
AcDbEntity
  8
SECTION_JOG_LINES
 62
7
100
AcDbSpline
 70
8
 71
3
 72
8
 73
4
 74
0
 40
0
 40
0
 40
0
 40
0
 40
1
 40
1
 40
1
 40
1
 10
56.471971
 20
431.780527
 30
0.0
 10
56.349744
 20
431.718270
 30
0.0
 10
56.240886
 20
431.644028
 30
0.0
 10
56.112955
 20
431.543566
 30
0.0
  0
SPLINE
  5
164
100
AcDbEntity
  8
SECTION_JOG_LINES
 62
7
100
AcDbSpline
 70
8
 71
3
 72
8
 73
4
 74
0
 40
0
 40
0
 40
0
 40
0
 40
1
 40
1
 40
1
 40
1
 10
56.112955
 20
431.543566
 30
0.0
 10
55.938780
 20
431.406750
 30
0.0
 10
55.729251
 20
431.221303
 30
0.0
 10
55.530186
 20
430.999291
 30
0.0
  0
SPLINE
  5
165
100
AcDbEntity
  8
SECTION_JOG_LINES
 62
7
100
AcDbSpline
 70
8
 71
3
 72
8
 73
4
 74
0
 40
0
 40
0
 40
0
 40
0
 40
1
 40
1
 40
1
 40
1
 10
55.530186
 20
430.999291
 30
0.0
 10
55.294125
 20
430.736031
 30
0.0
 10
55.072777
 20
430.421389
 30
0.0
 10
54.851430
 20
430.106746
 30
0.0
  0
SPLINE
  5
166
100
AcDbEntity
  8
SECTION_JOG_LINES
 62
7
100
AcDbSpline
 70
8
 71
3
 72
8
 73
4
 74
0
 40
0
 40
0
 40
0
 40
0
 40
1
 40
1
 40
1
 40
1
 10
67.183019
 20
424.442520
 30
0.0
 10
67.176986
 20
424.299645
 30
0.0
 10
67.170927
 20
424.156743
 30
0.0
 10
67.149718
 20
424.022705
 30
0.0
  0
SPLINE
  5
167
100
AcDbEntity
  8
SECTION_JOG_LINES
 62
7
100
AcDbSpline
 70
8
 71
3
 72
8
 73
4
 74
0
 40
0
 40
0
 40
0
 40
0
 40
1
 40
1
 40
1
 40
1
 10
67.149718
 20
424.022705
 30
0.0
 10
67.128260
 20
423.887212
 30
0.0
 10
67.091309
 20
423.760741
 30
0.0
 10
67.035280
 20
423.608024
 30
0.0
  0
SPLINE
  5
168
100
AcDbEntity
  8
SECTION_JOG_LINES
 62
7
100
AcDbSpline
 70
8
 71
3
 72
8
 73
4
 74
0
 40
0
 40
0
 40
0
 40
0
 40
1
 40
1
 40
1
 40
1
 10
67.035280
 20
423.608024
 30
0.0
 10
66.958998
 20
423.400114
 30
0.0
 10
66.847368
 20
423.143521
 30
0.0
 10
66.697749
 20
422.885605
 30
0.0
  0
SPLINE
  5
169
100
AcDbEntity
  8
SECTION_JOG_LINES
 62
7
100
AcDbSpline
 70
8
 71
3
 72
8
 73
4
 74
0
 40
0
 40
0
 40
0
 40
0
 40
1
 40
1
 40
1
 40
1
 10
66.697749
 20
422.885605
 30
0.0
 10
66.520319
 20
422.579747
 30
0.0
 10
66.289465
 20
422.271984
 30
0.0
 10
66.058613
 20
421.964247
 30
0.0
  0
SPLINE
  5
16a
100
AcDbEntity
  8
SECTION_JOG_LINES
 62
7
100
AcDbSpline
 70
8
 71
3
 72
8
 73
4
 74
0
 40
0
 40
0
 40
0
 40
0
 40
1
 40
1
 40
1
 40
1
 10
74.971108
 20
426.973021
 30
0.0
 10
75.059977
 20
426.860970
 30
0.0
 10
75.148847
 20
426.748945
 30
0.0
 10
75.244812
 20
426.652955
 30
0.0
  0
SPLINE
  5
16b
100
AcDbEntity
  8
SECTION_JOG_LINES
 62
7
100
AcDbSpline
 70
8
 71
3
 72
8
 73
4
 74
0
 40
0
 40
0
 40
0
 40
0
 40
1
 40
1
 40
1
 40
1
 10
75.244812
 20
426.652955
 30
0.0
 10
75.341800
 20
426.555958
 30
0.0
 10
75.446038
 20
426.475366
 30
0.0
 10
75.581132
 20
426.384746
 30
0.0
  0
SPLINE
  5
16c
100
AcDbEntity
  8
SECTION_JOG_LINES
 62
7
100
AcDbSpline
 70
8
 71
3
 72
8
 73
4
 74
0
 40
0
 40
0
 40
0
 40
0
 40
1
 40
1
 40
1
 40
1
 10
75.581132
 20
426.384746
 30
0.0
 10
75.765059
 20
426.261371
 30
0.0
 10
76.006185
 20
426.119396
 30
0.0
 10
76.278835
 20
425.998693
 30
0.0
  0
SPLINE
  5
16d
100
AcDbEntity
  8
SECTION_JOG_LINES
 62
7
100
AcDbSpline
 70
8
 71
3
 72
8
 73
4
 74
0
 40
0
 40
0
 40
0
 40
0
 40
1
 40
1
 40
1
 40
1
 10
76.278835
 20
425.998693
 30
0.0
 10
76.602159
 20
425.855527
 30
0.0
 10
76.969811
 20
425.742232
 30
0.0
 10
77.337465
 20
425.628964
 30
0.0
  0
SPLINE
  5
16e
100
AcDbEntity
  8
SECTION_JOG_LINES
 62
7
100
AcDbSpline
 70
8
 71
3
 72
8
 73
4
 74
0
 40
0
 40
0
 40
0
 40
0
 40
1
 40
1
 40
1
 40
1
 10
76.784454
 20
428.786369
 30
0.0
 10
76.896497
 20
428.697496
 30
0.0
 10
77.008540
 20
428.608622
 30
0.0
 10
77.104520
 20
428.512658
 30
0.0
  0
SPLINE
  5
16f
100
AcDbEntity
  8
SECTION_JOG_LINES
 62
7
100
AcDbSpline
 70
8
 71
3
 72
8
 73
4
 74
0
 40
0
 40
0
 40
0
 40
0
 40
1
 40
1
 40
1
 40
1
 10
77.104520
 20
428.512658
 30
0.0
 10
77.201522
 20
428.415662
 30
0.0
 10
77.282114
 20
428.311442
 30
0.0
 10
77.372734
 20
428.176346
 30
0.0
  0
SPLINE
  5
170
100
AcDbEntity
  8
SECTION_JOG_LINES
 62
7
100
AcDbSpline
 70
8
 71
3
 72
8
 73
4
 74
0
 40
0
 40
0
 40
0
 40
0
 40
1
 40
1
 40
1
 40
1
 10
77.372734
 20
428.176346
 30
0.0
 10
77.496109
 20
427.992408
 30
0.0
 10
77.638074
 20
427.751293
 30
0.0
 10
77.758793
 20
427.478640
 30
0.0
  0
SPLINE
  5
171
100
AcDbEntity
  8
SECTION_JOG_LINES
 62
7
100
AcDbSpline
 70
8
 71
3
 72
8
 73
4
 74
0
 40
0
 40
0
 40
0
 40
0
 40
1
 40
1
 40
1
 40
1
 10
77.758793
 20
427.478640
 30
0.0
 10
77.901948
 20
427.155319
 30
0.0
 10
78.015230
 20
426.787654
 30
0.0
 10
78.128511
 20
426.420015
 30
0.0
  0
SPLINE
  5
172
100
AcDbEntity
  8
SECTION_JOG_LINES
 62
7
100
AcDbSpline
 70
8
 71
3
 72
8
 73
4
 74
0
 40
0
 40
0
 40
0
 40
0
 40
1
 40
1
 40
1
 40
1
 10
68.259169
 20
447.630233
 30
0.0
 10
68.265201
 20
447.773134
 30
0.0
 10
68.271234
 20
447.916009
 30
0.0
 10
68.292469
 20
448.050073
 30
0.0
  0
SPLINE
  5
173
100
AcDbEntity
  8
SECTION_JOG_LINES
 62
7
100
AcDbSpline
 70
8
 71
3
 72
8
 73
4
 74
0
 40
0
 40
0
 40
0
 40
0
 40
1
 40
1
 40
1
 40
1
 10
68.292469
 20
448.050073
 30
0.0
 10
68.313927
 20
448.185540
 30
0.0
 10
68.350879
 20
448.312011
 30
0.0
 10
68.406907
 20
448.464728
 30
0.0
  0
SPLINE
  5
174
100
AcDbEntity
  8
SECTION_JOG_LINES
 62
7
100
AcDbSpline
 70
8
 71
3
 72
8
 73
4
 74
0
 40
0
 40
0
 40
0
 40
0
 40
1
 40
1
 40
1
 40
1
 10
68.406907
 20
448.464728
 30
0.0
 10
68.483189
 20
448.672664
 30
0.0
 10
68.594819
 20
448.929231
 30
0.0
 10
68.744441
 20
449.187173
 30
0.0
  0
SPLINE
  5
175
100
AcDbEntity
  8
SECTION_JOG_LINES
 62
7
100
AcDbSpline
 70
8
 71
3
 72
8
 73
4
 74
0
 40
0
 40
0
 40
0
 40
0
 40
1
 40
1
 40
1
 40
1
 10
68.744441
 20
449.187173
 30
0.0
 10
68.921868
 20
449.493031
 30
0.0
 10
69.152722
 20
449.800768
 30
0.0
 10
69.383577
 20
450.108505
 30
0.0
  0
SPLINE
  5
176
100
AcDbEntity
  8
SECTION_JOG_LINES
 62
7
100
AcDbSpline
 70
8
 71
3
 72
8
 73
4
 74
0
 40
0
 40
0
 40
0
 40
0
 40
1
 40
1
 40
1
 40
1
 10
77.416999
 20
429.656981
 30
0.0
 10
77.536143
 20
429.577897
 30
0.0
 10
77.655285
 20
429.498786
 30
0.0
 10
77.776213
 20
429.437165
 30
0.0
  0
SPLINE
  5
177
100
AcDbEntity
  8
SECTION_JOG_LINES
 62
7
100
AcDbSpline
 70
8
 71
3
 72
8
 73
4
 74
0
 40
0
 40
0
 40
0
 40
0
 40
1
 40
1
 40
1
 40
1
 10
77.776213
 20
429.437165
 30
0.0
 10
77.898429
 20
429.374882
 30
0.0
 10
78.022469
 20
429.330459
 30
0.0
 10
78.178954
 20
429.286009
 30
0.0
  0
SPLINE
  5
178
100
AcDbEntity
  8
SECTION_JOG_LINES
 62
7
100
AcDbSpline
 70
8
 71
3
 72
8
 73
4
 74
0
 40
0
 40
0
 40
0
 40
0
 40
1
 40
1
 40
1
 40
1
 10
78.178954
 20
429.286009
 30
0.0
 10
78.392007
 20
429.225498
 30
0.0
 10
78.665200
 20
429.165015
 30
0.0
 10
78.961808
 20
429.134455
 30
0.0
  0
SPLINE
  5
179
100
AcDbEntity
  8
SECTION_JOG_LINES
 62
7
100
AcDbSpline
 70
8
 71
3
 72
8
 73
4
 74
0
 40
0
 40
0
 40
0
 40
0
 40
1
 40
1
 40
1
 40
1
 10
78.961808
 20
429.134455
 30
0.0
 10
79.313545
 20
429.098207
 30
0.0
 10
79.698210
 20
429.104081
 30
0.0
 10
80.082874
 20
429.109849
 30
0.0
  0
SPLINE
  5
17a
100
AcDbEntity
  8
SECTION_JOG_LINES
 62
7
100
AcDbSpline
 70
8
 71
3
 72
8
 73
4
 74
0
 40
0
 40
0
 40
0
 40
0
 40
1
 40
1
 40
1
 40
1
 10
78.581239
 20
431.941949
 30
0.0
 10
78.715261
 20
431.892049
 30
0.0
 10
78.849283
 20
431.842148
 30
0.0
 10
78.970219
 20
431.780527
 30
0.0
  0
SPLINE
  5
17b
100
AcDbEntity
  8
SECTION_JOG_LINES
 62
7
100
AcDbSpline
 70
8
 71
3
 72
8
 73
4
 74
0
 40
0
 40
0
 40
0
 40
0
 40
1
 40
1
 40
1
 40
1
 10
78.970219
 20
431.780527
 30
0.0
 10
79.092444
 20
431.718270
 30
0.0
 10
79.201304
 20
431.644028
 30
0.0
 10
79.329232
 20
431.543566
 30
0.0
  0
SPLINE
  5
17c
100
AcDbEntity
  8
SECTION_JOG_LINES
 62
7
100
AcDbSpline
 70
8
 71
3
 72
8
 73
4
 74
0
 40
0
 40
0
 40
0
 40
0
 40
1
 40
1
 40
1
 40
1
 10
79.329232
 20
431.543566
 30
0.0
 10
79.503408
 20
431.406750
 30
0.0
 10
79.712936
 20
431.221303
 30
0.0
 10
79.912001
 20
430.999291
 30
0.0
  0
SPLINE
  5
17d
100
AcDbEntity
  8
SECTION_JOG_LINES
 62
7
100
AcDbSpline
 70
8
 71
3
 72
8
 73
4
 74
0
 40
0
 40
0
 40
0
 40
0
 40
1
 40
1
 40
1
 40
1
 10
79.912001
 20
430.999291
 30
0.0
 10
80.148062
 20
430.736031
 30
0.0
 10
80.369410
 20
430.421389
 30
0.0
 10
80.590758
 20
430.106746
 30
0.0
  0
SPLINE
  5
17e
100
AcDbEntity
  8
SECTION_JOG_LINES
 62
7
100
AcDbSpline
 70
8
 71
3
 72
8
 73
4
 74
0
 40
0
 40
0
 40
0
 40
0
 40
1
 40
1
 40
1
 40
1
 10
79.314958
 20
435.498293
 30
0.0
 10
79.457838
 20
435.492208
 30
0.0
 10
79.600721
 20
435.486122
 30
0.0
 10
79.734775
 20
435.465008
 30
0.0
  0
SPLINE
  5
17f
100
AcDbEntity
  8
SECTION_JOG_LINES
 62
7
100
AcDbSpline
 70
8
 71
3
 72
8
 73
4
 74
0
 40
0
 40
0
 40
0
 40
0
 40
1
 40
1
 40
1
 40
1
 10
79.734775
 20
435.465008
 30
0.0
 10
79.870260
 20
435.443577
 30
0.0
 10
79.996729
 20
435.406588
 30
0.0
 10
80.149446
 20
435.350576
 30
0.0
  0
SPLINE
  5
180
100
AcDbEntity
  8
SECTION_JOG_LINES
 62
7
100
AcDbSpline
 70
8
 71
3
 72
8
 73
4
 74
0
 40
0
 40
0
 40
0
 40
0
 40
1
 40
1
 40
1
 40
1
 10
80.149446
 20
435.350576
 30
0.0
 10
80.357371
 20
435.274297
 30
0.0
 10
80.613954
 20
435.162643
 30
0.0
 10
80.871878
 20
435.013021
 30
0.0
  0
SPLINE
  5
181
100
AcDbEntity
  8
SECTION_JOG_LINES
 62
7
100
AcDbSpline
 70
8
 71
3
 72
8
 73
4
 74
0
 40
0
 40
0
 40
0
 40
0
 40
1
 40
1
 40
1
 40
1
 10
80.871878
 20
435.013021
 30
0.0
 10
81.177736
 20
434.835618
 30
0.0
 10
81.485483
 20
434.604742
 30
0.0
 10
81.793231
 20
434.373893
 30
0.0
  0
SPLINE
  5
182
100
AcDbEntity
  8
SECTION_JOG_LINES
 62
7
100
AcDbSpline
 70
8
 71
3
 72
8
 73
4
 74
0
 40
0
 40
0
 40
0
 40
0
 40
1
 40
1
 40
1
 40
1
 10
79.314958
 20
436.574459
 30
0.0
 10
79.457838
 20
436.580545
 30
0.0
 10
79.600721
 20
436.586630
 30
0.0
 10
79.734775
 20
436.607744
 30
0.0
  0
SPLINE
  5
183
100
AcDbEntity
  8
SECTION_JOG_LINES
 62
7
100
AcDbSpline
 70
8
 71
3
 72
8
 73
4
 74
0
 40
0
 40
0
 40
0
 40
0
 40
1
 40
1
 40
1
 40
1
 10
79.734775
 20
436.607744
 30
0.0
 10
79.870260
 20
436.629175
 30
0.0
 10
79.996729
 20
436.666164
 30
0.0
 10
80.149446
 20
436.722203
 30
0.0
  0
SPLINE
  5
184
100
AcDbEntity
  8
SECTION_JOG_LINES
 62
7
100
AcDbSpline
 70
8
 71
3
 72
8
 73
4
 74
0
 40
0
 40
0
 40
0
 40
0
 40
1
 40
1
 40
1
 40
1
 10
80.149446
 20
436.722203
 30
0.0
 10
80.357371
 20
436.798482
 30
0.0
 10
80.613954
 20
436.910110
 30
0.0
 10
80.871878
 20
437.059731
 30
0.0
  0
SPLINE
  5
185
100
AcDbEntity
  8
SECTION_JOG_LINES
 62
7
100
AcDbSpline
 70
8
 71
3
 72
8
 73
4
 74
0
 40
0
 40
0
 40
0
 40
0
 40
1
 40
1
 40
1
 40
1
 10
80.871878
 20
437.059731
 30
0.0
 10
81.177736
 20
437.237161
 30
0.0
 10
81.485483
 20
437.468010
 30
0.0
 10
81.793231
 20
437.698859
 30
0.0
  0
SPLINE
  5
186
100
AcDbEntity
  8
SECTION_JOG_LINES
 62
7
100
AcDbSpline
 70
8
 71
3
 72
8
 73
4
 74
0
 40
0
 40
0
 40
0
 40
0
 40
1
 40
1
 40
1
 40
1
 10
78.913789
 20
439.107342
 30
0.0
 10
79.051542
 20
439.145759
 30
0.0
 10
79.189297
 20
439.184150
 30
0.0
 10
79.323348
 20
439.205396
 30
0.0
  0
SPLINE
  5
187
100
AcDbEntity
  8
SECTION_JOG_LINES
 62
7
100
AcDbSpline
 70
8
 71
3
 72
8
 73
4
 74
0
 40
0
 40
0
 40
0
 40
0
 40
1
 40
1
 40
1
 40
1
 10
79.323348
 20
439.205396
 30
0.0
 10
79.458831
 20
439.226828
 30
0.0
 10
79.590532
 20
439.230796
 30
0.0
 10
79.753090
 20
439.224711
 30
0.0
  0
SPLINE
  5
188
100
AcDbEntity
  8
SECTION_JOG_LINES
 62
7
100
AcDbSpline
 70
8
 71
3
 72
8
 73
4
 74
0
 40
0
 40
0
 40
0
 40
0
 40
1
 40
1
 40
1
 40
1
 10
79.753090
 20
439.224711
 30
0.0
 10
79.974408
 20
439.216509
 30
0.0
 10
80.252927
 20
439.189521
 30
0.0
 10
80.544464
 20
439.126948
 30
0.0
  0
SPLINE
  5
189
100
AcDbEntity
  8
SECTION_JOG_LINES
 62
7
100
AcDbSpline
 70
8
 71
3
 72
8
 73
4
 74
0
 40
0
 40
0
 40
0
 40
0
 40
1
 40
1
 40
1
 40
1
 10
80.544464
 20
439.126948
 30
0.0
 10
80.890181
 20
439.052705
 30
0.0
 10
81.254203
 20
438.928245
 30
0.0
 10
81.618227
 20
438.803785
 30
0.0
  0
SPLINE
  5
18a
100
AcDbEntity
  8
SECTION_JOG_LINES
 62
7
100
AcDbSpline
 70
8
 71
3
 72
8
 73
4
 74
0
 40
0
 40
0
 40
0
 40
0
 40
1
 40
1
 40
1
 40
1
 10
76.784454
 20
443.286383
 30
0.0
 10
76.896497
 20
443.375256
 30
0.0
 10
77.008540
 20
443.464130
 30
0.0
 10
77.104520
 20
443.560094
 30
0.0
  0
SPLINE
  5
18b
100
AcDbEntity
  8
SECTION_JOG_LINES
 62
7
100
AcDbSpline
 70
8
 71
3
 72
8
 73
4
 74
0
 40
0
 40
0
 40
0
 40
0
 40
1
 40
1
 40
1
 40
1
 10
77.104520
 20
443.560094
 30
0.0
 10
77.201522
 20
443.657090
 30
0.0
 10
77.282114
 20
443.761336
 30
0.0
 10
77.372734
 20
443.896406
 30
0.0
  0
SPLINE
  5
18c
100
AcDbEntity
  8
SECTION_JOG_LINES
 62
7
100
AcDbSpline
 70
8
 71
3
 72
8
 73
4
 74
0
 40
0
 40
0
 40
0
 40
0
 40
1
 40
1
 40
1
 40
1
 10
77.372734
 20
443.896406
 30
0.0
 10
77.496109
 20
444.080344
 30
0.0
 10
77.638074
 20
444.321459
 30
0.0
 10
77.758793
 20
444.594112
 30
0.0
  0
SPLINE
  5
18d
100
AcDbEntity
  8
SECTION_JOG_LINES
 62
7
100
AcDbSpline
 70
8
 71
3
 72
8
 73
4
 74
0
 40
0
 40
0
 40
0
 40
0
 40
1
 40
1
 40
1
 40
1
 10
77.758793
 20
444.594112
 30
0.0
 10
77.901948
 20
444.917433
 30
0.0
 10
78.015230
 20
445.285098
 30
0.0
 10
78.128511
 20
445.652763
 30
0.0
  0
SPLINE
  5
18e
100
AcDbEntity
  8
SECTION_JOG_LINES
 62
7
100
AcDbSpline
 70
8
 71
3
 72
8
 73
4
 74
0
 40
0
 40
0
 40
0
 40
0
 40
1
 40
1
 40
1
 40
1
 10
74.100484
 20
445.732297
 30
0.0
 10
74.179583
 20
445.851439
 30
0.0
 10
74.258681
 20
445.970581
 30
0.0
 10
74.320305
 20
446.091495
 30
0.0
  0
SPLINE
  5
18f
100
AcDbEntity
  8
SECTION_JOG_LINES
 62
7
100
AcDbSpline
 70
8
 71
3
 72
8
 73
4
 74
0
 40
0
 40
0
 40
0
 40
0
 40
1
 40
1
 40
1
 40
1
 10
74.320305
 20
446.091495
 30
0.0
 10
74.382588
 20
446.213706
 30
0.0
 10
74.427024
 20
446.337743
 30
0.0
 10
74.471464
 20
446.494244
 30
0.0
  0
SPLINE
  5
190
100
AcDbEntity
  8
SECTION_JOG_LINES
 62
7
100
AcDbSpline
 70
8
 71
3
 72
8
 73
4
 74
0
 40
0
 40
0
 40
0
 40
0
 40
1
 40
1
 40
1
 40
1
 10
74.471464
 20
446.494244
 30
0.0
 10
74.531963
 20
446.707286
 30
0.0
 10
74.592468
 20
446.980495
 30
0.0
 10
74.623025
 20
447.277093
 30
0.0
  0
SPLINE
  5
191
100
AcDbEntity
  8
SECTION_JOG_LINES
 62
7
100
AcDbSpline
 70
8
 71
3
 72
8
 73
4
 74
0
 40
0
 40
0
 40
0
 40
0
 40
1
 40
1
 40
1
 40
1
 10
74.623025
 20
447.277093
 30
0.0
 10
74.659262
 20
447.628830
 30
0.0
 10
74.653389
 20
448.013508
 30
0.0
 10
74.647526
 20
448.398159
 30
0.0
  0
SPLINE
  5
192
100
AcDbEntity
  8
SECTION_JOG_LINES
 62
7
100
AcDbSpline
 70
8
 71
3
 72
8
 73
4
 74
0
 40
0
 40
0
 40
0
 40
0
 40
1
 40
1
 40
1
 40
1
 10
63.626653
 20
446.896516
 30
0.0
 10
63.576758
 20
447.030554
 30
0.0
 10
63.526860
 20
447.164566
 30
0.0
 10
63.465252
 20
447.285507
 30
0.0
  0
SPLINE
  5
193
100
AcDbEntity
  8
SECTION_JOG_LINES
 62
7
100
AcDbSpline
 70
8
 71
3
 72
8
 73
4
 74
0
 40
0
 40
0
 40
0
 40
0
 40
1
 40
1
 40
1
 40
1
 10
63.465252
 20
447.285507
 30
0.0
 10
63.402985
 20
447.407718
 30
0.0
 10
63.328754
 20
447.516594
 30
0.0
 10
63.228276
 20
447.644520
 30
0.0
  0
SPLINE
  5
194
100
AcDbEntity
  8
SECTION_JOG_LINES
 62
7
100
AcDbSpline
 70
8
 71
3
 72
8
 73
4
 74
0
 40
0
 40
0
 40
0
 40
0
 40
1
 40
1
 40
1
 40
1
 10
63.228276
 20
447.644520
 30
0.0
 10
63.091475
 20
447.818695
 30
0.0
 10
62.906018
 20
448.028219
 30
0.0
 10
62.684017
 20
448.227291
 30
0.0
  0
SPLINE
  5
195
100
AcDbEntity
  8
SECTION_JOG_LINES
 62
7
100
AcDbSpline
 70
8
 71
3
 72
8
 73
4
 74
0
 40
0
 40
0
 40
0
 40
0
 40
1
 40
1
 40
1
 40
1
 10
62.684017
 20
448.227291
 30
0.0
 10
62.420757
 20
448.463353
 30
0.0
 10
62.106104
 20
448.684703
 30
0.0
 10
61.791450
 20
448.906053
 30
0.0
  0
SPLINE
  5
196
100
AcDbEntity
  8
SECTION_JOG_LINES
 62
7
100
AcDbSpline
 70
8
 71
3
 72
8
 73
4
 74
0
 40
0
 40
0
 40
0
 40
0
 40
1
 40
1
 40
1
 40
1
 10
71.815534
 20
446.896516
 30
0.0
 10
71.865432
 20
447.030554
 30
0.0
 10
71.915327
 20
447.164566
 30
0.0
 10
71.976935
 20
447.285507
 30
0.0
  0
SPLINE
  5
197
100
AcDbEntity
  8
SECTION_JOG_LINES
 62
7
100
AcDbSpline
 70
8
 71
3
 72
8
 73
4
 74
0
 40
0
 40
0
 40
0
 40
0
 40
1
 40
1
 40
1
 40
1
 10
71.976935
 20
447.285507
 30
0.0
 10
72.039202
 20
447.407718
 30
0.0
 10
72.113434
 20
447.516594
 30
0.0
 10
72.213915
 20
447.644520
 30
0.0
  0
SPLINE
  5
198
100
AcDbEntity
  8
SECTION_JOG_LINES
 62
7
100
AcDbSpline
 70
8
 71
3
 72
8
 73
4
 74
0
 40
0
 40
0
 40
0
 40
0
 40
1
 40
1
 40
1
 40
1
 10
72.213915
 20
447.644520
 30
0.0
 10
72.350715
 20
447.818695
 30
0.0
 10
72.536169
 20
448.028219
 30
0.0
 10
72.758170
 20
448.227291
 30
0.0
  0
SPLINE
  5
199
100
AcDbEntity
  8
SECTION_JOG_LINES
 62
7
100
AcDbSpline
 70
8
 71
3
 72
8
 73
4
 74
0
 40
0
 40
0
 40
0
 40
0
 40
1
 40
1
 40
1
 40
1
 10
72.758170
 20
448.227291
 30
0.0
 10
73.021431
 20
448.463353
 30
0.0
 10
73.336084
 20
448.684703
 30
0.0
 10
73.650737
 20
448.906053
 30
0.0
  0
SPLINE
  5
19a
100
AcDbEntity
  8
SECTION_JOG_LINES
 62
7
100
AcDbSpline
 70
8
 71
3
 72
8
 73
4
 74
0
 40
0
 40
0
 40
0
 40
0
 40
1
 40
1
 40
1
 40
1
 10
70.792057
 20
447.229071
 30
0.0
 10
70.830464
 20
447.366840
 30
0.0
 10
70.868873
 20
447.504582
 30
0.0
 10
70.890114
 20
447.638646
 30
0.0
  0
SPLINE
  5
19b
100
AcDbEntity
  8
SECTION_JOG_LINES
 62
7
100
AcDbSpline
 70
8
 71
3
 72
8
 73
4
 74
0
 40
0
 40
0
 40
0
 40
0
 40
1
 40
1
 40
1
 40
1
 10
70.890114
 20
447.638646
 30
0.0
 10
70.911572
 20
447.774113
 30
0.0
 10
70.915514
 20
447.905823
 30
0.0
 10
70.909429
 20
448.068383
 30
0.0
  0
SPLINE
  5
19c
100
AcDbEntity
  8
SECTION_JOG_LINES
 62
7
100
AcDbSpline
 70
8
 71
3
 72
8
 73
4
 74
0
 40
0
 40
0
 40
0
 40
0
 40
1
 40
1
 40
1
 40
1
 10
70.909429
 20
448.068383
 30
0.0
 10
70.901121
 20
448.289706
 30
0.0
 10
70.874255
 20
448.568207
 30
0.0
 10
70.811657
 20
448.859751
 30
0.0
  0
SPLINE
  5
19d
100
AcDbEntity
  8
SECTION_JOG_LINES
 62
7
100
AcDbSpline
 70
8
 71
3
 72
8
 73
4
 74
0
 40
0
 40
0
 40
0
 40
0
 40
1
 40
1
 40
1
 40
1
 10
70.811657
 20
448.859751
 30
0.0
 10
70.737428
 20
449.205456
 30
0.0
 10
70.612974
 20
449.569496
 30
0.0
 10
70.488519
 20
449.933510
 30
0.0
  0
SPLINE
  5
19e
100
AcDbEntity
  8
SECTION_JOG_LINES
 62
7
100
AcDbSpline
 70
8
 71
3
 72
8
 73
4
 74
0
 40
0
 40
0
 40
0
 40
0
 40
1
 40
1
 40
1
 40
1
 10
58.657733
 20
443.286383
 30
0.0
 10
58.545690
 20
443.375256
 30
0.0
 10
58.433647
 20
443.464130
 30
0.0
 10
58.337670
 20
443.560094
 30
0.0
  0
SPLINE
  5
19f
100
AcDbEntity
  8
SECTION_JOG_LINES
 62
7
100
AcDbSpline
 70
8
 71
3
 72
8
 73
4
 74
0
 40
0
 40
0
 40
0
 40
0
 40
1
 40
1
 40
1
 40
1
 10
58.337670
 20
443.560094
 30
0.0
 10
58.240665
 20
443.657090
 30
0.0
 10
58.160073
 20
443.761336
 30
0.0
 10
58.069456
 20
443.896406
 30
0.0
  0
SPLINE
  5
1a0
100
AcDbEntity
  8
SECTION_JOG_LINES
 62
7
100
AcDbSpline
 70
8
 71
3
 72
8
 73
4
 74
0
 40
0
 40
0
 40
0
 40
0
 40
1
 40
1
 40
1
 40
1
 10
58.069456
 20
443.896406
 30
0.0
 10
57.946078
 20
444.080344
 30
0.0
 10
57.804113
 20
444.321459
 30
0.0
 10
57.683395
 20
444.594112
 30
0.0
  0
SPLINE
  5
1a1
100
AcDbEntity
  8
SECTION_JOG_LINES
 62
7
100
AcDbSpline
 70
8
 71
3
 72
8
 73
4
 74
0
 40
0
 40
0
 40
0
 40
0
 40
1
 40
1
 40
1
 40
1
 10
57.683395
 20
444.594112
 30
0.0
 10
57.540239
 20
444.917433
 30
0.0
 10
57.426958
 20
445.285098
 30
0.0
 10
57.313677
 20
445.652763
 30
0.0
  0
SPLINE
  5
1a2
100
AcDbEntity
  8
SECTION_JOG_LINES
 62
7
100
AcDbSpline
 70
8
 71
3
 72
8
 73
4
 74
0
 40
0
 40
0
 40
0
 40
0
 40
1
 40
1
 40
1
 40
1
 10
67.183019
 20
447.630233
 30
0.0
 10
67.176986
 20
447.773134
 30
0.0
 10
67.170927
 20
447.916009
 30
0.0
 10
67.149718
 20
448.050073
 30
0.0
  0
SPLINE
  5
1a3
100
AcDbEntity
  8
SECTION_JOG_LINES
 62
7
100
AcDbSpline
 70
8
 71
3
 72
8
 73
4
 74
0
 40
0
 40
0
 40
0
 40
0
 40
1
 40
1
 40
1
 40
1
 10
67.149718
 20
448.050073
 30
0.0
 10
67.128260
 20
448.185540
 30
0.0
 10
67.091309
 20
448.312011
 30
0.0
 10
67.035280
 20
448.464728
 30
0.0
  0
SPLINE
  5
1a4
100
AcDbEntity
  8
SECTION_JOG_LINES
 62
7
100
AcDbSpline
 70
8
 71
3
 72
8
 73
4
 74
0
 40
0
 40
0
 40
0
 40
0
 40
1
 40
1
 40
1
 40
1
 10
67.035280
 20
448.464728
 30
0.0
 10
66.958998
 20
448.672664
 30
0.0
 10
66.847368
 20
448.929231
 30
0.0
 10
66.697749
 20
449.187173
 30
0.0
  0
SPLINE
  5
1a5
100
AcDbEntity
  8
SECTION_JOG_LINES
 62
7
100
AcDbSpline
 70
8
 71
3
 72
8
 73
4
 74
0
 40
0
 40
0
 40
0
 40
0
 40
1
 40
1
 40
1
 40
1
 10
66.697749
 20
449.187173
 30
0.0
 10
66.520319
 20
449.493031
 30
0.0
 10
66.289465
 20
449.800768
 30
0.0
 10
66.058613
 20
450.108505
 30
0.0
  0
SPLINE
  5
1a6
100
AcDbEntity
  8
SECTION_JOG_LINES
 62
7
100
AcDbSpline
 70
8
 71
3
 72
8
 73
4
 74
0
 40
0
 40
0
 40
0
 40
0
 40
1
 40
1
 40
1
 40
1
 10
61.341704
 20
445.732297
 30
0.0
 10
61.262607
 20
445.851439
 30
0.0
 10
61.183509
 20
445.970581
 30
0.0
 10
61.121883
 20
446.091495
 30
0.0
  0
SPLINE
  5
1a7
100
AcDbEntity
  8
SECTION_JOG_LINES
 62
7
100
AcDbSpline
 70
8
 71
3
 72
8
 73
4
 74
0
 40
0
 40
0
 40
0
 40
0
 40
1
 40
1
 40
1
 40
1
 10
61.121883
 20
446.091495
 30
0.0
 10
61.059600
 20
446.213706
 30
0.0
 10
61.015163
 20
446.337743
 30
0.0
 10
60.970726
 20
446.494244
 30
0.0
  0
SPLINE
  5
1a8
100
AcDbEntity
  8
SECTION_JOG_LINES
 62
7
100
AcDbSpline
 70
8
 71
3
 72
8
 73
4
 74
0
 40
0
 40
0
 40
0
 40
0
 40
1
 40
1
 40
1
 40
1
 10
60.970726
 20
446.494244
 30
0.0
 10
60.910224
 20
446.707286
 30
0.0
 10
60.849719
 20
446.980495
 30
0.0
 10
60.819162
 20
447.277093
 30
0.0
  0
SPLINE
  5
1a9
100
AcDbEntity
  8
SECTION_JOG_LINES
 62
7
100
AcDbSpline
 70
8
 71
3
 72
8
 73
4
 74
0
 40
0
 40
0
 40
0
 40
0
 40
1
 40
1
 40
1
 40
1
 10
60.819162
 20
447.277093
 30
0.0
 10
60.782925
 20
447.628830
 30
0.0
 10
60.788801
 20
448.013508
 30
0.0
 10
60.794662
 20
448.398159
 30
0.0
  0
SPLINE
  5
1aa
100
AcDbEntity
  8
SECTION_JOG_LINES
 62
7
100
AcDbSpline
 70
8
 71
3
 72
8
 73
4
 74
0
 40
0
 40
0
 40
0
 40
0
 40
1
 40
1
 40
1
 40
1
 10
57.035438
 20
439.749777
 30
0.0
 10
57.088706
 20
439.903027
 30
0.0
 10
57.011772
 20
440.071036
 30
0.0
 10
56.860948
 20
440.130830
 30
0.0
  0
SPLINE
  5
1ab
100
AcDbEntity
  8
SECTION_JOG_LINES
 62
7
100
AcDbSpline
 70
8
 71
3
 72
8
 73
4
 74
0
 40
0
 40
0
 40
0
 40
0
 40
1
 40
1
 40
1
 40
1
 10
70.997755
 20
425.208806
 30
0.0
 10
71.144282
 20
425.253153
 30
0.0
 10
71.289895
 20
425.300470
 30
0.0
 10
71.434502
 20
425.350728
 30
0.0
  0
SPLINE
  5
1ac
100
AcDbEntity
  8
SECTION_JOG_LINES
 62
7
100
AcDbSpline
 70
8
 71
3
 72
8
 73
4
 74
0
 40
0
 40
0
 40
0
 40
0
 40
1
 40
1
 40
1
 40
1
 10
70.997755
 20
425.208806
 30
0.0
 10
70.842478
 20
425.161815
 30
0.0
 10
70.751788
 20
425.000835
 30
0.0
 10
70.792057
 20
424.843681
 30
0.0
  0
SPLINE
  5
1ad
100
AcDbEntity
  8
SECTION_JOG_LINES
 62
7
100
AcDbSpline
 70
8
 71
3
 72
8
 73
4
 74
0
 40
0
 40
0
 40
0
 40
0
 40
1
 40
1
 40
1
 40
1
 10
78.581239
 20
440.130830
 30
0.0
 10
78.430416
 20
440.071036
 30
0.0
 10
78.353482
 20
439.903027
 30
0.0
 10
78.406749
 20
439.749777
 30
0.0
  0
SPLINE
  5
1ae
100
AcDbEntity
  8
SECTION_JOG_LINES
 62
7
100
AcDbSpline
 70
8
 71
3
 72
8
 73
4
 74
0
 40
0
 40
0
 40
0
 40
0
 40
1
 40
1
 40
1
 40
1
 10
69.383577
 20
421.964247
 30
0.0
 10
69.754048
 20
422.008011
 30
0.0
 10
70.122647
 20
422.066389
 30
0.0
 10
70.488511
 20
422.139242
 30
0.0
  0
SPLINE
  5
1af
100
AcDbEntity
  8
SECTION_JOG_LINES
 62
7
100
AcDbSpline
 70
8
 71
3
 72
8
 73
4
 74
0
 40
0
 40
0
 40
0
 40
0
 40
1
 40
1
 40
1
 40
1
 10
57.035438
 20
439.749777
 30
0.0
 10
56.985185
 20
439.605169
 30
0.0
 10
56.937872
 20
439.459557
 30
0.0
 10
56.893529
 20
439.313029
 30
0.0
  0
SPLINE
  5
1b0
100
AcDbEntity
  8
SECTION_JOG_LINES
 62
7
100
AcDbSpline
 70
8
 71
3
 72
8
 73
4
 74
0
 40
0
 40
0
 40
0
 40
0
 40
1
 40
1
 40
1
 40
1
 10
58.705938
 20
442.870087
 30
0.0
 10
58.613458
 20
442.748084
 30
0.0
 10
58.523464
 20
442.624216
 30
0.0
 10
58.436013
 20
442.498559
 30
0.0
  0
SPLINE
  5
1b1
100
AcDbEntity
  8
SECTION_JOG_LINES
 62
7
100
AcDbSpline
 70
8
 71
3
 72
8
 73
4
 74
0
 40
0
 40
0
 40
0
 40
0
 40
1
 40
1
 40
1
 40
1
 10
64.953679
 20
422.139242
 30
0.0
 10
65.319543
 20
422.066389
 30
0.0
 10
65.688142
 20
422.008011
 30
0.0
 10
66.058613
 20
421.964247
 30
0.0
  0
SPLINE
  5
1b2
100
AcDbEntity
  8
SECTION_JOG_LINES
 62
7
100
AcDbSpline
 70
8
 71
3
 72
8
 73
4
 74
0
 40
0
 40
0
 40
0
 40
0
 40
1
 40
1
 40
1
 40
1
 10
74.183285
 20
426.751300
 30
0.0
 10
74.308939
 20
426.838753
 30
0.0
 10
74.432804
 20
426.928748
 30
0.0
 10
74.554805
 20
427.021228
 30
0.0
  0
SPLINE
  5
1b3
100
AcDbEntity
  8
SECTION_JOG_LINES
 62
7
100
AcDbSpline
 70
8
 71
3
 72
8
 73
4
 74
0
 40
0
 40
0
 40
0
 40
0
 40
1
 40
1
 40
1
 40
1
 10
71.434502
 20
446.722024
 30
0.0
 10
71.289895
 20
446.772282
 30
0.0
 10
71.144282
 20
446.819599
 30
0.0
 10
70.997755
 20
446.863946
 30
0.0
  0
SPLINE
  5
1b4
100
AcDbEntity
  8
SECTION_JOG_LINES
 62
7
100
AcDbSpline
 70
8
 71
3
 72
8
 73
4
 74
0
 40
0
 40
0
 40
0
 40
0
 40
1
 40
1
 40
1
 40
1
 10
74.183285
 20
426.751300
 30
0.0
 10
74.050129
 20
426.658626
 30
0.0
 10
74.013623
 20
426.477500
 30
0.0
 10
74.100484
 20
426.340482
 30
0.0
  0
SPLINE
  5
1b5
100
AcDbEntity
  8
SECTION_JOG_LINES
 62
7
100
AcDbSpline
 70
8
 71
3
 72
8
 73
4
 74
0
 40
0
 40
0
 40
0
 40
0
 40
1
 40
1
 40
1
 40
1
 10
71.815534
 20
425.176236
 30
0.0
 10
71.755742
 20
425.327049
 30
0.0
 10
71.587747
 20
425.403982
 30
0.0
 10
71.434502
 20
425.350728
 30
0.0
  0
SPLINE
  5
1b6
100
AcDbEntity
  8
SECTION_JOG_LINES
 62
7
100
AcDbSpline
 70
8
 71
3
 72
8
 73
4
 74
0
 40
0
 40
0
 40
0
 40
0
 40
1
 40
1
 40
1
 40
1
 10
64.650133
 20
424.843681
 30
0.0
 10
64.690402
 20
425.000835
 30
0.0
 10
64.599710
 20
425.161816
 30
0.0
 10
64.444433
 20
425.208806
 30
0.0
  0
SPLINE
  5
1b7
100
AcDbEntity
  8
SECTION_JOG_LINES
 62
7
100
AcDbSpline
 70
8
 71
3
 72
8
 73
4
 74
0
 40
0
 40
0
 40
0
 40
0
 40
1
 40
1
 40
1
 40
1
 10
53.823960
 20
438.803785
 30
0.0
 10
53.751104
 20
438.437924
 30
0.0
 10
53.692724
 20
438.069328
 30
0.0
 10
53.648957
 20
437.698859
 30
0.0
  0
SPLINE
  5
1b8
100
AcDbEntity
  8
SECTION_JOG_LINES
 62
7
100
AcDbSpline
 70
8
 71
3
 72
8
 73
4
 74
0
 40
0
 40
0
 40
0
 40
0
 40
1
 40
1
 40
1
 40
1
 10
68.259169
 20
424.442520
 30
0.0
 10
68.248901
 20
424.604424
 30
0.0
 10
68.112904
 20
424.729499
 30
0.0
 10
67.950707
 20
424.726206
 30
0.0
  0
SPLINE
  5
1b9
100
AcDbEntity
  8
SECTION_JOG_LINES
 62
7
100
AcDbSpline
 70
8
 71
3
 72
8
 73
4
 74
0
 40
0
 40
0
 40
0
 40
0
 40
1
 40
1
 40
1
 40
1
 10
58.705938
 20
442.870087
 30
0.0
 10
58.803936
 20
442.999373
 30
0.0
 10
58.782683
 20
443.182913
 30
0.0
 10
58.657733
 20
443.286383
 30
0.0
  0
SPLINE
  5
1ba
100
AcDbEntity
  8
SECTION_JOG_LINES
 62
7
100
AcDbSpline
 70
8
 71
3
 72
8
 73
4
 74
0
 40
0
 40
0
 40
0
 40
0
 40
1
 40
1
 40
1
 40
1
 10
64.444433
 20
446.863946
 30
0.0
 10
64.599710
 20
446.910936
 30
0.0
 10
64.690402
 20
447.071917
 30
0.0
 10
64.650133
 20
447.229071
 30
0.0
  0
SPLINE
  5
1bb
100
AcDbEntity
  8
SECTION_JOG_LINES
 62
7
100
AcDbSpline
 70
8
 71
3
 72
8
 73
4
 74
0
 40
0
 40
0
 40
0
 40
0
 40
1
 40
1
 40
1
 40
1
 10
63.626653
 20
446.896516
 30
0.0
 10
63.686445
 20
446.745703
 30
0.0
 10
63.854441
 20
446.668770
 30
0.0
 10
64.007685
 20
446.722024
 30
0.0
  0
SPLINE
  5
1bc
100
AcDbEntity
  8
SECTION_JOG_LINES
 62
7
100
AcDbSpline
 70
8
 71
3
 72
8
 73
4
 74
0
 40
0
 40
0
 40
0
 40
0
 40
1
 40
1
 40
1
 40
1
 10
64.007685
 20
425.350728
 30
0.0
 10
63.854441
 20
425.403982
 30
0.0
 10
63.686445
 20
425.327049
 30
0.0
 10
63.626653
 20
425.176236
 30
0.0
  0
SPLINE
  5
1bd
100
AcDbEntity
  8
SECTION_JOG_LINES
 62
7
100
AcDbSpline
 70
8
 71
3
 72
8
 73
4
 74
0
 40
0
 40
0
 40
0
 40
0
 40
1
 40
1
 40
1
 40
1
 10
64.007685
 20
425.350728
 30
0.0
 10
64.152292
 20
425.300470
 30
0.0
 10
64.297905
 20
425.253153
 30
0.0
 10
64.444433
 20
425.208806
 30
0.0
  0
SPLINE
  5
1be
100
AcDbEntity
  8
SECTION_JOG_LINES
 62
7
100
AcDbSpline
 70
8
 71
3
 72
8
 73
4
 74
0
 40
0
 40
0
 40
0
 40
0
 40
1
 40
1
 40
1
 40
1
 10
60.794675
 20
423.674593
 30
0.0
 10
61.120119
 20
423.492249
 30
0.0
 10
61.452636
 20
423.322828
 30
0.0
 10
61.791450
 20
423.166725
 30
0.0
  0
SPLINE
  5
1bf
100
AcDbEntity
  8
SECTION_JOG_LINES
 62
7
100
AcDbSpline
 70
8
 71
3
 72
8
 73
4
 74
0
 40
0
 40
0
 40
0
 40
0
 40
1
 40
1
 40
1
 40
1
 10
67.491480
 20
424.726206
 30
0.0
 10
67.329284
 20
424.729499
 30
0.0
 10
67.193286
 20
424.604424
 30
0.0
 10
67.183019
 20
424.442520
 30
0.0
  0
SPLINE
  5
1c0
100
AcDbEntity
  8
SECTION_JOG_LINES
 62
7
100
AcDbSpline
 70
8
 71
3
 72
8
 73
4
 74
0
 40
0
 40
0
 40
0
 40
0
 40
1
 40
1
 40
1
 40
1
 10
56.127229
 20
435.498293
 30
0.0
 10
56.289144
 20
435.508557
 30
0.0
 10
56.414225
 20
435.644565
 30
0.0
 10
56.410923
 20
435.806771
 30
0.0
  0
SPLINE
  5
1c1
100
AcDbEntity
  8
SECTION_JOG_LINES
 62
7
100
AcDbSpline
 70
8
 71
3
 72
8
 73
4
 74
0
 40
0
 40
0
 40
0
 40
0
 40
1
 40
1
 40
1
 40
1
 10
67.491480
 20
424.726206
 30
0.0
 10
67.644540
 20
424.723099
 30
0.0
 10
67.797647
 20
424.723099
 30
0.0
 10
67.950707
 20
424.726206
 30
0.0
  0
SPLINE
  5
1c2
100
AcDbEntity
  8
SECTION_JOG_LINES
 62
7
100
AcDbSpline
 70
8
 71
3
 72
8
 73
4
 74
0
 40
0
 40
0
 40
0
 40
0
 40
1
 40
1
 40
1
 40
1
 10
76.736250
 20
429.202665
 30
0.0
 10
76.828730
 20
429.324668
 30
0.0
 10
76.918725
 20
429.448536
 30
0.0
 10
77.006177
 20
429.574193
 30
0.0
  0
SPLINE
  5
1c3
100
AcDbEntity
  8
SECTION_JOG_LINES
 62
7
100
AcDbSpline
 70
8
 71
3
 72
8
 73
4
 74
0
 40
0
 40
0
 40
0
 40
0
 40
1
 40
1
 40
1
 40
1
 10
56.860948
 20
431.941949
 30
0.0
 10
57.011758
 20
432.001742
 30
0.0
 10
57.088689
 20
432.169733
 30
0.0
 10
57.035438
 20
432.322975
 30
0.0
  0
SPLINE
  5
1c4
100
AcDbEntity
  8
SECTION_JOG_LINES
 62
7
100
AcDbSpline
 70
8
 71
3
 72
8
 73
4
 74
0
 40
0
 40
0
 40
0
 40
0
 40
1
 40
1
 40
1
 40
1
 10
78.548659
 20
439.313029
 30
0.0
 10
78.504316
 20
439.459557
 30
0.0
 10
78.457003
 20
439.605169
 30
0.0
 10
78.406749
 20
439.749777
 30
0.0
  0
SPLINE
  5
1c5
100
AcDbEntity
  8
SECTION_JOG_LINES
 62
7
100
AcDbSpline
 70
8
 71
3
 72
8
 73
4
 74
0
 40
0
 40
0
 40
0
 40
0
 40
1
 40
1
 40
1
 40
1
 10
58.436013
 20
429.574193
 30
0.0
 10
58.343334
 20
429.707347
 30
0.0
 10
58.162205
 20
429.743848
 30
0.0
 10
58.025189
 20
429.656981
 30
0.0
  0
SPLINE
  5
1c6
100
AcDbEntity
  8
SECTION_JOG_LINES
 62
7
100
AcDbSpline
 70
8
 71
3
 72
8
 73
4
 74
0
 40
0
 40
0
 40
0
 40
0
 40
1
 40
1
 40
1
 40
1
 10
77.006177
 20
442.498559
 30
0.0
 10
76.918725
 20
442.624216
 30
0.0
 10
76.828730
 20
442.748084
 30
0.0
 10
76.736250
 20
442.870087
 30
0.0
  0
SPLINE
  5
1c7
100
AcDbEntity
  8
SECTION_JOG_LINES
 62
7
100
AcDbSpline
 70
8
 71
3
 72
8
 73
4
 74
0
 40
0
 40
0
 40
0
 40
0
 40
1
 40
1
 40
1
 40
1
 10
58.104722
 20
446.443788
 30
0.0
 10
57.830731
 20
446.190628
 30
0.0
 10
57.566843
 20
445.926748
 30
0.0
 10
57.313677
 20
445.652763
 30
0.0
  0
SPLINE
  5
1c8
100
AcDbEntity
  8
SECTION_JOG_LINES
 62
7
100
AcDbSpline
 70
8
 71
3
 72
8
 73
4
 74
0
 40
0
 40
0
 40
0
 40
0
 40
1
 40
1
 40
1
 40
1
 10
57.313677
 20
426.420015
 30
0.0
 10
57.566843
 20
426.146022
 30
0.0
 10
57.830730
 20
425.882132
 30
0.0
 10
58.104723
 20
425.628964
 30
0.0
  0
SPLINE
  5
1c9
100
AcDbEntity
  8
SECTION_JOG_LINES
 62
7
100
AcDbSpline
 70
8
 71
3
 72
8
 73
4
 74
0
 40
0
 40
0
 40
0
 40
0
 40
1
 40
1
 40
1
 40
1
 10
56.410923
 20
436.265981
 30
0.0
 10
56.407816
 20
436.112927
 30
0.0
 10
56.407816
 20
435.959825
 30
0.0
 10
56.410923
 20
435.806771
 30
0.0
  0
SPLINE
  5
1ca
100
AcDbEntity
  8
SECTION_JOG_LINES
 62
7
100
AcDbSpline
 70
8
 71
3
 72
8
 73
4
 74
0
 40
0
 40
0
 40
0
 40
0
 40
1
 40
1
 40
1
 40
1
 10
76.736250
 20
429.202665
 30
0.0
 10
76.638252
 20
429.073379
 30
0.0
 10
76.659504
 20
428.889839
 30
0.0
 10
76.784454
 20
428.786369
 30
0.0
  0
SPLINE
  5
1cb
100
AcDbEntity
  8
SECTION_JOG_LINES
 62
7
100
AcDbSpline
 70
8
 71
3
 72
8
 73
4
 74
0
 40
0
 40
0
 40
0
 40
0
 40
1
 40
1
 40
1
 40
1
 10
56.893529
 20
432.759723
 30
0.0
 10
56.846533
 20
432.914996
 30
0.0
 10
56.685553
 20
433.005681
 30
0.0
 10
56.528401
 20
432.965410
 30
0.0
  0
SPLINE
  5
1cc
100
AcDbEntity
  8
SECTION_JOG_LINES
 62
7
100
AcDbSpline
 70
8
 71
3
 72
8
 73
4
 74
0
 40
0
 40
0
 40
0
 40
0
 40
1
 40
1
 40
1
 40
1
 10
56.410923
 20
436.265981
 30
0.0
 10
56.414225
 20
436.428187
 30
0.0
 10
56.289144
 20
436.564196
 30
0.0
 10
56.127229
 20
436.574459
 30
0.0
  0
SPLINE
  5
1cd
100
AcDbEntity
  8
SECTION_JOG_LINES
 62
7
100
AcDbSpline
 70
8
 71
3
 72
8
 73
4
 74
0
 40
0
 40
0
 40
0
 40
0
 40
1
 40
1
 40
1
 40
1
 10
56.528401
 20
439.107342
 30
0.0
 10
56.685553
 20
439.067071
 30
0.0
 10
56.846533
 20
439.157756
 30
0.0
 10
56.893529
 20
439.313029
 30
0.0
  0
SPLINE
  5
1ce
100
AcDbEntity
  8
SECTION_JOG_LINES
 62
7
100
AcDbSpline
 70
8
 71
3
 72
8
 73
4
 74
0
 40
0
 40
0
 40
0
 40
0
 40
1
 40
1
 40
1
 40
1
 10
79.314958
 20
436.574459
 30
0.0
 10
79.153044
 20
436.564196
 30
0.0
 10
79.027963
 20
436.428187
 30
0.0
 10
79.031264
 20
436.265981
 30
0.0
  0
SPLINE
  5
1cf
100
AcDbEntity
  8
SECTION_JOG_LINES
 62
7
100
AcDbSpline
 70
8
 71
3
 72
8
 73
4
 74
0
 40
0
 40
0
 40
0
 40
0
 40
1
 40
1
 40
1
 40
1
 10
56.893529
 20
432.759723
 30
0.0
 10
56.937872
 20
432.613195
 30
0.0
 10
56.985185
 20
432.467583
 30
0.0
 10
57.035438
 20
432.322975
 30
0.0
  0
SPLINE
  5
1d0
100
AcDbEntity
  8
SECTION_JOG_LINES
 62
7
100
AcDbSpline
 70
8
 71
3
 72
8
 73
4
 74
0
 40
0
 40
0
 40
0
 40
0
 40
1
 40
1
 40
1
 40
1
 10
54.851430
 20
430.106746
 30
0.0
 10
55.007537
 20
429.767926
 30
0.0
 10
55.176963
 20
429.435404
 30
0.0
 10
55.359313
 20
429.109955
 30
0.0
  0
SPLINE
  5
1d1
100
AcDbEntity
  8
SECTION_JOG_LINES
 62
7
100
AcDbSpline
 70
8
 71
3
 72
8
 73
4
 74
0
 40
0
 40
0
 40
0
 40
0
 40
1
 40
1
 40
1
 40
1
 10
58.436013
 20
429.574193
 30
0.0
 10
58.523464
 20
429.448536
 30
0.0
 10
58.613458
 20
429.324668
 30
0.0
 10
58.705938
 20
429.202665
 30
0.0
  0
SPLINE
  5
1d2
100
AcDbEntity
  8
SECTION_JOG_LINES
 62
7
100
AcDbSpline
 70
8
 71
3
 72
8
 73
4
 74
0
 40
0
 40
0
 40
0
 40
0
 40
1
 40
1
 40
1
 40
1
 10
77.337465
 20
425.628964
 30
0.0
 10
77.611457
 20
425.882132
 30
0.0
 10
77.875345
 20
426.146022
 30
0.0
 10
78.128511
 20
426.420015
 30
0.0
  0
SPLINE
  5
1d3
100
AcDbEntity
  8
SECTION_JOG_LINES
 62
7
100
AcDbSpline
 70
8
 71
3
 72
8
 73
4
 74
0
 40
0
 40
0
 40
0
 40
0
 40
1
 40
1
 40
1
 40
1
 10
60.887382
 20
427.021228
 30
0.0
 10
60.758095
 20
427.119231
 30
0.0
 10
60.574549
 20
427.097976
 30
0.0
 10
60.471079
 20
426.973021
 30
0.0
  0
SPLINE
  5
1d4
100
AcDbEntity
  8
SECTION_JOG_LINES
 62
7
100
AcDbSpline
 70
8
 71
3
 72
8
 73
4
 74
0
 40
0
 40
0
 40
0
 40
0
 40
1
 40
1
 40
1
 40
1
 10
77.416999
 20
429.656981
 30
0.0
 10
77.279983
 20
429.743846
 30
0.0
 10
77.098856
 20
429.707345
 30
0.0
 10
77.006177
 20
429.574193
 30
0.0
  0
SPLINE
  5
1d5
100
AcDbEntity
  8
SECTION_JOG_LINES
 62
7
100
AcDbSpline
 70
8
 71
3
 72
8
 73
4
 74
0
 40
0
 40
0
 40
0
 40
0
 40
1
 40
1
 40
1
 40
1
 10
80.082874
 20
429.109955
 30
0.0
 10
80.265224
 20
429.435404
 30
0.0
 10
80.434650
 20
429.767926
 30
0.0
 10
80.590758
 20
430.106746
 30
0.0
  0
SPLINE
  5
1d6
100
AcDbEntity
  8
SECTION_JOG_LINES
 62
7
100
AcDbSpline
 70
8
 71
3
 72
8
 73
4
 74
0
 40
0
 40
0
 40
0
 40
0
 40
1
 40
1
 40
1
 40
1
 10
78.406749
 20
432.322975
 30
0.0
 10
78.353498
 20
432.169733
 30
0.0
 10
78.430429
 20
432.001742
 30
0.0
 10
78.581239
 20
431.941949
 30
0.0
  0
SPLINE
  5
1d7
100
AcDbEntity
  8
SECTION_JOG_LINES
 62
7
100
AcDbSpline
 70
8
 71
3
 72
8
 73
4
 74
0
 40
0
 40
0
 40
0
 40
0
 40
1
 40
1
 40
1
 40
1
 10
79.031264
 20
435.806771
 30
0.0
 10
79.027963
 20
435.644565
 30
0.0
 10
79.153044
 20
435.508557
 30
0.0
 10
79.314958
 20
435.498293
 30
0.0
  0
SPLINE
  5
1d8
100
AcDbEntity
  8
SECTION_JOG_LINES
 62
7
100
AcDbSpline
 70
8
 71
3
 72
8
 73
4
 74
0
 40
0
 40
0
 40
0
 40
0
 40
1
 40
1
 40
1
 40
1
 10
78.406749
 20
432.322975
 30
0.0
 10
78.457003
 20
432.467583
 30
0.0
 10
78.504316
 20
432.613195
 30
0.0
 10
78.548659
 20
432.759723
 30
0.0
  0
SPLINE
  5
1d9
100
AcDbEntity
  8
SECTION_JOG_LINES
 62
7
100
AcDbSpline
 70
8
 71
3
 72
8
 73
4
 74
0
 40
0
 40
0
 40
0
 40
0
 40
1
 40
1
 40
1
 40
1
 10
53.648957
 20
434.373893
 30
0.0
 10
53.692724
 20
434.003424
 30
0.0
 10
53.751104
 20
433.634828
 30
0.0
 10
53.823960
 20
433.268967
 30
0.0
  0
SPLINE
  5
1da
100
AcDbEntity
  8
SECTION_JOG_LINES
 62
7
100
AcDbSpline
 70
8
 71
3
 72
8
 73
4
 74
0
 40
0
 40
0
 40
0
 40
0
 40
1
 40
1
 40
1
 40
1
 10
78.913789
 20
432.965410
 30
0.0
 10
78.756637
 20
433.005683
 30
0.0
 10
78.595654
 20
432.914998
 30
0.0
 10
78.548659
 20
432.759723
 30
0.0
  0
SPLINE
  5
1db
100
AcDbEntity
  8
SECTION_JOG_LINES
 62
7
100
AcDbSpline
 70
8
 71
3
 72
8
 73
4
 74
0
 40
0
 40
0
 40
0
 40
0
 40
1
 40
1
 40
1
 40
1
 10
61.258905
 20
445.321452
 30
0.0
 10
61.133251
 20
445.233999
 30
0.0
 10
61.009384
 20
445.144005
 30
0.0
 10
60.887382
 20
445.051524
 30
0.0
  0
SPLINE
  5
1dc
100
AcDbEntity
  8
SECTION_JOG_LINES
 62
7
100
AcDbSpline
 70
8
 71
3
 72
8
 73
4
 74
0
 40
0
 40
0
 40
0
 40
0
 40
1
 40
1
 40
1
 40
1
 10
81.618227
 20
433.268967
 30
0.0
 10
81.691084
 20
433.634828
 30
0.0
 10
81.749463
 20
434.003424
 30
0.0
 10
81.793231
 20
434.373893
 30
0.0
  0
SPLINE
  5
1dd
100
AcDbEntity
  8
SECTION_JOG_LINES
 62
7
100
AcDbSpline
 70
8
 71
3
 72
8
 73
4
 74
0
 40
0
 40
0
 40
0
 40
0
 40
1
 40
1
 40
1
 40
1
 10
67.183019
 20
447.630233
 30
0.0
 10
67.193286
 20
447.468328
 30
0.0
 10
67.329284
 20
447.343253
 30
0.0
 10
67.491480
 20
447.346546
 30
0.0
  0
SPLINE
  5
1de
100
AcDbEntity
  8
SECTION_JOG_LINES
 62
7
100
AcDbSpline
 70
8
 71
3
 72
8
 73
4
 74
0
 40
0
 40
0
 40
0
 40
0
 40
1
 40
1
 40
1
 40
1
 10
79.031264
 20
435.806771
 30
0.0
 10
79.034371
 20
435.959825
 30
0.0
 10
79.034371
 20
436.112927
 30
0.0
 10
79.031264
 20
436.265981
 30
0.0
  0
SPLINE
  5
1df
100
AcDbEntity
  8
SECTION_JOG_LINES
 62
7
100
AcDbSpline
 70
8
 71
3
 72
8
 73
4
 74
0
 40
0
 40
0
 40
0
 40
0
 40
1
 40
1
 40
1
 40
1
 10
74.971108
 20
426.973021
 30
0.0
 10
74.867639
 20
427.097976
 30
0.0
 10
74.684093
 20
427.119231
 30
0.0
 10
74.554805
 20
427.021228
 30
0.0
  0
SPLINE
  5
1e0
100
AcDbEntity
  8
SECTION_JOG_LINES
 62
7
100
AcDbSpline
 70
8
 71
3
 72
8
 73
4
 74
0
 40
0
 40
0
 40
0
 40
0
 40
1
 40
1
 40
1
 40
1
 10
58.025189
 20
442.415771
 30
0.0
 10
58.162205
 20
442.328904
 30
0.0
 10
58.343334
 20
442.365405
 30
0.0
 10
58.436013
 20
442.498559
 30
0.0
  0
SPLINE
  5
1e1
100
AcDbEntity
  8
SECTION_JOG_LINES
 62
7
100
AcDbSpline
 70
8
 71
3
 72
8
 73
4
 74
0
 40
0
 40
0
 40
0
 40
0
 40
1
 40
1
 40
1
 40
1
 10
81.793231
 20
437.698859
 30
0.0
 10
81.749463
 20
438.069328
 30
0.0
 10
81.691084
 20
438.437924
 30
0.0
 10
81.618227
 20
438.803785
 30
0.0
  0
SPLINE
  5
1e2
100
AcDbEntity
  8
SECTION_JOG_LINES
 62
7
100
AcDbSpline
 70
8
 71
3
 72
8
 73
4
 74
0
 40
0
 40
0
 40
0
 40
0
 40
1
 40
1
 40
1
 40
1
 10
67.950707
 20
447.346546
 30
0.0
 10
67.797647
 20
447.349654
 30
0.0
 10
67.644540
 20
447.349654
 30
0.0
 10
67.491480
 20
447.346546
 30
0.0
  0
SPLINE
  5
1e3
100
AcDbEntity
  8
SECTION_JOG_LINES
 62
7
100
AcDbSpline
 70
8
 71
3
 72
8
 73
4
 74
0
 40
0
 40
0
 40
0
 40
0
 40
1
 40
1
 40
1
 40
1
 10
60.471079
 20
445.099731
 30
0.0
 10
60.574549
 20
444.974776
 30
0.0
 10
60.758095
 20
444.953521
 30
0.0
 10
60.887382
 20
445.051524
 30
0.0
  0
SPLINE
  5
1e4
100
AcDbEntity
  8
SECTION_JOG_LINES
 62
7
100
AcDbSpline
 70
8
 71
3
 72
8
 73
4
 74
0
 40
0
 40
0
 40
0
 40
0
 40
1
 40
1
 40
1
 40
1
 10
74.100484
 20
445.732297
 30
0.0
 10
74.013606
 20
445.595273
 30
0.0
 10
74.050114
 20
445.414127
 30
0.0
 10
74.183285
 20
445.321452
 30
0.0
  0
SPLINE
  5
1e5
100
AcDbEntity
  8
SECTION_JOG_LINES
 62
7
100
AcDbSpline
 70
8
 71
3
 72
8
 73
4
 74
0
 40
0
 40
0
 40
0
 40
0
 40
1
 40
1
 40
1
 40
1
 10
78.548659
 20
439.313029
 30
0.0
 10
78.595654
 20
439.157754
 30
0.0
 10
78.756637
 20
439.067069
 30
0.0
 10
78.913789
 20
439.107342
 30
0.0
  0
SPLINE
  5
1e6
100
AcDbEntity
  8
SECTION_JOG_LINES
 62
7
100
AcDbSpline
 70
8
 71
3
 72
8
 73
4
 74
0
 40
0
 40
0
 40
0
 40
0
 40
1
 40
1
 40
1
 40
1
 10
66.058613
 20
450.108505
 30
0.0
 10
65.688142
 20
450.064741
 30
0.0
 10
65.319543
 20
450.006363
 30
0.0
 10
64.953679
 20
449.933510
 30
0.0
  0
SPLINE
  5
1e7
100
AcDbEntity
  8
SECTION_JOG_LINES
 62
7
100
AcDbSpline
 70
8
 71
3
 72
8
 73
4
 74
0
 40
0
 40
0
 40
0
 40
0
 40
1
 40
1
 40
1
 40
1
 10
80.590758
 20
441.966033
 30
0.0
 10
80.434650
 20
442.304843
 30
0.0
 10
80.265223
 20
442.637357
 30
0.0
 10
80.082874
 20
442.962797
 30
0.0
  0
SPLINE
  5
1e8
100
AcDbEntity
  8
SECTION_JOG_LINES
 62
7
100
AcDbSpline
 70
8
 71
3
 72
8
 73
4
 74
0
 40
0
 40
0
 40
0
 40
0
 40
1
 40
1
 40
1
 40
1
 10
77.006177
 20
442.498559
 30
0.0
 10
77.098856
 20
442.365407
 30
0.0
 10
77.279983
 20
442.328906
 30
0.0
 10
77.416999
 20
442.415771
 30
0.0
  0
SPLINE
  5
1e9
100
AcDbEntity
  8
SECTION_JOG_LINES
 62
7
100
AcDbSpline
 70
8
 71
3
 72
8
 73
4
 74
0
 40
0
 40
0
 40
0
 40
0
 40
1
 40
1
 40
1
 40
1
 10
76.784454
 20
443.286383
 30
0.0
 10
76.659504
 20
443.182913
 30
0.0
 10
76.638252
 20
442.999373
 30
0.0
 10
76.736250
 20
442.870087
 30
0.0
  0
SPLINE
  5
1ea
100
AcDbEntity
  8
SECTION_JOG_LINES
 62
7
100
AcDbSpline
 70
8
 71
3
 72
8
 73
4
 74
0
 40
0
 40
0
 40
0
 40
0
 40
1
 40
1
 40
1
 40
1
 10
58.657733
 20
428.786369
 30
0.0
 10
58.782683
 20
428.889839
 30
0.0
 10
58.803936
 20
429.073379
 30
0.0
 10
58.705938
 20
429.202665
 30
0.0
  0
SPLINE
  5
1eb
100
AcDbEntity
  8
SECTION_JOG_LINES
 62
7
100
AcDbSpline
 70
8
 71
3
 72
8
 73
4
 74
0
 40
0
 40
0
 40
0
 40
0
 40
1
 40
1
 40
1
 40
1
 10
78.128511
 20
445.652763
 30
0.0
 10
77.875344
 20
445.926748
 30
0.0
 10
77.611456
 20
446.190628
 30
0.0
 10
77.337465
 20
446.443788
 30
0.0
  0
SPLINE
  5
1ec
100
AcDbEntity
  8
SECTION_JOG_LINES
 62
7
100
AcDbSpline
 70
8
 71
3
 72
8
 73
4
 74
0
 40
0
 40
0
 40
0
 40
0
 40
1
 40
1
 40
1
 40
1
 10
74.554805
 20
445.051524
 30
0.0
 10
74.684093
 20
444.953521
 30
0.0
 10
74.867639
 20
444.974776
 30
0.0
 10
74.971108
 20
445.099731
 30
0.0
  0
SPLINE
  5
1ed
100
AcDbEntity
  8
SECTION_JOG_LINES
 62
7
100
AcDbSpline
 70
8
 71
3
 72
8
 73
4
 74
0
 40
0
 40
0
 40
0
 40
0
 40
1
 40
1
 40
1
 40
1
 10
61.341704
 20
426.340482
 30
0.0
 10
61.428565
 20
426.477500
 30
0.0
 10
61.392060
 20
426.658626
 30
0.0
 10
61.258905
 20
426.751300
 30
0.0
  0
SPLINE
  5
1ee
100
AcDbEntity
  8
SECTION_JOG_LINES
 62
7
100
AcDbSpline
 70
8
 71
3
 72
8
 73
4
 74
0
 40
0
 40
0
 40
0
 40
0
 40
1
 40
1
 40
1
 40
1
 10
74.554805
 20
445.051524
 30
0.0
 10
74.432804
 20
445.144005
 30
0.0
 10
74.308939
 20
445.233999
 30
0.0
 10
74.183285
 20
445.321452
 30
0.0
  0
SPLINE
  5
1ef
100
AcDbEntity
  8
SECTION_JOG_LINES
 62
7
100
AcDbSpline
 70
8
 71
3
 72
8
 73
4
 74
0
 40
0
 40
0
 40
0
 40
0
 40
1
 40
1
 40
1
 40
1
 10
73.650737
 20
423.166725
 30
0.0
 10
73.989551
 20
423.322828
 30
0.0
 10
74.322069
 20
423.492249
 30
0.0
 10
74.647512
 20
423.674593
 30
0.0
  0
SPLINE
  5
1f0
100
AcDbEntity
  8
SECTION_JOG_LINES
 62
7
100
AcDbSpline
 70
8
 71
3
 72
8
 73
4
 74
0
 40
0
 40
0
 40
0
 40
0
 40
1
 40
1
 40
1
 40
1
 10
60.887382
 20
427.021228
 30
0.0
 10
61.009384
 20
426.928748
 30
0.0
 10
61.133251
 20
426.838753
 30
0.0
 10
61.258905
 20
426.751300
 30
0.0
  0
SPLINE
  5
1f1
100
AcDbEntity
  8
SECTION_JOG_LINES
 62
7
100
AcDbSpline
 70
8
 71
3
 72
8
 73
4
 74
0
 40
0
 40
0
 40
0
 40
0
 40
1
 40
1
 40
1
 40
1
 10
74.647512
 20
448.398159
 30
0.0
 10
74.322069
 20
448.580512
 30
0.0
 10
73.989551
 20
448.749942
 30
0.0
 10
73.650737
 20
448.906053
 30
0.0
  0
SPLINE
  5
1f2
100
AcDbEntity
  8
SECTION_JOG_LINES
 62
7
100
AcDbSpline
 70
8
 71
3
 72
8
 73
4
 74
0
 40
0
 40
0
 40
0
 40
0
 40
1
 40
1
 40
1
 40
1
 10
71.434502
 20
446.722024
 30
0.0
 10
71.587747
 20
446.668770
 30
0.0
 10
71.755742
 20
446.745703
 30
0.0
 10
71.815534
 20
446.896516
 30
0.0
  0
SPLINE
  5
1f3
100
AcDbEntity
  8
SECTION_JOG_LINES
 62
7
100
AcDbSpline
 70
8
 71
3
 72
8
 73
4
 74
0
 40
0
 40
0
 40
0
 40
0
 40
1
 40
1
 40
1
 40
1
 10
70.792057
 20
447.229071
 30
0.0
 10
70.751788
 20
447.071918
 30
0.0
 10
70.842478
 20
446.910937
 30
0.0
 10
70.997755
 20
446.863946
 30
0.0
  0
SPLINE
  5
1f4
100
AcDbEntity
  8
SECTION_JOG_LINES
 62
7
100
AcDbSpline
 70
8
 71
3
 72
8
 73
4
 74
0
 40
0
 40
0
 40
0
 40
0
 40
1
 40
1
 40
1
 40
1
 10
70.488511
 20
449.933510
 30
0.0
 10
70.122647
 20
450.006363
 30
0.0
 10
69.754048
 20
450.064741
 30
0.0
 10
69.383577
 20
450.108505
 30
0.0
  0
SPLINE
  5
1f5
100
AcDbEntity
  8
SECTION_JOG_LINES
 62
7
100
AcDbSpline
 70
8
 71
3
 72
8
 73
4
 74
0
 40
0
 40
0
 40
0
 40
0
 40
1
 40
1
 40
1
 40
1
 10
67.950707
 20
447.346546
 30
0.0
 10
68.112904
 20
447.343253
 30
0.0
 10
68.248901
 20
447.468328
 30
0.0
 10
68.259169
 20
447.630233
 30
0.0
  0
SPLINE
  5
1f6
100
AcDbEntity
  8
SECTION_JOG_LINES
 62
7
100
AcDbSpline
 70
8
 71
3
 72
8
 73
4
 74
0
 40
0
 40
0
 40
0
 40
0
 40
1
 40
1
 40
1
 40
1
 10
64.444433
 20
446.863946
 30
0.0
 10
64.297905
 20
446.819599
 30
0.0
 10
64.152292
 20
446.772282
 30
0.0
 10
64.007685
 20
446.722024
 30
0.0
  0
SPLINE
  5
1f7
100
AcDbEntity
  8
SECTION_JOG_LINES
 62
7
100
AcDbSpline
 70
8
 71
3
 72
8
 73
4
 74
0
 40
0
 40
0
 40
0
 40
0
 40
1
 40
1
 40
1
 40
1
 10
61.791450
 20
448.906053
 30
0.0
 10
61.452636
 20
448.749942
 30
0.0
 10
61.120118
 20
448.580512
 30
0.0
 10
60.794675
 20
448.398159
 30
0.0
  0
SPLINE
  5
1f8
100
AcDbEntity
  8
SECTION_JOG_LINES
 62
7
100
AcDbSpline
 70
8
 71
3
 72
8
 73
4
 74
0
 40
0
 40
0
 40
0
 40
0
 40
1
 40
1
 40
1
 40
1
 10
61.258905
 20
445.321452
 30
0.0
 10
61.392076
 20
445.414128
 30
0.0
 10
61.428582
 20
445.595273
 30
0.0
 10
61.341704
 20
445.732297
 30
0.0
  0
SPLINE
  5
1f9
100
AcDbEntity
  8
SECTION_JOG_LINES
 62
7
100
AcDbSpline
 70
8
 71
3
 72
8
 73
4
 74
0
 40
0
 40
0
 40
0
 40
0
 40
1
 40
1
 40
1
 40
1
 10
55.359313
 20
442.962797
 30
0.0
 10
55.176964
 20
442.637357
 30
0.0
 10
55.007538
 20
442.304843
 30
0.0
 10
54.851430
 20
441.966033
 30
0.0
  0
LWPOLYLINE
  5
1fa
100
AcDbEntity
  8
SECTION_JOG_LINES
 62
7
100
AcDbPolyline
 90
2
 70
0
 10
53.440796
 20
480.113287
 30
0.0
 10
53.440796
 20
454.313290
 30
0.0
  0
LWPOLYLINE
  5
1fb
100
AcDbEntity
  8
SECTION_JOG_LINES
 62
7
100
AcDbPolyline
 90
2
 70
0
 10
128.102487
 20
444.240946
 30
0.0
 10
127.311645
 20
444.240946
 30
0.0
  0
LWPOLYLINE
  5
1fc
100
AcDbEntity
  8
SECTION_JOG_LINES
 62
7
100
AcDbPolyline
 90
2
 70
0
 10
128.102487
 20
444.240946
 30
0.0
 10
129.069282
 20
446.897204
 30
0.0
  0
LWPOLYLINE
  5
1fd
100
AcDbEntity
  8
SECTION_JOG_LINES
 62
7
100
AcDbPolyline
 90
2
 70
0
 10
152.070186
 20
446.897204
 30
0.0
 10
129.069282
 20
446.897204
 30
0.0
  0
LWPOLYLINE
  5
1fe
100
AcDbEntity
  8
SECTION_JOG_LINES
 62
7
100
AcDbPolyline
 90
5
 70
0
 10
152.070186
 20
446.897204
 30
0.0
 10
152.070186
 20
450.897202
 30
0.0
 10
83.463360
 20
450.897202
 30
0.0
 10
83.463360
 20
446.897204
 30
0.0
 10
98.855911
 20
446.897204
 30
0.0
  0
LWPOLYLINE
  5
1ff
100
AcDbEntity
  8
SECTION_JOG_LINES
 62
7
100
AcDbPolyline
 90
2
 70
0
 10
99.822706
 20
444.240946
 30
0.0
 10
98.855911
 20
446.897204
 30
0.0
  0
LWPOLYLINE
  5
200
100
AcDbEntity
  8
SECTION_JOG_LINES
 62
7
100
AcDbPolyline
 90
2
 70
0
 10
100.613549
 20
444.240946
 30
0.0
 10
99.822706
 20
444.240946
 30
0.0
  0
LWPOLYLINE
  5
201
100
AcDbEntity
  8
SECTION_JOG_LINES
 62
7
100
AcDbPolyline
 90
2
 70
0
 10
100.613549
 20
444.240946
 30
0.0
 10
101.580344
 20
446.897204
 30
0.0
  0
LWPOLYLINE
  5
202
100
AcDbEntity
  8
SECTION_JOG_LINES
 62
7
100
AcDbPolyline
 90
2
 70
0
 10
102.782902
 20
446.897204
 30
0.0
 10
101.580344
 20
446.897204
 30
0.0
  0
LWPOLYLINE
  5
203
100
AcDbEntity
  8
SECTION_JOG_LINES
 62
7
100
AcDbPolyline
 90
2
 70
0
 10
103.749697
 20
444.240946
 30
0.0
 10
102.782902
 20
446.897204
 30
0.0
  0
LWPOLYLINE
  5
204
100
AcDbEntity
  8
SECTION_JOG_LINES
 62
7
100
AcDbPolyline
 90
2
 70
0
 10
104.540539
 20
444.240946
 30
0.0
 10
103.749697
 20
444.240946
 30
0.0
  0
LWPOLYLINE
  5
205
100
AcDbEntity
  8
SECTION_JOG_LINES
 62
7
100
AcDbPolyline
 90
2
 70
0
 10
104.540539
 20
444.240946
 30
0.0
 10
105.507335
 20
446.897204
 30
0.0
  0
LWPOLYLINE
  5
206
100
AcDbEntity
  8
SECTION_JOG_LINES
 62
7
100
AcDbPolyline
 90
2
 70
0
 10
106.709893
 20
446.897204
 30
0.0
 10
105.507335
 20
446.897204
 30
0.0
  0
LWPOLYLINE
  5
207
100
AcDbEntity
  8
SECTION_JOG_LINES
 62
7
100
AcDbPolyline
 90
2
 70
0
 10
107.676688
 20
444.240946
 30
0.0
 10
106.709893
 20
446.897204
 30
0.0
  0
LWPOLYLINE
  5
208
100
AcDbEntity
  8
SECTION_JOG_LINES
 62
7
100
AcDbPolyline
 90
2
 70
0
 10
108.467530
 20
444.240946
 30
0.0
 10
107.676688
 20
444.240946
 30
0.0
  0
LWPOLYLINE
  5
209
100
AcDbEntity
  8
SECTION_JOG_LINES
 62
7
100
AcDbPolyline
 90
2
 70
0
 10
108.467530
 20
444.240946
 30
0.0
 10
109.434326
 20
446.897204
 30
0.0
  0
LWPOLYLINE
  5
20a
100
AcDbEntity
  8
SECTION_JOG_LINES
 62
7
100
AcDbPolyline
 90
2
 70
0
 10
110.636886
 20
446.897204
 30
0.0
 10
109.434326
 20
446.897204
 30
0.0
  0
LWPOLYLINE
  5
20b
100
AcDbEntity
  8
SECTION_JOG_LINES
 62
7
100
AcDbPolyline
 90
2
 70
0
 10
111.603682
 20
444.240946
 30
0.0
 10
110.636886
 20
446.897204
 30
0.0
  0
LWPOLYLINE
  5
20c
100
AcDbEntity
  8
SECTION_JOG_LINES
 62
7
100
AcDbPolyline
 90
2
 70
0
 10
112.394524
 20
444.240946
 30
0.0
 10
111.603682
 20
444.240946
 30
0.0
  0
LWPOLYLINE
  5
20d
100
AcDbEntity
  8
SECTION_JOG_LINES
 62
7
100
AcDbPolyline
 90
2
 70
0
 10
112.394524
 20
444.240946
 30
0.0
 10
113.361319
 20
446.897204
 30
0.0
  0
LWPOLYLINE
  5
20e
100
AcDbEntity
  8
SECTION_JOG_LINES
 62
7
100
AcDbPolyline
 90
2
 70
0
 10
114.563877
 20
446.897204
 30
0.0
 10
113.361319
 20
446.897204
 30
0.0
  0
LWPOLYLINE
  5
20f
100
AcDbEntity
  8
SECTION_JOG_LINES
 62
7
100
AcDbPolyline
 90
2
 70
0
 10
115.530672
 20
444.240946
 30
0.0
 10
114.563877
 20
446.897204
 30
0.0
  0
LWPOLYLINE
  5
210
100
AcDbEntity
  8
SECTION_JOG_LINES
 62
7
100
AcDbPolyline
 90
2
 70
0
 10
116.321515
 20
444.240946
 30
0.0
 10
115.530672
 20
444.240946
 30
0.0
  0
LWPOLYLINE
  5
211
100
AcDbEntity
  8
SECTION_JOG_LINES
 62
7
100
AcDbPolyline
 90
2
 70
0
 10
116.321515
 20
444.240946
 30
0.0
 10
117.288310
 20
446.897204
 30
0.0
  0
LWPOLYLINE
  5
212
100
AcDbEntity
  8
SECTION_JOG_LINES
 62
7
100
AcDbPolyline
 90
2
 70
0
 10
118.490868
 20
446.897204
 30
0.0
 10
117.288310
 20
446.897204
 30
0.0
  0
LWPOLYLINE
  5
213
100
AcDbEntity
  8
SECTION_JOG_LINES
 62
7
100
AcDbPolyline
 90
2
 70
0
 10
119.457663
 20
444.240946
 30
0.0
 10
118.490868
 20
446.897204
 30
0.0
  0
LWPOLYLINE
  5
214
100
AcDbEntity
  8
SECTION_JOG_LINES
 62
7
100
AcDbPolyline
 90
2
 70
0
 10
120.248505
 20
444.240946
 30
0.0
 10
119.457663
 20
444.240946
 30
0.0
  0
LWPOLYLINE
  5
215
100
AcDbEntity
  8
SECTION_JOG_LINES
 62
7
100
AcDbPolyline
 90
2
 70
0
 10
120.248505
 20
444.240946
 30
0.0
 10
121.215301
 20
446.897204
 30
0.0
  0
LWPOLYLINE
  5
216
100
AcDbEntity
  8
SECTION_JOG_LINES
 62
7
100
AcDbPolyline
 90
2
 70
0
 10
122.417859
 20
446.897204
 30
0.0
 10
121.215301
 20
446.897204
 30
0.0
  0
LWPOLYLINE
  5
217
100
AcDbEntity
  8
SECTION_JOG_LINES
 62
7
100
AcDbPolyline
 90
2
 70
0
 10
123.384654
 20
444.240946
 30
0.0
 10
122.417859
 20
446.897204
 30
0.0
  0
LWPOLYLINE
  5
218
100
AcDbEntity
  8
SECTION_JOG_LINES
 62
7
100
AcDbPolyline
 90
2
 70
0
 10
124.175496
 20
444.240946
 30
0.0
 10
123.384654
 20
444.240946
 30
0.0
  0
LWPOLYLINE
  5
219
100
AcDbEntity
  8
SECTION_JOG_LINES
 62
7
100
AcDbPolyline
 90
2
 70
0
 10
124.175496
 20
444.240946
 30
0.0
 10
125.142292
 20
446.897204
 30
0.0
  0
LWPOLYLINE
  5
21a
100
AcDbEntity
  8
SECTION_JOG_LINES
 62
7
100
AcDbPolyline
 90
2
 70
0
 10
126.344849
 20
446.897204
 30
0.0
 10
125.142292
 20
446.897204
 30
0.0
  0
LWPOLYLINE
  5
21b
100
AcDbEntity
  8
SECTION_JOG_LINES
 62
7
100
AcDbPolyline
 90
2
 70
0
 10
127.311645
 20
444.240946
 30
0.0
 10
126.344849
 20
446.897204
 30
0.0
  0
LWPOLYLINE
  5
21c
100
AcDbEntity
  8
SECTION_JOG_LINES
 62
7
100
AcDbPolyline
 90
30
 70
1
 10
131.732136
 20
430.001759
 30
0.0
 10
142.615536
 20
430.001759
 30
0.0
 10
142.615536
 20
435.461754
 30
0.0
 10
138.899344
 20
435.461754
 30
0.0
 10
138.899344
 20
439.938769
 30
0.0
 10
131.332134
 20
439.938769
 30
0.0
 10
131.332134
 20
435.461754
 30
0.0
 10
123.148042
 20
435.461754
 30
0.0
 10
123.148042
 20
439.938769
 30
0.0
 10
113.244225
 20
439.938769
 30
0.0
 10
113.244225
 20
435.461754
 30
0.0
 10
104.446983
 20
435.461754
 30
0.0
 10
104.446983
 20
439.938769
 30
0.0
 10
95.846620
 20
439.938769
 30
0.0
 10
95.846620
 20
435.461754
 30
0.0
 10
90.574476
 20
435.461754
 30
0.0
 10
90.574476
 20
439.938769
 30
0.0
 10
85.345924
 20
439.938769
 30
0.0
 10
85.345924
 20
430.001759
 30
0.0
 10
90.174477
 20
430.001759
 30
0.0
 10
90.174477
 20
425.524771
 30
0.0
 10
96.246619
 20
425.524771
 30
0.0
 10
96.246619
 20
430.001759
 30
0.0
 10
104.046983
 20
430.001759
 30
0.0
 10
104.046983
 20
425.524771
 30
0.0
 10
113.644225
 20
425.524771
 30
0.0
 10
113.644225
 20
430.001759
 30
0.0
 10
122.748043
 20
430.001759
 30
0.0
 10
122.748043
 20
425.524771
 30
0.0
 10
131.732136
 20
425.524771
 30
0.0
  0
LWPOLYLINE
  5
21d
100
AcDbEntity
  8
SECTION_JOG_LINES
 62
7
100
AcDbPolyline
 90
30
 70
1
 10
99.338448
 20
409.034853
 30
0.0
 10
110.221847
 20
409.034853
 30
0.0
 10
110.221847
 20
414.494848
 30
0.0
 10
106.505655
 20
414.494848
 30
0.0
 10
106.505655
 20
418.971862
 30
0.0
 10
98.938445
 20
418.971862
 30
0.0
 10
98.938445
 20
414.494848
 30
0.0
 10
90.754353
 20
414.494848
 30
0.0
 10
90.754353
 20
418.971862
 30
0.0
 10
80.850536
 20
418.971862
 30
0.0
 10
80.850536
 20
414.494848
 30
0.0
 10
72.053297
 20
414.494848
 30
0.0
 10
72.053297
 20
418.971862
 30
0.0
 10
63.452933
 20
418.971862
 30
0.0
 10
63.452933
 20
414.494848
 30
0.0
 10
58.180790
 20
414.494848
 30
0.0
 10
58.180790
 20
418.971862
 30
0.0
 10
52.952235
 20
418.971862
 30
0.0
 10
52.952235
 20
409.034853
 30
0.0
 10
57.780790
 20
409.034853
 30
0.0
 10
57.780790
 20
404.557865
 30
0.0
 10
63.852933
 20
404.557865
 30
0.0
 10
63.852933
 20
409.034853
 30
0.0
 10
71.653297
 20
409.034853
 30
0.0
 10
71.653297
 20
404.557865
 30
0.0
 10
81.250536
 20
404.557865
 30
0.0
 10
81.250536
 20
409.034853
 30
0.0
 10
90.354354
 20
409.034853
 30
0.0
 10
90.354354
 20
404.557865
 30
0.0
 10
99.338448
 20
404.557865
 30
0.0
  0
LWPOLYLINE
  5
21e
100
AcDbEntity
  8
SECTION_JOG_LINES
 62
7
100
AcDbPolyline
 90
30
 70
1
 10
162.444142
 20
411.227588
 30
0.0
 10
173.327542
 20
411.227588
 30
0.0
 10
173.327542
 20
416.687582
 30
0.0
 10
169.611350
 20
416.687582
 30
0.0
 10
169.611350
 20
421.164597
 30
0.0
 10
162.044139
 20
421.164597
 30
0.0
 10
162.044139
 20
416.687582
 30
0.0
 10
153.860048
 20
416.687582
 30
0.0
 10
153.860048
 20
421.164597
 30
0.0
 10
143.956230
 20
421.164597
 30
0.0
 10
143.956230
 20
416.687582
 30
0.0
 10
135.158988
 20
416.687582
 30
0.0
 10
135.158988
 20
421.164597
 30
0.0
 10
126.558625
 20
421.164597
 30
0.0
 10
126.558625
 20
416.687582
 30
0.0
 10
121.286482
 20
416.687582
 30
0.0
 10
121.286482
 20
421.164597
 30
0.0
 10
116.057929
 20
421.164597
 30
0.0
 10
116.057929
 20
411.227588
 30
0.0
 10
120.886482
 20
411.227588
 30
0.0
 10
120.886482
 20
406.750599
 30
0.0
 10
126.958624
 20
406.750599
 30
0.0
 10
126.958624
 20
411.227588
 30
0.0
 10
134.758988
 20
411.227588
 30
0.0
 10
134.758988
 20
406.750599
 30
0.0
 10
144.356230
 20
406.750599
 30
0.0
 10
144.356230
 20
411.227588
 30
0.0
 10
153.460048
 20
411.227588
 30
0.0
 10
153.460048
 20
406.750599
 30
0.0
 10
162.444142
 20
406.750599
 30
0.0
  0
LWPOLYLINE
  5
21f
100
AcDbEntity
  8
SECTION_JOG_LINES
 62
7
100
AcDbPolyline
 90
30
 70
1
 10
100.676760
 20
390.956853
 30
0.0
 10
111.560160
 20
390.956853
 30
0.0
 10
111.560160
 20
396.416848
 30
0.0
 10
107.843968
 20
396.416848
 30
0.0
 10
107.843968
 20
400.893862
 30
0.0
 10
100.276758
 20
400.893862
 30
0.0
 10
100.276758
 20
396.416848
 30
0.0
 10
92.092666
 20
396.416848
 30
0.0
 10
92.092666
 20
400.893862
 30
0.0
 10
82.188849
 20
400.893862
 30
0.0
 10
82.188849
 20
396.416848
 30
0.0
 10
73.391607
 20
396.416848
 30
0.0
 10
73.391607
 20
400.893862
 30
0.0
 10
64.791243
 20
400.893862
 30
0.0
 10
64.791243
 20
396.416848
 30
0.0
 10
59.519100
 20
396.416848
 30
0.0
 10
59.519100
 20
400.893862
 30
0.0
 10
54.290547
 20
400.893862
 30
0.0
 10
54.290547
 20
390.956853
 30
0.0
 10
59.119101
 20
390.956853
 30
0.0
 10
59.119101
 20
386.479865
 30
0.0
 10
65.191243
 20
386.479865
 30
0.0
 10
65.191243
 20
390.956853
 30
0.0
 10
72.991607
 20
390.956853
 30
0.0
 10
72.991607
 20
386.479865
 30
0.0
 10
82.588849
 20
386.479865
 30
0.0
 10
82.588849
 20
390.956853
 30
0.0
 10
91.692667
 20
390.956853
 30
0.0
 10
91.692667
 20
386.479865
 30
0.0
 10
100.676760
 20
386.479865
 30
0.0
  0
LWPOLYLINE
  5
220
100
AcDbEntity
  8
Holes
 62
7
100
AcDbPolyline
 90
2
 70
0
 10
27.418101
 20
474.499649
 30
0.0
 10
27.418101
 20
471.209661
 30
0.0
  0
LWPOLYLINE
  5
221
100
AcDbEntity
  8
Holes
 62
7
100
AcDbPolyline
 90
2
 70
0
 10
30.708100
 20
474.499649
 30
0.0
 10
27.418101
 20
474.499649
 30
0.0
  0
LWPOLYLINE
  5
222
100
AcDbEntity
  8
Holes
 62
7
100
AcDbPolyline
 90
3
 70
0
 10
30.708100
 20
474.499649
 30
0.0
 10
30.708100
 20
471.209661
 30
0.0
 10
27.418101
 20
471.209661
 30
0.0
  0
LWPOLYLINE
  5
223
100
AcDbEntity
  8
Holes
 62
7
100
AcDbPolyline
 90
2
 70
0
 10
41.746355
 20
474.427550
 30
0.0
 10
41.746355
 20
471.137536
 30
0.0
  0
LWPOLYLINE
  5
224
100
AcDbEntity
  8
Holes
 62
7
100
AcDbPolyline
 90
2
 70
0
 10
45.036354
 20
474.427550
 30
0.0
 10
41.746355
 20
474.427550
 30
0.0
  0
SPLINE
  5
225
100
AcDbEntity
  8
Holes
 62
7
100
AcDbSpline
 70
8
 71
3
 72
8
 73
4
 74
0
 40
0
 40
0
 40
0
 40
0
 40
1
 40
1
 40
1
 40
1
 10
68.975796
 20
467.213289
 30
0.0
 10
68.976233
 20
468.226428
 30
0.0
 10
68.435981
 20
469.162795
 30
0.0
 10
67.558649
 20
469.669491
 30
0.0
  0
SPLINE
  5
226
100
AcDbEntity
  8
Holes
 62
7
100
AcDbSpline
 70
8
 71
3
 72
8
 73
4
 74
0
 40
0
 40
0
 40
0
 40
0
 40
1
 40
1
 40
1
 40
1
 10
67.558649
 20
469.669491
 30
0.0
 10
66.681318
 20
470.176188
 30
0.0
 10
65.600274
 20
470.176188
 30
0.0
 10
64.722942
 20
469.669491
 30
0.0
  0
SPLINE
  5
227
100
AcDbEntity
  8
Holes
 62
7
100
AcDbSpline
 70
8
 71
3
 72
8
 73
4
 74
0
 40
0
 40
0
 40
0
 40
0
 40
1
 40
1
 40
1
 40
1
 10
64.722942
 20
469.669491
 30
0.0
 10
63.845610
 20
469.162795
 30
0.0
 10
63.305358
 20
468.226428
 30
0.0
 10
63.305796
 20
467.213289
 30
0.0
  0
SPLINE
  5
228
100
AcDbEntity
  8
Holes
 62
7
100
AcDbSpline
 70
8
 71
3
 72
8
 73
4
 74
0
 40
0
 40
0
 40
0
 40
0
 40
1
 40
1
 40
1
 40
1
 10
63.305796
 20
467.213289
 30
0.0
 10
63.305358
 20
466.200149
 30
0.0
 10
63.845610
 20
465.263782
 30
0.0
 10
64.722942
 20
464.757086
 30
0.0
  0
SPLINE
  5
229
100
AcDbEntity
  8
Holes
 62
7
100
AcDbSpline
 70
8
 71
3
 72
8
 73
4
 74
0
 40
0
 40
0
 40
0
 40
0
 40
1
 40
1
 40
1
 40
1
 10
64.722942
 20
464.757086
 30
0.0
 10
65.600274
 20
464.250390
 30
0.0
 10
66.681318
 20
464.250390
 30
0.0
 10
67.558649
 20
464.757086
 30
0.0
  0
SPLINE
  5
22a
100
AcDbEntity
  8
Holes
 62
7
100
AcDbSpline
 70
8
 71
3
 72
8
 73
4
 74
0
 40
0
 40
0
 40
0
 40
0
 40
1
 40
1
 40
1
 40
1
 10
67.558649
 20
464.757086
 30
0.0
 10
68.435981
 20
465.263782
 30
0.0
 10
68.976233
 20
466.200149
 30
0.0
 10
68.975796
 20
467.213289
 30
0.0
  0
LWPOLYLINE
  5
22b
100
AcDbEntity
  8
Holes
 62
7
100
AcDbPolyline
 90
3
 70
0
 10
45.036354
 20
474.427550
 30
0.0
 10
45.036354
 20
471.137536
 30
0.0
 10
41.746355
 20
471.137536
 30
0.0
  0
SPLINE
  5
22c
100
AcDbEntity
  8
Holes
 62
7
100
AcDbSpline
 70
8
 71
3
 72
8
 73
4
 74
0
 40
0
 40
0
 40
0
 40
0
 40
1
 40
1
 40
1
 40
1
 10
70.956093
 20
436.036376
 30
0.0
 10
70.956755
 20
437.192571
 30
0.0
 10
70.340312
 20
438.261222
 30
0.0
 10
69.339128
 20
438.839510
 30
0.0
  0
SPLINE
  5
22d
100
AcDbEntity
  8
Holes
 62
7
100
AcDbSpline
 70
8
 71
3
 72
8
 73
4
 74
0
 40
0
 40
0
 40
0
 40
0
 40
1
 40
1
 40
1
 40
1
 10
69.339128
 20
438.839510
 30
0.0
 10
68.337944
 20
439.417799
 30
0.0
 10
67.104243
 20
439.417799
 30
0.0
 10
66.103060
 20
438.839510
 30
0.0
  0
SPLINE
  5
22e
100
AcDbEntity
  8
Holes
 62
7
100
AcDbSpline
 70
8
 71
3
 72
8
 73
4
 74
0
 40
0
 40
0
 40
0
 40
0
 40
1
 40
1
 40
1
 40
1
 10
66.103060
 20
438.839510
 30
0.0
 10
65.101876
 20
438.261222
 30
0.0
 10
64.485433
 20
437.192571
 30
0.0
 10
64.486094
 20
436.036376
 30
0.0
  0
SPLINE
  5
22f
100
AcDbEntity
  8
Holes
 62
7
100
AcDbSpline
 70
8
 71
3
 72
8
 73
4
 74
0
 40
0
 40
0
 40
0
 40
0
 40
1
 40
1
 40
1
 40
1
 10
64.486094
 20
436.036376
 30
0.0
 10
64.485433
 20
434.880181
 30
0.0
 10
65.101876
 20
433.811530
 30
0.0
 10
66.103060
 20
433.233242
 30
0.0
  0
SPLINE
  5
230
100
AcDbEntity
  8
Holes
 62
7
100
AcDbSpline
 70
8
 71
3
 72
8
 73
4
 74
0
 40
0
 40
0
 40
0
 40
0
 40
1
 40
1
 40
1
 40
1
 10
66.103060
 20
433.233242
 30
0.0
 10
67.104243
 20
432.654954
 30
0.0
 10
68.337944
 20
432.654954
 30
0.0
 10
69.339128
 20
433.233242
 30
0.0
  0
SPLINE
  5
231
100
AcDbEntity
  8
Holes
 62
7
100
AcDbSpline
 70
8
 71
3
 72
8
 73
4
 74
0
 40
0
 40
0
 40
0
 40
0
 40
1
 40
1
 40
1
 40
1
 10
69.339128
 20
433.233242
 30
0.0
 10
70.340312
 20
433.811530
 30
0.0
 10
70.956755
 20
434.880181
 30
0.0
 10
70.956093
 20
436.036376
 30
0.0
  0
LWPOLYLINE
  5
232
100
AcDbEntity
  8
Holes
 62
7
100
AcDbPolyline
 90
1
 70
1
 10
68.975796
 20
467.213289
 30
0.0
  0
LWPOLYLINE
  5
233
100
AcDbEntity
  8
Holes
 62
7
100
AcDbPolyline
 90
1
 70
1
 10
70.956093
 20
436.036376
 30
0.0
  0
LWPOLYLINE
  5
234
100
AcDbEntity
  8
Holes
 62
7
100
AcDbPolyline
 90
2
 70
0
 10
70.451094
 20
444.143368
 30
0.0
 10
64.991094
 20
444.143368
 30
0.0
  0
LWPOLYLINE
  5
235
100
AcDbEntity
  8
Holes
 62
7
100
AcDbPolyline
 90
2
 70
0
 10
63.614512
 20
438.766373
 30
0.0
 10
63.614512
 20
433.306379
 30
0.0
  0
LWPOLYLINE
  5
236
100
AcDbEntity
  8
Holes
 62
7
100
AcDbPolyline
 90
3
 70
0
 10
63.614512
 20
438.766373
 30
0.0
 10
59.614512
 20
438.766373
 30
0.0
 10
59.614512
 20
433.306379
 30
0.0
  0
LWPOLYLINE
  5
237
100
AcDbEntity
  8
Holes
 62
7
100
AcDbPolyline
 90
2
 70
0
 10
71.827676
 20
438.766373
 30
0.0
 10
71.827676
 20
433.306379
 30
0.0
  0
LWPOLYLINE
  5
238
100
AcDbEntity
  8
Holes
 62
7
100
AcDbPolyline
 90
2
 70
0
 10
64.991094
 20
444.143368
 30
0.0
 10
64.991094
 20
440.143371
 30
0.0
  0
LWPOLYLINE
  5
239
100
AcDbEntity
  8
Holes
 62
7
100
AcDbPolyline
 90
2
 70
0
 10
63.614512
 20
433.306379
 30
0.0
 10
59.614512
 20
433.306379
 30
0.0
  0
LWPOLYLINE
  5
23a
100
AcDbEntity
  8
Holes
 62
7
100
AcDbPolyline
 90
2
 70
0
 10
71.827676
 20
433.306379
 30
0.0
 10
75.827676
 20
433.306379
 30
0.0
  0
LWPOLYLINE
  5
23b
100
AcDbEntity
  8
Holes
 62
7
100
AcDbPolyline
 90
2
 70
0
 10
64.991094
 20
440.143371
 30
0.0
 10
70.451094
 20
440.143371
 30
0.0
  0
LWPOLYLINE
  5
23c
100
AcDbEntity
  8
Holes
 62
7
100
AcDbPolyline
 90
2
 70
0
 10
75.827676
 20
438.766373
 30
0.0
 10
75.827676
 20
433.306379
 30
0.0
  0
LWPOLYLINE
  5
23d
100
AcDbEntity
  8
Holes
 62
7
100
AcDbPolyline
 90
2
 70
0
 10
70.451094
 20
444.143368
 30
0.0
 10
70.451094
 20
440.143371
 30
0.0
  0
LWPOLYLINE
  5
23e
100
AcDbEntity
  8
Holes
 62
7
100
AcDbPolyline
 90
2
 70
0
 10
70.451094
 20
431.929381
 30
0.0
 10
70.451094
 20
427.929384
 30
0.0
  0
LWPOLYLINE
  5
23f
100
AcDbEntity
  8
Holes
 62
7
100
AcDbPolyline
 90
2
 70
0
 10
71.827676
 20
438.766373
 30
0.0
 10
75.827676
 20
438.766373
 30
0.0
  0
LWPOLYLINE
  5
240
100
AcDbEntity
  8
Holes
 62
7
100
AcDbPolyline
 90
2
 70
0
 10
70.451094
 20
431.929381
 30
0.0
 10
64.991094
 20
431.929381
 30
0.0
  0
LWPOLYLINE
  5
241
100
AcDbEntity
  8
Holes
 62
7
100
AcDbPolyline
 90
2
 70
0
 10
70.451094
 20
427.929384
 30
0.0
 10
64.991094
 20
427.929384
 30
0.0
  0
LWPOLYLINE
  5
242
100
AcDbEntity
  8
Holes
 62
7
100
AcDbPolyline
 90
2
 70
0
 10
64.991094
 20
431.929381
 30
0.0
 10
64.991094
 20
427.929384
 30
0.0
  0
ENDSEC
  0
SECTION
  2
OBJECTS
  0
DICTIONARY
  5
C
330
0
100
AcDbDictionary
  3
ACAD_GROUP
350
D
  3
ACAD_MLINESTYLE
350
17
  0
DICTIONARY
  5
D
330
C
100
AcDbDictionary
  0
DICTIONARY
  5
1A
330
C
100
AcDbDictionary
  0
DICTIONARY
  5
17
330
C
100
AcDbDictionary
  3
STANDARD
350
18
  0
DICTIONARY
  5
19
330
C
100
AcDbDictionary
  0
ENDSEC
  0
EOF
