  0
SECTION
  2
HEADER
  9
$ACADVER
  1
AC1014
  9
$HANDSEED
  5
FFFF
  9
$MEASUREMENT
 70
     1
  0
ENDSEC
  0
SECTION
  2
TABLES
  0
TABLE
  2
VPORT
  5
8
330
0
100
AcDbSymbolTable
 70
     4
  0
VPORT
  5
2E
330
8
100
AcDbSymbolTableRecord
100
AcDbViewportTableRecord
  2
*ACTIVE
 70
     0
 10
0.0
 20
0.0
 11
1.0
 21
1.0
 12
210.0
 22
148.5
 13
0.0
 23
0.0
 14
10.0
 24
10.0
 15
10.0
 25
10.0
 16
0.0
 26
0.0
 36
1.0
 17
0.0
 27
0.0
 37
0.0
 40
341.0
 41
1.24
 42
50.0
 43
0.0
 44
0.0
 50
0.0
 51
0.0
 71
     0
 72
   100
 73
     1
 74
     3
 75
     0
 76
     0
 77
     0
 78
     0
  0
ENDTAB
  0
TABLE
  2
LTYPE
  5
5
330
0
100
AcDbSymbolTable
 70
     1
  0
LTYPE
  5
14
330
5
100
AcDbSymbolTableRecord
100
AcDbLinetypeTableRecord
  2
BYBLOCK
 70
     0
  3

 72
    65
 73
     0
 40
0.0
  0
LTYPE
  5
15
330
5
100
AcDbSymbolTableRecord
100
AcDbLinetypeTableRecord
  2
BYLAYER
 70
     0
  3

 72
    65
 73
     0
 40
0.0
  0
LTYPE
  5
16
330
5
100
AcDbSymbolTableRecord
100
AcDbLinetypeTableRecord
  2
CONTINUOUS
 70
     0
  3
Solid line
 72
    65
 73
     0
 40
0.0
  0
ENDTAB
  0
TABLE
  2
LAYER
  5
2
100
AcDbSymbolTable
 70
2
  0
LAYER
  5
50
100
AcDbSymbolTableRecord
100
AcDbLayerTableRecord
  2
0
 70
0
  6
CONTINUOUS
  0
LAYER
  5
51
100
AcDbSymbolTableRecord
100
AcDbLayerTableRecord
  2
VISIBLE
 70
0
  6
CONTINUOUS
  0
ENDTAB
  0
TABLE
  2
STYLE
  5
3
330
0
100
AcDbSymbolTable
 70
     1
  0
STYLE
  5
11
330
3
100
AcDbSymbolTableRecord
100
AcDbTextStyleTableRecord
  2
STANDARD
 70
     0
 40
0.0
 41
1.0
 50
0.0
 71
     0
 42
2.5
  3
txt
  4

  0
ENDTAB
  0
TABLE
  2
VIEW
  5
6
330
0
100
AcDbSymbolTable
 70
     0
  0
ENDTAB
  0
TABLE
  2
UCS
  5
7
330
0
100
AcDbSymbolTable
 70
     0
  0
ENDTAB
  0
TABLE
  2
APPID
  5
9
330
0
100
AcDbSymbolTable
 70
     2
  0
APPID
  5
12
330
9
100
AcDbSymbolTableRecord
100
AcDbRegAppTableRecord
  2
ACAD
 70
     0
  0
ENDTAB
  0
TABLE
  2
DIMSTYLE
  5
A
330
0
100
AcDbSymbolTable
 70
     1
  0
DIMSTYLE
105
27
330
A
100
AcDbSymbolTableRecord
100
AcDbDimStyleTableRecord
  2
ISO-25
 70
     0
  3

  4

  5

  6

  7

 40
1.0
 41
2.5
 42
0.625
 43
3.75
 44
1.25
 45
0.0
 46
0.0
 47
0.0
 48
0.0
140
2.5
141
2.5
142
0.0
143
0.03937007874016
144
1.0
145
0.0
146
1.0
147
0.625
 71
     0
 72
     0
 73
     0
 74
     0
 75
     0
 76
     0
 77
     1
 78
     8
170
     0
171
     3
172
     1
173
     0
174
     0
175
     0
176
     0
177
     0
178
     0
270
     2
271
     2
272
     2
273
     2
274
     3
340
11
275
     0
280
     0
281
     0
282
     0
283
     0
284
     8
285
     0
286
     0
287
     3
288
     0
  0
ENDTAB
  0
TABLE
  2
BLOCK_RECORD
  5
1
330
0
100
AcDbSymbolTable
 70
     1
  0
BLOCK_RECORD
  5
1F
330
1
100
AcDbSymbolTableRecord
100
AcDbBlockTableRecord
  2
*MODEL_SPACE
  0
BLOCK_RECORD
  5
1B
330
1
100
AcDbSymbolTableRecord
100
AcDbBlockTableRecord
  2
*PAPER_SPACE
  0
ENDTAB
  0
ENDSEC
  0
SECTION
  2
BLOCKS
  0
BLOCK
  5
20
330
1F
100
AcDbEntity
  8
0
100
AcDbBlockBegin
  2
*MODEL_SPACE
 70
     0
 10
0.0
 20
0.0
 30
0.0
  3
*MODEL_SPACE
  1

  0
ENDBLK
  5
21
330
1F
100
AcDbEntity
  8
0
100
AcDbBlockEnd
  0
BLOCK
  5
1C
330
1B
100
AcDbEntity
 67
     1
  8
0
100
AcDbBlockBegin
  2
*PAPER_SPACE
  1

  0
ENDBLK
  5
1D
330
1B
100
AcDbEntity
 67
     1
  8
0
100
AcDbBlockEnd
  0
ENDSEC
  0
SECTION
  2
ENTITIES
  0
LWPOLYLINE
  5
100
100
AcDbEntity
  8
VISIBLE
 62
7
100
AcDbPolyline
 90
2
 70
0
 10
10.615307
 20
266.245582
 30
0.0
 10
10.615307
 20
179.845577
 30
0.0
  0
LWPOLYLINE
  5
101
100
AcDbEntity
  8
VISIBLE
 62
7
100
AcDbPolyline
 90
2
 70
0
 10
10.615307
 20
266.245582
 30
0.0
 10
171.015308
 20
266.245582
 30
0.0
  0
LWPOLYLINE
  5
102
100
AcDbEntity
  8
VISIBLE
 62
7
100
AcDbPolyline
 90
2
 70
0
 10
96.515306
 20
216.895578
 30
0.0
 10
99.715307
 20
216.895578
 30
0.0
  0
LWPOLYLINE
  5
103
100
AcDbEntity
  8
VISIBLE
 62
7
100
AcDbPolyline
 90
2
 70
0
 10
99.715307
 20
229.195578
 30
0.0
 10
99.715307
 20
216.895578
 30
0.0
  0
LWPOLYLINE
  5
104
100
AcDbEntity
  8
VISIBLE
 62
7
100
AcDbPolyline
 90
2
 70
0
 10
147.465307
 20
216.895578
 30
0.0
 10
150.665307
 20
216.895578
 30
0.0
  0
LWPOLYLINE
  5
105
100
AcDbEntity
  8
VISIBLE
 62
7
100
AcDbPolyline
 90
2
 70
0
 10
10.615307
 20
179.845577
 30
0.0
 10
171.015308
 20
179.845577
 30
0.0
  0
LWPOLYLINE
  5
106
100
AcDbEntity
  8
VISIBLE
 62
7
100
AcDbPolyline
 90
2
 70
0
 10
150.665307
 20
229.195578
 30
0.0
 10
150.665307
 20
216.895578
 30
0.0
  0
LWPOLYLINE
  5
107
100
AcDbEntity
  8
VISIBLE
 62
7
100
AcDbPolyline
 90
2
 70
0
 10
96.515306
 20
229.195578
 30
0.0
 10
99.715307
 20
229.195578
 30
0.0
  0
LWPOLYLINE
  5
108
100
AcDbEntity
  8
VISIBLE
 62
7
100
AcDbPolyline
 90
3
 70
0
 10
115.615307
 20
221.045568
 30
0.0
 10
140.615308
 20
221.045568
 30
0.0
 10
140.615308
 20
217.845565
 30
0.0
  0
LWPOLYLINE
  5
109
100
AcDbEntity
  8
VISIBLE
 62
7
100
AcDbPolyline
 90
2
 70
0
 10
147.465307
 20
229.195578
 30
0.0
 10
147.465307
 20
216.895578
 30
0.0
  0
LWPOLYLINE
  5
10a
100
AcDbEntity
  8
VISIBLE
 62
7
100
AcDbPolyline
 90
2
 70
0
 10
96.515306
 20
229.195578
 30
0.0
 10
96.515306
 20
216.895578
 30
0.0
  0
LWPOLYLINE
  5
10b
100
AcDbEntity
  8
VISIBLE
 62
7
100
AcDbPolyline
 90
3
 70
0
 10
115.615307
 20
221.045568
 30
0.0
 10
115.615307
 20
217.845565
 30
0.0
 10
140.615308
 20
217.845565
 30
0.0
  0
SPLINE
  5
10c
100
AcDbEntity
  8
VISIBLE
 62
7
100
AcDbSpline
 70
8
 71
3
 72
8
 73
4
 74
0
 40
0
 40
0
 40
0
 40
0
 40
1
 40
1
 40
1
 40
1
 10
65.415308
 20
204.945563
 30
0.0
 10
66.423037
 20
204.995890
 30
0.0
 10
67.430766
 20
205.046187
 30
0.0
 10
68.424454
 20
205.202133
 30
0.0
  0
SPLINE
  5
10d
100
AcDbEntity
  8
VISIBLE
 62
7
100
AcDbSpline
 70
8
 71
3
 72
8
 73
4
 74
0
 40
0
 40
0
 40
0
 40
0
 40
1
 40
1
 40
1
 40
1
 10
68.424454
 20
205.202133
 30
0.0
 10
69.418147
 20
205.358104
 30
0.0
 10
70.397799
 20
205.619724
 30
0.0
 10
71.348645
 20
205.957174
 30
0.0
  0
SPLINE
  5
10e
100
AcDbEntity
  8
VISIBLE
 62
7
100
AcDbSpline
 70
8
 71
3
 72
8
 73
4
 74
0
 40
0
 40
0
 40
0
 40
0
 40
1
 40
1
 40
1
 40
1
 10
71.348645
 20
205.957174
 30
0.0
 10
72.299433
 20
206.294597
 30
0.0
 10
73.221421
 20
206.707850
 30
0.0
 10
74.102852
 20
207.195318
 30
0.0
  0
SPLINE
  5
10f
100
AcDbEntity
  8
VISIBLE
 62
7
100
AcDbSpline
 70
8
 71
3
 72
8
 73
4
 74
0
 40
0
 40
0
 40
0
 40
0
 40
1
 40
1
 40
1
 40
1
 10
74.102852
 20
207.195318
 30
0.0
 10
74.984295
 20
207.682813
 30
0.0
 10
75.825181
 20
208.244497
 30
0.0
 10
76.612901
 20
208.874232
 30
0.0
  0
SPLINE
  5
110
100
AcDbEntity
  8
VISIBLE
 62
7
100
AcDbSpline
 70
8
 71
3
 72
8
 73
4
 74
0
 40
0
 40
0
 40
0
 40
0
 40
1
 40
1
 40
1
 40
1
 10
76.612901
 20
208.874232
 30
0.0
 10
77.401587
 20
209.504734
 30
0.0
 10
78.136975
 20
210.203472
 30
0.0
 10
78.809771
 20
210.956952
 30
0.0
  0
SPLINE
  5
111
100
AcDbEntity
  8
VISIBLE
 62
7
100
AcDbSpline
 70
8
 71
3
 72
8
 73
4
 74
0
 40
0
 40
0
 40
0
 40
0
 40
1
 40
1
 40
1
 40
1
 10
78.809771
 20
210.956952
 30
0.0
 10
79.482572
 20
211.710433
 30
0.0
 10
80.092780
 20
212.518708
 30
0.0
 10
80.630898
 20
213.375188
 30
0.0
  0
SPLINE
  5
112
100
AcDbEntity
  8
VISIBLE
 62
7
100
AcDbSpline
 70
8
 71
3
 72
8
 73
4
 74
0
 40
0
 40
0
 40
0
 40
0
 40
1
 40
1
 40
1
 40
1
 10
80.630898
 20
213.375188
 30
0.0
 10
81.170425
 20
214.233923
 30
0.0
 10
81.637484
 20
215.141123
 30
0.0
 10
82.026794
 20
216.079286
 30
0.0
  0
SPLINE
  5
113
100
AcDbEntity
  8
VISIBLE
 62
7
100
AcDbSpline
 70
8
 71
3
 72
8
 73
4
 74
0
 40
0
 40
0
 40
0
 40
0
 40
1
 40
1
 40
1
 40
1
 10
82.026794
 20
216.079286
 30
0.0
 10
82.416108
 20
217.017445
 30
0.0
 10
82.727670
 20
217.986558
 30
0.0
 10
82.954783
 20
218.977502
 30
0.0
  0
SPLINE
  5
114
100
AcDbEntity
  8
VISIBLE
 62
7
100
AcDbSpline
 70
8
 71
3
 72
8
 73
4
 74
0
 40
0
 40
0
 40
0
 40
0
 40
1
 40
1
 40
1
 40
1
 10
82.954783
 20
218.977502
 30
0.0
 10
83.182457
 20
219.970910
 30
0.0
 10
83.325269
 20
220.986222
 30
0.0
 10
83.383766
 20
222.005473
 30
0.0
  0
SPLINE
  5
115
100
AcDbEntity
  8
VISIBLE
 62
7
100
AcDbSpline
 70
8
 71
3
 72
8
 73
4
 74
0
 40
0
 40
0
 40
0
 40
0
 40
1
 40
1
 40
1
 40
1
 10
83.383766
 20
222.005473
 30
0.0
 10
83.442262
 20
223.024730
 30
0.0
 10
83.416447
 20
224.047927
 30
0.0
 10
83.303189
 20
225.062604
 30
0.0
  0
SPLINE
  5
116
100
AcDbEntity
  8
VISIBLE
 62
7
100
AcDbSpline
 70
8
 71
3
 72
8
 73
4
 74
0
 40
0
 40
0
 40
0
 40
0
 40
1
 40
1
 40
1
 40
1
 10
83.303189
 20
225.062604
 30
0.0
 10
83.189794
 20
226.078551
 30
0.0
 10
82.988740
 20
227.085952
 30
0.0
 10
82.706070
 20
228.069723
 30
0.0
  0
SPLINE
  5
117
100
AcDbEntity
  8
VISIBLE
 62
7
100
AcDbSpline
 70
8
 71
3
 72
8
 73
4
 74
0
 40
0
 40
0
 40
0
 40
0
 40
1
 40
1
 40
1
 40
1
 10
82.706070
 20
228.069723
 30
0.0
 10
82.423405
 20
229.053473
 30
0.0
 10
82.059124
 20
230.013620
 30
0.0
 10
81.615423
 20
230.934925
 30
0.0
  0
SPLINE
  5
118
100
AcDbEntity
  8
VISIBLE
 62
7
100
AcDbSpline
 70
8
 71
3
 72
8
 73
4
 74
0
 40
0
 40
0
 40
0
 40
0
 40
1
 40
1
 40
1
 40
1
 10
81.615423
 20
230.934925
 30
0.0
 10
81.171957
 20
231.855781
 30
0.0
 10
80.649159
 20
232.737823
 30
0.0
 10
80.056622
 20
233.571072
 30
0.0
  0
SPLINE
  5
119
100
AcDbEntity
  8
VISIBLE
 62
7
100
AcDbSpline
 70
8
 71
3
 72
8
 73
4
 74
0
 40
0
 40
0
 40
0
 40
0
 40
1
 40
1
 40
1
 40
1
 10
80.056622
 20
233.571072
 30
0.0
 10
79.464093
 20
234.404327
 30
0.0
 10
78.801833
 20
235.188738
 30
0.0
 10
78.078507
 20
235.908960
 30
0.0
  0
SPLINE
  5
11a
100
AcDbEntity
  8
VISIBLE
 62
7
100
AcDbSpline
 70
8
 71
3
 72
8
 73
4
 74
0
 40
0
 40
0
 40
0
 40
0
 40
1
 40
1
 40
1
 40
1
 10
78.078507
 20
235.908960
 30
0.0
 10
77.356687
 20
236.627674
 30
0.0
 10
76.574055
 20
237.282438
 30
0.0
 10
75.741668
 20
237.868543
 30
0.0
  0
SPLINE
  5
11b
100
AcDbEntity
  8
VISIBLE
 62
7
100
AcDbSpline
 70
8
 71
3
 72
8
 73
4
 74
0
 40
0
 40
0
 40
0
 40
0
 40
1
 40
1
 40
1
 40
1
 10
75.741668
 20
237.868543
 30
0.0
 10
74.909288
 20
238.454648
 30
0.0
 10
74.027152
 20
238.972120
 30
0.0
 10
73.109468
 20
239.408656
 30
0.0
  0
SPLINE
  5
11c
100
AcDbEntity
  8
VISIBLE
 62
7
100
AcDbSpline
 70
8
 71
3
 72
8
 73
4
 74
0
 40
0
 40
0
 40
0
 40
0
 40
1
 40
1
 40
1
 40
1
 10
73.109468
 20
239.408656
 30
0.0
 10
72.194280
 20
239.844002
 30
0.0
 10
71.243735
 20
240.198888
 30
0.0
 10
70.269280
 20
240.473128
 30
0.0
  0
SPLINE
  5
11d
100
AcDbEntity
  8
VISIBLE
 62
7
100
AcDbSpline
 70
8
 71
3
 72
8
 73
4
 74
0
 40
0
 40
0
 40
0
 40
0
 40
1
 40
1
 40
1
 40
1
 10
70.269280
 20
240.473128
 30
0.0
 10
69.294835
 20
240.747342
 30
0.0
 10
68.296480
 20
240.940938
 30
0.0
 10
67.291006
 20
241.047036
 30
0.0
  0
SPLINE
  5
11e
100
AcDbEntity
  8
VISIBLE
 62
7
100
AcDbSpline
 70
8
 71
3
 72
8
 73
4
 74
0
 40
0
 40
0
 40
0
 40
0
 40
1
 40
1
 40
1
 40
1
 10
67.291006
 20
241.047036
 30
0.0
 10
66.287687
 20
241.152896
 30
0.0
 10
65.277275
 20
241.171678
 30
0.0
 10
64.271544
 20
241.107149
 30
0.0
  0
SPLINE
  5
11f
100
AcDbEntity
  8
VISIBLE
 62
7
100
AcDbSpline
 70
8
 71
3
 72
8
 73
4
 74
0
 40
0
 40
0
 40
0
 40
0
 40
1
 40
1
 40
1
 40
1
 10
64.271544
 20
241.107149
 30
0.0
 10
63.265807
 20
241.042644
 30
0.0
 10
62.264750
 20
240.894874
 30
0.0
 10
61.284390
 20
240.662490
 30
0.0
  0
SPLINE
  5
120
100
AcDbEntity
  8
VISIBLE
 62
7
100
AcDbSpline
 70
8
 71
3
 72
8
 73
4
 74
0
 40
0
 40
0
 40
0
 40
0
 40
1
 40
1
 40
1
 40
1
 10
61.284390
 20
240.662490
 30
0.0
 10
60.304651
 20
240.430239
 30
0.0
 10
59.345584
 20
240.113506
 30
0.0
 10
58.419034
 20
239.720441
 30
0.0
  0
SPLINE
  5
121
100
AcDbEntity
  8
VISIBLE
 62
7
100
AcDbSpline
 70
8
 71
3
 72
8
 73
4
 74
0
 40
0
 40
0
 40
0
 40
0
 40
1
 40
1
 40
1
 40
1
 10
58.419034
 20
239.720441
 30
0.0
 10
57.492477
 20
239.327376
 30
0.0
 10
56.598442
 20
238.857953
 30
0.0
 10
55.750198
 20
238.314975
 30
0.0
  0
SPLINE
  5
122
100
AcDbEntity
  8
VISIBLE
 62
7
100
AcDbSpline
 70
8
 71
3
 72
8
 73
4
 74
0
 40
0
 40
0
 40
0
 40
0
 40
1
 40
1
 40
1
 40
1
 10
55.750198
 20
238.314975
 30
0.0
 10
54.900986
 20
237.771388
 30
0.0
 10
54.097674
 20
237.154033
 30
0.0
 10
53.350792
 20
236.475803
 30
0.0
  0
SPLINE
  5
123
100
AcDbEntity
  8
VISIBLE
 62
7
100
AcDbSpline
 70
8
 71
3
 72
8
 73
4
 74
0
 40
0
 40
0
 40
0
 40
0
 40
1
 40
1
 40
1
 40
1
 10
53.350792
 20
236.475803
 30
0.0
 10
52.603903
 20
235.797570
 30
0.0
 10
51.913446
 20
235.058457
 30
0.0
 10
51.289680
 20
234.264019
 30
0.0
  0
SPLINE
  5
124
100
AcDbEntity
  8
VISIBLE
 62
7
100
AcDbSpline
 70
8
 71
3
 72
8
 73
4
 74
0
 40
0
 40
0
 40
0
 40
0
 40
1
 40
1
 40
1
 40
1
 10
51.289680
 20
234.264019
 30
0.0
 10
50.664406
 20
233.467649
 30
0.0
 10
50.106143
 20
232.615688
 30
0.0
 10
49.621792
 20
231.724918
 30
0.0
  0
SPLINE
  5
125
100
AcDbEntity
  8
VISIBLE
 62
7
100
AcDbSpline
 70
8
 71
3
 72
8
 73
4
 74
0
 40
0
 40
0
 40
0
 40
0
 40
1
 40
1
 40
1
 40
1
 10
49.621792
 20
231.724918
 30
0.0
 10
49.137435
 20
230.834146
 30
0.0
 10
48.726992
 20
229.904559
 30
0.0
 10
48.398023
 20
228.944333
 30
0.0
  0
SPLINE
  5
126
100
AcDbEntity
  8
VISIBLE
 62
7
100
AcDbSpline
 70
8
 71
3
 72
8
 73
4
 74
0
 40
0
 40
0
 40
0
 40
0
 40
1
 40
1
 40
1
 40
1
 10
48.398023
 20
228.944333
 30
0.0
 10
48.068185
 20
227.981593
 30
0.0
 10
47.820255
 20
226.988056
 30
0.0
 10
47.655567
 20
225.981952
 30
0.0
  0
SPLINE
  5
127
100
AcDbEntity
  8
VISIBLE
 62
7
100
AcDbSpline
 70
8
 71
3
 72
8
 73
4
 74
0
 40
0
 40
0
 40
0
 40
0
 40
1
 40
1
 40
1
 40
1
 10
47.655567
 20
225.981952
 30
0.0
 10
47.490877
 20
224.975821
 30
0.0
 10
47.409428
 20
223.957149
 30
0.0
 10
47.415630
 20
222.937339
 30
0.0
  0
SPLINE
  5
128
100
AcDbEntity
  8
VISIBLE
 62
7
100
AcDbSpline
 70
8
 71
3
 72
8
 73
4
 74
0
 40
0
 40
0
 40
0
 40
0
 40
1
 40
1
 40
1
 40
1
 10
47.415630
 20
222.937339
 30
0.0
 10
47.421848
 20
221.915756
 30
0.0
 10
47.516002
 20
220.893035
 30
0.0
 10
47.693617
 20
219.885423
 30
0.0
  0
SPLINE
  5
129
100
AcDbEntity
  8
VISIBLE
 62
7
100
AcDbSpline
 70
8
 71
3
 72
8
 73
4
 74
0
 40
0
 40
0
 40
0
 40
0
 40
1
 40
1
 40
1
 40
1
 10
47.693617
 20
219.885423
 30
0.0
 10
47.871232
 20
218.877836
 30
0.0
 10
48.132302
 20
217.885384
 30
0.0
 10
48.476519
 20
216.922619
 30
0.0
  0
SPLINE
  5
12a
100
AcDbEntity
  8
VISIBLE
 62
7
100
AcDbSpline
 70
8
 71
3
 72
8
 73
4
 74
0
 40
0
 40
0
 40
0
 40
0
 40
1
 40
1
 40
1
 40
1
 10
48.476519
 20
216.922619
 30
0.0
 10
48.820753
 20
215.959800
 30
0.0
 10
49.248142
 20
215.026667
 30
0.0
 10
49.749792
 20
214.134889
 30
0.0
  0
SPLINE
  5
12b
100
AcDbEntity
  8
VISIBLE
 62
7
100
AcDbSpline
 70
8
 71
3
 72
8
 73
4
 74
0
 40
0
 40
0
 40
0
 40
0
 40
1
 40
1
 40
1
 40
1
 10
49.749792
 20
214.134889
 30
0.0
 10
50.251434
 20
213.243108
 30
0.0
 10
50.827334
 20
212.392714
 30
0.0
 10
51.471446
 20
211.599519
 30
0.0
  0
SPLINE
  5
12c
100
AcDbEntity
  8
VISIBLE
 62
7
100
AcDbSpline
 70
8
 71
3
 72
8
 73
4
 74
0
 40
0
 40
0
 40
0
 40
0
 40
1
 40
1
 40
1
 40
1
 10
51.471446
 20
211.599519
 30
0.0
 10
52.114484
 20
210.807621
 30
0.0
 10
52.825512
 20
210.072768
 30
0.0
 10
53.591545
 20
209.400673
 30
0.0
  0
SPLINE
  5
12d
100
AcDbEntity
  8
VISIBLE
 62
7
100
AcDbSpline
 70
8
 71
3
 72
8
 73
4
 74
0
 40
0
 40
0
 40
0
 40
0
 40
1
 40
1
 40
1
 40
1
 10
53.591545
 20
209.400673
 30
0.0
 10
54.357569
 20
208.728579
 30
0.0
 10
55.178600
 20
208.119270
 30
0.0
 10
56.050138
 20
207.588330
 30
0.0
  0
SPLINE
  5
12e
100
AcDbEntity
  8
VISIBLE
 62
7
100
AcDbSpline
 70
8
 71
3
 72
8
 73
4
 74
0
 40
0
 40
0
 40
0
 40
0
 40
1
 40
1
 40
1
 40
1
 10
56.050138
 20
207.588330
 30
0.0
 10
56.919373
 20
207.058793
 30
0.0
 10
57.838851
 20
206.607202
 30
0.0
 10
58.766628
 20
206.227578
 30
0.0
  0
SPLINE
  5
12f
100
AcDbEntity
  8
VISIBLE
 62
7
100
AcDbSpline
 70
8
 71
3
 72
8
 73
4
 74
0
 40
0
 40
0
 40
0
 40
0
 40
1
 40
1
 40
1
 40
1
 10
58.766628
 20
206.227578
 30
0.0
 10
59.694397
 20
205.847928
 30
0.0
 10
60.630464
 20
205.540244
 30
0.0
 10
61.672642
 20
205.341145
 30
0.0
  0
SPLINE
  5
130
100
AcDbEntity
  8
VISIBLE
 62
7
100
AcDbSpline
 70
8
 71
3
 72
8
 73
4
 74
0
 40
0
 40
0
 40
0
 40
0
 40
1
 40
1
 40
1
 40
1
 10
61.672642
 20
205.341145
 30
0.0
 10
62.832570
 20
205.119583
 30
0.0
 10
64.123938
 20
205.032588
 30
0.0
 10
65.415308
 20
204.945563
 30
0.0
  0
LWPOLYLINE
  5
131
100
AcDbEntity
  8
VISIBLE
 62
7
100
AcDbPolyline
 90
2
 70
0
 10
171.015308
 20
266.245582
 30
0.0
 10
171.015308
 20
179.845577
 30
0.0
  0
LWPOLYLINE
  5
132
100
AcDbEntity
  8
VISIBLE
 62
7
100
AcDbPolyline
 90
2
 70
0
 10
147.465307
 20
229.195578
 30
0.0
 10
150.665307
 20
229.195578
 30
0.0
  0
ENDSEC
  0
SECTION
  2
OBJECTS
  0
DICTIONARY
  5
C
330
0
100
AcDbDictionary
  3
ACAD_GROUP
350
D
  3
ACAD_MLINESTYLE
350
17
  0
DICTIONARY
  5
D
330
C
100
AcDbDictionary
  0
DICTIONARY
  5
1A
330
C
100
AcDbDictionary
  0
DICTIONARY
  5
17
330
C
100
AcDbDictionary
  3
STANDARD
350
18
  0
DICTIONARY
  5
19
330
C
100
AcDbDictionary
  0
ENDSEC
  0
EOF
